<svg width="240" height="240" version="1.1" xmlns="http://www.w3.org/2000/svg">
 <defs>
  <filter id="filter11441" x="-.02646" y="-.021168" width="1.0529" height="1.0423" color-interpolation-filters="sRGB">
   <feGaussianBlur stdDeviation="0.7056"/>
  </filter>
 </defs>
 <rect x="-293.33" y="40" width="533.33" height="200" fill="none" stroke-linecap="round" stroke-linejoin="round" stroke-miterlimit="2" stroke-width="4.3259"/>
 <path d="m0 224.44h240v15.556h-240z" fill="#2c2c2c" opacity=".75"/>
 <path d="m108.51 228.05v0.57291h-1.7057v6.8273c0 0.31533 0.25325 0.56857 0.56858 0.56857h4.553c0.31533 0 0.56858-0.25324 0.56858-0.56857v-6.8273h-1.7057v-0.57291zm17.075 0-2.3003 2.3003h-1.7101v3.4158h1.7578l2.2526 2.2526zm1.1372 0v0.85503c1.3205 0.4212 2.2786 1.6665 2.2786 3.1293s-0.95811 2.7081-2.2786 3.1293v0.85503c1.793-0.44397 3.1337-2.0491 3.1337-3.9844s-1.3407-3.5404-3.1337-3.9844zm-51.784 0.026c-0.5692 0-0.56858 0.56858-0.56858 0.56858v6.8316s-6.22e-4 0.56858 0.56858 0.56858h5.6901s0.56858 6.2e-4 0.56858-0.56858v-6.8316s6.22e-4 -0.56858-0.56858-0.56858zm157.1 0.54687c-0.94309 0-1.7057 0.76703-1.7057 1.7101s0.76264 1.7057 1.7057 1.7057c0.94311 0 1.7101-0.76269 1.7101-1.7057s-0.76696-1.7101-1.7101-1.7101zm-154.26 0.59472c1.2574 0 2.2786 1.0169 2.2786 2.2743s-1.0212 2.2786-2.2786 2.2786h-2.2743v-2.2786c0-1.2574 1.0169-2.2743 2.2743-2.2743zm-28.576 0.0737c-0.69571 0-1.2968 0.19896-1.7969 0.59028l0.39498 0.52083c0.43482-0.32611 0.90187-0.49045 1.4019-0.49045 0.30433 0 0.54222 0.0865 0.71613 0.26042 0.19578 0.15217 0.29516 0.35977 0.29516 0.62066 0 0.34783-0.12111 0.62894-0.36024 0.84635-0.23916 0.19564-0.57649 0.29514-1.0113 0.29514h-0.55556v0.62066h0.55556c0.52178 0 0.90236 0.0865 1.1415 0.26042 0.26087 0.17393 0.39062 0.43341 0.39062 0.78125 0 0.39132-0.12111 0.6854-0.36024 0.88107-0.23916 0.19567-0.59376 0.29514-1.072 0.29514-0.54349 0-1.0668-0.12973-1.5668-0.39062v0.71614c0.39136 0.19567 0.92329 0.2908 1.5972 0.2908 0.71742 0 1.2624-0.15136 1.632-0.45573 0.36956-0.32611 0.5512-0.75857 0.5512-1.3021 0-0.82606-0.48869-1.3061-1.467-1.4366 0.84787-0.17394 1.2717-0.64965 1.2717-1.4323 0-0.4348-0.15133-0.78512-0.45571-1.046-0.30438-0.28263-0.73687-0.42535-1.3021-0.42535zm-12.582 0.12153c-0.63047 0-1.2057 0.22488-1.7274 0.68143l0.42536 0.49045c0.41307-0.3696 0.83689-0.55556 1.2717-0.55556 0.30436 0 0.54222 0.0865 0.71613 0.26042 0.174 0.17393 0.26042 0.41612 0.26042 0.72049 0 0.30435-0.07355 0.59845-0.22569 0.88107-0.13044 0.28263-0.4894 0.73671-1.0764 1.3672l-1.4366 1.5321v0.65538h3.7196v-0.68576h-2.8038v-0.0347l1.1415-1.2066c0.587-0.65221 0.96756-1.1496 1.1415-1.4974 0.19578-0.34785 0.2908-0.69817 0.2908-1.046 0-0.47829-0.15133-0.85887-0.45573-1.1415-0.30436-0.28262-0.71953-0.42101-1.2413-0.42101zm25.382 0.0347-2.7083 4.0104v0.65104h2.7387v1.3368h0.71613v-1.3368h0.88109v-0.68577h-0.88109v-3.9757zm31.727 0.31684c-1.2679 0-2.5353 0.48288-3.5026 1.4496l3.5026 4.2448 3.5026-4.2448c-0.9674-0.96677-2.2347-1.4496-3.5026-1.4496zm-31.662 0.46441h0.03044c-0.04333 0.69569-0.06511 1.2839-0.06511 1.7622v1.4366l-2.0226-4e-3 1.697-2.4783c0.13044-0.19567 0.25151-0.43352 0.36024-0.71615zm64.653 0.0998v3.4115c0.60335-0.33013 1.02-0.96578 1.02-1.7057s-0.41096-1.3756-1.02-1.7057zm-48.941 0.026c-0.62873 0-1.1372 0.50843-1.1372 1.1372 0 0.62871 0.50844 1.1372 1.1372 1.1372s1.1415-0.50844 1.1415-1.1372c0-0.62872-0.51278-1.1372-1.1415-1.1372zm154.26 2.8212c-3.4153 2e-3 -3.4115 2.2786-3.4115 2.2786v0.56858h6.8273v-0.56858s-7.3e-4 -2.2804-3.4158-2.2786z" fill="#ffffff" opacity=".8" stroke-width=".56919"/>
 <path d="m73.228 236.6v-9.1071h9.1071v9.1071z" color="#bebebe" opacity="0" stroke-width="1.7076"/>
 <path d="m98.285 236.6v-9.1071h-9.1071v9.1071z" color="#bebebe" fill="none" stroke-width=".56919"/>
 <path d="m89.178 229.94c2.5149-2.5134 6.5924-2.5134 9.1071 0l-4.5536 5.5139z" fill="#ffffff" opacity=".35" stroke-width=".56919"/>
 <path d="m114.2 227.48v9.1071h-9.1071v-9.1071z" color="#dddddd" fill="none" stroke-width=".56919"/>
 <path d="m121.04 227.48h9.1071v9.1071h-9.1071z" color="#bebebe" fill="none" opacity=".1" stroke-width=".56919"/>
 <path d="m227.49 227.49h9.1071v9.1071h-9.1071z" color="#bebebe" enable-background="new" fill="none" stroke-width=".56919"/>
 <path d="m24.544 235.45h-0.71742v-3.7177q0-0.78265 0.03267-1.4675l-1.1087 0.94571-0.39133-0.48916 1.5653-1.2392h0.6196z" fill="#ffffff" stroke-width=".56919"/>
 <path d="m135.56 224.44h88.889v15.556h-88.889z" fill="#3c84f7" fill-rule="evenodd" stroke-width="2.1063"/>
 <path d="m197.38 228.94c-0.74176 0-1.3164 0.25164-1.7187 0.75955-0.40231 0.50544-0.60331 1.2261-0.60331 2.1615 0 0.93289 0.20111 1.6536 0.60331 2.1615 0.40231 0.5054 0.97698 0.75955 1.7187 0.75955 0.73924 0 1.3078-0.25415 1.7101-0.75955 0.40231-0.50796 0.60331-1.2286 0.60331-2.1615 0-0.9354-0.20111-1.6561-0.60331-2.1615-0.40231-0.50791-0.97082-0.75955-1.7101-0.75955zm5.382 0c-0.68642 0-1.208 0.12434-1.5625 0.37327-0.35453 0.24892-0.53384 0.60984-0.53384 1.0851 0 0.31934 0.0869 0.58488 0.26042 0.79861 0.17355 0.21371 0.4306 0.37432 0.77255 0.47743-0.38217 0.1056-0.66757 0.27762-0.86371 0.51649-0.19355 0.23636-0.2908 0.53636-0.2908 0.89844 0 0.55819 0.18334 0.98072 0.55556 1.2674 0.37464 0.28413 0.93064 0.42535 1.6623 0.42535 0.72918 0 1.2753-0.14123 1.645-0.42535 0.37213-0.28664 0.55991-0.70917 0.55991-1.2674 0-0.36208-0.0991-0.66208-0.29516-0.89844-0.19355-0.23891-0.48151-0.41094-0.86371-0.51649 0.34196-0.10309 0.59907-0.26371 0.77258-0.47743 0.176-0.21374 0.26475-0.47927 0.26475-0.79861 0-0.47774-0.17488-0.83866-0.52951-1.0851-0.35453-0.24894-0.87242-0.37327-1.5538-0.37327zm13.832 0c-0.68645 0-1.208 0.12434-1.5625 0.37327-0.35454 0.24892-0.52952 0.60984-0.52952 1.0851 0 0.31934 0.0827 0.58488 0.25607 0.79861 0.17356 0.21371 0.43496 0.37432 0.77691 0.47743-0.38218 0.1056-0.67191 0.27762-0.86804 0.51649-0.19356 0.23636-0.2908 0.53636-0.2908 0.89844 0 0.55819 0.18333 0.98072 0.55555 1.2674 0.37465 0.28413 0.93065 0.42535 1.6623 0.42535 0.72917 0 1.2797-0.14123 1.6493-0.42535 0.37213-0.28664 0.55555-0.70917 0.55555-1.2674 0-0.36208-0.0989-0.66208-0.29513-0.89844-0.19356-0.23891-0.48151-0.41094-0.86371-0.51649 0.34197-0.10309 0.60342-0.26371 0.77691-0.47743 0.176-0.21374 0.26042-0.47927 0.26042-0.79861 0-0.47774-0.17489-0.83866-0.52951-1.0851-0.35453-0.24894-0.87242-0.37327-1.5538-0.37327zm-36.094 0.0912-1.3108 0.27344v0.98524l1.3194-0.2691v3.6372h-1.2847v1.0026h3.9366v-1.0026h-1.2804v-4.6267zm-39.484 4e-3v1.0938h1.8707v4.5356h1.454v-4.5356h1.8663v-1.0938zm18.524 0v5.6293h1.3759v-3.8628l2.0486 3.8628h1.6233v-5.6293h-1.3802v3.8585l-2.0486-3.8585zm26.758 9e-3 -2.2569 3.3594v1.2457h2.4957v1.0243h1.3759v-1.0243h0.80296v-1.0547h-0.80296v-3.5504zm24.826 0-2.257 3.3594v1.2457h2.4957v1.0243h1.3759v-1.0243h0.80295v-1.0547h-0.80295v-3.5504zm-8.3637 0.80729c0.22625 0 0.39758 0.0617 0.52082 0.18229 0.12334 0.11818 0.18667 0.28836 0.18667 0.51216 0 0.22371-0.0633 0.39573-0.18667 0.51649-0.12311 0.12062-0.29451 0.18229-0.52082 0.18229-0.23127 0-0.41242-0.0617-0.5382-0.18229-0.12333-0.12069-0.18222-0.29271-0.18222-0.51649 0-0.22123 0.0591-0.3914 0.18222-0.51216 0.12578-0.12062 0.30687-0.18229 0.5382-0.18229zm13.832 0c0.22624 0 0.40191 0.0617 0.52515 0.18229 0.12311 0.11818 0.18222 0.28836 0.18222 0.51216 0 0.22371-0.0591 0.39573-0.18222 0.51649-0.12311 0.12062-0.29884 0.18229-0.52515 0.18229-0.23127 0-0.41243-0.0617-0.5382-0.18229-0.12334-0.12069-0.18223-0.29271-0.18223-0.51649 0-0.22123 0.0591-0.3914 0.18223-0.51216 0.12577-0.12062 0.30686-0.18229 0.5382-0.18229zm-19.214 0.0825c0.31173 0 0.53324 0.14053 0.66406 0.42969 0.13311 0.28665 0.19956 0.78469 0.19956 1.4887 0 0.71158-0.0665 1.2144-0.19956 1.5061-0.13333 0.29168-0.35478 0.43403-0.66406 0.43403-0.31185 0-0.53523-0.14236-0.6684-0.43403-0.13312-0.29168-0.19956-0.7945-0.19956-1.5061 0-0.70402 0.0664-1.2021 0.19956-1.4887 0.13333-0.28915 0.35662-0.42969 0.6684-0.42969zm-10.842 0.30382v2.3568h-1.5886zm24.826 0v2.3568h-1.5885zm-57.799 0.0998c-0.7292 0-1.3057 0.19551-1.7231 0.59028-0.41487 0.39475-0.62065 0.93865-0.62065 1.6276 0 0.70153 0.21133 1.2466 0.63367 1.6363 0.42495 0.38722 1.0195 0.5816 1.7839 0.5816 0.31934-1e-5 0.63987-0.0327 0.9592-0.0955 0.31934-0.0603 0.63554-0.14834 0.95487-0.2691v-1.0417c-0.31431 0.17098-0.62093 0.29647-0.92015 0.38195-0.29672 0.083-0.58394 0.12586-0.86805 0.12586-0.35202 0-0.62851-0.0803-0.82464-0.23871-0.196-0.1584-0.31016-0.39499-0.34289-0.71181h3.1554v-0.38628c0-0.66883-0.19912-1.2018-0.59896-1.6016-0.39727-0.39979-0.92473-0.59896-1.5885-0.59896zm14.388 9e-3c-0.72918 0-1.302 0.19804-1.7144 0.59028-0.40987 0.39225-0.61198 0.93363-0.61198 1.6276 0 0.69399 0.202 1.2397 0.61198 1.632 0.41235 0.39224 0.98522 0.58593 1.7144 0.58593 0.72666 0 1.2941-0.19369 1.7014-0.58593 0.40984-0.39226 0.61197-0.93796 0.61197-1.632 0-0.69397-0.20222-1.2354-0.61197-1.6276-0.40734-0.39225-0.97474-0.59028-1.7014-0.59028zm-21.944 0.0868v2.5825c0 0.57077 0.128 1.0029 0.38196 1.3021 0.25646 0.29922 0.62766 0.45139 1.1154 0.45139 0.27409 0 0.52458-0.058 0.75087-0.17363 0.22882-0.11817 0.44304-0.30046 0.64671-0.54687v0.60764h1.3498v-4.2231h-1.3498v2.0877c0 0.38471-0.0778 0.68221-0.23871 0.89844-0.16089 0.21624-0.38245 0.32552-0.66407 0.32552-0.11578 0-0.222-0.0218-0.31251-0.0694-0.0878-0.0478-0.15733-0.11594-0.21267-0.204-0.0429-0.0679-0.0736-0.17718-0.0911-0.32552-0.0178-0.15087-0.026-0.3984-0.026-0.73785 0-0.11567 1e-3 -0.34564 4e-3 -0.6901 2e-3 -0.347 4e-3 -0.63491 4e-3 -0.86372v-0.42101zm24.696 0 1.6623 4.2231h1.48l1.6623-4.2231h-1.3542l-1.046 2.9167-1.0547-2.9167zm35.608 0v1.4583h1.3585v-1.4583zm-52.756 0.80295c0.2414 0 0.4376 0.0803 0.58593 0.23872 0.15089 0.15588 0.22569 0.35985 0.22569 0.61632h-1.7535c0.0402-0.27658 0.14045-0.48785 0.30383-0.63368 0.16355-0.14836 0.37653-0.22136 0.63802-0.22136zm14.397 0.0781c0.2942 0 0.51686 0.10928 0.67275 0.32552 0.15578 0.21373 0.23438 0.51966 0.23438 0.92448 0 0.40483-0.0784 0.71692-0.23438 0.93316-0.156 0.21373-0.37858 0.32118-0.67275 0.32118-0.29923 0-0.52736-0.10747-0.68576-0.32118-0.156-0.21625-0.23438-0.52833-0.23438-0.93316 0-0.40482 0.0785-0.71076 0.23438-0.92448 0.15845-0.21625 0.38653-0.32552 0.68576-0.32552zm34.809 0.83767c0.26911 0 0.47305 0.0773 0.61631 0.22569 0.14334 0.14582 0.21711 0.35459 0.21711 0.63368 0 0.27659-0.0738 0.48967-0.21711 0.63802-0.14333 0.14583-0.34726 0.22136-0.61631 0.22136-0.2716 0-0.48358-0.0755-0.62935-0.22136-0.146-0.14835-0.21689-0.36143-0.21689-0.63802 0-0.27658 0.0711-0.48534 0.21689-0.63368 0.14577-0.14835 0.3578-0.22569 0.62935-0.22569zm13.832 0c0.26911 0 0.47304 0.0773 0.61631 0.22569 0.14333 0.14582 0.21711 0.35459 0.21711 0.63368 0 0.27659-0.0738 0.48967-0.21711 0.63802-0.14334 0.14583-0.34727 0.22136-0.61631 0.22136-0.27163 0-0.47923-0.0755-0.625-0.22136-0.14578-0.14835-0.22134-0.36143-0.22134-0.63802 0-0.27658 0.0756-0.48534 0.22134-0.63368 0.14577-0.14835 0.35344-0.22569 0.625-0.22569zm-10.282 1.046v1.4583h1.3585v-1.4583zm-16.458 9e-3v1.1502l-0.3776 1.4062h0.80296l0.93315-1.4062v-1.1502z" fill="#ffffff" stroke-width=".52666"/>
 <rect transform="matrix(2.2222 0 0 2.2222 -293.33 40)" x="174" y="2" width="64" height="80" rx="6" ry="6" fill="#000000" filter="url(#filter11441)" opacity=".35" stroke-linecap="round" stroke-linejoin="round" stroke-miterlimit="2" stroke-width="4.2237"/>
 <rect x="93.333" y="42.222" width="142.22" height="177.78" rx="13.333" ry="13.333" fill="#ffffff"/>
 <path d="m110.52 49.701h4.5892v0.97054h-1.6509v4.0088h-1.284v-4.0088h-1.6542z" fill="#263238" stroke-width=".56919"/>
 <path d="m114.93 53.229v-2.2812h1.2007v0.37353q0 0.30351-4e-3 0.76376-4e-3 0.45692-4e-3 0.61035 0 0.45023 0.0231 0.65034 0.0236 0.19684 0.08 0.28684 0.0733 0.11682 0.19022 0.18006 0.12 0.06346 0.27349 0.06346 0.37353 0 0.58698-0.28683 0.21333-0.28681 0.21333-0.7971v-1.8443h1.194v3.7353h-1.194v-0.5403q-0.27018 0.32685-0.57364 0.48359-0.30018 0.15339-0.66372 0.15339-0.64702 0-0.98722-0.3969-0.33684-0.39687-0.33684-1.154z" fill="#263238" stroke-width=".56919"/>
 <path d="m123.56 52.799v0.34019h-2.7915q0.0436 0.42024 0.30349 0.63036 0.26016 0.21018 0.72707 0.21018 0.37686 0 0.7704-0.11015 0.39691-0.11337 0.8138-0.34019v0.9205q-0.42356 0.16006-0.84714 0.24013-0.42357 0.08347-0.84713 0.08347-1.0139 0-1.5775-0.51363-0.56031-0.51694-0.56031-1.4474 0-0.91383 0.55031-1.4375 0.55364-0.52363 1.5208-0.52363 0.88049 0 1.4074 0.5303 0.53029 0.5303 0.53029 1.4174zm-1.2273-0.39687q0-0.34019-0.2-0.54697-0.19689-0.21018-0.51695-0.21018-0.34685 0-0.56365 0.19684-0.21667 0.1934-0.27013 0.56031z" fill="#263238" stroke-width=".56919"/>
 <path d="m127.39 51.056v0.90716q-0.38356-0.16006-0.74042-0.24013-0.35685-0.08003-0.67369-0.08003-0.3402 0-0.50694 0.0867-0.16355 0.08347-0.16355 0.26014 0 0.14349 0.12355 0.22012 0.12667 0.0768 0.45025 0.11337l0.21022 0.03012q0.91718 0.11682 1.234 0.38354 0.31685 0.2668 0.31685 0.83712 0 0.59701-0.44025 0.89716-0.44024 0.30017-1.3141 0.30017-0.3702 0-0.76707-0.06002-0.39356-0.05658-0.81045-0.1734v-0.90716q0.35687 0.1734 0.7304 0.26014 0.37687 0.0867 0.76376 0.0867 0.35018 0 0.52693-0.09681 0.17689-0.09681 0.17689-0.28684 0-0.16006-0.12355-0.2368-0.12-0.08003-0.4836-0.12348l-0.21023-0.02668q-0.79711-0.10004-1.1173-0.3702-0.32018-0.27016-0.32018-0.82045 0-0.59368 0.40691-0.88049 0.40687-0.28684 1.2474-0.28684 0.33018 0 0.69372 0.05013 0.36351 0.04991 0.79042 0.15683z" fill="#263238" stroke-width=".56919"/>
 <path d="m131.06 51.487v-2.0011h1.2007v5.1896h-1.2007v-0.5403q-0.2468 0.33018-0.54364 0.48359-0.29682 0.15339-0.68705 0.15339-0.69037 0-1.134-0.54697-0.44358-0.55031-0.44358-1.4141 0-0.86382 0.44358-1.4108 0.44358-0.5503 1.134-0.5503 0.38689 0 0.68372 0.15683 0.30017 0.15339 0.54697 0.48026zm-0.78711 2.4181q0.38354 0 0.58365-0.28014 0.20355-0.28016 0.20355-0.81378 0-0.53363-0.20355-0.8138-0.2-0.28014-0.58365-0.28014-0.3802 0-0.58364 0.28014-0.2 0.28016-0.2 0.8138 0 0.53361 0.2 0.81378 0.20355 0.28014 0.58364 0.28014z" fill="#263238" stroke-width=".56919"/>
 <path d="m135.09 52.993q-0.37354 0-0.56365 0.12671-0.18666 0.12671-0.18666 0.37355 0 0.22679 0.15022 0.35686 0.15333 0.12671 0.42355 0.12671 0.33687 0 0.56698-0.24013 0.23013-0.24346 0.23013-0.60701v-0.13682zm1.8243-0.45025v2.1312h-1.204v-0.55364q-0.24013 0.34019-0.54029 0.49693-0.30017 0.15339-0.7304 0.15339-0.58031 0-0.94386-0.33685-0.3602-0.34019-0.3602-0.88049 0-0.65703 0.45024-0.96385 0.4536-0.30684 1.4208-0.30684h0.70371v-0.09337q0-0.28348-0.22344-0.41355-0.22347-0.13338-0.69705-0.13338-0.38355 0-0.71373 0.0768t-0.61369 0.23012v-0.9105q0.38356-0.09337 0.77045-0.14005 0.38686-0.05013 0.77375-0.05013 1.0106 0 1.4574 0.40023 0.45024 0.39687 0.45024 1.294z" fill="#263238" stroke-width=".56919"/>
 <path d="m137.32 50.949h1.194l1.0039 2.5347 0.8538-2.5347h1.194l-1.5709 4.089q-0.2368 0.62369-0.55362 0.87048-0.31351 0.25013-0.83047 0.25013h-0.69037v-0.78376h0.37355q0.30349 0 0.44022-0.09681 0.14-0.09681 0.21689-0.34686l0.0333-0.10348z" fill="#263238" stroke-width=".56919"/>
 <path d="m144.7 49.701h1.4341l1.811 3.4152v-3.4152h1.2174v4.9794h-1.4341l-1.811-3.4152v3.4152h-1.2173z" fill="#263238" stroke-width=".56919"/>
 <path d="m152.15 51.702q-0.39689 0-0.607 0.28681-0.20667 0.2835-0.20667 0.82047 0 0.53695 0.20667 0.82378 0.21022 0.28348 0.607 0.28348 0.39022 0 0.59698-0.28348 0.20666-0.28683 0.20666-0.82378 0-0.53697-0.20666-0.82047-0.20667-0.28681-0.59698-0.28681zm0-0.85381q0.96386 0 1.5042 0.52029 0.54363 0.52027 0.54363 1.4408 0 0.9205-0.54363 1.4408-0.54029 0.5203-1.5042 0.5203-0.9672 0-1.5142-0.5203-0.54364-0.52027-0.54364-1.4408 0-0.92052 0.54364-1.4408 0.54696-0.52029 1.5142-0.52029z" fill="#263238" stroke-width=".56919"/>
 <path d="m154.58 50.949h1.194l0.93051 2.5814 0.92716-2.5814h1.1973l-1.4708 3.7353h-1.3107z" fill="#263238" stroke-width=".56919"/>
 <path d="m163.23 52.799v0.34019h-2.7915q0.0436 0.42024 0.30351 0.63036 0.26013 0.21018 0.72704 0.21018 0.37687 0 0.77043-0.11015 0.39689-0.11337 0.81377-0.34019v0.9205q-0.42355 0.16006-0.84711 0.24013-0.42357 0.08347-0.84715 0.08347-1.0139 0-1.5775-0.51363-0.56031-0.51694-0.56031-1.4474 0-0.91383 0.55031-1.4375 0.55365-0.52363 1.5208-0.52363 0.88047 0 1.4074 0.5303 0.53029 0.5303 0.53029 1.4174zm-1.2273-0.39687q0-0.34019-0.2-0.54697-0.19689-0.21018-0.51696-0.21018-0.34684 0-0.56362 0.19684-0.21689 0.1934-0.27015 0.56031z" fill="#263238" stroke-width=".56919"/>
 <path d="m167.59 51.573q0.2268-0.34686 0.53698-0.52696 0.31348-0.18351 0.68704-0.18351 0.64367 0 0.98051 0.3969 0.33687 0.39687 0.33687 1.154v2.2746h-1.2006v-1.9477q4e-3 -0.04346 4e-3 -0.09014 4e-3 -0.04668 4e-3 -0.13338 0-0.3969-0.11689-0.57365-0.11689-0.18006-0.37689-0.18006-0.34017 0-0.52693 0.28016-0.18355 0.28014-0.19022 0.81044v1.8343h-1.2006v-1.9477q0-0.62035-0.10666-0.7971-0.10667-0.18006-0.38022-0.18006-0.34352 0-0.53027 0.2835-0.18667 0.28014-0.18667 0.80377v1.8377h-1.2007v-3.7353h1.2007v0.54697q0.22022-0.31684 0.5036-0.47692 0.28682-0.16006 0.63036-0.16006 0.38686 0 0.68369 0.18673 0.29684 0.18673 0.45026 0.52363z" fill="#263238" stroke-width=".56919"/>
 <path d="m173.25 53.918q0.38354 0 0.58365-0.28014 0.20355-0.28016 0.20355-0.81378 0-0.53363-0.20355-0.8138-0.2-0.28014-0.58365-0.28014-0.38355 0-0.59033 0.28348-0.20356 0.28016-0.20356 0.81046 0 0.53028 0.20356 0.81378 0.20667 0.28014 0.59033 0.28014zm-0.79377-2.4181q0.2468-0.32685 0.54695-0.48026 0.30018-0.15683 0.69038-0.15683 0.6904 0 1.134 0.5503 0.44358 0.54697 0.44358 1.4108 0 0.8638-0.44358 1.4141-0.44355 0.54697-1.134 0.54697-0.3902 0-0.69038-0.15339-0.30015-0.15683-0.54695-0.48359v0.5403h-1.194v-5.1896h1.194z" fill="#263238" stroke-width=".56919"/>
 <path d="m179.88 52.799v0.34019h-2.7916q0.0436 0.42024 0.30351 0.63036 0.26014 0.21018 0.72707 0.21018 0.37689 0 0.77042-0.11015 0.39687-0.11337 0.81378-0.34019v0.9205q-0.42358 0.16006-0.84713 0.24013-0.42356 0.08347-0.84714 0.08347-1.0139 0-1.5775-0.51363-0.56031-0.51694-0.56031-1.4474 0-0.91383 0.55031-1.4375 0.55364-0.52363 1.5208-0.52363 0.88047 0 1.4074 0.5303 0.53031 0.5303 0.53031 1.4174zm-1.2274-0.39687q0-0.34019-0.2-0.54697-0.19689-0.21018-0.51693-0.21018-0.34687 0-0.56365 0.19684-0.21688 0.1934-0.27015 0.56031z" fill="#263238" stroke-width=".56919"/>
 <path d="m183.56 51.96q-0.15689-0.07336-0.31351-0.1067-0.15333-0.03657-0.31016-0.03657-0.46024 0-0.7104 0.29682-0.2468 0.2935-0.2468 0.84381v1.7209h-1.194v-3.7353h1.194v0.61368q0.23014-0.36688 0.52696-0.53363 0.30018-0.17017 0.71707-0.17017 0.06 0 0.13022 0.0064 0.0702 0.0043 0.20355 0.01936z" fill="#263238" stroke-width=".56919"/>
 <path d="m186.74 53.789h1.134v-3.2184l-1.164 0.24013v-0.87382l1.1573-0.24013h1.2207v4.0922h1.134v0.88716h-3.4819z" fill="#263238" stroke-width=".56919"/>
 <path d="m193.22 50.755-1.4074 2.0845h1.4074zm-0.21333-1.0573h1.4275v3.1418h0.71038v0.93051h-0.71038v0.90716h-1.214v-0.90716h-2.2079v-1.1006z" fill="#263238" stroke-width=".56919"/>
 <path d="m196.16 53.38h1.2006v1.0172l-0.82377 1.244h-0.71038l0.33351-1.244z" fill="#263238" stroke-width=".56919"/>
 <path d="m202.4 53.746h2.1913v0.94384h-3.6187v-0.94384l1.8177-1.6042q0.24346-0.22012 0.3602-0.43024 0.11689-0.21018 0.11689-0.43691 0-0.35019-0.2368-0.56364-0.23347-0.21341-0.62367-0.21341-0.30018 0-0.65705 0.13015-0.35684 0.12671-0.76375 0.38022v-1.0939q0.43358-0.14349 0.85715-0.21679 0.42356-0.0768 0.83045-0.0768 0.89382 0 1.3874 0.39356 0.49693 0.39354 0.49693 1.0973 0 0.40688-0.21022 0.7604-0.21022 0.35019-0.88382 0.94051z" fill="#263238" stroke-width=".56919"/>
 <path d="m208.32 52.175q0-0.93384-0.17689-1.314-0.17333-0.38356-0.58698-0.38356-0.41357 0-0.59033 0.38356-0.17689 0.3802-0.17689 1.314 0 0.94384 0.17689 1.3307 0.17689 0.38687 0.59033 0.38687 0.4102 0 0.58698-0.38687 0.17689-0.38689 0.17689-1.3307zm1.284 0.01076q0 1.2373-0.53362 1.9111-0.53364 0.67037-1.5142 0.67037-0.98388 0-1.5175-0.67037-0.5336-0.6737-0.5336-1.9111 0-1.2407 0.5336-1.9111 0.53365-0.6737 1.5175-0.6737 0.98052 0 1.5142 0.6737 0.53362 0.67037 0.53362 1.9111z" fill="#263238" stroke-width=".56919"/>
 <path d="m210.73 53.789h1.134v-3.2184l-1.164 0.24013v-0.87382l1.1573-0.24013h1.2206v4.0922h1.134v0.88716h-3.4819z" fill="#263238" stroke-width=".56919"/>
 <path d="m215.14 49.701h3.7521v0.72374l-1.9411 4.2557h-1.2507l1.8377-4.0354h-2.3981z" fill="#263238" stroke-width=".56919"/>
 <path d="m122.46 65.879h0.90715l2.2079 4.1656v-4.1656h0.65369v4.9794h-0.90715l-2.2079-4.1656v4.1656h-0.65369z" fill="#263238" stroke-width=".56919"/>
 <path d="m129 67.557q-0.4936 0-0.78043 0.38689-0.28682 0.38354-0.28682 1.0539 0 0.67037 0.28349 1.0572 0.28682 0.38356 0.78376 0.38356 0.49029 0 0.77709-0.38689 0.28684-0.38687 0.28684-1.0539 0-0.6637-0.28684-1.0506-0.2868-0.39022-0.77709-0.39022zm0-0.52027q0.80046 0 1.2574 0.52027 0.45692 0.52029 0.45692 1.4408 0 0.91717-0.45692 1.4408-0.45691 0.52027-1.2574 0.52027-0.80378 0-1.2607-0.52027-0.45358-0.52363-0.45358-1.4408 0-0.9205 0.45358-1.4408 0.45691-0.52027 1.2607-0.52027z" fill="#263238" stroke-width=".56919"/>
 <path d="m131.3 67.127h0.65033l1.1673 3.1351 1.1673-3.1351h0.65036l-1.4008 3.7353h-0.83378z" fill="#263238" stroke-width=".56919"/>
 <path d="m138.96 68.826v0.30015h-2.8217q0.04 0.63369 0.38022 0.96721 0.34351 0.33018 0.95384 0.33018 0.35354 0 0.68372-0.08669 0.33351-0.08669 0.66035-0.26014v0.58032q-0.33018 0.14004-0.67702 0.21342-0.34687 0.07336-0.70373 0.07336-0.89383 0-1.4174-0.52027-0.52027-0.5203-0.52027-1.4075 0-0.91717 0.4936-1.4541 0.49692-0.5403 1.3374-0.5403 0.75374 0 1.1906 0.48693 0.44024 0.48359 0.44024 1.3174zm-0.61366-0.18007q-7e-3 -0.5036-0.28351-0.80377-0.27347-0.30017-0.72705-0.30017-0.51362 0-0.82378 0.29017-0.30684 0.29015-0.35355 0.81711z" fill="#263238" stroke-width=".56919"/>
 <path d="m142.88 67.837q0.23014-0.41357 0.55031-0.61033 0.32018-0.19684 0.75376-0.19684 0.58364 0 0.90049 0.41021 0.31684 0.4069 0.31684 1.1607v2.2546h-0.61702v-2.2346q0-0.53697-0.19022-0.7971-0.19022-0.26016-0.58031-0.26016-0.47694 0-0.75374 0.31684-0.27682 0.31685-0.27682 0.86382v2.1111h-0.617v-2.2346q0-0.5403-0.19022-0.7971-0.19022-0.26016-0.58698-0.26016-0.47027 0-0.74707 0.32018-0.27684 0.31684-0.27684 0.86048v2.1111h-0.61698v-3.7353h0.61698v0.58032q0.21022-0.34352 0.50362-0.50696 0.29349-0.16349 0.69705-0.16349 0.40689 0 0.69037 0.20673 0.28683 0.20673 0.42356 0.60032z" fill="#263238" stroke-width=".56919"/>
 <path d="m149.31 68.998q0-0.67704-0.28017-1.0606-0.2768-0.38689-0.76374-0.38689-0.48693 0-0.76709 0.38689-0.2768 0.38354-0.2768 1.0606t0.2768 1.0639q0.28016 0.38356 0.76709 0.38356 0.48694 0 0.76374-0.38356 0.28017-0.38687 0.28017-1.0639zm-2.0878-1.304q0.19334-0.33352 0.48692-0.49362 0.29682-0.16349 0.70706-0.16349 0.68036 0 1.1039 0.5403 0.42688 0.54028 0.42688 1.4208t-0.42688 1.4208q-0.42358 0.54028-1.1039 0.54028-0.41024 0-0.70706-0.16007-0.29349-0.16349-0.48692-0.49695v0.56031h-0.61702v-5.1894h0.61702z" fill="#263238" stroke-width=".56919"/>
 <path d="m154.17 68.826v0.30015h-2.8214q0.04 0.63369 0.3802 0.96721 0.34353 0.33018 0.95384 0.33018 0.35356 0 0.68371-0.08669 0.33353-0.08669 0.66038-0.26014v0.58032q-0.33018 0.14004-0.67705 0.21342-0.34684 0.07336-0.70371 0.07336-0.89382 0-1.4174-0.52027-0.52029-0.5203-0.52029-1.4075 0-0.91717 0.4936-1.4541 0.49696-0.5403 1.3374-0.5403 0.75376 0 1.1907 0.48693 0.44022 0.48359 0.44022 1.3174zm-0.61367-0.18007q-7e-3 -0.5036-0.28346-0.80377-0.27349-0.30017-0.72709-0.30017-0.5136 0-0.82378 0.29017-0.30684 0.29015-0.35351 0.81711z" fill="#263238" stroke-width=".56919"/>
 <path d="m157.33 67.686q-0.10355-0.06002-0.22678-0.08669-0.12-0.02991-0.2668-0.02991-0.52031 0-0.80044 0.34019-0.27682 0.33685-0.27682 0.97052v1.9677h-0.617v-3.7353h0.617v0.58032q0.19333-0.34019 0.5036-0.50362 0.31018-0.16673 0.75375-0.16673 0.0633 0 0.14 0.01067 0.0767 0.0064 0.17023 0.02324z" fill="#263238" stroke-width=".56919"/>
 <path d="m193.07 70.848h-3.0417v-0.53361l1.174-1.254q0.7204-0.77376 0.88046-1.1206 0.18667-0.34686 0.18667-0.72039 0-0.37355-0.21333-0.58701-0.21334-0.2134-0.58698-0.2134-0.53365 0-1.0406 0.45356l-0.34684-0.40021q0.64035-0.56031 1.4141-0.56031 0.64036 0 1.0139 0.34686t0.37354 0.93384q0 0.42691-0.24014 0.85381-0.21333 0.42691-0.93384 1.2273l-0.93382 0.9872v0.02667h2.2946z" fill="#263238" stroke-width=".56919"/>
 <path d="m193.8 68.396q0-1.254 0.37355-1.8677 0.4002-0.64034 1.174-0.64034 0.80042 0 1.174 0.64034 0.40025 0.61368 0.40025 1.8677 0 1.254-0.40025 1.8944-0.37353 0.61368-1.174 0.61368-0.77378 0-1.174-0.61368-0.37355-0.64034-0.37355-1.8944zm2.508 0q0-1.1206-0.2668-1.5475-0.24014-0.42688-0.69372-0.42688-0.42691 0-0.69371 0.42688-0.24013 0.40023-0.24013 1.5475 0 1.174 0.24013 1.6009 0.2668 0.40021 0.69371 0.40021 0.45358 0 0.69372-0.42688 0.2668-0.42691 0.2668-1.5742z" fill="#263238" stroke-width=".56919"/>
 <path d="m199.61 70.848h-0.587v-3.0417q0-0.64036 0.0267-1.2007l-0.90716 0.77376-0.32018-0.40023 1.2807-1.0139h0.50696z" fill="#263238" stroke-width=".56919"/>
 <path d="m201.93 70.848 1.8944-4.3224h-2.5347v-0.56029h3.1484v0.48026l-1.8677 4.4024z" fill="#263238" stroke-width=".56919"/>
 <path d="m113.36 71.515-2.846-2.846 2.846-2.846z" fill="#263238" fill-opacity=".87" stroke-width="2.1513"/>
 <path d="m164.58 71.515 2.846-2.846-2.846-2.846z" fill="#263238" fill-opacity=".87" stroke-width="2.1513"/>
 <path d="m181.1 71.515-2.846-2.846 2.846-2.846z" fill="#263238" fill-opacity=".87" stroke-width="2.1513"/>
 <path d="m215.83 71.515 2.846-2.846-2.846-2.846z" fill="#263238" fill-opacity=".87" stroke-width="2.1513"/>
 <path d="m113.57 101.42h-2.7038v-0.47434l1.0435-1.1147q0.64034-0.68777 0.78265-0.9961 0.166-0.30833 0.166-0.64036t-0.18978-0.52176q-0.18978-0.18976-0.52176-0.18976-0.47433 0-0.92495 0.4032l-0.30833-0.35576q0.56922-0.49805 1.257-0.49805 0.56922 0 0.90124 0.30832 0.33204 0.3083 0.33204 0.83008 0 0.37947-0.21333 0.75894-0.18978 0.37947-0.83009 1.091l-0.83006 0.8775v0.0237h2.0396z" fill="#263238" fill-opacity=".54" stroke-width=".56919"/>
 <path d="m114.59 101.42v-0.45062q0.21333 0.0712 0.49804 0.0712 1.3044 0 1.3518-1.755h-0.0236q-0.2846 0.52178-0.92495 0.52178-0.5692 0-0.90123-0.35576-0.33204-0.35574-0.33204-0.97237 0-0.6878 0.35573-1.0673 0.37949-0.37947 0.9724-0.37947 0.61663 0 1.0198 0.49805 0.4032 0.47434 0.4032 1.3993 0 1.2807-0.47433 1.9211-0.47436 0.61663-1.423 0.61663-0.33204 0-0.52176-0.0476zm0.97235-2.0396q0.37947 0 0.64036-0.23716 0.26089-0.23718 0.26089-0.56922 0-0.47432-0.26089-0.78265-0.26089-0.30832-0.61662-0.30832-0.40318 0-0.61662 0.26089-0.18978 0.23716-0.18978 0.73523 0 0.45062 0.18978 0.68778 0.21333 0.2134 0.59288 0.2134z" fill="#263238" fill-opacity=".54" stroke-width=".56919"/>
 <path d="m112.65 117.57v-0.52175q0.42689 0.28459 1.091 0.28459 0.47433 0 0.71149-0.23716 0.26088-0.23718 0.26088-0.68779 0-0.45062-0.26088-0.66407-0.23716-0.21342-0.75892-0.21342-0.26088 0-0.66406 0.0712l-0.28462-0.16609 0.166-2.0396h2.0396v0.49804h-1.5653l-0.11844 1.2333q0.30829-0.0475 0.61662-0.0475 0.64035 0 1.0198 0.35575 0.37947 0.33203 0.37947 0.90124 0 0.68778-0.40318 1.0672t-1.1621 0.37947q-0.66407 0-1.0672-0.2134z" fill="#263238" stroke-width=".56919"/>
 <path d="m112.71 134.05h-0.52177v-2.7038q0-0.56919 0.0236-1.0672l-0.80638 0.68777-0.2846-0.35574 1.1384-0.90123h0.45063z" fill="#263238" stroke-width=".56919"/>
 <path d="m116.93 134.05h-2.7038v-0.47432l1.0435-1.1147q0.64035-0.6878 0.78264-0.99613 0.166-0.3083 0.166-0.64033 0-0.33204-0.18978-0.52178-0.18977-0.18976-0.52175-0.18976-0.47433 0-0.92496 0.40318l-0.30833-0.35574q0.56922-0.49805 1.257-0.49805 0.5692 0 0.90122 0.3083 0.33205 0.30833 0.33205 0.83009 0 0.37947-0.21334 0.75894-0.18977 0.37947-0.83009 1.091l-0.83008 0.87752v0.0237h2.0396z" fill="#263238" stroke-width=".56919"/>
 <path d="m112.71 150.36h-0.52177v-2.7038q0-0.56922 0.0236-1.0673l-0.80638 0.6878-0.2846-0.35576 1.1384-0.90123h0.45063z" fill="#263238" stroke-width=".56919"/>
 <path d="m114.59 150.36v-0.45064q0.21333 0.0712 0.49804 0.0712 1.3044 0 1.3518-1.755h-0.0236q-0.2846 0.52176-0.92495 0.52176-0.5692 0-0.90123-0.35574-0.33204-0.35577-0.33204-0.97239 0-0.68778 0.35573-1.0672 0.37949-0.37947 0.9724-0.37947 0.61663 0 1.0198 0.49805 0.4032 0.47434 0.4032 1.3993 0 1.2807-0.47433 1.921-0.47436 0.61664-1.423 0.61664-0.33204 0-0.52176-0.0473zm0.97235-2.0396q0.37947 0 0.64036-0.23718 0.26089-0.23716 0.26089-0.5692 0-0.47434-0.26089-0.78264-0.26089-0.30833-0.61662-0.30833-0.40318 0-0.61662 0.26089-0.18978 0.23716-0.18978 0.73521 0 0.45061 0.18978 0.6878 0.21333 0.21342 0.59288 0.21342z" fill="#263238" stroke-width=".56919"/>
 <path d="m113.57 166.69h-2.7038v-0.47434l1.0435-1.1147q0.64034-0.68779 0.78265-0.9961 0.166-0.30832 0.166-0.64035 0-0.33204-0.18978-0.52176-0.18978-0.18976-0.52176-0.18976-0.47433 0-0.92495 0.4032l-0.30833-0.35576q0.56922-0.49805 1.257-0.49805 0.56922 0 0.90124 0.30833 0.33204 0.3083 0.33204 0.83008 0 0.37947-0.21333 0.75894-0.18978 0.37947-0.83009 1.091l-0.83006 0.87752v0.0237h2.0396z" fill="#263238" stroke-width=".56919"/>
 <path d="m116.69 162.34v0.45061q-0.21334-0.0712-0.49805-0.0712-1.3281 0-1.3756 1.755h0.0473q0.2846-0.49805 0.90124-0.49805 0.5692 0 0.90125 0.35574 0.33202 0.33204 0.33202 0.94867 0 0.68779-0.35576 1.0673-0.35573 0.37947-0.94866 0.37947-0.64036 0-1.0435-0.47434-0.37946-0.49805-0.37946-1.423 0-1.2807 0.47433-1.8973 0.47433-0.64036 1.423-0.64036 0.30831 0 0.52178 0.0473zm-0.99609 2.0396q-0.37947 0-0.64036 0.2609-0.23715 0.23716-0.23715 0.54548 0 0.47432 0.23715 0.78265 0.26089 0.30832 0.64036 0.30832 0.37946 0 0.5692-0.23718 0.21333-0.26089 0.21333-0.75894 0-0.45061-0.18978-0.66406-0.18978-0.23717-0.59293-0.23717z" fill="#263238" stroke-width=".56919"/>
 <path d="m114.18 180.72q1.0672 0.1422 1.0672 1.0435 0 0.5929-0.40318 0.94867-0.4032 0.33203-1.1858 0.33203-0.73523 0-1.1621-0.21342v-0.52176q0.54547 0.2846 1.1384 0.2846 0.52176 0 0.78265-0.21342 0.26089-0.2134 0.26089-0.64036 0-0.37947-0.2846-0.5692-0.26089-0.18975-0.83009-0.18975h-0.40318v-0.45062h0.40318q0.47433 0 0.73522-0.21342 0.26089-0.23716 0.26089-0.61663 0-0.2846-0.21333-0.45061-0.18978-0.18976-0.52178-0.18976-0.54549 0-1.0198 0.35574l-0.2846-0.37947q0.54546-0.4269 1.3044-0.4269 0.61662 0 0.94864 0.30832 0.33205 0.2846 0.33205 0.75894 0 0.85379-0.92494 1.0435z" fill="#263238" fill-opacity=".54" stroke-width=".56919"/>
 <path d="m129.58 99.224q1.0672 0.1422 1.0672 1.0435 0 0.59292-0.40318 0.94866-0.4032 0.33203-1.1858 0.33203-0.7352 0-1.1621-0.2134v-0.52176q0.54549 0.28459 1.1384 0.28459 0.52178 0 0.78267-0.21342 0.26089-0.2134 0.26089-0.64036 0-0.37947-0.28462-0.56919-0.26087-0.18973-0.83009-0.18973h-0.40318v-0.45064h0.40318q0.47433 0 0.73522-0.21342 0.26089-0.23718 0.26089-0.61665 0-0.2846-0.21334-0.45061-0.18977-0.18976-0.52177-0.18976-0.54549 0-1.0198 0.35574l-0.28463-0.37947q0.54549-0.42688 1.3044-0.42688 0.61662 0 0.94866 0.3083 0.33203 0.2846 0.33203 0.75894 0 0.85379-0.92494 1.0435z" fill="#263238" fill-opacity=".54" stroke-width=".56919"/>
 <path d="m131.3 99.31q0-1.1147 0.33202-1.6602 0.35573-0.56919 1.0435-0.56919 0.71149 0 1.0435 0.56919 0.35578 0.54549 0.35578 1.6602 0 1.1147-0.35578 1.6839-0.33202 0.54548-1.0435 0.54548-0.6878 0-1.0435-0.54548-0.33202-0.5692-0.33202-1.6839zm2.2294 0q0-0.9961-0.23718-1.3756-0.21333-0.37947-0.61662-0.37947-0.37947 0-0.61665 0.37947-0.21333 0.35574-0.21333 1.3756 0 1.0435 0.21333 1.423 0.23718 0.35576 0.61665 0.35576 0.40318 0 0.61662-0.37947 0.23718-0.37947 0.23718-1.3993z" fill="#263238" fill-opacity=".54" stroke-width=".56919"/>
 <path d="m132.1 113.49v0.45062q-0.21334-0.0712-0.49805-0.0712-1.3281 0-1.3756 1.755h0.0476q0.2846-0.49805 0.90124-0.49805 0.5692 0 0.90125 0.35576 0.33202 0.33203 0.33202 0.94866 0 0.6878-0.35576 1.0672-0.35573 0.37947-0.94866 0.37947-0.64036 0-1.0435-0.47433-0.37946-0.49805-0.37946-1.423 0-1.2807 0.47433-1.8974 0.47433-0.64034 1.423-0.64034 0.30829 0 0.52176 0.0473zm-0.99612 2.0396q-0.37946 0-0.64035 0.26087-0.23716 0.23718-0.23716 0.54548 0 0.47435 0.23716 0.78267 0.26089 0.30831 0.64035 0.30831 0.37947 0 0.5692-0.23716 0.21334-0.26089 0.21334-0.75894 0-0.45062-0.18978-0.66407-0.18978-0.23716-0.59293-0.23716z" fill="#263238" stroke-width=".56919"/>
 <path d="m129.77 134.14h-0.52175v-2.7038q0-0.56921 0.0236-1.0673l-0.80637 0.68779-0.2846-0.35576 1.1384-0.90123h0.4506z" fill="#263238" stroke-width=".56919"/>
 <path d="m132.94 131.86q1.0673 0.1422 1.0673 1.0435 0 0.59292-0.4032 0.94866-0.40318 0.33205-1.1858 0.33205-0.73522 0-1.1621-0.2134v-0.52178q0.54549 0.2846 1.1384 0.2846 0.5218 0 0.78269-0.2134 0.26086-0.2134 0.26086-0.64034 0-0.37946-0.2846-0.56921-0.26089-0.18975-0.83009-0.18975h-0.40317v-0.45062h0.40317q0.47434 0 0.7352-0.21342 0.26091-0.23716 0.26091-0.61663 0-0.2846-0.21333-0.45061-0.18978-0.18976-0.52175-0.18976-0.54549 0-1.0198 0.35576l-0.2846-0.37946q0.54549-0.42691 1.3044-0.42691 0.61662 0 0.94866 0.30833 0.33202 0.28459 0.33202 0.75891 0 0.85381-0.92495 1.0435z" fill="#263238" stroke-width=".56919"/>
 <path d="m130.66 150.45h-2.7038v-0.47434l1.0435-1.1147q0.64036-0.68778 0.78267-0.9961 0.166-0.30833 0.166-0.64036 0-0.33204-0.18978-0.52176-0.18978-0.18976-0.52178-0.18976-0.47435 0-0.92495 0.4032l-0.30831-0.35576q0.5692-0.49805 1.257-0.49805 0.5692 0 0.90124 0.30832 0.33202 0.30831 0.33202 0.83009 0 0.37947-0.21333 0.75894-0.18978 0.37947-0.83009 1.091l-0.83009 0.87752v0.0237h2.0396z" fill="#263238" stroke-width=".56919"/>
 <path d="m131.3 148.27q0-1.1147 0.33202-1.6602 0.35573-0.5692 1.0435-0.5692 0.71149 0 1.0435 0.5692 0.35578 0.54548 0.35578 1.6602 0 1.1147-0.35578 1.6839-0.33202 0.54549-1.0435 0.54549-0.6878 0-1.0435-0.54549-0.33202-0.56921-0.33202-1.6839zm2.2294 0q0-0.9961-0.23718-1.3756-0.21333-0.37946-0.61662-0.37946-0.37947 0-0.61665 0.37946-0.21333 0.35577-0.21333 1.3756 0 1.0435 0.21333 1.423 0.23718 0.35576 0.61665 0.35576 0.40318 0 0.61662-0.37947 0.23718-0.37947 0.23718-1.3993z" fill="#263238" stroke-width=".56919"/>
 <path d="m130.66 166.78h-2.7038v-0.47434l1.0435-1.1147q0.64036-0.68778 0.78267-0.9961 0.166-0.30831 0.166-0.64034t-0.18978-0.52178-0.52178-0.18975q-0.47435 0-0.92495 0.40317l-0.30831-0.35576q0.5692-0.49805 1.257-0.49805 0.5692 0 0.90124 0.30833 0.33202 0.30832 0.33202 0.83008 0 0.37947-0.21333 0.75894-0.18978 0.37947-0.83009 1.091l-0.83009 0.87752v0.0237h2.0396z" fill="#263238" stroke-width=".56919"/>
 <path d="m131.84 166.78 1.6839-3.842h-2.2531v-0.49805h2.7986v0.42691l-1.6602 3.9132z" fill="#263238" stroke-width=".56919"/>
 <path d="m132.57 182.11h-0.64035v0.97237h-0.52176v-0.97237h-1.9922v-0.47434l1.9685-2.9172h0.54549v2.8935h0.64035zm-1.1621-0.49805v-1.0435q0-0.52178 0.0473-1.2807h-0.0236q-0.11844 0.30833-0.26089 0.52178l-1.2332 1.8025z" fill="#263238" fill-opacity=".54" stroke-width=".56919"/>
 <path d="m156.06 131.86a7.9689 7.9689 0 0 1-7.9689 7.9689 7.9689 7.9689 0 0 1-7.9689-7.9689 7.9689 7.9689 0 0 1 7.9689-7.9689 7.9689 7.9689 0 0 1 7.9689 7.9689z" fill="#3c84f7" fill-rule="evenodd" stroke-width="2.1513"/>
 <path d="m146.66 99.138q1.0672 0.1422 1.0672 1.0435 0 0.59291-0.40318 0.94867-0.4032 0.33203-1.1858 0.33203-0.73523 0-1.1621-0.21342v-0.52178q0.54549 0.28462 1.1384 0.28462 0.52176 0 0.78265-0.2134 0.26089-0.21342 0.26089-0.64036 0-0.37947-0.28462-0.56919-0.26087-0.18976-0.83009-0.18976h-0.40318v-0.4506h0.40318q0.47435 0 0.73524-0.21342 0.26087-0.23716 0.26087-0.61663 0-0.2846-0.21334-0.45061-0.18977-0.18976-0.5218-0.18976-0.54546 0-1.0198 0.35576l-0.28462-0.37947q0.54549-0.42691 1.3044-0.42691 0.61665 0 0.94867 0.30833 0.33205 0.2846 0.33205 0.75894 0 0.85379-0.92494 1.0435z" fill="#263238" fill-opacity=".54" stroke-width=".56919"/>
 <path d="m150.19 101.42h-0.5218v-2.7038q0-0.5692 0.0236-1.0673l-0.80637 0.6878-0.28458-0.35576 1.1384-0.90123h0.45062z" fill="#263238" fill-opacity=".54" stroke-width=".56919"/>
 <path d="m147.24 117.73 1.6839-3.842h-2.2531v-0.49805h2.7986v0.42691l-1.6602 3.9132z" fill="#263238" stroke-width=".56919"/>
 <path d="m146.86 134.05h-0.52176v-2.7038q0-0.56919 0.0236-1.0672l-0.80638 0.68777-0.28458-0.35574 1.1384-0.90123h0.45062z" fill="#ffffff" stroke-width=".56919"/>
 <path d="m151.31 133.09h-0.64036v0.97237h-0.52176v-0.97237h-1.9922v-0.47434l1.9685-2.9172h0.54549v2.8935h0.64036zm-1.1621-0.49805v-1.0435q0-0.52178 0.0476-1.2807h-0.0236q-0.11844 0.30833-0.26088 0.52178l-1.2333 1.8025z" fill="#ffffff" stroke-width=".56919"/>
 <path d="m147.74 150.36h-2.7038v-0.47435l1.0435-1.1147q0.64033-0.68779 0.78264-0.9961 0.166-0.30832 0.166-0.64036 0-0.33203-0.18978-0.52175-0.18978-0.18976-0.52178-0.18976-0.47433 0-0.92495 0.40318l-0.30831-0.35574q0.5692-0.49805 1.257-0.49805 0.5692 0 0.90122 0.30832 0.33204 0.30831 0.33204 0.83009 0 0.37945-0.21333 0.75891-0.18978 0.37948-0.83009 1.091l-0.83006 0.87752v0.0237h2.0396z" fill="#263238" stroke-width=".56919"/>
 <path d="m150.19 150.36h-0.5218v-2.7038q0-0.56922 0.0236-1.0673l-0.80637 0.6878-0.28458-0.35576 1.1384-0.90123h0.45062z" fill="#263238" stroke-width=".56919"/>
 <path d="m147.74 166.69h-2.7038v-0.47434l1.0435-1.1147q0.64033-0.68779 0.78264-0.9961 0.166-0.30832 0.166-0.64035 0-0.33204-0.18978-0.52176-0.18978-0.18976-0.52178-0.18976-0.47433 0-0.92495 0.4032l-0.30831-0.35576q0.5692-0.49805 1.257-0.49805 0.5692 0 0.90122 0.30833 0.33204 0.3083 0.33204 0.83008 0 0.37947-0.21333 0.75894-0.18978 0.37947-0.83009 1.091l-0.83006 0.87752v0.0237h2.0396z" fill="#263238" stroke-width=".56919"/>
 <path d="m150.19 164.39q0.92495 0.49804 0.92495 1.1621 0 0.52178-0.37948 0.85381-0.35576 0.33204-0.97238 0.33204-0.66407 0-1.0198-0.30833t-0.35573-0.85379q0-0.75894 0.85382-1.1621-0.71151-0.42688-0.71151-1.091 0-0.45061 0.33205-0.73523 0.33202-0.30831 0.90122-0.30831 0.54549 0 0.87751 0.30831 0.33204 0.28462 0.33204 0.73523 0 0.68777-0.78264 1.0672zm-0.42691-0.2134q0.68778-0.30831 0.68778-0.83009 0-0.3083-0.18978-0.45061-0.166-0.16609-0.52176-0.16609-0.33204 0-0.49804 0.16609-0.166 0.1422-0.166 0.45061 0 0.52178 0.6878 0.83009zm-0.0949 0.45061q-0.7352 0.35576-0.7352 0.97239 0 0.35574 0.18978 0.54549 0.21333 0.16609 0.61664 0.16609 0.42689 0 0.64033-0.18976 0.21334-0.18975 0.21334-0.54546 0-0.26089-0.166-0.45064-0.166-0.21342-0.66407-0.45061z" fill="#263238" stroke-width=".56919"/>
 <path d="m146.79 182.82v-0.52176q0.42691 0.2846 1.091 0.2846 0.47433 0 0.71151-0.23718 0.26087-0.23716 0.26087-0.68778 0-0.45061-0.26087-0.66406-0.23718-0.2134-0.75896-0.2134-0.26089 0-0.66406 0.0712l-0.28458-0.16609 0.166-2.0396h2.0396v0.49805h-1.5653l-0.11844 1.2333q0.30831-0.0473 0.61662-0.0473 0.64036 0 1.0198 0.35574 0.37947 0.33203 0.37947 0.90125 0 0.68777-0.4032 1.0672-0.40318 0.37947-1.1621 0.37947-0.66407 0-1.0672-0.2134z" fill="#263238" fill-opacity=".54" stroke-width=".56919"/>
 <path d="m165.61 101.42h-0.52176v-2.7038q0-0.5692 0.0236-1.0673l-0.80636 0.6878-0.2846-0.35576 1.1384-0.90123h0.4506z" fill="#263238" stroke-width=".56919"/>
 <path d="m165.61 115.42q0.92495 0.49805 0.92495 1.1621 0 0.52178-0.37946 0.85381-0.35574 0.33204-0.97238 0.33204-0.66407 0-1.0198-0.30833-0.35574-0.3083-0.35574-0.85379 0-0.75894 0.85378-1.1621-0.71149-0.4269-0.71149-1.091 0-0.45061 0.33202-0.73521 0.33205-0.30833 0.90125-0.30833 0.54549 0 0.87753 0.30833 0.33202 0.2846 0.33202 0.73521 0 0.68777-0.78266 1.0672zm-0.42689-0.2134q0.68778-0.30832 0.68778-0.8301 0-0.30831-0.18978-0.45062-0.166-0.16609-0.5218-0.16609-0.33202 0-0.49805 0.16609-0.166 0.1422-0.166 0.45062 0 0.52178 0.68778 0.8301zm-0.0949 0.45062q-0.7352 0.35574-0.7352 0.97237 0 0.35576 0.18978 0.54548 0.21333 0.16609 0.61662 0.16609 0.42691 0 0.64038-0.18975 0.21333-0.18976 0.21333-0.54549 0-0.26089-0.166-0.45061-0.166-0.21342-0.66407-0.45062z" fill="#263238" stroke-width=".56919"/>
 <path d="m163.94 134.05h-0.52176v-2.7038q0-0.56919 0.0236-1.0672l-0.80638 0.68777-0.2846-0.35574 1.1384-0.90123h0.4506z" fill="#263238" stroke-width=".56919"/>
 <path d="m165.55 133.88v-0.52176q0.42692 0.2846 1.091 0.2846 0.47434 0 0.71149-0.23716 0.26089-0.23718 0.26089-0.68779 0-0.45062-0.26089-0.66407-0.23715-0.21342-0.75893-0.21342-0.26087 0-0.66407 0.0712l-0.2846-0.16609 0.166-2.0396h2.0396v0.49805h-1.5653l-0.11844 1.2333q0.30833-0.0475 0.61664-0.0475 0.64036 0 1.0198 0.35576 0.37946 0.33204 0.37946 0.90123 0 0.68778-0.40317 1.0672-0.4032 0.37947-1.1621 0.37947-0.66406 0-1.0673-0.2134z" fill="#263238" stroke-width=".56919"/>
 <path d="m164.82 150.36h-2.7038v-0.47435l1.0435-1.1147q0.64035-0.68779 0.78264-0.9961 0.166-0.30832 0.166-0.64036 0-0.33203-0.18978-0.52175-0.18978-0.18976-0.52178-0.18976-0.47435 0-0.92497 0.40318l-0.30816-0.35573q0.56918-0.49805 1.257-0.49805 0.5692 0 0.90124 0.30832 0.33203 0.30831 0.33203 0.83009 0 0.37944-0.21334 0.75891-0.18978 0.37947-0.83009 1.091l-0.83009 0.87752v0.0237h2.0396z" fill="#263238" stroke-width=".56919"/>
 <path d="m168.15 150.36h-2.7038v-0.47435l1.0435-1.1147q0.64033-0.68779 0.78264-0.9961 0.166-0.30832 0.166-0.64036 0-0.33203-0.18977-0.52175-0.18978-0.18976-0.52178-0.18976-0.47434 0-0.92496 0.40318l-0.30831-0.35574q0.5692-0.49805 1.257-0.49805 0.56922 0 0.90124 0.30832 0.33205 0.30831 0.33205 0.83009 0 0.37945-0.21334 0.75891-0.18977 0.37948-0.83006 1.091l-0.83009 0.87752v0.0237h2.0396z" fill="#263238" stroke-width=".56919"/>
 <path d="m164.82 166.69h-2.7038v-0.47434l1.0435-1.1147q0.64035-0.68779 0.78264-0.9961 0.166-0.30832 0.166-0.64035 0-0.33204-0.18978-0.52176-0.18978-0.18976-0.52178-0.18976-0.47435 0-0.92497 0.4032l-0.30816-0.35575q0.56918-0.49805 1.257-0.49805 0.5692 0 0.90124 0.30832 0.33203 0.30831 0.33203 0.83009 0 0.37947-0.21334 0.75894-0.18978 0.37947-0.83009 1.091l-0.83009 0.87752v0.0237h2.0396z" fill="#263238" stroke-width=".56919"/>
 <path d="m165.81 166.69v-0.45062q0.21333 0.0712 0.49804 0.0712 1.3044 0 1.3519-1.755h-0.0236q-0.2846 0.52177-0.92496 0.52177-0.5692 0-0.90122-0.35576-0.33205-0.35574-0.33205-0.97239 0-0.68777 0.35576-1.0672 0.37947-0.37947 0.97238-0.37947 0.61664 0 1.0198 0.49805 0.40318 0.47434 0.40318 1.3993 0 1.2807-0.47436 1.921-0.47431 0.61665-1.423 0.61665-0.33207 0-0.52178-0.0475zm0.9724-2.0396q0.37947 0 0.64033-0.23718 0.26089-0.23716 0.26089-0.5692 0-0.47432-0.26089-0.78264-0.26086-0.30833-0.61664-0.30833-0.40318 0-0.61662 0.26089-0.18978 0.23716-0.18978 0.73521 0 0.45064 0.18978 0.6878 0.21333 0.21342 0.59293 0.21342z" fill="#263238" stroke-width=".56919"/>
 <path d="m166.24 178.65v0.45061q-0.21334-0.0712-0.49807-0.0712-1.3281 0-1.3756 1.755h0.0476q0.2846-0.49805 0.90124-0.49805 0.5692 0 0.90125 0.35574 0.33202 0.33203 0.33202 0.94869 0 0.68777-0.35575 1.0672-0.35574 0.37947-0.94867 0.37947-0.64036 0-1.0435-0.47434-0.37947-0.49805-0.37947-1.423 0-1.2807 0.47433-1.8973 0.47434-0.64036 1.423-0.64036 0.30831 0 0.52178 0.0473zm-0.99611 2.0396q-0.37947 0-0.64036 0.26089-0.23716 0.23716-0.23716 0.54549 0 0.47434 0.23716 0.78265 0.26089 0.30832 0.64036 0.30832 0.37946 0 0.5692-0.23718 0.21333-0.26087 0.21333-0.75892 0-0.45063-0.18978-0.66406-0.18978-0.23719-0.59293-0.23719z" fill="#263238" fill-opacity=".54" stroke-width=".56919"/>
 <path d="m183.56 101.5h-2.7038v-0.47432l1.0435-1.1147q0.64035-0.68777 0.78264-0.9961 0.166-0.3083 0.166-0.64034 0-0.33203-0.18977-0.52178-0.18978-0.18976-0.52178-0.18976-0.47434 0-0.92494 0.40318l-0.30833-0.35574q0.5692-0.49805 1.257-0.49805 0.56918 0 0.90122 0.3083 0.33203 0.30833 0.33203 0.83008 0 0.37947-0.21334 0.75894-0.18978 0.37947-0.83009 1.091l-0.83009 0.87752v0.0237h2.0396z" fill="#263238" stroke-width=".56919"/>
 <path d="m181.21 117.81v-0.45061q0.21333 0.0712 0.49806 0.0712 1.3044 0 1.3518-1.755h-0.0236q-0.2846 0.52175-0.92498 0.52175-0.56917 0-0.90122-0.35574-0.33202-0.35576-0.33202-0.97239 0-0.68778 0.35573-1.0672 0.37947-0.37948 0.9724-0.37948 0.61662 0 1.0198 0.49806 0.4032 0.47432 0.4032 1.3993 0 1.2807-0.47433 1.9211-0.47436 0.61663-1.423 0.61663-0.33203 0-0.52176-0.0473zm0.97238-2.0396q0.37946 0 0.64035-0.23716t0.26089-0.56919q0-0.47434-0.26089-0.78265-0.26089-0.30833-0.61662-0.30833-0.4032 0-0.61665 0.2609-0.18977 0.23716-0.18977 0.7352 0 0.45062 0.18977 0.6878 0.21334 0.21342 0.59292 0.21342z" fill="#263238" stroke-width=".56919"/>
 <path d="m181.02 134.14h-0.52178v-2.7038q0-0.56921 0.0236-1.0673l-0.80638 0.68779-0.28458-0.35576 1.1384-0.90123h0.45062z" fill="#263238" stroke-width=".56919"/>
 <path d="m185 129.79v0.45061q-0.21333-0.0712-0.49805-0.0712-1.3281 0-1.3756 1.755h0.0476q0.2846-0.49805 0.90125-0.49805 0.5692 0 0.90122 0.35574 0.33204 0.33204 0.33204 0.94867 0 0.68779-0.35577 1.0673-0.35574 0.37947-0.94865 0.37947-0.64035 0-1.0436-0.47434-0.37947-0.49805-0.37947-1.423 0-1.2807 0.47435-1.8973 0.47434-0.64036 1.423-0.64036 0.30832 0 0.52176 0.0475zm-0.99609 2.0396q-0.37947 0-0.64036 0.26089-0.23717 0.23716-0.23717 0.54548 0 0.47432 0.23717 0.78265 0.26089 0.30831 0.64036 0.30831t0.5692-0.23716q0.21333-0.26089 0.21333-0.75894 0-0.45062-0.18977-0.66407-0.18978-0.23716-0.59292-0.23716z" fill="#263238" stroke-width=".56919"/>
 <path d="m181.88 150.45h-2.7038v-0.47434l1.0435-1.1147q0.64033-0.68778 0.78264-0.9961 0.166-0.30833 0.166-0.64036 0-0.33204-0.18978-0.52176-0.18977-0.18976-0.52177-0.18976-0.47436 0-0.92496 0.4032l-0.30831-0.35576q0.5692-0.49805 1.257-0.49805 0.56918 0 0.90122 0.30832 0.33202 0.30831 0.33202 0.83009 0 0.37947-0.21333 0.75894-0.18978 0.37947-0.83009 1.091l-0.83009 0.87752v0.0237h2.0396z" fill="#263238" stroke-width=".56919"/>
 <path d="m184.16 148.17q1.0673 0.1422 1.0673 1.0435 0 0.59293-0.4032 0.94869-0.40318 0.33203-1.1858 0.33203-0.73524 0-1.1621-0.21342v-0.52178q0.54549 0.28462 1.1384 0.28462 0.52178 0 0.78267-0.2134 0.26086-0.21342 0.26086-0.64036 0-0.37947-0.2846-0.56919-0.26089-0.18976-0.83009-0.18976h-0.40317v-0.45061h0.40317q0.47436 0 0.73523-0.2134 0.26089-0.23716 0.26089-0.61663 0-0.2846-0.21334-0.45062-0.18978-0.18975-0.52175-0.18975-0.54549 0-1.0198 0.35576l-0.2846-0.37947q0.54549-0.42691 1.3044-0.42691 0.61664 0 0.94866 0.30833 0.33205 0.2846 0.33205 0.75894 0 0.85379-0.92496 1.0435z" fill="#263238" stroke-width=".56919"/>
 <path d="m180.82 164.5q1.0672 0.1422 1.0672 1.0435 0 0.5929-0.40318 0.94866-0.4032 0.33203-1.1858 0.33203-0.73522 0-1.1621-0.2134v-0.52175q0.54549 0.28459 1.1384 0.28459 0.52175 0 0.78264-0.2134 0.26089-0.21342 0.26089-0.64036 0-0.37947-0.28462-0.56919-0.26087-0.18976-0.83009-0.18976h-0.40318v-0.45063h0.40318q0.47435 0 0.73524-0.21342 0.26087-0.23716 0.26087-0.61663 0-0.2846-0.21333-0.45062-0.18978-0.18975-0.52178-0.18975-0.54549 0-1.0198 0.35574l-0.28462-0.37947q0.54549-0.42691 1.3044-0.42691 0.61664 0 0.94867 0.30833 0.33204 0.28459 0.33204 0.75894 0 0.85379-0.92493 1.0435z" fill="#263238" stroke-width=".56919"/>
 <path d="m182.52 164.58q0-1.1147 0.33202-1.6602 0.35576-0.5692 1.0435-0.5692 0.71149 0 1.0435 0.5692 0.35575 0.54548 0.35575 1.6602 0 1.1147-0.35575 1.6839-0.33205 0.54549-1.0435 0.54549-0.68777 0-1.0435-0.54549-0.33202-0.5692-0.33202-1.6839zm2.2294 0q0-0.9961-0.23716-1.3756-0.21333-0.37947-0.61664-0.37947-0.37947 0-0.61665 0.37947-0.21333 0.35574-0.21333 1.3756 0 1.0435 0.21333 1.423 0.23718 0.35576 0.61665 0.35576 0.40318 0 0.61664-0.37947 0.23716-0.37947 0.23716-1.3993z" fill="#263238" stroke-width=".56919"/>
 <path d="m181.41 183.08 1.6839-3.842h-2.2531v-0.49805h2.7986v0.42689l-1.6602 3.9132z" fill="#263238" fill-opacity=".54" stroke-width=".56919"/>
 <path d="m199.56 99.138q1.0672 0.1422 1.0672 1.0435 0 0.59291-0.40318 0.94867-0.40317 0.33203-1.1858 0.33203-0.7352 0-1.1621-0.21342v-0.52178q0.54549 0.28462 1.1384 0.28462 0.52175 0 0.78264-0.2134 0.26089-0.21342 0.26089-0.64036 0-0.37947-0.2846-0.56919-0.26089-0.18976-0.83007-0.18976h-0.4032v-0.4506h0.4032q0.47432 0 0.7352-0.21342 0.26089-0.23716 0.26089-0.61663 0-0.2846-0.21333-0.45061-0.18978-0.18976-0.52178-0.18976-0.54546 0-1.0198 0.35576l-0.28458-0.37947q0.54547-0.42691 1.3044-0.42691 0.61665 0 0.94869 0.30833 0.33202 0.2846 0.33202 0.75894 0 0.85379-0.92495 1.0435z" fill="#263238" stroke-width=".56919"/>
 <path d="m198.08 117.73h-0.52176v-2.7038q0-0.56919 0.0238-1.0672l-0.80638 0.68778-0.2846-0.35574 1.1384-0.90125h0.45062z" fill="#263238" stroke-width=".56919"/>
 <path d="m199.61 115.55q0-1.1147 0.33204-1.6602 0.35574-0.56919 1.0435-0.56919 0.71149 0 1.0435 0.56919 0.35575 0.54549 0.35575 1.6602 0 1.1147-0.35575 1.6839-0.33202 0.54548-1.0435 0.54548-0.6878 0-1.0435-0.54548-0.33204-0.5692-0.33204-1.6839zm2.2294 0q0-0.99612-0.23716-1.3756-0.21333-0.37947-0.61662-0.37947-0.37947 0-0.61664 0.37947-0.21334 0.35574-0.21334 1.3756 0 1.0435 0.21334 1.423 0.23717 0.35576 0.61664 0.35576 0.40318 0 0.61662-0.37947 0.23716-0.37947 0.23716-1.3993z" fill="#263238" stroke-width=".56919"/>
 <path d="m198.08 134.05h-0.52176v-2.7038q0-0.56919 0.0238-1.0672l-0.80638 0.68777-0.2846-0.35574 1.1384-0.90123h0.45062z" fill="#263238" stroke-width=".56919"/>
 <path d="m200.14 134.05 1.6839-3.842h-2.2531v-0.49805h2.7986v0.42689l-1.6602 3.9132z" fill="#263238" stroke-width=".56919"/>
 <path d="m198.96 150.36h-2.7038v-0.47435l1.0435-1.1147q0.64033-0.68779 0.78264-0.9961 0.166-0.30832 0.166-0.64036 0-0.33203-0.18978-0.52175-0.18977-0.18976-0.52177-0.18976-0.47434 0-0.92496 0.40318l-0.30829-0.35574q0.56918-0.49805 1.257-0.49805 0.5692 0 0.90122 0.30832 0.33205 0.30831 0.33205 0.83009 0 0.37945-0.21334 0.75891-0.18978 0.37948-0.83006 1.091l-0.83009 0.87752v0.0237h2.0396z" fill="#263238" stroke-width=".56919"/>
 <path d="m202.55 149.39h-0.64038v0.97239h-0.52175v-0.97239h-1.9922v-0.47435l1.9685-2.9172h0.54546v2.8935h0.64038zm-1.1621-0.49805v-1.0435q0-0.52178 0.0476-1.2807h-0.0238q-0.11844 0.30831-0.26086 0.52176l-1.2333 1.8025z" fill="#263238" stroke-width=".56919"/>
 <path d="m199.76 166.69h-0.52176v-2.7038q0-0.56922 0.0236-1.0673l-0.80636 0.6878-0.2846-0.35576 1.1384-0.90123h0.45062z" fill="#263238" fill-opacity=".54" stroke-width=".56919"/>
 <path d="m199.76 180.69q0.92495 0.49805 0.92495 1.1621 0 0.52178-0.37946 0.85381-0.35576 0.33204-0.97238 0.33204-0.66407 0-1.0198-0.30833-0.35576-0.30831-0.35576-0.85379 0-0.75894 0.8538-1.1621-0.71151-0.4269-0.71151-1.091 0-0.45061 0.33205-0.73521 0.33202-0.30833 0.90124-0.30833 0.54549 0 0.87751 0.30833 0.33205 0.2846 0.33205 0.73521 0 0.68777-0.78267 1.0672zm-0.42689-0.21342q0.68778-0.3083 0.68778-0.83008 0-0.30831-0.18978-0.45061-0.166-0.16609-0.52178-0.16609-0.33202 0-0.49804 0.16609-0.166 0.1422-0.166 0.45061 0 0.52178 0.6878 0.83008zm-0.0949 0.45064q-0.73522 0.35574-0.73522 0.97237 0 0.35576 0.18978 0.54548 0.21333 0.16609 0.61662 0.16609 0.42691 0 0.64035-0.18973 0.21334-0.18976 0.21334-0.54549 0-0.26089-0.166-0.45061-0.166-0.21342-0.66407-0.45064z" fill="#263238" fill-opacity=".54" stroke-width=".56919"/>
 <path d="m217.96 100.45h-0.64036v0.97239h-0.52175v-0.97239h-1.9922v-0.47432l1.9685-2.9172h0.54549v2.8935h0.64036zm-1.1621-0.49805v-1.0435q0-0.52176 0.0473-1.2807h-0.0236q-0.11844 0.30833-0.26089 0.52178l-1.2333 1.8025z" fill="#263238" stroke-width=".56919"/>
 <path d="m215.16 117.73h-0.52176v-2.7038q0-0.56919 0.0236-1.0672l-0.80638 0.68778-0.2846-0.35574 1.1384-0.90125h0.4506z" fill="#263238" stroke-width=".56919"/>
 <path d="m218.49 117.73h-0.52178v-2.7038q0-0.56919 0.0236-1.0672l-0.80638 0.68778-0.2846-0.35574 1.1384-0.90125h0.4506z" fill="#263238" stroke-width=".56919"/>
 <path d="m215.16 134.05h-0.52176v-2.7038q0-0.56919 0.0236-1.0672l-0.80638 0.68777-0.2846-0.35574 1.1384-0.90123h0.4506z" fill="#263238" stroke-width=".56919"/>
 <path d="m218.49 131.75q0.92495 0.49806 0.92495 1.1621 0 0.52176-0.37946 0.85379-0.35576 0.33204-0.97238 0.33204-0.66407 0-1.0198-0.30831-0.35574-0.30832-0.35574-0.85381 0-0.75894 0.8538-1.1621-0.71149-0.4269-0.71149-1.091 0-0.45061 0.33203-0.73521 0.33204-0.30833 0.90124-0.30833 0.54547 0 0.87751 0.30833 0.33202 0.2846 0.33202 0.73521 0 0.6878-0.78264 1.0673zm-0.42689-0.2134q0.68776-0.30832 0.68776-0.83008 0-0.30833-0.18978-0.45064-0.166-0.16608-0.52176-0.16608-0.33204 0-0.49806 0.16608-0.166 0.1422-0.166 0.45064 0 0.52176 0.6878 0.83008zm-0.0949 0.45062q-0.7352 0.35574-0.7352 0.97239 0 0.35574 0.18978 0.54547 0.21333 0.16608 0.61667 0.16608 0.42686 0 0.64033-0.18975 0.21333-0.18976 0.21333-0.54549 0-0.26089-0.166-0.45061-0.166-0.21342-0.66406-0.45061z" fill="#263238" stroke-width=".56919"/>
 <path d="m216.04 150.36h-2.7038v-0.47435l1.0436-1.1147q0.64033-0.68779 0.78264-0.9961 0.166-0.30832 0.166-0.64036 0-0.33203-0.18978-0.52175-0.18977-0.18976-0.52177-0.18976-0.47436 0-0.92496 0.40318l-0.30831-0.35574q0.5692-0.49805 1.257-0.49805 0.56918 0 0.90122 0.30832 0.33202 0.30831 0.33202 0.83009 0 0.37945-0.21333 0.75891-0.18978 0.37948-0.83009 1.091l-0.83009 0.87752v0.0237h2.0396z" fill="#263238" stroke-width=".56919"/>
 <path d="m216.77 150.21v-0.52177q0.42692 0.28459 1.091 0.28459 0.47434 0 0.71151-0.23716 0.26089-0.23716 0.26089-0.68779 0-0.45062-0.26089-0.66407-0.23717-0.2134-0.75895-0.2134-0.26087 0-0.66407 0.0712l-0.2846-0.16609 0.166-2.0396h2.0396v0.49805h-1.5653l-0.11844 1.2333q0.30833-0.0475 0.61667-0.0475 0.64033 0 1.0198 0.35576 0.37946 0.33204 0.37946 0.90123 0 0.6878-0.40317 1.0673-0.4032 0.37944-1.1621 0.37944-0.66406 0-1.0673-0.21342z" fill="#263238" stroke-width=".56919"/>
 <path d="m217.72 166.69h-2.7038v-0.47434l1.0435-1.1147q0.64036-0.68779 0.78264-0.9961 0.166-0.30832 0.166-0.64035 0-0.33204-0.18977-0.52176-0.18978-0.18976-0.52178-0.18976-0.47433 0-0.92493 0.4032l-0.30834-0.35576q0.5692-0.49805 1.257-0.49805 0.56918 0 0.90122 0.30833 0.33203 0.3083 0.33203 0.83008 0 0.37947-0.21334 0.75894-0.18977 0.37947-0.83009 1.091l-0.83008 0.87752v0.0237h2.0396z" fill="#263238" fill-opacity=".54" stroke-width=".56919"/>
 <path d="m215.35 183v-0.45062q0.21333 0.0712 0.49804 0.0712 1.3044 0 1.3518-1.755h-0.0236q-0.2846 0.52178-0.92495 0.52178-0.56918 0-0.90123-0.35576-0.33202-0.35574-0.33202-0.97237 0-0.6878 0.35573-1.0673 0.37947-0.37947 0.9724-0.37947 0.61663 0 1.0198 0.49805 0.4032 0.47434 0.4032 1.3993 0 1.2807-0.47435 1.9211-0.47433 0.61663-1.423 0.61663-0.33202 0-0.52176-0.0473zm0.97238-2.0396q0.37946 0 0.64035-0.23716 0.26089-0.23718 0.26089-0.56922 0-0.47432-0.26089-0.78264-0.26089-0.30831-0.61662-0.30831-0.4032 0-0.61665 0.26087-0.18977 0.23718-0.18977 0.73523 0 0.45061 0.18977 0.68778 0.21334 0.2134 0.59292 0.2134z" fill="#263238" fill-opacity=".54" stroke-width=".56919"/>
 <path d="m110.87 80.822v0.93528q-0.36524-0.1628-0.71264-0.24564-0.34743-0.08291-0.65623-0.08291-0.40977 0-0.60575 0.11253-0.19578 0.11253-0.19578 0.34925 0 0.17762 0.13067 0.27821 0.13355 0.09773 0.48104 0.16882l0.48696 0.09773q0.73937 0.14798 1.0512 0.44988 0.31178 0.3019 0.31178 0.85833 0 0.73105-0.43649 1.0892-0.43351 0.35516-1.3273 0.35516-0.42164 0-0.84626-0.07991-0.4246-0.07989-0.84923-0.23677v-0.96192q0.42463 0.22494 0.81954 0.34036 0.39791 0.11253 0.76609 0.11253 0.37413 0 0.57306-0.12436 0.19889-0.12436 0.19889-0.35516 0-0.20727-0.13667-0.31966-0.13355-0.11253-0.53744-0.20124l-0.44244-0.09773q-0.66514-0.14218-0.97394-0.45284-0.30584-0.31079-0.30584-0.83762 0-0.66002 0.42758-1.0152 0.4276-0.35516 1.2293-0.35516 0.36522 0 0.75122 0.05627 0.38602 0.05327 0.79878 0.1628z" fill="#263238" fill-opacity=".54" stroke-width=".56764"/>
 <path d="m112.08 83.807v-2.0245h1.0689v0.33152q0 0.26933-2e-3 0.67778-2e-3 0.40548-2e-3 0.54163 0 0.39956 0.0222 0.57714 0.0222 0.17462 0.0713 0.25456 0.0653 0.10353 0.16934 0.1598 0.10689 0.05627 0.24349 0.05627 0.33255 0 0.5226-0.25454 0.19-0.25454 0.19-0.70738v-1.6368h1.063v3.3149h-1.063v-0.47948q-0.24051 0.29004-0.51074 0.42915-0.26724 0.13618-0.59089 0.13618-0.57604 0-0.87893-0.35222-0.29989-0.3522-0.29989-1.0241z" fill="#263238" fill-opacity=".54" stroke-width=".56764"/>
 <path d="m119.79 83.077v2.0186h-1.0689v-1.545q0-0.42915-0.0222-0.59196-0.0178-0.1628-0.0653-0.23974-0.0622-0.10353-0.16911-0.1598-0.10689-0.05929-0.24349-0.05929-0.33256 0-0.5226 0.2575-0.19 0.25454-0.19 0.70738v1.6308h-1.063v-3.3149h1.063v0.4854q0.24053-0.29004 0.51073-0.42619 0.2702-0.13918 0.59685-0.13918 0.57604 0 0.87297 0.3522 0.29989 0.35222 0.29989 1.0241z" fill="#263238" fill-opacity=".54" stroke-width=".56764"/>
 <path d="m124.17 80.671h1.455l1.0096 2.3647 1.0155-2.3647h1.452v4.4189h-1.0808v-3.232l-1.0215 2.3826h-0.72451l-1.0215-2.3826v3.232h-1.0838z" fill="#263238" fill-opacity=".54" stroke-width=".56764"/>
 <path d="m131.75 82.454q-0.35336 0-0.54045 0.25454-0.184 0.25157-0.184 0.72808 0 0.47653 0.184 0.73107 0.18711 0.25157 0.54045 0.25157 0.3474 0 0.53151-0.25157 0.184-0.25454 0.184-0.73107 0-0.47651-0.184-0.72808-0.184-0.25454-0.53151-0.25454zm0-0.7577q0.85813 0 1.3392 0.46171 0.484 0.46174 0.484 1.2786 0 0.8169-0.484 1.2786-0.48102 0.46171-1.3392 0.46171-0.86112 0-1.3481-0.46171-0.484-0.46174-0.484-1.2786 0-0.81687 0.484-1.2786 0.48697-0.46171 1.3481-0.46171z" fill="#263238" fill-opacity=".54" stroke-width=".56764"/>
 <path d="m137.7 83.077v2.0186h-1.069v-1.545q0-0.42915-0.0222-0.59196-0.0178-0.1628-0.0653-0.23974-0.0622-0.10353-0.16912-0.1598-0.10688-0.05929-0.24348-0.05929-0.33256 0-0.52258 0.2575-0.19 0.25454-0.19 0.70738v1.6308h-1.063v-3.3149h1.063v0.4854q0.24051-0.29004 0.51073-0.42619 0.2702-0.13918 0.59685-0.13918 0.57604 0 0.87297 0.3522 0.29989 0.35222 0.29989 1.0241z" fill="#263238" fill-opacity=".54" stroke-width=".56764"/>
 <path d="m141.82 80.671h4.0858v0.86129h-1.4698v3.5576h-1.1432v-3.5576h-1.4728z" fill="#263238" fill-opacity=".54" stroke-width=".56764"/>
 <path d="m145.74 83.807v-2.0245h1.0689v0.33152q0 0.26933-2e-3 0.67778-2e-3 0.40548-2e-3 0.54163 0 0.39956 0.0222 0.57714 0.0222 0.17462 0.0713 0.25456 0.0653 0.10353 0.16933 0.1598 0.10689 0.05627 0.24349 0.05627 0.33256 0 0.52263-0.25454 0.19-0.25454 0.19-0.70738v-1.6368h1.063v3.3149h-1.063v-0.47948q-0.24052 0.29004-0.51074 0.42915-0.26724 0.13618-0.59089 0.13618-0.57604 0-0.87893-0.35222-0.29989-0.3522-0.29989-1.0241z" fill="#263238" fill-opacity=".54" stroke-width=".56764"/>
 <path d="m153.43 83.421v0.3019h-2.4853q0.0384 0.37292 0.2702 0.5594 0.2316 0.18642 0.64733 0.18642 0.33551 0 0.68589-0.09773 0.35336-0.10073 0.72451-0.3019v0.8169q-0.37709 0.14198-0.7542 0.21307-0.37711 0.07389-0.7542 0.07389-0.90266 0-1.4045-0.45581-0.49884-0.45875-0.49884-1.2845 0-0.81097 0.48991-1.2756 0.49293-0.46468 1.354-0.46468 0.78391 0 1.2531 0.4706 0.47213 0.47058 0.47213 1.2579zm-1.0927-0.3522q0-0.3019-0.17822-0.4854-0.17511-0.18642-0.46024-0.18642-0.3088 0-0.5018 0.17462-0.19311 0.1716-0.24054 0.49724z" fill="#263238" fill-opacity=".54" stroke-width=".56764"/>
 <path d="m157.18 80.671h1.0957l0.76609 3.2114 0.76016-3.2114h1.1016l0.76015 3.2114 0.76609-3.2114h1.0868l-1.0452 4.4189h-1.3184l-0.80469-3.3594-0.79577 3.3594h-1.3184z" fill="#263238" fill-opacity=".54" stroke-width=".56764"/>
 <path d="m167.33 83.421v0.3019h-2.4853q0.0385 0.37292 0.2702 0.5594 0.2316 0.18642 0.64732 0.18642 0.33553 0 0.68591-0.09773 0.35335-0.10073 0.72453-0.3019v0.8169q-0.37711 0.14198-0.75422 0.21307-0.37711 0.07389-0.75422 0.07389-0.90267 0-1.4045-0.45581-0.49885-0.45875-0.49885-1.2845 0-0.81097 0.48994-1.2756 0.49291-0.46468 1.354-0.46468 0.78391 0 1.2531 0.4706 0.47212 0.47058 0.47212 1.2579zm-1.0927-0.3522q0-0.3019-0.17822-0.4854-0.17511-0.18642-0.46024-0.18642-0.30883 0-0.50183 0.17462-0.19311 0.1716-0.24051 0.49724z" fill="#263238" fill-opacity=".54" stroke-width=".56764"/>
 <path d="m170.39 82.261v-1.7758h1.0689v4.6053h-1.0689v-0.47948q-0.21978 0.293-0.484 0.42915-0.26429 0.13618-0.61171 0.13618-0.61465 0-1.0096-0.4854-0.39493-0.48835-0.39493-1.2549 0-0.76657 0.39493-1.252 0.39491-0.48835 1.0096-0.48835 0.34444 0 0.60873 0.13918 0.26722 0.13618 0.48698 0.42619zm-0.70078 2.1458q0.34147 0 0.51965-0.24861 0.18111-0.24863 0.18111-0.7222 0-0.47355-0.18111-0.72218-0.17823-0.24861-0.51965-0.24861-0.33851 0-0.51964 0.24861-0.17823 0.24863-0.17823 0.72218 0 0.47357 0.17823 0.7222 0.18133 0.24861 0.51964 0.24861z" fill="#263238" fill-opacity=".54" stroke-width=".56764"/>
 <path d="m175.97 80.671h4.0858v0.86129h-1.4698v3.5576h-1.1432v-3.5576h-1.4728z" fill="#263238" fill-opacity=".54" stroke-width=".56764"/>
 <path d="m183.94 83.077v2.0186h-1.0689v-1.5391q0-0.43508-0.0222-0.59788-0.0178-0.1628-0.0653-0.23974-0.0622-0.10353-0.16911-0.1598-0.10689-0.05929-0.24349-0.05929-0.33256 0-0.5226 0.2575-0.19 0.25454-0.19 0.70738v1.6308h-1.063v-4.6053h1.063v1.7758q0.24051-0.29004 0.51071-0.42619 0.2702-0.13918 0.59684-0.13918 0.57605 0 0.87298 0.3522 0.29989 0.35222 0.29989 1.0241z" fill="#263238" fill-opacity=".54" stroke-width=".56764"/>
 <path d="m184.89 83.807v-2.0245h1.069v0.33152q0 0.26933-2e-3 0.67778-2e-3 0.40548-2e-3 0.54163 0 0.39956 0.0222 0.57714 0.0222 0.17462 0.0713 0.25456 0.0653 0.10353 0.16933 0.1598 0.10689 0.05627 0.24349 0.05627 0.33256 0 0.5226-0.25454 0.19-0.25454 0.19-0.70738v-1.6368h1.063v3.3149h-1.063v-0.47948q-0.24051 0.29004-0.51076 0.42915-0.26722 0.13618-0.59086 0.13618-0.57605 0-0.87894-0.35222-0.29991-0.3522-0.29991-1.0241z" fill="#263238" fill-opacity=".54" stroke-width=".56764"/>
 <path d="m195.32 80.671h3.0852v0.86129h-1.9419v0.8228h1.8261v0.86129h-1.8261v1.8735h-1.1432z" fill="#263238" fill-opacity=".54" stroke-width=".56764"/>
 <path d="m201.5 82.69q-0.13955-0.06509-0.27911-0.09471-0.13667-0.03265-0.27613-0.03265-0.40978 0-0.63247 0.26343-0.21978 0.26044-0.21978 0.74881v1.5272h-1.063v-3.3149h1.063v0.5446q0.20489-0.32556 0.46916-0.47355 0.26726-0.151 0.63842-0.151 0.0533 0 0.116 0.0064 0.0622 0.0021 0.18111 0.01711z" fill="#263238" fill-opacity=".54" stroke-width=".56764"/>
 <path d="m202.04 81.788h1.063v3.3149h-1.063zm0-1.2904h1.063v0.86426h-1.063z" fill="#263238" fill-opacity=".54" stroke-width=".56764"/>
 <path d="m213.89 80.822v0.93528q-0.36524-0.1628-0.71264-0.24564-0.34742-0.08291-0.65624-0.08291-0.40976 0-0.60574 0.11253-0.19578 0.11253-0.19578 0.34925 0 0.17762 0.13067 0.27821 0.13356 0.09773 0.48105 0.16882l0.48695 0.09773q0.73938 0.14798 1.0512 0.44988 0.31177 0.3019 0.31177 0.85833 0 0.73105-0.43648 1.0892-0.43354 0.35516-1.3273 0.35516-0.42165 0-0.84627-0.07991-0.42462-0.07989-0.84922-0.23677v-0.96192q0.4246 0.22494 0.81953 0.34036 0.39787 0.11253 0.76609 0.11253 0.37411 0 0.57307-0.12436 0.19889-0.12436 0.19889-0.35516 0-0.20727-0.13667-0.31966-0.13356-0.11253-0.53742-0.20124l-0.44245-0.09773q-0.66513-0.14218-0.97395-0.45284-0.30585-0.31079-0.30585-0.83762 0-0.66002 0.4276-1.0152 0.42758-0.35516 1.2293-0.35516 0.36523 0 0.75123 0.05627 0.38602 0.05327 0.79877 0.1628z" fill="#263238" fill-opacity=".54" stroke-width=".56764"/>
 <path d="m216.63 83.614q-0.33258 0-0.50182 0.11256-0.16645 0.11256-0.16645 0.33149 0 0.20124 0.13356 0.31669 0.13666 0.11253 0.37711 0.11253 0.29989 0 0.50478-0.21307 0.20488-0.21607 0.20488-0.53867v-0.12136zm1.6242-0.39958v1.8913h-1.0719v-0.49133q-0.21378 0.3019-0.48105 0.44101-0.26722 0.13618-0.65026 0.13618-0.51667 0-0.84034-0.29893-0.32069-0.3019-0.32069-0.78137 0-0.58309 0.40087-0.85538 0.40384-0.2723 1.2649-0.2723h0.62654v-0.08291q0-0.25157-0.19889-0.36702-0.19889-0.11836-0.6206-0.11836-0.34147 0-0.63542 0.06809-0.29396 0.06809-0.54638 0.20427v-0.808q0.34149-0.08291 0.68593-0.12436 0.34445-0.04447 0.68889-0.04447 0.89971 0 1.2976 0.35516 0.40084 0.35222 0.40084 1.1484z" fill="#263238" fill-opacity=".54" stroke-width=".56764"/>
 <path d="m220.4 80.843v0.94119h1.0957v0.7577h-1.0957v1.4059q0 0.23087 0.092 0.31373 0.092 0.07991 0.36522 0.07991h0.54636v0.7577h-0.91158q-0.62949 0-0.89378-0.26046-0.26129-0.26341-0.26129-0.89089v-1.4059h-0.52853v-0.7577h0.52853v-0.94119z" fill="#263238" fill-opacity=".54" stroke-width=".56764"/>
 <path d="m104.82 197.6h119.53" fill="none" stroke="#000000" stroke-opacity=".090196" stroke-width=".56919px"/>
 <path d="m140.81 204.6v2.4696c-0.15755-0.27169-0.35709-0.47278-0.59895-0.6033-0.23914-0.13309-0.53109-0.19964-0.86805-0.19964-0.55169 0-0.99764 0.21949-1.3455 0.65972-0.34513 0.44025-0.52084 1.0187-0.52084 1.7361 0 0.71744 0.17578 1.2959 0.52084 1.7361 0.34785 0.44024 0.7938 0.65972 1.3455 0.65972 0.33696 0 0.62891-0.0648 0.86805-0.19532 0.24186-0.13315 0.44135-0.33588 0.59895-0.60764v0.68577h0.74653v-6.3412zm9.7873 4e-3v0.95042h0.75087v-0.95052zm35.217 0v0.95042h0.75086v-0.95052zm-15.078 0.15191c-0.6658 0-1.1864 0.15895-1.5668 0.46875-0.37773 0.30979-0.56858 0.73363-0.56858 1.2717 0 0.46471 0.13778 0.82419 0.41233 1.0851 0.27447 0.26082 0.71829 0.45492 1.3325 0.57726l0.50347 0.0955c0.41851 0.0842 0.71638 0.21344 0.89844 0.38194 0.18467 0.16847 0.27778 0.39985 0.27778 0.69878 0 0.34242-0.12644 0.60515-0.38196 0.78994-0.25544 0.1848-0.61926 0.27777-1.0894 0.27777-0.3098 0-0.62551-0.0481-0.94617-0.14322-0.32069-0.0951-0.64665-0.2335-0.98091-0.42101v0.84636c0.34784 0.12769 0.68355 0.22554 1.007 0.2908 0.32609 0.0653 0.63207 0.0955 0.92013 0.0955 0.76363 0 1.342-0.15135 1.7361-0.45572 0.39675-0.30437 0.59462-0.75145 0.59462-1.3412 0-0.49459-0.14489-0.88706-0.43838-1.1806-0.29078-0.29617-0.74433-0.50377-1.3585-0.62066l-0.49913-0.10415c-0.45109-0.0843-0.75707-0.19405-0.92014-0.32986-0.16022-0.1386-0.23871-0.33861-0.23871-0.60764 0-0.32068 0.11845-0.56826 0.36025-0.74219 0.24457-0.17391 0.59326-0.26476 1.0417-0.26476 0.25816 0 0.52576 0.0394 0.80296 0.11285 0.27718 0.0734 0.57289 0.18473 0.88542 0.3342v-0.80308c-0.3098-0.10326-0.61524-0.18273-0.91147-0.23437-0.2962-0.0516-0.58706-0.0781-0.8724-0.0781zm-25.799 0.0955v0.69444h2.1614v5.3906h0.829v-5.3906h2.1571v-0.69444zm-40.104 0.0131v6.0851h1.6927c1.174 7e-5 2.0368-0.2459 2.5912-0.73785 0.55436-0.49195 0.82898-1.2601 0.82898-2.309 0-1.0436-0.273-1.8112-0.82464-2.3003-0.55169-0.49188-1.4161-0.73785-2.5955-0.73785zm11.493 0.22569v1.2934h-0.55122v0.58593h0.55122v2.4783c0 0.57067 0.10978 0.96315 0.32985 1.1806 0.22022 0.21469 0.61909 0.32118 1.1979 0.32118h0.76822v-0.625h-0.76822c-0.31253 0-0.52176-0.0546-0.625-0.1606-0.10067-0.106-0.152-0.34386-0.152-0.71615v-2.4783h1.5451v-0.58593h-1.5451v-1.2934zm62.947 0v1.2934h-0.55123v0.58593h0.55123v2.4783c0 0.57067 0.10977 0.96315 0.32986 1.1806 0.22 0.21469 0.61905 0.32118 1.1979 0.32118h0.76823v-0.625h-0.76823c-0.31253 0-0.52175-0.0546-0.625-0.1606-0.10066-0.106-0.14755-0.34386-0.14755-0.71615v-2.4783h1.5408v-0.58593h-1.5408v-1.2934zm3.2682 0v1.2934h-0.55122v0.58593h0.55122v2.4783c0 0.57067 0.10978 0.96315 0.32987 1.1806 0.22022 0.21469 0.61908 0.32118 1.1979 0.32118h0.77257v-0.625h-0.77257c-0.31251 0-0.5174-0.0546-0.62067-0.1606-0.10067-0.106-0.152-0.34386-0.152-0.71615v-2.4783h1.5451v-0.58593h-1.5451v-1.2934zm-76.888 0.45139h0.99826c0.83971 0 1.4517 0.18811 1.8403 0.56858 0.39131 0.37773 0.58594 0.97726 0.58594 1.7925 0 0.8207-0.19467 1.4208-0.58594 1.8012-0.38862 0.38045-1.0006 0.56858-1.8403 0.56858h-0.99826zm15.864 0.72049c-0.68482 0-1.227 0.21949-1.6319 0.65972-0.4022 0.43752-0.60331 1.0322-0.60331 1.7795 0 0.72286 0.20978 1.2948 0.63369 1.7187 0.42665 0.42394 1.0035 0.63368 1.7318 0.63368 0.29076 0 0.57676-0.027 0.85938-0.0868 0.28262-0.0597 0.55995-0.14624 0.82898-0.26041v-0.71181c-0.26632 0.14125-0.53554 0.24613-0.80729 0.31684-0.26903 0.0707-0.54527 0.10851-0.83334 0.10851-0.49731 0-0.88764-0.1346-1.1675-0.40364-0.27722-0.27176-0.43182-0.66423-0.4644-1.1806h3.4462v-0.36892c0-0.67939-0.17511-1.2162-0.53387-1.6102-0.356-0.39676-0.84415-0.59462-1.4583-0.59462zm41.437 0c-0.68482 0-1.2314 0.21949-1.6363 0.65972-0.4022 0.43752-0.60329 1.0322-0.60329 1.7795 0 0.72286 0.214 1.2948 0.63803 1.7187 0.42664 0.42394 1.0035 0.63368 1.7318 0.63368 0.29078 0 0.57674-0.027 0.85938-0.0868 0.28262-0.0597 0.55998-0.14624 0.829-0.26041v-0.71181c-0.26631 0.14125-0.53553 0.24613-0.80729 0.31684-0.26902 0.0707-0.54962 0.10851-0.83769 0.10851-0.49731 0-0.88762-0.1346-1.1675-0.40364-0.2772-0.27176-0.43182-0.66423-0.4644-1.1806h3.4505v-0.36892c0-0.67939-0.17956-1.2162-0.53818-1.6102-0.35602-0.39676-0.83984-0.59462-1.454-0.59462zm13.099 0c-0.68482 0-1.227 0.21949-1.632 0.65972-0.40218 0.43752-0.60329 1.0322-0.60329 1.7795 0 0.72286 0.20978 1.2948 0.63369 1.7187 0.42667 0.42394 1.0035 0.63368 1.7318 0.63368 0.29078 0 0.57675-0.027 0.85938-0.0868 0.28264-0.0597 0.55997-0.14624 0.829-0.26041v-0.71181c-0.26632 0.14125-0.53554 0.24613-0.80729 0.31684-0.26903 0.0707-0.54529 0.10851-0.83334 0.10851-0.49733 0-0.88764-0.1346-1.1675-0.40364-0.27722-0.27176-0.43182-0.66423-0.46442-1.1806h3.4505v-0.36892c0-0.67939-0.17955-1.2162-0.5382-1.6102-0.356-0.39676-0.84418-0.59462-1.4583-0.59462zm-41.337 4e-3c-0.31796 0-0.59745 0.0682-0.84202 0.204-0.24187 0.13587-0.45432 0.34186-0.63369 0.61632v-0.70746h-0.75087v4.5616h0.75087v-2.5781c0-0.44568 0.11777-0.79651 0.35157-1.0547 0.23372-0.25816 0.55427-0.39063 0.9592-0.39063 0.33698 0 0.59107 0.11085 0.75954 0.32552 0.16844 0.21469 0.25175 0.5358 0.25175 0.96788v2.73h0.75087v-2.7517c0-0.63046-0.13467-1.1089-0.40364-1.4323-0.26903-0.32611-0.66909-0.49045-1.1936-0.49045zm55.634 0c-0.31793 0-0.59742 0.0682-0.842 0.204-0.24186 0.13587-0.45433 0.34186-0.63368 0.61632v-0.70746h-0.75087v4.5616h0.75087v-2.5781c0-0.44568 0.11777-0.79651 0.35155-1.0547 0.23371-0.25816 0.55431-0.39063 0.9592-0.39063 0.337 0 0.58673 0.11085 0.75522 0.32552 0.16845 0.21469 0.25607 0.5358 0.25607 0.96788v2.73h0.74653v-2.7517c0-0.63046-0.13022-1.1089-0.39931-1.4323-0.26902-0.32611-0.66909-0.49045-1.1936-0.49045zm9.8394 0c-0.55983 0-0.9934 0.11351-1.2978 0.34722-0.30435 0.23372-0.45571 0.56891-0.45571 0.99827 0 0.35329 0.10156 0.62952 0.30816 0.83333 0.20644 0.20114 0.54224 0.34924 1.0069 0.44705l0.26042 0.0608c0.46473 0.10053 0.76693 0.20813 0.90278 0.31684 0.13844 0.10869 0.20822 0.26493 0.20822 0.46875 0 0.22008-0.0962 0.38981-0.28647 0.51215-0.19022 0.11962-0.46268 0.17795-0.81595 0.17795-0.2636 0-0.52958-0.0335-0.79862-0.10415-0.26905-0.0734-0.54314-0.18149-0.82031-0.32552v0.77257c0.29348 0.0951 0.57408 0.16649 0.83766 0.21266 0.26634 0.0489 0.51931 0.0738 0.76389 0.0738 0.58698 0 1.0503-0.12162 1.3846-0.36892 0.33697-0.2473 0.50346-0.58301 0.50346-1.0069 0-0.3723-0.11289-0.66152-0.33853-0.86806-0.22282-0.20922-0.60018-0.37195-1.1328-0.48611l-0.25607-0.0564c-0.40231-0.0897-0.66991-0.18431-0.80295-0.28212-0.13312-0.10056-0.19956-0.23841-0.19956-0.41233 0-0.22825 0.0929-0.39799 0.27778-0.51215 0.18755-0.11415 0.46538-0.17362 0.83766-0.17362 0.24458 0 0.48354 0.0281 0.7118 0.0825 0.22829 0.0543 0.44776 0.13435 0.65974 0.24305v-0.70746c-0.20645-0.0816-0.43251-0.14156-0.67709-0.18229-0.24458-0.0407-0.50405-0.0608-0.78125-0.0608zm-45.082 9e-3c-0.32882 0-0.61156 0.0666-0.85069 0.19964-0.23915 0.13318-0.44511 0.34077-0.61633 0.62066v-0.70774h-0.7552v4.5616h0.7552v-2.5781c0-0.44296 0.11289-0.79218 0.33855-1.0504 0.22556-0.26088 0.5326-0.39497 0.91578-0.39497 0.3234 0 0.56125 0.10923 0.71616 0.32118 0.15489 0.20925 0.23004 0.53198 0.23004 0.97223v2.73h0.7552v-2.5781c0-0.44568 0.11289-0.79652 0.33853-1.0547 0.22556-0.25816 0.53154-0.39063 0.92016-0.39063 0.31796 0 0.55691 0.10923 0.7118 0.32118 0.15489 0.21198 0.23002 0.53471 0.23002 0.97223v2.73h0.75522v-2.7561c0-0.61415-0.128-1.0834-0.38628-1.4149-0.25816-0.33425-0.62687-0.50347-1.1024-0.50347-0.35329 0-0.65926 0.0827-0.92015 0.24306-0.26087 0.16033-0.48522 0.40522-0.67274 0.74218-0.11133-0.32067-0.2828-0.56503-0.51648-0.7335-0.231-0.16849-0.5148-0.25174-0.84636-0.25174zm-42.287 4e-3c-0.2446 0-0.49705 0.0281-0.7552 0.0825-0.25818 0.0516-0.52414 0.1284-0.79863 0.23438v0.69444c0.22827-0.12498 0.46885-0.21958 0.71616-0.28212 0.24729-0.0625 0.49867-0.0911 0.75956-0.0911 0.41033 0 0.72928 0.0919 0.95484 0.28211 0.22827 0.18754 0.34289 0.45783 0.34289 0.80296v0.0694h-1.0504c-0.68209 0-1.1957 0.13409-1.5408 0.39497-0.3424 0.26088-0.51649 0.64523-0.51649 1.1588 0 0.44024 0.13778 0.79108 0.41234 1.0547 0.2772 0.26088 0.64804 0.39496 1.1154 0.39496 0.3696 0 0.68205-0.0648 0.93751-0.19531 0.25545-0.13315 0.47116-0.33913 0.64236-0.61632v0.69011h0.75087v-2.6042c0-0.69569-0.16445-1.2114-0.49045-1.5538-0.32613-0.3424-0.81971-0.51649-1.48-0.51649zm16.181 0c-0.2446 0-0.49706 0.0281-0.7552 0.0825-0.25818 0.0516-0.52415 0.1284-0.79862 0.23438v0.69444c0.22827-0.12498 0.46451-0.21958 0.71182-0.28212 0.24729-0.0625 0.503-0.0911 0.76387-0.0911 0.41035 0 0.72498 0.0919 0.95053 0.28211 0.22827 0.18754 0.34289 0.45783 0.34289 0.80296v0.0694h-1.0504c-0.68209 0-1.1957 0.13409-1.5408 0.39497-0.34243 0.26088-0.51216 0.64523-0.51216 1.1588 0 0.44024 0.13778 0.79108 0.41233 1.0547 0.27718 0.26088 0.64805 0.39496 1.1154 0.39496 0.3696 0 0.68204-0.0648 0.93751-0.19531 0.25542-0.13315 0.46682-0.33913 0.63802-0.61632v0.69011h0.75087v-2.6042c0-0.69569-0.16422-1.2114-0.49047-1.5538-0.32609-0.3424-0.81533-0.51649-1.4757-0.51649zm65.977 0c-0.55982 0-1.0117 0.21138-1.3542 0.63802-0.3424 0.42667-0.51215 0.99483-0.51215 1.7014 0 0.70384 0.16977 1.2661 0.51215 1.6927 0.34242 0.42666 0.79434 0.64236 1.3542 0.64236 0.33698 0 0.6262-0.0666 0.86806-0.19964 0.24187-0.13316 0.43974-0.33426 0.59463-0.6033v0.36892c0 0.51906-0.12 0.90775-0.36458 1.1632-0.2446 0.25815-0.61491 0.38628-1.1068 0.38628-0.22284 0-0.44069-0.0297-0.65538-0.0868-0.21466-0.057-0.43095-0.14513-0.65104-0.26475v0.7335c0.22 0.0816 0.44769 0.13994 0.68142 0.17796 0.23369 0.0407 0.48293 0.0608 0.74653 0.0608 0.71198-1e-5 1.2391-0.19247 1.5842-0.57292 0.34514-0.37774 0.51649-0.95456 0.51649-1.7318v-3.9978h-0.75086v0.69444c-0.15489-0.26911-0.35276-0.4702-0.59463-0.60329-0.24186-0.13309-0.53108-0.19965-0.86806-0.19965zm-44.379 0.0998v4.566h0.75087v-4.566zm35.217 0v4.566h0.75086v-4.566zm-46.285 0.51215c0.39676 0 0.70923 0.15784 0.93751 0.47309 0.22827 0.31251 0.34287 0.74609 0.34287 1.2977 0 0.55167-0.11467 0.98685-0.34287 1.3021-0.22828 0.31252-0.54075 0.46875-0.93751 0.46875-0.39675 1e-5 -0.70922-0.15624-0.93749-0.46875-0.22555-0.31523-0.33855-0.75041-0.33855-1.3021 0-0.55165 0.11289-0.98523 0.33855-1.2977 0.22827-0.31524 0.54074-0.47309 0.93749-0.47309zm-18.003 4e-3c0.36957 0 0.66693 0.12436 0.88975 0.36892 0.22507 0.24458 0.34129 0.57055 0.34722 0.98091l-2.6736 4e-3c0.038-0.42937 0.17956-0.76185 0.42969-0.99826 0.25271-0.23643 0.58843-0.3559 1.0069-0.3559zm41.437 0c0.3696 0 0.6626 0.12436 0.88542 0.36892 0.22507 0.24458 0.34131 0.57055 0.34722 0.98091l-2.6736 4e-3c0.038-0.42937 0.184-0.76185 0.43403-0.99826 0.25273-0.23643 0.58844-0.3559 1.0069-0.3559zm13.099 0c0.36957 0 0.66691 0.12436 0.88975 0.36892 0.22507 0.24458 0.34129 0.57055 0.34722 0.98091l-2.6736 4e-3c0.038-0.42937 0.17956-0.76185 0.42969-0.99826 0.25273-0.23643 0.58845-0.3559 1.007-0.3559zm19.102 9e-3c0.40491 0 0.71467 0.15246 0.93749 0.45139 0.22556 0.29893 0.33856 0.71951 0.33856 1.263 0 0.54078-0.11289 0.95975-0.33856 1.2587-0.22282 0.29893-0.53258 0.44705-0.93749 0.44705-0.4022 0-0.71629-0.14812-0.94184-0.44705-0.22282-0.29893-0.3342-0.7179-0.3342-1.2587 0-0.54351 0.11133-0.96409 0.3342-1.263 0.22555-0.29893 0.53964-0.45139 0.94184-0.45139zm-81.871 1.7578h0.74653v0.16493c0 0.48917-0.12489 0.88435-0.3776 1.1806-0.25005 0.2935-0.58249 0.43837-0.99827 0.43837-0.30164 0-0.54384-0.0795-0.72049-0.23438-0.174-0.1576-0.26042-0.36735-0.26042-0.63368 0-0.33429 0.11778-0.57325 0.35158-0.7118 0.23371-0.13856 0.65267-0.204 1.2587-0.204zm16.176 0h0.74653v0.16493c0 0.48917-0.12489 0.88435-0.37762 1.1806-0.25002 0.2935-0.58247 0.43837-0.99825 0.43837-0.30164 0-0.53951-0.0795-0.71615-0.23438-0.174-0.1576-0.26476-0.36735-0.26476-0.63368 0-0.33429 0.11778-0.57325 0.35156-0.7118 0.23371-0.13856 0.65267-0.204 1.2587-0.204z" fill="#000000" opacity=".65" stroke-width=".56919"/>
</svg>
