<svg width="240" height="240" version="1.1" xmlns="http://www.w3.org/2000/svg">
 <defs>
  <filter id="filter11441" x="-.02646" y="-.021168" width="1.0529" height="1.0423" color-interpolation-filters="sRGB">
   <feGaussianBlur stdDeviation="0.7056"/>
  </filter>
 </defs>
 <rect x="-293.33" y="40" width="533.33" height="200" fill="none" stroke-linecap="round" stroke-linejoin="round" stroke-miterlimit="2" stroke-width="4.3259"/>
 <path d="m0 224.44h240v15.556h-240z" fill="#f2f2f2" opacity=".75"/>
 <path d="m108.51 228.05v0.57291h-1.7057v6.8273c0 0.31533 0.25325 0.56857 0.56858 0.56857h4.553c0.31533 0 0.56858-0.25324 0.56858-0.56857v-6.8273h-1.7057v-0.57291zm17.075 0-2.3003 2.3003h-1.7101v3.4158h1.7578l2.2526 2.2526zm1.1372 0v0.85503c1.3205 0.4212 2.2786 1.6665 2.2786 3.1293s-0.95811 2.7081-2.2786 3.1293v0.85503c1.793-0.44397 3.1337-2.0491 3.1337-3.9844s-1.3407-3.5404-3.1337-3.9844zm-51.784 0.026c-0.5692 0-0.56858 0.56858-0.56858 0.56858v6.8316s-6.22e-4 0.56858 0.56858 0.56858h5.6901s0.56858 6.2e-4 0.56858-0.56858v-6.8316s6.22e-4 -0.56858-0.56858-0.56858zm157.1 0.54687c-0.94309 0-1.7057 0.76703-1.7057 1.7101s0.76264 1.7057 1.7057 1.7057c0.94311 0 1.7101-0.76269 1.7101-1.7057s-0.76696-1.7101-1.7101-1.7101zm-154.26 0.59472c1.2574 0 2.2786 1.0169 2.2786 2.2743s-1.0212 2.2786-2.2786 2.2786h-2.2743v-2.2786c0-1.2574 1.0169-2.2743 2.2743-2.2743zm-28.576 0.0737c-0.69571 0-1.2968 0.19896-1.7969 0.59028l0.39498 0.52083c0.43482-0.32611 0.90187-0.49045 1.4019-0.49045 0.30433 0 0.54222 0.0865 0.71613 0.26042 0.19578 0.15217 0.29516 0.35977 0.29516 0.62066 0 0.34783-0.12111 0.62894-0.36024 0.84635-0.23916 0.19564-0.57649 0.29514-1.0113 0.29514h-0.55556v0.62066h0.55556c0.52178 0 0.90236 0.0865 1.1415 0.26042 0.26087 0.17393 0.39062 0.43341 0.39062 0.78125 0 0.39132-0.12111 0.6854-0.36024 0.88107-0.23916 0.19567-0.59376 0.29514-1.072 0.29514-0.54349 0-1.0668-0.12973-1.5668-0.39062v0.71614c0.39136 0.19567 0.92329 0.2908 1.5972 0.2908 0.71742 0 1.2624-0.15136 1.632-0.45573 0.36956-0.32611 0.5512-0.75857 0.5512-1.3021 0-0.82606-0.48869-1.3061-1.467-1.4366 0.84787-0.17394 1.2717-0.64965 1.2717-1.4323 0-0.4348-0.15133-0.78512-0.45571-1.046-0.30438-0.28263-0.73687-0.42535-1.3021-0.42535zm-12.582 0.12153c-0.63047 0-1.2057 0.22488-1.7274 0.68143l0.42536 0.49045c0.41307-0.3696 0.83689-0.55556 1.2717-0.55556 0.30436 0 0.54222 0.0865 0.71613 0.26042 0.174 0.17393 0.26042 0.41612 0.26042 0.72049 0 0.30435-0.07355 0.59845-0.22569 0.88107-0.13044 0.28263-0.4894 0.73671-1.0764 1.3672l-1.4366 1.5321v0.65538h3.7196v-0.68576h-2.8038v-0.0347l1.1415-1.2066c0.587-0.65221 0.96756-1.1496 1.1415-1.4974 0.19578-0.34785 0.2908-0.69817 0.2908-1.046 0-0.47829-0.15133-0.85887-0.45573-1.1415-0.30436-0.28262-0.71953-0.42101-1.2413-0.42101zm25.382 0.0347-2.7083 4.0104v0.65104h2.7387v1.3368h0.71613v-1.3368h0.88109v-0.68577h-0.88109v-3.9757zm31.727 0.31684c-1.2679 0-2.5353 0.48288-3.5026 1.4496l3.5026 4.2448 3.5026-4.2448c-0.9674-0.96677-2.2347-1.4496-3.5026-1.4496zm-31.662 0.46441h0.03044c-0.04333 0.69569-0.06511 1.2839-0.06511 1.7622v1.4366l-2.0226-4e-3 1.697-2.4783c0.13044-0.19567 0.25151-0.43352 0.36024-0.71615zm64.653 0.0998v3.4115c0.60335-0.33013 1.02-0.96578 1.02-1.7057s-0.41096-1.3756-1.02-1.7057zm-48.941 0.026c-0.62873 0-1.1372 0.50843-1.1372 1.1372 0 0.62871 0.50844 1.1372 1.1372 1.1372s1.1415-0.50844 1.1415-1.1372c0-0.62872-0.51278-1.1372-1.1415-1.1372zm154.26 2.8212c-3.4153 2e-3 -3.4115 2.2786-3.4115 2.2786v0.56858h6.8273v-0.56858s-7.3e-4 -2.2804-3.4158-2.2786z" fill="#333333" opacity=".8" stroke-width=".56919"/>
 <path d="m73.228 236.6v-9.1071h9.1071v9.1071z" color="#bebebe" opacity="0" stroke-width="1.7076"/>
 <path d="m98.285 236.6v-9.1071h-9.1071v9.1071z" color="#bebebe" fill="none" stroke-width=".56919"/>
 <path d="m89.178 229.94c2.5149-2.5134 6.5924-2.5134 9.1071 0l-4.5536 5.5139z" fill="#333333" opacity=".35" stroke-width=".56919"/>
 <path d="m114.2 227.48v9.1071h-9.1071v-9.1071z" color="#dddddd" fill="none" stroke-width=".56919"/>
 <path d="m121.04 227.48h9.1071v9.1071h-9.1071z" color="#bebebe" fill="none" opacity=".1" stroke-width=".56919"/>
 <path d="m227.49 227.49h9.1071v9.1071h-9.1071z" color="#bebebe" enable-background="new" fill="none" stroke-width=".56919"/>
 <path d="m24.544 235.45h-0.71742v-3.7177q0-0.78265 0.03267-1.4675l-1.1087 0.94571-0.39133-0.48916 1.5653-1.2392h0.6196z" fill="#333333" stroke-width=".56919"/>
 <path d="m135.56 224.44h88.889v15.556h-88.889z" fill="#3c84f7" fill-rule="evenodd" stroke-width="2.1063"/>
 <path d="m197.38 228.94c-0.74176 0-1.3164 0.25164-1.7187 0.75955-0.40231 0.50544-0.60331 1.2261-0.60331 2.1615 0 0.93289 0.20111 1.6536 0.60331 2.1615 0.40231 0.5054 0.97698 0.75955 1.7187 0.75955 0.73924 0 1.3078-0.25415 1.7101-0.75955 0.40231-0.50796 0.60331-1.2286 0.60331-2.1615 0-0.9354-0.20111-1.6561-0.60331-2.1615-0.40231-0.50791-0.97082-0.75955-1.7101-0.75955zm5.382 0c-0.68642 0-1.208 0.12434-1.5625 0.37327-0.35453 0.24892-0.53384 0.60984-0.53384 1.0851 0 0.31934 0.0869 0.58488 0.26042 0.79861 0.17355 0.21371 0.4306 0.37432 0.77255 0.47743-0.38217 0.1056-0.66757 0.27762-0.86371 0.51649-0.19355 0.23636-0.2908 0.53636-0.2908 0.89844 0 0.55819 0.18334 0.98072 0.55556 1.2674 0.37464 0.28413 0.93064 0.42535 1.6623 0.42535 0.72918 0 1.2753-0.14123 1.645-0.42535 0.37213-0.28664 0.55991-0.70917 0.55991-1.2674 0-0.36208-0.0991-0.66208-0.29516-0.89844-0.19355-0.23891-0.48151-0.41094-0.86371-0.51649 0.34196-0.10309 0.59907-0.26371 0.77258-0.47743 0.176-0.21374 0.26475-0.47927 0.26475-0.79861 0-0.47774-0.17488-0.83866-0.52951-1.0851-0.35453-0.24894-0.87242-0.37327-1.5538-0.37327zm13.832 0c-0.68645 0-1.208 0.12434-1.5625 0.37327-0.35454 0.24892-0.52952 0.60984-0.52952 1.0851 0 0.31934 0.0827 0.58488 0.25607 0.79861 0.17356 0.21371 0.43496 0.37432 0.77691 0.47743-0.38218 0.1056-0.67191 0.27762-0.86804 0.51649-0.19356 0.23636-0.2908 0.53636-0.2908 0.89844 0 0.55819 0.18333 0.98072 0.55555 1.2674 0.37465 0.28413 0.93065 0.42535 1.6623 0.42535 0.72917 0 1.2797-0.14123 1.6493-0.42535 0.37213-0.28664 0.55555-0.70917 0.55555-1.2674 0-0.36208-0.0989-0.66208-0.29513-0.89844-0.19356-0.23891-0.48151-0.41094-0.86371-0.51649 0.34197-0.10309 0.60342-0.26371 0.77691-0.47743 0.176-0.21374 0.26042-0.47927 0.26042-0.79861 0-0.47774-0.17489-0.83866-0.52951-1.0851-0.35453-0.24894-0.87242-0.37327-1.5538-0.37327zm-36.094 0.0912-1.3108 0.27344v0.98524l1.3194-0.2691v3.6372h-1.2847v1.0026h3.9366v-1.0026h-1.2804v-4.6267zm-39.484 4e-3v1.0938h1.8707v4.5356h1.454v-4.5356h1.8663v-1.0938zm18.524 0v5.6293h1.3759v-3.8628l2.0486 3.8628h1.6233v-5.6293h-1.3802v3.8585l-2.0486-3.8585zm26.758 9e-3 -2.2569 3.3594v1.2457h2.4957v1.0243h1.3759v-1.0243h0.80296v-1.0547h-0.80296v-3.5504zm24.826 0-2.257 3.3594v1.2457h2.4957v1.0243h1.3759v-1.0243h0.80295v-1.0547h-0.80295v-3.5504zm-8.3637 0.80729c0.22625 0 0.39758 0.0617 0.52082 0.18229 0.12334 0.11818 0.18667 0.28836 0.18667 0.51216 0 0.22371-0.0633 0.39573-0.18667 0.51649-0.12311 0.12062-0.29451 0.18229-0.52082 0.18229-0.23127 0-0.41242-0.0617-0.5382-0.18229-0.12333-0.12069-0.18222-0.29271-0.18222-0.51649 0-0.22123 0.0591-0.3914 0.18222-0.51216 0.12578-0.12062 0.30687-0.18229 0.5382-0.18229zm13.832 0c0.22624 0 0.40191 0.0617 0.52515 0.18229 0.12311 0.11818 0.18222 0.28836 0.18222 0.51216 0 0.22371-0.0591 0.39573-0.18222 0.51649-0.12311 0.12062-0.29884 0.18229-0.52515 0.18229-0.23127 0-0.41243-0.0617-0.5382-0.18229-0.12334-0.12069-0.18223-0.29271-0.18223-0.51649 0-0.22123 0.0591-0.3914 0.18223-0.51216 0.12577-0.12062 0.30686-0.18229 0.5382-0.18229zm-19.214 0.0825c0.31173 0 0.53324 0.14053 0.66406 0.42969 0.13311 0.28665 0.19956 0.78469 0.19956 1.4887 0 0.71158-0.0665 1.2144-0.19956 1.5061-0.13333 0.29168-0.35478 0.43403-0.66406 0.43403-0.31185 0-0.53523-0.14236-0.6684-0.43403-0.13312-0.29168-0.19956-0.7945-0.19956-1.5061 0-0.70402 0.0664-1.2021 0.19956-1.4887 0.13333-0.28915 0.35662-0.42969 0.6684-0.42969zm-10.842 0.30382v2.3568h-1.5886zm24.826 0v2.3568h-1.5885zm-57.799 0.0998c-0.7292 0-1.3057 0.19551-1.7231 0.59028-0.41487 0.39475-0.62065 0.93865-0.62065 1.6276 0 0.70153 0.21133 1.2466 0.63367 1.6363 0.42495 0.38722 1.0195 0.5816 1.7839 0.5816 0.31934-1e-5 0.63987-0.0327 0.9592-0.0955 0.31934-0.0603 0.63554-0.14834 0.95487-0.2691v-1.0417c-0.31431 0.17098-0.62093 0.29647-0.92015 0.38195-0.29672 0.083-0.58394 0.12586-0.86805 0.12586-0.35202 0-0.62851-0.0803-0.82464-0.23871-0.196-0.1584-0.31016-0.39499-0.34289-0.71181h3.1554v-0.38628c0-0.66883-0.19912-1.2018-0.59896-1.6016-0.39727-0.39979-0.92473-0.59896-1.5885-0.59896zm14.388 9e-3c-0.72918 0-1.302 0.19804-1.7144 0.59028-0.40987 0.39225-0.61198 0.93363-0.61198 1.6276 0 0.69399 0.202 1.2397 0.61198 1.632 0.41235 0.39224 0.98522 0.58593 1.7144 0.58593 0.72666 0 1.2941-0.19369 1.7014-0.58593 0.40984-0.39226 0.61197-0.93796 0.61197-1.632 0-0.69397-0.20222-1.2354-0.61197-1.6276-0.40734-0.39225-0.97474-0.59028-1.7014-0.59028zm-21.944 0.0868v2.5825c0 0.57077 0.128 1.0029 0.38196 1.3021 0.25646 0.29922 0.62766 0.45139 1.1154 0.45139 0.27409 0 0.52458-0.058 0.75087-0.17363 0.22882-0.11817 0.44304-0.30046 0.64671-0.54687v0.60764h1.3498v-4.2231h-1.3498v2.0877c0 0.38471-0.0778 0.68221-0.23871 0.89844-0.16089 0.21624-0.38245 0.32552-0.66407 0.32552-0.11578 0-0.222-0.0218-0.31251-0.0694-0.0878-0.0478-0.15733-0.11594-0.21267-0.204-0.0429-0.0679-0.0736-0.17718-0.0911-0.32552-0.0178-0.15087-0.026-0.3984-0.026-0.73785 0-0.11567 1e-3 -0.34564 4e-3 -0.6901 2e-3 -0.347 4e-3 -0.63491 4e-3 -0.86372v-0.42101zm24.696 0 1.6623 4.2231h1.48l1.6623-4.2231h-1.3542l-1.046 2.9167-1.0547-2.9167zm35.608 0v1.4583h1.3585v-1.4583zm-52.756 0.80295c0.2414 0 0.4376 0.0803 0.58593 0.23872 0.15089 0.15588 0.22569 0.35985 0.22569 0.61632h-1.7535c0.0402-0.27658 0.14045-0.48785 0.30383-0.63368 0.16355-0.14836 0.37653-0.22136 0.63802-0.22136zm14.397 0.0781c0.2942 0 0.51686 0.10928 0.67275 0.32552 0.15578 0.21373 0.23438 0.51966 0.23438 0.92448 0 0.40483-0.0784 0.71692-0.23438 0.93316-0.156 0.21373-0.37858 0.32118-0.67275 0.32118-0.29923 0-0.52736-0.10747-0.68576-0.32118-0.156-0.21625-0.23438-0.52833-0.23438-0.93316 0-0.40482 0.0785-0.71076 0.23438-0.92448 0.15845-0.21625 0.38653-0.32552 0.68576-0.32552zm34.809 0.83767c0.26911 0 0.47305 0.0773 0.61631 0.22569 0.14334 0.14582 0.21711 0.35459 0.21711 0.63368 0 0.27659-0.0738 0.48967-0.21711 0.63802-0.14333 0.14583-0.34726 0.22136-0.61631 0.22136-0.2716 0-0.48358-0.0755-0.62935-0.22136-0.146-0.14835-0.21689-0.36143-0.21689-0.63802 0-0.27658 0.0711-0.48534 0.21689-0.63368 0.14577-0.14835 0.3578-0.22569 0.62935-0.22569zm13.832 0c0.26911 0 0.47304 0.0773 0.61631 0.22569 0.14333 0.14582 0.21711 0.35459 0.21711 0.63368 0 0.27659-0.0738 0.48967-0.21711 0.63802-0.14334 0.14583-0.34727 0.22136-0.61631 0.22136-0.27163 0-0.47923-0.0755-0.625-0.22136-0.14578-0.14835-0.22134-0.36143-0.22134-0.63802 0-0.27658 0.0756-0.48534 0.22134-0.63368 0.14577-0.14835 0.35344-0.22569 0.625-0.22569zm-10.282 1.046v1.4583h1.3585v-1.4583zm-16.458 9e-3v1.1502l-0.3776 1.4062h0.80296l0.93315-1.4062v-1.1502z" fill="#ffffff" stroke-width=".52666"/>
 <g transform="matrix(2.2222 0 0 2.2222 -293.33 40)">
  <rect x="174" y="2" width="64" height="80" rx="6" ry="6" fill="#000000" filter="url(#filter11441)" opacity=".35" stroke-linecap="round" stroke-linejoin="round" stroke-miterlimit="2" stroke-width="4.2237"/>
  <rect x="174" y="1" width="64" height="80" rx="6" ry="6" fill="#ffffff"/>
  <path d="m181.73 4.3655h2.0651v0.43674h-0.74292v1.8039h-0.57781v-1.8039h-0.7444z" fill="#263238" stroke-width=".25614"/>
  <path d="m183.72 5.9532v-1.0266h0.5403v0.16809q0 0.13658-2e-3 0.34369-2e-3 0.20561-2e-3 0.27466 0 0.2026 0.0104 0.29265 0.0106 0.08858 0.036 0.12908 0.033 0.052567 0.0856 0.081029 0.054 0.028559 0.12307 0.028559 0.16809 0 0.26414-0.12908 0.096-0.12907 0.096-0.3587v-0.82995h0.53729v1.6809h-0.53729v-0.24314q-0.12158 0.14708-0.25814 0.21762-0.13508 0.069025-0.29867 0.069025-0.29116 0-0.44425-0.1786-0.15158-0.17859-0.15158-0.51928z" fill="#263238" stroke-width=".25614"/>
  <path d="m187.6 5.7595v0.15308h-1.2562q0.0196 0.18911 0.13657 0.28366 0.11707 0.094582 0.32718 0.094582 0.16959 0 0.34668-0.049566 0.17861-0.051018 0.36621-0.15308v0.41423q-0.1906 0.072026-0.38121 0.10806-0.19061 0.037562-0.38121 0.037562-0.45625 0-0.70989-0.23113-0.25214-0.23262-0.25214-0.65135 0-0.41123 0.24764-0.64686 0.24914-0.23563 0.68437-0.23563 0.39622 0 0.63335 0.23863 0.23863 0.23863 0.23863 0.63785zm-0.5523-0.17859q0-0.15308-0.09-0.24614-0.0886-0.094582-0.23263-0.094582-0.15608 0-0.25364 0.08858-0.0975 0.087031-0.12156 0.25214z" fill="#263238" stroke-width=".25614"/>
  <path d="m189.32 4.9754v0.40822q-0.1726-0.072026-0.33319-0.10806-0.16058-0.036013-0.30316-0.036013-0.15309 0-0.22812 0.039014-0.0736 0.037562-0.0736 0.11706 0 0.064572 0.0556 0.099055 0.057 0.034561 0.20261 0.051018l0.0946 0.013553q0.41273 0.052567 0.55531 0.17259 0.14258 0.12006 0.14258 0.3767 0 0.26865-0.19811 0.40372-0.19811 0.13508-0.59133 0.13508-0.16659 0-0.34518-0.02701-0.1771-0.025461-0.3647-0.078028v-0.40822q0.16059 0.078028 0.32868 0.11706 0.16959 0.039014 0.34369 0.039014 0.15758 0 0.23712-0.043564 0.0796-0.043564 0.0796-0.12908 0-0.072026-0.0556-0.10656-0.054-0.036013-0.21762-0.055568l-0.0946-0.012004q-0.3587-0.045016-0.50278-0.16659-0.14408-0.12157-0.14408-0.3692 0-0.26715 0.18311-0.39622 0.18309-0.12908 0.56131-0.12908 0.14858 0 0.31217 0.022557 0.16358 0.02246 0.35569 0.070574z" fill="#263238" stroke-width=".25614"/>
  <path d="m190.98 5.169v-0.9005h0.5403v2.3353h-0.5403v-0.24314q-0.11106 0.14858-0.24464 0.21762-0.13357 0.069025-0.30917 0.069025-0.31067 0-0.51028-0.24614-0.19961-0.24764-0.19961-0.63634 0-0.38872 0.19961-0.63485 0.19961-0.24764 0.51028-0.24764 0.1741 0 0.30767 0.070574 0.13508 0.069025 0.24614 0.21612zm-0.3542 1.0881q0.17259 0 0.26264-0.12606 0.0916-0.12607 0.0916-0.3662t-0.0916-0.36621q-0.09-0.12606-0.26264-0.12606-0.17109 0-0.26264 0.12606-0.09 0.12607-0.09 0.36621 0 0.24012 0.09 0.3662 0.0916 0.12606 0.26264 0.12606z" fill="#263238" stroke-width=".25614"/>
  <path d="m192.79 5.8467q-0.16809 0-0.25364 0.05702-0.084 0.057021-0.084 0.1681 0 0.10206 0.0676 0.16059 0.069 0.057021 0.1906 0.057021 0.15159 0 0.25514-0.10806 0.10356-0.10956 0.10356-0.27316v-0.061571zm0.82095-0.20261v0.95903h-0.54179v-0.24914q-0.10806 0.15308-0.24313 0.22362-0.13508 0.069025-0.32868 0.069025-0.26114 0-0.42474-0.15158-0.16209-0.15308-0.16209-0.39622 0-0.29566 0.20261-0.43373 0.20412-0.13808 0.63936-0.13808h0.31667v-0.042015q0-0.12757-0.10055-0.1861-0.10056-0.060022-0.31367-0.060022-0.1726 0-0.32118 0.034561t-0.27616 0.10356v-0.40972q0.1726-0.042015 0.3467-0.063023 0.17409-0.022556 0.34819-0.022556 0.45475 0 0.65585 0.1801 0.20261 0.17859 0.20261 0.58232z" fill="#263238" stroke-width=".25614"/>
  <path d="m193.8 4.927h0.53729l0.45175 1.1406 0.38421-1.1406h0.53729l-0.70689 1.84q-0.10656 0.28066-0.24913 0.39172-0.14108 0.11256-0.37371 0.11256h-0.31067v-0.35269h0.1681q0.13657 0 0.1981-0.043564 0.063-0.043564 0.0976-0.15609l0.015-0.046565z" fill="#263238" stroke-width=".25614"/>
  <path d="m197.12 4.3655h0.64534l0.81495 1.5368v-1.5368h0.54781v2.2407h-0.64536l-0.81495-1.5368v1.5368h-0.54779z" fill="#263238" stroke-width=".25614"/>
  <path d="m200.47 5.2658q-0.1786 0-0.27315 0.12907-0.093 0.12757-0.093 0.36921 0 0.24163 0.093 0.3707 0.0946 0.12757 0.27315 0.12757 0.1756 0 0.26864-0.12757 0.093-0.12908 0.093-0.3707 0-0.24164-0.093-0.36921-0.093-0.12907-0.26864-0.12907zm0-0.38422q0.43374 0 0.67687 0.23413 0.24463 0.23412 0.24463 0.64836 0 0.41423-0.24463 0.64835-0.24313 0.23413-0.67687 0.23413-0.43524 0-0.68137-0.23413-0.24464-0.23412-0.24464-0.64835 0-0.41424 0.24464-0.64836 0.24613-0.23413 0.68137-0.23413z" fill="#263238" stroke-width=".25614"/>
  <path d="m201.56 4.927h0.53729l0.41873 1.1616 0.41722-1.1616h0.5388l-0.66186 1.6809h-0.58983z" fill="#263238" stroke-width=".25614"/>
  <path d="m205.45 5.7595v0.15308h-1.2562q0.0196 0.18911 0.13658 0.28366 0.11706 0.094582 0.32717 0.094582 0.16959 0 0.34669-0.049566 0.1786-0.051018 0.3662-0.15308v0.41423q-0.1906 0.072026-0.3812 0.10806-0.19061 0.037562-0.38122 0.037562-0.45625 0-0.70989-0.23113-0.25214-0.23262-0.25214-0.65135 0-0.41123 0.24764-0.64686 0.24914-0.23563 0.68438-0.23563 0.39621 0 0.63335 0.23863 0.23863 0.23863 0.23863 0.63785zm-0.5523-0.17859q0-0.15308-0.09-0.24614-0.0886-0.094582-0.23263-0.094582-0.15608 0-0.25363 0.08858-0.0976 0.087031-0.12157 0.25214z" fill="#263238" stroke-width=".25614"/>
  <path d="m207.42 5.2077q0.10206-0.15609 0.24164-0.23713 0.14107-0.082578 0.30917-0.082578 0.28965 0 0.44123 0.1786 0.15159 0.17859 0.15159 0.51928v1.0236h-0.54029v-0.87648q2e-3 -0.019555 2e-3 -0.040563 2e-3 -0.021008 2e-3 -0.060022 0-0.1786-0.0526-0.25814-0.0526-0.081029-0.1696-0.081029-0.15308 0-0.23712 0.12607-0.0826 0.12606-0.0856 0.3647v0.82545h-0.54029v-0.87648q0-0.27916-0.048-0.3587-0.048-0.081029-0.1711-0.081029-0.15458 0-0.23862 0.12757-0.084 0.12606-0.084 0.3617v0.82695h-0.54031v-1.6809h0.54031v0.24614q0.0991-0.14258 0.22662-0.21462 0.12907-0.072026 0.28366-0.072026 0.17409 0 0.30766 0.08403 0.13358 0.08403 0.20262 0.23563z" fill="#263238" stroke-width=".25614"/>
  <path d="m209.96 6.263q0.17259 0 0.26264-0.12606 0.0916-0.12607 0.0916-0.3662t-0.0916-0.36621q-0.09-0.12606-0.26264-0.12606-0.1726 0-0.26565 0.12757-0.0916 0.12607-0.0916 0.36471 0 0.23862 0.0916 0.3662 0.093 0.12606 0.26565 0.12606zm-0.3572-1.0881q0.11106-0.14708 0.24613-0.21612 0.13508-0.070574 0.31067-0.070574 0.31068 0 0.51028 0.24764 0.19961 0.24614 0.19961 0.63485t-0.19961 0.63634q-0.1996 0.24614-0.51028 0.24614-0.17559 0-0.31067-0.069025-0.13507-0.070574-0.24613-0.21762v0.24314h-0.5373v-2.3353h0.5373z" fill="#263238" stroke-width=".25614"/>
  <path d="m212.94 5.7595v0.15308h-1.2562q0.0196 0.18911 0.13658 0.28366 0.11706 0.094582 0.32718 0.094582 0.1696 0 0.34669-0.049566 0.17859-0.051018 0.3662-0.15308v0.41423q-0.19061 0.072026-0.38121 0.10806-0.1906 0.037562-0.38121 0.037562-0.45625 0-0.70989-0.23113-0.25214-0.23262-0.25214-0.65135 0-0.41123 0.24764-0.64686 0.24914-0.23563 0.68438-0.23563 0.39621 0 0.63334 0.23863 0.23864 0.23863 0.23864 0.63785zm-0.55231-0.17859q0-0.15308-0.09-0.24614-0.0886-0.094582-0.23262-0.094582-0.15609 0-0.25364 0.08858-0.0976 0.087031-0.12157 0.25214z" fill="#263238" stroke-width=".25614"/>
  <path d="m214.6 5.382q-0.0706-0.033012-0.14108-0.048017-0.069-0.016458-0.13957-0.016458-0.20711 0-0.31968 0.13357-0.11106 0.13208-0.11106 0.37971v0.77442h-0.53729v-1.6809h0.53729v0.27616q0.10356-0.1651 0.23713-0.24013 0.13508-0.076576 0.32268-0.076576 0.027 0 0.0586 0.0029 0.0316 0.00194 0.0916 0.00871z" fill="#263238" stroke-width=".25614"/>
  <path d="m216.03 6.2049h0.51028v-1.4483l-0.52378 0.10806v-0.39322l0.52078-0.10806h0.54931v1.8415h0.51028v0.39922h-1.5669z" fill="#263238" stroke-width=".25614"/>
  <path d="m218.95 4.8399-0.63335 0.93801h0.63335zm-0.096-0.47577h0.64236v1.4138h0.31967v0.41873h-0.31967v0.40822h-0.54631v-0.40822h-0.99355v-0.49527z" fill="#263238" stroke-width=".25614"/>
  <path d="m220.27 6.0209h0.54029v0.45775l-0.3707 0.5598h-0.31967l0.15008-0.5598z" fill="#263238" stroke-width=".25614"/>
  <path d="m223.08 6.1855h0.9861v0.42473h-1.6284v-0.42473l0.81795-0.7219q0.10956-0.099055 0.16209-0.19361 0.0526-0.094582 0.0526-0.19661 0-0.15759-0.10656-0.25364-0.10506-0.096035-0.28065-0.096035-0.13508 0-0.29567 0.058569-0.16058 0.057021-0.34369 0.1711v-0.49227q0.19511-0.064572 0.38572-0.097554 0.1906-0.034561 0.3737-0.034561 0.40222 0 0.62434 0.1771 0.22362 0.17709 0.22362 0.49377 0 0.18309-0.0946 0.34218-0.0946 0.15759-0.39772 0.42323z" fill="#263238" stroke-width=".25614"/>
  <path d="m225.74 5.4788q0-0.42023-0.0796-0.59132-0.078-0.1726-0.26414-0.1726-0.18611 0-0.26565 0.1726-0.0796 0.17109-0.0796 0.59132 0 0.42473 0.0796 0.59883 0.0796 0.17409 0.26565 0.17409 0.18459 0 0.26414-0.17409 0.0796-0.1741 0.0796-0.59883zm0.57781 0.00484q0 0.55681-0.24013 0.85997-0.24014 0.30167-0.68137 0.30167-0.44275 0-0.68289-0.30167-0.24012-0.30317-0.24012-0.85997 0-0.55831 0.24012-0.85997 0.24014-0.30317 0.68289-0.30317 0.44123 0 0.68137 0.30317 0.24013 0.30167 0.24013 0.85997z" fill="#263238" stroke-width=".25614"/>
  <path d="m226.83 6.2049h0.51028v-1.4483l-0.5238 0.10806v-0.39322l0.5208-0.10806h0.54929v1.8415h0.51028v0.39922h-1.5668z" fill="#263238" stroke-width=".25614"/>
  <path d="m228.81 4.3655h1.6884v0.32568l-0.87348 1.9151h-0.56281l0.82695-1.8159h-1.0791z" fill="#263238" stroke-width=".25614"/>
  <path d="m187.11 11.646h0.40822l0.99355 1.8745v-1.8745h0.29416v2.2407h-0.40822l-0.99355-1.8745v1.8745h-0.29416z" fill="#263238" stroke-width=".25614"/>
  <path d="m190.05 12.401q-0.22212 0-0.35119 0.1741-0.12907 0.17259-0.12907 0.47426t0.12757 0.47576q0.12907 0.1726 0.35269 0.1726 0.22063 0 0.34969-0.1741 0.12908-0.17409 0.12908-0.47426 0-0.29867-0.12908-0.47276-0.12906-0.1756-0.34969-0.1756zm0-0.23412q0.36021 0 0.56582 0.23412 0.20561 0.23413 0.20561 0.64836 0 0.41272-0.20561 0.64836-0.20561 0.23412-0.56582 0.23412-0.3617 0-0.56731-0.23412-0.20411-0.23563-0.20411-0.64836 0-0.41423 0.20411-0.64836 0.20561-0.23412 0.56731-0.23412z" fill="#263238" stroke-width=".25614"/>
  <path d="m191.09 12.207h0.29265l0.52529 1.4108 0.52529-1.4108h0.29266l-0.63035 1.6809h-0.3752z" fill="#263238" stroke-width=".25614"/>
  <path d="m194.53 12.972v0.13507h-1.2698q0.018 0.28516 0.1711 0.43524 0.15458 0.14858 0.42923 0.14858 0.15909 0 0.30767-0.03901 0.15008-0.03901 0.29716-0.11706v0.26114q-0.14858 0.06302-0.30466 0.09604-0.15609 0.03301-0.31668 0.03301-0.40222 0-0.63785-0.23412-0.23412-0.23413-0.23412-0.63335 0-0.41272 0.22212-0.65435 0.22361-0.24314 0.60183-0.24314 0.33918 0 0.53579 0.21912 0.19811 0.21762 0.19811 0.59283zm-0.27615-0.08103q-3e-3 -0.22662-0.12758-0.3617-0.12306-0.13508-0.32717-0.13508-0.23113 0-0.3707 0.13058-0.13808 0.13057-0.1591 0.3677z" fill="#263238" stroke-width=".25614"/>
  <path d="m196.29 12.526q0.10356-0.1861 0.24764-0.27465 0.14408-0.08858 0.33919-0.08858 0.26264 0 0.40522 0.1846 0.14258 0.1831 0.14258 0.5223v1.0146h-0.27766v-1.0056q0-0.24164-0.0856-0.3587-0.0856-0.11707-0.26114-0.11707-0.21462 0-0.33918 0.14258-0.12457 0.14258-0.12457 0.38872v0.95002h-0.27765v-1.0056q0-0.24314-0.0856-0.3587-0.0856-0.11707-0.26414-0.11707-0.21162 0-0.33618 0.14408-0.12458 0.14258-0.12458 0.38722v0.95002h-0.27764v-1.6809h0.27764v0.26114q0.0946-0.15458 0.22663-0.22813 0.13207-0.07357 0.31367-0.07357 0.1831 0 0.31067 0.09303 0.12907 0.09303 0.1906 0.27015z" fill="#263238" stroke-width=".25614"/>
  <path d="m199.19 13.049q0-0.30467-0.12608-0.47726-0.12456-0.1741-0.34368-0.1741t-0.34519 0.1741q-0.12456 0.17259-0.12456 0.47726t0.12456 0.47876q0.12607 0.1726 0.34519 0.1726t0.34368-0.1726q0.12608-0.17409 0.12608-0.47876zm-0.93951-0.58682q0.087-0.15008 0.21911-0.22213 0.13357-0.07357 0.31818-0.07357 0.30616 0 0.49677 0.24314 0.1921 0.24313 0.1921 0.63935t-0.1921 0.63936q-0.19061 0.24313-0.49677 0.24313-0.18461 0-0.31818-0.07203-0.13207-0.07357-0.21911-0.22363v0.25214h-0.27766v-2.3352h0.27766z" fill="#263238" stroke-width=".25614"/>
  <path d="m201.38 12.972v0.13507h-1.2696q0.018 0.28516 0.17109 0.43524 0.15459 0.14858 0.42923 0.14858 0.1591 0 0.30767-0.03901 0.15009-0.03901 0.29717-0.11706v0.26114q-0.14858 0.06302-0.30467 0.09604-0.15608 0.03301-0.31667 0.03301-0.40222 0-0.63785-0.23412-0.23413-0.23413-0.23413-0.63335 0-0.41272 0.22212-0.65435 0.22363-0.24314 0.60183-0.24314 0.33919 0 0.5358 0.21912 0.1981 0.21762 0.1981 0.59283zm-0.27615-0.08103q-3e-3 -0.22662-0.12756-0.3617-0.12307-0.13508-0.32719-0.13508-0.23112 0-0.3707 0.13058-0.13808 0.13057-0.15908 0.3677z" fill="#263238" stroke-width=".25614"/>
  <path d="m202.8 12.459q-0.0466-0.02701-0.10205-0.03901-0.054-0.01346-0.12006-0.01346-0.23414 0-0.3602 0.15308-0.12457 0.15158-0.12457 0.43673v0.88548h-0.27765v-1.6809h0.27765v0.26114q0.087-0.15308 0.22662-0.22663 0.13958-0.07503 0.33919-0.07503 0.0285 0 0.063 0.0048 0.0345 0.0029 0.0766 0.01046z" fill="#263238" stroke-width=".25614"/>
  <path d="m218.88 13.882h-1.3688v-0.24012l0.52829-0.56431q0.32418-0.34819 0.39621-0.50428 0.084-0.15608 0.084-0.32418t-0.096-0.26415q-0.096-0.09603-0.26414-0.09603-0.24014 0-0.46826 0.2041l-0.15608-0.18009q0.28816-0.25214 0.63634-0.25214 0.28816 0 0.45625 0.15608 0.16809 0.15609 0.16809 0.42023 0 0.19211-0.10806 0.38422-0.096 0.19211-0.42023 0.5523l-0.42022 0.44424v0.012h1.0326z" fill="#263238" stroke-width=".25614"/>
  <path d="m219.21 12.778q0-0.56431 0.1681-0.84047 0.18009-0.28815 0.52829-0.28815 0.36019 0 0.52828 0.28815 0.18011 0.27616 0.18011 0.84047t-0.18011 0.85246q-0.16809 0.27616-0.52828 0.27616-0.3482 0-0.52829-0.27616-0.1681-0.28815-0.1681-0.85246zm1.1286 0q0-0.50428-0.12006-0.69639-0.10806-0.1921-0.31217-0.1921-0.19211 0-0.31217 0.1921-0.10806 0.1801-0.10806 0.69639 0 0.52829 0.10806 0.72039 0.12006 0.18009 0.31217 0.18009 0.20411 0 0.31217-0.1921 0.12006-0.19211 0.12006-0.70839z" fill="#263238" stroke-width=".25614"/>
  <path d="m221.82 13.882h-0.26415v-1.3688q0-0.28816 0.012-0.5403l-0.40822 0.34819-0.14408-0.1801 0.57631-0.45624h0.22813z" fill="#263238" stroke-width=".25614"/>
  <path d="m222.87 13.882 0.85247-1.9451h-1.1406v-0.25213h1.4168v0.21612l-0.84046 1.9811z" fill="#263238" stroke-width=".25614"/>
  <path d="m183.01 14.182-1.2807-1.2807 1.2807-1.2807z" fill="#263238" fill-opacity=".87" stroke-width=".96809"/>
  <path d="m206.06 14.182 1.2807-1.2807-1.2807-1.2807z" fill="#263238" fill-opacity=".87" stroke-width=".96809"/>
  <path d="m213.5 14.182-1.2807-1.2807 1.2807-1.2807z" fill="#263238" fill-opacity=".87" stroke-width=".96809"/>
  <path d="m229.12 14.182 1.2807-1.2807-1.2807-1.2807z" fill="#263238" fill-opacity=".87" stroke-width=".96809"/>
  <path d="m183.11 27.638h-1.2167v-0.21345l0.46959-0.50161q0.28815-0.3095 0.35219-0.44824 0.0747-0.13875 0.0747-0.28816t-0.0854-0.23479q-0.0854-0.08539-0.23479-0.08539-0.21345 0-0.41623 0.18144l-0.13875-0.16009q0.25615-0.22412 0.56565-0.22412 0.25615 0 0.40556 0.13875 0.14942 0.13874 0.14942 0.37354 0 0.17076-0.096 0.34152-0.0854 0.17076-0.37354 0.49094l-0.37353 0.39488v0.01065h0.91783z" fill="#263238" fill-opacity=".54" stroke-width=".25614"/>
  <path d="m183.56 27.638v-0.20278q0.096 0.03204 0.22412 0.03204 0.58699 0 0.60833-0.78977h-0.0106q-0.12807 0.2348-0.41623 0.2348-0.25614 0-0.40555-0.16009-0.14942-0.16008-0.14942-0.43757 0-0.30951 0.16008-0.48027 0.17077-0.17076 0.43758-0.17076 0.27748 0 0.45891 0.22412 0.18144 0.21345 0.18144 0.62968 0 0.57631-0.21345 0.86448-0.21346 0.27748-0.64035 0.27748-0.14942 0-0.23479-0.0214zm0.43756-0.91784q0.17076 0 0.28816-0.10672 0.1174-0.10673 0.1174-0.25615 0-0.21344-0.1174-0.35219t-0.27748-0.13875q-0.18143 0-0.27748 0.1174-0.0854 0.10672-0.0854 0.33085 0 0.20278 0.0854 0.3095 0.096 0.09603 0.2668 0.09603z" fill="#263238" fill-opacity=".54" stroke-width=".25614"/>
  <path d="m182.69 34.909v-0.23479q0.1921 0.12807 0.49094 0.12807 0.21345 0 0.32017-0.10672 0.1174-0.10673 0.1174-0.30951t-0.1174-0.29883q-0.10672-0.09604-0.34151-0.09604-0.1174 0-0.29883 0.03204l-0.12808-0.07474 0.0747-0.91784h0.91784v0.22412h-0.70438l-0.0533 0.55498q0.13873-0.02139 0.27748-0.02139 0.28816 0 0.45892 0.16008 0.17076 0.14942 0.17076 0.40556 0 0.3095-0.18143 0.48026t-0.52296 0.17076q-0.29883 0-0.48026-0.09603z" fill="#263238" stroke-width=".25614"/>
  <path d="m182.72 42.324h-0.2348v-1.2167q0-0.25614 0.0106-0.48026l-0.36287 0.3095-0.12807-0.16008 0.51228-0.40555h0.20278z" fill="#263238" stroke-width=".25614"/>
  <path d="m184.62 42.324h-1.2167v-0.21344l0.46959-0.50161q0.28816-0.30951 0.35219-0.44826 0.0747-0.13874 0.0747-0.28815t-0.0854-0.2348q-0.0854-0.08539-0.23479-0.08539-0.21345 0-0.41623 0.18143l-0.13875-0.16008q0.25615-0.22412 0.56565-0.22412 0.25614 0 0.40555 0.13874 0.14942 0.13875 0.14942 0.37354 0 0.17076-0.096 0.34152-0.0854 0.17076-0.37354 0.49094l-0.37354 0.39488v0.01065h0.91783z" fill="#263238" stroke-width=".25614"/>
  <path d="m182.72 49.662h-0.2348v-1.2167q0-0.25615 0.0106-0.48027l-0.36287 0.30951-0.12807-0.16009 0.51228-0.40555h0.20278z" fill="#263238" stroke-width=".25614"/>
  <path d="m183.56 49.662v-0.20279q0.096 0.03204 0.22412 0.03204 0.58699 0 0.60833-0.78977h-0.0106q-0.12807 0.23479-0.41623 0.23479-0.25614 0-0.40555-0.16008-0.14942-0.16009-0.14942-0.43758 0-0.3095 0.16008-0.48026 0.17077-0.17076 0.43758-0.17076 0.27748 0 0.45891 0.22412 0.18144 0.21345 0.18144 0.62968 0 0.57632-0.21345 0.86448-0.21346 0.27748-0.64035 0.27748-0.14942 0-0.23479-0.0213zm0.43756-0.91784q0.17076 0 0.28816-0.10673 0.1174-0.10672 0.1174-0.25614 0-0.21345-0.1174-0.35219-0.1174-0.13875-0.27748-0.13875-0.18143 0-0.27748 0.1174-0.0854 0.10672-0.0854 0.33084 0 0.20278 0.0854 0.30951 0.096 0.09604 0.2668 0.09604z" fill="#263238" stroke-width=".25614"/>
  <path d="m183.11 57.01h-1.2167v-0.21345l0.46959-0.50161q0.28815-0.30951 0.35219-0.44824 0.0747-0.13875 0.0747-0.28816t-0.0854-0.23479q-0.0854-0.08539-0.23479-0.08539-0.21345 0-0.41623 0.18144l-0.13875-0.16009q0.25615-0.22412 0.56565-0.22412 0.25615 0 0.40556 0.13875 0.14942 0.13874 0.14942 0.37354 0 0.17076-0.096 0.34152-0.0854 0.17076-0.37354 0.49093l-0.37353 0.39488v0.01065h0.91783z" fill="#263238" stroke-width=".25614"/>
  <path d="m184.51 55.055v0.20278q-0.096-0.03204-0.22412-0.03204-0.59766 0-0.619 0.78977h0.0213q0.12807-0.22412 0.40556-0.22412 0.25614 0 0.40556 0.16008 0.14941 0.14942 0.14941 0.4269 0 0.30951-0.16009 0.48027-0.16008 0.17076-0.4269 0.17076-0.28816 0-0.46959-0.21346-0.17076-0.22412-0.17076-0.64035 0-0.57631 0.21345-0.8538 0.21345-0.28816 0.64035-0.28816 0.13874 0 0.2348 0.0213zm-0.44824 0.91784q-0.17076 0-0.28816 0.1174-0.10672 0.10672-0.10672 0.24547 0 0.21344 0.10672 0.35219 0.1174 0.13875 0.28816 0.13875t0.25614-0.10673q0.096-0.1174 0.096-0.34152 0-0.20278-0.0854-0.29883-0.0854-0.10672-0.26682-0.10672z" fill="#263238" stroke-width=".25614"/>
  <path d="m183.38 63.322q0.48026 0.06399 0.48026 0.46959 0 0.26681-0.18143 0.4269-0.18144 0.14942-0.53363 0.14942-0.33085 0-0.52295-0.09604v-0.23479q0.24546 0.12807 0.51228 0.12807 0.23479 0 0.35219-0.09604 0.1174-0.09603 0.1174-0.28816 0-0.17076-0.12807-0.25614-0.1174-0.08539-0.37354-0.08539h-0.18143v-0.20278h0.18143q0.21345 0 0.33085-0.09604 0.1174-0.10672 0.1174-0.27748 0-0.12807-0.096-0.20278-0.0854-0.08539-0.2348-0.08539-0.24547 0-0.45892 0.16008l-0.12807-0.17076q0.24546-0.19211 0.58699-0.19211 0.27748 0 0.42689 0.13875 0.14942 0.12807 0.14942 0.34152 0 0.3842-0.41622 0.46959z" fill="#263238" fill-opacity=".54" stroke-width=".25614"/>
  <path d="m190.31 26.651q0.48026 0.06399 0.48026 0.46959 0 0.26682-0.18143 0.4269-0.18144 0.14942-0.53363 0.14942-0.33084 0-0.52295-0.09603v-0.2348q0.24547 0.12807 0.51228 0.12807 0.2348 0 0.3522-0.09604 0.1174-0.09603 0.1174-0.28816 0-0.17076-0.12808-0.25614-0.11739-0.08538-0.37354-0.08538h-0.18143v-0.20279h0.18143q0.21345 0 0.33085-0.09604 0.1174-0.10673 0.1174-0.27749 0-0.12807-0.096-0.20278-0.0854-0.08539-0.2348-0.08539-0.24547 0-0.45891 0.16008l-0.12808-0.17076q0.24547-0.1921 0.58699-0.1921 0.27748 0 0.4269 0.13874 0.14941 0.12807 0.14941 0.34152 0 0.38421-0.41622 0.46959z" fill="#263238" fill-opacity=".54" stroke-width=".25614"/>
  <path d="m191.09 26.69q0-0.50162 0.14941-0.74708 0.16008-0.25614 0.46959-0.25614 0.32017 0 0.46958 0.25614 0.1601 0.24547 0.1601 0.74708t-0.1601 0.75774q-0.14941 0.24547-0.46958 0.24547-0.30951 0-0.46959-0.24547-0.14941-0.25614-0.14941-0.75774zm1.0032 0q0-0.44824-0.10673-0.61901-0.096-0.17076-0.27748-0.17076-0.17076 0-0.27749 0.17076-0.096 0.16008-0.096 0.61901 0 0.46959 0.096 0.64034 0.10673 0.16009 0.27749 0.16009 0.18143 0 0.27748-0.17076 0.10673-0.17076 0.10673-0.62968z" fill="#263238" fill-opacity=".54" stroke-width=".25614"/>
  <path d="m191.44 33.069v0.20278q-0.096-0.03204-0.22412-0.03204-0.59766 0-0.61901 0.78976h0.0214q0.12807-0.22412 0.40556-0.22412 0.25614 0 0.40556 0.16009 0.14941 0.14942 0.14941 0.4269 0 0.30951-0.16009 0.48026-0.16008 0.17076-0.4269 0.17076-0.28816 0-0.46959-0.21344-0.17076-0.22412-0.17076-0.64035 0-0.57631 0.21345-0.85381 0.21345-0.28815 0.64036-0.28815 0.13873 0 0.23479 0.0213zm-0.44825 0.91784q-0.17076 0-0.28816 0.11739-0.10672 0.10673-0.10672 0.24547 0 0.21345 0.10672 0.3522 0.1174 0.13874 0.28816 0.13874t0.25614-0.10672q0.096-0.1174 0.096-0.34152 0-0.20278-0.0854-0.29883-0.0854-0.10672-0.26682-0.10672z" fill="#263238" stroke-width=".25614"/>
  <path d="m190.4 42.363h-0.23479v-1.2167q0-0.25615 0.0106-0.48027l-0.36287 0.30951-0.12807-0.16009 0.51229-0.40555h0.20277z" fill="#263238" stroke-width=".25614"/>
  <path d="m191.82 41.337q0.48027 0.06399 0.48027 0.46959 0 0.26682-0.18144 0.4269-0.18143 0.14942-0.53362 0.14942-0.33085 0-0.52295-0.09603v-0.2348q0.24547 0.12807 0.51227 0.12807 0.23481 0 0.35221-0.09603 0.11739-0.09603 0.11739-0.28815 0-0.17076-0.12807-0.25615-0.1174-0.08539-0.37354-0.08539h-0.18143v-0.20278h0.18143q0.21345 0 0.33084-0.09604 0.11741-0.10672 0.11741-0.27748 0-0.12807-0.096-0.20278-0.0854-0.08539-0.23479-0.08539-0.24547 0-0.45892 0.16009l-0.12807-0.17076q0.24547-0.19211 0.58699-0.19211 0.27748 0 0.4269 0.13875 0.14941 0.12807 0.14941 0.34151 0 0.38422-0.41623 0.46959z" fill="#263238" stroke-width=".25614"/>
  <path d="m190.8 49.701h-1.2167v-0.21345l0.46959-0.50161q0.28816-0.3095 0.3522-0.44824 0.0747-0.13875 0.0747-0.28816t-0.0854-0.23479q-0.0854-0.08539-0.2348-0.08539-0.21346 0-0.41623 0.18144l-0.13874-0.16009q0.25614-0.22412 0.56564-0.22412 0.25614 0 0.40556 0.13875 0.14941 0.13874 0.14941 0.37354 0 0.17076-0.096 0.34152-0.0854 0.17076-0.37354 0.49093l-0.37354 0.39488v0.01065h0.91784z" fill="#263238" stroke-width=".25614"/>
  <path d="m191.09 48.723q0-0.50161 0.14941-0.74708 0.16008-0.25614 0.46959-0.25614 0.32017 0 0.46958 0.25614 0.1601 0.24547 0.1601 0.74708t-0.1601 0.75775q-0.14941 0.24547-0.46958 0.24547-0.30951 0-0.46959-0.24547-0.14941-0.25615-0.14941-0.75775zm1.0032 0q0-0.44824-0.10673-0.61901-0.096-0.17076-0.27748-0.17076-0.17076 0-0.27749 0.17076-0.096 0.16009-0.096 0.61901 0 0.46959 0.096 0.64035 0.10673 0.16009 0.27749 0.16009 0.18143 0 0.27748-0.17076 0.10673-0.17076 0.10673-0.62968z" fill="#263238" stroke-width=".25614"/>
  <path d="m190.8 57.049h-1.2167v-0.21345l0.46959-0.50161q0.28816-0.3095 0.3522-0.44824 0.0747-0.13874 0.0747-0.28815t-0.0854-0.2348q-0.0854-0.08539-0.2348-0.08539-0.21346 0-0.41623 0.18143l-0.13874-0.16009q0.25614-0.22412 0.56564-0.22412 0.25614 0 0.40556 0.13875 0.14941 0.13875 0.14941 0.37354 0 0.17076-0.096 0.34152-0.0854 0.17076-0.37354 0.49094l-0.37354 0.39488v0.01065h0.91784z" fill="#263238" stroke-width=".25614"/>
  <path d="m191.33 57.049 0.75775-1.7289h-1.0139v-0.22412h1.2594v0.19211l-0.74708 1.761z" fill="#263238" stroke-width=".25614"/>
  <path d="m191.66 63.951h-0.28816v0.43757h-0.23479v-0.43757h-0.8965v-0.21345l0.88582-1.3127h0.24547v1.3021h0.28816zm-0.52295-0.22412v-0.46959q0-0.2348 0.0213-0.57632h-0.0106q-0.0533 0.13875-0.1174 0.2348l-0.55496 0.81112z" fill="#263238" fill-opacity=".54" stroke-width=".25614"/>
  <path d="m202.23 41.337a3.586 3.586 0 0 1-3.586 3.586 3.586 3.586 0 0 1-3.586-3.586 3.586 3.586 0 0 1 3.586-3.586 3.586 3.586 0 0 1 3.586 3.586z" fill="#3c84f7" fill-rule="evenodd" stroke-width=".96809"/>
  <path d="m198 26.612q0.48026 0.06399 0.48026 0.46959 0 0.26681-0.18143 0.4269-0.18144 0.14942-0.53363 0.14942-0.33085 0-0.52296-0.09604v-0.2348q0.24547 0.12808 0.51229 0.12808 0.23479 0 0.35219-0.09603 0.1174-0.09604 0.1174-0.28816 0-0.17076-0.12808-0.25614-0.11739-0.08539-0.37354-0.08539h-0.18143v-0.20277h0.18143q0.21346 0 0.33086-0.09604 0.11739-0.10672 0.11739-0.27748 0-0.12807-0.096-0.20278-0.0854-0.08539-0.23481-0.08539-0.24546 0-0.45891 0.16009l-0.12808-0.17076q0.24547-0.19211 0.58699-0.19211 0.27749 0 0.4269 0.13875 0.14942 0.12807 0.14942 0.34152 0 0.38421-0.41622 0.46959z" fill="#263238" fill-opacity=".54" stroke-width=".25614"/>
  <path d="m199.59 27.638h-0.23481v-1.2167q0-0.25614 0.0106-0.48027l-0.36287 0.30951-0.12806-0.16009 0.51228-0.40555h0.20278z" fill="#263238" fill-opacity=".54" stroke-width=".25614"/>
  <path d="m198.26 34.977 0.75776-1.7289h-1.0139v-0.22412h1.2594v0.19211l-0.74708 1.761z" fill="#263238" stroke-width=".25614"/>
  <path d="m198.08 42.324h-0.23479v-1.2167q0-0.25614 0.0106-0.48026l-0.36287 0.3095-0.12806-0.16008 0.51228-0.40555h0.20278z" fill="#ffffff" stroke-width=".25614"/>
  <path d="m200.09 41.889h-0.28816v0.43757h-0.23479v-0.43757h-0.89649v-0.21345l0.88581-1.3127h0.24547v1.3021h0.28816zm-0.52295-0.22412v-0.46959q0-0.2348 0.0214-0.57632h-0.0106q-0.0533 0.13875-0.1174 0.2348l-0.55497 0.81111z" fill="#ffffff" stroke-width=".25614"/>
  <path d="m198.48 49.662h-1.2167v-0.21345l0.46959-0.50161q0.28815-0.30951 0.35219-0.44824 0.0747-0.13875 0.0747-0.28816t-0.0854-0.23479q-0.0854-0.08539-0.2348-0.08539-0.21345 0-0.41623 0.18143l-0.13874-0.16008q0.25614-0.22412 0.56565-0.22412 0.25614 0 0.40555 0.13875 0.14942 0.13874 0.14942 0.37354 0 0.17075-0.096 0.34151-0.0854 0.17076-0.37354 0.49094l-0.37353 0.39488v0.01065h0.91783z" fill="#263238" stroke-width=".25614"/>
  <path d="m199.59 49.662h-0.23481v-1.2167q0-0.25615 0.0106-0.48027l-0.36287 0.30951-0.12806-0.16009 0.51228-0.40555h0.20278z" fill="#263238" stroke-width=".25614"/>
  <path d="m198.48 57.01h-1.2167v-0.21345l0.46959-0.50161q0.28815-0.30951 0.35219-0.44824 0.0747-0.13875 0.0747-0.28816t-0.0854-0.23479q-0.0854-0.08539-0.2348-0.08539-0.21345 0-0.41623 0.18144l-0.13874-0.16009q0.25614-0.22412 0.56565-0.22412 0.25614 0 0.40555 0.13875 0.14942 0.13874 0.14942 0.37354 0 0.17076-0.096 0.34152-0.0854 0.17076-0.37354 0.49093l-0.37353 0.39488v0.01065h0.91783z" fill="#263238" stroke-width=".25614"/>
  <path d="m199.59 55.974q0.41623 0.22412 0.41623 0.52295 0 0.2348-0.17077 0.38422-0.16009 0.14942-0.43757 0.14942-0.29883 0-0.45893-0.13875-0.16008-0.13875-0.16008-0.38421 0-0.34152 0.38422-0.52296-0.32018-0.1921-0.32018-0.49093 0-0.20278 0.14942-0.33086 0.14941-0.13874 0.40555-0.13874 0.24547 0 0.39488 0.13874 0.14942 0.12808 0.14942 0.33086 0 0.3095-0.35219 0.48026zm-0.19211-0.09603q0.3095-0.13874 0.3095-0.37354 0-0.13874-0.0854-0.20278-0.0747-0.07474-0.23479-0.07474-0.14942 0-0.22412 0.07474-0.0747 0.06399-0.0747 0.20278 0 0.2348 0.30951 0.37354zm-0.0427 0.20278q-0.33084 0.16009-0.33084 0.43758 0 0.16008 0.0854 0.24547 0.096 0.07474 0.27749 0.07474 0.1921 0 0.28815-0.08539 0.096-0.08539 0.096-0.24546 0-0.1174-0.0747-0.20278-0.0747-0.09604-0.29883-0.20278z" fill="#263238" stroke-width=".25614"/>
  <path d="m198.06 64.271v-0.23479q0.19211 0.12807 0.49094 0.12807 0.21345 0 0.32018-0.10673 0.11739-0.10672 0.11739-0.3095t-0.11739-0.29883q-0.10673-0.09603-0.34153-0.09603-0.1174 0-0.29883 0.03204l-0.12806-0.07474 0.0747-0.91784h0.91784v0.22412h-0.70439l-0.0533 0.55498q0.13874-0.0213 0.27748-0.0213 0.28816 0 0.45892 0.16008 0.17076 0.14942 0.17076 0.40556 0 0.3095-0.18144 0.48026-0.18143 0.17076-0.52295 0.17076-0.29883 0-0.48026-0.09603z" fill="#263238" fill-opacity=".54" stroke-width=".25614"/>
  <path d="m206.53 27.638h-0.23479v-1.2167q0-0.25614 0.0106-0.48027l-0.36286 0.30951-0.12807-0.16009 0.51228-0.40555h0.20277z" fill="#263238" stroke-width=".25614"/>
  <path d="m206.53 33.941q0.41623 0.22412 0.41623 0.52295 0 0.2348-0.17076 0.38422-0.16008 0.14942-0.43757 0.14942-0.29883 0-0.45892-0.13875-0.16008-0.13874-0.16008-0.38421 0-0.34152 0.3842-0.52295-0.32017-0.19211-0.32017-0.49094 0-0.20278 0.14941-0.33084 0.14942-0.13875 0.40556-0.13875 0.24547 0 0.39489 0.13875 0.14941 0.12807 0.14941 0.33084 0 0.3095-0.3522 0.48026zm-0.1921-0.09603q0.3095-0.13875 0.3095-0.37355 0-0.13874-0.0854-0.20278-0.0747-0.07474-0.23481-0.07474-0.14941 0-0.22412 0.07474-0.0747 0.06399-0.0747 0.20278 0 0.2348 0.3095 0.37355zm-0.0427 0.20278q-0.33084 0.16008-0.33084 0.43757 0 0.16009 0.0854 0.24547 0.096 0.07474 0.27748 0.07474 0.19211 0 0.28817-0.08539 0.096-0.08539 0.096-0.24547 0-0.1174-0.0747-0.20278-0.0747-0.09604-0.29883-0.20278z" fill="#263238" stroke-width=".25614"/>
  <path d="m205.77 42.324h-0.23479v-1.2167q0-0.25614 0.0106-0.48026l-0.36287 0.3095-0.12807-0.16008 0.51229-0.40555h0.20277z" fill="#263238" stroke-width=".25614"/>
  <path d="m206.5 42.247v-0.23479q0.19211 0.12807 0.49094 0.12807 0.21345 0 0.32017-0.10672 0.1174-0.10673 0.1174-0.30951t-0.1174-0.29883q-0.10672-0.09604-0.34152-0.09604-0.11739 0-0.29883 0.03204l-0.12807-0.07474 0.0747-0.91784h0.91783v0.22412h-0.70438l-0.0533 0.55497q0.13875-0.02139 0.27749-0.02139 0.28816 0 0.45892 0.16009 0.17076 0.14942 0.17076 0.40555 0 0.3095-0.18143 0.48026-0.18144 0.17076-0.52295 0.17076-0.29883 0-0.48027-0.09603z" fill="#263238" stroke-width=".25614"/>
  <path d="m206.17 49.662h-1.2167v-0.21345l0.46959-0.50161q0.28816-0.30951 0.35219-0.44824 0.0747-0.13875 0.0747-0.28816t-0.0854-0.23479q-0.0854-0.08539-0.2348-0.08539-0.21346 0-0.41624 0.18143l-0.13867-0.16008q0.25613-0.22412 0.56564-0.22412 0.25614 0 0.40556 0.13875 0.14941 0.13874 0.14941 0.37354 0 0.17075-0.096 0.34151-0.0854 0.17076-0.37354 0.49094l-0.37354 0.39488v0.01065h0.91784z" fill="#263238" stroke-width=".25614"/>
  <path d="m207.67 49.662h-1.2167v-0.21345l0.46959-0.50161q0.28815-0.30951 0.35219-0.44824 0.0747-0.13875 0.0747-0.28816t-0.0854-0.23479q-0.0854-0.08539-0.2348-0.08539-0.21345 0-0.41623 0.18143l-0.13874-0.16008q0.25614-0.22412 0.56564-0.22412 0.25615 0 0.40556 0.13875 0.14942 0.13874 0.14942 0.37354 0 0.17075-0.096 0.34151-0.0854 0.17076-0.37353 0.49094l-0.37354 0.39488v0.01065h0.91784z" fill="#263238" stroke-width=".25614"/>
  <path d="m206.17 57.01h-1.2167v-0.21345l0.46959-0.50161q0.28816-0.30951 0.35219-0.44824 0.0747-0.13875 0.0747-0.28816t-0.0854-0.23479q-0.0854-0.08539-0.2348-0.08539-0.21346 0-0.41624 0.18144l-0.13867-0.16009q0.25613-0.22412 0.56564-0.22412 0.25614 0 0.40556 0.13875 0.14941 0.13874 0.14941 0.37354 0 0.17076-0.096 0.34152-0.0854 0.17076-0.37354 0.49093l-0.37354 0.39488v0.01065h0.91784z" fill="#263238" stroke-width=".25614"/>
  <path d="m206.61 57.01v-0.20278q0.096 0.03204 0.22412 0.03204 0.58699 0 0.60834-0.78977h-0.0106q-0.12807 0.2348-0.41623 0.2348-0.25614 0-0.40555-0.16009-0.14942-0.16008-0.14942-0.43758 0-0.3095 0.16009-0.48026 0.17076-0.17076 0.43757-0.17076 0.27749 0 0.45893 0.22412 0.18143 0.21345 0.18143 0.62968 0 0.57631-0.21346 0.86447-0.21344 0.27749-0.64034 0.27749-0.14943 0-0.2348-0.02139zm0.43758-0.91784q0.17076 0 0.28815-0.10673 0.1174-0.10672 0.1174-0.25614 0-0.21344-0.1174-0.35219-0.11739-0.13875-0.27749-0.13875-0.18143 0-0.27748 0.1174-0.0854 0.10672-0.0854 0.33084 0 0.20279 0.0854 0.30951 0.096 0.09604 0.26682 0.09604z" fill="#263238" stroke-width=".25614"/>
  <path d="m206.81 62.393v0.20278q-0.096-0.03204-0.22413-0.03204-0.59766 0-0.619 0.78977h0.0214q0.12807-0.22412 0.40556-0.22412 0.25614 0 0.40556 0.16008 0.14941 0.14942 0.14941 0.42691 0 0.3095-0.16009 0.48026-0.16008 0.17076-0.4269 0.17076-0.28816 0-0.46959-0.21345-0.17076-0.22412-0.17076-0.64035 0-0.57631 0.21345-0.8538 0.21345-0.28816 0.64035-0.28816 0.13874 0 0.2348 0.0213zm-0.44825 0.91784q-0.17076 0-0.28816 0.1174-0.10672 0.10672-0.10672 0.24547 0 0.21345 0.10672 0.35219 0.1174 0.13875 0.28816 0.13875t0.25614-0.10673q0.096-0.11739 0.096-0.34151 0-0.20279-0.0854-0.29883-0.0854-0.10673-0.26682-0.10673z" fill="#263238" fill-opacity=".54" stroke-width=".25614"/>
  <path d="m214.6 27.677h-1.2167v-0.21344l0.46959-0.50162q0.28816-0.3095 0.35219-0.44824 0.0747-0.13874 0.0747-0.28815t-0.0854-0.2348q-0.0854-0.08539-0.2348-0.08539-0.21345 0-0.41622 0.18143l-0.13875-0.16008q0.25614-0.22412 0.56565-0.22412 0.25613 0 0.40555 0.13874 0.14941 0.13875 0.14941 0.37354 0 0.17076-0.096 0.34152-0.0854 0.17076-0.37354 0.49094l-0.37354 0.39488v0.01065h0.91784z" fill="#263238" stroke-width=".25614"/>
  <path d="m213.55 35.015v-0.20278q0.096 0.03204 0.22413 0.03204 0.58698 0 0.60832-0.78977h-0.0106q-0.12807 0.23479-0.41624 0.23479-0.25613 0-0.40555-0.16008-0.14941-0.16009-0.14941-0.43758 0-0.3095 0.16008-0.48026 0.17076-0.17076 0.43758-0.17076 0.27748 0 0.45891 0.22412 0.18144 0.21344 0.18144 0.62968 0 0.57631-0.21345 0.86448-0.21346 0.27748-0.64036 0.27748-0.14941 0-0.23479-0.0213zm0.43757-0.91784q0.17076 0 0.28816-0.10672t0.1174-0.25614q0-0.21345-0.1174-0.35219-0.1174-0.13875-0.27748-0.13875-0.18144 0-0.27749 0.1174-0.0854 0.10672-0.0854 0.33084 0 0.20278 0.0854 0.30951 0.096 0.09604 0.26681 0.09604z" fill="#263238" stroke-width=".25614"/>
  <path d="m213.46 42.363h-0.2348v-1.2167q0-0.25615 0.0106-0.48027l-0.36287 0.30951-0.12806-0.16009 0.51228-0.40555h0.20278z" fill="#263238" stroke-width=".25614"/>
  <path d="m215.25 40.407v0.20278q-0.096-0.03204-0.22412-0.03204-0.59766 0-0.61901 0.78977h0.0214q0.12807-0.22412 0.40556-0.22412 0.25614 0 0.40555 0.16008 0.14942 0.14942 0.14942 0.4269 0 0.30951-0.1601 0.48027-0.16008 0.17076-0.42689 0.17076-0.28816 0-0.4696-0.21345-0.17076-0.22412-0.17076-0.64035 0-0.57631 0.21346-0.8538 0.21345-0.28816 0.64035-0.28816 0.13874 0 0.23479 0.02139zm-0.44824 0.91784q-0.17076 0-0.28816 0.1174-0.10673 0.10672-0.10673 0.24547 0 0.21344 0.10673 0.35219 0.1174 0.13874 0.28816 0.13874t0.25614-0.10672q0.096-0.1174 0.096-0.34152 0-0.20278-0.0854-0.29883-0.0854-0.10672-0.26681-0.10672z" fill="#263238" stroke-width=".25614"/>
  <path d="m213.85 49.701h-1.2167v-0.21345l0.46959-0.50161q0.28815-0.3095 0.35219-0.44824 0.0747-0.13875 0.0747-0.28816t-0.0854-0.23479q-0.0854-0.08539-0.2348-0.08539-0.21346 0-0.41623 0.18144l-0.13874-0.16009q0.25614-0.22412 0.56565-0.22412 0.25613 0 0.40555 0.13875 0.14941 0.13874 0.14941 0.37354 0 0.17076-0.096 0.34152-0.0854 0.17076-0.37354 0.49093l-0.37354 0.39488v0.01065h0.91784z" fill="#263238" stroke-width=".25614"/>
  <path d="m214.87 48.675q0.48027 0.06399 0.48027 0.46958 0 0.26682-0.18144 0.42691-0.18143 0.14942-0.53362 0.14942-0.33086 0-0.52296-0.09604v-0.2348q0.24547 0.12808 0.51228 0.12808 0.2348 0 0.3522-0.09603 0.11739-0.09604 0.11739-0.28816 0-0.17076-0.12807-0.25614-0.1174-0.08539-0.37354-0.08539h-0.18143v-0.20278h0.18143q0.21346 0 0.33085-0.09603 0.1174-0.10672 0.1174-0.27748 0-0.12807-0.096-0.20278-0.0854-0.08539-0.23479-0.08539-0.24547 0-0.45892 0.16009l-0.12807-0.17076q0.24547-0.19211 0.58699-0.19211 0.27749 0 0.4269 0.13875 0.14942 0.12807 0.14942 0.34152 0 0.3842-0.41623 0.46959z" fill="#263238" stroke-width=".25614"/>
  <path d="m213.37 56.023q0.48026 0.06399 0.48026 0.46959 0 0.26681-0.18143 0.4269-0.18144 0.14942-0.53363 0.14942-0.33085 0-0.52296-0.09603v-0.23479q0.24547 0.12807 0.51229 0.12807 0.23479 0 0.35219-0.09603 0.1174-0.09604 0.1174-0.28816 0-0.17076-0.12808-0.25614-0.11739-0.08539-0.37354-0.08539h-0.18143v-0.20278h0.18143q0.21346 0 0.33086-0.09604 0.11739-0.10672 0.11739-0.27748 0-0.12807-0.096-0.20278-0.0854-0.08539-0.2348-0.08539-0.24547 0-0.45891 0.16008l-0.12808-0.17076q0.24547-0.19211 0.58699-0.19211 0.27749 0 0.4269 0.13875 0.14942 0.12807 0.14942 0.34152 0 0.38421-0.41622 0.46959z" fill="#263238" stroke-width=".25614"/>
  <path d="m214.14 56.062q0-0.50161 0.14941-0.74708 0.16009-0.25614 0.46959-0.25614 0.32017 0 0.46959 0.25614 0.16009 0.24547 0.16009 0.74708 0 0.50162-0.16009 0.75775-0.14942 0.24547-0.46959 0.24547-0.3095 0-0.46959-0.24547-0.14941-0.25614-0.14941-0.75775zm1.0032 0q0-0.44824-0.10672-0.619-0.096-0.17076-0.27749-0.17076-0.17076 0-0.27749 0.17076-0.096 0.16008-0.096 0.619 0 0.46959 0.096 0.64035 0.10673 0.16009 0.27749 0.16009 0.18143 0 0.27749-0.17076 0.10672-0.17076 0.10672-0.62968z" fill="#263238" stroke-width=".25614"/>
  <path d="m213.63 64.387 0.75775-1.7289h-1.0139v-0.22412h1.2594v0.1921l-0.74708 1.761z" fill="#263238" fill-opacity=".54" stroke-width=".25614"/>
  <path d="m221.8 26.612q0.48026 0.06399 0.48026 0.46959 0 0.26681-0.18143 0.4269-0.18143 0.14942-0.53363 0.14942-0.33084 0-0.52295-0.09604v-0.2348q0.24547 0.12808 0.51228 0.12808 0.23479 0 0.35219-0.09603 0.1174-0.09604 0.1174-0.28816 0-0.17076-0.12807-0.25614-0.1174-0.08539-0.37353-0.08539h-0.18144v-0.20277h0.18144q0.21344 0 0.33084-0.09604 0.1174-0.10672 0.1174-0.27748 0-0.12807-0.096-0.20278-0.0854-0.08539-0.2348-0.08539-0.24546 0-0.45892 0.16009l-0.12806-0.17076q0.24546-0.19211 0.58698-0.19211 0.27749 0 0.42691 0.13875 0.14941 0.12807 0.14941 0.34152 0 0.38421-0.41623 0.46959z" fill="#263238" stroke-width=".25614"/>
  <path d="m221.14 34.977h-0.23479v-1.2167q0-0.25614 0.0107-0.48026l-0.36287 0.3095-0.12807-0.16008 0.51228-0.40556h0.20278z" fill="#263238" stroke-width=".25614"/>
  <path d="m221.82 33.999q0-0.50162 0.14942-0.74708 0.16008-0.25614 0.46959-0.25614 0.32017 0 0.46958 0.25614 0.16009 0.24547 0.16009 0.74708t-0.16009 0.75774q-0.14941 0.24547-0.46958 0.24547-0.30951 0-0.46959-0.24547-0.14942-0.25614-0.14942-0.75774zm1.0032 0q0-0.44825-0.10672-0.61901-0.096-0.17076-0.27748-0.17076-0.17076 0-0.27749 0.17076-0.096 0.16008-0.096 0.61901 0 0.46958 0.096 0.64034 0.10673 0.16009 0.27749 0.16009 0.18143 0 0.27748-0.17076 0.10672-0.17076 0.10672-0.62968z" fill="#263238" stroke-width=".25614"/>
  <path d="m221.14 42.324h-0.23479v-1.2167q0-0.25614 0.0107-0.48026l-0.36287 0.3095-0.12807-0.16008 0.51228-0.40555h0.20278z" fill="#263238" stroke-width=".25614"/>
  <path d="m222.06 42.324 0.75775-1.7289h-1.0139v-0.22412h1.2594v0.1921l-0.74708 1.761z" fill="#263238" stroke-width=".25614"/>
  <path d="m221.53 49.662h-1.2167v-0.21345l0.46959-0.50161q0.28815-0.30951 0.35219-0.44824 0.0747-0.13875 0.0747-0.28816t-0.0854-0.23479q-0.0854-0.08539-0.2348-0.08539-0.21345 0-0.41623 0.18143l-0.13873-0.16008q0.25613-0.22412 0.56564-0.22412 0.25614 0 0.40555 0.13875 0.14942 0.13874 0.14942 0.37354 0 0.17075-0.096 0.34151-0.0854 0.17076-0.37353 0.49094l-0.37354 0.39488v0.01065h0.91784z" fill="#263238" stroke-width=".25614"/>
  <path d="m223.15 49.227h-0.28817v0.43758h-0.23479v-0.43758h-0.89649v-0.21345l0.88582-1.3127h0.24546v1.3021h0.28817zm-0.52296-0.22412v-0.46959q0-0.2348 0.0214-0.57631h-0.0107q-0.0533 0.13874-0.11739 0.23479l-0.55498 0.81112z" fill="#263238" stroke-width=".25614"/>
  <path d="m221.89 57.01h-0.23479v-1.2167q0-0.25615 0.0106-0.48027l-0.36286 0.30951-0.12807-0.16009 0.51227-0.40555h0.20278z" fill="#263238" fill-opacity=".54" stroke-width=".25614"/>
  <path d="m221.89 63.312q0.41623 0.22412 0.41623 0.52295 0 0.2348-0.17076 0.38422-0.16009 0.14942-0.43757 0.14942-0.29883 0-0.45892-0.13875-0.16009-0.13874-0.16009-0.38421 0-0.34152 0.38421-0.52295-0.32018-0.19211-0.32018-0.49094 0-0.20278 0.14942-0.33084 0.14941-0.13875 0.40556-0.13875 0.24547 0 0.39488 0.13875 0.14942 0.12807 0.14942 0.33084 0 0.3095-0.3522 0.48026zm-0.1921-0.09604q0.3095-0.13874 0.3095-0.37354 0-0.13874-0.0854-0.20278-0.0747-0.07474-0.2348-0.07474-0.14941 0-0.22412 0.07474-0.0747 0.06399-0.0747 0.20278 0 0.2348 0.30951 0.37354zm-0.0427 0.20279q-0.33085 0.16008-0.33085 0.43757 0 0.16009 0.0854 0.24547 0.096 0.07474 0.27748 0.07474 0.19211 0 0.28816-0.08538 0.096-0.08539 0.096-0.24547 0-0.1174-0.0747-0.20278-0.0747-0.09604-0.29883-0.20279z" fill="#263238" fill-opacity=".54" stroke-width=".25614"/>
  <path d="m230.08 27.203h-0.28816v0.43758h-0.23479v-0.43758h-0.8965v-0.21344l0.88582-1.3127h0.24547v1.3021h0.28816zm-0.52295-0.22412v-0.46959q0-0.23479 0.0213-0.57631h-0.0106q-0.0533 0.13875-0.1174 0.2348l-0.55497 0.8111z" fill="#263238" stroke-width=".25614"/>
  <path d="m228.82 34.977h-0.23479v-1.2167q0-0.25614 0.0106-0.48026l-0.36287 0.3095-0.12807-0.16008 0.51229-0.40556h0.20277z" fill="#263238" stroke-width=".25614"/>
  <path d="m230.32 34.977h-0.2348v-1.2167q0-0.25614 0.0106-0.48026l-0.36287 0.3095-0.12807-0.16008 0.51229-0.40556h0.20277z" fill="#263238" stroke-width=".25614"/>
  <path d="m228.82 42.324h-0.23479v-1.2167q0-0.25614 0.0106-0.48026l-0.36287 0.3095-0.12807-0.16008 0.51229-0.40555h0.20277z" fill="#263238" stroke-width=".25614"/>
  <path d="m230.32 41.288q0.41623 0.22412 0.41623 0.52295 0 0.23479-0.17076 0.38421-0.16009 0.14942-0.43757 0.14942-0.29883 0-0.45893-0.13874-0.16008-0.13875-0.16008-0.38422 0-0.34152 0.38421-0.52295-0.32017-0.19211-0.32017-0.49094 0-0.20278 0.14941-0.33084 0.14942-0.13875 0.40556-0.13875 0.24546 0 0.39488 0.13875 0.14941 0.12807 0.14941 0.33084 0 0.30951-0.35219 0.48027zm-0.1921-0.09603q0.30949-0.13875 0.30949-0.37354 0-0.13875-0.0854-0.20279-0.0747-0.07474-0.23479-0.07474-0.14942 0-0.22413 0.07474-0.0747 0.06399-0.0747 0.20279 0 0.23479 0.30951 0.37354zm-0.0427 0.20278q-0.33084 0.16008-0.33084 0.43758 0 0.16008 0.0854 0.24546 0.096 0.07474 0.2775 0.07474 0.19209 0 0.28815-0.08539 0.096-0.08539 0.096-0.24547 0-0.1174-0.0747-0.20278-0.0747-0.09604-0.29883-0.20278z" fill="#263238" stroke-width=".25614"/>
  <path d="m229.22 49.662h-1.2167v-0.21345l0.4696-0.50161q0.28815-0.30951 0.35219-0.44824 0.0747-0.13875 0.0747-0.28816t-0.0854-0.23479q-0.0854-0.08539-0.2348-0.08539-0.21346 0-0.41623 0.18143l-0.13874-0.16008q0.25614-0.22412 0.56565-0.22412 0.25613 0 0.40555 0.13875 0.14941 0.13874 0.14941 0.37354 0 0.17075-0.096 0.34151-0.0854 0.17076-0.37354 0.49094l-0.37354 0.39488v0.01065h0.91784z" fill="#263238" stroke-width=".25614"/>
  <path d="m229.55 49.595v-0.2348q0.19211 0.12807 0.49094 0.12807 0.21345 0 0.32018-0.10672 0.1174-0.10672 0.1174-0.30951 0-0.20278-0.1174-0.29883-0.10673-0.09603-0.34153-0.09603-0.11739 0-0.29883 0.03204l-0.12807-0.07474 0.0747-0.91784h0.91784v0.22412h-0.70439l-0.0533 0.55497q0.13875-0.02139 0.2775-0.02139 0.28815 0 0.45891 0.16009 0.17076 0.14942 0.17076 0.40555 0 0.30951-0.18143 0.48027-0.18144 0.17075-0.52295 0.17075-0.29883 0-0.48027-0.09604z" fill="#263238" stroke-width=".25614"/>
  <path d="m229.97 57.01h-1.2167v-0.21345l0.46959-0.50161q0.28816-0.30951 0.35219-0.44824 0.0747-0.13875 0.0747-0.28816t-0.0854-0.23479q-0.0854-0.08539-0.2348-0.08539-0.21345 0-0.41622 0.18144l-0.13875-0.16009q0.25614-0.22412 0.56565-0.22412 0.25613 0 0.40555 0.13875 0.14941 0.13874 0.14941 0.37354 0 0.17076-0.096 0.34152-0.0854 0.17076-0.37354 0.49093l-0.37354 0.39488v0.01065h0.91784z" fill="#263238" fill-opacity=".54" stroke-width=".25614"/>
  <path d="m228.91 64.348v-0.20278q0.096 0.03204 0.22412 0.03204 0.58699 0 0.60833-0.78977h-0.0106q-0.12807 0.2348-0.41623 0.2348-0.25613 0-0.40555-0.16009-0.14941-0.16008-0.14941-0.43757 0-0.30951 0.16008-0.48027 0.17076-0.17076 0.43758-0.17076 0.27748 0 0.45891 0.22412 0.18144 0.21345 0.18144 0.62968 0 0.57631-0.21346 0.86448-0.21345 0.27748-0.64035 0.27748-0.14941 0-0.23479-0.0213zm0.43757-0.91784q0.17076 0 0.28816-0.10672 0.1174-0.10673 0.1174-0.25615 0-0.21344-0.1174-0.35219-0.1174-0.13874-0.27748-0.13874-0.18144 0-0.27749 0.11739-0.0854 0.10673-0.0854 0.33085 0 0.20278 0.0854 0.3095 0.096 0.09603 0.26681 0.09603z" fill="#263238" fill-opacity=".54" stroke-width=".25614"/>
  <path d="m181.89 18.37v0.42088q-0.16436-0.07326-0.32069-0.11054-0.15634-0.03731-0.2953-0.03731-0.1844 0-0.27259 0.05064-0.0881 0.05064-0.0881 0.15716 0 0.07993 0.0588 0.12519 0.0601 0.04398 0.21647 0.07597l0.21913 0.04398q0.33272 0.06659 0.47302 0.20244t0.1403 0.38625q0 0.32897-0.19642 0.49014-0.19508 0.15982-0.59728 0.15982-0.18974 0-0.38082-0.03596-0.19107-0.03595-0.38215-0.10655v-0.43286q0.19108 0.10122 0.36879 0.15316 0.17906 0.05064 0.34474 0.05064 0.16836 0 0.25788-0.05596 0.0895-0.05596 0.0895-0.15982 0-0.09327-0.0615-0.14385-0.0601-0.05064-0.24185-0.09056l-0.1991-0.04398q-0.29931-0.06398-0.43827-0.20378-0.13763-0.13985-0.13763-0.37693 0-0.29701 0.19241-0.45684 0.19242-0.15982 0.55319-0.15982 0.16435 0 0.33805 0.02532 0.17371 0.02397 0.35945 0.07326z" fill="#263238" fill-opacity=".54" stroke-width=".25544"/>
  <path d="m182.44 19.713v-0.91102h0.48102v0.14918q0 0.1212-9.7e-4 0.305-9.7e-4 0.18247-9.7e-4 0.24374 0 0.1798 0.01 0.25971 0.01 0.07858 0.0321 0.11455 0.0294 0.04659 0.0762 0.07191 0.0481 0.02532 0.10957 0.02532 0.14965 0 0.23517-0.11454 0.0855-0.11454 0.0855-0.31832v-0.73654h0.47836v1.4917h-0.47836v-0.21576q-0.10823 0.13052-0.22983 0.19312-0.12026 0.06128-0.2659 0.06128-0.25922 0-0.39552-0.1585-0.13495-0.15849-0.13495-0.46083z" fill="#263238" fill-opacity=".54" stroke-width=".25544"/>
  <path d="m185.91 19.385v0.90835h-0.48102v-0.69525q0-0.19312-0.01-0.26638-8e-3 -0.07326-0.0294-0.10788-0.028-0.04659-0.0761-0.07191-0.0481-0.02668-0.10957-0.02668-0.14965 0-0.23517 0.11588-0.0855 0.11454-0.0855 0.31832v0.73387h-0.47836v-1.4917h0.47836v0.21843q0.10824-0.13052 0.22983-0.19178 0.12159-0.06263 0.26858-0.06263 0.25922 0 0.39284 0.15849 0.13495 0.1585 0.13495 0.46084z" fill="#263238" fill-opacity=".54" stroke-width=".25544"/>
  <path d="m187.88 18.302h0.65474l0.4543 1.0641 0.45699-1.0641h0.6534v1.9885h-0.48637v-1.4544l-0.45966 1.0722h-0.32603l-0.45966-1.0722v1.4544h-0.48771z" fill="#263238" fill-opacity=".54" stroke-width=".25544"/>
  <path d="m191.29 19.104q-0.15901 0-0.2432 0.11454-0.0828 0.11321-0.0828 0.32764 0 0.21444 0.0828 0.32898 0.0842 0.11321 0.2432 0.11321 0.15633 0 0.23918-0.11321 0.0828-0.11454 0.0828-0.32898 0-0.21443-0.0828-0.32764-0.0828-0.11454-0.23918-0.11454zm0-0.34097q0.38616 0 0.60262 0.20777 0.2178 0.20778 0.2178 0.57537 0 0.3676-0.2178 0.57538-0.21646 0.20777-0.60262 0.20777-0.3875 0-0.60664-0.20777-0.2178-0.20778-0.2178-0.57538 0-0.36759 0.2178-0.57537 0.21914-0.20777 0.60664-0.20777z" fill="#263238" fill-opacity=".54" stroke-width=".25544"/>
  <path d="m193.97 19.385v0.90835h-0.48103v-0.69525q0-0.19312-0.01-0.26638-8e-3 -0.07326-0.0294-0.10788-0.028-0.04659-0.0761-0.07191-0.0481-0.02668-0.10957-0.02668-0.14965 0-0.23516 0.11588-0.0855 0.11454-0.0855 0.31832v0.73387h-0.47836v-1.4917h0.47836v0.21843q0.10823-0.13052 0.22983-0.19178 0.12159-0.06263 0.26858-0.06263 0.25922 0 0.39284 0.15849 0.13495 0.1585 0.13495 0.46084z" fill="#263238" fill-opacity=".54" stroke-width=".25544"/>
  <path d="m195.82 18.302h1.8386v0.38758h-0.66142v1.6009h-0.51443v-1.6009h-0.66276z" fill="#263238" fill-opacity=".54" stroke-width=".25544"/>
  <path d="m197.58 19.713v-0.91102h0.48102v0.14918q0 0.1212-9.7e-4 0.305-9.6e-4 0.18247-9.6e-4 0.24374 0 0.1798 0.01 0.25971 0.01 0.07858 0.0321 0.11455 0.0294 0.04659 0.0762 0.07191 0.0481 0.02532 0.10957 0.02532 0.14965 0 0.23518-0.11454 0.0855-0.11454 0.0855-0.31832v-0.73654h0.47836v1.4917h-0.47836v-0.21576q-0.10823 0.13052-0.22983 0.19312-0.12026 0.06128-0.2659 0.06128-0.25922 0-0.39552-0.1585-0.13495-0.15849-0.13495-0.46083z" fill="#263238" fill-opacity=".54" stroke-width=".25544"/>
  <path d="m201.04 19.539v0.13585h-1.1184q0.0173 0.16782 0.12159 0.25173 0.10422 0.08389 0.2913 0.08389 0.15098 0 0.30865-0.04398 0.15901-0.04533 0.32603-0.13585v0.3676q-0.16969 0.06389-0.33939 0.09588-0.1697 0.03325-0.33939 0.03325-0.4062 0-0.63202-0.20511-0.22448-0.20644-0.22448-0.57804 0-0.36494 0.22046-0.57404 0.22182-0.2091 0.60931-0.2091 0.35276 0 0.56388 0.21177 0.21246 0.21176 0.21246 0.56605zm-0.49173-0.15849q0-0.13585-0.0802-0.21843-0.0788-0.08389-0.20711-0.08389-0.13896 0-0.22581 0.07858-0.0869 0.07722-0.10824 0.22376z" fill="#263238" fill-opacity=".54" stroke-width=".25544"/>
  <path d="m202.73 18.302h0.49306l0.34474 1.4451 0.34207-1.4451h0.49572l0.34207 1.4451 0.34474-1.4451h0.48906l-0.47035 1.9885h-0.59327l-0.36211-1.5117-0.3581 1.5117h-0.59327z" fill="#263238" fill-opacity=".54" stroke-width=".25544"/>
  <path d="m207.3 19.539v0.13585h-1.1184q0.0173 0.16782 0.12159 0.25173 0.10422 0.08389 0.29129 0.08389 0.15099 0 0.30866-0.04398 0.15901-0.04533 0.32604-0.13585v0.3676q-0.1697 0.06389-0.3394 0.09588-0.1697 0.03325-0.3394 0.03325-0.4062 0-0.63202-0.20511-0.22448-0.20644-0.22448-0.57804 0-0.36494 0.22047-0.57404 0.22181-0.2091 0.60931-0.2091 0.35276 0 0.56388 0.21177 0.21245 0.21176 0.21245 0.56605zm-0.49172-0.15849q0-0.13585-0.0802-0.21843-0.0788-0.08389-0.20711-0.08389-0.13897 0-0.22582 0.07858-0.0869 0.07722-0.10823 0.22376z" fill="#263238" fill-opacity=".54" stroke-width=".25544"/>
  <path d="m208.67 19.017v-0.79913h0.48102v2.0724h-0.48102v-0.21576q-0.0989 0.13185-0.2178 0.19312-0.11893 0.06128-0.27527 0.06128-0.27659 0-0.4543-0.21843-0.17772-0.21976-0.17772-0.56472t0.17772-0.56339q0.17771-0.21976 0.4543-0.21976 0.155 0 0.27393 0.06263 0.12025 0.06128 0.21914 0.19178zm-0.31535 0.96562q0.15366 0 0.23384-0.11187 0.0815-0.11188 0.0815-0.32499 0-0.2131-0.0815-0.32498-0.0802-0.11187-0.23384-0.11187-0.15233 0-0.23384 0.11187-0.0802 0.11188-0.0802 0.32498 0 0.21311 0.0802 0.32499 0.0816 0.11187 0.23384 0.11187z" fill="#263238" fill-opacity=".54" stroke-width=".25544"/>
  <path d="m211.19 18.302h1.8386v0.38758h-0.66142v1.6009h-0.51443v-1.6009h-0.66276z" fill="#263238" fill-opacity=".54" stroke-width=".25544"/>
  <path d="m214.77 19.385v0.90835h-0.48102v-0.69258q0-0.19579-0.01-0.26905-8e-3 -0.07326-0.0294-0.10788-0.028-0.04659-0.0761-0.07191-0.0481-0.02668-0.10957-0.02668-0.14965 0-0.23517 0.11588-0.0855 0.11454-0.0855 0.31832v0.73387h-0.47837v-2.0724h0.47837v0.79913q0.10823-0.13052 0.22982-0.19178 0.12159-0.06263 0.26858-0.06263 0.25922 0 0.39284 0.15849 0.13495 0.1585 0.13495 0.46084z" fill="#263238" fill-opacity=".54" stroke-width=".25544"/>
  <path d="m215.2 19.713v-0.91102h0.48103v0.14918q0 0.1212-9.7e-4 0.305-9.7e-4 0.18247-9.7e-4 0.24374 0 0.1798 0.01 0.25971 0.01 0.07858 0.0321 0.11455 0.0294 0.04659 0.0762 0.07191 0.0481 0.02532 0.10957 0.02532 0.14965 0 0.23517-0.11454 0.0855-0.11454 0.0855-0.31832v-0.73654h0.47836v1.4917h-0.47836v-0.21576q-0.10823 0.13052-0.22984 0.19312-0.12025 0.06128-0.26589 0.06128-0.25922 0-0.39552-0.1585-0.13496-0.15849-0.13496-0.46083z" fill="#263238" fill-opacity=".54" stroke-width=".25544"/>
  <path d="m219.89 18.302h1.3883v0.38758h-0.87387v0.37026h0.82176v0.38758h-0.82176v0.84309h-0.51444z" fill="#263238" fill-opacity=".54" stroke-width=".25544"/>
  <path d="m222.68 19.211q-0.0628-0.02929-0.1256-0.04262-0.0615-0.01469-0.12426-0.01469-0.1844 0-0.28461 0.11854-0.0989 0.1172-0.0989 0.33696v0.68726h-0.47835v-1.4917h0.47835v0.24507q0.0922-0.1465 0.21112-0.2131 0.12027-0.06795 0.28729-0.06795 0.024 0 0.0522 0.0029 0.028 9.67e-4 0.0815 0.0077z" fill="#263238" fill-opacity=".54" stroke-width=".25544"/>
  <path d="m222.92 18.805h0.47835v1.4917h-0.47835zm0-0.5807h0.47835v0.38892h-0.47835z" fill="#263238" fill-opacity=".54" stroke-width=".25544"/>
  <path d="m228.25 18.37v0.42088q-0.16436-0.07326-0.32069-0.11054-0.15634-0.03731-0.29531-0.03731-0.18439 0-0.27258 0.05064-0.0881 0.05064-0.0881 0.15716 0 0.07993 0.0588 0.12519 0.0601 0.04398 0.21647 0.07597l0.21913 0.04398q0.33272 0.06659 0.47302 0.20244t0.1403 0.38625q0 0.32897-0.19642 0.49014-0.19509 0.15982-0.59728 0.15982-0.18974 0-0.38082-0.03596-0.19108-0.03595-0.38215-0.10655v-0.43286q0.19107 0.10122 0.36879 0.15316 0.17904 0.05064 0.34474 0.05064 0.16835 0 0.25788-0.05596 0.0895-0.05596 0.0895-0.15982 0-0.09327-0.0615-0.14385-0.0601-0.05064-0.24184-0.09056l-0.1991-0.04398q-0.29931-0.06398-0.43828-0.20378-0.13763-0.13985-0.13763-0.37693 0-0.29701 0.19242-0.45684 0.19241-0.15982 0.55319-0.15982 0.16435 0 0.33805 0.02532 0.17371 0.02397 0.35945 0.07326z" fill="#263238" fill-opacity=".54" stroke-width=".25544"/>
  <path d="m229.48 19.626q-0.14966 0-0.22582 0.05065-0.0749 0.05065-0.0749 0.14917 0 0.09056 0.0601 0.14251 0.0615 0.05064 0.1697 0.05064 0.13495 0 0.22715-0.09588 0.0922-0.09723 0.0922-0.2424v-0.05461zm0.73089-0.17981v0.85108h-0.48236v-0.2211q-0.0962 0.13585-0.21647 0.19845-0.12025 0.06128-0.29262 0.06128-0.2325 0-0.37815-0.13452-0.14431-0.13585-0.14431-0.35162 0-0.26239 0.18039-0.38492 0.18173-0.12253 0.56922-0.12253h0.28194v-0.03731q0-0.11321-0.0895-0.16516-0.0895-0.05326-0.27927-0.05326-0.15366 0-0.28594 0.03064t-0.24587 0.09192v-0.3636q0.15367-0.03731 0.30867-0.05596 0.155-0.02001 0.31-0.02001 0.40487 0 0.58392 0.15982 0.18038 0.1585 0.18038 0.51678z" fill="#263238" fill-opacity=".54" stroke-width=".25544"/>
  <path d="m231.18 18.379v0.42354h0.49306v0.34097h-0.49306v0.63265q0 0.10389 0.0414 0.14118 0.0414 0.03596 0.16435 0.03596h0.24586v0.34097h-0.41021q-0.28327 0-0.4022-0.11721-0.11758-0.11853-0.11758-0.4009v-0.63265h-0.23784v-0.34097h0.23784v-0.42354z" fill="#263238" fill-opacity=".54" stroke-width=".25544"/>
  <path d="m179.17 70.922h53.789" fill="none" stroke="#000000" stroke-opacity=".090196" stroke-width=".25614px"/>
  <path d="m195.37 74.07v1.1113c-0.0709-0.12226-0.16069-0.21275-0.26953-0.27148-0.10761-0.05989-0.23899-0.08984-0.39062-0.08984-0.24826 0-0.44894 0.09877-0.60547 0.29688-0.15531 0.19811-0.23438 0.45841-0.23438 0.78125s0.0791 0.58314 0.23438 0.78125c0.15653 0.19811 0.35721 0.29687 0.60547 0.29687 0.15163 0 0.28301-0.02916 0.39062-0.08789 0.10884-0.05992 0.19861-0.15115 0.26953-0.27344v0.30859h0.33594v-2.8535zm4.4043 2e-3v0.42769h0.33789v-0.42773zm15.848 0v0.42769h0.33789v-0.42773zm-6.7852 0.06836c-0.29961 0-0.53387 0.07153-0.70508 0.21094-0.16998 0.1394-0.25586 0.33013-0.25586 0.57227 0 0.20912 0.062 0.37088 0.18555 0.48828 0.12351 0.11737 0.32323 0.20471 0.59961 0.25977l0.22656 0.04297c0.18833 0.03791 0.32237 0.09605 0.4043 0.17188 0.0831 0.07581 0.125 0.17993 0.125 0.31445 0 0.15409-0.0569 0.27232-0.17188 0.35547-0.11495 0.08316-0.27867 0.125-0.49023 0.125-0.13941 0-0.28148-0.02167-0.42578-0.06445-0.14431-0.0428-0.29099-0.10507-0.44141-0.18945v0.38086c0.15653 0.05746 0.3076 0.10149 0.45313 0.13086 0.14674 0.02937 0.28443 0.04297 0.41406 0.04297 0.34363 0 0.60392-0.06811 0.78125-0.20508 0.17854-0.13697 0.26758-0.33815 0.26758-0.60352 0-0.22256-0.0652-0.39918-0.19727-0.53125-0.13085-0.13328-0.33495-0.2267-0.61133-0.2793l-0.22461-0.04687c-0.20299-0.03794-0.34068-0.08732-0.41406-0.14844-0.0721-0.06237-0.10742-0.15238-0.10742-0.27344 0-0.1443 0.0533-0.25572 0.16211-0.33398 0.11006-0.07826 0.26697-0.11914 0.46875-0.11914 0.11617 0 0.23659 0.01774 0.36133 0.05078 0.12473 0.03301 0.2578 0.08313 0.39844 0.15039v-0.36138c-0.13941-0.04647-0.27686-0.08223-0.41016-0.10547-0.13329-0.02323-0.26418-0.03516-0.39258-0.03516zm-11.609 0.04297v0.3125h0.97265v2.4258h0.37305v-2.4258h0.9707v-0.3125zm-18.047 0.0059v2.7383h0.76172c0.52829 3.2e-5 0.91654-0.11066 1.166-0.33203 0.24946-0.22138 0.37304-0.56703 0.37304-1.0391 0-0.46961-0.12285-0.81504-0.37109-1.0352-0.24826-0.22134-0.63724-0.33203-1.168-0.33203zm5.1719 0.10156v0.58203h-0.24805v0.26367h0.24805v1.1152c0 0.2568 0.0494 0.43342 0.14843 0.53125 0.0991 0.09661 0.27859 0.14453 0.53907 0.14453h0.3457v-0.28125h-0.3457c-0.14064 0-0.23479-0.02457-0.28125-0.07227-0.0453-0.0477-0.0684-0.15474-0.0684-0.32227v-1.1152h0.69531v-0.26367h-0.69531v-0.58203zm28.326 0v0.58203h-0.24805v0.26367h0.24805v1.1152c0 0.2568 0.0494 0.43342 0.14844 0.53125 0.099 0.09661 0.27857 0.14453 0.53906 0.14453h0.3457v-0.28125h-0.3457c-0.14064 0-0.23479-0.02457-0.28125-0.07227-0.0453-0.0477-0.0664-0.15474-0.0664-0.32227v-1.1152h0.69336v-0.26367h-0.69336v-0.58203zm1.4707 0v0.58203h-0.24805v0.26367h0.24805v1.1152c0 0.2568 0.0494 0.43342 0.14844 0.53125 0.0991 0.09661 0.27859 0.14453 0.53906 0.14453h0.34766v-0.28125h-0.34766c-0.14063 0-0.23283-0.02457-0.2793-0.07227-0.0453-0.0477-0.0684-0.15474-0.0684-0.32227v-1.1152h0.69531v-0.26367h-0.69531v-0.58203zm-34.6 0.20312h0.44922c0.37787 0 0.65325 0.08465 0.82813 0.25586 0.17609 0.16998 0.26367 0.43977 0.26367 0.80664 0 0.36931-0.0876 0.63934-0.26367 0.81055-0.17488 0.1712-0.45026 0.25586-0.82813 0.25586h-0.44922zm7.1387 0.32422c-0.30817 0-0.55216 0.09877-0.73437 0.29688-0.18099 0.19688-0.27149 0.46449-0.27149 0.80078 0 0.32529 0.0944 0.58267 0.28516 0.77344 0.19199 0.19077 0.45156 0.28516 0.7793 0.28516 0.13084 0 0.25954-0.01215 0.38672-0.03906 0.12718-0.02689 0.25198-0.06581 0.37304-0.11719v-0.32031c-0.11984 0.06356-0.24099 0.11076-0.36328 0.14258-0.12106 0.03182-0.24537 0.04883-0.375 0.04883-0.22379 0-0.39944-0.06057-0.52539-0.18164-0.12475-0.12229-0.19432-0.2989-0.20898-0.53125h1.5508v-0.16602c0-0.30572-0.0788-0.54729-0.24024-0.72461-0.1602-0.17854-0.37987-0.26758-0.65625-0.26758zm18.646 0c-0.30817 0-0.55412 0.09877-0.73633 0.29688-0.18099 0.19688-0.27148 0.46449-0.27148 0.80078 0 0.32529 0.0963 0.58267 0.28711 0.77344 0.19199 0.19077 0.45156 0.28516 0.77929 0.28516 0.13085 0 0.25953-0.01215 0.38672-0.03906 0.12718-0.02689 0.25199-0.06581 0.37305-0.11719v-0.32031c-0.11984 0.06356-0.24099 0.11076-0.36328 0.14258-0.12106 0.03182-0.24733 0.04883-0.37696 0.04883-0.22379 0-0.39943-0.06057-0.52539-0.18164-0.12474-0.12229-0.19432-0.2989-0.20898-0.53125h1.5527v-0.16602c0-0.30572-0.0808-0.54729-0.24218-0.72461-0.16021-0.17854-0.37793-0.26758-0.6543-0.26758zm5.8945 0c-0.30817 0-0.55217 0.09877-0.73438 0.29688-0.18098 0.19688-0.27148 0.46449-0.27148 0.80078 0 0.32529 0.0944 0.58267 0.28516 0.77344 0.192 0.19077 0.45156 0.28516 0.77929 0.28516 0.13085 0 0.25954-0.01215 0.38672-0.03906 0.12719-0.02689 0.25199-0.06581 0.37305-0.11719v-0.32031c-0.11984 0.06356-0.24099 0.11076-0.36328 0.14258-0.12106 0.03182-0.24538 0.04883-0.375 0.04883-0.2238 0-0.39944-0.06057-0.52539-0.18164-0.12475-0.12229-0.19432-0.2989-0.20899-0.53125h1.5527v-0.16602c0-0.30572-0.0808-0.54729-0.24219-0.72461-0.1602-0.17854-0.37988-0.26758-0.65625-0.26758zm-18.602 2e-3c-0.14308 0-0.26885 0.03068-0.37891 0.0918-0.10884 0.06114-0.20444 0.15384-0.28516 0.27734v-0.31836h-0.33789v2.0527h0.33789v-1.1602c0-0.20056 0.053-0.35843 0.15821-0.47461 0.10517-0.11617 0.24942-0.17578 0.43164-0.17578 0.15164 0 0.26598 0.04988 0.34179 0.14648 0.0758 0.09661 0.11329 0.24111 0.11329 0.43555v1.2285h0.33789v-1.2383c0-0.28371-0.0606-0.49901-0.18164-0.64453-0.12106-0.14675-0.30109-0.2207-0.53711-0.2207zm25.035 0c-0.14307 0-0.26884 0.03068-0.3789 0.0918-0.10884 0.06114-0.20445 0.15384-0.28516 0.27734v-0.31836h-0.33789v2.0527h0.33789v-1.1602c0-0.20056 0.053-0.35843 0.1582-0.47461 0.10517-0.11617 0.24944-0.17578 0.43164-0.17578 0.15165 0 0.26403 0.04988 0.33985 0.14648 0.0758 0.09661 0.11523 0.24111 0.11523 0.43555v1.2285h0.33594v-1.2383c0-0.28371-0.0586-0.49901-0.17969-0.64453-0.12106-0.14675-0.30109-0.2207-0.53711-0.2207zm4.4277 0c-0.25192 0-0.44703 0.05108-0.58399 0.15625s-0.20507 0.25601-0.20507 0.44922c0 0.15898 0.0457 0.28328 0.13867 0.375 0.0929 0.09051 0.24401 0.15716 0.45312 0.20117l0.11719 0.02734c0.20913 0.04524 0.34512 0.09366 0.40625 0.14258 0.0623 0.04891 0.0937 0.11922 0.0937 0.21094 0 0.09904-0.0433 0.17542-0.12891 0.23047-0.0856 0.05383-0.20821 0.08008-0.36718 0.08008-0.11862 0-0.23831-0.01506-0.35938-0.04687-0.12107-0.03302-0.24441-0.08167-0.36914-0.14648v0.34766c0.13207 0.04279 0.25834 0.07492 0.37695 0.0957 0.11985 0.02201 0.23369 0.0332 0.34375 0.0332 0.26414 0 0.47264-0.05473 0.62305-0.16602 0.15164-0.11128 0.22656-0.26235 0.22656-0.45312 0-0.16753-0.0508-0.29768-0.15234-0.39062-0.10027-0.09415-0.27008-0.16738-0.50977-0.21875l-0.11523-0.02539c-0.18104-0.04036-0.30146-0.08294-0.36133-0.12695-0.0599-0.04525-0.0898-0.10729-0.0898-0.18555 0-0.10271 0.0418-0.1791 0.125-0.23047 0.0844-0.05137 0.20942-0.07813 0.37695-0.07813 0.11006 0 0.21759 0.01265 0.32031 0.03711 0.10273 0.02446 0.20149 0.06046 0.29688 0.10938v-0.31836c-0.0929-0.03673-0.19463-0.0637-0.30469-0.08203s-0.22682-0.02734-0.35156-0.02734zm-20.287 0.0039c-0.14797 0-0.2752 0.02995-0.38281 0.08984-0.10762 0.05993-0.2003 0.15334-0.27735 0.2793v-0.31848h-0.33984v2.0527h0.33984v-1.1602c0-0.19933 0.0508-0.35648 0.15235-0.47266 0.1015-0.1174 0.23967-0.17773 0.4121-0.17773 0.14553-1e-6 0.25256 0.04915 0.32227 0.14453 0.0697 0.09416 0.10352 0.23939 0.10352 0.4375v1.2285h0.33984v-1.1602c0-0.20056 0.0508-0.35843 0.15234-0.47461 0.1015-0.11617 0.23919-0.17578 0.41407-0.17578 0.14308-1e-6 0.25061 0.04915 0.32031 0.14453 0.0697 0.09539 0.10351 0.24062 0.10351 0.4375v1.2285h0.33985v-1.2402c0-0.27637-0.0576-0.48752-0.17383-0.63672-0.11617-0.15042-0.28209-0.22656-0.49609-0.22656-0.15898 0-0.29667 0.03723-0.41407 0.10938-0.11739 0.07215-0.21835 0.18235-0.30273 0.33398-0.0501-0.1443-0.12726-0.25426-0.23242-0.33008-0.10395-0.07582-0.23166-0.11328-0.38086-0.11328zm-19.029 2e-3c-0.11007 0-0.22367 0.01265-0.33984 0.03711-0.11618 0.02323-0.23586 0.05778-0.35938 0.10547v0.3125c0.10272-0.05624 0.21098-0.09881 0.32227-0.12695 0.11128-0.02814 0.2244-0.04102 0.3418-0.04102 0.18465 0 0.32818 0.04135 0.42968 0.12695 0.10272 0.08439 0.1543 0.20602 0.1543 0.36133v0.03125h-0.47266c-0.30694 0-0.53805 0.06034-0.69336 0.17774-0.15408 0.1174-0.23242 0.29036-0.23242 0.52148 0 0.19811 0.062 0.35599 0.18555 0.47461 0.12474 0.1174 0.29162 0.17773 0.50195 0.17773 0.16632 0 0.30692-0.02916 0.42188-0.08789 0.11495-0.05992 0.21202-0.15261 0.28906-0.27734v0.31055h0.33789v-1.1719c0-0.31306-0.074-0.54513-0.2207-0.69922-0.14676-0.15408-0.36887-0.23242-0.66602-0.23242zm7.2812 0c-0.11007 0-0.22368 0.01265-0.33984 0.03711-0.11618 0.02323-0.23587 0.05778-0.35938 0.10547v0.3125c0.10272-0.05624 0.20903-0.09881 0.32032-0.12695 0.11128-0.02814 0.22635-0.04102 0.34374-0.04102 0.18466 0 0.32624 0.04135 0.42774 0.12695 0.10272 0.08439 0.1543 0.20602 0.1543 0.36133v0.03125h-0.47266c-0.30694 0-0.53805 0.06034-0.69336 0.17774-0.15409 0.1174-0.23047 0.29036-0.23047 0.52148 0 0.19811 0.062 0.35599 0.18555 0.47461 0.12473 0.1174 0.29162 0.17773 0.50195 0.17773 0.16632 0 0.30692-0.02916 0.42188-0.08789 0.11494-0.05992 0.21007-0.15261 0.28711-0.27734v0.31055h0.33789v-1.1719c0-0.31306-0.0739-0.54513-0.22071-0.69922-0.14674-0.15408-0.3669-0.23242-0.66406-0.23242zm29.689 0c-0.25192 0-0.45528 0.09512-0.60937 0.28711-0.15408 0.192-0.23047 0.44767-0.23047 0.76562 0 0.31673 0.0764 0.56973 0.23047 0.76172 0.15409 0.192 0.35745 0.28906 0.60937 0.28906 0.15164-1e-6 0.28179-0.02995 0.39063-0.08984 0.10884-0.05992 0.19788-0.15042 0.26758-0.27148v0.16602c0 0.23357-0.054 0.40849-0.16406 0.52344-0.11007 0.11617-0.27671 0.17383-0.49805 0.17383-0.10028 0-0.19831-0.01338-0.29492-0.03906-0.0966-0.02566-0.19393-0.06531-0.29297-0.11914v0.33008c0.099 0.03672 0.20146 0.06297 0.30664 0.08008 0.10516 0.01833 0.21732 0.02734 0.33594 0.02734 0.32039-1e-6 0.55758-0.08661 0.71289-0.25781 0.15531-0.16998 0.23242-0.42955 0.23242-0.7793v-1.799h-0.33789v0.3125c-0.0697-0.1211-0.15874-0.21159-0.26758-0.27148s-0.23899-0.08984-0.39063-0.08984zm-19.971 0.04492v2.0547h0.33789v-2.0547zm15.848 0v2.0547h0.33789v-2.0547zm-20.828 0.23047c0.17854 0 0.31915 0.07103 0.42188 0.21289 0.10272 0.14063 0.15429 0.33574 0.15429 0.58398 0 0.24825-0.0516 0.44408-0.15429 0.58594-0.10273 0.14063-0.24334 0.21094-0.42188 0.21094-0.17854 1e-6 -0.31915-0.07031-0.42187-0.21094-0.1015-0.14186-0.15235-0.33769-0.15235-0.58594 0-0.24824 0.0508-0.44335 0.15235-0.58398 0.10272-0.14186 0.24333-0.21289 0.42187-0.21289zm-8.1016 2e-3c0.16631 0 0.30012 0.05596 0.40039 0.16602 0.10128 0.11006 0.15358 0.25675 0.15625 0.44141l-1.2031 2e-3c0.0171-0.19322 0.0808-0.34283 0.19336-0.44922 0.11372-0.10639 0.26479-0.16016 0.45312-0.16016zm18.646 0c0.16632 0 0.29817 0.05596 0.39844 0.16602 0.10128 0.11006 0.15359 0.25675 0.15625 0.44141l-1.2031 2e-3c0.0171-0.19322 0.0828-0.34283 0.19531-0.44922 0.11373-0.10639 0.2648-0.16016 0.45312-0.16016zm5.8945 0c0.16631 0 0.30011 0.05596 0.40039 0.16602 0.10128 0.11006 0.15358 0.25675 0.15625 0.44141l-1.2031 2e-3c0.0171-0.19322 0.0808-0.34283 0.19336-0.44922 0.11373-0.10639 0.2648-0.16016 0.45313-0.16016zm8.5957 0.0039c0.18221 0 0.3216 0.06861 0.42187 0.20312 0.1015 0.13452 0.15235 0.32378 0.15235 0.56836 0 0.24335-0.0508 0.43189-0.15235 0.56641-0.10027 0.13452-0.23966 0.20117-0.42187 0.20117-0.18099 0-0.32233-0.06665-0.42383-0.20117-0.10027-0.13452-0.15039-0.32305-0.15039-0.56641 0-0.24458 0.0501-0.43384 0.15039-0.56836 0.1015-0.13452 0.24284-0.20312 0.42383-0.20312zm-36.842 0.79102h0.33594v0.07422c0 0.22012-0.0562 0.39796-0.16992 0.53125-0.11252 0.13207-0.26212 0.19727-0.44922 0.19727-0.13574 0-0.24473-0.03576-0.32422-0.10547-0.0783-0.07092-0.11719-0.16531-0.11719-0.28516 0-0.15043 0.053-0.25797 0.15821-0.32031 0.10517-0.06235 0.2937-0.0918 0.5664-0.0918zm7.2793 0h0.33594v0.07422c0 0.22012-0.0562 0.39796-0.16993 0.53125-0.11251 0.13207-0.26211 0.19727-0.44921 0.19727-0.13574 0-0.24278-0.03576-0.32227-0.10547-0.0783-0.07092-0.11914-0.16531-0.11914-0.28516 0-0.15043 0.053-0.25797 0.1582-0.32031 0.10517-0.06235 0.2937-0.0918 0.56641-0.0918z" fill="#000000" opacity=".65" stroke-width=".25614"/>
 </g>
</svg>
