<svg width="240" height="240" version="1.1" xmlns="http://www.w3.org/2000/svg">
 <defs>
  <filter id="filter11441" x="-.02646" y="-.021168" width="1.0529" height="1.0423" color-interpolation-filters="sRGB">
   <feGaussianBlur stdDeviation="0.7056"/>
  </filter>
 </defs>
 <rect x="-293.33" y="40" width="533.33" height="200" fill="none" stroke-linecap="round" stroke-linejoin="round" stroke-miterlimit="2" stroke-width="4.326"/>
 <path d="m0 224.44h240v15.556h-240z" fill="#2c2c2c" opacity=".75"/>
 <path d="m108.51 228.04v0.57294h-1.7101v6.8273c0 0.31533 0.2576 0.56858 0.57294 0.56858h4.5529c0.31533 0 0.56857-0.25325 0.56857-0.56858v-6.8273h-1.7101v-0.57294h-2.2742zm17.075 0-2.3047 2.3004h-1.7057v3.4158h1.7578l2.2527 2.2527v-7.9687zm1.1372 0v0.85505c1.3205 0.4212 2.2787 1.6665 2.2787 3.1293s-0.95811 2.7082-2.2787 3.1293v0.85503c1.793-0.44398 3.1293-2.0491 3.1293-3.9844 0-1.9352-1.3364-3.5404-3.1293-3.9844zm-51.789 0.026c-0.5692 0-0.56858 0.56858-0.56858 0.56858v6.8316s-6.22e-4 0.56857 0.56858 0.56857h5.6944s0.56858 6.3e-4 0.56858-0.56857v-6.8316s6.22e-4 -0.56858-0.56858-0.56858zm157.1 0.54689c-0.94309 0-1.7057 0.76702-1.7057 1.7101 0 0.94304 0.76265 1.7057 1.7057 1.7057 0.94311 0 1.7057-0.76269 1.7057-1.7057 0-0.94305-0.7626-1.7101-1.7057-1.7101zm-154.25 0.59071c1.2574 0 2.2742 1.0212 2.2742 2.2787 0 1.2574-1.0169 2.2787-2.2742 2.2787h-2.2787v-2.2787c0-1.2574 1.0212-2.2787 2.2787-2.2787zm-28.578 0.078c-0.69569 0-1.2925 0.19889-1.7925 0.59027l0.39062 0.52084c0.43482-0.32613 0.90189-0.49047 1.4019-0.49047 0.30436 0 0.54222 0.0865 0.71616 0.26043 0.19578 0.15222 0.29513 0.3598 0.29513 0.62066 0 0.34785-0.12111 0.62894-0.36024 0.84636-0.23913 0.19555-0.57213 0.29513-1.0069 0.29513h-0.55556v0.62067h0.55556c0.52178 0 0.898 0.0864 1.1371 0.2604 0.26089 0.174 0.39498 0.43342 0.39498 0.78127 0 0.39131-0.12111 0.6854-0.36024 0.88106-0.23916 0.19556-0.59811 0.29514-1.0764 0.29514-0.54351 0-1.0668-0.12978-1.5668-0.39063v0.71616c0.39133 0.19578 0.9276 0.2908 1.6016 0.2908 0.71742 0 1.258-0.15133 1.6276-0.45573 0.36958-0.32612 0.55556-0.75858 0.55556-1.3021 0-0.82605-0.48871-1.3061-1.467-1.4366 0.84787-0.174 1.2717-0.64964 1.2717-1.4323 0-0.43483-0.15133-0.78514-0.45573-1.046-0.30436-0.28262-0.74118-0.42533-1.3064-0.42533zm-12.578 0.12156c-0.63047-3e-5 -1.2057 0.22486-1.7274 0.68142l0.421 0.49044c0.41307-0.36958 0.84124-0.55555 1.276-0.55555 0.30436 0 0.54222 0.0864 0.71616 0.26042 0.174 0.174 0.26042 0.41613 0.26042 0.72047 0 0.30437-0.07778 0.59844-0.23004 0.88108-0.13044 0.28263-0.4894 0.73672-1.0764 1.3672l-1.4323 1.5321v0.65537h3.7153v-0.68577h-2.8038v-0.0347l1.1415-1.2066c0.587-0.6522 0.96758-1.1496 1.1415-1.4974 0.19556-0.34785 0.29513-0.69816 0.29513-1.046 0-0.47829-0.15133-0.85887-0.45573-1.1415-0.30436-0.28262-0.71953-0.421-1.2413-0.421zm25.378 0.0347-2.7084 4.0104v0.65104h2.7431v1.3368h0.71616v-1.3368h0.88107v-0.68578h-0.88107v-3.9758h-0.75087zm31.731 0.31685c-1.2678 0-2.5353 0.48286-3.5027 1.4496l3.5027 4.2449 3.5027-4.2449c-0.9674-0.96678-2.2347-1.4496-3.5027-1.4496zm-31.667 0.4644h0.03467c-0.04333 0.69569-0.06511 1.2839-0.06511 1.7622v1.4323h-2.0226l1.6927-2.4782c0.13044-0.19578 0.25151-0.43353 0.36024-0.71616zm64.658 0.0998v3.4116c0.60335-0.33013 1.02-0.96578 1.02-1.7057 0-0.73994-0.41093-1.3756-1.02-1.7057zm-48.94 0.026c-0.62873 0-1.1372 0.50845-1.1372 1.1372s0.50844 1.1372 1.1372 1.1372c0.62871 0 1.1372-0.50845 1.1372-1.1372s-0.50844-1.1372-1.1372-1.1372zm154.26 2.8217c-3.4153 2e-3 -3.4158 2.2787-3.4158 2.2787v0.56857h6.8316v-0.56857c2e-5 2e-5 -7.1e-4 -2.2804-3.4158-2.2787z" fill="#ffffff" opacity=".8" stroke-width=".5692"/>
 <path d="m73.222 236.6v-9.1071h9.1071v9.1071z" color="#bebebe" opacity="0" stroke-width="1.7076"/>
 <path d="m98.289 236.6v-9.1071h-9.1071v9.1071z" color="#bebebe" fill="none" stroke-width=".5692"/>
 <path d="m89.178 229.93c2.5149-2.5133 6.5924-2.5133 9.1071 0l-4.5536 5.5138z" fill="#ffffff" opacity=".35" stroke-width=".5692"/>
 <path d="m114.2 227.49v9.1071h-9.1071v-9.1071z" color="#dddddd" fill="none" stroke-width=".5692"/>
 <path d="m121.02 227.47h9.1071v9.1071h-9.1071z" color="#bebebe" fill="none" opacity=".1" stroke-width=".5692"/>
 <path d="m227.49 227.49h9.1071v9.1071h-9.1071z" color="#bebebe" enable-background="new" fill="none" stroke-width=".5692"/>
 <path d="m24.533 235.44h-0.7174v-3.7178q0-0.78264 0.03267-1.4675l-1.1087 0.94571-0.39133-0.48916 1.5653-1.2392h0.6196z" fill="#ffffff" stroke-width=".5692"/>
 <path d="m135.56 224.44h88.889v15.556h-88.889z" fill="#5b9bf8" fill-rule="evenodd" stroke-width="2.1063"/>
 <path d="m197.38 229.36c-0.74176 0-1.3121 0.25598-1.7144 0.76389-0.40228 0.50542-0.60328 1.2261-0.60328 2.1614 0 0.93289 0.20111 1.6535 0.60328 2.1615 0.40232 0.5054 0.97267 0.7552 1.7144 0.7552 0.73922 0 1.3121-0.2498 1.7144-0.7552 0.40231-0.50797 0.60331-1.2286 0.60331-2.1615 0-0.93543-0.20111-1.6561-0.60331-2.1614-0.40231-0.50791-0.97518-0.76389-1.7144-0.76389zm5.382 0c-0.68643 0-1.208 0.12423-1.5625 0.37327-0.35454 0.24891-0.52954 0.60984-0.52951 1.0851 0 0.31933 0.0869 0.58922 0.2604 0.80295 0.17355 0.21378 0.43062 0.36998 0.77257 0.47309-0.3822 0.10556-0.67193 0.27762-0.86806 0.51649-0.19356 0.23636-0.2908 0.53636-0.2908 0.89844 0 0.55818 0.18778 0.98072 0.55991 1.2674 0.37462 0.28413 0.92629 0.42533 1.658 0.42533 0.72917 0 1.2797-0.14111 1.6493-0.42533 0.37213-0.28664 0.55989-0.70918 0.55989-1.2674 0-0.36208-0.0991-0.66208-0.29514-0.89844-0.19355-0.23898-0.48153-0.41102-0.86371-0.51649 0.34196-0.10311 0.59907-0.25935 0.77256-0.47309 0.176-0.21378 0.26475-0.48362 0.26475-0.80295 0-0.47774-0.17933-0.83867-0.53384-1.0851-0.35453-0.24893-0.87242-0.37327-1.5538-0.37327zm13.832 0c-0.68644 0-1.2036 0.12423-1.5582 0.37327-0.35453 0.24891-0.53386 0.60984-0.53386 1.0851 0 0.31933 0.0869 0.58922 0.26042 0.80295 0.17356 0.21378 0.43062 0.36998 0.77258 0.47309-0.3822 0.10556-0.67194 0.27762-0.86807 0.51649-0.19355 0.23636-0.2908 0.53636-0.2908 0.89844 0 0.55818 0.18778 0.98072 0.55991 1.2674 0.37467 0.28413 0.92629 0.42533 1.658 0.42533 0.72918 0 1.2797-0.14111 1.6493-0.42533 0.37213-0.28664 0.55989-0.70918 0.55989-1.2674 0-0.36208-0.0991-0.66208-0.29513-0.89844-0.19356-0.23898-0.48154-0.41102-0.86371-0.51649 0.34195-0.10311 0.59908-0.25935 0.77255-0.47309 0.176-0.21378 0.26476-0.48362 0.26476-0.80295 0-0.47774-0.17934-0.83867-0.53385-1.0851-0.35453-0.24893-0.87242-0.37327-1.5538-0.37327zm-36.093 0.0911-1.3064 0.27345v0.98524l1.3151-0.26909v3.6371h-1.2804v1.007h3.9367v-1.007h-1.2847v-4.6267h-1.3802zm-39.48 4e-3v1.0981h1.8707v4.5313h1.4496v-4.5313h1.8663v-1.0981h-5.1867zm18.52 0v5.6293h1.3802v-3.8629l2.0443 3.8629h1.6233v-5.6293h-1.3759v3.8584l-2.0486-3.8584zm26.758 9e-3 -2.2527 3.3593v1.2457h2.4956v1.0243h1.3715v-1.024h0.80295v-1.0547h-0.80295v-3.5504h-1.6146zm24.827 0-2.2527 3.3593v1.2457h2.4956v1.0243h1.3715v-1.024h0.80294v-1.0547h-0.80294v-3.5504h-1.6146zm-8.3638 0.80729c0.22625 0 0.40192 0.0616 0.52518 0.18222 0.12334 0.11822 0.18667 0.28835 0.18667 0.51213 0 0.22389-0.0633 0.39591-0.18667 0.51651-0.12311 0.12067-0.29889 0.18223-0.52518 0.18223-0.23126 0-0.40806-0.0616-0.53384-0.18223-0.12333-0.12066-0.18667-0.29273-0.18667-0.51651 0-0.22111 0.0633-0.3914 0.18667-0.51213 0.12578-0.12067 0.30253-0.18222 0.53384-0.18222zm13.832 0c0.22624 0 0.40191 0.0616 0.52518 0.18222 0.12333 0.11822 0.18666 0.28835 0.18666 0.51213 0 0.22389-0.0633 0.39591-0.18666 0.51651-0.12312 0.12067-0.29889 0.18223-0.52518 0.18223-0.23127 0-0.40807-0.0616-0.53385-0.18223-0.12333-0.12066-0.18666-0.29273-0.18666-0.51651 0-0.22111 0.0633-0.3914 0.18666-0.51213 0.12578-0.12067 0.30254-0.18222 0.53385-0.18222zm-19.214 0.0824c0.31174 0 0.53325 0.14489 0.66405 0.43405 0.13311 0.28662 0.19978 0.78031 0.19978 1.4844 0 0.71158-0.0665 1.2144-0.19978 1.5061-0.13333 0.29167-0.35478 0.43836-0.66405 0.43836-0.31186 0-0.53088-0.14667-0.66406-0.43836-0.13311-0.29167-0.19978-0.79451-0.19978-1.5061 0-0.70402 0.0664-1.1977 0.19978-1.4844 0.13333-0.28918 0.35229-0.43405 0.66406-0.43405zm-10.838 0.30382v2.3569h-1.5929zm24.827 0v2.3569h-1.5929zm-57.804 0.0998c-0.72918 0-1.3014 0.19978-1.7188 0.59462-0.41486 0.39476-0.625 0.93431-0.625 1.6233 0 0.70151 0.21134 1.2466 0.63369 1.6363 0.42494 0.38722 1.0238 0.5816 1.7882 0.5816 0.31931 0 0.63551-0.0327 0.95485-0.0956 0.31933-0.0602 0.63986-0.14844 0.9592-0.26909v-1.0417c-0.31429 0.17089-0.62091 0.3008-0.92014 0.38626-0.29671 0.0829-0.58826 0.12156-0.8724 0.12156-0.35202 0-0.62417-0.0802-0.82031-0.23871-0.196-0.15845-0.31013-0.395-0.34286-0.7118h3.1553v-0.38196c0-0.66882-0.19911-1.2061-0.59896-1.6059-0.39729-0.3998-0.92909-0.59897-1.5929-0.59897zm14.388 0.0133c-0.72918 0-1.2977 0.19378-1.7101 0.58596-0.40986 0.39224-0.61633 0.93796-0.61633 1.6319 0 0.69398 0.20644 1.2354 0.61633 1.6276 0.41236 0.39227 0.98089 0.59029 1.7101 0.59029 0.72669 0 1.2941-0.198 1.7014-0.59029 0.40986-0.39224 0.61633-0.93362 0.61633-1.6276 0-0.69397-0.20644-1.2397-0.61633-1.6319-0.40731-0.39224-0.97469-0.58596-1.7014-0.58596zm-21.94 0.0824v2.5824h-4e-3c0 0.57078 0.128 1.0029 0.38194 1.3021 0.25646 0.2992 0.62764 0.4514 1.1155 0.45138 0.27405 0 0.52456-0.058 0.75087-0.17356 0.2288-0.11822 0.44738-0.30046 0.65105-0.54686v0.61198h1.3498v-4.2276h-1.3498v2.0877c0 0.38471-0.0822 0.68653-0.24307 0.90278-0.16089 0.21622-0.38242 0.32117-0.66407 0.32117-0.11555 0-0.21755-0.0222-0.30815-0.0693-0.0878-0.0478-0.16156-0.116-0.21711-0.204-0.0429-0.068-0.0691-0.17711-0.0869-0.32551-0.0178-0.15089-0.0305-0.39407-0.0305-0.73351 0-0.11578 1e-3 -0.34565 4e-3 -0.69011 2e-3 -0.347 4e-3 -0.63489 4e-3 -0.86371v-0.42536h-1.3542zm24.696 0.0222 1.658 4.2231h1.4844l1.6623-4.2231h-1.3542l-1.0504 2.9167-1.0503-2.9167zm35.602 0v1.4583h1.3628v-1.4583zm-52.756 0.78125c0.2414 0 0.4376 0.0802 0.58596 0.23871 0.15089 0.156 0.22569 0.35984 0.22569 0.61633h-1.7535c0.0402-0.27667 0.14467-0.48791 0.30815-0.63369 0.16334-0.14822 0.37218-0.22133 0.63367-0.22133zm14.397 0.0782c0.2942 0 0.52118 0.10933 0.67709 0.32551 0.156 0.21378 0.23437 0.524 0.23437 0.92882s-0.0784 0.7126-0.23437 0.92882c-0.156 0.21378-0.38289 0.32118-0.67709 0.32118-0.29922 0-0.52736-0.10733-0.68578-0.32118-0.156-0.21622-0.23436-0.524-0.23436-0.92882s0.0785-0.71509 0.23436-0.92882c0.15844-0.21622 0.38656-0.32551 0.68578-0.32551zm34.809 0.83766c0.26911 0 0.4774 0.0773 0.62066 0.22569 0.14334 0.14578 0.21267 0.35894 0.21267 0.63803 0 0.27657-0.0693 0.48533-0.21267 0.63368-0.14333 0.14578-0.35162 0.22134-0.62066 0.22134-0.2716 0-0.47923-0.0756-0.625-0.22134-0.14578-0.14844-0.21711-0.35711-0.21711-0.63368-3e-5 -0.27658 0.0711-0.48967 0.21711-0.63803 0.14577-0.14844 0.35344-0.22569 0.625-0.22569zm13.832 0c0.26909 0 0.4774 0.0773 0.62067 0.22569 0.14333 0.14578 0.21266 0.35894 0.21266 0.63803 0 0.27657-0.0693 0.48533-0.21266 0.63368-0.14334 0.14578-0.35163 0.22134-0.62067 0.22134-0.27162 0-0.47922-0.0756-0.625-0.22134-0.14578-0.14844-0.21711-0.35711-0.21711-0.63368 0-0.27658 0.0713-0.48967 0.21711-0.63803 0.14578-0.14844 0.35344-0.22569 0.625-0.22569zm-26.74 1.0547v1.1502l-0.3776 1.4062h0.80293l0.93318-1.4062v-1.1502zm16.458 0.0133v1.4583h1.3628v-1.4583z" fill="#ffffff" stroke-width=".52667"/>
 <rect transform="matrix(2.2222 0 0 2.2222 -293.33 -182.22)" x="174" y="102" width="64" height="80" rx="6" ry="6" fill="#000000" filter="url(#filter11441)" opacity=".5" stroke-linecap="round" stroke-linejoin="round" stroke-miterlimit="2" stroke-width="4.2237"/>
 <rect x="93.333" y="42.222" width="142.22" height="177.78" rx="13.333" ry="13.333" fill="#2c2c2c"/>
 <path d="m131.04 49.489v2.0052c-0.16444-0.218-0.34675-0.37956-0.54689-0.48178-0.19777-0.10467-0.42782-0.15622-0.68575-0.15622-0.46025 0-0.83709 0.18444-1.1328 0.55122-0.29571 0.36464-0.44271 0.83471-0.44271 1.4106s0.14688 1.0437 0.44271 1.4106c0.29573 0.36464 0.67257 0.54687 1.1328 0.54687 0.26015 0 0.49224-0.04978 0.69011-0.152 0.19778-0.10222 0.378-0.26164 0.54253-0.48176v0.53818h1.1979v-5.1909h-1.1979zm40.2 0.01333v5.1909h1.1936v-0.5382c0.16445 0.21778 0.34678 0.37718 0.54687 0.48178 0.2 0.10222 0.42995 0.152 0.69011 0.152 0.46027 0 0.83711-0.18222 1.1328-0.54687 0.29571-0.36689 0.44269-0.83476 0.44269-1.4106 0-0.57589-0.14689-1.0503-0.44269-1.4149-0.29571-0.36687-0.67255-0.54687-1.1328-0.54687-0.26016 0-0.49 0.05156-0.69011 0.15622-0.2 0.10222-0.38234 0.25953-0.54687 0.47744v-2.0009h-1.1936zm36.289 0.10422c-0.65593 0-1.1634 0.2236-1.5191 0.67273-0.35573 0.44693-0.53384 1.087-0.53384 1.9141 0 0.82491 0.17822 1.4606 0.53384 1.9097 0.35576 0.44689 0.86318 0.6684 1.5191 0.6684 0.65369 0 1.159-0.22156 1.5148-0.6684 0.35575-0.44916 0.53384-1.0848 0.53384-1.9097 0-0.82711-0.178-1.4671-0.53384-1.9141-0.35576-0.44913-0.86107-0.67273-1.5148-0.67273zm-4.8784 0.01778c-0.27129 0-0.54662 0.02689-0.829 0.07822-0.28238 0.04889-0.57034 0.12133-0.85938 0.21689v1.0938c0.27127-0.16911 0.52598-0.29316 0.76389-0.3776 0.23791-0.08689 0.45962-0.13022 0.65971-0.13022 0.26016 0 0.46504 0.07044 0.62067 0.21267 0.15777 0.14222 0.23871 0.33078 0.23871 0.56424 0 0.15111-0.0393 0.29387-0.11711 0.43402-0.0778 0.14-0.198 0.28287-0.36025 0.42969l-1.8186 1.6059v0.94184h3.6198v-0.94184h-2.1918l1.0634-0.93316c0.44907-0.39353 0.74529-0.70838 0.88543-0.94184 0.14022-0.23567 0.20822-0.48829 0.20822-0.75953 0-0.46916-0.16356-0.83573-0.49478-1.0981-0.32907-0.2624-0.79302-0.39498-1.3889-0.39498zm-14.809 0.07822-1.1545 0.23871v0.87673l1.1632-0.24304v3.2204h-1.1328v0.88542h3.4809v-0.88542h-1.1328v-4.0929h-1.224zm5.1347 0-1.9922 2.9731v1.1024h2.2092v0.90713h1.2109v-0.90713h0.7118v-0.93316h-0.7118v-3.1424h-1.428zm18.854 0-1.1588 0.23871v0.87673l1.1632-0.24304v3.2204h-1.1328v0.88542h3.4809v-0.88542h-1.1328v-4.0929h-1.2196zm-101.34 0.0044v0.97222h1.6536v4.006h1.2847v-4.006h1.6536v-0.97222h-4.592zm34.184 0v4.9782h1.2196v-3.4116l1.8099 3.4116h1.4323v-4.9782h-1.2153v3.4158l-1.8099-3.4158zm70.433 0v0.94618h2.4002l-1.8403 4.0322h1.2543l1.9401-4.2536v-0.72482h-3.7542zm-7.5824 0.77691c0.27578 0 0.47038 0.12622 0.58593 0.38196 0.118 0.25347 0.178 0.69256 0.178 1.3151 0 0.62924-0.06 1.0745-0.178 1.3325-0.11777 0.25791-0.31246 0.38629-0.58593 0.38629-0.27562 0-0.47236-0.12844-0.59029-0.38629-0.118-0.25793-0.178-0.70322-0.178-1.3325-2e-5 -0.62253 0.06-1.0616 0.178-1.3151 0.11778-0.25573 0.31458-0.38196 0.59029-0.38196zm-14.34 0.27783v2.0833h-1.4062zm-58.211 0.09111c-0.25794 0-0.51467 0.01778-0.77258 0.052-0.25791 0.03111-0.51253 0.07667-0.76822 0.13889v0.91147c0.18911-0.10222 0.39184-0.17867 0.61198-0.23004 0.22022-0.05133 0.46044-0.078 0.71615-0.078 0.31573 0 0.54547 0.04556 0.69445 0.13444 0.14888 0.08667 0.22568 0.22333 0.22568 0.41231v0.09556h-0.70746c-0.64482 0-1.1169 0.09933-1.4193 0.30382-0.30015 0.20467-0.4514 0.52984-0.4514 0.96789 0 0.36018 0.12022 0.64993 0.36025 0.87673 0.24235 0.22456 0.55928 0.33853 0.94617 0.33853 0.2868 0 0.52907-0.04978 0.72918-0.152 0.2-0.10444 0.38245-0.27233 0.54253-0.49913v0.55556h1.2023v-2.1311c0-0.59813-0.15133-1.0288-0.4514-1.2934-0.29793-0.26682-0.78462-0.40364-1.4583-0.40364zm17.144 0c-0.64478 0-1.1501 0.174-1.5148 0.52082-0.3624 0.34684-0.54253 0.82729-0.54253 1.441 0 0.61367 0.18022 1.0941 0.54253 1.441 0.36467 0.34684 0.86998 0.52082 1.5148 0.52082 0.6426 0 1.1459-0.174 1.5061-0.52082 0.36242-0.34684 0.54253-0.82731 0.54253-1.441s-0.18022-1.0941-0.54253-1.441c-0.36018-0.34687-0.86349-0.52082-1.5061-0.52082zm-30.529 0.0044c-0.6448 0-1.15 0.176-1.5191 0.52518-0.36687 0.34909-0.55122 0.82742-0.55122 1.4366 0 0.62036 0.18644 1.1007 0.55991 1.4453 0.37575 0.34242 0.90393 0.51649 1.5798 0.51649 0.28238 0 0.564-0.02667 0.84636-0.08244 0.2824-0.05333 0.56398-0.13644 0.84635-0.24307v-0.92013c-0.27793 0.15111-0.54704 0.26731-0.81162 0.34287-0.26235 0.07356-0.52133 0.10844-0.77258 0.10844-0.31128 0-0.55137-0.07245-0.72482-0.21267-0.17333-0.14-0.27478-0.34918-0.30382-0.62933h2.7909v-0.33856c0-0.59142-0.176-1.0657-0.52951-1.4193-0.35129-0.35353-0.8236-0.52951-1.4106-0.52951zm4.2838 0c-0.56031 0-0.9744 0.09533-1.2457 0.28647-0.27127 0.19111-0.40798 0.48529-0.40798 0.88107 0 0.36687 0.10778 0.6402 0.32118 0.82031 0.21333 0.18022 0.58404 0.30227 1.1154 0.36893l0.21267 0.026c0.2424 0.02911 0.40178 0.07267 0.48178 0.126 0.0824 0.05111 0.12578 0.12778 0.12578 0.23436 0 0.12667-0.06 0.22178-0.178 0.28647-0.11778 0.06467-0.29605 0.09978-0.52951 0.09978-0.25792 0-0.50829-0.02911-0.75954-0.08689-0.24902-0.05778-0.49562-0.14489-0.73351-0.26042v0.90713c0.27791 0.07778 0.54927 0.13578 0.81162 0.17356 0.2646 0.04 0.52143 0.05644 0.76823 0.05644 0.58255 0 1.0173-0.09933 1.3108-0.29947 0.29349-0.20022 0.44271-0.49611 0.44271-0.89411 0-0.3802-0.10555-0.65978-0.31684-0.83767-0.21133-0.17778-0.6212-0.30836-1.2326-0.38629l-0.21267-0.03045c-0.21578-0.02422-0.36696-0.06155-0.4514-0.11289-0.0824-0.05111-0.12156-0.12133-0.12156-0.21711 0-0.11778 0.0558-0.20467 0.16489-0.26042 0.11111-0.05778 0.27669-0.08689 0.50349-0.08689 0.21111 0 0.43916 0.02489 0.67709 0.07822 0.23791 0.05333 0.48213 0.132 0.73784 0.23871v-0.90711c-0.28462-0.07133-0.54757-0.12289-0.78993-0.15622-0.24235-0.03333-0.47433-0.04778-0.69444-0.04778zm35.387 0c-0.64482 0-1.15 0.176-1.5191 0.52518-0.36686 0.34909-0.55122 0.82742-0.55122 1.4366 0 0.62036 0.18644 1.1007 0.55991 1.4453 0.37576 0.34242 0.90393 0.51649 1.5799 0.51649 0.28238 0 0.56398-0.02667 0.84635-0.08244 0.28236-0.05333 0.56396-0.13644 0.84634-0.24307v-0.92013c-0.27794 0.15111-0.54705 0.26731-0.81163 0.34287-0.26237 0.07356-0.52133 0.10844-0.77257 0.10844-0.31129 0-0.5514-0.07245-0.72483-0.21267-0.17333-0.14-0.27477-0.34918-0.30382-0.62933h2.7909v-0.33856c0-0.59142-0.176-1.0657-0.52951-1.4193-0.35131-0.35353-0.8236-0.52951-1.4106-0.52951zm16.654 0c-0.6448 0-1.15 0.176-1.5191 0.52518-0.36685 0.34909-0.5512 0.82742-0.5512 1.4366 0 0.62036 0.18644 1.1007 0.55989 1.4453 0.37575 0.34242 0.89957 0.51649 1.5755 0.51649 0.28238 0 0.56398-0.02667 0.84635-0.08244 0.28238-0.05333 0.56834-0.13644 0.85071-0.24307v-0.92013c-0.27793 0.15111-0.5514 0.26731-0.81597 0.34287-0.26238 0.07356-0.51698 0.10844-0.76825 0.10844-0.31126 0-0.55573-0.07245-0.72915-0.21267-0.17334-0.14-0.27478-0.34918-0.30383-0.62933h2.7909v-0.33856c0-0.59142-0.176-1.0657-0.52951-1.4193-0.35131-0.35353-0.81926-0.52951-1.4062-0.52951zm5.2778 0c-0.27791 0-0.51605 0.06022-0.71616 0.17356-0.19778 0.11111-0.37175 0.28927-0.52518 0.53387v-0.61631h-1.1936v3.7369h1.1936v-1.7231c0-0.36687 0.0829-0.64633 0.2474-0.842 0.16689-0.198 0.40063-0.29513 0.70747-0.29513 0.10444 0 0.21022 0.01111 0.31249 0.03467 0.10444 0.02222 0.208 0.05956 0.31251 0.10844l-4e-3 -1.0807c-0.0889-0.01111-0.15712-0.01778-0.204-0.02222-0.0469-0.0044-0.0902-0.0089-0.13023-0.0089zm-16.758 0.013379c-0.229 0-0.43811 0.054-0.62933 0.16067-0.18889 0.10667-0.35667 0.26187-0.50349 0.47311v-0.54689h-1.2022v3.7369h1.2022v-1.8359c2e-5 -0.34909 0.0622-0.62051 0.18666-0.80729 0.12445-0.18889 0.30049-0.28211 0.52951-0.28211 0.18245 0 0.31085 0.06222 0.38196 0.18222 0.0711 0.11778 0.10422 0.38069 0.10422 0.79427v1.9488h1.2023v-1.8359c4e-3 -0.35353 0.0687-0.62051 0.19089-0.80729 0.12444-0.18667 0.29838-0.28211 0.52518-0.28211 0.17333 0 0.29968 0.06222 0.3776 0.18222 0.078 0.11778 0.11711 0.30831 0.11711 0.57291 0 0.05778-1e-3 0.09911-4e-3 0.13022 0 0.03111-1e-3 0.062-4e-3 0.09111v1.9488h1.2023v-2.2742c0-0.50471-0.114-0.88993-0.33855-1.1545-0.22456-0.26458-0.55178-0.39496-0.98089-0.39496-0.24904 0-0.47678 0.06-0.68578 0.18222-0.20511 0.11911-0.38344 0.29238-0.53384 0.52082-0.10222-0.22309-0.25445-0.39262-0.4514-0.51649-0.198-0.12444-0.42785-0.18667-0.68576-0.18667zm-51.531 0.08244v2.2829c0 0.50473 0.10955 0.88993 0.3342 1.1545 0.22678 0.26462 0.55822 0.39498 0.98958 0.39498 0.24233 0 0.46395-0.04978 0.66406-0.152 0.20222-0.10444 0.3928-0.26387 0.57291-0.48178v0.5382h1.1936v-3.7369h-1.1936v1.8446c0 0.34018-0.0704 0.6074-0.21266 0.7986-0.14223 0.19133-0.33691 0.28647-0.58594 0.28647-0.10244 0-0.19355-0.02267-0.27344-0.06511-0.078-0.042-0.142-0.1-0.19089-0.178-0.0378-0.06-0.0669-0.15511-0.0824-0.28644-0.0156-0.13333-0.0222-0.35089-0.0222-0.65104 0-0.10222 1e-3 -0.30738 4e-3 -0.61198 2e-3 -0.30684 4e-3 -0.56158 4e-3 -0.76389v-0.37327zm22.396 0.0044 1.6667 3.8758-0.0347 0.10422c-0.0513 0.16667-0.12377 0.28262-0.21711 0.34722-0.0911 0.06467-0.23604 0.09555-0.43835 0.09555h-0.37763v0.78558h0.69445c0.34464 0 0.62-0.08489 0.829-0.25173 0.21133-0.16444 0.39335-0.45227 0.55122-0.86807l1.5712-4.0884h-1.1936l-0.85069 2.5347-1.007-2.5347zm17.253 0 1.467 3.7327h1.3108l1.4714-3.7327h-1.1979l-0.92446 2.5782-0.93318-2.5782zm-32.964 0.69449c0.21333 0 0.38524 0.06822 0.51648 0.20822 0.13334 0.13778 0.19978 0.32009 0.19978 0.54687h-1.5495c0.0356-0.24464 0.12445-0.431 0.26909-0.55989 0.14445-0.13133 0.333-0.19533 0.56425-0.19533zm39.671 0c0.21333 0 0.38524 0.06822 0.51649 0.20822 0.13333 0.13778 0.19977 0.32009 0.19977 0.54687h-1.5495c0.0356-0.24464 0.12445-0.431 0.26912-0.55989 0.14444-0.13133 0.33297-0.19533 0.56422-0.19533zm16.649 0c0.21333 0 0.38958 0.06822 0.52084 0.20822 0.13334 0.13778 0.19956 0.32009 0.19956 0.54687h-1.5538c0.0356-0.24464 0.12889-0.431 0.27344-0.55989 0.14445-0.13133 0.32867-0.19533 0.55989-0.19533zm-25.787 0.05644c0.26023 0 0.4612 0.09533 0.59898 0.28647 0.13778 0.18889 0.204 0.46233 0.204 0.82031s-0.0662 0.63344-0.204 0.82464c-0.13778 0.18889-0.33882 0.28213-0.59898 0.28213-0.26449 0-0.46749-0.09311-0.60762-0.28213-0.13778-0.19111-0.204-0.46667-0.204-0.82464s0.0662-0.63133 0.204-0.82031c0.14-0.19133 0.34305-0.28647 0.60762-0.28647zm-21.871 0.01778c0.25575 0 0.4526 0.09111 0.58593 0.27778 0.13578 0.18689 0.204 0.46024 0.204 0.81598 0 0.35576-0.0682 0.62487-0.204 0.81164-0.13333 0.18667-0.33024 0.28211-0.58593 0.28211-0.25343 0-0.44589-0.09533-0.5816-0.28211-0.13334-0.18689-0.19956-0.45589-0.19956-0.81164 0-0.35573 0.0665-0.6292 0.19956-0.81598 0.13555-0.18667 0.32811-0.27778 0.5816-0.27778zm42.978 0.01333c0.25576 0 0.44827 0.09111 0.5816 0.27778 0.13578 0.18689 0.204 0.46022 0.204 0.81598s-0.0682 0.62487-0.204 0.81164c-0.13333 0.18667-0.32591 0.28211-0.5816 0.28211-0.2558 0-0.45248-0.09533-0.59026-0.28211-0.13578-0.18889-0.204-0.45811-0.204-0.81164s0.0682-0.62484 0.204-0.81162c0.13778-0.18889 0.33455-0.28213 0.59026-0.28213zm-38.164 1.2587h0.62067v0.13889c0 0.24238-0.0767 0.44533-0.23005 0.60764-0.15333 0.16-0.344 0.23871-0.56858 0.23871-0.18022 0-0.32311-0.04133-0.42533-0.12578-0.10022-0.08667-0.14755-0.20467-0.14755-0.35591 0-0.16467 0.0622-0.28882 0.18666-0.37327 0.12667-0.08444 0.3152-0.13022 0.56422-0.13022zm61.076 0.39062v1.0156l-0.3342 1.2457h0.70746l0.82465-1.2457v-1.0156zm-49.562 12.292v5.1909h0.61634v-0.55989c0.12889 0.22227 0.29042 0.38576 0.48611 0.49478 0.19778 0.10667 0.43398 0.16067 0.70746 0.16067 0.45358 0 0.82005-0.178 1.1024-0.5382 0.2846-0.3602 0.42969-0.83662 0.42969-1.4236 0-0.587-0.14512-1.0591-0.42969-1.4193-0.28238-0.36018-0.64885-0.54253-1.1024-0.54253-0.27348 0-0.5096 0.05578-0.70746 0.16489-0.19578 0.10667-0.35722 0.27244-0.48611 0.4948v-2.0226h-0.61634zm-33.242 0.152-2.8471 2.8429 2.8471 2.8471v-5.6902zm51.22 0v5.6902l2.8471-2.8471-2.8471-2.8429zm16.523 0-2.8471 2.8429 2.8471 2.8471v-5.6902zm34.722 0v5.6902l2.8471-2.8471-2.8471-2.8429zm-93.369 0.05644v4.9782h0.65538v-4.1667l2.2049 4.1667h0.90711v-4.9782h-0.65104v4.1622l-2.2092-4.1622zm72.887 0.0089c-0.51584 0-0.9094 0.21111-1.1762 0.63802-0.24904 0.40911-0.37326 1.0303-0.37326 1.8663 0 0.83602 0.12422 1.4698 0.37326 1.8967 0.26682 0.40911 0.66038 0.61198 1.1762 0.61198 0.53363 0 0.92285-0.20289 1.1719-0.61198 0.26682-0.42689 0.40365-1.0607 0.40365-1.8967 0-0.83602-0.13689-1.4572-0.40365-1.8663-0.24902-0.42691-0.63824-0.63802-1.1719-0.63802zm-3.8542 0.02222c-0.51582 0-0.98802 0.18644-1.4149 0.55991l0.34722 0.40364c0.33796-0.30238 0.68593-0.45573 1.0417-0.45573 0.24911 0 0.44373 0.07044 0.58595 0.21267 0.14223 0.14222 0.21267 0.33691 0.21267 0.58593s-0.0622 0.48927-0.18667 0.72049c-0.10666 0.23124-0.40082 0.60831-0.88106 1.1241l-1.1719 1.2543v0.52953h3.0424v-0.55991h-2.296v-0.026l0.93318-0.98522c0.48034-0.53362 0.79094-0.94371 0.93316-1.2283 0.16-0.2846 0.24304-0.57042 0.24304-0.85502 0-0.39133-0.12422-0.70193-0.37326-0.93318-0.24903-0.23124-0.58869-0.34722-1.0156-0.34722zm7.6084 0.052-1.2804 1.0156 0.31684 0.39931 0.90711-0.77258c-0.0178 0.37356-0.026 0.77536-0.026 1.2023v3.0382h0.59029v-4.8829h-0.50786zm2.1875 0.0044v0.55991h2.5347l-1.8924 4.3187h0.63802l1.8706-4.4011v-0.47744h-3.1511zm-5.9418 0.45573c0.30238 0 0.53436 0.14067 0.69444 0.42536 0.17778 0.28458 0.26476 0.79804 0.26476 1.5451 0 0.76487-0.0869 1.2909-0.26476 1.5755-0.16 0.28458-0.39206 0.42533-0.69444 0.42533-0.28462 0-0.51658-0.13244-0.69444-0.39931-0.16-0.2846-0.23872-0.81891-0.23872-1.6016 0-0.76487 0.0787-1.2783 0.23872-1.5451 0.17777-0.2846 0.40982-0.42536 0.69444-0.42536zm-58.016 0.59896c-0.56031 0-1.0055 0.178-1.3368 0.5382-0.32906 0.35798-0.49478 0.84256-0.49478 1.454 0 0.59142 0.174 1.0637 0.52083 1.4106 0.34911 0.34687 0.8234 0.51651 1.4193 0.51651 0.23791 0 0.47191-0.02 0.70314-0.06956 0.23124-0.04889 0.45695-0.12356 0.67709-0.21689v-0.57727c-0.218 0.11556-0.43738 0.20267-0.65974 0.26042-0.22022 0.05778-0.45009 0.08689-0.68575 0.08689-0.40689 0-0.72585-0.10978-0.95487-0.32984-0.22682-0.22236-0.35093-0.54542-0.3776-0.96789h2.8211v-0.29949c0-0.55587-0.14911-0.99704-0.44271-1.3194-0.29127-0.32462-0.68673-0.48611-1.1892-0.48611zm15.208 0c-0.56031 0-1.0055 0.178-1.3368 0.5382-0.32905 0.35798-0.49045 0.84256-0.49045 1.454 0 0.59142 0.16956 1.0637 0.51649 1.4106 0.34907 0.34687 0.8234 0.51651 1.4193 0.51651 0.23791 0 0.47189-0.02 0.70313-0.06956 0.23122-0.04889 0.45696-0.12356 0.67709-0.21689v-0.57727c-0.218 0.11556-0.43738 0.20267-0.65973 0.26042-0.22 0.05778-0.44571 0.08689-0.68143 0.08689-0.40688 0-0.72584-0.10978-0.95486-0.32984-0.2268-0.22236-0.35527-0.54542-0.38194-0.96789h2.8211v-0.29949c0-0.55587-0.14489-0.99704-0.43836-1.3194-0.29129-0.32462-0.69109-0.48611-1.1936-0.48611zm4.4836 0c-0.29571 0-0.54842 0.05378-0.7552 0.16489-0.20688 0.10889-0.37457 0.27669-0.50346 0.50347v-0.57724h-0.61634v3.7327h0.61634v-1.9662c0-0.42244 0.0933-0.74767 0.27778-0.97222 0.18666-0.2268 0.45175-0.33853 0.7986-0.33853 0.0978 0 0.18911 0.01111 0.26911 0.03044 0.0822 0.01778 0.15666 0.04689 0.22569 0.08689l-4e-3 -0.62933c-0.0624-0.01111-0.11822-0.01778-0.16933-0.02222-0.0511-0.0067-0.0967-0.01333-0.13889-0.01333zm-15.26 0.0089c-0.26904 0-0.4988 0.05155-0.69444 0.16067-0.19556 0.10889-0.36334 0.27878-0.50349 0.5078v-0.5816h-0.62065v3.7369h0.62065v-2.1094c0-0.3624 0.0889-0.65247 0.27344-0.86371 0.18467-0.21356 0.43738-0.31684 0.75087-0.31684 0.26451 0 0.45913 0.08267 0.58593 0.25609 0.12689 0.17111 0.19089 0.4384 0.19089 0.7986v2.2353h0.61631v-2.1094c0-0.36462 0.0931-0.65247 0.27778-0.86371 0.18444-0.21133 0.43291-0.31684 0.75089-0.31684 0.26004 0 0.45478 0.08267 0.58158 0.25609 0.12688 0.17333 0.19088 0.44064 0.19088 0.7986v2.2353h0.61634v-2.2569c-2e-5 -0.50251-0.10556-0.8876-0.31685-1.1589-0.21133-0.27343-0.51369-0.40794-0.90277-0.40794-0.28907 0-0.53743 0.064-0.75087 0.19533-0.21267 0.13067-0.39818 0.33356-0.55122 0.60764-0.0911-0.26244-0.23416-0.46118-0.42536-0.59896-0.18889-0.13778-0.41884-0.204-0.69009-0.204zm-12.76 0.0044c-0.53585 0-0.95407 0.174-1.2587 0.52084-0.30238 0.34684-0.45574 0.82729-0.45574 1.441 0 0.61142 0.15334 1.0919 0.45574 1.441 0.30462 0.34684 0.72284 0.52084 1.2587 0.52084 0.53364 0 0.95406-0.174 1.2587-0.52084 0.3046-0.34909 0.45572-0.82953 0.45572-1.441 0-0.61369-0.15112-1.0941-0.45572-1.441-0.30462-0.34687-0.72504-0.52084-1.2587-0.52084zm2.3004 0.09111 1.4019 3.7369h0.83333l1.4019-3.7369h-0.65103l-1.1676 3.1338-1.1675-3.1338zm6.0373 0.41667c0.3024 0 0.54251 0.09933 0.72483 0.29947 0.18444 0.20022 0.27768 0.46722 0.28213 0.80296l-2.1875 0.0044c0.0311-0.35129 0.15133-0.62253 0.35591-0.81596 0.20667-0.19356 0.48224-0.2908 0.82464-0.2908zm15.208 0c0.3024 0 0.54684 0.09933 0.72918 0.29947 0.18444 0.20022 0.27766 0.46722 0.28211 0.80296l-2.1875 0.0044c0.0311-0.35129 0.14689-0.62253 0.35155-0.81596 0.20689-0.19356 0.48225-0.2908 0.82465-0.2908zm-4.2796 0.0089c0.32462 0 0.57502 0.12844 0.75956 0.38629 0.18666 0.25569 0.28211 0.60767 0.28211 1.059 0 0.45136-0.0953 0.80544-0.28211 1.0634-0.18445 0.25571-0.43494 0.38629-0.75956 0.38629-0.32464 0-0.58146-0.13067-0.76822-0.38629-0.18444-0.25791-0.27778-0.612-0.27778-1.0634 0-0.45138 0.0933-0.80336 0.27778-1.059 0.18667-0.25791 0.44358-0.38629 0.76822-0.38629zm-19.266 0.0044c0.32686 0 0.58569 0.13044 0.77691 0.39062 0.19111 0.25791 0.28644 0.60787 0.28644 1.0504 0 0.44467-0.0953 0.79676-0.28644 1.0547-0.19133 0.25796-0.45005 0.38629-0.77691 0.38629-0.33129 0-0.5944-0.12622-0.7856-0.38193-0.18889-0.25791-0.28211-0.61213-0.28211-1.059 0-0.44693 0.0951-0.799 0.28646-1.0547 0.19111-0.25793 0.4522-0.38629 0.78125-0.38629z" fill="#ffffff" opacity=".8" stroke-width=".5692"/>
 <path d="m113.56 101.42h-2.7038v-0.47433l1.0435-1.1147q0.64036-0.68776 0.78267-0.99609 0.166-0.30833 0.166-0.64036 0-0.33204-0.18978-0.52176-0.18978-0.18978-0.52176-0.18978-0.47435 0-0.92495 0.4032l-0.30834-0.35576q0.56923-0.49807 1.257-0.49807 0.56922 0 0.90127 0.30833 0.33202 0.30831 0.33202 0.83009 0 0.37947-0.21333 0.75893-0.18978 0.37947-0.83009 1.091l-0.83009 0.87749v0.0236h2.0396z" fill="#cfd8dc" fill-opacity=".54" stroke-width=".5692"/>
 <path d="m114.58 101.42v-0.4506q0.21333 0.0711 0.49804 0.0711 1.3044 0 1.3518-1.755h-0.0236q-0.2846 0.52178-0.92496 0.52178-0.56917 0-0.90122-0.35576-0.33202-0.35573-0.33202-0.97238 0-0.68778 0.35573-1.0672 0.37947-0.37949 0.9724-0.37949 0.61663 0 1.0198 0.49807 0.4032 0.47433 0.4032 1.3993 0 1.2807-0.47435 1.9211-0.47434 0.61662-1.423 0.61662-0.33202 0-0.52176-0.0476zm0.97237-2.0396q0.37947 0 0.64036-0.23716 0.26089-0.2372 0.26089-0.56922 0-0.47433-0.26089-0.78264-0.26089-0.30833-0.61662-0.30833-0.40318 0-0.61665 0.26089-0.18977 0.23716-0.18977 0.73524 0 0.4506 0.18977 0.68776 0.21334 0.21333 0.59291 0.21333z" fill="#cfd8dc" fill-opacity=".54" stroke-width=".5692"/>
 <path d="m112.64 117.58v-0.52176q0.42689 0.2846 1.091 0.2846 0.47431 0 0.71147-0.23715 0.26089-0.2372 0.26089-0.6878 0-0.45063-0.26089-0.66407-0.23716-0.21333-0.75891-0.21333-0.26089 0-0.66407 0.0711l-0.28462-0.166 0.166-2.0396h2.0396v0.49807h-1.5653l-0.11844 1.2333q0.30831-0.0476 0.61664-0.0476 0.64036 0 1.0198 0.35573 0.37945 0.33205 0.37945 0.90125 0 0.68778-0.40318 1.0672-0.40318 0.37947-1.1621 0.37947-0.66407 0-1.0672-0.21333z" fill="#cfd8dc" stroke-width=".5692"/>
 <path d="m112.69 134.04h-0.52178v-2.7038q0-0.56918 0.0236-1.0672l-0.80638 0.68778-0.2846-0.35573 1.1384-0.90123h0.4506z" fill="#cfd8dc" stroke-width=".5692"/>
 <path d="m116.91 134.04h-2.7038v-0.47431l1.0436-1.1147q0.64035-0.6878 0.78264-0.99613 0.166-0.30829 0.166-0.64033 0-0.33203-0.18978-0.52178-0.18977-0.18978-0.52175-0.18978-0.47436 0-0.92496 0.40318l-0.30833-0.35576q0.56922-0.49804 1.257-0.49804 0.5692 0 0.90124 0.30831 0.33202 0.30831 0.33202 0.83007 0 0.37949-0.21333 0.75895-0.18978 0.37947-0.83011 1.091l-0.83009 0.87751v0.0238h2.0396z" fill="#cfd8dc" stroke-width=".5692"/>
 <path d="m112.69 150.36h-0.52178v-2.7038q0-0.56923 0.0236-1.0673l-0.80638 0.68778-0.2846-0.35576 1.1384-0.90122h0.4506z" fill="#cfd8dc" stroke-width=".5692"/>
 <path d="m114.58 150.36v-0.45062q0.21333 0.0711 0.49804 0.0711 1.3044 0 1.3518-1.755h-0.0236q-0.2846 0.52175-0.92496 0.52175-0.56917 0-0.90122-0.35573-0.33202-0.35575-0.33202-0.9724 0-0.68778 0.35573-1.0672 0.37947-0.37947 0.9724-0.37947 0.61663 0 1.0198 0.49804 0.4032 0.47436 0.4032 1.3993 0 1.2807-0.47435 1.921-0.47434 0.61664-1.423 0.61664-0.33202 0-0.52176-0.0473zm0.97237-2.0396q0.37947 0 0.64036-0.2372 0.26089-0.23715 0.26089-0.56918 0-0.47435-0.26089-0.78266t-0.61662-0.30831q-0.40318 0-0.61665 0.26089-0.18977 0.23715-0.18977 0.7352 0 0.45062 0.18977 0.6878 0.21334 0.21333 0.59291 0.21333z" fill="#cfd8dc" stroke-width=".5692"/>
 <path d="m113.56 166.69h-2.7038v-0.47434l1.0435-1.1147q0.64036-0.68778 0.78267-0.99609 0.166-0.30834 0.166-0.64036 0-0.33204-0.18978-0.52175-0.18978-0.18978-0.52176-0.18978-0.47435 0-0.92495 0.4032l-0.30834-0.35576q0.56923-0.49804 1.257-0.49804 0.56922 0 0.90127 0.30831 0.33202 0.30831 0.33202 0.83009 0 0.37946-0.21333 0.75893-0.18978 0.37947-0.83009 1.091l-0.83009 0.87751v0.0236h2.0396z" fill="#cfd8dc" stroke-width=".5692"/>
 <path d="m116.69 162.33v0.45062q-0.21334-0.0711-0.49805-0.0711-1.3281 0-1.3756 1.755h0.0473q0.2846-0.49805 0.90122-0.49805 0.56922 0 0.90125 0.35573 0.33204 0.33205 0.33204 0.94867 0 0.6878-0.35578 1.0673-0.35573 0.37946-0.94864 0.37946-0.64038 0-1.0436-0.47433-0.37946-0.49804-0.37946-1.423 0-1.2807 0.47435-1.8973 0.47431-0.64036 1.423-0.64036 0.30831 0 0.52176 0.0473zm-0.99611 2.0396q-0.37947 0-0.64036 0.26089-0.23715 0.23715-0.23715 0.54548 0 0.47432 0.23715 0.78265 0.26089 0.30833 0.64036 0.30833 0.37949 0 0.5692-0.2372 0.21333-0.26089 0.21333-0.75893 0-0.4506-0.18978-0.66407-0.18978-0.23715-0.59291-0.23715z" fill="#cfd8dc" stroke-width=".5692"/>
 <path d="m114.16 180.71q1.0672 0.14222 1.0672 1.0435 0 0.59291-0.40318 0.94867-0.4032 0.33204-1.1858 0.33204-0.7352 0-1.1621-0.21333v-0.52175q0.54548 0.2846 1.1384 0.2846 0.52177 0 0.78266-0.21334 0.26089-0.21333 0.26089-0.64038 0-0.37946-0.2846-0.56917-0.26089-0.18978-0.83011-0.18978h-0.40318v-0.45062h0.40318q0.47433 0 0.73524-0.21334 0.26089-0.23715 0.26089-0.61662 0-0.2846-0.21333-0.45062-0.18978-0.18978-0.52178-0.18978-0.54549 0-1.0198 0.35576l-0.2846-0.37947q0.54547-0.42691 1.3044-0.42691 0.61662 0 0.94867 0.30833 0.33202 0.28458 0.33202 0.75894 0 0.85377-0.92493 1.0435z" fill="#cfd8dc" fill-opacity=".54" stroke-width=".5692"/>
 <path d="m129.56 99.222q1.0672 0.14222 1.0672 1.0435 0 0.59294-0.40318 0.94867-0.4032 0.33205-1.1858 0.33205-0.73523 0-1.1621-0.21334v-0.52175q0.54546 0.2846 1.1384 0.2846 0.52175 0 0.78264-0.21334 0.26089-0.21333 0.26089-0.64037 0-0.37947-0.28462-0.56918-0.26087-0.18978-0.83009-0.18978h-0.40316v-0.45062h0.40316q0.47435 0 0.73524-0.21333 0.26087-0.23718 0.26087-0.61664 0-0.2846-0.21333-0.45062-0.18978-0.18978-0.5218-0.18978-0.54547 0-1.0198 0.35573l-0.28463-0.37947q0.54549-0.42689 1.3044-0.42689 0.61664 0 0.94866 0.30831 0.33205 0.2846 0.33205 0.75893 0 0.8538-0.92494 1.0435z" fill="#cfd8dc" fill-opacity=".54" stroke-width=".5692"/>
 <path d="m131.29 99.311q0-1.1147 0.33204-1.6602 0.35574-0.5692 1.0435-0.5692 0.71146 0 1.0435 0.5692 0.35575 0.54549 0.35575 1.6602 0 1.1147-0.35575 1.6839-0.33205 0.54549-1.0435 0.54549-0.6878 0-1.0435-0.54549-0.33204-0.5692-0.33204-1.6839zm2.2293 0q0-0.99611-0.23715-1.3756-0.21334-0.37947-0.61663-0.37947-0.37949 0-0.61666 0.37947-0.21334 0.35573-0.21334 1.3756 0 1.0435 0.21334 1.423 0.23717 0.35575 0.61666 0.35575 0.40318 0 0.61663-0.37946 0.23715-0.37947 0.23715-1.3993z" fill="#cfd8dc" fill-opacity=".54" stroke-width=".5692"/>
 <path d="m132.09 113.49v0.45062q-0.21334-0.0711-0.49805-0.0711-1.3281 0-1.3756 1.755h0.0476q0.2846-0.49804 0.90122-0.49804 0.56923 0 0.90125 0.35575 0.33204 0.33205 0.33204 0.94867 0 0.6878-0.35575 1.0672-0.35576 0.37947-0.94867 0.37947-0.64036 0-1.0435-0.47431-0.37949-0.49807-0.37949-1.423 0-1.2807 0.47435-1.8973 0.47431-0.64035 1.423-0.64035 0.30831 0 0.52176 0.0473zm-0.99609 2.0396q-0.37947 0-0.64036 0.26087-0.23717 0.23718-0.23717 0.54549 0 0.47433 0.23717 0.78266 0.26089 0.30829 0.64036 0.30829t0.5692-0.23715q0.21333-0.26089 0.21333-0.75894 0-0.45062-0.18978-0.66406-0.18977-0.23716-0.59291-0.23716z" fill="#cfd8dc" stroke-width=".5692"/>
 <path d="m129.76 134.13h-0.52175v-2.7038q0-0.56922 0.0236-1.0673l-0.80635 0.6878-0.2846-0.35578 1.1384-0.90122h0.45062z" fill="#cfd8dc" stroke-width=".5692"/>
 <path d="m132.91 131.84q1.0673 0.14223 1.0673 1.0435 0 0.59291-0.4032 0.94866-0.40318 0.33205-1.1858 0.33205-0.73524 0-1.1621-0.21334v-0.52177q0.54547 0.2846 1.1384 0.2846 0.52178 0 0.78267-0.21334 0.26086-0.21333 0.26086-0.64033 0-0.37947-0.2846-0.56922-0.26088-0.18978-0.83006-0.18978h-0.40318v-0.45062h0.40318q0.47433 0 0.7352-0.21334 0.26089-0.23717 0.26089-0.61664 0-0.2846-0.21334-0.4506-0.18977-0.18978-0.52177-0.18978-0.54547 0-1.0198 0.35576l-0.2846-0.37947q0.54549-0.42691 1.3044-0.42691 0.61664 0 0.94866 0.30833 0.33205 0.2846 0.33205 0.75891 0 0.85383-0.92496 1.0436z" fill="#cfd8dc" stroke-width=".5692"/>
 <path d="m130.64 150.44h-2.7038v-0.47435l1.0435-1.1147q0.64033-0.68776 0.78264-0.99609 0.166-0.30833 0.166-0.64036 0-0.33204-0.18977-0.52175-0.18978-0.18978-0.52178-0.18978-0.47434 0-0.92496 0.4032l-0.30831-0.35575q0.5692-0.49805 1.257-0.49805 0.5692 0 0.90122 0.30831 0.33205 0.30831 0.33205 0.83009 0 0.37947-0.21334 0.75893-0.18977 0.37947-0.83008 1.091l-0.83007 0.87751v0.0236h2.0396z" fill="#cfd8dc" stroke-width=".5692"/>
 <path d="m131.29 148.27q0-1.1147 0.33204-1.6602 0.35574-0.5692 1.0435-0.5692 0.71146 0 1.0435 0.5692 0.35575 0.54549 0.35575 1.6602 0 1.1147-0.35575 1.6839-0.33205 0.54549-1.0435 0.54549-0.6878 0-1.0435-0.54549-0.33204-0.56923-0.33204-1.6839zm2.2293 0q0-0.99609-0.23715-1.3756-0.21334-0.37947-0.61663-0.37947-0.37949 0-0.61666 0.37947-0.21334 0.35576-0.21334 1.3756 0 1.0436 0.21334 1.423 0.23717 0.35575 0.61666 0.35575 0.40318 0 0.61663-0.37946 0.23715-0.37947 0.23715-1.3993z" fill="#cfd8dc" stroke-width=".5692"/>
 <path d="m130.64 166.78h-2.7038v-0.47436l1.0435-1.1147q0.64033-0.68777 0.78264-0.99611 0.166-0.30829 0.166-0.64033 0-0.33202-0.18977-0.52178-0.18978-0.18978-0.52178-0.18978-0.47434 0-0.92496 0.40318l-0.30831-0.35575q0.5692-0.49805 1.257-0.49805 0.5692 0 0.90122 0.30834 0.33205 0.30831 0.33205 0.83006 0 0.37947-0.21334 0.75896-0.18977 0.37946-0.83008 1.091l-0.83007 0.87754v0.0236h2.0396z" fill="#cfd8dc" stroke-width=".5692"/>
 <path d="m131.82 166.78 1.6839-3.842h-2.2531v-0.49807h2.7987v0.42691l-1.6602 3.9133z" fill="#cfd8dc" stroke-width=".5692"/>
 <path d="m132.56 182.11h-0.64035v0.97238h-0.52176v-0.97238h-1.9922v-0.47433l1.9685-2.9171h0.54549v2.8936h0.64035zm-1.1621-0.49804v-1.0435q0-0.52178 0.0473-1.2807h-0.0236q-0.11844 0.30833-0.26089 0.52178l-1.2333 1.8025z" fill="#cfd8dc" fill-opacity=".54" stroke-width=".5692"/>
 <path d="m156.04 131.84a7.9689 7.9689 0 0 1-7.9689 7.9689 7.9689 7.9689 0 0 1-7.9689-7.9689 7.9689 7.9689 0 0 1 7.9689-7.9689 7.9689 7.9689 0 0 1 7.9689 7.9689z" fill="#5b9bf8" fill-rule="evenodd" stroke-width="2.1513"/>
 <path d="m146.64 99.133q1.0672 0.14222 1.0672 1.0435 0 0.59291-0.40318 0.94866-0.4032 0.33202-1.1858 0.33202-0.7352 0-1.1621-0.21333v-0.52178q0.54549 0.28463 1.1384 0.28463 0.52176 0 0.78267-0.21334 0.26089-0.21333 0.26089-0.64035 0-0.37947-0.28462-0.5692-0.26087-0.18978-0.83009-0.18978h-0.40318v-0.45062h0.40318q0.47433 0 0.73522-0.21333 0.26087-0.23716 0.26087-0.61664 0-0.28458-0.21334-0.4506-0.18977-0.18978-0.52177-0.18978-0.54549 0-1.0198 0.35578l-0.28463-0.37949q0.54549-0.42689 1.3044-0.42689 0.61662 0 0.94866 0.30831 0.33203 0.2846 0.33203 0.75896 0 0.85378-0.92494 1.0435z" fill="#cfd8dc" fill-opacity=".54" stroke-width=".5692"/>
 <path d="m150.18 101.42h-0.52178v-2.7038q0-0.5692 0.0236-1.0673l-0.80637 0.6878-0.2846-0.35578 1.1384-0.90122h0.4506z" fill="#cfd8dc" fill-opacity=".54" stroke-width=".5692"/>
 <path d="m147.22 117.71 1.6839-3.842h-2.2531v-0.49804h2.7987v0.42691l-1.6602 3.9133z" fill="#cfd8dc" stroke-width=".5692"/>
 <path d="m146.84 134.04h-0.52175v-2.7038q0-0.56918 0.0238-1.0672l-0.80638 0.68778-0.2846-0.35573 1.1384-0.90123h0.4506z" fill="#ffffff" stroke-width=".5692"/>
 <path d="m151.29 133.09h-0.64036v0.97238h-0.52178v-0.97238h-1.9922v-0.47436l1.9685-2.9171h0.54549v2.8936h0.64036zm-1.1621-0.49805v-1.0435q0-0.5218 0.0476-1.2807h-0.0236q-0.11844 0.30833-0.26086 0.52177l-1.2333 1.8025z" fill="#ffffff" stroke-width=".5692"/>
 <path d="m147.71 150.36h-2.7038v-0.47433l1.0435-1.1147q0.64035-0.6878 0.78264-0.99609 0.166-0.30833 0.166-0.64037 0-0.33203-0.18978-0.52176-0.18978-0.18978-0.52178-0.18978-0.47435 0-0.92495 0.40318l-0.30831-0.35576q0.5692-0.49804 1.257-0.49804 0.5692 0 0.90124 0.30833 0.33202 0.30831 0.33202 0.83009 0 0.37945-0.21333 0.75891-0.18978 0.37947-0.83009 1.091l-0.83009 0.87751v0.0236h2.0396z" fill="#cfd8dc" stroke-width=".5692"/>
 <path d="m150.18 150.36h-0.52178v-2.7038q0-0.56923 0.0236-1.0673l-0.80637 0.68778-0.2846-0.35576 1.1384-0.90122h0.4506z" fill="#cfd8dc" stroke-width=".5692"/>
 <path d="m147.71 166.69h-2.7038v-0.47434l1.0435-1.1147q0.64035-0.68778 0.78264-0.99609 0.166-0.30834 0.166-0.64036 0-0.33204-0.18978-0.52175-0.18978-0.18978-0.52178-0.18978-0.47435 0-0.92495 0.4032l-0.30831-0.35576q0.5692-0.49804 1.257-0.49804 0.5692 0 0.90124 0.30831 0.33202 0.30831 0.33202 0.83009 0 0.37946-0.21333 0.75893-0.18978 0.37947-0.83009 1.091l-0.83009 0.87751v0.0236h2.0396z" fill="#cfd8dc" stroke-width=".5692"/>
 <path d="m150.18 164.38q0.92495 0.49804 0.92495 1.1621 0 0.52178-0.37946 0.85382-0.35576 0.33202-0.9724 0.33202-0.66407 0-1.0198-0.30833-0.35573-0.30831-0.35573-0.85378 0-0.75893 0.8538-1.1621-0.71149-0.42689-0.71149-1.091 0-0.45062 0.33202-0.73524 0.33205-0.30829 0.90123-0.30829 0.54548 0 0.87753 0.30829 0.33202 0.28462 0.33202 0.73524 0 0.68778-0.78264 1.0672zm-0.42691-0.21334q0.68777-0.30829 0.68777-0.83006 0-0.30831-0.18977-0.45063-0.166-0.166-0.52178-0.166-0.33202 0-0.49805 0.166-0.166 0.14223-0.166 0.45063 0 0.52177 0.68778 0.83006zm-0.0949 0.45063q-0.7352 0.35575-0.7352 0.9724 0 0.35573 0.18977 0.54548 0.21334 0.166 0.61665 0.166 0.42689 0 0.64035-0.18977 0.21334-0.18978 0.21334-0.54547 0-0.26089-0.166-0.45064-0.166-0.21334-0.66407-0.4506z" fill="#cfd8dc" stroke-width=".5692"/>
 <path d="m146.78 182.82v-0.52175q0.42691 0.2846 1.091 0.2846 0.47432 0 0.71149-0.23718 0.26087-0.23718 0.26087-0.68778 0-0.45062-0.26087-0.66407-0.23717-0.21333-0.75893-0.21333-0.26089 0-0.66407 0.0711l-0.2846-0.166 0.166-2.0396h2.0396v0.49806h-1.5653l-0.11844 1.2333q0.30833-0.0473 0.61662-0.0473 0.64038 0 1.0198 0.35575 0.37946 0.33202 0.37946 0.90125 0 0.68777-0.4032 1.0672-0.40317 0.37947-1.1621 0.37947-0.66406 0-1.0672-0.21334z" fill="#cfd8dc" fill-opacity=".54" stroke-width=".5692"/>
 <path d="m165.6 101.42h-0.52178v-2.7038q0-0.5692 0.0236-1.0673l-0.80636 0.6878-0.28458-0.35578 1.1384-0.90122h0.45062z" fill="#cfd8dc" stroke-width=".5692"/>
 <path d="m165.6 115.42q0.92495 0.49805 0.92495 1.1621 0 0.52178-0.37948 0.85382-0.35574 0.33203-0.97236 0.33203-0.66407 0-1.0198-0.30831-0.35574-0.30832-0.35574-0.8538 0-0.75894 0.8538-1.1621-0.71151-0.42691-0.71151-1.091 0-0.45063 0.33205-0.7352 0.33202-0.30834 0.90124-0.30834 0.54549 0 0.87751 0.30834 0.33205 0.28457 0.33205 0.7352 0 0.68777-0.78267 1.0672zm-0.42689-0.21333q0.68778-0.30834 0.68778-0.83011 0-0.30831-0.18978-0.45063-0.166-0.166-0.52178-0.166-0.33204 0-0.49804 0.166-0.166 0.14223-0.166 0.45063 0 0.52177 0.6878 0.83011zm-0.0949 0.4506q-0.7352 0.35575-0.7352 0.97238 0 0.35575 0.18978 0.54548 0.21333 0.166 0.61662 0.166 0.42691 0 0.64036-0.18977 0.21333-0.18978 0.21333-0.54549 0-0.26089-0.166-0.45062-0.166-0.21334-0.66407-0.4506z" fill="#cfd8dc" stroke-width=".5692"/>
 <path d="m163.91 134.04h-0.52178v-2.7038q0-0.56918 0.0236-1.0672l-0.80638 0.68778-0.28458-0.35573 1.1384-0.90123h0.45062z" fill="#cfd8dc" stroke-width=".5692"/>
 <path d="m165.53 133.87v-0.52176q0.42691 0.2846 1.091 0.2846 0.47436 0 0.71151-0.23716 0.26089-0.23717 0.26089-0.6878 0-0.45062-0.26089-0.66406-0.23715-0.21334-0.75895-0.21334-0.26087 0-0.66407 0.0711l-0.28458-0.166 0.166-2.0396h2.0396v0.49805h-1.5653l-0.11845 1.2333q0.30834-0.0476 0.61667-0.0476 0.64033 0 1.0198 0.35575 0.37947 0.33205 0.37947 0.90125 0 0.68775-0.40318 1.0672-0.4032 0.37947-1.1621 0.37947-0.66407 0-1.0673-0.21333z" fill="#cfd8dc" stroke-width=".5692"/>
 <path d="m164.8 150.36h-2.7038v-0.47433l1.0435-1.1147q0.64034-0.6878 0.78265-0.99609 0.166-0.30833 0.166-0.64037 0-0.33203-0.18978-0.52176-0.18978-0.18978-0.52178-0.18978-0.47433 0-0.92495 0.40318l-0.30831-0.35576q0.5692-0.49804 1.257-0.49804 0.5692 0 0.90122 0.30833 0.33204 0.30831 0.33204 0.83009 0 0.37945-0.21333 0.75891-0.18978 0.37947-0.83009 1.091l-0.83007 0.87751v0.0236h2.0396z" fill="#cfd8dc" stroke-width=".5692"/>
 <path d="m168.13 150.36h-2.7038v-0.47433l1.0435-1.1147q0.64033-0.6878 0.78264-0.99609 0.166-0.30833 0.166-0.64037 0-0.33203-0.18978-0.52176-0.18977-0.18978-0.52175-0.18978-0.47433 0-0.92496 0.40318l-0.30833-0.35576q0.56922-0.49804 1.257-0.49804 0.5692 0 0.90124 0.30833 0.33203 0.30831 0.33203 0.83009 0 0.37945-0.21334 0.75891-0.18977 0.37947-0.83009 1.091l-0.83008 0.87751v0.0236h2.0396z" fill="#cfd8dc" stroke-width=".5692"/>
 <path d="m164.8 166.69h-2.7038v-0.47434l1.0435-1.1147q0.64034-0.68778 0.78265-0.99609 0.166-0.30834 0.166-0.64036 0-0.33204-0.18978-0.52175-0.18978-0.18978-0.52178-0.18978-0.47433 0-0.92495 0.4032l-0.30831-0.35576q0.5692-0.49804 1.257-0.49804 0.5692 0 0.90122 0.30831 0.33204 0.30831 0.33204 0.83009 0 0.37946-0.21333 0.75893-0.18978 0.37947-0.83009 1.091l-0.83007 0.87751v0.0236h2.0396z" fill="#cfd8dc" stroke-width=".5692"/>
 <path d="m165.8 166.69v-0.4506q0.21333 0.0711 0.49807 0.0711 1.3044 0 1.3518-1.755h-0.0236q-0.2846 0.5218-0.92495 0.5218-0.5692 0-0.90125-0.35577-0.33202-0.35574-0.33202-0.97238 0-0.68778 0.35574-1.0672 0.37946-0.37948 0.9724-0.37948 0.61662 0 1.0198 0.49806 0.40318 0.47434 0.40318 1.3993 0 1.2807-0.47434 1.921-0.47433 0.61664-1.423 0.61664-0.33204 0-0.52178-0.0476zm0.9724-2.0396q0.37947 0 0.64033-0.23718 0.26089-0.23718 0.26089-0.5692 0-0.47434-0.26089-0.78265-0.26086-0.30833-0.61662-0.30833-0.40318 0-0.61662 0.26089-0.18978 0.23715-0.18978 0.73522 0 0.45062 0.18978 0.68778 0.21333 0.21333 0.59291 0.21333z" fill="#cfd8dc" stroke-width=".5692"/>
 <path d="m166.22 178.64v0.4506q-0.21333-0.0711-0.49804-0.0711-1.3281 0-1.3756 1.755h0.0476q0.2846-0.49807 0.90123-0.49807 0.56922 0 0.90124 0.35576 0.33205 0.33202 0.33205 0.94866 0 0.68778-0.35578 1.0672-0.35574 0.37949-0.94865 0.37949-0.64037 0-1.0436-0.47436-0.37947-0.49804-0.37947-1.423 0-1.2807 0.47436-1.8973 0.47431-0.64036 1.423-0.64036 0.30831 0 0.52175 0.0473zm-0.99609 2.0396q-0.37946 0-0.64035 0.26088-0.23718 0.23716-0.23718 0.54549 0 0.47434 0.23718 0.78265 0.26089 0.30833 0.64035 0.30833 0.37947 0 0.56918-0.23718 0.21333-0.26086 0.21333-0.75893 0-0.45062-0.18977-0.66407-0.18978-0.23717-0.59292-0.23717z" fill="#cfd8dc" fill-opacity=".54" stroke-width=".5692"/>
 <path d="m183.53 101.51h-2.7038v-0.47433l1.0435-1.1147q0.64035-0.68778 0.78264-0.99611 0.166-0.30829 0.166-0.64033 0-0.33202-0.18978-0.52178-0.18977-0.18978-0.52177-0.18978-0.47431 0-0.92494 0.40318l-0.30831-0.35573q0.56918-0.49804 1.257-0.49804 0.5692 0 0.90122 0.30831 0.33205 0.30831 0.33205 0.83007 0 0.37947-0.21334 0.75896-0.18977 0.37947-0.83006 1.091l-0.83009 0.87753v0.0236h2.0396z" fill="#cfd8dc" stroke-width=".5692"/>
 <path d="m181.2 117.8v-0.45062q0.21333 0.0711 0.49804 0.0711 1.3044 0 1.3518-1.755h-0.0236q-0.2846 0.52176-0.92495 0.52176-0.5692 0-0.90123-0.35573-0.33204-0.35578-0.33204-0.9724 0-0.68778 0.35576-1.0672 0.37946-0.37947 0.97237-0.37947 0.61665 0 1.0198 0.49805 0.4032 0.47433 0.4032 1.3993 0 1.2807-0.47436 1.921-0.47433 0.61665-1.423 0.61665-0.33204 0-0.52176-0.0473zm0.97238-2.0396q0.37946 0 0.64035-0.23715 0.26089-0.23716 0.26089-0.5692 0-0.47433-0.26089-0.78265-0.26089-0.30831-0.61664-0.30831-0.4032 0-0.61662 0.26089-0.18978 0.23716-0.18978 0.7352 0 0.45062 0.18978 0.6878 0.21333 0.21334 0.59291 0.21334z" fill="#cfd8dc" stroke-width=".5692"/>
 <path d="m181 134.13h-0.52176v-2.7038q0-0.56922 0.0236-1.0673l-0.80638 0.6878-0.2846-0.35578 1.1384-0.90122h0.45062z" fill="#cfd8dc" stroke-width=".5692"/>
 <path d="m184.98 129.8v0.45062q-0.21334-0.0711-0.49807-0.0711-1.3281 0-1.3756 1.755h0.0476q0.2846-0.49804 0.90124-0.49804 0.5692 0 0.90125 0.35573 0.33202 0.33205 0.33202 0.94867 0 0.6878-0.35575 1.0673-0.35574 0.37946-0.94867 0.37946-0.64033 0-1.0435-0.47433-0.37947-0.49804-0.37947-1.423 0-1.2807 0.47433-1.8973 0.47436-0.64036 1.423-0.64036 0.30831 0 0.52178 0.0476zm-0.99611 2.0396q-0.37947 0-0.64034 0.26089-0.23718 0.23716-0.23718 0.54549 0 0.47431 0.23718 0.78265 0.26087 0.30831 0.64034 0.30831 0.37946 0 0.56922-0.23718 0.21333-0.26089 0.21333-0.75893 0-0.45063-0.18978-0.66407-0.18977-0.23716-0.59293-0.23716z" fill="#cfd8dc" stroke-width=".5692"/>
 <path d="m181.87 150.44h-2.7038v-0.47435l1.0435-1.1147q0.64033-0.68776 0.78265-0.99609 0.166-0.30833 0.166-0.64036 0-0.33204-0.18978-0.52175-0.18978-0.18978-0.52178-0.18978-0.47433 0-0.92496 0.4032l-0.30828-0.35575q0.56917-0.49805 1.257-0.49805 0.5692 0 0.90123 0.30831 0.33204 0.30831 0.33204 0.83009 0 0.37947-0.21333 0.75893-0.18978 0.37947-0.83007 1.091l-0.83009 0.87751v0.0236h2.0396z" fill="#cfd8dc" stroke-width=".5692"/>
 <path d="m184.13 148.16q1.0673 0.14223 1.0673 1.0435 0 0.59293-0.4032 0.94868-0.40318 0.33203-1.1858 0.33203-0.73523 0-1.1621-0.21334v-0.52177q0.54548 0.28462 1.1384 0.28462 0.52178 0 0.78267-0.21334 0.26087-0.21333 0.26087-0.64035 0-0.37947-0.28458-0.5692-0.26089-0.18978-0.83009-0.18978h-0.40318v-0.45062h0.40318q0.47433 0 0.7352-0.21333 0.26089-0.23716 0.26089-0.61665 0-0.28458-0.21333-0.4506-0.18978-0.18978-0.52176-0.18978-0.54549 0-1.0198 0.35578l-0.28458-0.37949q0.54546-0.42689 1.3044-0.42689 0.61662 0 0.94867 0.30831 0.33202 0.2846 0.33202 0.75896 0 0.85378-0.92496 1.0435z" fill="#cfd8dc" stroke-width=".5692"/>
 <path d="m180.8 164.49q1.0672 0.14222 1.0672 1.0435 0 0.59291-0.40317 0.94867-0.4032 0.33204-1.1858 0.33204-0.7352 0-1.1621-0.21333v-0.52176q0.54549 0.2846 1.1384 0.2846 0.52176 0 0.78264-0.21333 0.26089-0.21333 0.26089-0.64036 0-0.37948-0.2846-0.5692-0.26086-0.18977-0.83009-0.18977h-0.40317v-0.45063h0.40317q0.47434 0 0.73523-0.21333 0.26086-0.23715 0.26086-0.61662 0-0.2846-0.21333-0.45062-0.18978-0.18978-0.52178-0.18978-0.54549 0-1.0198 0.35573l-0.28462-0.37946q0.54549-0.42692 1.3044-0.42692 0.61662 0 0.94867 0.30834 0.33202 0.2846 0.33202 0.75893 0 0.8538-0.92493 1.0435z" fill="#cfd8dc" stroke-width=".5692"/>
 <path d="m182.51 164.58q0-1.1147 0.33204-1.6602 0.35574-0.5692 1.0435-0.5692 0.71149 0 1.0435 0.5692 0.35575 0.54549 0.35575 1.6602t-0.35575 1.6839q-0.33202 0.54548-1.0435 0.54548-0.6878 0-1.0435-0.54548-0.33204-0.5692-0.33204-1.6839zm2.2293 0q0-0.99611-0.23715-1.3756-0.21334-0.37947-0.61662-0.37947-0.37947 0-0.61665 0.37947-0.21333 0.35573-0.21333 1.3756 0 1.0435 0.21333 1.423 0.23718 0.35575 0.61665 0.35575 0.40317 0 0.61662-0.37946 0.23715-0.37947 0.23715-1.3993z" fill="#cfd8dc" stroke-width=".5692"/>
 <path d="m181.4 183.09 1.6839-3.842h-2.2531v-0.49805h2.7987v0.42687l-1.6602 3.9133z" fill="#cfd8dc" fill-opacity=".54" stroke-width=".5692"/>
 <path d="m199.56 99.133q1.0672 0.14222 1.0672 1.0435 0 0.59291-0.40318 0.94866-0.40318 0.33202-1.1858 0.33202-0.73523 0-1.1621-0.21333v-0.52178q0.54549 0.28463 1.1384 0.28463 0.52175 0 0.78264-0.21334 0.26089-0.21333 0.26089-0.64035 0-0.37947-0.2846-0.5692-0.26089-0.18978-0.83009-0.18978h-0.4032v-0.45062h0.4032q0.47433 0 0.73522-0.21333 0.26089-0.23716 0.26089-0.61664 0-0.28458-0.21333-0.4506-0.18978-0.18978-0.52178-0.18978-0.54547 0-1.0198 0.35578l-0.2846-0.37949q0.54549-0.42689 1.3044-0.42689 0.61667 0 0.94869 0.30831 0.33204 0.2846 0.33204 0.75896 0 0.85378-0.92495 1.0435z" fill="#cfd8dc" stroke-width=".5692"/>
 <path d="m198.07 117.71h-0.52176v-2.7038q0-0.5692 0.0236-1.0672l-0.80638 0.68778-0.2846-0.35574 1.1384-0.90126h0.4506z" fill="#cfd8dc" stroke-width=".5692"/>
 <path d="m199.6 115.56q0-1.1147 0.33202-1.6602 0.35576-0.5692 1.0435-0.5692 0.71149 0 1.0435 0.5692 0.35575 0.54549 0.35575 1.6602 0 1.1147-0.35575 1.6839-0.33205 0.54549-1.0435 0.54549-0.68777 0-1.0435-0.54549-0.33202-0.5692-0.33202-1.6839zm2.2293 0q0-0.99613-0.23715-1.3756-0.21334-0.37947-0.61665-0.37947-0.37946 0-0.61664 0.37947-0.21334 0.35573-0.21334 1.3756 0 1.0435 0.21334 1.423 0.23718 0.35576 0.61664 0.35576 0.40318 0 0.61665-0.37947 0.23715-0.37947 0.23715-1.3993z" fill="#cfd8dc" stroke-width=".5692"/>
 <path d="m198.07 134.04h-0.52176v-2.7038q0-0.56918 0.0236-1.0672l-0.80638 0.68778-0.2846-0.35573 1.1384-0.90123h0.4506z" fill="#cfd8dc" stroke-width=".5692"/>
 <path d="m200.13 134.04 1.6839-3.842h-2.2531v-0.49804h2.7987v0.42687l-1.6602 3.9133z" fill="#cfd8dc" stroke-width=".5692"/>
 <path d="m198.96 150.36h-2.7038v-0.47433l1.0435-1.1147q0.64033-0.6878 0.78264-0.99609 0.166-0.30833 0.166-0.64037 0-0.33203-0.18977-0.52176-0.18978-0.18978-0.52178-0.18978-0.47436 0-0.92496 0.40318l-0.30831-0.35576q0.5692-0.49804 1.257-0.49804 0.56918 0 0.90122 0.30833 0.33203 0.30831 0.33203 0.83009 0 0.37945-0.21334 0.75891-0.18977 0.37947-0.83009 1.091l-0.83008 0.87751v0.0236h2.0396z" fill="#cfd8dc" stroke-width=".5692"/>
 <path d="m202.53 149.38h-0.64035v0.9724h-0.52176v-0.9724h-1.9922v-0.47434l1.9685-2.9171h0.54549v2.8936h0.64035zm-1.1621-0.49805v-1.0435q0-0.52178 0.0476-1.2807h-0.0236q-0.11844 0.30831-0.26087 0.52175l-1.2333 1.8025z" fill="#cfd8dc" stroke-width=".5692"/>
 <path d="m199.73 166.69h-0.52175v-2.7038q0-0.56922 0.0236-1.0673l-0.80635 0.6878-0.2846-0.35577 1.1384-0.90123h0.4506z" fill="#cfd8dc" fill-opacity=".54" stroke-width=".5692"/>
 <path d="m199.73 180.69q0.92496 0.49804 0.92496 1.1621 0 0.52178-0.37947 0.85382-0.35573 0.33202-0.97235 0.33202-0.66407 0-1.0198-0.30831t-0.35573-0.8538q0-0.75893 0.8538-1.1621-0.71151-0.42691-0.71151-1.091 0-0.45062 0.33202-0.7352 0.33204-0.30833 0.90127-0.30833 0.54546 0 0.87751 0.30833 0.33202 0.28458 0.33202 0.7352 0 0.68778-0.78267 1.0672zm-0.42686-0.21334q0.68775-0.30831 0.68775-0.83008 0-0.30832-0.18978-0.45063-0.166-0.166-0.52177-0.166-0.33205 0-0.49805 0.166-0.166 0.14223-0.166 0.45063 0 0.52177 0.6878 0.83008zm-0.0949 0.45063q-0.7352 0.35575-0.7352 0.97237 0 0.35576 0.18977 0.54549 0.21334 0.166 0.61665 0.166 0.42691 0 0.64035-0.18977 0.21334-0.18978 0.21334-0.54549 0-0.26089-0.166-0.45063-0.166-0.21333-0.66407-0.45062z" fill="#cfd8dc" fill-opacity=".54" stroke-width=".5692"/>
 <path d="m217.93 100.44h-0.64038v0.9724h-0.52175v-0.9724h-1.9922v-0.47431l1.9685-2.9171h0.54549v2.8936h0.64038zm-1.1621-0.49804v-1.0435q0-0.52176 0.0473-1.2807h-0.0236q-0.11845 0.30831-0.26089 0.52178l-1.2333 1.8024z" fill="#cfd8dc" stroke-width=".5692"/>
 <path d="m215.13 117.71h-0.52175v-2.7038q0-0.5692 0.0236-1.0672l-0.80638 0.68778-0.2846-0.35574 1.1384-0.90126h0.45063z" fill="#cfd8dc" stroke-width=".5692"/>
 <path d="m218.49 117.71h-0.52178v-2.7038q0-0.5692 0.0236-1.0672l-0.80637 0.68778-0.2846-0.35574 1.1384-0.90126h0.45062z" fill="#cfd8dc" stroke-width=".5692"/>
 <path d="m215.13 134.04h-0.52175v-2.7038q0-0.56918 0.0236-1.0672l-0.80638 0.68778-0.2846-0.35573 1.1384-0.90123h0.45063z" fill="#cfd8dc" stroke-width=".5692"/>
 <path d="m218.49 131.76q0.92495 0.49807 0.92495 1.1621 0 0.52175-0.37946 0.85378-0.35578 0.33204-0.9724 0.33204-0.66407 0-1.0198-0.30831-0.35575-0.30833-0.35575-0.85382 0-0.75894 0.85382-1.1621-0.71151-0.42692-0.71151-1.091 0-0.4506 0.33204-0.7352 0.33203-0.30834 0.90123-0.30834 0.54548 0 0.87751 0.30834 0.33204 0.2846 0.33204 0.7352 0 0.6878-0.78264 1.0673zm-0.42691-0.21333q0.68777-0.30833 0.68777-0.83009 0-0.30833-0.18977-0.45062-0.166-0.166-0.52176-0.166-0.33202 0-0.49804 0.166-0.166 0.14222-0.166 0.45062 0 0.52176 0.6878 0.83009zm-0.0949 0.4506q-0.73523 0.35576-0.73523 0.9724 0 0.35573 0.18978 0.54547 0.21334 0.166 0.61665 0.166 0.42689 0 0.64033-0.18978 0.21333-0.18978 0.21333-0.54549 0-0.26089-0.166-0.4506-0.166-0.21333-0.66406-0.45062z" fill="#cfd8dc" stroke-width=".5692"/>
 <path d="m216.02 150.36h-2.7038v-0.47433l1.0435-1.1147q0.64033-0.6878 0.78264-0.99609 0.166-0.30833 0.166-0.64037 0-0.33203-0.18978-0.52176-0.18978-0.18978-0.52178-0.18978-0.47433 0-0.92495 0.40318l-0.30829-0.35576q0.56918-0.49804 1.257-0.49804 0.5692 0 0.90122 0.30833 0.33204 0.30831 0.33204 0.83009 0 0.37945-0.21333 0.75891-0.18978 0.37947-0.83007 1.091l-0.83008 0.87751v0.0236h2.0396z" fill="#cfd8dc" stroke-width=".5692"/>
 <path d="m216.76 150.2v-0.5218q0.42689 0.2846 1.091 0.2846 0.47435 0 0.71151-0.23716 0.26089-0.23715 0.26089-0.6878 0-0.4506-0.26089-0.66406-0.23716-0.21334-0.75893-0.21334-0.26087 0-0.66407 0.0711l-0.2846-0.166 0.166-2.0396h2.0396v0.49804h-1.5653l-0.11844 1.2333q0.30831-0.0476 0.61664-0.0476 0.64034 0 1.0198 0.35577 0.37949 0.33203 0.37949 0.90123 0 0.6878-0.40318 1.0673-0.4032 0.37945-1.1621 0.37945-0.66407 0-1.0673-0.21334z" fill="#cfd8dc" stroke-width=".5692"/>
 <path d="m217.71 166.69h-2.7038v-0.47434l1.0435-1.1147q0.64036-0.68778 0.78265-0.99609 0.166-0.30834 0.166-0.64036 0-0.33204-0.18978-0.52175-0.18978-0.18978-0.52178-0.18978-0.47431 0-0.92493 0.4032l-0.30831-0.35576q0.56918-0.49804 1.257-0.49804 0.5692 0 0.90122 0.30831 0.33204 0.30831 0.33204 0.83009 0 0.37946-0.21333 0.75893-0.18978 0.37947-0.83007 1.091l-0.83009 0.87751v0.0236h2.0396z" fill="#cfd8dc" fill-opacity=".54" stroke-width=".5692"/>
 <path d="m215.33 183v-0.45062q0.21333 0.0711 0.49805 0.0711 1.3044 0 1.3518-1.755h-0.0236q-0.2846 0.52177-0.92495 0.52177-0.5692 0-0.90122-0.35577-0.33205-0.35574-0.33205-0.97236 0-0.6878 0.35574-1.0673 0.37948-0.37946 0.9724-0.37946 0.61662 0 1.0198 0.49804 0.4032 0.47433 0.4032 1.3993 0 1.2807-0.47434 1.9211-0.47433 0.61662-1.423 0.61662-0.33204 0-0.52175-0.0473zm0.97236-2.0396q0.37946 0 0.64037-0.23715 0.26089-0.23718 0.26089-0.56922 0-0.47431-0.26089-0.78265-0.26091-0.30831-0.61664-0.30831-0.4032 0-0.61662 0.26087-0.18978 0.2372-0.18978 0.73524 0 0.4506 0.18978 0.68778 0.21333 0.21333 0.59289 0.21333z" fill="#cfd8dc" fill-opacity=".54" stroke-width=".5692"/>
 <path d="m110.87 80.822v0.93529q-0.36523-0.16289-0.71265-0.24564-0.3474-0.08289-0.65622-0.08289-0.40978 0-0.60573 0.11244-0.19578 0.11267-0.19578 0.34927 0 0.17756 0.13066 0.2782 0.13356 0.09778 0.48105 0.16889l0.48695 0.09778q0.73938 0.148 1.0512 0.44987 0.31176 0.30189 0.31176 0.85833 0 0.73104-0.43649 1.0892-0.43351 0.35516-1.3273 0.35516-0.42162 0-0.84625-0.08-0.42462-0.07978-0.84924-0.23676v-0.96193q0.42462 0.22496 0.81955 0.34038 0.39789 0.11244 0.76607 0.11244 0.37413 0 0.57309-0.12444 0.19889-0.12444 0.19889-0.35516 0-0.20733-0.13667-0.31967-0.13355-0.11244-0.53744-0.20133l-0.44242-0.09778q-0.66514-0.14222-0.97396-0.45282-0.30582-0.3108-0.30582-0.83762 0-0.66002 0.42758-1.0152 0.42757-0.35516 1.2293-0.35516 0.36525 0 0.75125 0.05622 0.38602 0.05333 0.79875 0.16289z" fill="#cfd8dc" fill-opacity=".54" stroke-width=".56764"/>
 <path d="m112.07 83.8v-2.0245h1.069v0.33151q0 0.26933-2e-3 0.67778-2e-3 0.40549-2e-3 0.54162 0 0.39958 0.0222 0.57716 0.0222 0.17467 0.0713 0.25456 0.0653 0.10356 0.16933 0.15978 0.10689 0.05622 0.24349 0.05622 0.33258 0 0.5226-0.25453 0.19-0.25453 0.19-0.70738v-1.6368h1.063v3.3149h-1.063v-0.47947q-0.24051 0.29002-0.51071 0.42916-0.26727 0.13622-0.59091 0.13622-0.57605 0-0.87892-0.35222-0.30016-0.35218-0.30016-1.0241z" fill="#cfd8dc" fill-opacity=".54" stroke-width=".56764"/>
 <path d="m119.78 83.067v2.0185h-1.069v-1.545q0-0.42913-0.0222-0.59196-0.0178-0.16289-0.0653-0.23973-0.0622-0.10356-0.16912-0.15978-0.10688-0.05933-0.24348-0.05933-0.33258 0-0.52263 0.25749-0.19 0.25453-0.19 0.70738v1.6308h-1.063v-3.3149h1.063v0.4854q0.24051-0.29004 0.51071-0.42618 0.27023-0.13911 0.59685-0.13911 0.57607 0 0.87298 0.3522 0.29991 0.3522 0.29991 1.0241z" fill="#cfd8dc" fill-opacity=".54" stroke-width=".56764"/>
 <path d="m124.16 80.667h1.455l1.0096 2.3647 1.0155-2.3647h1.452v4.4189h-1.0808v-3.232l-1.0215 2.3827h-0.72451l-1.0215-2.3827v3.232h-1.0838z" fill="#cfd8dc" fill-opacity=".54" stroke-width=".56764"/>
 <path d="m131.73 82.444q-0.35335 0-0.54042 0.25453-0.184 0.25158-0.184 0.72809 0 0.47653 0.184 0.73107 0.18711 0.25158 0.54042 0.25158 0.34742 0 0.53154-0.25158 0.184-0.25453 0.184-0.73107 0-0.47651-0.184-0.72809-0.184-0.25453-0.53154-0.25453zm0-0.75771q0.85814 0 1.3392 0.46171 0.484 0.46173 0.484 1.2786t-0.484 1.2786q-0.48104 0.46171-1.3392 0.46171-0.86109 0-1.3481-0.46171-0.484-0.46173-0.484-1.2786t0.484-1.2786q0.48697-0.46171 1.3481-0.46171z" fill="#cfd8dc" fill-opacity=".54" stroke-width=".56764"/>
 <path d="m137.69 83.067v2.0185h-1.069v-1.545q0-0.42913-0.0222-0.59196-0.0178-0.16289-0.0653-0.23973-0.0622-0.10356-0.16911-0.15978-0.10689-0.05933-0.24349-0.05933-0.33258 0-0.5226 0.25749-0.19 0.25453-0.19 0.70738v1.6308h-1.063v-3.3149h1.063v0.4854q0.24051-0.29004 0.51071-0.42618 0.27022-0.13911 0.59684-0.13911 0.57607 0 0.87298 0.3522 0.29991 0.3522 0.29991 1.0241z" fill="#cfd8dc" fill-opacity=".54" stroke-width=".56764"/>
 <path d="m141.8 80.667h4.0858v0.86129h-1.4698v3.5576h-1.1432v-3.5576h-1.4728z" fill="#cfd8dc" fill-opacity=".54" stroke-width=".56764"/>
 <path d="m145.73 83.8v-2.0245h1.069v0.33151q0 0.26933-2e-3 0.67778-2e-3 0.40549-2e-3 0.54162 0 0.39958 0.0222 0.57716 0.0222 0.17467 0.0713 0.25456 0.0653 0.10356 0.16934 0.15978 0.10688 0.05622 0.24346 0.05622 0.33258 0 0.52262-0.25453 0.19-0.25453 0.19-0.70738v-1.6368h1.063v3.3149h-1.063v-0.47947q-0.24051 0.29002-0.51071 0.42916-0.26726 0.13622-0.59091 0.13622-0.57604 0-0.87891-0.35222-0.30017-0.35218-0.30017-1.0241z" fill="#cfd8dc" fill-opacity=".54" stroke-width=".56764"/>
 <path d="m153.42 83.422v0.30189h-2.4853q0.0387 0.37293 0.2702 0.5594 0.23162 0.18644 0.64733 0.18644 0.33551 0 0.68591-0.09778 0.35336-0.10067 0.72451-0.30191v0.81691q-0.37711 0.142-0.7542 0.21311-0.37711 0.07378-0.75422 0.07378-0.90267 0-1.4045-0.4558-0.49884-0.45876-0.49884-1.2845 0-0.81098 0.48993-1.2756 0.49291-0.46469 1.354-0.46469 0.78389 0 1.253 0.47062 0.47213 0.47058 0.47213 1.2579zm-1.0927-0.3522q0-0.30189-0.17822-0.4854-0.17511-0.18644-0.46027-0.18644-0.30878 0-0.50178 0.17467-0.19311 0.17156-0.24055 0.49724z" fill="#cfd8dc" fill-opacity=".54" stroke-width=".56764"/>
 <path d="m157.16 80.667h1.0957l0.76606 3.2113 0.76016-3.2113h1.1016l0.76016 3.2113 0.76606-3.2113h1.0868l-1.0452 4.4189h-1.3184l-0.80469-3.3593-0.79577 3.3593h-1.3184z" fill="#cfd8dc" fill-opacity=".54" stroke-width=".56764"/>
 <path d="m167.31 83.422v0.30189h-2.4853q0.0387 0.37293 0.2702 0.5594 0.2316 0.18644 0.64731 0.18644 0.33555 0 0.68593-0.09778 0.35333-0.10067 0.72451-0.30191v0.81691q-0.37711 0.142-0.7542 0.21311-0.37713 0.07378-0.75424 0.07378-0.90267 0-1.4045-0.4558-0.49885-0.45876-0.49885-1.2845 0-0.81098 0.48996-1.2756 0.49289-0.46469 1.354-0.46469 0.78393 0 1.2531 0.47062 0.47209 0.47058 0.47209 1.2579zm-1.0927-0.3522q0-0.30189-0.17822-0.4854-0.17511-0.18644-0.46022-0.18644-0.30883 0-0.50183 0.17467-0.19311 0.17156-0.24051 0.49724z" fill="#cfd8dc" fill-opacity=".54" stroke-width=".56764"/>
 <path d="m170.38 82.267v-1.7758h1.069v4.6053h-1.069v-0.47949q-0.21978 0.293-0.484 0.42916-0.26429 0.13622-0.61169 0.13622-0.61465 0-1.0096-0.4854-0.39491-0.48836-0.39491-1.255 0-0.76658 0.39491-1.252 0.39493-0.48833 1.0096-0.48833 0.34444 0 0.60871 0.13911 0.26724 0.13622 0.48698 0.42618zm-0.70078 2.1458q0.34147 0 0.51964-0.24862 0.18111-0.24862 0.18111-0.7222 0-0.47353-0.18111-0.72218-0.17822-0.2486-0.51964-0.2486-0.33851 0-0.51962 0.2486-0.17823 0.24864-0.17823 0.72218 0 0.47358 0.17823 0.7222 0.18111 0.24862 0.51962 0.24862z" fill="#cfd8dc" fill-opacity=".54" stroke-width=".56764"/>
 <path d="m175.96 80.667h4.0858v0.86129h-1.4698v3.5576h-1.1432v-3.5576h-1.4728z" fill="#cfd8dc" fill-opacity=".54" stroke-width=".56764"/>
 <path d="m183.93 83.067v2.0185h-1.069v-1.5391q0-0.43507-0.0222-0.59789-0.0178-0.16289-0.0653-0.23973-0.0622-0.10356-0.16911-0.15978-0.10689-0.05933-0.24349-0.05933-0.33255 0-0.52262 0.25749-0.19 0.25453-0.19 0.70738v1.6308h-1.063v-4.6053h1.063v1.7758q0.24051-0.29004 0.51071-0.42618 0.27022-0.13911 0.59684-0.13911 0.57607 0 0.87298 0.3522 0.29991 0.3522 0.29991 1.0241z" fill="#cfd8dc" fill-opacity=".54" stroke-width=".56764"/>
 <path d="m184.87 83.8v-2.0245h1.069v0.33151q0 0.26933-2e-3 0.67778-2e-3 0.40549-2e-3 0.54162 0 0.39958 0.0222 0.57716 0.0222 0.17467 0.0713 0.25456 0.0653 0.10356 0.16933 0.15978 0.10689 0.05622 0.24349 0.05622 0.33258 0 0.5226-0.25453 0.19-0.25453 0.19-0.70738v-1.6368h1.063v3.3149h-1.063v-0.47947q-0.24051 0.29002-0.51073 0.42916-0.26725 0.13622-0.59089 0.13622-0.57605 0-0.87891-0.35222-0.30019-0.35218-0.30019-1.0241z" fill="#cfd8dc" fill-opacity=".54" stroke-width=".56764"/>
 <path d="m195.31 80.667h3.0851v0.86129h-1.9419v0.82282h1.8261v0.86129h-1.8261v1.8735h-1.1432z" fill="#cfd8dc" fill-opacity=".54" stroke-width=".56764"/>
 <path d="m201.49 82.689q-0.13956-0.06511-0.27911-0.09467-0.13667-0.03267-0.27616-0.03267-0.40978 0-0.63247 0.26342-0.21977 0.26044-0.21977 0.74882v1.5272h-1.063v-3.3149h1.063v0.5446q0.20489-0.32556 0.46915-0.47356 0.26725-0.15089 0.6384-0.15089 0.0533 0 0.116 0.0067 0.0622 0.0021 0.18111 0.01778z" fill="#cfd8dc" fill-opacity=".54" stroke-width=".56764"/>
 <path d="m202.02 81.778h1.063v3.3149h-1.063zm0-1.2904h1.063v0.86427h-1.063z" fill="#cfd8dc" fill-opacity=".54" stroke-width=".56764"/>
 <path d="m213.87 80.822v0.93529q-0.36522-0.16289-0.71264-0.24564-0.3474-0.08289-0.65622-0.08289-0.40978 0-0.60576 0.11244-0.19578 0.11267-0.19578 0.34927 0 0.17756 0.13067 0.2782 0.13356 0.09778 0.48107 0.16889l0.48693 0.09778q0.7394 0.148 1.0512 0.44987 0.31177 0.30189 0.31177 0.85833 0 0.73104-0.43648 1.0892-0.43352 0.35516-1.3273 0.35516-0.42165 0-0.84625-0.08-0.42462-0.07978-0.84924-0.23676v-0.96193q0.42462 0.22496 0.81953 0.34038 0.39789 0.11244 0.76609 0.11244 0.37413 0 0.57309-0.12444 0.19889-0.12444 0.19889-0.35516 0-0.20733-0.13667-0.31967-0.13355-0.11244-0.53744-0.20133l-0.44245-0.09778q-0.66511-0.14222-0.97393-0.45282-0.30585-0.3108-0.30585-0.83762 0-0.66002 0.42758-1.0152 0.4276-0.35516 1.2293-0.35516 0.36525 0 0.75125 0.05622 0.38602 0.05333 0.79875 0.16289z" fill="#cfd8dc" fill-opacity=".54" stroke-width=".56764"/>
 <path d="m216.62 83.6q-0.33256 0-0.50182 0.11244-0.16622 0.11244-0.16622 0.33149 0 0.20133 0.13355 0.31669 0.13667 0.11244 0.37711 0.11244 0.29991 0 0.5048-0.21311 0.20489-0.216 0.20489-0.53867v-0.12133zm1.6242-0.39958v1.8913h-1.0719v-0.49133q-0.21378 0.30189-0.48102 0.441-0.26725 0.13622-0.65029 0.13622-0.51667 0-0.84034-0.29893-0.32066-0.30189-0.32066-0.78138 0-0.58309 0.40084-0.85538 0.40385-0.27231 1.265-0.27231h0.62651v-0.08289q0-0.25158-0.19889-0.36702-0.19889-0.11844-0.62058-0.11844-0.34146 0-0.63544 0.068-0.29396 0.068-0.54636 0.20422v-0.808q0.34149-0.08289 0.68591-0.12444 0.34445-0.04444 0.68891-0.04444 0.89969 0 1.2976 0.35516 0.40087 0.35222 0.40087 1.1484z" fill="#cfd8dc" fill-opacity=".54" stroke-width=".56764"/>
 <path d="m220.38 80.844v0.9412h1.0957v0.75771h-1.0957v1.4059q0 0.23087 0.092 0.31371 0.092 0.08 0.36524 0.08h0.54636v0.75769h-0.9116q-0.62949 0-0.89376-0.26044-0.26129-0.26342-0.26129-0.89089v-1.4059h-0.52853v-0.75771h0.52853v-0.94118z" fill="#cfd8dc" fill-opacity=".54" stroke-width=".56764"/>
 <path d="m104.8 197.31v0.56858h119.53v-0.56858z" color="#000000" color-rendering="auto" dominant-baseline="auto" fill="#ffffff" fill-opacity=".13" image-rendering="auto" shape-rendering="auto" solid-color="#000000" stop-color="#000000" stroke-width="2.2222" style="font-feature-settings:normal;font-variant-alternates:normal;font-variant-caps:normal;font-variant-east-asian:normal;font-variant-ligatures:normal;font-variant-numeric:normal;font-variant-position:normal;font-variation-settings:normal;inline-size:0;isolation:auto;mix-blend-mode:normal;shape-margin:0;shape-padding:0;text-decoration-color:#000000;text-decoration-line:none;text-decoration-style:solid;text-indent:0;text-orientation:mixed;text-transform:none;white-space:normal"/>
 <path d="m140.8 204.6v2.4696c-0.15756-0.27169-0.35709-0.47277-0.59896-0.60331-0.23913-0.13311-0.52673-0.19955-0.86371-0.19955-0.55166 0-1.002 0.21955-1.3498 0.65971-0.34513 0.44024-0.51651 1.0187-0.51649 1.7361-2e-5 0.71744 0.17133 1.2959 0.51649 1.7361 0.34782 0.44027 0.79816 0.65973 1.3498 0.65973 0.33698 0 0.62458-0.0649 0.86371-0.19533 0.24187-0.13311 0.44136-0.33589 0.59896-0.60764v0.68577h0.75087v-6.3411h-0.75087zm9.7873 4e-3v0.95054h0.75087v-0.95054zm35.218 0v0.95054h0.75087v-0.95054zm-15.074 0.152c-0.6658 0-1.1907 0.15889-1.5712 0.46876-0.37775 0.3098-0.56424 0.73362-0.56424 1.2717 0 0.46471 0.13778 0.82418 0.41233 1.0851 0.27449 0.26077 0.71831 0.45488 1.3325 0.57724l0.49913 0.0956c0.41851 0.0842 0.72071 0.21355 0.90278 0.38195 0.18489 0.16845 0.27778 0.39985 0.27778 0.69878 0 0.34242-0.13089 0.60513-0.38629 0.78993-0.25542 0.18489-0.61493 0.27778-1.0851 0.27778-0.3098 0-0.62553-0.0482-0.94617-0.14333-0.32069-0.0951-0.651-0.23349-0.98525-0.421v0.84635c0.34785 0.12778 0.68356 0.22562 1.0069 0.2908 0.32614 0.0651 0.63643 0.0956 0.92449 0.0956 0.76363 0 1.3421-0.15134 1.7361-0.45574 0.39676-0.30437 0.59463-0.75144 0.59463-1.3411 0-0.49458-0.14911-0.88707-0.44271-1.1806-0.29078-0.29615-0.74003-0.50375-1.3542-0.62064l-0.49913-0.10422c-0.45111-0.0842-0.75709-0.194-0.92016-0.32985-0.16044-0.13866-0.24304-0.34298-0.24304-0.612 0-0.32066 0.12266-0.56391 0.36457-0.73784 0.24458-0.174 0.58892-0.26476 1.0373-0.26476 0.25813 0 0.52575 0.0393 0.80295 0.11289 0.27718 0.0733 0.57291 0.18467 0.8854 0.3342v-0.80257c-0.30977-0.10311-0.61089-0.18267-0.90711-0.23438-0.2962-0.0518-0.58706-0.0782-0.8724-0.0782zm-25.798 0.0956v0.69444h2.1614v5.3907h0.82467v-5.3907h2.1614v-0.69404zm-40.109 0.0133v6.0851h1.6927c1.174 7e-5 2.0368-0.24591 2.5911-0.73784 0.5544-0.49196 0.83333-1.2601 0.83333-2.3091 0-1.0436-0.27733-1.8112-0.82898-2.3004-0.55169-0.49186-1.4161-0.73784-2.5956-0.73784h-1.6927zm11.493 0.22569v1.2934h-0.5512v0.58596h0.5512v2.4782c0 0.57066 0.10977 0.96315 0.32986 1.1806 0.22023 0.21467 0.61909 0.32118 1.1979 0.32118h0.77258v-0.625h-0.77258c-0.31251 0-0.5174-0.0547-0.62064-0.16067-0.10067-0.106-0.152-0.34386-0.152-0.71615v-2.4782h1.5451v-0.58596h-1.5451v-1.2934zm62.947 0v1.2934h-0.54689v0.58596h0.54689v2.4782c0 0.57066 0.10978 0.96315 0.32985 1.1806 0.22022 0.21467 0.62342 0.32118 1.2023 0.32118h0.76823v-0.625h-0.76823c-0.31253 0-0.52173-0.0547-0.625-0.16067-0.10066-0.106-0.152-0.34386-0.152-0.71615v-2.4782h1.5451v-0.58596h-1.5451v-1.2934zm3.2724 0v1.2934h-0.55122v0.58596h0.55122v2.4782c0 0.57066 0.10978 0.96315 0.32986 1.1806 0.22023 0.21467 0.61909 0.32118 1.1979 0.32118h0.76824v-0.625h-0.76824c-0.31252 0-0.52174-0.0547-0.625-0.16067-0.10067-0.106-0.152-0.34386-0.152-0.71615v-2.4782h1.5452v-0.58596h-1.5452v-1.2934zm-76.889 0.4514h0.99393c0.83971 0 1.456 0.18822 1.8446 0.56858 0.39134 0.37773 0.58594 0.97724 0.58594 1.7925 0 0.82069-0.19467 1.4208-0.58594 1.8012-0.38862 0.38045-1.0049 0.56858-1.8446 0.56858h-0.99393zm15.864 0.72049c-0.6848 0-1.2314 0.21956-1.6363 0.65971-0.4022 0.43751-0.60331 1.0322-0.60331 1.7795 0 0.72287 0.214 1.2948 0.63802 1.7188 0.42665 0.42393 1.0035 0.63369 1.7318 0.63369 0.29075 0 0.57675-0.0269 0.85938-0.0869 0.28262-0.0598 0.55995-0.14623 0.82897-0.2604v-0.71183c-0.26631 0.14134-0.53553 0.24618-0.80728 0.31685-0.26905 0.0707-0.5496 0.10844-0.83767 0.10844-0.49731 0-0.88329-0.13466-1.1632-0.40364-0.2772-0.27176-0.43616-0.66422-0.46876-1.1806h3.4504v-0.36893c0-0.67938-0.17956-1.2162-0.5382-1.6102-0.356-0.39676-0.83982-0.5946-1.454-0.5946zm41.433 0c-0.68482 0-1.227 0.21956-1.632 0.65971-0.4022 0.43751-0.60328 1.0322-0.60328 1.7795 0 0.72287 0.20977 1.2948 0.63366 1.7188 0.42665 0.42393 1.0035 0.63369 1.7318 0.63369 0.29078 0 0.57676-0.0269 0.85938-0.0869 0.28262-0.0598 0.55995-0.14623 0.82898-0.2604v-0.71183c-0.26632 0.14134-0.53554 0.24618-0.80729 0.31685-0.26903 0.0707-0.54525 0.10844-0.83334 0.10844-0.49729 0-0.88762-0.13466-1.1675-0.40364-0.2772-0.27176-0.4318-0.66422-0.4644-1.1806h3.4462v-0.36893c0-0.67938-0.17511-1.2162-0.53384-1.6102-0.356-0.39676-0.84416-0.5946-1.4583-0.5946zm13.103 0c-0.68482 0-1.2314 0.21956-1.6363 0.65971-0.40217 0.43751-0.60328 1.0322-0.60328 1.7795 0 0.72287 0.21422 1.2948 0.63802 1.7188 0.42666 0.42393 1.0034 0.63369 1.7318 0.63369 0.29078 0 0.57676-0.0269 0.85938-0.0869 0.28262-0.0598 0.55996-0.14623 0.829-0.2604v-0.71183c-0.26633 0.14134-0.53555 0.24618-0.80729 0.31685-0.26904 0.0707-0.54962 0.10844-0.83766 0.10844-0.49732 0-0.88329-0.13466-1.1632-0.40364-0.2772-0.27176-0.43183-0.66422-0.46443-1.1806h3.4462v-0.36893c0-0.67938-0.17956-1.2162-0.53818-1.6102-0.356-0.39676-0.83982-0.5946-1.454-0.5946zm-41.338 4e-3c-0.31796 0-0.59745 0.0682-0.84203 0.204-0.24186 0.13578-0.45431 0.34185-0.63369 0.61631v-0.70746h-0.7552v4.5616h0.7552v-2.5782c3e-5 -0.44567 0.11778-0.79651 0.35158-1.0547 0.23371-0.25815 0.54996-0.39062 0.95487-0.39062 0.33698 0 0.59104 0.11089 0.75953 0.32551 0.16845 0.21467 0.25174 0.5358 0.25174 0.96789v2.73h0.75086v-2.7518c0-0.63044-0.13466-1.1089-0.40364-1.4323-0.26902-0.32608-0.66474-0.49044-1.1892-0.49044zm55.633 0c-0.31796 0-0.60178 0.0682-0.84636 0.204-0.24184 0.13578-0.44997 0.34185-0.62933 0.61631v-0.70746h-0.7552v4.5616h0.7552v-2.5782c0-0.44567 0.11778-0.79651 0.35156-1.0547 0.23371-0.25815 0.54997-0.39062 0.95486-0.39062 0.33698 0 0.59107 0.11089 0.75956 0.32551 0.16844 0.21467 0.25173 0.5358 0.25173 0.96789v2.73h0.75087v-2.7518c0-0.63044-0.13467-1.1089-0.40365-1.4323-0.26902-0.32608-0.66475-0.49044-1.1892-0.49044zm9.8351 0c-0.5598 0-0.98904 0.11356-1.2934 0.34723-0.30436 0.23371-0.46007 0.56891-0.46007 0.99826 0 0.35329 0.106 0.62951 0.31251 0.83334 0.20645 0.20111 0.54225 0.34926 1.0069 0.44704l0.26042 0.0607c0.46473 0.10044 0.76258 0.208 0.89844 0.31684 0.13845 0.10867 0.20823 0.26496 0.20823 0.46876 0 0.22-0.092 0.38977-0.28214 0.51215-0.19022 0.11956-0.46269 0.178-0.81595 0.178-0.26362 0-0.52958-0.0336-0.79862-0.10422-0.26903-0.0733-0.54312-0.18156-0.82032-0.32551v0.77255c0.29349 0.0949 0.56974 0.16645 0.83334 0.21267 0.26631 0.0489 0.52364 0.0738 0.76822 0.0738 0.58698 0 1.046-0.12156 1.3802-0.36893 0.33698-0.24729 0.5078-0.583 0.5078-1.0069 0-0.37229-0.11289-0.66153-0.33853-0.86806-0.22285-0.20912-0.60018-0.37189-1.1328-0.48612l-0.25607-0.0564c-0.40231-0.0898-0.66991-0.18444-0.80296-0.28211-0.13311-0.10067-0.19955-0.23842-0.19955-0.41233 0-0.22818 0.0887-0.39794 0.27342-0.51216 0.18756-0.11422 0.46971-0.17356 0.84202-0.17356 0.24458 0 0.4792 0.028 0.70747 0.0824 0.22829 0.0542 0.44776 0.13422 0.65973 0.24304v-0.70746c-0.20644-0.0816-0.42815-0.14156-0.67275-0.18222-0.24458-0.0407-0.5084-0.0607-0.7856-0.0607zm-45.078 9e-3c-0.32882 0-0.61155 0.0667-0.85069 0.19956-0.23913 0.13311-0.44509 0.34075-0.61633 0.62066v-0.71182h-0.7552v4.566h0.7552v-2.5782c0-0.44293 0.11289-0.79216 0.33856-1.0503 0.22555-0.26087 0.52828-0.39498 0.91144-0.39498 0.3234 0 0.56127 0.10933 0.71616 0.3212 0.15488 0.20933 0.23437 0.53198 0.23437 0.97222v2.73h0.7552v-2.5782c0-0.44567 0.11289-0.79651 0.33854-1.0547 0.22555-0.25818 0.53153-0.39064 0.92015-0.39064 0.31794 0 0.55256 0.10933 0.70747 0.3212 0.15489 0.212 0.23435 0.53471 0.23435 0.97222v2.73h0.75523v-2.756c0-0.61418-0.13245-1.0834-0.39063-1.4149-0.25817-0.33427-0.62253-0.50347-1.0981-0.50347-0.35329 0-0.65927 0.0827-0.92016 0.24305-0.26089 0.16022-0.48522 0.40522-0.67273 0.74217-0.11134-0.32064-0.28714-0.565-0.52083-0.73349-0.231-0.16844-0.51048-0.25173-0.84202-0.25173zm-42.287 4e-3c-0.24458 0-0.49707 0.028-0.7552 0.0824-0.25818 0.0518-0.52416 0.12845-0.79863 0.23438v0.69444c0.22827-0.12489 0.46451-0.21955 0.71183-0.28213 0.24726-0.0624 0.503-0.0911 0.76388-0.0911 0.41036 0 0.72929 0.092 0.95485 0.28211 0.22827 0.18756 0.34289 0.45349 0.34289 0.79862v0.0738h-1.0547c-0.68209 0-1.1957 0.134-1.5408 0.39496-0.34242 0.26088-0.51216 0.64524-0.51216 1.1589 0 0.44022 0.13778 0.79107 0.41234 1.0547 0.27717 0.26087 0.64804 0.39496 1.1154 0.39496 0.3696 0 0.68207-0.0649 0.93751-0.19534 0.25545-0.13311 0.47116-0.33913 0.64236-0.61631v0.69009h0.74653v-2.6042c0-0.69569-0.16-1.2158-0.48611-1.5582s-0.81969-0.51215-1.48-0.51215zm16.176 0c-0.2446 0-0.49705 0.028-0.75522 0.0824-0.25816 0.0518-0.52414 0.12845-0.7986 0.23438v0.69444c0.22826-0.12489 0.46884-0.21955 0.71615-0.28213 0.24729-0.0624 0.49865-0.0911 0.75953-0.0911 0.41036 0 0.72932 0.092 0.95487 0.28211 0.22827 0.18756 0.34289 0.45349 0.34289 0.79862v0.0738h-1.0504c-0.68211 0-1.1957 0.134-1.5408 0.39496-0.34242 0.26088-0.51648 0.64524-0.51648 1.1589 0 0.44022 0.13777 0.79107 0.41233 1.0547 0.27718 0.26087 0.64804 0.39496 1.1154 0.39496 0.3696 0 0.68207-0.0649 0.93749-0.19534 0.25547-0.13311 0.47118-0.33913 0.64238-0.61631v0.69009h0.75087v-2.6042c0-0.69569-0.16445-1.2158-0.49047-1.5582-0.32611-0.3424-0.81969-0.51215-1.48-0.51215zm65.98 0c-0.55982 0-1.0118 0.21133-1.3542 0.63802-0.34242 0.42667-0.51216 0.99482-0.51216 1.7014 0 0.70384 0.16978 1.2661 0.51216 1.6927 0.34242 0.42666 0.79436 0.64235 1.3542 0.64235 0.33695 0 0.62618-0.0667 0.86804-0.19955 0.24187-0.13311 0.43971-0.33425 0.59462-0.60329v0.36891c0 0.51907-0.12444 0.90776-0.36893 1.1632-0.24458 0.25816-0.61053 0.38629-1.1024 0.38629-0.22285 0-0.44071-0.0298-0.65538-0.0869s-0.43529-0.14511-0.6554-0.26476v0.73352c0.22022 0.0815 0.44771 0.14 0.68145 0.178 0.23368 0.0407 0.48291 0.0607 0.74651 0.0607 0.712 0 1.2434-0.19244 1.5886-0.57291 0.34511-0.37773 0.51649-0.95455 0.51649-1.7318v-3.9973h-0.75087v0.69445c-0.15488-0.26918-0.35275-0.47027-0.59462-0.60331-0.24186-0.13311-0.53109-0.19956-0.86804-0.19956zm-44.384 0.0998v4.566h0.75087v-4.566zm35.218 0v4.566h0.75087v-4.566zm-46.284 0.51215c0.39675 0 0.7092 0.15778 0.93749 0.47309 0.22828 0.31251 0.34288 0.74609 0.34288 1.2977 0 0.55169-0.11466 0.98685-0.34288 1.3021-0.22829 0.31251-0.54074 0.46876-0.93749 0.46876-0.39676 0-0.70925-0.15623-0.93749-0.46876-0.22558-0.31524-0.33856-0.7504-0.33856-1.3021 0-0.55164 0.11289-0.98522 0.33856-1.2977 0.22824-0.31525 0.54073-0.47309 0.93749-0.47309zm-17.999 4e-3c0.3696 0 0.66257 0.12445 0.88542 0.36894 0.22506 0.24458 0.34129 0.57053 0.34722 0.98089l-2.6736 4e-3c0.038-0.42938 0.184-0.76184 0.43405-0.99827 0.25271-0.23642 0.58842-0.35591 1.0069-0.35591zm41.433 0c0.3696 0 0.66693 0.12445 0.88975 0.36894 0.22507 0.24458 0.34132 0.57053 0.34723 0.98089l-2.6736 4e-3c0.038-0.42938 0.17956-0.76184 0.42969-0.99827 0.25271-0.23642 0.58844-0.35591 1.0069-0.35591zm13.103 0c0.3696 0 0.66258 0.12445 0.8854 0.36894 0.22507 0.24458 0.34131 0.57053 0.34722 0.98089l-2.6736 4e-3c0.038-0.42938 0.184-0.76184 0.43402-0.99827 0.25271-0.23642 0.58845-0.35591 1.007-0.35591zm19.097 9e-3c0.40491 0 0.719 0.15245 0.94182 0.45138 0.22558 0.29893 0.33855 0.71951 0.33855 1.263 0 0.5408-0.11289 0.95976-0.33855 1.2587-0.22282 0.29891-0.53691 0.44705-0.94182 0.44705-0.4022 0-0.71629-0.14823-0.94185-0.44705-0.22284-0.29893-0.3342-0.71789-0.3342-1.2587 0-0.54351 0.11133-0.96409 0.3342-1.263 0.22556-0.29893 0.53965-0.45138 0.94185-0.45138zm-81.867 1.7578h0.74653v0.16489c0 0.48918-0.12933 0.88002-0.38195 1.1762-0.25003 0.29349-0.58247 0.44272-0.99825 0.44272-0.30164 0-0.53951-0.0796-0.71615-0.23438-0.174-0.15756-0.26043-0.36736-0.26043-0.63369 0-0.33431 0.11356-0.57329 0.34723-0.7118 0.23371-0.13845 0.65702-0.204 1.263-0.204zm16.176 0h0.74653v0.16489c0 0.48918-0.12488 0.88002-0.3776 1.1762-0.25004 0.29349-0.58684 0.44272-1.0026 0.44272-0.30164 0-0.53949-0.0796-0.71613-0.23438-0.174-0.15756-0.26042-0.36736-0.26042-0.63369 0-0.33431 0.11777-0.57329 0.35155-0.7118 0.23371-0.13845 0.65269-0.204 1.2587-0.204z" fill="#ffffff" fill-opacity=".87" opacity=".8" stroke-width=".5692"/>
</svg>
