<svg width="240" height="90" version="1.1" xmlns="http://www.w3.org/2000/svg">
 <defs>
  <filter id="filter898" x="-.108" y="-.108" width="1.216" height="1.216" color-interpolation-filters="sRGB">
   <feGaussianBlur stdDeviation="0.81"/>
  </filter>
  <filter id="filter1830" x="-.108" y="-.108" width="1.216" height="1.216" color-interpolation-filters="sRGB">
   <feGaussianBlur stdDeviation="0.81"/>
  </filter>
 </defs>
 <rect width="240" height="90" rx="10" ry="10" fill="#ffffff"/>
 <rect width="240" height="90" rx="0" ry="0" fill="#2c2c2c"/>
 <rect y="74" width="240" height="16" rx="0" ry="0" fill="#ffffff" opacity=".15" stroke-width=".95166"/>
 <path d="m108.51 78.11v0.57291h-1.7057v6.8273c0 0.31533 0.25325 0.56857 0.56858 0.56857h4.553c0.31533 0 0.56858-0.25324 0.56858-0.56857v-6.8273h-1.7057v-0.57291zm17.075 0-2.3003 2.3003h-1.7101v3.4158h1.7578l2.2526 2.2526zm1.1372 0v0.85503c1.3205 0.4212 2.2786 1.6665 2.2786 3.1293s-0.95811 2.7081-2.2786 3.1293v0.85503c1.793-0.44397 3.1337-2.0491 3.1337-3.9844s-1.3407-3.5404-3.1337-3.9844zm-51.784 0.026c-0.5692 0-0.56858 0.56858-0.56858 0.56858v6.8316s-6.2e-4 0.56858 0.56858 0.56858h5.6901s0.56858 6.2e-4 0.56858-0.56858v-6.8316s6.3e-4 -0.56858-0.56858-0.56858zm157.1 0.54687c-0.94309 0-1.7057 0.76703-1.7057 1.7101s0.76264 1.7057 1.7057 1.7057c0.94311 0 1.7101-0.76269 1.7101-1.7057s-0.76696-1.7101-1.7101-1.7101zm-154.26 0.59472c1.2574 0 2.2786 1.0169 2.2786 2.2743s-1.0212 2.2786-2.2786 2.2786h-2.2743v-2.2786c0-1.2574 1.0169-2.2743 2.2743-2.2743zm-28.576 0.0737c-0.69571 0-1.2968 0.19896-1.7969 0.59028l0.39498 0.52083c0.43482-0.32611 0.90187-0.49045 1.4019-0.49045 0.30433 0 0.54222 0.0865 0.71613 0.26042 0.19578 0.15217 0.29516 0.35977 0.29516 0.62066 0 0.34783-0.12111 0.62894-0.36024 0.84635-0.23916 0.19564-0.57649 0.29514-1.0113 0.29514h-0.55556v0.62066h0.55556c0.52178 0 0.90236 0.0865 1.1415 0.26042 0.26087 0.17393 0.39062 0.43341 0.39062 0.78125 0 0.39132-0.12111 0.6854-0.36024 0.88107-0.23916 0.19567-0.59376 0.29514-1.072 0.29514-0.54349 0-1.0668-0.12973-1.5668-0.39062v0.71614c0.39136 0.19567 0.92329 0.2908 1.5972 0.2908 0.71742 0 1.2624-0.15136 1.632-0.45573 0.36956-0.32611 0.5512-0.75857 0.5512-1.3021 0-0.82606-0.48869-1.3061-1.467-1.4366 0.84787-0.17394 1.2717-0.64965 1.2717-1.4323 0-0.4348-0.15133-0.78512-0.45571-1.046-0.30438-0.28263-0.73687-0.42535-1.3021-0.42535zm-12.582 0.12153c-0.63047 0-1.2057 0.22488-1.7274 0.68143l0.42536 0.49045c0.41307-0.3696 0.83689-0.55556 1.2717-0.55556 0.30436 0 0.54222 0.0865 0.71613 0.26042 0.174 0.17393 0.26042 0.41612 0.26042 0.72049 0 0.30435-0.0736 0.59845-0.22569 0.88107-0.13044 0.28263-0.4894 0.73671-1.0764 1.3672l-1.4366 1.5321v0.65538h3.7196v-0.68576h-2.8038v-0.0347l1.1415-1.2066c0.587-0.65221 0.96756-1.1496 1.1415-1.4974 0.19578-0.34785 0.2908-0.69817 0.2908-1.046 0-0.47829-0.15133-0.85887-0.45573-1.1415-0.30436-0.28262-0.71953-0.42101-1.2413-0.42101zm25.382 0.0347-2.7083 4.0104v0.65104h2.7387v1.3368h0.71613v-1.3368h0.88109v-0.68577h-0.88109v-3.9757zm31.727 0.31684c-1.2679 0-2.5353 0.48288-3.5026 1.4496l3.5026 4.2448 3.5026-4.2448c-0.9674-0.96677-2.2347-1.4496-3.5026-1.4496zm-31.662 0.46441h0.0304c-0.0433 0.69569-0.0651 1.2839-0.0651 1.7622v1.4366l-2.0226-4e-3 1.697-2.4783c0.13044-0.19567 0.25151-0.43352 0.36024-0.71615zm64.653 0.0998v3.4115c0.60335-0.33013 1.02-0.96578 1.02-1.7057s-0.41096-1.3756-1.02-1.7057zm-48.941 0.026c-0.62873 0-1.1372 0.50843-1.1372 1.1372 0 0.62871 0.50844 1.1372 1.1372 1.1372s1.1415-0.50844 1.1415-1.1372c0-0.62872-0.51278-1.1372-1.1415-1.1372zm154.26 2.8212c-3.4153 2e-3 -3.4115 2.2786-3.4115 2.2786v0.56858h6.8273v-0.56858s-7.3e-4 -2.2804-3.4158-2.2786z" fill="#ffffff" opacity=".8" stroke-width=".56919"/>
 <path d="m73.224 86.66v-9.1071h9.1071v9.1071z" color="#bebebe" opacity="0" stroke-width="1.7076"/>
 <g stroke-width=".56919">
  <path d="m98.28 86.66v-9.1071h-9.1071v9.1071z" color="#bebebe" fill="none"/>
  <path d="m89.174 80c2.5149-2.5134 6.5924-2.5134 9.1071 0l-4.5536 5.5139z" fill="#ffffff" opacity=".35"/>
  <g fill="none">
   <path d="m114.2 77.54v9.1071h-9.1071v-9.1071z" color="#dddddd"/>
   <path d="m121.04 77.54h9.1071v9.1071h-9.1071z" color="#bebebe" opacity=".1"/>
   <path d="m227.49 77.55h9.1071v9.1071h-9.1071z" color="#bebebe" enable-background="new"/>
  </g>
 </g>
 <g fill="#ffffff">
  <path d="m24.54 85.51h-0.71742v-3.7177q0-0.78265 0.0327-1.4675l-1.1087 0.94571-0.39133-0.48916 1.5653-1.2392h0.6196z" stroke-width=".56919"/>
  <path d="m135.56 74h88.889v16h-88.889z" fill-rule="evenodd" opacity=".15" stroke-width="2.1362"/>
  <path d="m197.38 79c-0.74176 0-1.3164 0.25164-1.7187 0.75955-0.40231 0.50544-0.60331 1.2261-0.60331 2.1615 0 0.93289 0.20111 1.6536 0.60331 2.1615 0.40231 0.5054 0.97698 0.75955 1.7187 0.75955 0.73924 0 1.3078-0.25415 1.7101-0.75955 0.40231-0.50796 0.60331-1.2286 0.60331-2.1615 0-0.9354-0.20111-1.6561-0.60331-2.1615-0.40231-0.50791-0.97082-0.75955-1.7101-0.75955zm5.382 0c-0.68642 0-1.208 0.12434-1.5625 0.37327-0.35453 0.24892-0.53384 0.60984-0.53384 1.0851 0 0.31934 0.0869 0.58488 0.26042 0.79861 0.17355 0.21371 0.4306 0.37432 0.77255 0.47743-0.38217 0.1056-0.66757 0.27762-0.86371 0.51649-0.19355 0.23636-0.2908 0.53636-0.2908 0.89844 0 0.55819 0.18334 0.98072 0.55556 1.2674 0.37464 0.28413 0.93064 0.42535 1.6623 0.42535 0.72918 0 1.2753-0.14123 1.645-0.42535 0.37213-0.28664 0.55991-0.70917 0.55991-1.2674 0-0.36208-0.0991-0.66208-0.29516-0.89844-0.19355-0.23891-0.48151-0.41094-0.86371-0.51649 0.34196-0.10309 0.59907-0.26371 0.77258-0.47743 0.176-0.21374 0.26475-0.47927 0.26475-0.79861 0-0.47774-0.17488-0.83866-0.52951-1.0851-0.35453-0.24894-0.87242-0.37327-1.5538-0.37327zm13.832 0c-0.68645 0-1.208 0.12434-1.5625 0.37327-0.35454 0.24892-0.52952 0.60984-0.52952 1.0851 0 0.31934 0.0827 0.58488 0.25607 0.79861 0.17356 0.21371 0.43496 0.37432 0.77691 0.47743-0.38218 0.1056-0.67191 0.27762-0.86804 0.51649-0.19356 0.23636-0.2908 0.53636-0.2908 0.89844 0 0.55819 0.18333 0.98072 0.55555 1.2674 0.37465 0.28413 0.93065 0.42535 1.6623 0.42535 0.72917 0 1.2797-0.14123 1.6493-0.42535 0.37213-0.28664 0.55555-0.70917 0.55555-1.2674 0-0.36208-0.0989-0.66208-0.29513-0.89844-0.19356-0.23891-0.48151-0.41094-0.86371-0.51649 0.34197-0.10309 0.60342-0.26371 0.77691-0.47743 0.176-0.21374 0.26042-0.47927 0.26042-0.79861 0-0.47774-0.17489-0.83866-0.52951-1.0851-0.35453-0.24894-0.87242-0.37327-1.5538-0.37327zm-36.094 0.0912-1.3108 0.27344v0.98524l1.3194-0.2691v3.6372h-1.2847v1.0026h3.9366v-1.0026h-1.2804v-4.6267zm-39.484 4e-3v1.0938h1.8707v4.5356h1.454v-4.5356h1.8663v-1.0938zm18.524 0v5.6293h1.3759v-3.8628l2.0486 3.8628h1.6233v-5.6293h-1.3802v3.8585l-2.0486-3.8585zm26.758 9e-3 -2.2569 3.3594v1.2457h2.4957v1.0243h1.3759v-1.0243h0.80296v-1.0547h-0.80296v-3.5504zm24.826 0-2.257 3.3594v1.2457h2.4957v1.0243h1.3759v-1.0243h0.80295v-1.0547h-0.80295v-3.5504zm-8.3637 0.80729c0.22625 0 0.39758 0.0617 0.52082 0.18229 0.12334 0.11818 0.18667 0.28836 0.18667 0.51216 0 0.22371-0.0633 0.39573-0.18667 0.51649-0.12311 0.12062-0.29451 0.18229-0.52082 0.18229-0.23127 0-0.41242-0.0617-0.5382-0.18229-0.12333-0.12069-0.18222-0.29271-0.18222-0.51649 0-0.22123 0.0591-0.3914 0.18222-0.51216 0.12578-0.12062 0.30687-0.18229 0.5382-0.18229zm13.832 0c0.22624 0 0.40191 0.0617 0.52515 0.18229 0.12311 0.11818 0.18222 0.28836 0.18222 0.51216 0 0.22371-0.0591 0.39573-0.18222 0.51649-0.12311 0.12062-0.29884 0.18229-0.52515 0.18229-0.23127 0-0.41243-0.0617-0.5382-0.18229-0.12334-0.12069-0.18223-0.29271-0.18223-0.51649 0-0.22123 0.0591-0.3914 0.18223-0.51216 0.12577-0.12062 0.30686-0.18229 0.5382-0.18229zm-19.214 0.0825c0.31173 0 0.53324 0.14053 0.66406 0.42969 0.13311 0.28665 0.19956 0.78469 0.19956 1.4887 0 0.71158-0.0665 1.2144-0.19956 1.5061-0.13333 0.29168-0.35478 0.43403-0.66406 0.43403-0.31185 0-0.53523-0.14236-0.6684-0.43403-0.13312-0.29168-0.19956-0.7945-0.19956-1.5061 0-0.70402 0.0664-1.2021 0.19956-1.4887 0.13333-0.28915 0.35662-0.42969 0.6684-0.42969zm-10.842 0.30382v2.3568h-1.5886zm24.826 0v2.3568h-1.5885zm-57.799 0.0998c-0.7292 0-1.3057 0.19551-1.7231 0.59028-0.41487 0.39475-0.62065 0.93865-0.62065 1.6276 0 0.70153 0.21133 1.2466 0.63367 1.6363 0.42495 0.38722 1.0195 0.5816 1.7839 0.5816 0.31934-1e-5 0.63987-0.0327 0.9592-0.0955 0.31934-0.0603 0.63554-0.14834 0.95487-0.2691v-1.0417c-0.31431 0.17098-0.62093 0.29647-0.92015 0.38195-0.29672 0.083-0.58394 0.12586-0.86805 0.12586-0.35202 0-0.62851-0.0803-0.82464-0.23871-0.196-0.1584-0.31016-0.39499-0.34289-0.71181h3.1554v-0.38628c0-0.66883-0.19912-1.2018-0.59896-1.6016-0.39727-0.39979-0.92473-0.59896-1.5885-0.59896zm14.388 9e-3c-0.72918 0-1.302 0.19804-1.7144 0.59028-0.40987 0.39225-0.61198 0.93363-0.61198 1.6276 0 0.69399 0.202 1.2397 0.61198 1.632 0.41235 0.39224 0.98522 0.58593 1.7144 0.58593 0.72666 0 1.2941-0.19369 1.7014-0.58593 0.40984-0.39226 0.61197-0.93796 0.61197-1.632 0-0.69397-0.20222-1.2354-0.61197-1.6276-0.40734-0.39225-0.97474-0.59028-1.7014-0.59028zm-21.944 0.0868v2.5825c0 0.57077 0.128 1.0029 0.38196 1.3021 0.25646 0.29922 0.62766 0.45139 1.1154 0.45139 0.27409 0 0.52458-0.058 0.75087-0.17363 0.22882-0.11817 0.44304-0.30046 0.64671-0.54687v0.60764h1.3498v-4.2231h-1.3498v2.0877c0 0.38471-0.0778 0.68221-0.23871 0.89844-0.16089 0.21624-0.38245 0.32552-0.66407 0.32552-0.11578 0-0.222-0.0218-0.31251-0.0694-0.0878-0.0478-0.15733-0.11594-0.21267-0.204-0.0429-0.0679-0.0736-0.17718-0.0911-0.32552-0.0178-0.15087-0.026-0.3984-0.026-0.73785 0-0.11567 1e-3 -0.34564 4e-3 -0.6901 2e-3 -0.347 4e-3 -0.63491 4e-3 -0.86372v-0.42101zm24.696 0 1.6623 4.2231h1.48l1.6623-4.2231h-1.3542l-1.046 2.9167-1.0547-2.9167zm35.608 0v1.4583h1.3585v-1.4583zm-52.756 0.80295c0.2414 0 0.4376 0.0803 0.58593 0.23872 0.15089 0.15588 0.22569 0.35985 0.22569 0.61632h-1.7535c0.0402-0.27658 0.14045-0.48785 0.30383-0.63368 0.16355-0.14836 0.37653-0.22136 0.63802-0.22136zm14.397 0.0781c0.2942 0 0.51686 0.10928 0.67275 0.32552 0.15578 0.21373 0.23438 0.51966 0.23438 0.92448 0 0.40483-0.0784 0.71692-0.23438 0.93316-0.156 0.21373-0.37858 0.32118-0.67275 0.32118-0.29923 0-0.52736-0.10747-0.68576-0.32118-0.156-0.21625-0.23438-0.52833-0.23438-0.93316 0-0.40482 0.0785-0.71076 0.23438-0.92448 0.15845-0.21625 0.38653-0.32552 0.68576-0.32552zm34.809 0.83767c0.26911 0 0.47305 0.0773 0.61631 0.22569 0.14334 0.14582 0.21711 0.35459 0.21711 0.63368 0 0.27659-0.0738 0.48967-0.21711 0.63802-0.14333 0.14583-0.34726 0.22136-0.61631 0.22136-0.2716 0-0.48358-0.0755-0.62935-0.22136-0.146-0.14835-0.21689-0.36143-0.21689-0.63802 0-0.27658 0.0711-0.48534 0.21689-0.63368 0.14577-0.14835 0.3578-0.22569 0.62935-0.22569zm13.832 0c0.26911 0 0.47304 0.0773 0.61631 0.22569 0.14333 0.14582 0.21711 0.35459 0.21711 0.63368 0 0.27659-0.0738 0.48967-0.21711 0.63802-0.14334 0.14583-0.34727 0.22136-0.61631 0.22136-0.27163 0-0.47923-0.0755-0.625-0.22136-0.14578-0.14835-0.22134-0.36143-0.22134-0.63802 0-0.27658 0.0756-0.48534 0.22134-0.63368 0.14577-0.14835 0.35344-0.22569 0.625-0.22569zm-10.282 1.046v1.4583h1.3585v-1.4583zm-16.458 9e-3v1.1502l-0.3776 1.4062h0.80296l0.93315-1.4062v-1.1502z" stroke-width=".52666"/>
 </g>
 <path d="m91 12a10 10 0 0 0-10 10 10 10 0 0 0 10 10 10 10 0 0 0 10-10 10 10 0 0 0-10-10zm5.6289 5.9629v2e-3c0.12781-4e-6 0.25558 0.04855 0.35352 0.14648 0.19587 0.19587 0.19587 0.51116 0 0.70703l-7.0723 7.0723c-0.0245 0.02449-0.0503 0.04613-0.0781 0.06445-0.0277 0.01839-0.0559 0.03268-0.0859 0.04492-0.0301 0.01224-0.0623 0.01927-0.0937 0.02539-0.0315 0.0061-0.0637 0.01172-0.0957 0.01172-0.0319 0-0.0623-0.0055-0.0937-0.01172-0.0315-0.0061-0.0637-0.01315-0.0937-0.02539-0.0301-0.01224-0.0582-0.02656-0.0859-0.04492-0.0139-0.0092-0.0279-0.02051-0.041-0.03125-0.0131-0.01071-0.0268-0.02292-0.0391-0.03516l-4.1855-4.1875c-0.19587-0.19587-0.19587-0.51116 0-0.70703s0.51116-0.19587 0.70703 0l3.832 3.834 6.7188-6.7188c0.0979-0.09793 0.22571-0.14648 0.35352-0.14648z" fill="#5b9bf8"/>
 <path d="m129 12c-5.52 0-10 4.48-10 10s4.48 10 10 10 10-4.48 10-10-4.48-10-10-10zm0 8c1.1046 0 2 0.89543 2 2s-0.89543 2-2 2-2-0.89543-2-2 0.89543-2 2-2z" fill="#5b9bf8"/>
 <g transform="translate(17,10)">
  <rect width="46" height="24" rx="12" ry="12" fill="#5b9bf8"/>
  <circle cx="34" cy="13" r="9" fill="#000000" filter="url(#filter898)" opacity=".15" stroke-width="0" style="paint-order:stroke fill markers"/>
  <circle cx="34" cy="12" r="9" fill="#ffffff" stroke-width="0" style="paint-order:stroke fill markers"/>
 </g>
 <g transform="translate(17,40)">
  <rect width="46" height="24" rx="12" ry="12" fill="#ffffff" opacity=".35"/>
  <circle cx="12" cy="13" r="9" fill="#000000" filter="url(#filter1830)" opacity=".15"/>
  <circle cx="12" cy="12.09" r="9" fill="#ffffff"/>
 </g>
 <circle cx="91" cy="52" r="10" fill="#ffffff" opacity=".12"/>
 <circle cx="129" cy="52" r="10" fill="#ffffff" opacity=".12"/>
 <g stroke-linejoin="round">
  <path d="m165 12c-3.324 0-6 2.676-6 6v8c0 3.324 2.676 6 6 6h52c3.324 0 6-2.676 6-6v-8c0-3.324-2.676-6-6-6zm0 2h52c2.216 0 4 1.784 4 4v8c0 2.216-1.784 4-4 4h-52c-2.216 0-4-1.784-4-4v-8c0-2.216 1.784-4 4-4z" fill="#5b9bf8" stroke-width="1.9124"/>
  <rect x="161" y="14" width="60" height="16" rx="4" ry="4" fill="#ffffff" opacity=".05" stroke-width="1.6562"/>
  <rect x="159" y="42" width="64" height="20" rx="6" ry="6" fill="#5b9bf8" stroke-width="1.9124"/>
  <text x="175.02138" y="55.893188" fill="#3c84f7" font-family="Cantarell" font-size="10.681px" stroke-width=".33378" xml:space="preserve"><tspan x="175.02138" y="55.893188" fill="#ffffff" stroke-width=".33378">button</tspan></text>
  <text x="178.43391" y="24.168222" fill="#808080" font-family="Cantarell" font-size="10.681px" stroke-width=".33378" xml:space="preserve"><tspan x="178.43391" y="24.168222" fill="#808080" stroke-width=".33378">entry</tspan></text>
 </g>
</svg>
