<?xml version="1.0" encoding="UTF-8" standalone="no"?>
<svg
   width="200"
   height="150"
   version="1.1"
   viewBox="0 0 52.917 39.688"
   id="svg202"
   sodipodi:docname="thumbnail.svg"
   inkscape:version="1.1.2 (0a00cf5339, 2022-02-04, custom)"
   xmlns:inkscape="http://www.inkscape.org/namespaces/inkscape"
   xmlns:sodipodi="http://sodipodi.sourceforge.net/DTD/sodipodi-0.dtd"
   xmlns="http://www.w3.org/2000/svg"
   xmlns:svg="http://www.w3.org/2000/svg">
  <defs
     id="defs206" />
  <sodipodi:namedview
     id="namedview204"
     pagecolor="#ffffff"
     bordercolor="#666666"
     borderopacity="1.0"
     inkscape:pageshadow="2"
     inkscape:pageopacity="0.0"
     inkscape:pagecheckerboard="0"
     showgrid="false"
     inkscape:zoom="0.8438141"
     inkscape:cx="181.31956"
     inkscape:cy="114.36168"
     inkscape:window-width="1920"
     inkscape:window-height="1012"
     inkscape:window-x="0"
     inkscape:window-y="32"
     inkscape:window-maximized="1"
     inkscape:current-layer="svg202">
    <inkscape:grid
       type="xygrid"
       id="grid1243" />
  </sodipodi:namedview>
  <g
     id="thumbnail"
     transform="translate(-3.1752195,-0.00240006)">
    <rect
       x="12.171"
       y="7.9400001"
       width="31.75"
       height="9.5249996"
       rx="0"
       ry="0"
       fill="#f2f2f2"
       stroke-width="0"
       id="rect2" />
    <rect
       x="13.758001"
       y="9.7900057"
       width="15.875"
       height="5.8207998"
       rx="1.5875"
       ry="1.5875"
       fill="#000000"
       opacity="0.08"
       id="rect4" />
    <path
       d="m 16.33,11.45 v 2.4562 h 0.90227 c 0.28159,0 0.49855,-0.0598 0.65112,-0.17932 0.15257,-0.11955 0.22893,-0.28912 0.22893,-0.50849 0,-0.16673 -0.04693,-0.30521 -0.14004,-0.416 -0.09199,-0.11185 -0.22145,-0.18553 -0.38861,-0.22066 0.13911,-0.0219 0.24446,-0.0776 0.31626,-0.16639 0.0718,-0.0889 0.108,-0.20837 0.108,-0.35864 0,-0.19415 -0.07009,-0.34376 -0.21032,-0.44907 -0.14023,-0.10529 -0.33978,-0.15761 -0.59893,-0.15761 z m 4.3837,0.0904 v 0.52297 h -0.22686 v 0.23513 h 0.22686 v 1.0004 c 0,0.23035 0.04556,0.38923 0.13643,0.47698 0.09087,0.0866 0.25559,0.13022 0.49454,0.13022 H 21.663 v -0.25321 h -0.31833 c -0.12902,0 -0.21472,-0.0213 -0.25735,-0.0641 -0.04151,-0.0428 -0.06201,-0.13963 -0.06201,-0.28991 v -1.0004 H 21.663 v -0.23513 h -0.63769 v -0.52297 z m 1.7033,0 v 0.52297 H 22.18962 V 12.2985 H 22.417 v 1.0004 c 0,0.23035 0.04504,0.38923 0.13591,0.47698 0.09087,0.0866 0.2561,0.13022 0.49506,0.13022 h 0.31781 v -0.25321 h -0.31781 c -0.12901,0 -0.21472,-0.0213 -0.25735,-0.0641 -0.04151,-0.0428 -0.06253,-0.13963 -0.06253,-0.28991 v -1.0004 h 0.63769 v -0.23513 h -0.63769 v -0.52297 z m -5.7469,0.18242 h 0.50333 c 0.16604,0 0.28923,0.0306 0.37,0.092 0.0819,0.0614 0.12299,0.15407 0.12299,0.27802 0,0.12504 -0.04109,0.21866 -0.12299,0.28008 -0.08077,0.0603 -0.20397,0.0904 -0.37,0.0904 H 16.6701 Z m 8.185,0.29611 c -0.27037,0 -0.48244,0.0857 -0.63614,0.25683 -0.15257,0.17111 -0.22893,0.40781 -0.22893,0.71055 0,0.30164 0.07635,0.53886 0.22893,0.71107 0.1537,0.17111 0.36577,0.25631 0.63614,0.25631 0.26925,0 0.48089,-0.0852 0.63459,-0.25631 0.1537,-0.17221 0.23048,-0.40943 0.23048,-0.71107 0,-0.30274 -0.07678,-0.53944 -0.23048,-0.71055 -0.1537,-0.17111 -0.36534,-0.25683 -0.63459,-0.25683 z m 2.1239,0 c -0.13126,0 -0.24733,0.0273 -0.3483,0.0822 -0.09984,0.0548 -0.18692,0.13778 -0.26096,0.24857 v -0.28629 h -0.31109 v 1.8428 h 0.31109 v -1.0413 c 0,-0.17988 0.04821,-0.32212 0.14469,-0.42633 0.09648,-0.1042 0.22817,-0.15606 0.39532,-0.15606 0.13911,0 0.2436,0.043 0.31316,0.12971 0.06955,0.0867 0.10439,0.2173 0.10439,0.3917 v 1.1023 h 0.30954 v -1.1121 c 0,-0.25447 -0.05533,-0.44721 -0.1664,-0.57774 -0.11106,-0.13162 -0.27492,-0.1974 -0.49144,-0.1974 z m -8.2775,0.0444 v 1.1157 c 0,0.25338 0.05576,0.44561 0.16795,0.57723 0.11219,0.13162 0.27647,0.1974 0.49299,0.1974 0.13126,0 0.24648,-0.0269 0.3452,-0.0806 0.09985,-0.0548 0.18735,-0.13824 0.26252,-0.25012 v 0.28319 h 0.30954 v -1.8428 h -0.30954 v 1.0449 c 0,0.17988 -0.04864,0.32161 -0.14624,0.42581 -0.09648,0.10421 -0.22868,0.15658 -0.39584,0.15658 -0.13911,0 -0.24309,-0.0436 -0.31264,-0.13022 -0.06956,-0.0878 -0.10439,-0.21886 -0.10439,-0.39326 v -1.1038 z m 6.1536,0.21239 c 0.16491,0 0.29574,0.0639 0.39222,0.19224 0.09648,0.12724 0.14469,0.30004 0.14469,0.51831 0,0.21938 -0.04821,0.39263 -0.14469,0.51987 -0.09648,0.12723 -0.22731,0.1912 -0.39222,0.1912 -0.16716,0 -0.29884,-0.063 -0.39532,-0.18914 -0.09536,-0.12723 -0.14314,-0.30146 -0.14314,-0.52193 0,-0.22047 0.04821,-0.39372 0.14469,-0.51986 0.09648,-0.12725 0.22774,-0.19069 0.39377,-0.19069 z m -8.185,0.45734 h 0.54519 c 0.18286,0 0.31815,0.0366 0.40566,0.11007 0.08863,0.0724 0.13281,0.18543 0.13281,0.33899 0,0.15247 -0.04418,0.26597 -0.13281,0.34055 -0.08751,0.0735 -0.2228,0.11007 -0.40566,0.11007 H 16.6701 Z"
       fill="#000000"
       opacity="0.65"
       id="path6" />
    <path
       d="m 33.415547,10.054539 a 2.6458667,2.6458667 0 0 0 -2.645866,2.645867 2.6458667,2.6458667 0 0 0 2.645866,2.645867 2.6458667,2.6458667 0 0 0 2.645867,-2.645867 2.6458667,2.6458667 0 0 0 -2.645867,-2.645867 z m 1.489332,1.577704 v 5.17e-4 c 0.03382,-10e-7 0.06762,0.01285 0.09354,0.03876 0.05183,0.05183 0.05183,0.135246 0,0.187071 l -1.871239,1.871236 c -0.0065,0.0065 -0.01331,0.01221 -0.02067,0.01705 -0.0073,0.0049 -0.01478,0.0087 -0.02274,0.01189 -0.008,0.0032 -0.01647,0.0051 -0.02481,0.0067 -0.0083,0.0016 -0.01687,0.0031 -0.02532,0.0031 -0.0084,0 -0.01647,-0.0015 -0.02481,-0.0031 -0.0083,-0.0016 -0.01685,-0.0035 -0.0248,-0.0067 -0.008,-0.0032 -0.0154,-0.007 -0.02274,-0.01189 -0.0037,-0.0024 -0.0074,-0.0054 -0.01085,-0.0083 -0.0035,-0.0028 -0.0071,-0.0061 -0.01034,-0.0093 L 31.832681,12.62132 c -0.05182,-0.05182 -0.05182,-0.135246 0,-0.18707 0.05182,-0.05183 0.135246,-0.05183 0.187071,0 l 1.013896,1.014425 1.777705,-1.777705 c 0.02591,-0.02591 0.05972,-0.03876 0.09354,-0.03876 z"
       fill="#3c84f7"
       id="path1023"
       style="stroke-width:0.264587" />
    <path
       d="m 39.843962,10.054539 c -1.460518,0 -2.645866,1.185348 -2.645866,2.645866 0,1.460518 1.185348,2.645867 2.645866,2.645867 1.460519,0 2.645867,-1.185349 2.645867,-2.645867 0,-1.460518 -1.185348,-2.645866 -2.645867,-2.645866 z m 0,2.116693 c 0.292263,0 0.529174,0.236919 0.529174,0.529173 0,0.292255 -0.236919,0.529173 -0.529174,0.529173 -0.292254,0 -0.529173,-0.236918 -0.529173,-0.529173 0,-0.292254 0.236919,-0.529173 0.529173,-0.529173 z"
       fill="#3c84f7"
       id="path1041"
       style="stroke-width:0.264587" />
  </g>
  <g
     id="thumbnail-Dark"
     transform="translate(-3.1752195,-0.00240006)">
    <rect
       x="12.171"
       y="22.230009"
       width="31.75"
       height="9.5249996"
       rx="0"
       ry="0"
       fill="#2c2c2c"
       stroke-width="0"
       id="rect13" />
    <rect
       x="13.758001"
       y="24.080015"
       width="15.875"
       height="5.8207998"
       rx="1.5875"
       ry="1.5875"
       fill="#ffffff"
       opacity="0.1"
       id="rect15" />
    <path
       d="m 16.33,25.74 v 2.4562 h 0.90227 c 0.28159,0 0.49855,-0.0598 0.65112,-0.17932 0.15257,-0.11955 0.22893,-0.28912 0.22893,-0.50849 0,-0.16673 -0.04693,-0.30521 -0.14004,-0.416 -0.09199,-0.11185 -0.22145,-0.18553 -0.38861,-0.22066 0.13911,-0.0219 0.24446,-0.0775 0.31626,-0.16639 0.0718,-0.0889 0.108,-0.20837 0.108,-0.35864 0,-0.19415 -0.07009,-0.34376 -0.21032,-0.44907 -0.14023,-0.10529 -0.33978,-0.15761 -0.59893,-0.15761 z m 4.3837,0.0904 v 0.52297 h -0.22686 v 0.23513 h 0.22686 v 1.0004 c 0,0.23035 0.04556,0.38923 0.13643,0.47698 0.09087,0.0866 0.25559,0.13022 0.49454,0.13022 H 21.663 v -0.25321 h -0.31833 c -0.12902,0 -0.21472,-0.0213 -0.25735,-0.0641 -0.04151,-0.0428 -0.06201,-0.13963 -0.06201,-0.28991 v -1.0004 H 21.663 v -0.23513 h -0.63769 v -0.52297 z m 1.7033,0 v 0.52297 H 22.18962 V 26.5885 H 22.417 v 1.0004 c 0,0.23035 0.04504,0.38923 0.13591,0.47698 0.09087,0.0866 0.2561,0.13022 0.49506,0.13022 h 0.31781 v -0.25321 h -0.31781 c -0.12901,0 -0.21472,-0.0213 -0.25735,-0.0641 -0.04151,-0.0428 -0.06253,-0.13963 -0.06253,-0.28991 v -1.0004 h 0.63769 v -0.23513 h -0.63769 v -0.52297 z m -5.7469,0.18242 h 0.50333 c 0.16604,0 0.28923,0.0306 0.37,0.092 0.0819,0.0614 0.12299,0.15407 0.12299,0.27802 0,0.12504 -0.04109,0.21866 -0.12299,0.28008 -0.08077,0.0603 -0.20397,0.0904 -0.37,0.0904 H 16.6701 Z m 8.185,0.29611 c -0.27037,0 -0.48244,0.0857 -0.63614,0.25683 -0.15257,0.17111 -0.22893,0.40781 -0.22893,0.71055 0,0.30164 0.07635,0.53886 0.22893,0.71107 0.1537,0.17111 0.36577,0.25631 0.63614,0.25631 0.26925,0 0.48089,-0.0852 0.63459,-0.25631 0.1537,-0.17221 0.23048,-0.40943 0.23048,-0.71107 0,-0.30274 -0.07678,-0.53944 -0.23048,-0.71055 -0.1537,-0.17111 -0.36534,-0.25683 -0.63459,-0.25683 z m 2.1239,0 c -0.13126,0 -0.24733,0.0273 -0.3483,0.0822 -0.09984,0.0548 -0.18692,0.13778 -0.26096,0.24857 v -0.28629 h -0.31109 v 1.8428 h 0.31109 v -1.0413 c 0,-0.17988 0.04821,-0.32212 0.14469,-0.42633 0.09648,-0.1042 0.22817,-0.15606 0.39532,-0.15606 0.13911,0 0.2436,0.043 0.31316,0.12971 0.06955,0.0867 0.10439,0.2173 0.10439,0.3917 v 1.1023 h 0.30954 v -1.1121 c 0,-0.25447 -0.05533,-0.44721 -0.1664,-0.57774 -0.11106,-0.13162 -0.27492,-0.1974 -0.49144,-0.1974 z m -8.2775,0.0444 v 1.1157 c 0,0.25338 0.05576,0.44561 0.16795,0.57723 0.11219,0.13162 0.27647,0.1974 0.49299,0.1974 0.13126,0 0.24648,-0.0269 0.3452,-0.0806 0.09985,-0.0548 0.18735,-0.13824 0.26252,-0.25012 v 0.28319 h 0.30954 v -1.8428 h -0.30954 v 1.0449 c 0,0.17988 -0.04864,0.32161 -0.14624,0.42581 -0.09648,0.10421 -0.22868,0.15658 -0.39584,0.15658 -0.13911,0 -0.24309,-0.0436 -0.31264,-0.13022 -0.06956,-0.0878 -0.10439,-0.21886 -0.10439,-0.39326 v -1.1038 z m 6.1536,0.21239 c 0.16491,0 0.29574,0.0639 0.39222,0.19224 0.09648,0.12724 0.14469,0.30004 0.14469,0.51831 0,0.21938 -0.04821,0.39263 -0.14469,0.51987 -0.09648,0.12723 -0.22731,0.1912 -0.39222,0.1912 -0.16716,0 -0.29884,-0.063 -0.39532,-0.18914 -0.09536,-0.12723 -0.14314,-0.30146 -0.14314,-0.52193 0,-0.22047 0.04821,-0.39372 0.14469,-0.51986 0.09648,-0.12725 0.22774,-0.19069 0.39377,-0.19069 z m -8.185,0.45734 h 0.54519 c 0.18286,0 0.31815,0.0366 0.40566,0.11007 0.08863,0.0724 0.13281,0.18543 0.13281,0.33899 0,0.15247 -0.04418,0.26597 -0.13281,0.34055 -0.08751,0.0735 -0.2228,0.11007 -0.40566,0.11007 H 16.6701 Z"
       fill="#ffffff"
       opacity="0.65"
       id="path17" />
    <path
       d="m 33.415547,24.344548 a 2.6458667,2.6458667 0 0 0 -2.645866,2.645867 2.6458667,2.6458667 0 0 0 2.645866,2.645867 2.6458667,2.6458667 0 0 0 2.645867,-2.645867 2.6458667,2.6458667 0 0 0 -2.645867,-2.645867 z m 1.489332,1.577704 v 5.17e-4 c 0.03382,-10e-7 0.06762,0.01285 0.09354,0.03876 0.05183,0.05183 0.05183,0.135246 0,0.187071 l -1.871239,1.871236 c -0.0065,0.0065 -0.01331,0.01221 -0.02067,0.01705 -0.0073,0.0049 -0.01478,0.0086 -0.02274,0.01189 -0.008,0.0032 -0.01647,0.0051 -0.02481,0.0067 -0.0083,0.0016 -0.01687,0.0031 -0.02532,0.0031 -0.0084,0 -0.01647,-0.0015 -0.02481,-0.0031 -0.0083,-0.0016 -0.01685,-0.0035 -0.0248,-0.0067 -0.008,-0.0032 -0.0154,-0.007 -0.02274,-0.01189 -0.0037,-0.0024 -0.0074,-0.0054 -0.01085,-0.0083 -0.0035,-0.0028 -0.0071,-0.0061 -0.01034,-0.0093 l -1.107419,-1.107957 c -0.05182,-0.05183 -0.05182,-0.135246 0,-0.187071 0.05182,-0.05182 0.135246,-0.05182 0.187071,0 l 1.013896,1.014426 1.777705,-1.777705 c 0.02591,-0.02591 0.05972,-0.03876 0.09354,-0.03876 z"
       fill="#5b9bf8"
       id="path1032"
       style="stroke-width:0.264587" />
    <path
       d="m 39.843962,24.344548 c -1.460518,0 -2.645866,1.185349 -2.645866,2.645867 0,1.460519 1.185348,2.645867 2.645866,2.645867 1.460519,0 2.645867,-1.185348 2.645867,-2.645867 0,-1.460518 -1.185348,-2.645867 -2.645867,-2.645867 z m 0,2.116694 c 0.292263,0 0.529174,0.236919 0.529174,0.529173 0,0.292255 -0.236919,0.529173 -0.529174,0.529173 -0.292254,0 -0.529173,-0.236918 -0.529173,-0.529173 0,-0.292254 0.236919,-0.529173 0.529173,-0.529173 z"
       fill="#5b9bf8"
       id="path1050"
       style="stroke-width:0.264587" />
  </g>
</svg>
