<?xml version="1.0" encoding="UTF-8"?>
<svg width="64" height="64" version="1.1" xmlns="http://www.w3.org/2000/svg" xmlns:xlink="http://www.w3.org/1999/xlink">
 <defs>
  <linearGradient id="k" x1="33" x2="24" y1="21" y2="12" gradientTransform="matrix(1.2857,0,0,1.2857,377.71,494.8)" gradientUnits="userSpaceOnUse">
   <stop stop-color="#ee6406" offset="0"/>
   <stop stop-color="#ffce0d" offset="1"/>
  </linearGradient>
  <radialGradient id="b-3" cx="199.22" cy="60.978" r="62.148" gradientTransform="matrix(.49549 1.4463e-8 -7.3449e-8 2.4566 -66.708 -122.5)" gradientUnits="userSpaceOnUse">
   <stop stop-color="#e6e6e8" offset="0"/>
   <stop stop-color="#cbccce" offset="1"/>
  </radialGradient>
 </defs>
 <path d="m39.617 52.606c-0.04319 1.7835-0.46343 3.7708 2.4241 5.464 2.3047 1.4105-1.2787 1.5074-2.1689 1.5074h-15.74c-0.89025 0-4.4736-0.09686-2.1689-1.5074 2.8876-1.6934 2.4673-3.6807 2.4241-5.464z" fill="#b3b3b3"/>
 <rect x="1.5687" y="2.846" width="60.865" height="50.113" rx="2.7723" fill="url(#b-3)"/>
 <rect x="1.5687" y="2.846" width="60.865" height="50.113" rx="2.7723" fill="#dddee0"/>
 <path d="m4.3409 2.8456c-1.5359 0-2.7725 1.2176-2.7725 2.7296v36.477h60.865v-36.477c0-1.5121-1.2367-2.7296-2.7725-2.7296z" fill="#080808"/>
 <path d="m4.0961 4.5691h55.572v35.351h-55.572z" fill="#1c92f4"/>
 <path d="m34.091 48.221c-0.07836 0.17822-0.17111 0.34227-0.27857 0.49308-0.14648 0.20562-0.26641 0.34794-0.35885 0.42699-0.14328 0.12974-0.2968 0.19616-0.46119 0.19995-0.11802 0-0.26034-0.03312-0.42601-0.10013-0.16622-0.06676-0.31896-0.09982-0.45864-0.09982-0.14648 0-0.30358 0.03312-0.47162 0.09982-0.1683 0.06707-0.30387 0.10202-0.40752 0.10549-0.15765 0.0066-0.31478-0.06172-0.47162-0.20531-0.10011-0.08596-0.22532-0.23334-0.37531-0.4421-0.16094-0.22294-0.29325-0.48145-0.39691-0.77616-0.11101-0.31834-0.16666-0.62662-0.16666-0.92508 0-0.34186 0.07503-0.6367 0.22532-0.88382 0.11811-0.19847 0.27524-0.35502 0.4719-0.46996 0.19666-0.11493 0.40916-0.1735 0.63798-0.17724 0.12522 0 0.28941 0.03813 0.49348 0.11307 0.20347 0.0752 0.33412 0.11332 0.3914 0.11332 0.04284 0 0.18796-0.04459 0.434-0.13348 0.23268-0.08244 0.42905-0.11657 0.58994-0.10312 0.43592 0.03461 0.76343 0.20383 0.98123 0.50865-0.38987 0.23256-0.58274 0.55831-0.57888 0.97618 0.0034 0.32551 0.12345 0.59635 0.35916 0.81141 0.10682 0.09983 0.22612 0.17697 0.35885 0.23176-0.02879 0.08217-0.05917 0.1609-0.09147 0.23648zm-0.99979-3.8734c0 0.25512-0.09467 0.49332-0.28337 0.71378-0.22772 0.26211-0.50318 0.41357-0.80187 0.38967-0.0039-0.03057-6e-3 -0.06282-6e-3 -0.09667 0-0.24492 0.10829-0.50701 0.30061-0.72135 0.09601-0.10851 0.21812-0.19874 0.3662-0.27071 0.14776-0.0709 0.28753-0.1101 0.41897-0.11682 0.0039 0.03411 0.0055 0.06821 0.0055 0.10205z" fill="#1e1f28" stroke-width=".065314"/>
 <path d="m4.0961 4.5686v35.352h55.572v-35.352zm0.27065 0.24481h55.077v34.885h-55.077z" fill-opacity=".21198"/>
 <path d="m4.3409 2.9658c-1.5359 0-2.7725 1.2176-2.7725 2.7296v36.356h60.865v-36.356c0-1.5121-1.2366-2.7296-2.7725-2.7296zm-0.24483 2.5677h55.572v34.387h-55.572z" fill="#080808"/>
 <g transform="translate(-376.57 -498.8)">
  <path d="m408.57 512.8c-4.986 0-9 4.014-9 9s4.014 9 9 9 9-4.014 9-9-4.014-9-9-9zm0 1a8 8 0 0 1 8 8 8 8 0 0 1-8 8 8 8 0 0 1-8-8 8 8 0 0 1 8-8z" fill="#fff" fill-opacity=".45263" opacity=".85" stroke-width=".1"/>
  <path d="m408.57 512.8v1a8 8 0 0 1 8 8h1c0-4.986-4.014-9-9-9z" fill="url(#k)" opacity=".85" stroke-width=".1"/>
  <g transform="translate(-1.1e-5,-2.0001)">
   <rect x="405.62" y="520.8" width="5.9091" height="6" rx="2.9545" ry="3" opacity=".8" stroke-width=".1"/>
   <path d="m410.34 523.8-2.9545-1.8v3.6z" fill="#fff" fill-rule="evenodd"/>
  </g>
 </g>
</svg>
