<?xml version="1.0" encoding="UTF-8" standalone="no"?>
<svg
   width="340"
   height="500"
   version="1.1"
   viewBox="0 0 340 500"
   id="svg670"
   sodipodi:docname="assets-dark.svg"
   inkscape:version="1.1.2 (0a00cf5339, 2022-02-04)"
   xmlns:inkscape="http://www.inkscape.org/namespaces/inkscape"
   xmlns:sodipodi="http://sodipodi.sourceforge.net/DTD/sodipodi-0.dtd"
   xmlns:xlink="http://www.w3.org/1999/xlink"
   xmlns="http://www.w3.org/2000/svg"
   xmlns:svg="http://www.w3.org/2000/svg">
  <sodipodi:namedview
     id="namedview672"
     pagecolor="#474747"
     bordercolor="#666666"
     borderopacity="1.0"
     inkscape:pageshadow="2"
     inkscape:pageopacity="0"
     inkscape:pagecheckerboard="0"
     showgrid="false"
     inkscape:zoom="1.19375"
     inkscape:cx="167.53927"
     inkscape:cy="87.120419"
     inkscape:window-width="1440"
     inkscape:window-height="742"
     inkscape:window-x="0"
     inkscape:window-y="32"
     inkscape:window-maximized="1"
     inkscape:current-layer="layer1">
    <inkscape:grid
       type="xygrid"
       id="grid2798" />
  </sodipodi:namedview>
  <defs
     id="defs241">
    <linearGradient
       id="color-primary">
      <stop
         stop-color="#5b9bf8"
         offset="1"
         id="stop22" />
    </linearGradient>
    <g
       id="base-scale-horz-trough">
      <rect
         width="24"
         height="24"
         fill="none"
         id="rect155"
         x="0"
         y="0" />
      <rect
         x="6"
         y="11"
         width="12"
         height="2"
         id="rect157" />
    </g>
    <g
       id="base-scale-vert-trough">
      <use
         transform="rotate(90,12,12)"
         xlink:href="#base-scale-horz-trough"
         id="use160"
         x="0"
         y="0"
         width="100%"
         height="100%" />
    </g>
    <clipPath
       clipPathUnits="userSpaceOnUse"
       id="clipPath6290">
      <rect
         style="opacity:0.35;fill:#000000;stroke-width:2;stroke-linecap:round;stroke-linejoin:round;paint-order:stroke fill markers"
         id="rect6292"
         width="28"
         height="132"
         x="164"
         y="12"
         rx="0"
         ry="0" />
    </clipPath>
    <clipPath
       clipPathUnits="userSpaceOnUse"
       id="clipPath6490">
      <rect
         style="opacity:0.35;fill:#000000;stroke-width:2;stroke-linecap:round;stroke-linejoin:round;paint-order:stroke fill markers"
         id="rect6492"
         width="26"
         height="16"
         x="164"
         y="78"
         rx="0"
         ry="0" />
    </clipPath>
  </defs>
  <g
     inkscape:groupmode="layer"
     id="layer1"
     inkscape:label="background"
     sodipodi:insensitive="true">
    <rect
       style="opacity:1;fill:#333333;stroke-width:2;stroke-linecap:round;stroke-linejoin:round;paint-order:stroke fill markers"
       id="rect1318"
       width="340"
       height="500"
       x="0"
       y="0"
       rx="0"
       ry="0" />
  </g>
  <g
     inkscape:groupmode="layer"
     id="layer2"
     inkscape:label="assets">
    <g
       id="scale-slider"
       transform="translate(145,160)"
       fill="url(#color-primary)"
       style="fill:url(#linearGradient2233)">
      <circle
         cx="12"
         cy="12"
         r="12"
         fill-opacity="0"
         id="circle450"
         style="fill:url(#color-primary)" />
      <circle
         cx="12"
         cy="12"
         r="6"
         id="circle452"
         style="fill:url(#color-primary)" />
    </g>
    <g
       id="scale-slider-hover"
       transform="translate(145,192)"
       fill="url(#color-primary)"
       style="fill:url(#linearGradient2239)">
      <circle
         cx="12"
         cy="12"
         r="12"
         fill-opacity="0.08"
         id="circle455"
         style="fill:url(#color-primary)" />
      <circle
         cx="12"
         cy="12"
         r="6"
         id="circle457"
         style="fill:url(#color-primary)" />
    </g>
    <g
       id="scale-slider-active"
       transform="translate(145,224)"
       fill="url(#color-primary)"
       style="fill:url(#linearGradient2245)">
      <circle
         cx="12"
         cy="12"
         r="12"
         fill-opacity="0.2"
         id="circle460"
         style="fill:url(#color-primary)" />
      <circle
         cx="12"
         cy="12"
         r="6"
         id="circle462"
         style="fill:url(#color-primary)" />
    </g>
    <g
       id="scale-horz-trough-active"
       transform="translate(177,224)">
      <use
         fill="url(#color-primary)"
         xlink:href="#base-scale-horz-trough"
         id="use475"
         style="fill:url(#color-primary)"
         x="0"
         y="0"
         width="100%"
         height="100%" />
    </g>
    <g
       id="scale-vert-trough-active"
       transform="translate(209,224)">
      <use
         fill="url(#color-primary)"
         xlink:href="#base-scale-vert-trough"
         id="use484"
         style="fill:url(#color-primary)"
         x="0"
         y="0"
         width="100%"
         height="100%" />
    </g>
    <g
       id="tab"
       transform="translate(281,288)">
      <rect
         width="1"
         height="1"
         id="rect610"
         style="fill:url(#color-primary)"
         x="0"
         y="0" />
    </g>
    <g
       id="progressbar-progress"
       transform="translate(293,288)">
      <rect
         width="4"
         height="4"
         id="rect613"
         style="fill:url(#color-primary)"
         x="0"
         y="0" />
    </g>
    <g
       id="entry-active"
       transform="translate(-268,36)">
      <rect
         id="rect2230"
         width="48"
         height="28"
         x="408"
         y="44"
         rx="6"
         ry="6"
         style="opacity:0.05;fill:#ffffff" />
      <path
         id="path2356"
         style="fill:url(#color-primary)"
         d="m 414,44 c -3.324,0 -6,2.676 -6,6 v 16 c 0,3.324 2.676,6 6,6 h 36 c 3.324,0 6,-2.676 6,-6 V 50 c 0,-3.324 -2.676,-6 -6,-6 z m 0,2 h 36 c 2.216,0 4,1.784 4,4 v 16 c 0,2.216 -1.784,4 -4,4 h -36 c -2.216,0 -4,-1.784 -4,-4 V 50 c 0,-2.216 1.784,-4 4,-4 z" />
    </g>
    <use
       x="0"
       y="0"
       xlink:href="#entry-active"
       id="combo-right-entry-active"
       transform="translate(52)"
       width="100%"
       height="100%"
       clip-path="url(#clipPath6290)" />
    <use
       x="0"
       y="0"
       xlink:href="#entry-active"
       id="combo-left-entry-active"
       transform="matrix(-1,0,0,1,380,0)"
       width="100%"
       height="100%"
       clip-path="url(#clipPath6290)" />
    <use
       x="0"
       y="0"
       xlink:href="#entry-active"
       id="spin-ltr-up-active"
       transform="translate(104)"
       width="100%"
       height="100%"
       clip-path="url(#clipPath6490)" />
    <use
       x="0"
       y="0"
       xlink:href="#entry-active"
       id="spin-rtl-up-active"
       transform="matrix(-1,0,0,1,432,0)"
       width="100%"
       height="100%"
       clip-path="url(#clipPath6490)" />
    <use
       x="0"
       y="0"
       xlink:href="#entry-active"
       id="spin-ltr-down-active"
       transform="matrix(1,0,0,-1,104,188)"
       width="100%"
       height="100%"
       clip-path="url(#clipPath6490)" />
    <use
       x="0"
       y="0"
       xlink:href="#entry-active"
       id="spin-rtl-down-active"
       transform="rotate(180,216,94)"
       width="100%"
       height="100%"
       clip-path="url(#clipPath6490)" />
    <g
       id="checkbox-checked-hover">
      <use
         x="0"
         y="0"
         xlink:href="#check-icon"
         id="use1911"
         transform="translate(0,83)"
         width="100%"
         height="100%" />
      <path
         d="m 28,298 c -5.52,0 -10,4.48 -10,10 0,5.52 4.48,10 10,10 5.52,0 10,-4.48 10,-10 0,-5.52 -4.48,-10 -10,-10 z"
         id="path2361"
         style="opacity:0.15;fill:#ffffff;fill-opacity:1"
         sodipodi:nodetypes="sssss" />
      <rect
         style="opacity:0;fill:#000000;stroke-width:3;stroke-linecap:round;stroke-linejoin:round;paint-order:stroke fill markers"
         id="rect2333"
         width="24"
         height="24"
         x="16"
         y="296"
         rx="0"
         ry="0" />
    </g>
    <g
       id="radio-checked-hover">
      <rect
         style="opacity:0;fill:#000000;stroke-width:3;stroke-linecap:round;stroke-linejoin:round;paint-order:stroke fill markers"
         id="rect2339"
         width="24"
         height="24"
         x="44"
         y="296"
         rx="0"
         ry="0" />
      <use
         x="0"
         y="0"
         xlink:href="#radio-icon"
         id="use1913"
         transform="translate(28,57)"
         width="100%"
         height="100%" />
      <path
         d="m 56,298 c -5.52,0 -10,4.48 -10,10 0,5.52 4.48,10 10,10 5.52,0 10,-4.48 10,-10 0,-5.52 -4.48,-10 -10,-10 z"
         id="path2363"
         style="opacity:0.15;fill:#ffffff;fill-opacity:1"
         sodipodi:nodetypes="sssss" />
    </g>
    <g
       id="checkbox-mixed-hover">
      <rect
         style="opacity:0;fill:#000000;stroke-width:3;stroke-linecap:round;stroke-linejoin:round;paint-order:stroke fill markers"
         id="rect2659"
         width="24"
         height="24"
         x="16"
         y="408"
         rx="0"
         ry="0" />
      <use
         x="0"
         y="0"
         xlink:href="#mix-icon"
         id="use3270"
         transform="translate(-28,169)"
         width="100%"
         height="100%" />
      <path
         d="m 28,410 c -5.52,0 -10,4.48 -10,10 0,5.52 4.48,10 10,10 5.52,0 10,-4.48 10,-10 0,-5.52 -4.48,-10 -10,-10 z"
         id="path2691"
         style="opacity:0.15;fill:#ffffff;fill-opacity:1"
         sodipodi:nodetypes="sssss" />
    </g>
    <g
       id="checkbox-checked">
      <rect
         style="opacity:0;fill:#000000;stroke-width:3;stroke-linecap:round;stroke-linejoin:round;paint-order:stroke fill markers"
         id="rect1125"
         width="24"
         height="24"
         x="16"
         y="268"
         rx="0"
         ry="0" />
      <use
         x="0"
         y="0"
         xlink:href="#check-icon"
         id="use1735"
         transform="translate(0,55)"
         width="100%"
         height="100%" />
    </g>
    <g
       id="radio-checked">
      <rect
         style="opacity:0;fill:#000000;stroke-width:3;stroke-linecap:round;stroke-linejoin:round;paint-order:stroke fill markers"
         id="rect1133"
         width="24"
         height="24"
         x="44"
         y="268"
         rx="0"
         ry="0" />
      <use
         x="0"
         y="0"
         xlink:href="#radio-icon"
         id="use1737"
         transform="translate(28,29)"
         width="100%"
         height="100%" />
    </g>
    <g
       id="checkbox-checked-active"
       transform="translate(0,26)">
      <use
         x="0"
         y="0"
         xlink:href="#check-icon"
         id="use2460"
         transform="translate(0,83)"
         width="100%"
         height="100%" />
      <path
         d="m 28,298 c -5.52,0 -10,4.48 -10,10 0,5.52 4.48,10 10,10 5.52,0 10,-4.48 10,-10 0,-5.52 -4.48,-10 -10,-10 z"
         id="path2462"
         style="opacity:0.15;fill:#000000;fill-opacity:1"
         sodipodi:nodetypes="sssss" />
      <rect
         style="opacity:0;fill:#000000;stroke-width:3;stroke-linecap:round;stroke-linejoin:round;paint-order:stroke fill markers"
         id="rect2464"
         width="24"
         height="24"
         x="16"
         y="296"
         rx="0"
         ry="0" />
    </g>
    <g
       id="radio-checked-active"
       transform="translate(0,26)">
      <rect
         style="opacity:0;fill:#000000;stroke-width:3;stroke-linecap:round;stroke-linejoin:round;paint-order:stroke fill markers"
         id="rect2468"
         width="24"
         height="24"
         x="44"
         y="296"
         rx="0"
         ry="0" />
      <use
         x="0"
         y="0"
         xlink:href="#radio-icon"
         id="use2470"
         transform="translate(28,57)"
         width="100%"
         height="100%" />
      <path
         d="m 56,298 c -5.52,0 -10,4.48 -10,10 0,5.52 4.48,10 10,10 5.52,0 10,-4.48 10,-10 0,-5.52 -4.48,-10 -10,-10 z"
         id="path2472"
         style="opacity:0.15;fill:#000000;fill-opacity:1"
         sodipodi:nodetypes="sssss" />
    </g>
    <g
       id="checkbox-checked-disabled"
       transform="translate(0,54)"
       style="opacity:0.35">
      <use
         x="0"
         y="0"
         xlink:href="#check-icon"
         id="use2476"
         transform="translate(0,83)"
         width="100%"
         height="100%" />
      <rect
         style="opacity:0;fill:#000000;stroke-width:3;stroke-linecap:round;stroke-linejoin:round;paint-order:stroke fill markers"
         id="rect2480"
         width="24"
         height="24"
         x="16"
         y="296"
         rx="0"
         ry="0" />
    </g>
    <g
       id="radio-checked-disabled"
       transform="translate(0,54)"
       style="opacity:0.35">
      <rect
         style="opacity:0;fill:#000000;stroke-width:3;stroke-linecap:round;stroke-linejoin:round;paint-order:stroke fill markers"
         id="rect2484"
         width="24"
         height="24"
         x="44"
         y="296"
         rx="0"
         ry="0" />
      <use
         x="0"
         y="0"
         xlink:href="#radio-icon"
         id="use2486"
         transform="translate(28,57)"
         width="100%"
         height="100%" />
    </g>
    <g
       id="checkbox-mixed">
      <rect
         style="opacity:0;fill:#000000;stroke-width:3;stroke-linecap:round;stroke-linejoin:round;paint-order:stroke fill markers"
         id="rect1127"
         width="24"
         height="24"
         x="16"
         y="380"
         rx="0"
         ry="0" />
      <use
         x="0"
         y="0"
         xlink:href="#mix-icon"
         id="use3013"
         transform="translate(-28,141)"
         width="100%"
         height="100%" />
    </g>
    <g
       id="radio-mixed"
       transform="translate(28)">
      <rect
         style="opacity:0;fill:#000000;stroke-width:3;stroke-linecap:round;stroke-linejoin:round;paint-order:stroke fill markers"
         id="rect3181"
         width="24"
         height="24"
         x="16"
         y="380"
         rx="0"
         ry="0" />
      <use
         x="0"
         y="0"
         xlink:href="#mix-icon"
         id="use3183"
         transform="translate(-28,141)"
         width="100%"
         height="100%" />
    </g>
    <g
       id="radio-mixed-hover"
       transform="translate(28)">
      <rect
         style="opacity:0;fill:#000000;stroke-width:3;stroke-linecap:round;stroke-linejoin:round;paint-order:stroke fill markers"
         id="rect3456"
         width="24"
         height="24"
         x="16"
         y="408"
         rx="0"
         ry="0" />
      <use
         x="0"
         y="0"
         xlink:href="#mix-icon"
         id="use3458"
         transform="translate(-28,169)"
         width="100%"
         height="100%" />
      <path
         d="m 28,410 c -5.52,0 -10,4.48 -10,10 0,5.52 4.48,10 10,10 5.52,0 10,-4.48 10,-10 0,-5.52 -4.48,-10 -10,-10 z"
         id="path3460"
         style="opacity:0.15;fill:#ffffff;fill-opacity:1"
         sodipodi:nodetypes="sssss" />
    </g>
    <g
       id="checkbox-mixed-active"
       transform="translate(0,28)">
      <rect
         style="opacity:0;fill:#000000;stroke-width:3;stroke-linecap:round;stroke-linejoin:round;paint-order:stroke fill markers"
         id="rect3544"
         width="24"
         height="24"
         x="16"
         y="408"
         rx="0"
         ry="0" />
      <use
         x="0"
         y="0"
         xlink:href="#mix-icon"
         id="use3546"
         transform="translate(-28,169)"
         width="100%"
         height="100%" />
      <path
         d="m 28,410 c -5.52,0 -10,4.48 -10,10 0,5.52 4.48,10 10,10 5.52,0 10,-4.48 10,-10 0,-5.52 -4.48,-10 -10,-10 z"
         id="path3548"
         style="opacity:0.15;fill:#000000;fill-opacity:1"
         sodipodi:nodetypes="sssss" />
    </g>
    <g
       id="radio-mixed-active"
       transform="translate(28,28)">
      <rect
         style="opacity:0;fill:#000000;stroke-width:3;stroke-linecap:round;stroke-linejoin:round;paint-order:stroke fill markers"
         id="rect3552"
         width="24"
         height="24"
         x="16"
         y="408"
         rx="0"
         ry="0" />
      <use
         x="0"
         y="0"
         xlink:href="#mix-icon"
         id="use3554"
         transform="translate(-28,169)"
         width="100%"
         height="100%" />
      <path
         d="m 28,410 c -5.52,0 -10,4.48 -10,10 0,5.52 4.48,10 10,10 5.52,0 10,-4.48 10,-10 0,-5.52 -4.48,-10 -10,-10 z"
         id="path3556"
         style="opacity:0.15;fill:#000000;fill-opacity:1"
         sodipodi:nodetypes="sssss" />
    </g>
    <g
       id="checkbox-mixed-disabled"
       transform="translate(0,84)"
       style="opacity:0.35">
      <rect
         style="opacity:0;fill:#000000;stroke-width:3;stroke-linecap:round;stroke-linejoin:round;paint-order:stroke fill markers"
         id="rect3756"
         width="24"
         height="24"
         x="16"
         y="380"
         rx="0"
         ry="0" />
      <use
         x="0"
         y="0"
         xlink:href="#mix-icon"
         id="use3758"
         transform="translate(-28,141)"
         width="100%"
         height="100%" />
    </g>
    <g
       id="radio-mixed-disabled"
       transform="translate(28,84)"
       style="opacity:0.35">
      <rect
         style="opacity:0;fill:#000000;stroke-width:3;stroke-linecap:round;stroke-linejoin:round;paint-order:stroke fill markers"
         id="rect3762"
         width="24"
         height="24"
         x="16"
         y="380"
         rx="0"
         ry="0" />
      <use
         x="0"
         y="0"
         xlink:href="#mix-icon"
         id="use3764"
         transform="translate(-28,141)"
         width="100%"
         height="100%" />
    </g>
    <use
       x="0"
       y="0"
       xlink:href="#menu-check-icon"
       id="menu-checkbox-checked"
       transform="translate(0,52)"
       width="100%"
       height="100%" />
    <use
       x="0"
       y="0"
       xlink:href="#menu-radio-icon"
       id="menu-radio-checked"
       transform="translate(24,28)"
       width="100%"
       height="100%" />
    <use
       x="0"
       y="0"
       xlink:href="#menu-mix-icon"
       id="menu-checkbox-mixed"
       transform="translate(-24,140)"
       width="100%"
       height="100%" />
    <use
       x="0"
       y="0"
       xlink:href="#menu-check-icon"
       id="menu-checkbox-checked-disabled"
       transform="translate(0,80)"
       width="100%"
       height="100%"
       style="opacity:0.35" />
    <use
       x="0"
       y="0"
       xlink:href="#menu-radio-icon"
       id="menu-radio-checked-disabled"
       transform="translate(24,56)"
       width="100%"
       height="100%"
       style="opacity:0.35" />
    <use
       x="0"
       y="0"
       xlink:href="#menu-mix-icon"
       id="menu-radio-mixed"
       transform="translate(0,140)"
       width="100%"
       height="100%" />
    <use
       x="0"
       y="0"
       xlink:href="#menu-mix-icon"
       id="menu-checkbox-mixed-disabled"
       transform="translate(-24,168)"
       width="100%"
       height="100%"
       style="opacity:0.35" />
    <use
       x="0"
       y="0"
       xlink:href="#menu-mix-icon"
       id="menu-radio-mixed-disabled"
       transform="translate(0,168)"
       width="100%"
       height="100%"
       style="opacity:0.35" />
  </g>
  <g
     inkscape:groupmode="layer"
     id="layer3"
     inkscape:label="icons"
     sodipodi:insensitive="true">
    <path
       d="m 28,215 a 10,10 0 0 0 -10,10 10,10 0 0 0 10,10 10,10 0 0 0 10,-10 10,10 0 0 0 -10,-10 z m 5.6289,5.9629 v 0.002 c 0.12781,0 0.25558,0.0486 0.35352,0.14648 0.19587,0.19587 0.19587,0.51116 0,0.70703 l -7.0723,7.0723 c -0.02449,0.0245 -0.05032,0.0461 -0.07813,0.0644 -0.02772,0.0184 -0.05586,0.0327 -0.08594,0.0449 -0.03009,0.0122 -0.06225,0.0193 -0.09375,0.0254 -0.03149,0.006 -0.06374,0.0117 -0.0957,0.0117 -0.03195,0 -0.06226,-0.006 -0.09375,-0.0117 -0.03149,-0.006 -0.06367,-0.0131 -0.09375,-0.0254 -0.03009,-0.0122 -0.05819,-0.0266 -0.08594,-0.0449 -0.01389,-0.009 -0.02787,-0.0205 -0.04101,-0.0312 -0.01312,-0.0107 -0.02682,-0.0229 -0.03906,-0.0352 l -4.1855,-4.1875 c -0.19587,-0.19587 -0.19587,-0.51116 0,-0.70703 0.19587,-0.19587 0.51116,-0.19587 0.70703,0 l 3.832,3.834 6.7188,-6.7188 c 0.09793,-0.0979 0.22571,-0.14648 0.35352,-0.14648 z"
       style="fill:url(#color-primary)"
       id="check-icon" />
    <path
       d="m 28,241 c -5.52,0 -10,4.48 -10,10 0,5.52 4.48,10 10,10 5.52,0 10,-4.48 10,-10 0,-5.52 -4.48,-10 -10,-10 z m 0,8 c 1.1046,0 2,0.89543 2,2 0,1.10457 -0.89543,2 -2,2 -1.10457,0 -2,-0.89543 -2,-2 0,-1.10457 0.89543,-2 2,-2 z"
       id="radio-icon"
       style="fill:url(#color-primary)" />
    <path
       id="mix-icon"
       style="fill:url(#color-primary)"
       d="m 56,241 c -5.52,0 -10,4.48 -10,10 0,5.52 4.48,10 10,10 5.52,0 10,-4.48 10,-10 0,-5.52 -4.48,-10 -10,-10 z m -4.5,10 h 9 c 0.277,0 0.5,0.223 0.5,0.5 0,0.277 -0.223,0.5 -0.5,0.5 h -9 c -0.277,0 -0.5,-0.223 -0.5,-0.5 0,-0.277 0.223,-0.5 0.5,-0.5 z" />
    <path
       id="menu-check-icon"
       style="fill:url(#color-primary)"
       d="m 88,220 a 8,8 0 0 0 -8,8 8,8 0 0 0 8,8 8,8 0 0 0 8,-8 8,8 0 0 0 -8,-8 z m 3.890625,5.02539 c 0.12781,0 0.253632,0.0486 0.351563,0.14649 0.195869,0.19587 0.195869,0.51116 0,0.70703 l -4.949219,4.94921 c -0.195869,0.19588 -0.511162,0.19588 -0.707031,0 L 83.757812,228 c -0.195868,-0.19587 -0.195867,-0.51116 0,-0.70703 0.19587,-0.19587 0.511163,-0.19587 0.707032,0 l 2.474609,2.47461 4.595703,-4.5957 c 0.0979,-0.0979 0.227659,-0.14649 0.355469,-0.14649 z" />
    <path
       id="menu-radio-icon"
       style="fill:url(#color-primary)"
       d="m 88,244 a 8,8 0 0 0 -8,8 8,8 0 0 0 8,8 8,8 0 0 0 8,-8 8,8 0 0 0 -8,-8 z m 0,6 c 1.104569,0 2,0.89543 2,2 0,1.10457 -0.895431,2 -2,2 -1.10457,0 -2,-0.89543 -2,-2 0,-1.10457 0.89543,-2 2,-2 z" />
    <path
       id="menu-mix-icon"
       style="fill:url(#color-primary)"
       d="m 112,244 a 8,8 0 0 0 -8,8 8,8 0 0 0 8,8 8,8 0 0 0 8,-8 8,8 0 0 0 -8,-8 z m -3.5,8 h 7 c 0.277,0 0.5,0.223 0.5,0.5 0,0.277 -0.223,0.5 -0.5,0.5 h -7 c -0.277,0 -0.5,-0.223 -0.5,-0.5 0,-0.277 0.223,-0.5 0.5,-0.5 z" />
  </g>
</svg>
