<?xml version="1.0" encoding="UTF-8" standalone="no"?>
<svg
   width="340"
   height="500"
   viewBox="0 0 340 500"
   version="1.1"
   id="svg715"
   sodipodi:docname="assets-common.svg"
   inkscape:version="1.1.2 (0a00cf5339, 2022-02-04)"
   xmlns:inkscape="http://www.inkscape.org/namespaces/inkscape"
   xmlns:sodipodi="http://sodipodi.sourceforge.net/DTD/sodipodi-0.dtd"
   xmlns:xlink="http://www.w3.org/1999/xlink"
   xmlns="http://www.w3.org/2000/svg"
   xmlns:svg="http://www.w3.org/2000/svg">
  <sodipodi:namedview
     showgrid="false"
     id="namedview4"
     inkscape:document-rotation="0"
     inkscape:zoom="1.4820001"
     inkscape:cx="133.60323"
     inkscape:cy="200.40484"
     inkscape:window-width="1440"
     inkscape:window-height="742"
     inkscape:window-x="0"
     inkscape:window-y="32"
     inkscape:window-maximized="1"
     inkscape:current-layer="layer1"
     pagecolor="#ffffff"
     bordercolor="#666666"
     borderopacity="1.0"
     inkscape:pageshadow="2"
     inkscape:pageopacity="0.0"
     inkscape:pagecheckerboard="0"
     inkscape:snap-bbox="true"
     inkscape:bbox-nodes="true"
     inkscape:snap-bbox-edge-midpoints="true"
     showguides="true"
     inkscape:guide-bbox="true"
     inkscape:snap-nodes="true">
    <inkscape:grid
       empspacing="4"
       id="grid2" />
  </sodipodi:namedview>
  <defs
     id="defs286">
    <linearGradient
       id="color-text">
      <stop
         offset="1"
         stop-color="#000000"
         stop-opacity="0.87"
         id="stop8" />
    </linearGradient>
    <linearGradient
       id="color-text-disabled">
      <stop
         offset="1"
         stop-color="#000000"
         stop-opacity="0.38"
         id="stop11" />
    </linearGradient>
    <linearGradient
       id="color-text-secondary">
      <stop
         offset="1"
         stop-color="#000000"
         stop-opacity="0.6"
         id="stop14" />
    </linearGradient>
    <linearGradient
       id="color-text-secondary-disabled">
      <stop
         offset="1"
         stop-color="#000000"
         stop-opacity="0.26"
         id="stop17" />
    </linearGradient>
    <linearGradient
       id="color-track"
       x1="0"
       y1="0"
       x2="24"
       y2="0"
       gradientUnits="userSpaceOnUse">
      <stop
         offset="1"
         stop-color="#000000"
         stop-opacity="0.26"
         id="stop20" />
    </linearGradient>
    <linearGradient
       id="color-track-disabled"
       x1="0"
       y1="0"
       x2="24"
       y2="0"
       gradientUnits="userSpaceOnUse">
      <stop
         offset="1"
         stop-color="#000000"
         stop-opacity="0.12"
         id="stop23" />
    </linearGradient>
    <linearGradient
       id="color-divider">
      <stop
         offset="1"
         stop-color="#000000"
         stop-opacity="0.12"
         id="stop26" />
    </linearGradient>
    <linearGradient
       id="color-base">
      <stop
         offset="1"
         stop-color="#FFFFFF"
         id="stop41" />
    </linearGradient>
    <linearGradient
       id="color-base-alt"
       x1="1"
       y1="0"
       x2="2"
       y2="0"
       gradientUnits="userSpaceOnUse">
      <stop
         offset="1"
         stop-color="#FAFAFA"
         id="stop44" />
    </linearGradient>
    <linearGradient
       id="color-frame">
      <stop
         offset="1"
         stop-color="#000000"
         stop-opacity="0.12"
         id="stop47" />
    </linearGradient>
    <rect
       id="icon-size"
       width="16"
       height="16"
       fill="none"
       x="0"
       y="0" />
    <g
       id="base-scale-horz-trough">
      <rect
         width="24"
         height="24"
         fill="none"
         id="rect203"
         x="0"
         y="0" />
      <rect
         x="6"
         y="11"
         width="12"
         height="2"
         id="rect205" />
    </g>
    <g
       id="base-scale-vert-trough">
      <use
         xlink:href="#base-scale-horz-trough"
         transform="rotate(90,12,12)"
         id="use208"
         x="0"
         y="0"
         width="100%"
         height="100%" />
    </g>
    <g
       id="base-scrollbar-horz-slider">
      <rect
         y="-1"
         width="17"
         height="17"
         fill="none"
         id="rect211"
         x="0" />
      <rect
         x="4"
         y="4"
         width="9"
         height="8"
         rx="4"
         id="rect213" />
    </g>
    <g
       id="base-scrollbar-horz-trough">
      <rect
         y="-1"
         width="1"
         height="2"
         fill="url(#color-base)"
         id="rect216"
         x="0" />
      <rect
         y="-1"
         width="1"
         height="1"
         fill="url(#color-divider)"
         id="rect218"
         x="0" />
    </g>
    <g
       id="base-scrollbar-vert-ltr-slider">
      <use
         xlink:href="#base-scrollbar-horz-slider"
         transform="rotate(-90,8.5,8.5)"
         id="use221"
         x="0"
         y="0"
         width="100%"
         height="100%" />
    </g>
    <g
       id="base-scrollbar-vert-ltr-trough">
      <use
         xlink:href="#base-scrollbar-horz-trough"
         transform="rotate(-90,0.5,0.5)"
         id="use224"
         x="0"
         y="0"
         width="100%"
         height="100%" />
    </g>
    <g
       id="base-scrollbar-vert-rtl-slider">
      <use
         xlink:href="#base-scrollbar-horz-slider"
         transform="rotate(90,8,8)"
         id="use227"
         x="0"
         y="0"
         width="100%"
         height="100%" />
    </g>
    <g
       id="base-scrollbar-vert-rtl-trough">
      <use
         xlink:href="#base-scrollbar-horz-trough"
         transform="rotate(90,0.5,0.5)"
         id="use230"
         x="0"
         y="0"
         width="100%"
         height="100%" />
    </g>
    <g
       id="base-handle-horz">
      <circle
         cx="2"
         cy="2"
         r="2"
         id="circle233" />
      <circle
         cx="8"
         cy="2"
         r="2"
         id="circle235" />
      <circle
         cx="14"
         cy="2"
         r="2"
         id="circle237" />
    </g>
    <g
       id="base-handle-vert">
      <use
         xlink:href="#base-handle-horz"
         transform="rotate(90,2,2)"
         id="use240"
         x="0"
         y="0"
         width="100%"
         height="100%" />
    </g>
    <path
       id="pan-path"
       d="M 13,6 8,11 3,6 Z" />
    <g
       id="base-pan-down">
      <use
         xlink:href="#icon-size"
         id="use244"
         x="0"
         y="0"
         width="100%"
         height="100%" />
      <use
         xlink:href="#pan-path"
         id="use246"
         x="0"
         y="0"
         width="100%"
         height="100%" />
    </g>
    <g
       id="base-pan-up">
      <use
         xlink:href="#icon-size"
         id="use249"
         x="0"
         y="0"
         width="100%"
         height="100%" />
      <use
         xlink:href="#pan-path"
         transform="rotate(180,8,8)"
         id="use251"
         x="0"
         y="0"
         width="100%"
         height="100%" />
    </g>
    <g
       id="base-pan-left">
      <use
         xlink:href="#icon-size"
         id="use254"
         x="0"
         y="0"
         width="100%"
         height="100%" />
      <use
         xlink:href="#pan-path"
         transform="rotate(90,8,8)"
         id="use256"
         x="0"
         y="0"
         width="100%"
         height="100%" />
    </g>
    <g
       id="base-pan-right">
      <use
         xlink:href="#icon-size"
         id="use259"
         x="0"
         y="0"
         width="100%"
         height="100%" />
      <use
         xlink:href="#pan-path"
         transform="rotate(-90,8,8)"
         id="use261"
         x="0"
         y="0"
         width="100%"
         height="100%" />
    </g>
    <g
       id="base-pan-left-semi">
      <use
         xlink:href="#icon-size"
         id="use264"
         x="0"
         y="0"
         width="100%"
         height="100%" />
      <use
         xlink:href="#pan-path"
         transform="rotate(45,8,8)"
         id="use266"
         x="0"
         y="0"
         width="100%"
         height="100%" />
    </g>
    <g
       id="base-pan-right-semi">
      <use
         xlink:href="#icon-size"
         id="use269"
         x="0"
         y="0"
         width="100%"
         height="100%" />
      <use
         xlink:href="#pan-path"
         transform="rotate(-45,8,8)"
         id="use271"
         x="0"
         y="0"
         width="100%"
         height="100%" />
    </g>
    <g
       id="base-treeview-ltr-button">
      <rect
         width="2"
         height="2"
         fill="url(#color-base)"
         fill-opacity="1"
         id="rect274"
         x="0"
         y="0" />
      <rect
         width="2"
         height="2"
         fill="url(#color-divider)"
         fill-opacity="1"
         id="rect276"
         x="0"
         y="0" />
      <rect
         width="1"
         height="1"
         fill="url(#color-base)"
         fill-opacity="1"
         id="rect278"
         x="0"
         y="0" />
      <rect
         width="1"
         height="1"
         id="rect280"
         x="0"
         y="0" />
    </g>
    <g
       id="base-treeview-rtl-button">
      <use
         xlink:href="#base-treeview-ltr-button"
         transform="scale(-1,1)"
         id="use283"
         x="0"
         y="0"
         width="100%"
         height="100%" />
    </g>
    <clipPath
       clipPathUnits="userSpaceOnUse"
       id="clipPath6274">
      <rect
         style="opacity:0.35;fill:#000000;stroke-width:2;stroke-linecap:round;stroke-linejoin:round;paint-order:stroke fill markers"
         id="rect6276"
         width="28"
         height="132"
         x="164"
         y="12"
         rx="0"
         ry="0" />
    </clipPath>
    <clipPath
       clipPathUnits="userSpaceOnUse"
       id="clipPath6286">
      <rect
         style="opacity:0.35;fill:#000000;stroke-width:2;stroke-linecap:round;stroke-linejoin:round;paint-order:stroke fill markers"
         id="rect6288"
         width="28"
         height="132"
         x="164"
         y="12"
         rx="0"
         ry="0" />
    </clipPath>
    <clipPath
       clipPathUnits="userSpaceOnUse"
       id="clipPath6323">
      <rect
         style="opacity:0.35;fill:#000000;stroke-width:2;stroke-linecap:round;stroke-linejoin:round;paint-order:stroke fill markers"
         id="rect6325"
         width="28"
         height="132"
         x="164"
         y="12"
         rx="0"
         ry="0" />
    </clipPath>
    <clipPath
       clipPathUnits="userSpaceOnUse"
       id="clipPath6482">
      <rect
         style="opacity:0.35;fill:#000000;stroke-width:2;stroke-linecap:round;stroke-linejoin:round;paint-order:stroke fill markers"
         id="rect6484"
         width="26"
         height="16"
         x="164"
         y="14"
         rx="0"
         ry="0" />
    </clipPath>
    <clipPath
       clipPathUnits="userSpaceOnUse"
       id="clipPath6486">
      <rect
         style="opacity:0.35;fill:#000000;stroke-width:2;stroke-linecap:round;stroke-linejoin:round;paint-order:stroke fill markers"
         id="rect6488"
         width="26"
         height="16"
         x="164"
         y="46"
         rx="0"
         ry="0" />
    </clipPath>
    <clipPath
       clipPathUnits="userSpaceOnUse"
       id="clipPath6494">
      <rect
         style="opacity:0.35;fill:#000000;stroke-width:2;stroke-linecap:round;stroke-linejoin:round;paint-order:stroke fill markers"
         id="rect6496"
         width="26"
         height="16"
         x="164"
         y="110"
         rx="0"
         ry="0" />
    </clipPath>
  </defs>
  <g
     inkscape:groupmode="layer"
     id="layer2"
     inkscape:label="background"
     sodipodi:insensitive="true">
    <rect
       style="fill:#f2f2f2;stroke-width:2.09717;stroke-linecap:round;stroke-linejoin:round;paint-order:stroke fill markers"
       id="rect1648"
       width="340"
       height="500"
       x="0"
       y="0"
       rx="0"
       ry="0" />
  </g>
  <g
     inkscape:groupmode="layer"
     id="layer1"
     inkscape:label="assets">
    <g
       id="scale-slider-disabled"
       transform="translate(140,340)">
      <circle
         cx="12"
         cy="12"
         r="12"
         fill="none"
         id="circle525" />
      <circle
         cx="12"
         cy="12"
         r="6"
         fill="url(#color-background)"
         id="circle527"
         style="fill:url(#linearGradient2272)" />
      <circle
         cx="12"
         cy="12"
         r="6"
         fill="url(#color-text-secondary-disabled)"
         id="circle529" />
    </g>
    <g
       id="scale-horz-trough"
       transform="translate(172,244)">
      <use
         xlink:href="#base-scale-horz-trough"
         fill="url(#color-track)"
         id="use532"
         x="0"
         y="0"
         width="100%"
         height="100%" />
    </g>
    <g
       id="scale-horz-trough-disabled"
       transform="translate(172,340)">
      <use
         xlink:href="#base-scale-horz-trough"
         fill="url(#color-track-disabled)"
         id="use538"
         x="0"
         y="0"
         width="100%"
         height="100%" />
    </g>
    <g
       id="scale-vert-trough"
       transform="translate(204,244)">
      <use
         xlink:href="#base-scale-vert-trough"
         fill="url(#color-track)"
         id="use541"
         x="0"
         y="0"
         width="100%"
         height="100%" />
    </g>
    <g
       id="scale-vert-trough-disabled"
       transform="translate(204,340)">
      <use
         xlink:href="#base-scale-vert-trough"
         fill="url(#color-track-disabled)"
         id="use547"
         x="0"
         y="0"
         width="100%"
         height="100%" />
    </g>
    <g
       id="scrollbar-horz-slider"
       transform="translate(236,244)">
      <use
         xlink:href="#base-scrollbar-horz-slider"
         fill="url(#color-text-disabled)"
         id="use550"
         x="0"
         y="0"
         width="100%"
         height="100%" />
    </g>
    <g
       id="scrollbar-horz-slider-hover"
       transform="translate(236,268)">
      <use
         xlink:href="#base-scrollbar-horz-slider"
         fill="url(#color-text-secondary)"
         id="use553"
         x="0"
         y="0"
         width="100%"
         height="100%" />
    </g>
    <g
       id="scrollbar-horz-slider-active"
       transform="translate(236,292)">
      <use
         xlink:href="#base-scrollbar-horz-slider"
         fill="url(#color-text)"
         id="use556"
         x="0"
         y="0"
         width="100%"
         height="100%" />
    </g>
    <g
       id="scrollbar-horz-slider-disabled"
       transform="translate(236,316)">
      <use
         xlink:href="#base-scrollbar-horz-slider"
         fill="url(#color-text-secondary-disabled)"
         id="use559"
         x="0"
         y="0"
         width="100%"
         height="100%" />
    </g>
    <g
       id="scrollbar-horz-trough"
       transform="translate(236,340)">
      <use
         xlink:href="#base-scrollbar-horz-trough"
         id="use562"
         x="0"
         y="0"
         width="100%"
         height="100%" />
    </g>
    <g
       id="scrollbar-vert-ltr-slider"
       transform="translate(260,244)">
      <use
         xlink:href="#base-scrollbar-vert-ltr-slider"
         fill="url(#color-text-disabled)"
         id="use565"
         x="0"
         y="0"
         width="100%"
         height="100%" />
    </g>
    <g
       id="scrollbar-vert-ltr-slider-hover"
       transform="translate(260,268)">
      <use
         xlink:href="#base-scrollbar-vert-ltr-slider"
         fill="url(#color-text-secondary)"
         id="use568"
         x="0"
         y="0"
         width="100%"
         height="100%" />
    </g>
    <g
       id="scrollbar-vert-ltr-slider-active"
       transform="translate(260,292)">
      <use
         xlink:href="#base-scrollbar-vert-ltr-slider"
         fill="url(#color-text)"
         id="use571"
         x="0"
         y="0"
         width="100%"
         height="100%" />
    </g>
    <g
       id="scrollbar-vert-ltr-slider-disabled"
       transform="translate(260,316)">
      <use
         xlink:href="#base-scrollbar-vert-ltr-slider"
         fill="url(#color-text-secondary-disabled)"
         id="use574"
         x="0"
         y="0"
         width="100%"
         height="100%" />
    </g>
    <g
       id="scrollbar-vert-ltr-trough"
       transform="translate(260,340)">
      <use
         xlink:href="#base-scrollbar-vert-ltr-trough"
         id="use577"
         x="0"
         y="0"
         width="100%"
         height="100%" />
    </g>
    <g
       id="scrollbar-vert-rtl-slider"
       transform="translate(284,244)">
      <use
         xlink:href="#base-scrollbar-vert-rtl-slider"
         fill="url(#color-text-disabled)"
         id="use580"
         x="0"
         y="0"
         width="100%"
         height="100%" />
    </g>
    <g
       id="scrollbar-vert-rtl-slider-hover"
       transform="translate(284,268)">
      <use
         xlink:href="#base-scrollbar-vert-rtl-slider"
         fill="url(#color-text-secondary)"
         id="use583"
         x="0"
         y="0"
         width="100%"
         height="100%" />
    </g>
    <g
       id="scrollbar-vert-rtl-slider-active"
       transform="translate(284,292)">
      <use
         xlink:href="#base-scrollbar-vert-rtl-slider"
         fill="url(#color-text)"
         id="use586"
         x="0"
         y="0"
         width="100%"
         height="100%" />
    </g>
    <g
       id="scrollbar-vert-rtl-slider-disabled"
       transform="translate(284,316)">
      <use
         xlink:href="#base-scrollbar-vert-rtl-slider"
         fill="url(#color-text-secondary-disabled)"
         id="use589"
         x="0"
         y="0"
         width="100%"
         height="100%" />
    </g>
    <g
       id="scrollbar-vert-rtl-trough"
       transform="translate(284,340)">
      <use
         xlink:href="#base-scrollbar-vert-rtl-trough"
         id="use592"
         x="0"
         y="0"
         width="100%"
         height="100%" />
    </g>
    <g
       id="handle-horz"
       transform="translate(308,268)">
      <use
         xlink:href="#base-handle-horz"
         fill="url(#color-text-disabled)"
         id="use595"
         x="0"
         y="0"
         width="100%"
         height="100%" />
    </g>
    <g
       id="handle-horz-hover"
       transform="translate(308,304)">
      <use
         xlink:href="#base-handle-horz"
         fill="url(#color-text-secondary)"
         id="use598"
         x="0"
         y="0"
         width="100%"
         height="100%" />
    </g>
    <g
       id="handle-horz-active"
       transform="translate(308,340)">
      <use
         xlink:href="#base-handle-horz"
         fill="url(#color-text)"
         id="use601"
         x="0"
         y="0"
         width="100%"
         height="100%" />
    </g>
    <g
       id="handle-vert"
       transform="translate(308,244)">
      <use
         xlink:href="#base-handle-vert"
         fill="url(#color-text-disabled)"
         id="use604"
         x="0"
         y="0"
         width="100%"
         height="100%" />
    </g>
    <g
       id="handle-vert-hover"
       transform="translate(308,280)">
      <use
         xlink:href="#base-handle-vert"
         fill="url(#color-text-secondary)"
         id="use607"
         x="0"
         y="0"
         width="100%"
         height="100%" />
    </g>
    <g
       id="handle-vert-active"
       transform="translate(308,316)">
      <use
         xlink:href="#base-handle-vert"
         fill="url(#color-text)"
         id="use610"
         x="0"
         y="0"
         width="100%"
         height="100%" />
    </g>
    <g
       id="pan-up"
       transform="translate(141,151)">
      <use
         xlink:href="#base-pan-up"
         fill="url(#color-text)"
         id="use613"
         x="0"
         y="0"
         width="100%"
         height="100%" />
    </g>
    <g
       id="pan-up-disabled"
       transform="translate(141,171)">
      <use
         xlink:href="#base-pan-up"
         fill="url(#color-text-disabled)"
         id="use616"
         x="0"
         y="0"
         width="100%"
         height="100%" />
    </g>
    <g
       id="pan-up-alt"
       transform="translate(141,191)">
      <use
         xlink:href="#base-pan-up"
         fill="url(#color-text-secondary)"
         id="use619"
         x="0"
         y="0"
         width="100%"
         height="100%" />
    </g>
    <g
       id="pan-up-alt-disabled"
       transform="translate(141,211)">
      <use
         xlink:href="#base-pan-up"
         fill="url(#color-text-secondary-disabled)"
         id="use622"
         x="0"
         y="0"
         width="100%"
         height="100%" />
    </g>
    <g
       id="pan-down"
       transform="translate(161,151)">
      <use
         xlink:href="#base-pan-down"
         fill="url(#color-text)"
         id="use625"
         x="0"
         y="0"
         width="100%"
         height="100%" />
    </g>
    <g
       id="pan-down-disabled"
       transform="translate(161,171)">
      <use
         xlink:href="#base-pan-down"
         fill="url(#color-text-disabled)"
         id="use628"
         x="0"
         y="0"
         width="100%"
         height="100%" />
    </g>
    <g
       id="pan-down-alt"
       transform="translate(161,191)">
      <use
         xlink:href="#base-pan-down"
         fill="url(#color-text-secondary)"
         id="use631"
         x="0"
         y="0"
         width="100%"
         height="100%" />
    </g>
    <g
       id="pan-down-alt-disabled"
       transform="translate(161,211)">
      <use
         xlink:href="#base-pan-down"
         fill="url(#color-text-secondary-disabled)"
         id="use634"
         x="0"
         y="0"
         width="100%"
         height="100%" />
    </g>
    <g
       id="pan-left"
       transform="translate(181,151)">
      <use
         xlink:href="#base-pan-left"
         fill="url(#color-text)"
         id="use637"
         x="0"
         y="0"
         width="100%"
         height="100%" />
    </g>
    <g
       id="pan-left-disabled"
       transform="translate(181,171)">
      <use
         xlink:href="#base-pan-left"
         fill="url(#color-text-disabled)"
         id="use640"
         x="0"
         y="0"
         width="100%"
         height="100%" />
    </g>
    <g
       id="pan-left-alt"
       transform="translate(181,191)">
      <use
         xlink:href="#base-pan-left"
         fill="url(#color-text-secondary)"
         id="use643"
         x="0"
         y="0"
         width="100%"
         height="100%" />
    </g>
    <g
       id="pan-left-alt-disabled"
       transform="translate(181,211)">
      <use
         xlink:href="#base-pan-left"
         fill="url(#color-text-secondary-disabled)"
         id="use646"
         x="0"
         y="0"
         width="100%"
         height="100%" />
    </g>
    <g
       id="pan-right"
       transform="translate(201,151)">
      <use
         xlink:href="#base-pan-right"
         fill="url(#color-text)"
         id="use649"
         x="0"
         y="0"
         width="100%"
         height="100%" />
    </g>
    <g
       id="pan-right-disabled"
       transform="translate(201,171)">
      <use
         xlink:href="#base-pan-right"
         fill="url(#color-text-disabled)"
         id="use652"
         x="0"
         y="0"
         width="100%"
         height="100%" />
    </g>
    <g
       id="pan-right-alt"
       transform="translate(201,191)">
      <use
         xlink:href="#base-pan-right"
         fill="url(#color-text-secondary)"
         id="use655"
         x="0"
         y="0"
         width="100%"
         height="100%" />
    </g>
    <g
       id="pan-right-alt-disabled"
       transform="translate(201,211)">
      <use
         xlink:href="#base-pan-right"
         fill="url(#color-text-secondary-disabled)"
         id="use658"
         x="0"
         y="0"
         width="100%"
         height="100%" />
    </g>
    <g
       id="pan-left-semi"
       transform="translate(221,151)">
      <use
         xlink:href="#base-pan-left-semi"
         fill="url(#color-text)"
         id="use661"
         x="0"
         y="0"
         width="100%"
         height="100%" />
    </g>
    <g
       id="pan-right-semi"
       transform="translate(241,151)">
      <use
         xlink:href="#base-pan-right-semi"
         fill="url(#color-text)"
         id="use664"
         x="0"
         y="0"
         width="100%"
         height="100%" />
    </g>
    <g
       id="border"
       transform="translate(140,388)">
      <rect
         width="1"
         height="1"
         fill="url(#color-divider)"
         id="rect667"
         x="0"
         y="0" />
    </g>
    <g
       id="progressbar-trough"
       transform="translate(176,388)">
      <rect
         width="4"
         height="4"
         fill="url(#color-background)"
         id="rect676"
         style="fill:url(#linearGradient2358)"
         x="0"
         y="0" />
      <rect
         width="4"
         height="4"
         fill="url(#color-track-disabled)"
         id="rect678"
         x="0"
         y="0" />
    </g>
    <g
       id="frame"
       transform="translate(140,400)">
      <rect
         x="0.5"
         y="0.5"
         width="2"
         height="2"
         fill="none"
         stroke="url(#color-frame)"
         stroke-width="1"
         id="rect681" />
    </g>
    <g
       id="frame-notebook"
       transform="translate(152,400)">
      <rect
         width="3"
         height="3"
         fill="url(#color-frame)"
         id="rect684"
         x="0"
         y="0" />
      <rect
         x="1"
         y="1"
         width="1"
         height="1"
         fill="url(#color-base)"
         id="rect686" />
    </g>
    <g
       id="frame-inline"
       transform="translate(164,400)">
      <rect
         width="3"
         height="2"
         fill="url(#color-frame)"
         id="rect689"
         x="0"
         y="0" />
      <rect
         x="1"
         width="1"
         height="1"
         fill="url(#color-base-alt)"
         id="rect691"
         y="0" />
    </g>
    <g
       id="focus"
       transform="translate(176,400)">
      <rect
         x="1"
         y="1"
         width="8"
         height="8"
         rx="3"
         fill="none"
         stroke="url(#color-divider)"
         stroke-width="2"
         id="rect694" />
    </g>
    <g
       id="treeview-ltr-button"
       transform="translate(188,388)">
      <use
         xlink:href="#base-treeview-ltr-button"
         fill="url(#color-text)"
         fill-opacity="0"
         id="use697"
         x="0"
         y="0"
         width="100%"
         height="100%" />
    </g>
    <g
       id="treeview-ltr-button-hover"
       transform="translate(188,396)">
      <use
         xlink:href="#base-treeview-ltr-button"
         fill="url(#color-text)"
         fill-opacity="0.08"
         id="use700"
         x="0"
         y="0"
         width="100%"
         height="100%" />
    </g>
    <g
       id="treeview-ltr-button-active"
       transform="translate(188,404)">
      <use
         xlink:href="#base-treeview-ltr-button"
         fill="url(#color-text)"
         fill-opacity="0.2"
         id="use703"
         x="0"
         y="0"
         width="100%"
         height="100%" />
    </g>
    <g
       id="treeview-rtl-button"
       transform="translate(198,388)">
      <use
         xlink:href="#base-treeview-rtl-button"
         fill="url(#color-text)"
         fill-opacity="0"
         id="use706"
         x="0"
         y="0"
         width="100%"
         height="100%" />
    </g>
    <g
       id="treeview-rtl-button-hover"
       transform="translate(198,396)">
      <use
         xlink:href="#base-treeview-rtl-button"
         fill="url(#color-text)"
         fill-opacity="0.08"
         id="use709"
         x="0"
         y="0"
         width="100%"
         height="100%" />
    </g>
    <g
       id="treeview-rtl-button-active"
       transform="translate(198,404)">
      <use
         xlink:href="#base-treeview-rtl-button"
         fill="url(#color-text)"
         fill-opacity="0.2"
         id="use712"
         x="0"
         y="0"
         width="100%"
         height="100%" />
    </g>
    <g
       id="flat-button"
       transform="translate(-268,36)">
      <rect
         id="rect1641"
         width="48"
         height="28"
         x="284"
         y="-20"
         rx="6"
         ry="6"
         style="opacity:0.01;fill:#000000" />
    </g>
    <g
       id="flat-button-hover"
       transform="translate(-268,36)">
      <rect
         id="rect1902"
         width="48"
         height="28"
         x="284"
         y="12"
         rx="6"
         ry="6"
         style="opacity:0.1;fill:#000000" />
    </g>
    <g
       id="flat-button-active"
       transform="translate(-268,36)">
      <rect
         id="rect1904"
         width="48"
         height="28"
         x="284"
         y="44"
         rx="6"
         ry="6"
         style="opacity:0.2;fill:#000000" />
    </g>
    <g
       id="flat-button-disabled"
       transform="translate(-268,36)">
      <rect
         id="rect1906"
         width="48"
         height="28"
         x="284"
         y="76"
         rx="6"
         ry="6"
         style="opacity:0.01;fill:#000000" />
    </g>
    <g
       id="button"
       transform="translate(-268,36)">
      <rect
         id="rect1908"
         width="48"
         height="28"
         x="336"
         y="-20"
         rx="6"
         ry="6"
         style="opacity:0.05;fill:#000000" />
    </g>
    <g
       id="button-hover"
       transform="translate(-268,36)">
      <rect
         id="rect1910"
         width="48"
         height="28"
         x="336"
         y="12"
         rx="6"
         ry="6"
         style="opacity:0.1;fill:#000000" />
    </g>
    <g
       id="button-active"
       transform="translate(-268,36)">
      <rect
         id="rect1912"
         width="48"
         height="28"
         x="336"
         y="44"
         rx="6"
         ry="6"
         style="opacity:0.2;fill:#000000" />
    </g>
    <g
       id="button-disabled"
       transform="translate(-268,36)">
      <rect
         id="rect1914"
         width="48"
         height="28"
         x="336"
         y="76"
         rx="6"
         ry="6"
         style="opacity:0.03;fill:#000000" />
    </g>
    <g
       id="entry"
       transform="translate(-268,36)">
      <rect
         id="rect2226"
         width="48"
         height="28"
         x="408"
         y="-20"
         rx="6"
         ry="6"
         style="opacity:0.05;fill:#000000" />
    </g>
    <g
       id="entry-disabled"
       transform="translate(-268,36)">
      <rect
         id="rect2232"
         width="48"
         height="28"
         x="408"
         y="76"
         rx="6"
         ry="6"
         style="opacity:0.03;fill:#000000" />
    </g>
    <g
       id="entry-hover"
       transform="translate(-268,36)">
      <rect
         id="rect2228"
         width="48"
         height="28"
         x="408"
         y="12"
         rx="6"
         ry="6"
         style="opacity:0.05;fill:#000000" />
      <path
         id="rect2335"
         style="opacity:0.35;fill:#000000"
         d="m 414,12 c -3.324,0 -6,2.676 -6,6 v 16 c 0,3.324 2.676,6 6,6 h 36 c 3.324,0 6,-2.676 6,-6 V 18 c 0,-3.324 -2.676,-6 -6,-6 z m 0,2 h 36 c 2.216,0 4,1.784 4,4 v 16 c 0,2.216 -1.784,4 -4,4 h -36 c -2.216,0 -4,-1.784 -4,-4 V 18 c 0,-2.216 1.784,-4 4,-4 z" />
    </g>
    <g
       id="checkbox-unchecked-hover"
       transform="translate(-268,64)">
      <rect
         style="opacity:0;fill:#000000;stroke-width:3;stroke-linecap:round;stroke-linejoin:round;paint-order:stroke fill markers"
         id="rect3491"
         width="24"
         height="24"
         x="284"
         y="120"
         rx="0"
         ry="0" />
      <path
         d="m 296,122 c -5.52,0 -10,4.48 -10,10 0,5.52 4.48,10 10,10 5.52,0 10,-4.48 10,-10 0,-5.52 -4.48,-10 -10,-10 z"
         id="path3334"
         style="opacity:0.15;fill:#000000"
         sodipodi:nodetypes="sssss" />
    </g>
    <g
       id="radio-unchecked-hover"
       transform="translate(-268,64)">
      <rect
         style="opacity:0;fill:#000000;stroke-width:3;stroke-linecap:round;stroke-linejoin:round;paint-order:stroke fill markers"
         id="rect1131"
         width="24"
         height="24"
         x="312"
         y="120"
         rx="0"
         ry="0" />
      <path
         d="m 324,122 c -5.52,0 -10,4.48 -10,10 0,5.52 4.48,10 10,10 5.52,0 10,-4.48 10,-10 0,-5.52 -4.48,-10 -10,-10 z"
         id="path3361"
         style="opacity:0.15;fill:#000000"
         sodipodi:nodetypes="sssss" />
    </g>
    <g
       id="checkbox-unchecked-disabled"
       transform="translate(-268,36)">
      <rect
         style="opacity:0;fill:#000000;stroke-width:3;stroke-linecap:round;stroke-linejoin:round;paint-order:stroke fill markers"
         id="rect1129"
         width="24"
         height="24"
         x="284"
         y="204"
         rx="0"
         ry="0" />
      <path
         d="m 296,206 c -5.52,0 -10,4.48 -10,10 0,5.52 4.48,10 10,10 5.52,0 10,-4.48 10,-10 0,-5.52 -4.48,-10 -10,-10 z"
         id="path1221"
         style="opacity:0.05;fill:#000000" />
    </g>
    <g
       id="radio-unchecked-disabled"
       transform="translate(-268,36)">
      <rect
         style="opacity:0;fill:#000000;stroke-width:3;stroke-linecap:round;stroke-linejoin:round;paint-order:stroke fill markers"
         id="rect1137"
         width="24"
         height="24"
         x="312"
         y="204"
         rx="0"
         ry="0" />
      <path
         d="m 324,206 c -5.52,0 -10,4.48 -10,10 0,5.52 4.48,10 10,10 5.52,0 10,-4.48 10,-10 0,-5.52 -4.48,-10 -10,-10 z"
         id="path1223"
         style="opacity:0.05;fill:#000000" />
    </g>
    <g
       id="menu-checkbox-unchecked-disabled"
       transform="translate(-268,-20)">
      <path
         d="m 356,208 c -4.41828,0 -8,3.58172 -8,8 0,4.41828 3.58172,8 8,8 4.41828,0 8,-3.58172 8,-8 0,-4.41828 -3.58172,-8 -8,-8 z"
         id="path2146"
         style="opacity:0.05;fill:#000000" />
    </g>
    <g
       id="menu-radio-unchecked-disabled"
       transform="translate(-268,-20)">
      <path
         d="m 380,208 c -4.41828,0 -8,3.58172 -8,8 0,4.41828 3.58172,8 8,8 4.41828,0 8,-3.58172 8,-8 0,-4.41828 -3.58172,-8 -8,-8 z"
         id="path2148"
         style="opacity:0.05;fill:#000000" />
    </g>
    <g
       id="entry-background"
       transform="matrix(0.04166667,0,0,0.07142857,303,47.428571)">
      <rect
         id="rect5636"
         width="48"
         height="28"
         x="408"
         y="-20"
         rx="0"
         ry="0"
         style="opacity:0.05;fill:#000000" />
    </g>
    <g
       id="entry-background-disabled"
       transform="matrix(0.04166667,0,0,0.07142857,303,76.571429)">
      <rect
         id="rect5640"
         width="48"
         height="28"
         x="408"
         y="76"
         rx="0"
         ry="0"
         style="opacity:0.03;fill:#000000" />
    </g>
    <use
       x="0"
       y="0"
       xlink:href="#entry"
       id="combo-right-entry"
       transform="translate(52)"
       width="100%"
       height="100%"
       clip-path="url(#clipPath6274)" />
    <use
       x="0"
       y="0"
       xlink:href="#entry-disabled"
       id="combo-right-entry-disabled"
       transform="translate(52)"
       width="100%"
       height="100%"
       clip-path="url(#clipPath6323)" />
    <use
       x="0"
       y="0"
       xlink:href="#entry-hover"
       id="combo-right-entry-hover"
       transform="translate(52)"
       width="100%"
       height="100%"
       clip-path="url(#clipPath6286)" />
    <use
       x="0"
       y="0"
       xlink:href="#entry"
       id="combo-left-entry"
       transform="matrix(-1,0,0,1,380,0)"
       width="100%"
       height="100%"
       clip-path="url(#clipPath6274)" />
    <use
       x="0"
       y="0"
       xlink:href="#entry-disabled"
       id="combo-left-entry-disabled"
       transform="matrix(-1,0,0,1,380,0)"
       width="100%"
       height="100%"
       clip-path="url(#clipPath6323)" />
    <use
       x="0"
       y="0"
       xlink:href="#entry-hover"
       id="combo-left-entry-hover"
       transform="matrix(-1,0,0,1,380,0)"
       width="100%"
       height="100%"
       clip-path="url(#clipPath6286)" />
    <use
       x="0"
       y="0"
       xlink:href="#entry"
       id="spin-ltr-up"
       transform="translate(104)"
       width="100%"
       height="100%"
       clip-path="url(#clipPath6482)" />
    <use
       x="0"
       y="0"
       xlink:href="#entry-disabled"
       id="spin-ltr-up-disabled"
       transform="translate(104)"
       width="100%"
       height="100%"
       clip-path="url(#clipPath6494)" />
    <use
       x="0"
       y="0"
       xlink:href="#entry-hover"
       id="spin-ltr-up-hover"
       transform="translate(104)"
       width="100%"
       height="100%"
       clip-path="url(#clipPath6486)" />
    <use
       x="0"
       y="0"
       xlink:href="#entry"
       id="spin-rtl-up"
       transform="matrix(-1,0,0,1,432,0)"
       width="100%"
       height="100%"
       clip-path="url(#clipPath6482)" />
    <use
       x="0"
       y="0"
       xlink:href="#entry-disabled"
       id="spin-rtl-up-disabled"
       transform="matrix(-1,0,0,1,432,0)"
       width="100%"
       height="100%"
       clip-path="url(#clipPath6494)" />
    <use
       x="0"
       y="0"
       xlink:href="#entry-hover"
       id="spin-rtl-up-hover"
       transform="matrix(-1,0,0,1,432,0)"
       width="100%"
       height="100%"
       clip-path="url(#clipPath6486)" />
    <use
       x="0"
       y="0"
       xlink:href="#entry"
       id="spin-ltr-down"
       transform="matrix(1,0,0,-1,104,60)"
       width="100%"
       height="100%"
       clip-path="url(#clipPath6482)" />
    <use
       x="0"
       y="0"
       xlink:href="#entry"
       id="spin-rtl-down"
       transform="rotate(180,216,30)"
       width="100%"
       height="100%"
       clip-path="url(#clipPath6482)" />
    <use
       x="0"
       y="0"
       xlink:href="#entry-hover"
       id="spin-ltr-down-hover"
       transform="matrix(1,0,0,-1,104,124)"
       width="100%"
       height="100%"
       clip-path="url(#clipPath6486)" />
    <use
       x="0"
       y="0"
       xlink:href="#entry-hover"
       id="spin-rtl-down-hover"
       transform="rotate(180,216,62)"
       width="100%"
       height="100%"
       clip-path="url(#clipPath6486)" />
    <use
       x="0"
       y="0"
       xlink:href="#entry-disabled"
       id="spin-ltr-down-disabled"
       transform="matrix(1,0,0,-1,104,252)"
       width="100%"
       height="100%"
       clip-path="url(#clipPath6494)" />
    <use
       x="0"
       y="0"
       xlink:href="#entry-disabled"
       id="spin-rtl-down-disabled"
       transform="rotate(180,216,126)"
       width="100%"
       height="100%"
       clip-path="url(#clipPath6494)" />
    <g
       id="checkbox-unchecked"
       transform="translate(-268,36)">
      <rect
         style="opacity:0;fill:#000000;stroke-width:3;stroke-linecap:round;stroke-linejoin:round;paint-order:stroke fill markers"
         id="rect2221"
         width="24"
         height="24"
         x="284"
         y="120"
         rx="0"
         ry="0" />
      <path
         d="m 296,122 c -5.52,0 -10,4.48 -10,10 0,5.52 4.48,10 10,10 5.52,0 10,-4.48 10,-10 0,-5.52 -4.48,-10 -10,-10 z"
         id="path2223"
         style="opacity:0.12;fill:#000000;stroke-width:1" />
    </g>
    <g
       id="radio-unchecked"
       transform="translate(-268,36)">
      <rect
         style="opacity:0;fill:#000000;stroke-width:3;stroke-linecap:round;stroke-linejoin:round;paint-order:stroke fill markers"
         id="rect2227"
         width="24"
         height="24"
         x="312"
         y="120"
         rx="0"
         ry="0" />
      <path
         d="m 324,122 c -5.52,0 -10,4.48 -10,10 0,5.52 4.48,10 10,10 5.52,0 10,-4.48 10,-10 0,-5.52 -4.48,-10 -10,-10 z"
         id="path2229"
         style="opacity:0.12;fill:#000000" />
    </g>
    <g
       id="menu-checkbox-unchecked"
       transform="translate(-268,36)">
      <path
         d="m 356,124 c -4.41828,0 -8,3.58172 -8,8 0,4.41828 3.58172,8 8,8 4.41828,0 8,-3.58172 8,-8 0,-4.41828 -3.58172,-8 -8,-8 z"
         id="path2233"
         style="opacity:0.12;fill:#000000"
         sodipodi:nodetypes="sssss" />
    </g>
    <g
       id="menu-radio-unchecked"
       transform="translate(-268,36)">
      <path
         d="m 380,124 c -4.41828,0 -8,3.58172 -8,8 0,4.41828 3.58172,8 8,8 4.41828,0 8,-3.58172 8,-8 0,-4.41828 -3.58172,-8 -8,-8 z"
         id="path2237"
         style="opacity:0.12;fill:#000000" />
    </g>
    <g
       id="checkbox-unchecked-active"
       transform="translate(-268,92)">
      <rect
         style="opacity:0;fill:#000000;stroke-width:3;stroke-linecap:round;stroke-linejoin:round;paint-order:stroke fill markers"
         id="rect2259"
         width="24"
         height="24"
         x="284"
         y="120"
         rx="0"
         ry="0" />
      <path
         d="m 296,122 c -5.52,0 -10,4.48 -10,10 0,5.52 4.48,10 10,10 5.52,0 10,-4.48 10,-10 0,-5.52 -4.48,-10 -10,-10 z"
         id="path2261"
         style="opacity:0.2;fill:#000000" />
    </g>
    <g
       id="radio-unchecked-active"
       transform="translate(-268,92)">
      <rect
         style="opacity:0;fill:#000000;stroke-width:3;stroke-linecap:round;stroke-linejoin:round;paint-order:stroke fill markers"
         id="rect2265"
         width="24"
         height="24"
         x="312"
         y="120"
         rx="0"
         ry="0" />
      <path
         d="m 324,122 c -5.52,0 -10,4.48 -10,10 0,5.52 4.48,10 10,10 5.52,0 10,-4.48 10,-10 0,-5.52 -4.48,-10 -10,-10 z"
         id="path2267"
         style="opacity:0.2;fill:#000000" />
    </g>
  </g>
</svg>
