<svg xmlns="http://www.w3.org/2000/svg" width="48" height="51"><path d="M21 585.362h32v34H21z" style="fill:none;fill-opacity:1;stroke:none;stroke-width:1.27242;stroke-linecap:butt;stroke-linejoin:round;stroke-miterlimit:4;stroke-dasharray:none;stroke-dashoffset:0;stroke-opacity:1" transform="matrix(1.5 0 0 1.5 -31.5 -878.043)"/><path d="M342 581.362a1 1 0 0 0-1 1 1 1 0 0 0 1 1 1 1 0 0 0 1-1 1 1 0 0 0-1-1m5 0a1 1 0 0 0-1 1 1 1 0 0 0 1 1 1 1 0 0 0 1-1 1 1 0 0 0-1-1m5 0a1 1 0 0 0-1 1 1 1 0 0 0 1 1 1 1 0 0 0 1-1 1 1 0 0 0-1-1" style="opacity:.3;fill:#fff" transform="matrix(1.5 0 0 1.5 -496.5 -848.043)"/></svg>