/* XPM */
static char *button_inactive_Normal[] = {
/* columns rows colors chars-per-pixel */
"54 51 4 1 ",
"  c None",
". c #323232",
"X c gray20 s inactive_color_1",
"o c #343434",
/* pixels */
"                                                      ",
"                                                      ",
"                                                      ",
"                                                      ",
"                       oooooooo                       ",
"                      oXXXXXXXXo                      ",
"                   oXXXXXXXXXXXXXXo                   ",
"                 ooXXXXXXXXXXXXXXXXoo                 ",
"                oXXXXXXXXXXXXXXXXXXXXo                ",
"             oXXXXXXXXXXXXXXXXXXXXXXXXXXo             ",
"            oXXXXXXXXXXXXXXXXXXXXXXXXXXXXo            ",
"            XXXXXXXXXXXXXXXXXXXXXXXXXXXXXX            ",
"          oXXXXXXXXXXXXXXXXXXXXXXXXXXXXXXXXo          ",
"          oXXXXXXXXXXXXXXXXXXXXXXXXXXXXXXXXo          ",
"          oXXXXXXXXXXXXXXXXXXXXXXXXXXXXXXXXo          ",
"         XXXXXXXXXXXXXXXXXXXXXXXXXXXXXXXXXXXX         ",
"         XXXXXXXXXXXXXXXXXXXXXXXXXXXXXXXXXXXX         ",
"         XXXXXXXXXXXXXXXXXXXXXXXXXXXXXXXXXXXX         ",
"       oXXXXXXXXXXXXXXXXXXXXXXXXXXXXXXXXXXXXXXo       ",
"       oXXXXXXXXXXXXXXXXXXXXXXXXXXXXXXXXXXXXXXo       ",
"       oXXXXXXXXXXXXXXXXXXXXXXXXXXXXXXXXXXXXXXo       ",
"      XXXXXXXXXXXXXXXXXXXXXXXXXXXXXXXXXXXXXXXXXX      ",
"      XXXXXXXXXXXXXXXXXXXXXXXXXXXXXXXXXXXXXXXXXX      ",
"      XXXXXXXXXXXXXXXXXXXXXXXXXXXXXXXXXXXXXXXXXX      ",
"      XXXXXXXXXXXXXXXXXXXXXXXXXXXXXXXXXXXXXXXXXX      ",
"      XXXXXXXXXXXXXXXXXXXXXXXXXXXXXXXXXXXXXXXXXX      ",
"      XXXXXXXXXXXXXXXXXXXXXXXXXXXXXXXXXXXXXXXXXX      ",
"      XXXXXXXXXXXXXXXXXXXXXXXXXXXXXXXXXXXXXXXXXX      ",
"      XXXXXXXXXXXXXXXXXXXXXXXXXXXXXXXXXXXXXXXXXX      ",
"      XXXXXXXXXXXXXXXXXXXXXXXXXXXXXXXXXXXXXXXXXX      ",
"       oXXXXXXXXXXXXXXXXXXXXXXXXXXXXXXXXXXXXXXo       ",
"       oXXXXXXXXXXXXXXXXXXXXXXXXXXXXXXXXXXXXXXo       ",
"       oXXXXXXXXXXXXXXXXXXXXXXXXXXXXXXXXXXXXXXo       ",
"         XXXXXXXXXXXXXXXXXXXXXXXXXXXXXXXXXXXX         ",
"         XXXXXXXXXXXXXXXXXXXXXXXXXXXXXXXXXXXX         ",
"         XXXXXXXXXXXXXXXXXXXXXXXXXXXXXXXXXXXX         ",
"          oXXXXXXXXXXXXXXXXXXXXXXXXXXXXXXXXo          ",
"          oXXXXXXXXXXXXXXXXXXXXXXXXXXXXXXXXo          ",
"          oXXXXXXXXXXXXXXXXXXXXXXXXXXXXXXXXo          ",
"            XXXXXXXXXXXXXXXXXXXXXXXXXXXXXX            ",
"            oXXXXXXXXXXXXXXXXXXXXXXXXXXXXo            ",
"             oXXXXXXXXXXXXXXXXXXXXXXXXXXo             ",
"                oXXXXXXXXXXXXXXXXXXXXo                ",
"                 ooXXXXXXXXXXXXXXXXoo                 ",
"                   oXXXXXXXXXXXXXXo                   ",
"                      oXXXXXXXXo                      ",
"                       oooooooo                       ",
"                                                      ",
"                                                      ",
"                                                      ",
"                                                      "
};
