<?xml version="1.0" encoding="UTF-8"?>
<svg width="32" height="32" version="1.1" viewBox="0 0 32 32" xmlns="http://www.w3.org/2000/svg">
 <g transform="matrix(1.1428 0 0 1.1428 -2.2856 -2.2688)">
  <rect x="2.875" y="2.8603" width="26.251" height="26.251" rx="6.0947" ry="6.0947" fill="#f2f2f2" stroke-width="1.7717"/>
  <circle transform="rotate(-90)" cx="-16" cy="16" r="10.781" fill="#666" stroke-width=".64456"/>
  <path d="m15.286 5.2447a10.781 10.781 0 0 0-0.93635 0.1032 6.5028 6.5028 0 0 1 0.11916 0.86131 6.5028 6.5028 0 0 1-6.1012 6.8809 6.5028 6.5028 0 0 1-2.6242-0.39781 10.781 10.781 0 0 0-0.26177 0.94855c0.10041 0.03354 0.20126 0.06637 0.30305 0.0957-0.00636 0.87207-0.070197 1.2153 0.33026 1.3229 0.34671 0.0932 0.45858-0.21617 0.75621-1.0865 0.28424 0.03712 0.56996 0.05832 0.8566 0.06286 0.21836 0.95124 0.29022 1.2779 0.65393 1.2197 0.40837-0.0654 0.38219-0.41308 0.46536-1.276 0.2863-0.03833 0.57001-0.0933 0.85002-0.16419 0.40528 0.84013 0.55248 1.1369 0.88759 1.002 0.38484-0.15487 0.27966-0.48912 0.16888-1.3548 0.26022-0.10691 0.51429-0.22779 0.76091-0.3631 0.63164 0.70711 0.85396 0.95455 1.1409 0.73089 0.3257-0.25397 0.13616-0.54537-0.20641-1.3389 0.23129-0.1776 0.45147-0.36915 0.66052-0.57232 0.75942 0.50785 1.0369 0.68511 1.2554 0.40156 0.24883-0.32296-0.0012-0.55892-0.51698-1.2216 0.16813-0.21713 0.32393-0.44324 0.46724-0.67742 0.90556 0.25998 1.226 0.34969 1.3492 0.0084 0.13755-0.38106-0.16878-0.53168-0.85286-0.99827 0.11444-0.27247 0.2122-0.552 0.29367-0.83595 0.93793 0.03048 1.2701 0.039496 1.306-0.32088 0.04025-0.40379-0.29506-0.47455-1.0752-0.76091 0.03738-0.29549 0.05718-0.5935 0.05911-0.89134 0.88893-0.17122 1.2091-0.24095 1.1653-0.5948-0.050185-0.40492-0.39401-0.39682-1.2281-0.50569-0.013119-0.092919-0.029346-0.18537-0.045972-0.27771zm0.31618 6.316-0.50756 0.06568c-0.02342 0.0031-0.04302 0.01554-0.0563 0.03284-0.01325 0.01728-0.01743 0.03924-0.01689 0.06286l0.01126 0.63236a3.7607 3.7607 0 0 0-1.048 0.43909l-0.43252-0.4541c-0.01471-0.01849-0.03469-0.02998-0.0563-0.03284-0.02161-0.0029-0.04412 0.0025-0.06286 0.01689l-0.40625 0.31149c-0.01875 0.01436-0.02997 0.03468-0.03284 0.0563-0.0029 0.02161 0.0053 0.0433 0.01689 0.0638l0.31337 0.54792a3.7607 3.7607 0 0 0-0.68208 0.9007l-0.59576-0.17545c-0.02199-0.0086-0.04553-0.0092-0.06568-9.61e-4 -0.02013 0.0084-0.03693 0.02509-0.04597 0.04691l-0.19609 0.47287c-0.0091 0.02182-0.0083 0.04459 0 0.06474 0.0084 0.02014 0.02557 0.03408 0.04597 0.04597l0.54604 0.31806a3.7607 3.7607 0 0 0-0.14542 1.0236 3.7607 3.7607 0 0 0 0.0028 0.0957l-0.60796 0.1473c-0.02335 0.0035-0.04302 0.01557-0.0563 0.03284-0.01325 0.01728-0.02003 0.03944-0.01689 0.06286l0.06661 0.50665c0.0031 0.02342 0.01456 0.04395 0.0319 0.05723 0.01725 0.01327 0.04018 0.0168 0.0638 0.01689l0.63424 0.0019a3.7607 3.7607 0 0 0 0.43815 1.0405l-0.45317 0.43065c-0.01847 0.01472-0.02999 0.03468-0.03284 0.05629-0.0029 0.02161 0.0025 0.04506 0.01689 0.0638l0.3115 0.40532c0.01434 0.01875 0.03469 0.02998 0.0563 0.03284 0.02161 0.0029 0.04236-0.0053 0.06286-0.01689l0.547-0.31243a3.7607 3.7607 0 0 0 0.90166 0.68305l-0.17451 0.59389c-0.0087 0.02199-0.0084 0.04553 0 0.06568 0.0084 0.02014 0.02417 0.03693 0.04597 0.04597l0.47193 0.19609c0.02182 0.0091 0.04552 0.0084 0.06568 0 0.02015-0.0084 0.03408-0.02557 0.04597-0.04597l0.31712-0.54513a3.7607 3.7607 0 0 0 1.0218 0.14542 3.7607 3.7607 0 0 0 0.09851-0.0037l0.1473 0.60796c0.0035 0.02335 0.01456 0.04302 0.0319 0.05629 0.01725 0.01325 0.04038 0.02003 0.0638 0.01689l0.50665-0.06661c0.02342-0.0031 0.04396-0.01454 0.05723-0.0319 0.01325-0.01725 0.01689-0.04018 0.01689-0.0638l0.0019-0.63424a3.7607 3.7607 0 0 0 1.0142-0.42408l0.46067 0.43628c0.11956 0.0158 0.03469 0.02999 0.0563 0.03284 0.02161 0.0029 0.04506-0.0025 0.0638-0.01689l0.40625-0.31055c0.01875-0.01434 0.02903-0.03562 0.0319-0.05723 0.0029-0.02161-0.0049-0.04262-0.01689-0.06286l-0.32369-0.53855a3.7607 3.7607 0 0 0 0.67363-0.88192l0.61738 0.14824c0.11143-0.04609 0.04553 0.0084 0.06568 0s0.03691-0.02416 0.04597-0.04597l0.19609-0.47287c0.0091-0.02182 0.0083-0.04553 0-0.06568-0.0084-0.02014-0.02533-0.03452-0.04597-0.04597l-0.55637-0.30774a3.7607 3.7607 0 0 0 0.1473-1.0283 3.7607 3.7607 0 0 0-0.0028-0.07131l0.60705-0.1792c0.07346-0.09564 0.04396-0.01557 0.05723-0.03284 0.01325-0.01728 0.02003-0.03944 0.01689-0.06286l-0.06755-0.50756c-0.0031-0.02342-0.01454-0.04301-0.0319-0.0563-0.01725-0.01327-0.04018-0.01731-0.0638-0.01689l-0.63237 0.01126a3.7607 3.7607 0 0 0-0.42502-1.0218l0.43909-0.46255c0.0158-0.11956 0.02903-0.03468 0.0319-0.0563 0.0029-0.02161-0.0025-0.04505-0.01689-0.0638l-0.31055-0.40532c-0.01434-0.01875-0.03562-0.02998-0.05723-0.03284-0.02161-0.0029-0.0426 0.0047-0.06286 0.01689l-0.54042 0.32463a3.7607 3.7607 0 0 0-0.88101-0.67272l0.14824-0.61925c-0.0461-0.11144 0.0084-0.04554 0-0.06568s-0.02417-0.03692-0.04597-0.04597l-0.47193-0.19609c-0.02182-9e-3 -0.04553-0.0084-0.06568 0-0.02014 0.0084-0.03451 0.02532-0.04597 0.04597l-0.30868 0.55637a3.7607 3.7607 0 0 0-1.0302-0.1473 3.7607 3.7607 0 0 0-0.06849 0.0028l-0.1792-0.60705c-0.09565-0.07346-0.01548-0.04395-0.03284-0.05723-0.01725-0.01327-0.03944-0.01904-0.06286-0.01595zm0.34339 1.4711a2.9677 2.9677 0 0 1 2.9676 2.9676 2.9677 2.9677 0 0 1-2.9676 2.9667 2.9677 2.9677 0 0 1-2.9676-2.9667 2.9677 2.9677 0 0 1 2.9676-2.9676zm9.6301 3.479c-0.41173-0.0021-0.44423 0.34321-0.66426 1.1728-0.28614-0.01018-0.57299-0.0037-0.85848 0.01876-0.27954-0.91406-0.37637-1.2325-0.7318-1.1493-0.40361 0.09448-0.35141 0.43968-0.37342 1.3107-0.27316 0.0631-0.54249 0.14148-0.80689 0.23456-0.49066-0.82158-0.66162-1.1079-0.98703-0.94197-0.37414 0.19077-0.23308 0.51491-0.04222 1.3914-0.24689 0.12898-0.48576 0.27142-0.71682 0.4269-0.71955-0.64865-0.96743-0.87395-1.231-0.61829-0.29733 0.28846-0.07496 0.55829 0.35372 1.3154-0.20767 0.19202-0.40452 0.39571-0.58923 0.60984-0.85382-0.45652-1.1473-0.61637-1.3417-0.30492-0.22054 0.35345 0.06293 0.56045 0.66801 1.2009-0.14794 0.23273-0.28297 0.47305-0.40438 0.72056-0.85142-0.18185-1.1744-0.31303-1.3604 0.05723-0.16451 0.32747 0.12328 0.49565 0.95417 0.98515-0.08444 0.26811-0.15357 0.54134-0.20735 0.81721-0.86122 0.04403-1.2067 0.0031-1.29 0.4072-0.07337 0.35557 0.24638 0.446 1.1559 0.69803-0.01089 0.27681-0.0068 0.55406 0.01313 0.83033-0.81371 0.28491-1.1569 0.34319-1.1231 0.75433 0.01586 0.19229 0.12031 0.2808 0.35465 0.31994a10.781 10.781 0 0 0 1.9825-0.24394c-0.24177-1.1035-0.20204-2.3329 0.38186-3.843 0.13152-0.34011 0.28788-0.63376 0.46536-0.86319a6.5028 6.5028 0 0 1 3.2913-2.6871c0.18013-0.09147 0.42848-0.16206 0.70365-0.21673a6.5028 6.5028 0 0 1 0.59951-0.12291 6.5028 6.5028 0 0 1 0.64644-0.06192 6.5028 6.5028 0 0 1 1.9478 0.21016 10.781 10.781 0 0 0 0.2308-0.99174c-0.18968-0.0519-0.38091-0.09632-0.57419-0.13323-0.05985-0.96656-0.07948-1.3013-0.4466-1.3032z" fill="#fff" opacity=".25" stroke-width=".48038"/>
  <path d="m15.987 6.625c-0.01157 4.57e-4 -0.02343 0.0015-0.03571 0.00277-0.44299 0.044953-0.43519 0.41999-0.57862 1.344a8.085 8.062 28.59 0 0-0.90272 0.12085c-0.41544-0.954-0.55687-1.2838-0.92836-1.1508-0.4216 0.1509-0.32022 0.51427-0.23712 1.4575a8.085 8.062 28.59 0 0-0.82214 0.33783c-0.59658-0.72084-0.78098-1.0469-1.1847-0.85875-0.35704 0.16635-0.22764 0.50105 0.14648 1.4676a8.085 8.062 28.59 0 0-0.71962 0.54932c-0.75548-0.537-1.0189-0.80142-1.3586-0.51638-0.29893 0.25082-0.089691 0.53981 0.50902 1.3586a8.085 8.062 28.59 0 0-0.54291 0.70955c-0.876-0.30227-1.2037-0.48178-1.4493-0.11261-0.21328 0.32064 0.063038 0.54038 0.84412 1.1389a8.085 8.062 28.59 0 0-0.35797 0.87984c-0.90708-0.10072-1.2649-0.19997-1.4218 0.21149-0.13973 0.36645 0.18525 0.51689 1.1179 0.94575a8.085 8.062 28.59 0 0-0.12268 0.93384c-0.89344 0.12203-1.2626 0.11711-1.3138 0.55205-0.046036 0.39101 0.30653 0.45505 1.3248 0.64453a8.085 8.062 28.59 0 0 0.11719 0.85509c-0.86016 0.41474-1.2269 0.51206-1.1408 0.95306 0.07515 0.3847 0.43126 0.33941 1.4483 0.21057a8.085 8.062 28.59 0 0 0.3479 0.84412c-0.73875 0.62513-1.0726 0.80958-0.87797 1.2177 0.17044 0.35738 0.50423 0.22069 1.4795-0.16663l-0.090637-0.16113a8.085 8.062 28.59 0 0 0.61983 0.8258c-0.52223 0.77822-0.78347 1.0497-0.48797 1.3834 0.25579 0.2889 0.53967 0.07685 1.322-0.52734a8.085 8.062 28.59 0 0 0.73148 0.56395c-0.36754 0.98241-0.4972 1.3182-0.13642 1.4813 0.40503 0.18318 0.588-0.14515 1.1737-0.86977a8.085 8.062 28.59 0 0 0.85969 0.35706c-0.13407 0.99342-0.1781 1.3462 0.20233 1.4236 0.43691 0.08901 0.53972-0.27225 0.95306-1.1142a8.085 8.062 28.59 0 0 0.89812 0.12451c0.14776 1.0082 0.20072 1.3619 0.59053 1.3312 0.44257-0.03486 0.44524-0.40941 0.60792-1.3238a8.085 8.062 28.59 0 0 0.93202-0.12085c0.38034 0.90511 0.52326 1.2282 0.88716 1.1032 0.41447-0.14227 0.33104-0.50292 0.26092-1.4026a8.085 8.062 28.59 0 0 0.82031-0.32959c0.65826 0.76945 0.89137 1.0388 1.2039 0.80569 0.34907-0.26029 0.16415-0.57717-0.17304-1.4008a8.085 8.062 28.59 0 0 0.75806-0.57497c0.82317 0.58275 1.1157 0.78717 1.3614 0.48525 0.27527-0.33829 0.01664-0.60047-0.51361-1.3193a8.085 8.062 28.59 0 0 0.58045-0.76355c0.89873 0.3728 1.2277 0.49988 1.398 0.15655 0.19483-0.39286-0.11832-0.58941-0.80198-1.181a8.085 8.062 28.59 0 0 0.34241-0.83953c0.99122 0.10713 1.3445 0.13968 1.4117-0.2417 0.07638-0.43311-0.28063-0.53227-1.1087-0.91003a8.085 8.062 28.59 0 0 0.11993-0.91003c1.004-0.15618 1.3571-0.21348 1.323-0.60244-0.03878-0.44173-0.41338-0.44008-1.3275-0.59419a8.085 8.062 28.59 0 0-0.12268-0.90361c0.92288-0.42471 1.247-0.57544 1.1078-0.94027-0.15641-0.40983-0.51422-0.31303-1.4136-0.2124a8.085 8.062 28.59 0 0-0.35706-0.85786c0.81038-0.62672 1.0938-0.84661 0.87525-1.1719-0.25155-0.37438-0.57933-0.18328-1.4887 0.13275a8.085 8.062 28.59 0 0-0.55205-0.71503c0.59395-0.85458 0.80081-1.1481 0.49256-1.3943-0.34574-0.2762-0.60352-0.006839-1.3422 0.54567a8.085 8.062 28.59 0 0-0.73608-0.55664c0.37351-0.95616 0.50433-1.2906 0.15014-1.4575h-9.37e-4c-0.40271-0.18859-0.58945 0.13784-1.1884 0.85692a8.085 8.062 28.59 0 0-0.83681-0.34058c0.13415-1.0196 0.18079-1.375-0.20416-1.452-0.44262-0.088622-0.53962 0.27924-0.96314 1.1453a8.085 8.062 28.59 0 0-0.88988-0.11902c-0.16322-0.9623-0.22427-1.3341-0.55481-1.344-0.01102-3.286e-4 -0.0223-4.57e-4 -0.03388 0zm2.0334 2.8335c0.28312-3.103e-4 0.69324 0.167 1.1197 0.40375 0.78258 0.43442 1.6225 1.1047 1.8466 1.4072 1.0723 1.1478 1.8547 2.5717 1.8997 4.8595 0.0085 0.42616-0.03187 0.8123-0.13184 1.1279-0.10871 0.32981-0.32858 0.65911-0.67477 0.81938-0.28702 0.12068-0.60614 0.20637-0.90272 0.06958-0.92405-0.42392-2.0864-1.1567-3.0185-1.7084-0.15683-0.09287-0.27087-0.24349-0.28747-0.31952-3.2e-4 -6.09e-4 -6.1e-4 -0.0012-9.38e-4 -0.0018a1.875 1.875 0 0 0 0.0046-0.11627 1.875 1.875 0 0 0-1.0757-1.6965c-0.03262-0.06332-0.05818-0.13933-0.07416-0.23895-0.03793-1.1213-0.04571-2.2551-0.01648-3.36 0.0016-0.76669 0.55345-1.2179 1.2314-1.2405v9.375e-4c0.01765-0.00244 0.0351-0.00472 0.05401-0.00549 0.0089-3.614e-4 0.01742-8.906e-4 0.02655-9.375e-4zm-4.0118 0.042113c0.0146-2.597e-4 0.02914-1.78e-5 0.04394 0 0.20727 2.437e-4 0.41914 0.042492 0.60792 0.14374 0.0411 0.022008 0.08033 0.046284 0.11902 0.074156 0.24602 0.1908 0.47719 0.42613 0.50353 0.75164 0.08405 1.013 0.01685 2.3851-0.0064 3.468-0.0035 0.16468-0.06603 0.32116-0.12085 0.38819a1.875 1.875 0 0 0-1.0309 1.6736 1.875 1.875 0 0 0 0.0037 0.08881c-0.03888 0.08718-0.10145 0.17161-0.21607 0.26276-0.95859 0.58336-1.9443 1.1467-2.9214 1.6635-0.669 0.37484-1.332 0.11618-1.6846-0.46326-0.45952-0.60553-0.16815-2.9906 0.077822-3.5403 0.47405-1.4975 1.3304-2.8788 3.3023-4.0411 0.36725-0.21647 0.72412-0.36979 1.0483-0.43762 0.07454-0.014742 0.15152-0.024984 0.2298-0.029297v-9.375e-4c0.01468-7.969e-4 0.02934-0.00159 0.04395-0.00183zm1.9912 5.5617a0.9375 0.9375 0 0 1 0.9375 0.9375 0.9375 0.9375 0 0 1-0.9375 0.9375 0.9375 0.9375 0 0 1-0.9375-0.9375 0.9375 0.9375 0 0 1 0.9375-0.9375zm-1.1069 2.5205c0.0061-2.14e-4 0.01168-1.5e-5 0.0174 0 0.03051 7.8e-5 0.05569 3e-3 0.07416 0.0092 0.01032 5.16e-4 0.02077 0.0019 0.03113 0.0028a1.875 1.875 0 0 0 0.98419 0.28015 1.875 1.875 0 0 0 0.98147-0.27832c0.01841-0.0025 0.03663-0.0048 0.05585-0.0055 0.08533-0.0032 0.17966 0.01272 0.29846 0.05951 0.49228 0.26918 0.9832 0.54698 1.4685 0.83039 0.48525 0.28343 0.96473 0.57216 1.4328 0.86611 0.65916 0.39179 0.76598 1.096 0.44037 1.691-0.29473 0.70069-2.5056 1.6419-3.1045 1.7038-1.5341 0.3383-3.1582 0.28683-5.1506-0.83953-0.37112-0.20977-0.68377-0.44174-0.90455-0.6885-0.22855-0.26149-0.39991-0.61838-0.36163-0.99792 0.04226-0.30842 0.13133-0.62648 0.40009-0.81206 0.83545-0.57933 2.058-1.2055 3.0075-1.7267 0.11234-0.06167 0.23884-0.09109 0.32959-0.0943z" fill="#fff" stroke-width=".46875"/>
 </g>
</svg>
