<?xml version="1.0" encoding="UTF-8"?>
<svg width="32" height="32" version="1.1" viewBox="0 0 32 32" xmlns="http://www.w3.org/2000/svg" xmlns:cc="http://creativecommons.org/ns#" xmlns:dc="http://purl.org/dc/elements/1.1/" xmlns:rdf="http://www.w3.org/1999/02/22-rdf-syntax-ns#">
 <metadata>
  <rdf:RDF>
   <cc:Work rdf:about="">
    <dc:format>image/svg+xml</dc:format>
    <dc:type rdf:resource="http://purl.org/dc/dcmitype/StillImage"/>
   </cc:Work>
  </rdf:RDF>
 </metadata>
 <rect x="1" y=".99997" width="30" height="30" rx="8" ry="8" fill="#ae2fdd"/>
 <path d="m25.529 9.2719c-0.19441-0.73623-0.94757-1.1758-1.6838-0.98206-0.73749 0.19378-1.1771 0.94757-0.98332 1.6844 0.09156 0.34554 0.30603 0.62461 0.5851 0.80521-0.0671 1.0122-0.36874 2.2451-1.2599 3.3231-2.5116-2.8653-3.572-4.0349-4.0631-4.5083 0.26213-0.16619 0.4835-0.26966 0.62962-0.32798 0.33174 0.27593 0.7864 0.39445 1.2354 0.27593 0.7356-0.19378 1.1758-0.9482 0.98143-1.6838-0.19503-0.73686-0.94945-1.1771-1.6851-0.98394-0.55249 0.14549-0.93754 0.60579-1.0147 1.137-1.0385 0.44086-4.5836 2.4031-4.0549 8.5175-3.8825 0.11288-5.9243 1.1407-6.8531 1.8117-0.23893-0.07525-0.50044-0.08717-0.76069-0.01881-0.73623 0.19566-1.1758 0.9482-0.98269 1.6857 0.19441 0.73686 0.9482 1.1771 1.6844 0.98143 0.60705-0.15929 1.0122-0.70049 1.0266-1.2975l4.0587 4.2606c-0.09532 0.05895-0.18876 0.11351-0.27969 0.16117-0.32359-0.2358-0.74627-0.32924-1.1639-0.22137-0.73623 0.1944-1.1765 0.94882-0.98269 1.6857 0.19441 0.73686 0.9482 1.1771 1.6851 0.98206 0.57444-0.15051 0.96638-0.64342 1.0203-1.2028 1.8989-0.94318 3.4711-3.2597 3.0609-7.4846 1.2185-0.0056 2.3416-0.14298 3.3507-0.40825 1.5088-0.39696 2.7631-1.0761 3.7131-2.025 1.1984-1.1984 1.8826-2.7681 1.9992-4.5723 0.58447-0.28095 0.90869-0.94443 0.73686-1.5948zm-12.599 14.266-4.2349-4.445c0.27154-0.14737 0.6083-0.3054 1.0235-0.45717l3.9671 3.9527c-0.22702 0.39069-0.48727 0.70174-0.75567 0.94945zm1.0667-1.5922-3.5539-3.5413c0.54622-0.15302 1.1928-0.2891 1.9503-0.38379l2.0331 1.9403c-0.05958 0.79079-0.21447 1.4449-0.42957 1.9848zm-0.71993-4.0173c0.34617-0.02697 0.71178-0.04515 1.0981-0.05393 0.04578 0.41766 0.06961 0.80835 0.07588 1.174zm2.2952-1.4041c-0.08842-0.92813-0.07463-1.744 0.01191-2.4583l1.9848 2.3278c-0.62461 0.09031-1.2919 0.1342-1.9967 0.13044zm2.7662-0.26778-2.605-3.054c0.13922-0.60391 0.333-1.1207 0.55939-1.5621 0.84598 0.9137 2.4175 2.6866 3.6611 4.1013-0.49417 0.21573-1.0341 0.38756-1.6154 0.51486zm2.2401-0.82528c-2.2049-2.5154-3.33-3.7702-3.9301-4.3942 0.30039-0.44086 0.62523-0.78389 0.93503-1.0454 0.53117 0.52489 2.5925 2.8452 4.1402 4.6062-0.33551 0.31481-0.71993 0.59325-1.1451 0.83343z" fill="#fff" opacity=".9" stroke-width=".62711"/>
</svg>
