<?xml version="1.0" encoding="UTF-8"?>
<svg width="32" height="32" version="1.1" viewBox="0 0 32 32" xmlns="http://www.w3.org/2000/svg" xmlns:cc="http://creativecommons.org/ns#" xmlns:dc="http://purl.org/dc/elements/1.1/" xmlns:rdf="http://www.w3.org/1999/02/22-rdf-syntax-ns#" xmlns:xlink="http://www.w3.org/1999/xlink">
 <metadata>
  <rdf:RDF>
   <cc:Work rdf:about="">
    <dc:format>image/svg+xml</dc:format>
    <dc:type rdf:resource="http://purl.org/dc/dcmitype/StillImage"/>
   </cc:Work>
  </rdf:RDF>
 </metadata>
 <defs>
  <linearGradient id="d" x1="399.57" x2="399.57" y1="545.8" y2="517.8" gradientTransform="translate(-384.57,-515.8)" gradientUnits="userSpaceOnUse">
   <stop stop-color="#3889e9" offset="0"/>
   <stop stop-color="#5ea5fb" offset="1"/>
  </linearGradient>
  <linearGradient id="linearGradient880" x1="282.37" x2="281.84" y1="644.85" y2="10.592" gradientTransform="matrix(.018771 -.019375 .019375 .018771 4.6204 16.516)" gradientUnits="userSpaceOnUse">
   <stop stop-color="#e3e3e3" offset="0"/>
   <stop stop-color="#fffcff" offset="1"/>
  </linearGradient>
 </defs>
 <rect x="1" y=".99997" width="30" height="30" rx="8" ry="8" fill="#57626b"/>
 <circle cx="16" cy="16" r="0" fill="url(#d)"/>
 <circle cx="16.075" cy="16.058" r="15.646" fill-opacity="0" stroke-width="1.1176"/>
 <path d="m15.17 5.6269-9.612 9.9216c-0.5179 0.53458-0.50437 1.3878 0.030205 1.9057l9.9216 9.612c0.53458 0.5179 1.3878 0.50437 1.9057-0.03021l9.612-9.9216c0.5179-0.53458 0.50437-1.3878-0.0302-1.9057l-9.9216-9.612c-0.53458-0.5179-1.3878-0.50437-1.9057 0.030205zm-8.886 10.625c0.12948-0.13365 0.34279-0.13703 0.47644-0.0076 0.13365 0.12948 0.13703 0.34279 0.00755 0.47644s-0.34279 0.13703-0.47644 0.0076c-0.13365-0.12948-0.13703-0.34279-0.00755-0.47644zm10.406 10.081c-0.12948 0.13365-0.34279 0.13703-0.47644 0.0076-0.13365-0.12948-0.13703-0.34279-0.0076-0.47644 0.12948-0.13365 0.34279-0.13703 0.47644-0.0076 0.13365 0.12948 0.13703 0.34279 0.0076 0.47644zm4.4188-5.3359c-2.5766 2.6596-6.8215 2.7269-9.4811 0.15027-2.6596-2.5766-2.7269-6.8215-0.15027-9.4811 2.5766-2.6596 6.8215-2.7269 9.4811-0.15027 2.6596 2.5766 2.7269 6.8215 0.15027 9.4811zm5.1932-4.5857c-0.12948 0.13365-0.34279 0.13703-0.47644 0.0076-0.13365-0.12948-0.13703-0.34279-0.0076-0.47644 0.12948-0.13365 0.34279-0.13703 0.47644-0.0076 0.13365 0.12948 0.13703 0.34279 0.0076 0.47644zm-9.9216-9.612c-0.12948 0.13365-0.34279 0.13703-0.47644 0.00755s-0.13703-0.34279-0.0076-0.47644c0.12948-0.13365 0.34279-0.13703 0.47644-0.00755s0.13703 0.34279 0.0076 0.47644z" fill="#fff" stroke-width=".026976"/>
 <path d="m19.53 11.243c-0.13978-0.08892-0.27138-0.11947-0.43604-0.10114-1.3162 0.14616-2.2605 1.2024-2.8329 3.1686-0.16708 0.0026-0.3278 0.02502-0.48929 0.06812 0.06422-1.6752 0.51814-2.8192 1.3618-3.4321 0.24869-0.18068 0.14539-0.57271-0.16002-0.60736-0.67794-0.07697-1.3238-0.04276-1.9898 0.10535-0.16174 0.03599-0.27635 0.10746-0.37986 0.23682-0.8273 1.034-0.74818 2.4486 0.23743 4.2437-0.11628 0.12003-0.21412 0.24948-0.29781 0.39413-1.1391-1.2299-1.6271-2.3599-1.4638-3.3895 0.04811-0.3036-0.30215-0.50775-0.54264-0.31635-0.53381 0.42496-0.96629 0.9058-1.3325 1.4815-0.08892 0.13978-0.11947 0.27138-0.10114 0.43604 0.14616 1.3162 1.2024 2.2605 3.1686 2.8329 0.0026 0.16708 0.02502 0.3278 0.06812 0.48929-1.6752-0.06422-2.8192-0.51814-3.4321-1.3618-0.18068-0.24869-0.57271-0.14539-0.60738 0.16-0.07697 0.67794-0.04276 1.3238 0.10535 1.9898 0.03599 0.16174 0.10746 0.27635 0.23682 0.37986 1.034 0.8273 2.4486 0.74818 4.2437-0.23743 0.12003 0.11628 0.24948 0.21412 0.39413 0.29781-1.2299 1.1391-2.3599 1.6271-3.3895 1.4638-0.3036-0.04811-0.50775 0.30215-0.31635 0.54264 0.42496 0.53381 0.9058 0.96629 1.4815 1.3325 0.13978 0.08892 0.27138 0.11948 0.43604 0.10114 1.3162-0.14616 2.2605-1.2024 2.8329-3.1686 0.16708-0.0026 0.3278-0.02502 0.48929-0.06812-0.06422 1.6752-0.51814 2.8192-1.3618 3.4321-0.24869 0.18068-0.14539 0.57271 0.16002 0.60736 0.67794 0.07697 1.3238 0.04276 1.9898-0.10535 0.16174-0.03599 0.27635-0.10746 0.37986-0.23682 0.8273-1.034 0.74818-2.4486-0.23743-4.2437 0.11628-0.12003 0.21412-0.24948 0.29779-0.39415 1.1391 1.2299 1.6271 2.3599 1.4638 3.3895-0.04811 0.3036 0.30215 0.50775 0.54264 0.31635 0.53381-0.42496 0.96629-0.9058 1.3325-1.4815 0.08892-0.13978 0.11947-0.27138 0.10114-0.43604-0.14616-1.3162-1.2024-2.2605-3.1686-2.8329-0.0026-0.16708-0.02502-0.3278-0.06812-0.48929 1.6752 0.06422 2.8192 0.51814 3.4321 1.3618 0.18068 0.24869 0.57271 0.14539 0.60736-0.16002 0.07697-0.67794 0.04276-1.3238-0.10535-1.9898-0.03599-0.16174-0.10746-0.27635-0.23682-0.37986-1.034-0.8273-2.4486-0.74818-4.2437 0.23743-0.12003-0.11628-0.24948-0.21412-0.39413-0.29781 1.2299-1.1391 2.3599-1.6271 3.3895-1.4638 0.3036 0.04811 0.50775-0.30215 0.31635-0.54264-0.42494-0.53379-0.90574-0.96623-1.4815-1.3324zm-2.0272 6.261c-0.64738 0.66823-1.7139 0.68513-2.3822 0.03776-0.66823-0.64738-0.68513-1.7139-0.03776-2.3822 0.64738-0.66823 1.7139-0.68513 2.3822-0.03776 0.66823 0.64738 0.68513 1.7139 0.03776 2.3822z" fill="url(#linearGradient880)" stroke-width=".026976"/>
</svg>
