<?xml version="1.0" encoding="UTF-8"?>
<svg width="32" height="32" version="1.1" viewBox="0 0 32 32" xmlns="http://www.w3.org/2000/svg" xmlns:cc="http://creativecommons.org/ns#" xmlns:dc="http://purl.org/dc/elements/1.1/" xmlns:rdf="http://www.w3.org/1999/02/22-rdf-syntax-ns#" xmlns:xlink="http://www.w3.org/1999/xlink">
 <metadata>
  <rdf:RDF>
   <cc:Work rdf:about="">
    <dc:format>image/svg+xml</dc:format>
    <dc:type rdf:resource="http://purl.org/dc/dcmitype/StillImage"/>
   </cc:Work>
  </rdf:RDF>
 </metadata>
 <rect x="1" y=".99997" width="30" height="30" rx="8" ry="8" fill="#f2f2f2"/>
 <g stroke-linecap="square" stroke-width=".1">
  <path d="m4 14-0.94141 7.5254c-0.038443 0.15529-0.058114 0.31463-0.058594 0.47461 0 1.1046 0.89543 2 2 2 0.59429-5.5e-4 1.1576-0.26536 1.5371-0.72266l0.00195 0.0039 5.4609-6.2812zm24 0-8 3 5.4609 6.2812 2e-3 -0.0039c0.37951 0.45729 0.94277 0.7221 1.5371 0.72265 1.1046 0 2-0.89543 2-2-4.79e-4 -0.15998-0.02015-0.31932-0.05859-0.47461z" fill="#303136"/>
  <path d="m10 8c-3.3137 0-6 2.6863-6 6s2.6863 6 6 6c1.1777-0.0012 2.3291-0.34898 3.3105-1h5.3789c0.98145 0.65102 2.1328 0.99881 3.3105 1 3.3137 0 6-2.6863 6-6s-2.6863-6-6-6h-7z" fill="#3f4346"/>
  <circle cx="9" cy="14" r="0" fill="#e3dbdb"/>
 </g>
 <g stroke-linecap="square" stroke-width=".1">
  <path d="m23 11a1 1 0 0 0-1 1 1 1 0 0 0 1 1 1 1 0 0 0 1-1 1 1 0 0 0-1-1z" fill="#27ae60"/>
  <path d="m21 13a1 1 0 0 0-1 1 1 1 0 0 0 1 1 1 1 0 0 0 1-1 1 1 0 0 0-1-1z" fill="#f33777"/>
  <path d="m25 13a1 1 0 0 0-1 1 1 1 0 0 0 1 1 1 1 0 0 0 1-1 1 1 0 0 0-1-1z" fill="#c0392b"/>
  <path d="m23 15a1 1 0 0 0-1 1 1 1 0 0 0 1 1 1 1 0 0 0 1-1 1 1 0 0 0-1-1z" fill="#2980b9"/>
 </g>
 <g stroke-linecap="square">
  <path d="m8 11v2h-2v2h2v2h2v-2h2v-2h-2v-2z" fill="#fff" stroke-width=".1"/>
  <path d="m13 17a2 2 0 0 0-2 2 2 2 0 0 0 2 2 2 2 0 0 0 2-2 2 2 0 0 0-2-2zm6 0a2 2 0 0 0-2 2 2 2 0 0 0 2 2 2 2 0 0 0 2-2 2 2 0 0 0-2-2z" fill="#303136" stroke-width=".033333"/>
  <path d="m13 18a0.99999 0.99999 0 0 0-1 1 0.99999 0.99999 0 0 0 1 1 0.99999 0.99999 0 0 0 1-1 0.99999 0.99999 0 0 0-1-1zm6 0a1 1 0 0 0-1 1 1 1 0 0 0 1 1 1 1 0 0 0 1-1 1 1 0 0 0-1-1z" fill="#fff" stroke-width=".1"/>
 </g>
</svg>
