<?xml version="1.0" encoding="UTF-8"?>
<svg width="32" height="32" version="1.1" viewBox="0 0 8.4665 8.4665" xmlns="http://www.w3.org/2000/svg" xmlns:cc="http://creativecommons.org/ns#" xmlns:dc="http://purl.org/dc/elements/1.1/" xmlns:rdf="http://www.w3.org/1999/02/22-rdf-syntax-ns#">
 <metadata>
  <rdf:RDF>
   <cc:Work rdf:about="">
    <dc:format>image/svg+xml</dc:format>
    <dc:type rdf:resource="http://purl.org/dc/dcmitype/StillImage"/>
   </cc:Work>
  </rdf:RDF>
 </metadata>
 <rect x=".26458" y=".26457" width="7.9373" height="7.9374" rx="2.1166" ry="2.1166" fill="#4785f1"/>
 <path d="m1.583 2.6357c-0.15222 0-0.24945 0.13667-0.18556 0.27445l1.5117 3.2728 0.13611 0.29445c0.062778 0.13667 0.17 0.27111 0.32 0.27389 0.15-0.0027778 0.25722-0.13722 0.32-0.27389l0.76723-1.6611 0.60667-1.3111c0.042222-0.092223 0.14056-0.18333 0.24222-0.18333h0.64223c0.011667 5.556e-4 0.022778 0.00222 0.033334 0.00444 0.00278 0 0.00556 0.00222 0.00778 0.00333a0.12333 0.12333 0 0 1 0.077776 0.17556l-0.48 1.04-0.060556 0.13-0.24 0.52-0.060556 0.13-0.030556 0.066667-0.029445 0.063334c-0.011111 0.027778-0.022778 0.061667-0.060001 0.061112-0.037778 5.556e-4 -0.05-0.036667-0.06-0.061112l-0.24-0.52-0.060556-0.13-0.028889-0.062778-0.36667 0.79112 0.43611 0.94445c0.063334 0.13667 0.17056 0.27111 0.32 0.27334 0.15-0.0027778 0.25722-0.13667 0.32056-0.27389l0.13556-0.29445 1.5117-3.2722c0.063889-0.13833-0.033334-0.275-0.18556-0.275h-1.92c-0.15222 0-0.3 0.13667-0.36334 0.27445l-0.88056 1.9061h0.00111l-0.055556 0.11889-0.059445 0.13-0.06 0.13-0.060556 0.13-0.060001 0.13c-0.01 0.024445-0.022222 0.061667-0.060001 0.061112-0.036667 5.556e-4 -0.048889-0.033334-0.06-0.061112l-0.028888-0.062778-0.031111-0.066667-0.06-0.13056-0.060556-0.13-0.24-0.52-0.48056-1.04c-0.042778-0.092223 0.022222-0.18333 0.12389-0.18333h0.63834c0.10111 0 0.2 0.091112 0.24222 0.18333l0.37056 0.80223 0.36723-0.79223-0.27889-0.60556c-0.063889-0.13722-0.21111-0.27389-0.36389-0.27389h-0.68723z" fill="#fff" style="paint-order:stroke markers fill"/>
</svg>
