<svg xmlns="http://www.w3.org/2000/svg" width="72" height="68"><g transform="matrix(2 0 0 2 -202 -1170.724)"><path d="M21 585.362h36v34H21z" style="fill:none" transform="translate(80)"/><circle cx="119" cy="602.362" r="11" style="opacity:.05;fill:#fff"/><path d="M115.465 598.327a.499.499 0 0 0-.353.854l3.18 3.181-3.18 3.182a.499.499 0 1 0 .706.707l3.182-3.182 3.182 3.182a.499.499 0 1 0 .707-.707l-3.182-3.182 3.182-3.181a.499.499 0 1 0-.707-.708L119 601.655l-3.182-3.182a.5.5 0 0 0-.353-.146z" style="opacity:.3;fill:#fff;paint-order:stroke fill markers"/></g></svg>