<svg xmlns="http://www.w3.org/2000/svg" width="72" height="68"><g transform="matrix(2 0 0 2 -122 -1252.724)"><path d="M21 585.362h36v34H21z" style="fill:none" transform="translate(40 41)"/><circle cx="79" cy="643.362" r="11" style="opacity:.15;fill:#fff"/><path d="M77 639.362c-1.108 0-2 .892-2 2v4c0 1.108.892 2 2 2h4c1.108 0 2-.892 2-2v-4c0-1.108-.892-2-2-2zm0 1h4c.554 0 1 .446 1 1v4c0 .554-.446 1-1 1h-4c-.554 0-1-.446-1-1v-4c0-.554.446-1 1-1" style="opacity:1;fill:#fff;paint-order:stroke fill markers"/></g></svg>