<svg xmlns="http://www.w3.org/2000/svg" width="36" height="34"><g transform="translate(-101 -626.362)"><path d="M101 626.362h36v34h-36z" style="fill:none"/><circle cx="119" cy="643.362" r="11" style="opacity:.05;fill:#000"/><path fill="#363636" d="M117 639.362c-1.108 0-2 .892-2 2v4c0 1.108.892 2 2 2h4c1.108 0 2-.892 2-2v-4c0-1.108-.892-2-2-2zm0 1h4c.554 0 1 .446 1 1v4c0 .554-.446 1-1 1h-4c-.554 0-1-.446-1-1v-4c0-.554.446-1 1-1" style="opacity:.26;fill:#000;paint-order:stroke fill markers"/></g></svg>