<svg xmlns="http://www.w3.org/2000/svg" width="36" height="34"><g transform="translate(-291 -565.362)"><path d="M21 585.362h36v34H21z" style="fill:none" transform="translate(270 -20)"/><circle cx="309" cy="582.362" r="11" style="opacity:.25;fill:#000;fill-opacity:1;stroke-width:11;stroke-linecap:round;stroke-linejoin:round;paint-order:stroke fill markers"/><path d="M304 581.362a1 1 0 0 0-1 1 1 1 0 0 0 1 1 1 1 0 0 0 1-1 1 1 0 0 0-1-1m5 0a1 1 0 0 0-1 1 1 1 0 0 0 1 1 1 1 0 0 0 1-1 1 1 0 0 0-1-1m5 0a1 1 0 0 0-1 1 1 1 0 0 0 1 1 1 1 0 0 0 1-1 1 1 0 0 0-1-1" style="opacity:.87;fill:#000"/></g></svg>