<?xml version="1.0" encoding="UTF-8" standalone="no"?>
<svg
   width="32"
   height="32"
   viewBox="0 0 32 32"
   version="1.1"
   id="svg2"
   sodipodi:docname="max_toggled-active.svg"
   inkscape:version="1.2.2 (b0a8486541, 2022-12-01)"
   xmlns:inkscape="http://www.inkscape.org/namespaces/inkscape"
   xmlns:sodipodi="http://sodipodi.sourceforge.net/DTD/sodipodi-0.dtd"
   xmlns="http://www.w3.org/2000/svg"
   xmlns:svg="http://www.w3.org/2000/svg">
  <defs
     id="defs2" />
  <sodipodi:namedview
     id="namedview2"
     pagecolor="#ffffff"
     bordercolor="#000000"
     borderopacity="0.25"
     inkscape:showpageshadow="2"
     inkscape:pageopacity="0.0"
     inkscape:pagecheckerboard="0"
     inkscape:deskcolor="#d1d1d1"
     inkscape:zoom="13.700194"
     inkscape:cx="9.7443876"
     inkscape:cy="18.795354"
     inkscape:window-width="1600"
     inkscape:window-height="831"
     inkscape:window-x="0"
     inkscape:window-y="37"
     inkscape:window-maximized="1"
     inkscape:current-layer="svg2"
     showgrid="false" />
  <g
     fill="#ffffff"
     id="g2"
     style="fill:#000000;fill-opacity:1">
    <circle
       cx="16"
       cy="16"
       r="16"
       opacity="0.2"
       id="circle2"
       style="stroke-width:1.33328;opacity:0.08;fill:#000000;fill-opacity:1" />
  </g>
  <g
     transform="matrix(1.5,0,0,1.5,-42.5,-1072.043)"
     id="g12">
    <g
       style="opacity:0.6"
       id="g10">
      <path
         d="m -26.25,723.362 c -1.108,0 -2,0.892 -2,2 v 2 c 0,1.108 0.892,2 2,2 h 2 c 1.108,0 2,-0.892 2,-2 v -2 c 0,-1.108 -0.892,-2 -2,-2 z m 0,1 h 2 c 0.554,0 1,0.446 1,1 v 2 c 0,0.554 -0.446,1 -1,1 h -2 c -0.554,0 -1,-0.446 -1,-1 v -2 c 0,-0.554 0.446,-1 1,-1"
         style="opacity:1;fill:#000000;paint-order:stroke fill markers"
         transform="translate(63.25)"
         id="path6" />
      <path
         d="m -24.25,721.362 c -1.108,0 -2,0.892 -2,2 h 1 c 0,-0.554 0.446,-1 1,-1 h 2 c 0.554,0 1,0.446 1,1 v 2 c 0,0.554 -0.446,1 -1,1 v 1 c 1.108,0 2,-0.892 2,-2 v -2 c 0,-1.108 -0.892,-2 -2,-2 z"
         opacity=".35"
         style="opacity:0.35;fill:#000000;paint-order:stroke fill markers"
         transform="translate(63.25)"
         id="path8" />
    </g>
  </g>
</svg>
