<?xml version="1.0" encoding="UTF-8" standalone="no"?>
<svg
   width="32"
   height="32"
   viewBox="0 0 32 32"
   version="1.1"
   id="svg2"
   sodipodi:docname="max_toggled-active.svg"
   inkscape:version="1.2.2 (b0a8486541, 2022-12-01)"
   xmlns:inkscape="http://www.inkscape.org/namespaces/inkscape"
   xmlns:sodipodi="http://sodipodi.sourceforge.net/DTD/sodipodi-0.dtd"
   xmlns="http://www.w3.org/2000/svg"
   xmlns:svg="http://www.w3.org/2000/svg">
  <defs
     id="defs2" />
  <sodipodi:namedview
     id="namedview2"
     pagecolor="#ffffff"
     bordercolor="#000000"
     borderopacity="0.25"
     inkscape:showpageshadow="2"
     inkscape:pageopacity="0.0"
     inkscape:pagecheckerboard="0"
     inkscape:deskcolor="#d1d1d1"
     inkscape:zoom="13.700194"
     inkscape:cx="9.7808834"
     inkscape:cy="18.795354"
     inkscape:window-width="1600"
     inkscape:window-height="779"
     inkscape:window-x="0"
     inkscape:window-y="71"
     inkscape:window-maximized="1"
     inkscape:current-layer="svg2"
     showgrid="false" />
  <g
     fill="#ffffff"
     id="g2"
     style="fill:#000000;fill-opacity:1">
    <circle
       cx="16"
       cy="16"
       r="16"
       opacity="0.2"
       id="circle2"
       style="stroke-width:1.33328;opacity:0.08;fill:#000000;fill-opacity:1" />
  </g>
  <path
     d="m 13,13 c -1.662,0 -3,1.338 -3,3 v 3 c 0,1.662 1.338,3 3,3 h 3 c 1.662,0 3,-1.338 3,-3 v -3 c 0,-1.662 -1.338,-3 -3,-3 z m 0,1.5 h 3 c 0.831,0 1.5,0.669 1.5,1.5 v 3 c 0,0.831 -0.669,1.5 -1.5,1.5 h -3 c -0.831,0 -1.5,-0.669 -1.5,-1.5 v -3 c 0,-0.831 0.669,-1.5 1.5,-1.5 z"
     fill="#363636"
     stroke-linecap="round"
     stroke-linejoin="round"
     stroke-width="12"
     style="paint-order:stroke fill markers"
     id="path2" />
  <path
     d="m 16,10 c -1.662,0 -3,1.338 -3,3 h 1.5 c 0,-0.831 0.669,-1.5 1.5,-1.5 h 3 c 0.831,0 1.5,0.669 1.5,1.5 v 3 c 0,0.831 -0.669,1.5 -1.5,1.5 V 19 c 1.662,0 3,-1.338 3,-3 v -3 c 0,-1.662 -1.338,-3 -3,-3 z"
     fill="#363636"
     opacity="0.35"
     stroke-linecap="round"
     stroke-linejoin="round"
     stroke-width="12"
     style="paint-order:stroke fill markers"
     id="path4" />
</svg>
