<?xml version="1.0" encoding="UTF-8" standalone="no"?>
<svg
   width="80"
   height="80"
   version="1.1"
   viewBox="0 0 80 80"
   id="svg10"
   sodipodi:docname="assets-xpm.svg"
   inkscape:version="1.3.2 (091e20ef0f, 2023-11-25)"
   xmlns:inkscape="http://www.inkscape.org/namespaces/inkscape"
   xmlns:sodipodi="http://sodipodi.sourceforge.net/DTD/sodipodi-0.dtd"
   xmlns="http://www.w3.org/2000/svg"
   xmlns:svg="http://www.w3.org/2000/svg">
  <defs
     id="defs10" />
  <sodipodi:namedview
     id="namedview10"
     pagecolor="#ffffff"
     bordercolor="#000000"
     borderopacity="0.25"
     inkscape:showpageshadow="2"
     inkscape:pageopacity="0.0"
     inkscape:pagecheckerboard="0"
     inkscape:deskcolor="#d1d1d1"
     showgrid="true"
     inkscape:zoom="5.9"
     inkscape:cx="88.474576"
     inkscape:cy="28.813559"
     inkscape:window-width="1920"
     inkscape:window-height="1016"
     inkscape:window-x="0"
     inkscape:window-y="33"
     inkscape:window-maximized="1"
     inkscape:current-layer="svg10">
    <inkscape:grid
       id="grid10"
       units="px"
       originx="0"
       originy="0"
       spacingx="1"
       spacingy="1"
       empcolor="#0099e5"
       empopacity="0.30196078"
       color="#0099e5"
       opacity="0.14901961"
       empspacing="5"
       dotted="false"
       gridanglex="30"
       gridanglez="30"
       visible="true" />
  </sodipodi:namedview>
  <g
     id="left-active"
     transform="translate(-36,-687.36)">
    <rect
       transform="scale(-1,1)"
       x="-48"
       y="734.36"
       width="2"
       height="16"
       fill="#2c2c2c"
       id="rect1" />
  </g>
  <g
     id="bottom-left-active"
     transform="translate(-86,-666.36)">
    <path
       d="m98 730.36h-2v9h1v1l9-1.2e-4v-2l-8 1.2e-4z"
       fill="#2c2c2c"
       id="path1" />
  </g>
  <g
     id="bottom-right-active"
     transform="matrix(-1,0,0,1,146,-666.36)">
    <path
       d="m98 730.36h-2v9h1v1l9-1.2e-4v-2l-8 1.2e-4z"
       fill="#2c2c2c"
       id="path2" />
  </g>
  <g
     id="bottom-active"
     transform="matrix(0,-1,-1,0,772.36,120)">
    <rect
       transform="scale(-1,1)"
       x="-48"
       y="734.36"
       width="2"
       height="16"
       fill="#2c2c2c"
       id="rect2" />
  </g>
  <g
     id="button-active">
    <rect
       x="26"
       y="12"
       width="30"
       height="34"
       fill="none"
       id="rect3" />
    <path
       d="m 38,15 v 1 h -2 v 1 h -2 v 1 h -2 v 1 h -1 v 1 h -1 v 2 h -1 v 2 h -1 v 2 h -1 v 6 h 1 v 2 h 1 v 2 h 1 v 2 h 1 v 1 h 1 v 1 h 2 v 1 h 2 v 1 h 2 v 1 h 6 v -1 h 2 v -1 h 2 v -1 h 2 v -1 h 1 v -1 h 1 v -2 h 1 v -2 h 1 v -2 h 1 v -6 h -1 v -2 h -1 v -2 h -1 v -2 h -1 v -1 h -1 v -1 h -2 v -1 h -2 v -1 h -2 v -1 z"
       fill="#2c2c2c"
       id="path3" />
  </g>
  <g
     id="title-active">
    <rect
       x="19"
       y="12"
       width="6"
       height="34"
       fill="#2c2c2c"
       id="rect9" />
  </g>
  <g
     id="left-inactive"
     transform="translate(44,-687.36)">
    <rect
       transform="scale(-1,1)"
       x="-48"
       y="734.35999"
       width="2"
       height="16"
       id="rect4"
       style="fill:#333333" />
  </g>
  <g
     id="bottom-left-inactive"
     transform="translate(-6,-666.36)">
    <path
       d="m 98,730.36 h -2 v 9 h 1 v 1 l 9,-1.2e-4 v -2 l -8,1.2e-4 z"
       id="path5"
       style="fill:#333333" />
  </g>
  <g
     id="bottom-right-inactive"
     transform="matrix(-1,0,0,1,226,-666.36)">
    <path
       d="m 98,730.36 h -2 v 9 h 1 v 1 l 9,-1.2e-4 v -2 l -8,1.2e-4 z"
       id="path6"
       style="fill:#333333" />
  </g>
  <g
     id="bottom-inactive"
     transform="matrix(0,-1,-1,0,852.36,120)">
    <rect
       transform="scale(-1,1)"
       x="-48"
       y="734.35999"
       width="2"
       height="16"
       id="rect6"
       style="fill:#333333" />
  </g>
  <g
     id="button-inactive"
     transform="translate(80)">
    <rect
       x="26"
       y="12"
       width="30"
       height="34"
       fill="none"
       id="rect7" />
    <path
       d="m 38,15 v 1 h -2 v 1 h -2 v 1 h -2 v 1 h -1 v 1 h -1 v 2 h -1 v 2 h -1 v 2 h -1 v 6 h 1 v 2 h 1 v 2 h 1 v 2 h 1 v 1 h 1 v 1 h 2 v 1 h 2 v 1 h 2 v 1 h 6 v -1 h 2 v -1 h 2 v -1 h 2 v -1 h 1 v -1 h 1 v -2 h 1 v -2 h 1 v -2 h 1 v -6 h -1 v -2 h -1 v -2 h -1 v -2 h -1 v -1 h -1 v -1 h -2 v -1 h -2 v -1 h -2 v -1 z"
       id="path7"
       style="fill:#333333" />
  </g>
  <g
     id="title-inactive"
     transform="translate(80)">
    <rect
       x="19"
       y="12"
       width="6"
       height="34"
       id="rect10"
       style="fill:#333333" />
  </g>
  <g
     id="top-left-active">
    <path
       id="path1725"
       d="m 13,12 v 1 h -2 v 1 h -1 v 1 H 9 v 1 H 8 v 1 H 7 v 2 H 6 V 46 H 7 8 18 V 14 13 12 Z"
       style="fill:#2c2c2c;fill-opacity:1" />
  </g>
  <g
     id="top-right-active">
    <path
       id="path10"
       d="m 66,12 v 1 h 2 v 1 h 1 v 1 h 1 v 1 h 1 v 1 h 1 v 2 h 1 V 46 H 72 71 61 V 14 13 12 Z"
       style="fill:#2c2c2c;fill-opacity:1" />
  </g>
  <g
     id="top-left-inactive">
    <path
       id="path12"
       d="m 93,12 v 1 h -2 v 1 h -1 v 1 h -1 v 1 h -1 v 1 h -1 v 2 h -1 v 27 h 1 1 10 V 14 13 12 Z"
       style="fill:#333333;fill-opacity:1" />
  </g>
  <g
     id="top-right-inactive">
    <path
       id="path14"
       d="m 146,12 v 1 h 2 v 1 h 1 v 1 h 1 v 1 h 1 v 1 h 1 v 2 h 1 v 27 h -1 -1 -10 V 14 13 12 Z"
       style="fill:#333333;fill-opacity:1" />
  </g>
  <g
     id="button-active-Normal"
     transform="translate(0,-51)">
    <rect
       x="26"
       y="12"
       width="36"
       height="34"
       fill="none"
       id="rect5" />
    <path
       d="m 41,15 v 1 h -2 v 1 h -2 v 1 h -2 v 1 h -1 v 1 h -1 v 2 h -1 v 2 h -1 v 2 h -1 v 6 h 1 v 2 h 1 v 2 h 1 v 2 h 1 v 1 h 1 v 1 h 2 v 1 h 2 v 1 h 2 v 1 h 6 v -1 h 2 v -1 h 2 v -1 h 2 v -1 h 1 v -1 h 1 v -2 h 1 v -2 h 1 v -2 h 1 v -6 h -1 v -2 h -1 v -2 h -1 v -2 h -1 v -1 h -1 v -1 h -2 v -1 h -2 v -1 h -2 v -1 z"
       fill="#2c2c2c"
       id="path8" />
  </g>
  <g
     id="button-inactive-Normal"
     transform="translate(80,-51)">
    <rect
       x="26"
       y="12"
       width="36"
       height="34"
       fill="none"
       id="rect8" />
    <path
       d="m 41,15 v 1 h -2 v 1 h -2 v 1 h -2 v 1 h -1 v 1 h -1 v 2 h -1 v 2 h -1 v 2 h -1 v 6 h 1 v 2 h 1 v 2 h 1 v 2 h 1 v 1 h 1 v 1 h 2 v 1 h 2 v 1 h 2 v 1 h 6 v -1 h 2 v -1 h 2 v -1 h 2 v -1 h 1 v -1 h 1 v -2 h 1 v -2 h 1 v -2 h 1 v -6 h -1 v -2 h -1 v -2 h -1 v -2 h -1 v -1 h -1 v -1 h -2 v -1 h -2 v -1 h -2 v -1 z"
       id="path9"
       style="fill:#333333" />
  </g>
</svg>
