<svg width="400" height="200" version="1.1" viewBox="0 0 400 200" xmlns="http://www.w3.org/2000/svg" xmlns:xlink="http://www.w3.org/1999/xlink">
 <defs>
  <linearGradient id="color-on-primary-dark" x1="6.2124" x2="29.25" y1="11.894" y2="11.894" gradientTransform="scale(1.1453 .87314)" gradientUnits="userSpaceOnUse">
   <stop stop-color="#FFFFFF" offset="1"/>
  </linearGradient>
  <linearGradient id="color-on-primary-light" x1="6.2124" x2="29.25" y1="11.894" y2="11.894" gradientTransform="scale(1.1453 .87314)" gradientUnits="userSpaceOnUse">
   <stop stop-color="#000000" stop-opacity=".87" offset="1"/>
  </linearGradient>
  <linearGradient id="color-primary-dark">
   <stop stop-color="#b57daa" offset="1"/>
  </linearGradient>
  <linearGradient id="color-surface" x2="40" gradientUnits="userSpaceOnUse">
   <stop stop-color="#FFFFFF" offset="1"/>
  </linearGradient>
  <linearGradient id="color-surface-dark" x2="40" gradientUnits="userSpaceOnUse">
   <stop stop-color="#3c4153" offset="1"/>
  </linearGradient>
  <g id="base-selectionmode-checkbox">
   <rect width="40" height="40" fill="none"/>
   <rect x="2" y="2" width="36" height="36" rx="4"/>
  </g>
  <g id="base-selectionmode-checkmark">
   <path transform="matrix(1.5 0 0 1.5 2 2)" d="M9 16.17L4.83 12l-1.42 1.41L9 19 21 7l-1.41-1.41z"/>
  </g>
  <linearGradient id="linearGradient976" x2="200" gradientUnits="userSpaceOnUse">
   <stop stop-color="#f8fafc" offset="1"/>
  </linearGradient>
  <linearGradient id="linearGradient1008" x2="40" gradientUnits="userSpaceOnUse" xlink:href="#color-primary-dark"/>
  <linearGradient id="linearGradient1041" x2="200" gradientTransform="translate(200)" gradientUnits="userSpaceOnUse">
   <stop stop-color="#252632" offset="1"/>
  </linearGradient>
  <linearGradient id="linearGradient991" x2="24" gradientUnits="userSpaceOnUse" xlink:href="#primary-dark"/>
  <linearGradient id="linearGradient2319" x1="4" x2="19.997" y1="11.999" y2="11.999" gradientUnits="userSpaceOnUse" xlink:href="#color-surface"/>
  <linearGradient id="linearGradient2345" x1="6" x2="18" y1="12" y2="12" gradientUnits="userSpaceOnUse" xlink:href="#color-primary-dark"/>
  <linearGradient id="linearGradient3060" x1="4" x2="19.997" y1="11.999" y2="11.999" gradientUnits="userSpaceOnUse" xlink:href="#color-base-dark"/>
  <linearGradient id="color-base-dark" x2="40" gradientUnits="userSpaceOnUse">
   <stop stop-color="#2d303e" offset="1"/>
  </linearGradient>
 </defs>
 <rect width="200" height="200" fill="url(#linearGradient976)"/>
 <g id="selectionmode-checkbox-unchecked" transform="translate(8,72)">
  <use width="100%" height="100%" fill="url(#color-surface)" xlink:href="#base-selectionmode-checkbox"/>
 </g>
 <g id="selectionmode-checkbox-checked" transform="translate(56,72)">
  <use width="100%" height="100%" fill="url(#linearGradient1008)" xlink:href="#base-selectionmode-checkbox"/>
  <use width="100%" height="100%" fill="url(#color-on-primary-dark)" xlink:href="#base-selectionmode-checkmark"/>
 </g>
 <rect x="200" width="200" height="200" fill="url(#linearGradient1041)"/>
 <g id="selectionmode-checkbox-unchecked-dark" transform="translate(208,72)">
  <use width="100%" height="100%" fill="url(#color-surface-dark)" xlink:href="#base-selectionmode-checkbox"/>
 </g>
 <g id="selectionmode-checkbox-checked-dark" transform="translate(256,72)">
  <use width="100%" height="100%" fill="url(#linearGradient1008)" xlink:href="#base-selectionmode-checkbox"/>
  <use width="100%" height="100%" fill="url(#color-on-primary-light)" xlink:href="#base-selectionmode-checkmark"/>
 </g>
 <g id="scale-horz-marks-before-slider" transform="translate(20,10)">
  <rect width="24" height="24" fill="none"/>
  <path transform="rotate(45,12,12)" d="m6 6h6a6 6 0 1 1-6 6z" fill="url(#linearGradient2319)" stroke="url(#linearGradient2345)" stroke-linecap="round" stroke-width="4" style="paint-order:stroke fill markers"/>
 </g>
 <use id="scale-horz-marks-after-slider" transform="matrix(1 0 0 -1 35 44)" width="100%" height="100%" xlink:href="#scale-horz-marks-before-slider"/>
 <use id="scale-vert-marks-before-slider" transform="rotate(-90,67,-13)" width="100%" height="100%" xlink:href="#scale-horz-marks-before-slider"/>
 <use id="scale-vert-marks-after-slider" transform="rotate(90,84.5,74.5)" width="100%" height="100%" xlink:href="#scale-horz-marks-before-slider"/>
 <g id="scale-horz-marks-before-slider-disabled" transform="translate(20,38)">
  <rect width="24" height="24" fill="none"/>
  <path transform="rotate(45,12,12)" d="m6 6h6a6 6 0 1 1-6 6z" fill="url(#linearGradient2319)" stroke="url(#linearGradient2345)" stroke-linecap="round" stroke-opacity=".25" stroke-width="4" style="paint-order:stroke fill markers"/>
 </g>
 <use id="scale-horz-marks-after-slider-disabled" transform="matrix(1 0 0 -1 35 100)" width="100%" height="100%" xlink:href="#scale-horz-marks-before-slider-disabled"/>
 <use id="scale-vert-marks-before-slider-disabled" transform="rotate(-90,67,15)" width="100%" height="100%" xlink:href="#scale-horz-marks-before-slider-disabled"/>
 <use id="scale-vert-marks-after-slider-disabled" transform="rotate(90,84.5,102.5)" width="100%" height="100%" xlink:href="#scale-horz-marks-before-slider-disabled"/>
 <g id="scale-horz-marks-before-slider-dark" transform="translate(224,10)">
  <rect width="24" height="24" fill="none"/>
  <path transform="rotate(45,12,12)" d="m6 6h6a6 6 0 1 1-6 6z" fill="url(#linearGradient3060)" stroke="url(#linearGradient2345)" stroke-linecap="round" stroke-width="4" style="paint-order:stroke fill markers"/>
 </g>
 <g id="scale-horz-marks-before-slider-disabled-dark" transform="translate(224,38)">
  <rect width="24" height="24" fill="none"/>
  <path transform="rotate(45,12,12)" d="m6 6h6a6 6 0 1 1-6 6z" fill="url(#linearGradient3060)" stroke="url(#linearGradient2345)" stroke-linecap="round" stroke-opacity=".3" stroke-width="4" style="paint-order:stroke fill markers"/>
 </g>
 <use id="scale-horz-marks-after-slider-dark" transform="rotate(180,253.5,22)" width="100%" height="100%" xlink:href="#scale-horz-marks-before-slider-dark"/>
 <use id="scale-horz-marks-after-slider-disabled-dark" transform="rotate(180,253.5,50)" width="100%" height="100%" xlink:href="#scale-horz-marks-before-slider-disabled-dark"/>
 <use id="scale-vert-marks-before-slider-dark" transform="rotate(-90,271,-13)" width="100%" height="100%" xlink:href="#scale-horz-marks-before-slider-dark"/>
 <use id="scale-vert-marks-before-slider-disabled-dark" transform="rotate(-90,271,15)" width="100%" height="100%" xlink:href="#scale-horz-marks-before-slider-disabled-dark"/>
 <use id="scale-vert-marks-after-slider-dark" transform="rotate(90,288.5,74.5)" width="100%" height="100%" xlink:href="#scale-horz-marks-before-slider-dark"/>
 <use id="scale-vert-marks-after-slider-disabled-dark" transform="rotate(90,288.5,102.5)" width="100%" height="100%" xlink:href="#scale-horz-marks-before-slider-disabled-dark"/>
</svg>
