<svg width="64" height="64" version="1.1" viewBox="0 0 64 64" xmlns="http://www.w3.org/2000/svg">
 <defs>
  <filter id="a" x="-.039001" y="-.033428" width="1.078" height="1.0669" color-interpolation-filters="sRGB">
   <feGaussianBlur stdDeviation="0.20637525"/>
  </filter>
 </defs>
 <path transform="scale(3.7796)" d="m3.4395 1.3543c-0.73289 0-1.3229 0.59001-1.3229 1.3229v12.171c0 0.73289 0.59001 1.3229 1.3229 1.3229h10.054c0.73289 0 1.3229-0.59001 1.3229-1.3229v-10.319l-3.175-3.175z" fill-rule="evenodd" filter="url(#a)" opacity=".15" stroke-width=".26458" style="paint-order:stroke fill markers"/>
 <g transform="scale(3.7796)" fill-rule="evenodd">
  <path transform="scale(.26458)" d="m13 4c-2.77 0-5 2.23-5 5v46c0 2.77 2.23 5 5 5h38c2.77 0 5-2.23 5-5v-39l-12-12z" fill="#f85879" style="paint-order:stroke fill markers"/>
  <path d="m14.816 4.2332-3.1749-3.1749v1.852c0 0.73288 0.59001 1.3229 1.3229 1.3229z" fill="#fff" opacity=".35" style="paint-order:stroke fill markers"/>
 </g>
 <g transform="matrix(3.7796 0 0 3.7796 -112.04 4.424)" fill="#fff" opacity=".75">
  <path d="m34.671 7.0315v1.7198c0 0.07329 0.059 0.13229 0.13229 0.13229h0.79374c0.07329 0 0.13229-0.059 0.13229-0.13229v-1.7198zm0.26458 1.0583h0.52916v0.52916h-0.52916z" color="#000000"/>
  <path d="m35.2-0.11215v0.52916h0.52916v-0.52916zm0 0.52916h-0.52916v0.52916h0.52916zm0 0.52916v0.52916h0.52916v-0.52916zm0 0.52916h-0.52916v0.52916h0.52916zm0 0.52916v0.52916h0.52916v-0.52916zm0 0.52916h-0.52916v0.52916h0.52916zm0 0.52916v0.52916h0.52916v-0.52916zm0 0.52916h-0.52916v0.52916h0.52916zm0 0.52916v0.52916h0.52916v-0.52916zm0 0.52916h-0.52916v0.52916h0.52916zm0 0.52916v0.52916h0.52916v-0.52916zm0 0.52916h-0.52916v0.52916h0.52916zm0 0.52916v0.52916h0.52916v-0.52916z" color="#000000"/>
 </g>
 <path d="m43.998 11v0.58399c0 3.0009 2.23 5.4162 5 5.4162h6.9998l5.37e-4 -1.0002-7.0006 1.89e-4c-2.77 7.5e-5 -5-2.23-5-5z" fill-rule="evenodd" opacity=".1" stroke-width="3.9338" style="paint-order:stroke fill markers"/>
 <path d="m41.653 55.371c-1.1802-0.19658-2.872-0.86487-3.9202-1.5486-2.302-1.5015-3.8054-3.1684-4.7359-5.2508-0.30911-0.69183-0.47801-1.2287-0.96114-3.055-0.12013-0.45412-0.26963-0.95423-0.33223-1.1114-0.10559-0.26505-0.11023-0.35446-0.0642-1.2385 0.0437-0.83992 0.18574-1.9764 0.26198-2.0959 0.0148-0.0232 0.0496-0.0287 0.0774-0.0122 0.094 0.0558 0.18092-0.20218 0.26633-0.79062 0.0468-0.32239 0.12032-0.66047 0.16339-0.7513 0.0431-0.0908 0.11603-0.29128 0.16214-0.44545 0.10611-0.35485 0.25079-0.62761 0.69807-1.316 0.19671-0.30275 0.40119-0.6325 0.45439-0.73277 0.0626-0.11798 0.131-0.17578 0.1938-0.16379 0.0605 0.0115 0.16035-0.065 0.26492-0.20299 0.45476-0.6002 2.5967-2.371 2.7949-2.3106 0.0541 0.0165 0.28012-0.0579 0.50227-0.16524 0.40181-0.19418 0.57886-0.2391 0.57886-0.14687 0 0.0266-0.0581 0.087-0.12906 0.13423-0.12457 0.0829-0.12207 0.0843 0.0717 0.0393 0.11042-0.0257 0.29638-0.0622 0.41325-0.0812 0.14439-0.0235 0.2031-0.0581 0.18318-0.10789-0.0175-0.0437 0.0241-0.087 0.10298-0.10731 0.19746-0.0507 0.50515-0.0424 0.50515 0.0137 0 0.0673-0.17593 0.13526-0.31548 0.12198-0.0952-9e-3 -0.10006-1e-3 -0.0287 0.0457 0.071 0.0468 0.0719 0.0568 5e-3 0.0575-0.0447 4.6e-4 -0.0665 0.0149-0.0486 0.0322 0.018 0.0172 0.13758-0.02 0.26578-0.0828 0.12821-0.0628 0.36302-0.14086 0.5218-0.17354 0.19546-0.0402 0.2887-0.0869 0.2887-0.1445 0-0.0741 0.0908-0.0804 0.70265-0.0488 0.38647 0.02 0.96965 0.0781 1.296 0.12919 0.59326 0.0929 0.59331 0.0929 0.8144-0.0292 0.26518-0.14646 0.69171-0.16552 0.80379-0.0359 0.041 0.0474 0.15387 0.12555 0.25081 0.17365 0.15814 0.0785 0.1686 0.0786 0.10176 1e-3 -0.12697-0.1469-8.7e-4 -0.1432 0.48939 0.0144 1.5806 0.50799 2.8691 1.4127 3.8252 2.6858 0.22674 0.3019 0.24047 0.43772 0.0257 0.25395l-0.12292-0.10517 0.0939 0.17617c0.0516 0.0969 0.0939 0.20578 0.0939 0.24197 0 0.0362 0.152 0.30371 0.33776 0.59447 0.41868 0.65531 0.5358 0.87609 0.50771 0.95697-0.0121 0.0347-0.19753-0.19613-0.41219-0.51291-0.21465-0.31676-0.5323-0.74356-0.70588-0.94843-0.25922-0.30594-0.32711-0.35827-0.38-0.29288-0.0354 0.0438-0.12191 0.0875-0.19222 0.0973l-0.12782 0.0177 0.12645 0.23789c0.0695 0.13084 0.13567 0.21134 0.14695 0.17889 0.0604-0.17377 0.34144 0.0547 0.46925 0.38138 0.0414 0.10596 0.15164 0.32417 0.24488 0.48491 0.0932 0.16074 0.15777 0.30351 0.14343 0.31728-0.0143 0.0138-0.0994-0.0303-0.18889-0.0979l-0.1628-0.1229 0.11103 0.18293c0.0611 0.10062 0.16333 0.22369 0.22724 0.27351 0.0797 0.0622 0.11784 0.16036 0.1214 0.31301 7e-3 0.28184 0.17481 0.61479 0.2663 0.52699 0.14253-0.13678 0.17184-0.0513 0.13597 0.39664-0.0264 0.33002-0.0124 0.54754 0.0503 0.77846 0.0952 0.35058 0.0747 0.43711-0.0645 0.27326-0.0885-0.1042-0.0894-0.10413-0.0498 4e-3 0.085 0.23181 0.14846 0.5786 0.13081 0.71471-0.0329 0.25399-0.13232 0.14839-0.16651-0.17697l-0.0334-0.31756-0.01 0.33795c-5e-3 0.18588-0.0508 0.54505-0.10107 0.79816-0.0508 0.25566-0.0766 0.56545-0.058 0.69699 0.0349 0.24746 0.0102 0.25705-0.20532 0.0798-0.0877-0.0722-0.10283-0.0576-0.16308 0.15714-0.0507 0.18068-0.0503 0.28355 2e-3 0.43487 0.0375 0.10902 0.0593 0.25688 0.0484 0.32857-0.0251 0.16545-0.16321 0.21704-0.16321 0.061 0-0.19621-0.0778-0.12638-0.31548 0.28324-0.64188 1.1061-1.6575 1.9622-2.807 2.3659-0.67769 0.23805-1.1322 0.32632-1.8965 0.3683l-0.68832 0.0378 0.34009 0.10068c0.27423 0.0812 0.43527 0.0933 0.83171 0.0626 0.51938-0.0403 1.1292-0.14843 1.4057-0.24932 0.11036-0.0403 0.18489-0.0421 0.22303-6e-3 0.0899 0.0863-0.7089 0.4256-1.1831 0.50248-0.80686 0.13082-1.8869-0.0106-2.8403-0.3718-0.64687-0.24509-1.6068-0.8834-1.4597-0.97064 0.0279-0.0165 0.21049 0.0669 0.40583 0.18546 0.24969 0.1515 0.35516 0.1914 0.35516 0.13433 0-0.10779 0.0369-0.10262 0.2353 0.0329 0.17914 0.12242 0.73015 0.34972 1.127 0.46492 0.4326 0.12557 0.26487-0.0266-0.31548-0.28628-1.835-0.82094-2.5967-1.642-2.9764-3.2082-0.13922-0.57432 0.01-1.8334 0.26385-2.2277 0.0644-0.0999 0.117-0.2228 0.117-0.27307 0-0.21814 0.37905-0.79448 0.768-1.1677 0.68537-0.65771 1.3979-0.93076 2.323-0.89013 0.44716 0.0197 0.63814 0.0574 1.0103 0.1996 0.4221 0.16132 0.95359 0.49902 0.79082 0.50249-0.0383 8.1e-4 -0.20605-0.0531-0.37284-0.1198-0.25354-0.10139-0.41611-0.1217-0.99158-0.12385-0.80809-3e-3 -1.2031 0.107-1.7782 0.49531-0.81534 0.55053-1.2687 1.1846-1.4293 1.999-0.10774 0.54644-0.11104 0.69785-0.027 1.2399 0.0484 0.31233 0.0828 0.40398 0.1434 0.38168 0.0509-0.0187 0.0797 9e-3 0.0797 0.0758 0 0.19358 0.43892 0.97882 0.74332 1.3298 0.73267 0.84493 1.9178 1.3841 3.0424 1.3841 0.58366 0 1.0555-0.10751 1.4898-0.33946 0.1744-0.0932 0.39453-0.20702 0.48917-0.25306 0.33393-0.16243 0.5411-0.34797 0.78331-0.7015 0.13465-0.19654 0.28103-0.35734 0.32529-0.35734 0.0654 0 0.0626 0.0284-0.0151 0.15137-0.25603 0.40549 0.34484-0.33179 0.656-0.80492l0.34852-0.52993-0.038-0.34811c-0.0365-0.33451-0.0312-0.35493 0.13555-0.52293 0.16062-0.16178 0.17505-0.20967 0.19356-0.64217 0.0166-0.38709 5e-3 -0.46745-0.066-0.46789-0.0662-3.8e-4 -0.0946-0.10233-0.1231-0.44089-0.0377-0.44806-0.41787-1.9558-0.50638-2.0083-0.0267-0.0158-0.10085-0.16082-0.16473-0.32217-0.2156-0.54452-0.59376-1.0681-1.1834-1.6385-0.84842-0.82074-1.9172-1.4545-2.9267-1.7355-0.85872-0.23905-2.3169-0.15228-3.3556 0.19966-0.50691 0.17177-1.0064 0.39921-1.0906 0.49666-0.0382 0.0442-0.0937 0.0661-0.1232 0.0486-0.0311-0.0184-0.0225-0.0678 0.0204-0.11739 0.19134-0.22125-0.4436 0.18369-0.85236 0.5436-0.24712 0.21759-0.45832 0.40224-0.46933 0.41033-0.011 8e-3 0.0371 3.8e-4 0.10689-0.0171 0.11615-0.0291 0.12107-0.0214 0.0581 0.0916-0.0404 0.0724-0.25066 0.20259-0.50841 0.31479-0.43307 0.18851-0.71317 0.39569-0.93571 0.69213-0.0888 0.11836-0.094 0.14385-0.0237 0.11797 0.0493-0.0182 0.0897-7e-3 0.0897 0.0253 0 0.1572-0.14884 0.33271-0.36931 0.43551-0.48847 0.22774-1.3466 1.4442-1.8062 2.5606-0.20484 0.49749-0.20159 0.48021-0.0902 0.48021 0.11739 0 0.10922 0.12794-0.052 0.8152-0.23489 1.0011-0.23517 0.96906 0.0206 2.3774 0.31167 1.716 0.49375 2.2892 0.83995 2.6444 0.0812 0.0833 0.16015 0.26056 0.19534 0.43862 0.042 0.21261 0.11256 0.35293 0.24458 0.48647 0.12036 0.12175 0.1605 0.19642 0.11426 0.2126-0.0907 0.0317 0.19328 0.43808 0.45238 0.6473 0.13035 0.10525 0.22695 0.14063 0.33159 0.12143 0.22935-0.0421 0.46286 0.0847 0.82167 0.44603 0.37288 0.37551 0.41024 0.47646 0.16348 0.44171-0.15916-0.0224-0.1628-0.0183-0.0845 0.0965 0.0451 0.066 0.21123 0.2246 0.3693 0.3525 0.22201 0.17966 0.27919 0.25738 0.25132 0.34165-0.0401 0.12118 0.0742 0.23423 0.33283 0.32911 0.16035 0.0588 0.21202 0.18571 0.0913 0.22431-0.0365 0.0117 0.18933 0.23477 0.50189 0.49575 0.35215 0.29403 0.58903 0.45519 0.62279 0.42371 0.0892-0.0831 0.20349-0.0578 0.20554 0.0455 2e-3 0.11272 0.10347 0.23114 0.46767 0.54702 0.23015 0.19961 0.2876 0.22473 0.42867 0.18744 0.12918-0.0342 0.21042-0.0122 0.39235 0.10579 0.36297 0.23547 0.58306 0.32946 0.77151 0.32946 0.18543 0 0.21183 0.0511 0.11555 0.2238-0.051 0.0914-0.0401 0.10647 0.0771 0.10647 0.075 0 0.28648 0.0495 0.46987 0.11009 0.41698 0.13768 0.59092 0.14704 0.48641 0.0262-0.15438-0.17851 9e-3 -0.12973 0.56093 0.16709 0.77073 0.41477 1.1606 0.46215 2.6954 0.32757 0.22723-0.0199 0.30114-8e-3 0.30114 0.0474 0 0.0478-0.19717 0.11958-0.55926 0.20364-0.47599 0.1105-0.73005 0.13188-1.7064 0.14359-0.76939 9e-3 -1.2949-0.0109-1.5958-0.061zm-0.78462-8.2518c0-0.0117-0.071-0.0627-0.15774-0.11336l-0.15774-0.0922 0.13542 0.11336c0.13214 0.11061 0.18006 0.13514 0.18006 0.0922zm7.8975-5.7689c-0.0183-0.0439-0.0319-0.0309-0.0347 0.0333-3e-3 0.058 0.0111 0.0905 0.0301 0.0722 0.0191-0.0183 0.0211-0.0658 4e-3 -0.1055zm-13.053-5.8107c0.0714-0.0873 0.0693-0.0893-0.0217-0.0208-0.0552 0.0416-0.10038 0.0849-0.10038 0.0963 0 0.0453 0.0471 0.0161 0.12204-0.0755zm0.65232-0.50917c0.0571-0.0606 0.0909-0.11009 0.0751-0.11009s-0.0754 0.0495-0.13249 0.11009c-0.0571 0.0606-0.0909 0.11009-0.0751 0.11009s0.0754-0.0495 0.1325-0.11009zm0.72202-0.38695c0.18908-0.0614 0.29652-0.0723 0.33639-0.034 0.0399 0.0383 0.18783 0.0156 0.46321-0.0711 0.22254-0.07 0.39439-0.13711 0.38189-0.14911s-0.19574 0.0336-0.40718 0.10136c-0.29041 0.0931-0.39492 0.1069-0.42731 0.0566-0.0547-0.085-0.57666 0.0825-0.801 0.25709l-0.1533 0.11928 0.16474-0.0949c0.0906-0.0522 0.28976-0.13554 0.44256-0.18518zm1.6537-0.13973c0.16658-0.0475 0.29293-0.0959 0.28079-0.1075-0.0268-0.0257-0.62019 0.13736-0.62019 0.17044 0 0.0333 5e-3 0.0325 0.3394-0.0629zm0.95119-0.30008 0.22945-0.0402-0.20076-5e-3c-0.11042-3e-3 -0.26529 0.0331-0.34416 0.0795-0.0928 0.0547-0.10295 0.0706-0.0287 0.0451 0.0631-0.0216 0.21796-0.0574 0.34415-0.0795zm0.45558-0.10388c0.0177-0.0274-0.0195-0.0369-0.0827-0.0211-0.13394 0.0336-0.15087 0.071-0.0321 0.071 0.0455 0 0.0971-0.0225 0.1148-0.0499zm1.852 0.0166c-0.0191-0.0183-0.0685-0.0202-0.10994-4e-3 -0.0458 0.0176-0.0322 0.0306 0.0347 0.0333 0.0605 2e-3 0.0943-0.0106 0.0753-0.0289zm-0.34296-0.0597c-0.0552-0.0138-0.14555-0.0138-0.20076 0-0.0552 0.0138-0.01 0.0252 0.10038 0.0252 0.11042 0 0.15559-0.0113 0.10038-0.0252zm-0.57208-0.0571c-0.11747-0.0118-0.32397-0.012-0.45888-3.6e-4 -0.13491 0.0116-0.0388 0.0213 0.21358 0.0215 0.25239 2e-4 0.36277-9e-3 0.2453-0.0211zm-0.74839-0.0483c-0.0191-0.0183-0.0685-0.0203-0.10994-4e-3 -0.0458 0.0176-0.0322 0.0306 0.0347 0.0333 0.0605 2e-3 0.0943-0.0106 0.0753-0.0289zm-0.38827 13.23c-0.58427-0.40174-0.80075-0.60953-0.80075-0.76864 0-0.0844 0.0199-0.15347 0.0442-0.15347 0.0827 0 1.0595 0.97843 1.0381 1.0399-0.0124 0.0356-0.13023-0.0137-0.28159-0.11781zm-0.30065-1.02c-0.30344-0.29426-0.40067-0.45253-0.27803-0.45253 0.0737 0 0.63832 0.62039 0.63832 0.70136 0 0.0381-7e-3 0.0693-0.0161 0.0693-9e-3 0-0.16374-0.14314-0.34416-0.3181zm3.3574-1.2046c-0.1602-0.062-0.0602-0.17698 0.20076-0.23071 0.14985-0.0309 0.38799-0.10575 0.52919-0.16644 0.1412-0.0607 0.26693-0.10055 0.27939-0.0886 0.0125 0.012-0.0515 0.1343-0.14201 0.27187-0.16367 0.2486-0.1666 0.2501-0.48015 0.24588-0.17352-2e-3 -0.34775-0.0167-0.38718-0.032zm1.7208-1.2313c-0.15483-0.0597-0.16124-0.16135-0.032-0.50746 0.11103-0.29728 0.22619-0.35593 0.16213-0.0826-0.0231 0.0984-0.0538 0.24083-0.0684 0.31651l-0.0265 0.13762 0.11463-0.12528c0.0678-0.0741 0.13062-0.24813 0.15377-0.42598 0.0215-0.16539 0.062-0.28713 0.09-0.27055 0.071 0.0421 0.0634 0.47731-0.0133 0.76991-0.0671 0.25559-0.1274 0.28537-0.38037 0.18779zm-13.574-0.69085c-0.0191-0.0479-0.0348-0.23573-0.0348-0.41743 0-0.23972 0.0197-0.32411 0.0717-0.3076 0.0852 0.027 0.13517 0.8121 0.0517 0.8121-0.0296 0-0.0694-0.0392-0.0886-0.0871zm13.799-1.2875c-0.0891-0.11569-0.11659-0.20702-0.0913-0.30367 0.0519-0.19848 0.1877-0.17025 0.28788 0.0598 0.15585 0.35796 0.0206 0.52572-0.19657 0.24382zm-13.811-0.87392c-4e-3 -0.31213-3e-5 -0.32178 0.14395-0.31651 0.12209 4e-3 0.15157 0.0353 0.16565 0.1735 0.0159 0.15584-0.16071 0.46495-0.26563 0.46495-0.0217 0-0.0415-0.14487-0.044-0.32194zm14.868-6.7668c8e-3 -0.49261 0.0945-0.65949 0.16189-0.31459 0.047 0.24032-0.0128 0.66469-0.10379 0.73718-0.0495 0.0394-0.0643-0.068-0.0581-0.42259zm-7.537-0.2952c0.0231-0.0664 0.81432-0.37739 0.96028-0.37739 0.17148 0-0.13613 0.20164-0.49092 0.3218-0.39558 0.13398-0.50092 0.14645-0.46936 0.0556z" color="#000000" color-rendering="auto" fill="#fff" image-rendering="auto" opacity=".75" shape-rendering="auto" solid-color="#000000" style="isolation:auto;mix-blend-mode:normal"/>
</svg>
