<svg width="64" height="64" version="1.1" xmlns="http://www.w3.org/2000/svg">
 <defs>
  <filter id="a" x="-.039001" y="-.033428" width="1.078" height="1.0669" color-interpolation-filters="sRGB">
   <feGaussianBlur stdDeviation="0.20637525"/>
  </filter>
 </defs>
 <path transform="scale(3.7796)" d="m3.4395 1.3543c-0.73289 0-1.3229 0.59001-1.3229 1.3229v12.171c0 0.73289 0.59001 1.3229 1.3229 1.3229h10.054c0.73289 0 1.3229-0.59001 1.3229-1.3229v-10.319l-3.175-3.175z" filter="url(#a)" opacity=".15" stroke-width=".26458" style="paint-order:stroke fill markers"/>
 <g transform="scale(3.7796)" fill-rule="evenodd">
  <path transform="scale(.26458)" d="m13 4c-2.77 0-5 2.23-5 5v46c0 2.77 2.23 5 5 5h38c2.77 0 5-2.23 5-5v-39l-12-12z" fill="#afdde9" style="paint-order:stroke fill markers"/>
  <path d="m14.816 4.2332-3.1749-3.1749v1.852c0 0.73288 0.59001 1.3229 1.3229 1.3229z" opacity=".35" style="paint-order:stroke fill markers"/>
 </g>
 <path d="m43.998 11v0.58399c0 3.0009 2.23 5.4162 5 5.4162h6.9998l5.37e-4 -1.0002-7.0006 1.89e-4c-2.77 7.5e-5 -5-2.23-5-5z" opacity=".1" stroke-width="3.9338" style="paint-order:stroke fill markers"/>
 <g transform="translate(71.441 -.82775)">
  <path d="m-40.441 43.028v-20.4h3v3.886h4c1 0 1 0.972 1 0.972v14.57c0 0.972-1 0.972-1 0.972z" fill-rule="evenodd"/>
  <path d="m-45.441 43.028v-14.57h-1v-1.944h1v-2.914c0-0.971 1-0.971 1-0.971h3v1.943h-1v1.942h1v1.943h-1v14.57z" fill-rule="evenodd"/>
  <path d="m-37.439 28.457h1.9994v12.629h-1.9994z" fill="#afdde9" opacity=".99"/>
 </g>
 <rect x="15" y="4" width="1" height="56" ry="0" opacity=".15" style="paint-order:normal"/>
 <rect x="15.983" y="4" width="1" height="56" ry="0" fill="#fff" opacity=".15" style="paint-order:normal"/>
</svg>
