<svg width="64" height="64" version="1.1" xmlns="http://www.w3.org/2000/svg">
 <defs>
  <filter id="a" x="-.039001" y="-.033428" width="1.078" height="1.0669" color-interpolation-filters="sRGB">
   <feGaussianBlur stdDeviation="0.20637525"/>
  </filter>
 </defs>
 <g fill-rule="evenodd">
  <path transform="scale(3.7796)" d="m3.4395 1.3543c-0.73289 0-1.3229 0.59001-1.3229 1.3229v12.171c0 0.73289 0.59001 1.3229 1.3229 1.3229h10.054c0.73289 0 1.3229-0.59001 1.3229-1.3229v-10.319l-3.175-3.175z" filter="url(#a)" opacity=".15" stroke-width=".26458" style="paint-order:stroke fill markers"/>
  <path d="m13 4.0015c-2.77 0-5 2.2299-5 5v46.002c0 2.7699 2.23 5 5 5h38c2.77 0 5-2.2299 5-5v-39.002l-12-11.999z" fill="#90d344" stroke-width="3.7796" style="paint-order:stroke fill markers"/>
  <path d="m55.999 16-12-12v6.9998c0 2.77 2.23 5 5 5z" fill="#fff" opacity=".35" stroke-width="3.7796" style="paint-order:stroke fill markers"/>
  <path d="m46.997 24-30 22h6v-2h2v2h2v-2h2v2h2v-2h2v2h2v-2h2v2h2v-2h2v2h2v-2h2v2h2m-2-18.449v12.45h-16" fill="#fff"/>
  <path d="m43.998 11v0.58399c0 3.0009 2.23 5.4162 5 5.4162h6.9998l5.37e-4 -1.0002-7.0006 1.89e-4c-2.77 7.5e-5 -5-2.23-5-5z" opacity=".1" stroke-width="3.9338" style="paint-order:stroke fill markers"/>
 </g>
</svg>
