<svg width="64" height="64" version="1.1" viewBox="0 0 64 64" xmlns="http://www.w3.org/2000/svg">
 <defs>
  <filter id="a" x="-.039001" y="-.033428" width="1.078" height="1.0669" color-interpolation-filters="sRGB">
   <feGaussianBlur stdDeviation="0.20637525"/>
  </filter>
 </defs>
 <path transform="scale(3.7796)" d="m3.4395 1.3543c-0.73289 0-1.3229 0.59001-1.3229 1.3229v12.171c0 0.73289 0.59001 1.3229 1.3229 1.3229h10.054c0.73289 0 1.3229-0.59001 1.3229-1.3229v-10.319l-3.175-3.175z" fill-rule="evenodd" filter="url(#a)" opacity=".15" stroke-width=".26458" style="paint-order:stroke fill markers"/>
 <g transform="scale(3.7796)" fill-rule="evenodd">
  <path transform="scale(.26458)" d="m13 4c-2.77 0-5 2.23-5 5v46c0 2.77 2.23 5 5 5h38c2.77 0 5-2.23 5-5v-39l-12-12z" fill="#ff9230" style="paint-order:stroke fill markers"/>
  <path d="m14.816 4.2332-3.1749-3.1749v1.852c0 0.73288 0.59001 1.3229 1.3229 1.3229z" fill="#fff" opacity=".35" style="paint-order:stroke fill markers"/>
 </g>
 <g transform="matrix(3.7796,0,0,3.7796,-112.04,4.424)" fill="#fff" opacity=".75">
  <path d="m34.671 7.0315v1.7198c0 0.07329 0.059 0.13229 0.13229 0.13229h0.79374c0.07329 0 0.13229-0.059 0.13229-0.13229v-1.7198zm0.26458 1.0583h0.52916v0.52916h-0.52916z" color="#000000"/>
  <path d="m35.2-0.11215v0.52916h0.52916v-0.52916zm0 0.52916h-0.52916v0.52916h0.52916zm0 0.52916v0.52916h0.52916v-0.52916zm0 0.52916h-0.52916v0.52916h0.52916zm0 0.52916v0.52916h0.52916v-0.52916zm0 0.52916h-0.52916v0.52916h0.52916zm0 0.52916v0.52916h0.52916v-0.52916zm0 0.52916h-0.52916v0.52916h0.52916zm0 0.52916v0.52916h0.52916v-0.52916zm0 0.52916h-0.52916v0.52916h0.52916zm0 0.52916v0.52916h0.52916v-0.52916zm0 0.52916h-0.52916v0.52916h0.52916zm0 0.52916v0.52916h0.52916v-0.52916z" color="#000000"/>
 </g>
 <path d="m43.998 11v0.58399c0 3.0009 2.23 5.4162 5 5.4162h6.9998l5.37e-4 -1.0002-7.0006 1.89e-4c-2.77 7.5e-5 -5-2.23-5-5z" fill-rule="evenodd" opacity=".1" stroke-width="3.9338" style="paint-order:stroke fill markers"/>
 <path d="m41.92 26.461c1.1364 4.4768-4.0084 5.829-5.8652 8.6171-1.2644 1.8996 0.62068 3.9408 3.1908 6.2595-1.0022-2.2656-4.401-4.2476 0.0014-7.7247 5.4897-4.3333 2.673-7.1518 2.673-7.1518zm3.3965 5.5389c6.1e-5 0-9.2829 2.3179-4.8495 7.4265 1.3088 1.5065-0.34331 2.8612-0.34331 2.8612s3.3212-1.7141 1.7963-3.8618c-1.4248-2.0019-2.517-2.9964 3.3967-6.4258zm1.644 9.1254c-0.32616 0.0011-0.67251 0.05767-1.0278 0.18254-0.28486 0.10085-0.43436 0.33528-0.43436 0.33528s0.18011-0.07249 0.58163-0.1563c1.642-0.34215 3.9947 2.1982-1.0931 4.8413-0.02357 0.063-0.10174 0.13358-0.10167 0.13358 6.0507-1.5906 4.7313-5.3415 2.0752-5.3364zm-10.902 0.25797c-0.39855-0.0092-2.1216 0.0164-4.1806 1.0124-2.7836 1.346 6.8843 1.9591 11.89 0.64265 0.52038-0.35513 1.2392-0.66346 1.2392-0.66346s-2.0472 0.36599-4.087 0.53719c-2.4967 0.20946-5.1751 0.25083-6.5194 0.07092-3.183-0.42554 1.7449-1.5962 1.7449-1.5962s-0.02972-0.0023-0.08677-0.0034zm-1.0607 3.0796c-4.5919 1.524 2.5562 3.2535 8.9737 1.3763-0.68187-0.24034-1.1148-0.68023-1.1148-0.68023-3.1378 0.60388-4.9503 0.58457-7.2461 0.34758-1.7749-0.18346-0.6131-1.0437-0.6131-1.0437zm0.64904 2.9685c-4.1693 1.165 2.5367 3.5715 7.8457 1.2969-0.8695-0.33788-1.4931-0.72799-1.4931-0.72799-2.3674 0.44747-3.4656 0.48273-5.6144 0.2374-1.7735-0.20341-0.73793-0.80626-0.73793-0.80626zm-2.8959 1.9681c-1.8724 0.05777-5.5342 1.7413-2.1854 2.2847 10.823 1.7543 19.729-0.7902 16.922-2.0568 0 0 0.76677 0.6322-0.84432 1.121-3.0635 0.92792-12.753 1.2078-15.445 0.0371-0.96679-0.4211 0.84698-1.0048 1.4177-1.128 0.59506-0.12873 0.93489-0.10522 0.93489-0.10522-0.16812-0.11838-0.45362-0.16344-0.80035-0.15275zm16.455 1.609s-0.34116 0.87592-4.0354 1.5709c-4.168 0.78467-9.3096 0.69318-12.358 0.18988 0 0 0.62441 0.51696 3.8335 0.72352 4.8827 0.31215 12.383-0.17369 12.56-2.4843z" clip-rule="evenodd" enable-background="new" fill="#fff" fill-rule="evenodd" opacity=".75" stroke-width=".86676"/>
</svg>
