<svg width="64" height="64" version="1.1" viewBox="0 0 16.933 16.933" xmlns="http://www.w3.org/2000/svg">
 <defs>
  <filter id="a" x="-.039001" y="-.033428" width="1.078" height="1.0669" color-interpolation-filters="sRGB">
   <feGaussianBlur stdDeviation="0.20637525"/>
  </filter>
 </defs>
 <path d="m3.4395 1.3543c-0.73289 0-1.3229 0.59001-1.3229 1.3229v12.171c0 0.73289 0.59001 1.3229 1.3229 1.3229h10.054c0.73289 0 1.3229-0.59001 1.3229-1.3229v-10.319l-3.175-3.175z" fill-rule="evenodd" filter="url(#a)" opacity=".15" stroke-width=".26458" style="paint-order:stroke fill markers"/>
 <g fill-rule="evenodd">
  <path transform="scale(.26458)" d="m13 4c-2.77 0-5 2.23-5 5v46c0 2.77 2.23 5 5 5h38c2.77 0 5-2.23 5-5v-39l-12-12h-31z" fill="#f4f4f4" style="paint-order:stroke fill markers"/>
  <path d="m14.816 4.2332-3.1749-3.1749v1.852c0 0.73288 0.59001 1.3229 1.3229 1.3229z" fill="#bbb" style="paint-order:stroke fill markers"/>
 </g>
 <g transform="translate(-20.252 -1.6829)" fill="none" stroke="#1463a5" stroke-width=".2634">
  <path d="m26.875 8.9206s-1.1178 2.4086-0.91522 3.4756c0.14089 0.74203 0.47626 1.2513 1.1786 1.5291 0.41633 0.16464 1.5804-0.2634 1.5804-0.2634v-1.8438s-1.0536-0.34572-1.2676-1.6792c0 0 0.11324 1.1396 0.32726 1.1725" enable-background="new" stroke-linecap="round" stroke-linejoin="round"/>
  <path d="m26.414 6.8134c-0.80667-0.72436-1.8109-0.42803-1.8109-0.42803s0.5268 1.6627 1.5146 1.4981" enable-background="new"/>
  <path d="m26.611 13.662c-0.2634 1.0536 0.5268 1.317 2.1072 0.79021 1.5804 0.5268 2.3706 0.2634 2.1072-0.79021" enable-background="new" stroke-linecap="round"/>
  <path d="m27.194 7.6868c0.49915-0.2319 1.0296 0.0524 1.0117 0.08148 0 0-0.17236 0.71479-0.57975 0.65312-0.38162-0.05776-0.43164-0.57252-0.43196-0.7346z" enable-background="new" stroke-linejoin="round"/>
  <path d="m30.826 9.7108s0.68179-2.0225 0.2634-2.8974c-0.13658-0.28559-0.5268-0.48793-0.79021-0.48793-0.53407 0-0.79021 0.22452-1.5804 0.22452-0.79021 0-1.0463-0.22452-1.5804-0.22452-0.2634 0-0.65363 0.20233-0.79021 0.48793-0.41839 0.8749 0.2634 2.8974 0.2634 2.8974" enable-background="new"/>
  <path d="m30.562 8.9206s1.1178 2.4086 0.91523 3.4756c-0.14089 0.74203-0.47626 1.2513-1.1786 1.5291-0.41633 0.16464-1.5804-0.2634-1.5804-0.2634v-1.8438s1.0536-0.34572 1.2676-1.6792c0 0-0.12488 1.1629-0.3389 1.1958" enable-background="new" stroke-linecap="round" stroke-linejoin="round"/>
  <path d="m31.023 6.8134c0.80667-0.72436 1.8109-0.42803 1.8109-0.42803s-0.5268 1.6627-1.5146 1.4981" enable-background="new"/>
  <path d="m30.243 7.6868c-0.49915-0.2319-1.0296 0.0524-1.0117 0.08148 0 0 0.17236 0.71479 0.57975 0.65312 0.38162-0.05776 0.43164-0.57252 0.43196-0.7346z" enable-background="new" stroke-linejoin="round"/>
 </g>
 <path d="m11.641 2.9104v0.15451c0 0.79397 0.59 1.433 1.3229 1.433h1.852l1.42e-4 -0.26463-1.8522 5e-5c-0.73289 1.98e-5 -1.3229-0.59001-1.3229-1.3229z" fill-rule="evenodd" opacity=".1" stroke-width="1.0408" style="paint-order:stroke fill markers"/>
</svg>
