<svg width="64" height="64" version="1.1" viewBox="0 0 16.933 16.933" xmlns="http://www.w3.org/2000/svg">
 <defs>
  <filter id="a" x="-.039001" y="-.033428" width="1.078" height="1.0669" color-interpolation-filters="sRGB">
   <feGaussianBlur stdDeviation="0.20637525"/>
  </filter>
 </defs>
 <path d="m3.4395 1.3543c-0.73289 0-1.3229 0.59001-1.3229 1.3229v12.171c0 0.73289 0.59001 1.3229 1.3229 1.3229h10.054c0.73289 0 1.3229-0.59001 1.3229-1.3229v-10.319l-3.175-3.175z" fill-rule="evenodd" filter="url(#a)" opacity=".15" stroke-width=".26458" style="paint-order:stroke fill markers"/>
 <g fill-rule="evenodd">
  <path transform="scale(.26458)" d="m13 4c-2.77 0-5 2.23-5 5v46c0 2.77 2.23 5 5 5h38c2.77 0 5-2.23 5-5v-39l-12-12z" fill="#f4f4f4" style="paint-order:stroke fill markers"/>
  <path d="m14.816 4.2332-3.1749-3.1749v1.852c0 0.73288 0.59001 1.3229 1.3229 1.3229z" fill="#bbb" style="paint-order:stroke fill markers"/>
 </g>
 <path d="m9.7894 4.7624-0.0408 0.48782a1.4552 1.4552 0 0 0-0.42532 0.24597l-0.44337-0.20879-0.463 0.80204 0.40257 0.27953a1.4552 1.4552 0 0 0-0.022255 0.24547 1.4552 1.4552 0 0 0 0.021199 0.24647l-0.40152 0.27853 0.463 0.80204 0.44236-0.20824a1.4552 1.4552 0 0 0 0.42628 0.24442l0.04085 0.48883h0.92599l0.04079-0.48783a1.4552 1.4552 0 0 0 0.42533-0.24597l0.44336 0.2088 0.463-0.80204-0.40257-0.27953a1.4552 1.4552 0 0 0 0.02226-0.24547 1.4552 1.4552 0 0 0-0.0212-0.24648l0.40151-0.27853-0.463-0.80204-0.44236 0.20824a1.4552 1.4552 0 0 0-0.42628-0.24441l-0.04085-0.48883h-0.92599zm0.46301 1.2347a0.61734 0.61734 0 0 1 0.61734 0.61734 0.61734 0.61734 0 0 1-0.61734 0.61734 0.61734 0.61734 0 0 1-0.61734-0.61734 0.61734 0.61734 0 0 1 0.61734-0.61734z" enable-background="new" fill="#a8a8a8" stroke-width=".49999"/>
 <path d="m6.2176 8.2019-0.058279 0.69689a2.0788 2.0788 0 0 0-0.60761 0.35139l-0.63338-0.29828-0.66144 1.1458 0.5751 0.39933a2.0788 2.0788 0 0 0-0.031793 0.35068 2.0788 2.0788 0 0 0 0.030284 0.3521l-0.57359 0.39789 0.66144 1.1458 0.63194-0.29749a2.0788 2.0788 0 0 0 0.60897 0.34917l0.058357 0.69833h1.3228l0.058271-0.69689a2.0788 2.0788 0 0 0 0.60761-0.35139l0.63337 0.29828 0.66144-1.1458-0.57509-0.39933a2.0788 2.0788 0 0 0 0.0318-0.35067 2.0788 2.0788 0 0 0-0.030286-0.35211l0.57359-0.3979-0.66144-1.1458-0.63194 0.29749a2.0788 2.0788 0 0 0-0.60897-0.34916l-0.058357-0.69833h-1.3228zm0.66144 1.7638a0.88192 0.88192 0 0 1 0.88192 0.88192 0.88192 0.88192 0 0 1-0.88192 0.88192 0.88192 0.88192 0 0 1-0.88192-0.88192 0.88192 0.88192 0 0 1 0.88192-0.88192z" enable-background="new" fill="#a8a8a8" stroke-width=".71428"/>
 <path d="m11.641 2.9104v0.15451c0 0.79397 0.59 1.433 1.3229 1.433h1.852l1.42e-4 -0.26463-1.8522 5e-5c-0.73289 1.98e-5 -1.3229-0.59001-1.3229-1.3229z" fill-rule="evenodd" opacity=".1" stroke-width="1.0408" style="paint-order:stroke fill markers"/>
</svg>
