<svg width="64" height="64" version="1.1" viewBox="0 0 64 64" xmlns="http://www.w3.org/2000/svg">
 <defs>
  <filter id="a" x="-.039001" y="-.033428" width="1.078" height="1.0669" color-interpolation-filters="sRGB">
   <feGaussianBlur stdDeviation="0.20637525"/>
  </filter>
 </defs>
 <g fill-rule="evenodd">
  <path transform="scale(3.7796)" d="m3.4395 1.3543c-0.73289 0-1.3229 0.59001-1.3229 1.3229v12.171c0 0.73289 0.59001 1.3229 1.3229 1.3229h10.054c0.73289 0 1.3229-0.59001 1.3229-1.3229v-10.319l-3.175-3.175z" filter="url(#a)" opacity=".15" stroke-width=".26458" style="paint-order:stroke fill markers"/>
  <g transform="scale(3.7796)">
   <path transform="scale(.26458)" d="m13 4c-2.77 0-5 2.23-5 5v46c0 2.77 2.23 5 5 5h38c2.77 0 5-2.23 5-5v-39l-12-12z" fill="#4d4d4d" style="paint-order:stroke fill markers"/>
   <path d="m14.816 4.2332-3.1749-3.1749v1.852c0 0.73288 0.59001 1.3229 1.3229 1.3229z" fill="#fff" opacity=".35" style="paint-order:stroke fill markers"/>
  </g>
  <path d="m43.998 11v0.58399c0 3.0009 2.23 5.4162 5 5.4162h6.9998l5.37e-4 -1.0002-7.0006 1.89e-4c-2.77 7.5e-5 -5-2.23-5-5z" opacity=".1" stroke-width="3.9338" style="paint-order:stroke fill markers"/>
 </g>
 <g>
  <g fill="none">
   <path d="m21 31.513c7.043 0 8.3464 8.9615 11.453 8.9893 3.1068 0.02484 4.5065-9.0108 11.547-9.0108" stroke="#1d99f3"/>
   <path d="m21 30.545c7.043 0 8.4753-6.1008 11.485-6.0943 2.9904 0.0064 4.4749 7.0415 11.515 7.0415" stroke="#da4453"/>
   <path d="m21 30.545c7.043 0 7.4697-10.014 11.47-10.014s4.4901 10.961 11.53 10.961" stroke="#d6d6d6"/>
  </g>
  <g fill="#d6d6d6" style="">
   <rect x="20" y="20" width="1" height="23" color="#000000" color-rendering="auto" image-rendering="auto" shape-rendering="auto" stroke-width="1.109"/>
   <g style="">
    <rect x="20" y="31" width="24" height="1"/>
    <rect x="26" y="30" width="1" height="3"/>
    <rect x="32" y="30" width="1" height="3"/>
    <rect x="38" y="30" width="1" height="3"/>
   </g>
  </g>
 </g>
</svg>
