<svg width="64" height="64" version="1.1" viewBox="0 0 64 64" xmlns="http://www.w3.org/2000/svg">
 <defs>
  <filter id="a" x="-.039001" y="-.033428" width="1.078" height="1.0669" color-interpolation-filters="sRGB">
   <feGaussianBlur stdDeviation="0.20637525"/>
  </filter>
 </defs>
 <path transform="scale(3.7796)" d="m3.4395 1.3543c-0.73289 0-1.3229 0.59001-1.3229 1.3229v12.171c0 0.73289 0.59001 1.3229 1.3229 1.3229h10.054c0.73289 0 1.3229-0.59001 1.3229-1.3229v-10.319l-3.175-3.175z" filter="url(#a)" opacity=".15" stroke-width=".26458" style="paint-order:stroke fill markers"/>
 <g transform="scale(3.7796)" fill-rule="evenodd">
  <path transform="scale(.26458)" d="m13 4c-2.77 0-5 2.23-5 5v46c0 2.77 2.23 5 5 5h38c2.77 0 5-2.23 5-5v-39l-12-12z" fill="#235923" style="paint-order:stroke fill markers"/>
  <path d="m14.816 4.2332-3.1749-3.1749v1.852c0 0.73288 0.59001 1.3229 1.3229 1.3229z" fill="#fff" opacity=".35" style="paint-order:stroke fill markers"/>
 </g>
 <path d="m43.998 11v0.58399c0 3.0009 2.23 5.4162 5 5.4162h6.9998l5.37e-4 -1.0002-7.0006 1.89e-4c-2.77 7.5e-5 -5-2.23-5-5z" opacity=".1" stroke-width="3.9338" style="paint-order:stroke fill markers"/>
 <path d="m13 4.002c-1.1685 0-2.2267 0.41326-3.0762 1.0801h0.11914v2.1895h-1.7188c-0.12895 0.34987-0.23106 0.71153-0.2793 1.0938h1.998v2.1875h-2.043v1.0957h2.043v2.1875h-2.043v1.0938h2.043v2.1895h-2.043v1.0938h2.043v2.1875h-2.043v1.0957h2.043v2.1875h-2.043v1.0938h2.043v2.1895h-2.043v1.0938h2.043v2.1875h-2.043v1.0957h2.043v2.1875h-2.043v1.0938h2.043v2.1895h-2.043v1.0938h2.043v2.1895h-2.043v1.0938h2.043v2.1875h-2.043v1.0938h2.043v2.1895h-2.043v1.0938h2.043v2.1895h-2.043v1.0938h2.043v2.1875h-2.043v1.0938h2.043v2.1895h-1.7871c0.12224 0.38698 0.28104 0.7543 0.48828 1.0938h1.2988v1.418c0.33728 0.24833 0.70066 0.45914 1.0957 0.61719v-2.0352h2.1875v2.1895h1.0938v-2.1895h2.1895v2.1895h1.0938v-2.1895h2.1875v2.1895h1.0957v-2.1895h2.1875v2.1895h1.0938v-2.1895h2.1895v2.1895h1.0938v-2.1895h2.1895v2.1895h1.0938v-2.1895h2.1875v2.1895h1.0938v-2.1895h2.1895v2.1895h1.0938v-2.1895h2.1895v2.1895h1.0938v-2.1895h2.1875v2.1895h1.0957v-2.1895h2.1875v2.1895h1.0938v-2.1895h2.1895v2.1895h1.0938v-2.1895h2.1875v2.0801c0.38816-0.14181 0.75985-0.31468 1.0957-0.54297v-1.5371h1.4434c0.20724-0.33945 0.36604-0.70676 0.48828-1.0938h-1.9316v-2.1895h2.1875v-1.0938h-2.1875v-2.1875h2.1875v-1.0938h-2.1875v-2.1895h2.1875v-1.0938h-2.1875v-2.1895h2.1875v-1.0938h-2.1875v-2.1875h2.1875v-1.0938h-2.1875v-2.1895h2.1875v-1.0938h-2.1875v-2.1895h2.1875v-1.0938h-2.1875v-2.1875h2.1875v-1.0957h-2.1875v-2.1875h2.1875v-1.0938h-2.1875v-2.1895h2.1875v-1.0938h-2.1875v-2.1875h2.1875v-1.0957h-2.1875v-2.1875h2.1875v-1.0938h-2.1875v-1.1191h-1.0957v1.1191h-2.1875v-1.1191h-1.0938v1.1191h-2.1895v-1.4512c-0.38902-0.14541-0.75808-0.32614-1.0938-0.55859v2.0098h-2.1875v-2.1895h1.9688c-0.40117-0.31301-0.76356-0.6739-1.0527-1.0938h-0.91602v-2.1875h0.08008c-0.02743-0.2129-0.04687-0.42783-0.04687-0.64844v-0.44727h-0.0332v-2.1875h0.0332v-1.0938h-0.0332v-2.1895h0.0332v-1.0801h-30.998zm-1.8613 1.0801h2.1875v2.1895h-2.1875zm3.2812 0h2.1895v2.1895h-2.1895zm3.2832 0h2.1875v2.1895h-2.1875zm3.2832 0h2.1875v2.1895h-2.1875zm3.2812 0h2.1895v2.1895h-2.1895zm3.2832 0h2.1895v2.1895h-2.1895zm3.2832 0h2.1875v2.1895h-2.1875zm3.2812 0h2.1895v2.1895h-2.1895zm3.2832 0h2.1895v2.1895h-2.1895zm3.2832 0h2.1875v2.1895h-2.1875zm-29.543 3.2832h2.1875v2.1875h-2.1875zm3.2812 0h2.1895v2.1875h-2.1895zm3.2832 0h2.1875v2.1875h-2.1875zm3.2832 0h2.1875v2.1875h-2.1875zm3.2812 0h2.1895v2.1875h-2.1895zm3.2832 0h2.1895v2.1875h-2.1895zm3.2832 0h2.1875v2.1875h-2.1875zm3.2812 0h2.1895v2.1875h-2.1895zm3.2832 0h2.1895v2.1875h-2.1895zm3.2832 0h2.1875v2.1875h-2.1875zm-29.543 3.2832h2.1875v2.1875h-2.1875zm3.2812 0h2.1895v2.1875h-2.1895zm3.2832 0h2.1875v2.1875h-2.1875zm3.2832 0h2.1875v2.1875h-2.1875zm3.2812 0h2.1895v2.1875h-2.1895zm3.2832 0h2.1895v2.1875h-2.1895zm3.2832 0h2.1875v2.1875h-2.1875zm3.2812 0h2.1895v2.1875h-2.1895zm3.2832 0h2.1895v2.1875h-2.1895zm3.2832 0h2.1875v2.1875h-2.1875zm-29.543 3.2812h2.1875v2.1895h-2.1875zm3.2812 0h2.1895v2.1895h-2.1895zm3.2832 0h2.1875v2.1895h-2.1875zm3.2832 0h2.1875v2.1895h-2.1875zm3.2812 0h2.1895v2.1895h-2.1895zm3.2832 0h2.1895v2.1895h-2.1895zm3.2832 0h2.1875v2.1895h-2.1875zm3.2812 0h2.1895v2.1895h-2.1895zm3.2832 0h2.1895v2.1895h-2.1895zm3.2832 0h2.1875v2.1895h-2.1875zm-29.543 3.2832h2.1875v2.1875h-2.1875zm3.2812 0h2.1895v2.1875h-2.1895zm3.2832 0h2.1875v2.1875h-2.1875zm3.2832 0h2.1875v2.1875h-2.1875zm3.2812 0h2.1895v2.1875h-2.1895zm3.2832 0h2.1895v2.1875h-2.1895zm3.2832 0h2.1875v2.1875h-2.1875zm3.2812 0h2.1895v2.1875h-2.1895zm3.2832 0h2.1895v2.1875h-2.1895zm3.2832 0h2.1875v2.1875h-2.1875zm3.2832 0h2.1875v2.1875h-2.1875zm3.2812 0h2.1895v2.1875h-2.1895zm3.2832 0h2.1875v2.1875h-2.1875zm-39.391 3.2832h2.1875v2.1875h-2.1875zm3.2812 0h2.1895v2.1875h-2.1895zm3.2832 0h2.1875v2.1875h-2.1875zm3.2832 0h2.1875v2.1875h-2.1875zm3.2812 0h2.1895v2.1875h-2.1895zm3.2832 0h2.1895v2.1875h-2.1895zm3.2832 0h2.1875v2.1875h-2.1875zm3.2812 0h2.1895v2.1875h-2.1895zm3.2832 0h2.1895v2.1875h-2.1895zm3.2832 0h2.1875v2.1875h-2.1875zm3.2832 0h2.1875v2.1875h-2.1875zm3.2812 0h2.1895v2.1875h-2.1895zm3.2832 0h2.1875v2.1875h-2.1875zm-39.391 3.2812h2.1875v2.1895h-2.1875zm3.2812 0h2.1895v2.1895h-2.1895zm3.2832 0h2.1875v2.1895h-2.1875zm3.2832 0h2.1875v2.1895h-2.1875zm3.2812 0h2.1895v2.1895h-2.1895zm3.2832 0h2.1895v2.1895h-2.1895zm3.2832 0h2.1875v2.1895h-2.1875zm3.2812 0h2.1895v2.1895h-2.1895zm3.2832 0h2.1895v2.1895h-2.1895zm3.2832 0h2.1875v2.1895h-2.1875zm3.2832 0h2.1875v2.1895h-2.1875zm3.2812 0h2.1895v2.1895h-2.1895zm3.2832 0h2.1875v2.1895h-2.1875zm-39.391 3.2832h2.1875v2.1875h-2.1875zm3.2812 0h2.1895v2.1875h-2.1895zm3.2832 0h2.1875v2.1875h-2.1875zm3.2832 0h2.1875v2.1875h-2.1875zm3.2812 0h2.1895v2.1875h-2.1895zm3.2832 0h2.1895v2.1875h-2.1895zm3.2832 0h2.1875v2.1875h-2.1875zm3.2812 0h2.1895v2.1875h-2.1895zm3.2832 0h2.1895v2.1875h-2.1895zm3.2832 0h2.1875v2.1875h-2.1875zm3.2832 0h2.1875v2.1875h-2.1875zm3.2812 0h2.1895v2.1875h-2.1895zm3.2832 0h2.1875v2.1875h-2.1875zm-39.391 3.2832h2.1875v2.1875h-2.1875zm3.2812 0h2.1895v2.1875h-2.1895zm3.2832 0h2.1875v2.1875h-2.1875zm3.2832 0h2.1875v2.1875h-2.1875zm3.2812 0h2.1895v2.1875h-2.1895zm3.2832 0h2.1895v2.1875h-2.1895zm3.2832 0h2.1875v2.1875h-2.1875zm3.2812 0h2.1895v2.1875h-2.1895zm3.2832 0h2.1895v2.1875h-2.1895zm3.2832 0h2.1875v2.1875h-2.1875zm3.2832 0h2.1875v2.1875h-2.1875zm3.2812 0h2.1895v2.1875h-2.1895zm3.2832 0h2.1875v2.1875h-2.1875zm-39.391 3.2812h2.1875v2.1895h-2.1875zm3.2812 0h2.1895v2.1895h-2.1895zm3.2832 0h2.1875v2.1895h-2.1875v-1.0938zm3.2832 0h2.1875v2.1895h-2.1875v-1.0938zm3.2812 0h2.1895v2.1895h-2.1895v-1.0938zm3.2832 0h2.1895v2.1895h-2.1895v-1.0938zm3.2832 0h2.1875v2.1895h-2.1875v-1.0938zm3.2812 0h2.1895v2.1895h-2.1895v-1.0938zm3.2832 0h2.1895v2.1895h-2.1895v-1.0938zm3.2832 0h2.1875v2.1895h-2.1875v-1.0938zm3.2832 0h2.1875v2.1895h-2.1875v-1.0938zm3.2812 0h2.1895v2.1895h-2.1895v-1.0938zm3.2832 0h2.1875v2.1895h-2.1875zm-39.391 3.2832h2.1875v2.1895h-2.1875zm3.2812 0h2.1895v2.1895h-2.1895zm3.2832 0h2.1875v2.1895h-2.1875zm3.2832 0h2.1875v2.1895h-2.1875v-1.0957zm3.2812 0h2.1895v2.1895h-2.1895v-1.0957zm3.2832 0h2.1895v2.1895h-2.1895v-1.0957zm3.2832 0h2.1875v2.1895h-2.1875v-1.0957zm3.2812 0h2.1895v2.1895h-2.1895v-1.0957zm3.2832 0h2.1895v2.1895h-2.1895v-1.0957zm3.2832 0h2.1875v2.1895h-2.1875v-1.0957zm3.2832 0h2.1875v2.1895h-2.1875v-1.0957zm3.2812 0h2.1895v2.1895h-2.1895v-1.0957zm3.2832 0h2.1875v2.1895h-2.1875v-1.0957zm-39.391 3.2832h2.1875v2.1875h-2.1875zm3.2812 0h2.1895v2.1875h-2.1895zm3.2832 0h2.1875v2.1875h-2.1875zm3.2832 0h2.1875v2.1875h-2.1875zm3.2812 0h2.1895v2.1875h-2.1895zm3.2832 0h2.1895v2.1875h-2.1895zm3.2832 0h2.1875v2.1875h-2.1875zm3.2812 0h2.1895v2.1875h-2.1895zm3.2832 0h2.1895v2.1875h-2.1895zm3.2832 0h2.1875v2.1875h-2.1875zm3.2832 0h2.1875v2.1875h-2.1875zm3.2812 0h2.1895v2.1875h-2.1895zm3.2832 0h2.1875v2.1875h-2.1875zm-39.391 3.2812h2.1875v2.1895h-2.1875zm3.2812 0h2.1895v2.1895h-2.1895zm3.2832 0h2.1875v2.1895h-2.1875zm3.2832 0h2.1875v2.1895h-2.1875zm3.2812 0h2.1895v2.1895h-2.1895zm3.2832 0h2.1895v2.1895h-2.1895zm3.2832 0h2.1875v2.1895h-2.1875zm3.2812 0h2.1895v2.1895h-2.1895zm3.2832 0h2.1895v2.1895h-2.1895zm3.2832 0h2.1875v2.1895h-2.1875zm3.2832 0h2.1875v2.1895h-2.1875zm3.2812 0h2.1895v2.1895h-2.1895zm3.2832 0h2.1875v2.1895h-2.1875zm-39.391 3.2832h2.1875v2.1895h-2.1875zm3.2812 0h2.1895v2.1895h-2.1895zm3.2832 0h2.1875v2.1895h-2.1875zm3.2832 0h2.1875v2.1895h-2.1875zm3.2812 0h2.1895v2.1895h-2.1895zm3.2832 0h2.1895v2.1895h-2.1895zm3.2832 0h2.1875v2.1895h-2.1875zm3.2812 0h2.1895v2.1895h-2.1895zm3.2832 0h2.1895v2.1895h-2.1895zm3.2832 0h2.1875v2.1895h-2.1875zm3.2832 0h2.1875v2.1895h-2.1875v-1.0957zm3.2812 0h2.1895v2.1895h-2.1895v-1.0957zm3.2832 0h2.1875v2.1895h-2.1875v-1.0957zm-39.391 3.2832h2.1875v2.1875h-2.1875zm3.2812 0h2.1895v2.1875h-2.1895zm3.2832 0h2.1875v2.1875h-2.1875zm3.2832 0h2.1875v2.1875h-2.1875zm3.2812 0h2.1895v2.1875h-2.1895zm3.2832 0h2.1895v2.1875h-2.1895zm3.2832 0h2.1875v2.1875h-2.1875zm3.2812 0h2.1895v2.1875h-2.1895zm3.2832 0h2.1895v2.1875h-2.1895zm3.2832 0h2.1875v2.1875h-2.1875zm3.2832 0h2.1875v2.1875h-2.1875zm3.2812 0h2.1895v2.1875h-2.1895zm3.2832 0h2.1875v2.1875h-2.1875zm-39.391 3.2812h2.1875v2.1895h-2.1875zm3.2812 0h2.1895v2.1895h-2.1895zm3.2832 0h2.1875v2.1895h-2.1875zm3.2832 0h2.1875v2.1895h-2.1875zm3.2812 0h2.1895v2.1895h-2.1895zm3.2832 0h2.1895v2.1895h-2.1895zm3.2832 0h2.1875v2.1895h-2.1875zm3.2812 0h2.1895v2.1895h-2.1895zm3.2832 0h2.1895v2.1895h-2.1895zm3.2832 0h2.1875v2.1895h-2.1875zm3.2832 0h2.1875v2.1895h-2.1875zm3.2812 0h2.1895v2.1895h-2.1895zm3.2832 0h2.1875v2.1895h-2.1875z" color="#000000" color-rendering="auto" fill="#fff" image-rendering="auto" opacity=".1" shape-rendering="auto" stroke-width="1.0942"/>
 <path d="m20 50h24v-20h-24zm2-18h4v4h-4zm6.0001 0h14v4h-14zm-6.0001 6.0001h4v4h-4zm6.0001 0h14v4h-14zm-6.0001 6.0001h4v4h-4zm6.0001 0h14v4h-14z" enable-background="new" fill="#fff" stroke-width="3.7796"/>
</svg>
