<svg width="64" height="64" version="1.1" viewBox="0 0 16.933 16.933" xmlns="http://www.w3.org/2000/svg">
 <defs>
  <filter id="a-3" x="-.039001" y="-.033428" width="1.078" height="1.0669" color-interpolation-filters="sRGB">
   <feGaussianBlur stdDeviation="0.20637525"/>
  </filter>
 </defs>
 <g fill-rule="evenodd">
  <path d="m3.4395 1.3543c-0.73289 0-1.3229 0.59001-1.3229 1.3229v12.171c0 0.73289 0.59001 1.3229 1.3229 1.3229h10.054c0.73289 0 1.3229-0.59001 1.3229-1.3229v-10.319l-3.175-3.175z" filter="url(#a-3)" opacity=".15" stroke-width=".26458" style="paint-order:stroke fill markers"/>
  <path d="m3.4395 1.0588c-0.73289 0-1.3229 0.58999-1.3229 1.3229v12.171c0 0.73286 0.59001 1.3229 1.3229 1.3229h10.054c0.73289 0 1.3229-0.58999 1.3229-1.3229v-10.319l-3.175-3.1749z" fill="#84c835" stroke-width=".26458" style="paint-order:stroke fill markers"/>
  <path d="m14.816 4.2332-3.1749-3.1749v1.852c0 0.73288 0.59001 1.3229 1.3229 1.3229z" fill="#fff" opacity=".35" style="paint-order:stroke fill markers"/>
 </g>
 <ellipse cx="8.4665" cy="10.848" rx="2.3812" ry="1.0583" opacity=".1" stroke-linecap="round" stroke-linejoin="round" stroke-width="1.0304" style="paint-order:stroke fill markers"/>
 <ellipse cx="8.4665" cy="10.848" rx="1.5875" ry=".52916" opacity=".1" stroke-linecap="round" stroke-linejoin="round" stroke-width=".59491" style="paint-order:stroke fill markers"/>
 <path d="m8.4665 4.4978c-1.315 0-2.3812 1.0662-2.3812 2.3812s1.5875 3.9687 2.3812 3.9687c0.79373 0 2.3812-2.6537 2.3812-3.9687s-1.0662-2.3812-2.3812-2.3812zm0 1.0582c0.73063 0 1.323 0.59232 1.323 1.323 0 0.73063-0.59232 1.323-1.323 1.323s-1.323-0.59232-1.323-1.323c0-0.73063 0.59232-1.323 1.323-1.323z" fill="#fff" fill-rule="evenodd"/>
 <path d="m11.641 2.9104v0.15451c0 0.79397 0.59 1.433 1.3229 1.433h1.852l1.42e-4 -0.26463-1.8522 5e-5c-0.73289 1.98e-5 -1.3229-0.59001-1.3229-1.3229z" fill-rule="evenodd" opacity=".1" stroke-width="1.0408" style="paint-order:stroke fill markers"/>
</svg>
