<svg width="64" height="64" version="1.1" viewBox="0 0 16.933 16.933" xmlns="http://www.w3.org/2000/svg">
 <defs>
  <filter id="a" x="-.039001" y="-.033428" width="1.078" height="1.0669" color-interpolation-filters="sRGB">
   <feGaussianBlur stdDeviation="0.20637525"/>
  </filter>
 </defs>
 <path d="m3.4395 1.3543c-0.73289 0-1.3229 0.59001-1.3229 1.3229v12.171c0 0.73289 0.59001 1.3229 1.3229 1.3229h10.054c0.73289 0 1.3229-0.59001 1.3229-1.3229v-10.319l-3.175-3.175z" fill-rule="evenodd" filter="url(#a)" opacity=".15" stroke-width=".26458" style="paint-order:stroke fill markers"/>
 <g fill-rule="evenodd">
  <path transform="scale(.26458)" d="m13 4c-2.77 0-5 2.23-5 5v46c0 2.77 2.23 5 5 5h38c2.77 0 5-2.23 5-5v-39l-12-12z" fill="#f46062" style="paint-order:stroke fill markers"/>
  <path d="m14.816 4.2332-3.1749-3.1749v1.852c0 0.73288 0.59001 1.3229 1.3229 1.3229z" fill="#fff" opacity=".35" style="paint-order:stroke fill markers"/>
 </g>
 <path d="M5.16 10.58c0-.123.016-.226.049-.309a.537.537 0 0 1 .359-.32.947.947 0 0 1 .516 0 .536.536 0 0 1 .359.32.787.787 0 0 1 .053.309.765.765 0 0 1-.054.301.539.539 0 0 1-.359.325.859.859 0 0 1-.516 0 .54.54 0 0 1-.358-.325.817.817 0 0 1-.05-.301" fill="#fff" font-family="Droid Sans" font-size="29.913" font-weight="700" letter-spacing="0" overflow="visible" stroke-linejoin="round" word-spacing="0"/>
 <path d="M8.83 8.843c0 .46.065.807.195 1.042.13.231.34.347.632.347.29 0 .5-.117.629-.351.13-.235.194-.58.194-1.038 0-.46-.065-.804-.194-1.03-.13-.228-.342-.343-.637-.343-.29 0-.499.115-.628.343-.127.226-.19.57-.19 1.03m2.935 0c0 .386-.05.727-.15 1.025a2.041 2.041 0 0 1-.42.753 1.8 1.8 0 0 1-.67.467 2.365 2.365 0 0 1-.885.157c-.306 0-.587-.053-.844-.157a1.882 1.882 0 0 1-.665-.467 2.186 2.186 0 0 1-.434-.753 3.082 3.082 0 0 1-.157-1.025c0-.383.048-.724.144-1.021.1-.298.24-.547.422-.749a1.8 1.8 0 0 1 .67-.463c.262-.104.558-.157.889-.157.305 0 .587.053.843.157.256.105.477.26.661.463.188.202.334.451.439.749.104.297.157.638.157 1.02" fill="#fff" font-family="Droid Sans" font-size="32" font-weight="700" letter-spacing="0" word-spacing="0"/>
 <path d="m11.641 2.9104v0.15451c0 0.79397 0.59 1.433 1.3229 1.433h1.852l1.42e-4 -0.26463-1.8522 5e-5c-0.73289 1.98e-5 -1.3229-0.59001-1.3229-1.3229z" fill-rule="evenodd" opacity=".1" stroke-width="1.0408" style="paint-order:stroke fill markers"/>
</svg>
