<svg width="64" height="64" version="1.1" viewBox="0 0 16.933 16.933" xmlns="http://www.w3.org/2000/svg">
 <defs>
  <filter id="a" x="-.039001" y="-.033428" width="1.078" height="1.0669" color-interpolation-filters="sRGB">
   <feGaussianBlur stdDeviation="0.20637525"/>
  </filter>
 </defs>
 <path d="m3.4395 1.3543c-0.73289 0-1.3229 0.59001-1.3229 1.3229v12.171c0 0.73289 0.59001 1.3229 1.3229 1.3229h10.054c0.73289 0 1.3229-0.59001 1.3229-1.3229v-10.319l-3.175-3.175z" fill-rule="evenodd" filter="url(#a)" opacity=".15" stroke-width=".26458" style="paint-order:stroke fill markers"/>
 <path d="m3.4395 1.0583c-0.73288 0-1.3229 0.58997-1.3229 1.3229v12.171c0 0.73284 0.59001 1.3229 1.3229 1.3229h10.054c0.73288 0 1.3229-0.58997 1.3229-1.3229v-10.319l-3.1749-3.1747z" fill="#55c1ec" fill-rule="evenodd" stroke-width=".99998" style="paint-order:stroke fill markers"/>
 <rect x="19.588" y="-1.1477" width="16.933" height="16.933" rx="0" ry="0" fill="none" opacity=".75" stroke-width=".26458"/>
 <path d="m14.816 4.2332-3.1749-3.1749v1.852c0 0.73288 0.59001 1.3229 1.3229 1.3229z" fill="#fff" fill-rule="evenodd" opacity=".35" style="paint-order:stroke fill markers"/>
 <path d="m7.5405 4.7624-0.08159 0.97566a2.9104 2.9104 0 0 0-0.85066 0.49195l-0.88674-0.41759-0.92602 1.6041 0.80515 0.55907a2.9104 2.9104 0 0 0-0.04451 0.49095 2.9104 2.9104 0 0 0 0.0424 0.49295l-0.80304 0.55706 0.92602 1.6041 0.88472-0.41649a2.9104 2.9104 0 0 0 0.85257 0.48884l0.0817 0.97767h1.852l0.08159-0.97566a2.9104 2.9104 0 0 0 0.85067-0.49195l0.88673 0.4176 0.92602-1.6041-0.80514-0.55907a2.9104 2.9104 0 0 0 0.04451-0.49094 2.9104 2.9104 0 0 0-0.0424-0.49296l0.80303-0.55706-0.92602-1.6041-0.88472 0.41649a2.9104 2.9104 0 0 0-0.85257-0.48883l-0.081694-0.97767h-1.852zm0.92602 2.4694a1.2347 1.2347 0 0 1 1.2347 1.2347 1.2347 1.2347 0 0 1-1.2347 1.2347 1.2347 1.2347 0 0 1-1.2347-1.2347 1.2347 1.2347 0 0 1 1.2347-1.2347z" enable-background="new" fill="#fff"/>
 <path d="m11.641 2.9104v0.15451c0 0.79397 0.59 1.433 1.3229 1.433h1.852l1.42e-4 -0.26463-1.8522 5e-5c-0.73289 1.98e-5 -1.3229-0.59001-1.3229-1.3229z" fill-rule="evenodd" opacity=".1" stroke-width="1.0408" style="paint-order:stroke fill markers"/>
</svg>
