<svg width="64" height="64" version="1.1" viewBox="0 0 16.933 16.933" xmlns="http://www.w3.org/2000/svg">
 <defs>
  <filter id="a" x="-.039001" y="-.033428" width="1.078" height="1.0669" color-interpolation-filters="sRGB">
   <feGaussianBlur stdDeviation="0.20637525"/>
  </filter>
 </defs>
 <path d="m3.4395 1.3543c-0.73289 0-1.3229 0.59001-1.3229 1.3229v12.171c0 0.73289 0.59001 1.3229 1.3229 1.3229h10.054c0.73289 0 1.3229-0.59001 1.3229-1.3229v-10.319l-3.175-3.175z" fill-rule="evenodd" filter="url(#a)" opacity=".15" stroke-width=".26458" style="paint-order:stroke fill markers"/>
 <g fill-rule="evenodd">
  <path transform="scale(.26458)" d="m13 4c-2.77 0-5 2.23-5 5v46c0 2.77 2.23 5 5 5h38c2.77 0 5-2.23 5-5v-39l-12-12z" fill="#fd736f" style="paint-order:stroke fill markers"/>
  <path d="m14.816 4.2332-3.1749-3.1749v1.852c0 0.73288 0.59001 1.3229 1.3229 1.3229z" fill="#fff" opacity=".35" style="paint-order:stroke fill markers"/>
 </g>
 <g transform="translate(-29.643 1.1705)" fill="#fff" opacity=".75">
  <path d="m34.671 7.0315v1.7198c0 0.07329 0.059 0.13229 0.13229 0.13229h0.79374c0.07329 0 0.13229-0.059 0.13229-0.13229v-1.7198zm0.26458 1.0583h0.52916v0.52916h-0.52916z" color="#000000"/>
  <path d="m35.2-0.11215v0.52916h0.52916v-0.52916zm0 0.52916h-0.52916v0.52916h0.52916zm0 0.52916v0.52916h0.52916v-0.52916zm0 0.52916h-0.52916v0.52916h0.52916zm0 0.52916v0.52916h0.52916v-0.52916zm0 0.52916h-0.52916v0.52916h0.52916zm0 0.52916v0.52916h0.52916v-0.52916zm0 0.52916h-0.52916v0.52916h0.52916zm0 0.52916v0.52916h0.52916v-0.52916zm0 0.52916h-0.52916v0.52916h0.52916zm0 0.52916v0.52916h0.52916v-0.52916zm0 0.52916h-0.52916v0.52916h0.52916zm0 0.52916v0.52916h0.52916v-0.52916z" color="#000000"/>
 </g>
 <path d="m11.641 2.9104v0.15451c0 0.79397 0.59001 1.433 1.3229 1.433h1.852l1.42e-4 -0.26463-1.8522 5e-5c-0.73288 1.99e-5 -1.3229-0.59001-1.3229-1.3229z" fill-rule="evenodd" opacity=".1" stroke-width="1.0408" style="paint-order:stroke fill markers"/>
 <g transform="matrix(.33072 0 0 .33072 6.879 8.0035)" fill="#fff" opacity=".75" stroke-width="1.1429">
  <path d="m11.2 3a8 8 0 0 0-8 8 8 8 0 0 0 8 8 8 8 0 0 0 8-8 8 8 0 0 0-8-8zm0 1a7 7 0 0 1 7 7 7 7 0 0 1-7 7 7 7 0 0 1-7-7 7 7 0 0 1 7-7z"/>
  <path d="m11 6a5 5 0 0 0-3.318 1.268l0.709 0.709a4 4 0 0 1 2.609-0.977 4 4 0 0 1 4 4h1a5 5 0 0 0-5-5zm-4.525 2.889a5 5 0 0 0-0.475 2.111h1a4 4 0 0 1 0.238-1.348z"/>
  <path d="m12.344 8.166-2.146 4.977a1.2 1.2 0 0 0-0.278 0.585l-7e-3 0.014h6e-3c-0.09 0.562 0.221 1.086 0.719 1.212 0.499 0.126 1.021-0.19 1.208-0.727l7e-3 2e-3v-0.03l0.024-0.075c0.044-0.182 0.047-0.371 7e-3 -0.55z"/>
 </g>
</svg>
