<svg width="64" height="64" version="1.1" viewBox="0 0 16.933 16.933" xmlns="http://www.w3.org/2000/svg">
 <defs>
  <filter id="a" x="-.039001" y="-.033428" width="1.078" height="1.0669" color-interpolation-filters="sRGB">
   <feGaussianBlur stdDeviation="0.20637525"/>
  </filter>
 </defs>
 <g fill-rule="evenodd">
  <path d="m3.4395 1.3543c-0.73289 0-1.3229 0.59001-1.3229 1.3229v12.171c0 0.73289 0.59001 1.3229 1.3229 1.3229h10.054c0.73289 0 1.3229-0.59001 1.3229-1.3229v-10.319l-3.175-3.175z" filter="url(#a)" opacity=".15" stroke-width=".26458" style="paint-order:stroke fill markers"/>
  <path transform="scale(.26458)" d="m13 4c-2.77 0-5 2.23-5 5v46c0 2.77 2.23 5 5 5h38c2.77 0 5-2.23 5-5v-39l-12-12z" fill="#f4f4f4" style="paint-order:stroke fill markers"/>
  <path d="m14.816 4.2332-3.1749-3.1749v1.852c0 0.73288 0.59001 1.3229 1.3229 1.3229z" fill="#bbb" style="paint-order:stroke fill markers"/>
  <path d="m9.5725 5.2915-1.692 4e-3c0.184 0.116 0.428 0.377 0.63 0.676 0.224 0.333 0.403 0.717 0.538 1.052l-0.478 0.276 1.523-3e-3 0.711-1.332-0.379 0.252-0.24-0.454c-0.161-0.256-0.309-0.442-0.613-0.47zm-2.43 0.118-0.738 1.086 1.3 0.865 0.697-1.308c-0.193-0.283-0.476-0.697-0.924-0.707h-0.016a0.86 0.86 0 0 0-0.319 0.064zm2.596 2.62 0.606 1.305 0.521 4e-3c0.297 3e-3 0.77-0.42 0.776-0.74v-0.023l-0.593-1.382zm-4.447-0.434 0.453 0.246-0.152 0.32c-0.492 1.044 0.13 1.553 0.866 2.569a1.074 1.074 0 0 1-6e-3 -0.784l0.653-1.389 0.41 0.212-0.81-1.251zm3.496 2.741 0.697 1.305 4e-3 -0.538h0.341c1.103 0 1.256-0.814 1.787-1.964a0.945 0.945 0 0 1-0.66 0.353l-1.468 4e-3 -4e-3 -0.481zm-1.922-0.84-0.237 0.487c-0.14 0.287 0.02 0.951 0.3 1.077h1.446l0.01-1.615z" fill="#8a92a2"/>
  <path d="m11.641 2.9104v0.15451c0 0.79397 0.59 1.433 1.3229 1.433h1.852l1.42e-4 -0.26463-1.8522 5e-5c-0.73289 1.98e-5 -1.3229-0.59001-1.3229-1.3229z" opacity=".1" stroke-width="1.0408" style="paint-order:stroke fill markers"/>
 </g>
</svg>
