<svg width="64" height="64" version="1.1" viewBox="0 0 16.933 16.933" xmlns="http://www.w3.org/2000/svg">
 <defs>
  <filter id="a-3" x="-.039001" y="-.033428" width="1.078" height="1.0669" color-interpolation-filters="sRGB">
   <feGaussianBlur stdDeviation="0.20637525"/>
  </filter>
 </defs>
 <g fill-rule="evenodd">
  <path d="m3.4395 1.3543c-0.73289 0-1.3229 0.59001-1.3229 1.3229v12.171c0 0.73289 0.59001 1.3229 1.3229 1.3229h10.054c0.73289 0 1.3229-0.59001 1.3229-1.3229v-10.319l-3.175-3.175z" filter="url(#a-3)" opacity=".15" stroke-width=".26458" style="paint-order:stroke fill markers"/>
  <path d="m3.4395 1.0588c-0.73289 0-1.3229 0.58999-1.3229 1.3229v12.171c0 0.73286 0.59001 1.3229 1.3229 1.3229h10.054c0.73289 0 1.3229-0.58999 1.3229-1.3229v-10.319l-3.175-3.1749z" fill="#43a0df" stroke-width=".26458" style="paint-order:stroke fill markers"/>
  <path d="m14.816 4.2332-3.1749-3.1749v1.852c0 0.73288 0.59001 1.3229 1.3229 1.3229z" fill="#fff" opacity=".35" style="paint-order:stroke fill markers"/>
 </g>
 <g transform="translate(-.33229 .26285)" fill="#fff">
  <path d="m5.5003 5.2931c-0.079345 0.00999-0.13913 0.077033-0.14 0.157v2.861c0 0.084 0.072 0.158 0.156 0.158h1.43v0.529h-1.057v0.529h1.8512v-1.588h-1.7342c-0.058563-0.00254-0.10546-0.049437-0.108-0.108v-1.9c-2e-3 -0.05 0.034-0.099 0.082-0.108 0.0083-0.00102 0.016698-0.00102 0.025 0h2.944c0.054 0 0.107 0.05 0.107 0.107v0.68603h0.537v-1.166c-0.00309-0.085396-0.071604-0.15391-0.157-0.157" opacity=".5"/>
  <path d="m8.1473 6.8811a0.165 0.165 0 0 0-0.143 0.157v2.86c0 0.083 0.076 0.158 0.16 0.158h1.427v0.792h1.059v-0.792h1.429a0.164 0.164 0 0 0 0.158-0.158v-2.86a0.165 0.165 0 0 0-0.158-0.158m-3.453 0.53a0.064 0.064 0 0 1 0.019999 0h2.949a0.11 0.11 0 0 1 0.106 0.106v1.905a0.11 0.11 0 0 1-0.106 0.106h-2.95a0.11 0.11 0 0 1-0.106-0.106v-1.905a0.11 0.11 0 0 1 0.087-0.107m-0.093 3.175v0.53h3.175v-0.53"/>
 </g>
 <path d="m11.641 2.9104v0.15451c0 0.79397 0.59 1.433 1.3229 1.433h1.852l1.42e-4 -0.26463-1.8522 5e-5c-0.73289 1.98e-5 -1.3229-0.59001-1.3229-1.3229z" fill-rule="evenodd" opacity=".1" stroke-width="1.0408" style="paint-order:stroke fill markers"/>
</svg>
