<svg width="64" height="64" version="1.1" viewBox="0 0 16.933 16.933" xmlns="http://www.w3.org/2000/svg">
 <defs>
  <filter id="a-3" x="-.039001" y="-.033428" width="1.078" height="1.0669" color-interpolation-filters="sRGB">
   <feGaussianBlur stdDeviation="0.20637525"/>
  </filter>
 </defs>
 <g fill-rule="evenodd">
  <path d="m3.4395 1.3543c-0.73289 0-1.3229 0.59001-1.3229 1.3229v12.171c0 0.73289 0.59001 1.3229 1.3229 1.3229h10.054c0.73289 0 1.3229-0.59001 1.3229-1.3229v-10.319l-3.175-3.175z" filter="url(#a-3)" opacity=".15" stroke-width=".26458" style="paint-order:stroke fill markers"/>
  <path d="m3.4395 1.0588c-0.73289 0-1.3229 0.58999-1.3229 1.3229v12.171c0 0.73286 0.59001 1.3229 1.3229 1.3229h10.054c0.73289 0 1.3229-0.58999 1.3229-1.3229v-10.319l-3.175-3.1749z" fill="#eca973" stroke-width=".26458" style="paint-order:stroke fill markers"/>
  <path d="m14.816 4.2332-3.1749-3.1749v1.852c0 0.73288 0.59001 1.3229 1.3229 1.3229z" fill="#fff" opacity=".35" style="paint-order:stroke fill markers"/>
 </g>
 <g transform="translate(-26.734 1.1705)" fill="#fff" opacity=".75">
  <path d="m34.671 7.0315v1.7198c0 0.07329 0.059 0.13229 0.13229 0.13229h0.79374c0.07329 0 0.13229-0.059 0.13229-0.13229v-1.7198zm0.26458 1.0583h0.52916v0.52916h-0.52916z" color="#000000"/>
  <path d="m35.2-0.11215v0.52916h0.52916v-0.52916zm0 0.52916h-0.52916v0.52916h0.52916zm0 0.52916v0.52916h0.52916v-0.52916zm0 0.52916h-0.52916v0.52916h0.52916zm0 0.52916v0.52916h0.52916v-0.52916zm0 0.52916h-0.52916v0.52916h0.52916zm0 0.52916v0.52916h0.52916v-0.52916zm0 0.52916h-0.52916v0.52916h0.52916zm0 0.52916v0.52916h0.52916v-0.52916zm0 0.52916h-0.52916v0.52916h0.52916zm0 0.52916v0.52916h0.52916v-0.52916zm0 0.52916h-0.52916v0.52916h0.52916zm0 0.52916v0.52916h0.52916v-0.52916z" color="#000000"/>
 </g>
 <path d="m3.7041 12.171v0.26458h3.1749v-0.26458zm0 0.52916v0.26458h2.6458v-0.26458zm0 0.52916v0.26458h3.1749v-0.26458zm0 0.52916v0.26458h2.1166v-0.26458z" color="#000000" fill="#d78a4d"/>
 <g transform="matrix(1.25 0 0 1.25 -.92603 -2.5796)" fill="#d78a4d" stroke-width=".034981" aria-label="CAB">
  <path d="m4.5267 10.416v0.14553q-0.069689-0.06491-0.14894-0.09702-0.078571-0.03211-0.16739-0.03211-0.1749 0-0.26782 0.10727-0.092918 0.10658-0.092918 0.30882 0 0.20155 0.092918 0.30882 0.092918 0.10658 0.26782 0.10658 0.088819 0 0.16739-0.03211 0.079254-0.03211 0.14894-0.09702v0.14416q-0.072422 0.04919-0.15373 0.07379-0.08062 0.0246-0.17081 0.0246-0.23161 0-0.36484-0.14143-0.13323-0.14211-0.13323-0.38739 0-0.24596 0.13323-0.38739 0.13323-0.14211 0.36484-0.14211 0.091552 0 0.17217 0.0246 0.081304 0.02391 0.15236 0.07242z"/>
  <path d="m5.0808 10.473-0.1872 0.50763h0.37509zm-0.077887-0.13596h0.15646l0.38875 1.0201h-0.14348l-0.092918-0.26167h-0.45981l-0.092918 0.26167h-0.14553z"/>
  <path d="m5.8351 10.87v0.37372h0.22136q0.11137 0 0.16466-0.04578 0.053975-0.04646 0.053975-0.14143 0-0.09565-0.053975-0.14074-0.053291-0.04578-0.16466-0.04578zm0-0.4195v0.30745h0.20428q0.10112 0 0.15031-0.03758 0.049875-0.03826 0.049875-0.11615 0-0.0772-0.049875-0.11546-0.049192-0.03826-0.15031-0.03826zm-0.13801-0.11342h0.35254q0.15782 0 0.24323 0.06559 0.085403 0.06559 0.085403 0.18652 0 0.0936-0.043726 0.14894t-0.12845 0.06901q0.1018 0.02186 0.15782 0.09155 0.056707 0.069 0.056707 0.17286 0 0.13664-0.092918 0.21112-0.092918 0.07447-0.26441 0.07447h-0.36621z"/>
 </g>
 <path d="m11.641 2.9104v0.15451c0 0.79397 0.59 1.433 1.3229 1.433h1.852l1.42e-4 -0.26463-1.8522 5e-5c-0.73289 1.98e-5 -1.3229-0.59001-1.3229-1.3229z" fill-rule="evenodd" opacity=".1" stroke-width="1.0408" style="paint-order:stroke fill markers"/>
</svg>
