<svg version="1.1" viewBox="0 0 64 64" xmlns="http://www.w3.org/2000/svg">
 <defs>
  <filter id="a" x="-.039001" y="-.033428" width="1.078" height="1.0669" color-interpolation-filters="sRGB">
   <feGaussianBlur stdDeviation="0.20637525"/>
  </filter>
 </defs>
 <path transform="scale(3.7796)" d="m3.4395 1.3543c-0.73289 0-1.3229 0.59001-1.3229 1.3229v12.171c0 0.73289 0.59001 1.3229 1.3229 1.3229h10.054c0.73289 0 1.3229-0.59001 1.3229-1.3229v-10.319l-3.175-3.175z" fill-rule="evenodd" filter="url(#a)" opacity=".15" stroke-width=".26458" style="paint-order:stroke fill markers"/>
 <g transform="scale(3.7796)" fill-rule="evenodd">
  <path transform="scale(.26458)" d="m13 4c-2.77 0-5 2.23-5 5v46c0 2.77 2.23 5 5 5h38c2.77 0 5-2.23 5-5v-39l-12-12z" fill="#f4f4f4" style="paint-order:stroke fill markers"/>
  <path d="m14.816 4.2332-3.1749-3.1749v1.852c0 0.73288 0.59001 1.3229 1.3229 1.3229z" fill="#bbb" style="paint-order:stroke fill markers"/>
 </g>
 <path d="m41.001 20c-0.35521-0.0038-0.82743 0.05144-1.4557 0.14586l-10.455 1.5986c-2.5242 0.5375-2.5155 0.70467-2.5241 2.8372v17.303c-0.10526-0.07374-0.20912-0.1479-0.31794-0.22084v7.49e-4c-0.80196-0.53742-1.6567-0.91988-2.8047-0.91988-1.438 0-2.2955 0.55061-2.8147 1.2759-0.51913 0.72527-0.69129 1.6394-0.69129 2.3461 0 0.85215 0.29095 1.7616 0.92211 2.4546 0.63116 0.69303 1.6015 1.1784 2.9967 1.1784 1.5755 0 2.6837-0.43994 3.3103-1.2991 0.49328-0.67647 0.76605-1.5803 0.86337-2.695v-0.0032c0.01361-0.13524 0.02343-0.27417 0.03213-0.41727 0.01323-0.22035 0.0102-0.63259 0.0102-0.63259v-13.249c0-1.8927-9.1e-5 -2.0056 2.5248-2.4373l7.4349-1.1662c2.5294-0.33094 2.53-0.1008 2.53 1.3206v12.159c-0.10243-0.07178-0.20361-0.144-0.30947-0.21491v7.49e-4c-0.80196-0.53742-1.6563-0.91988-2.8044-0.91988-1.438 0-2.2959 0.55061-2.815 1.2759-0.51913 0.72523-0.69129 1.6394-0.69129 2.3461 0 0.85215 0.29133 1.7616 0.92245 2.4546 0.63116 0.69306 1.6015 1.1787 2.9967 1.1787 1.5755 0 2.6837-0.44032 3.3103-1.2995 0.49328-0.67647 0.76567-1.5799 0.863-2.6947v-0.0035c0.01361-0.13523 0.02343-0.27379 0.03213-0.41693 0.01323-0.22035 0.01058-0.63293 0.01058-0.63293v-18.432c0-1.66-0.01096-2.2097-1.0765-2.2216z" enable-background="new" fill="#f9d351" stroke-width="3.7796"/>
 <path d="m43.998 11v0.58399c0 3.0009 2.23 5.4162 5 5.4162h6.9998l5.37e-4 -1.0002-7.0006 1.89e-4c-2.77 7.5e-5 -5-2.23-5-5z" fill-rule="evenodd" opacity=".1" stroke-width="3.9338" style="paint-order:stroke fill markers"/>
</svg>
