<svg width="64" height="64" version="1.1" xmlns="http://www.w3.org/2000/svg">
 <defs>
  <filter id="a" x="-.039001" y="-.033428" width="1.078" height="1.0669" color-interpolation-filters="sRGB">
   <feGaussianBlur stdDeviation="0.20637525"/>
  </filter>
 </defs>
 <path transform="scale(3.7796)" d="m3.4395 1.3543c-0.73289 0-1.3229 0.59001-1.3229 1.3229v12.171c0 0.73289 0.59001 1.3229 1.3229 1.3229h10.054c0.73289 0 1.3229-0.59001 1.3229-1.3229v-10.319l-3.175-3.175z" fill-rule="evenodd" filter="url(#a)" opacity=".15" stroke-width=".26458" style="paint-order:stroke fill markers"/>
 <g transform="scale(3.7796)" fill-rule="evenodd">
  <path transform="scale(.26458)" d="m13 4c-2.77 0-5 2.23-5 5v46c0 2.77 2.23 5 5 5h38c2.77 0 5-2.23 5-5v-39l-12-12z" fill="#f4f4f4" style="paint-order:stroke fill markers"/>
  <path d="m14.816 4.2332-3.1749-3.1749v1.852c0 0.73288 0.59001 1.3229 1.3229 1.3229z" fill="#bbb" style="paint-order:stroke fill markers"/>
 </g>
 <g transform="translate(0,4)" fill="#5f656d">
  <path d="m18 19c-0.554 0-1 0.446-1 1v20c0 0.554 0.446 1 1 1h28c0.554 0 1-0.446 1-1v-20c0-0.554-0.446-1-1-1zm20 1a1 1 0 0 1 1 1 1 1 0 0 1-1 1 1 1 0 0 1-1-1 1 1 0 0 1 1-1zm3 0a1 1 0 0 1 1 1 1 1 0 0 1-1 1 1 1 0 0 1-1-1 1 1 0 0 1 1-1zm3 0a1 1 0 0 1 1 1 1 1 0 0 1-1 1 1 1 0 0 1-1-1 1 1 0 0 1 1-1zm-26 3h6v17h-6zm7 0h21v17h-21z" fill-rule="evenodd" style="paint-order:fill markers stroke"/>
  <g transform="translate(-.62892)" aria-label="X">
   <path d="m32 37h1.3233l1.4461-2.7012c0.25921-0.49113 0.51842-1.0096 0.80491-1.6098h0.05457c0.32742 0.60027 0.60027 1.1187 0.85948 1.6098l1.4734 2.7012h1.3915l-2.9195-5.1023 2.7285-4.8977h-1.3233l-1.337 2.5512c-0.24557 0.46385-0.43656 0.88677-0.70941 1.4598h-0.05457c-0.32742-0.57299-0.53206-0.99591-0.79127-1.4598l-1.3643-2.5512h-1.3915l2.7285 4.8295z" fill="#5f656d"/>
  </g>
 </g>
 <path d="m43.998 11v0.58399c0 3.0009 2.23 5.4162 5 5.4162h6.9998l5.37e-4 -1.0002-7.0006 1.89e-4c-2.77 7.5e-5 -5-2.23-5-5z" fill-rule="evenodd" opacity=".1" stroke-width="3.9338" style="paint-order:stroke fill markers"/>
</svg>
