<svg width="64" height="64" version="1.1" xmlns="http://www.w3.org/2000/svg">
 <defs>
  <filter id="a" x="-.039001" y="-.033428" width="1.078" height="1.0669" color-interpolation-filters="sRGB">
   <feGaussianBlur stdDeviation="0.20637525"/>
  </filter>
 </defs>
 <g fill-rule="evenodd">
  <path transform="scale(3.7796)" d="m3.4395 1.3543c-0.73289 0-1.3229 0.59001-1.3229 1.3229v12.171c0 0.73289 0.59001 1.3229 1.3229 1.3229h10.054c0.73289 0 1.3229-0.59001 1.3229-1.3229v-10.319l-3.175-3.175z" filter="url(#a)" opacity=".15" stroke-width=".26458" style="paint-order:stroke fill markers"/>
  <g transform="scale(3.7796)">
   <path transform="scale(.26458)" d="m13 4c-2.77 0-5 2.23-5 5v46c0 2.77 2.23 5 5 5h38c2.77 0 5-2.23 5-5v-39l-12-12z" fill="#f4f4f4" style="paint-order:stroke fill markers"/>
   <path d="m14.816 4.2332-3.1749-3.1749v1.852c0 0.73288 0.59001 1.3229 1.3229 1.3229z" fill="#bbb" style="paint-order:stroke fill markers"/>
  </g>
  <path d="m30.662 18.545-1.291 1.666-2.0508-0.4668-0.55664 2.0293-2.0742 0.35547 0.26367 2.0879-1.7812 1.123 1.0449 1.8281-1.2168 1.7188 1.6621 1.2891-0.46289 2.0527 2.0293 0.55469 0.35547 2.0742 0.8125-0.10352v10.404l4.5938-3.3418 4.5938 3.3418v-9.832l0.09766 0.02344 0.55664-2.0293 2.0742-0.35742-0.26562-2.0879 1.7812-1.1211-1.043-1.8301 1.2148-1.7168-1.6621-1.291 0.46484-2.0508-2.0293-0.55664-0.35547-2.0723-2.0879 0.26367-1.123-1.7812-1.8281 1.043zm1.3379 4.3066a5 5 0 0 1 5 5 5 5 0 0 1-5 5 5 5 0 0 1-5-5 5 5 0 0 1 5-5z" color="#4d4d4d" color-rendering="auto" fill="#f55" image-rendering="auto" shape-rendering="auto" solid-color="#000000" style="isolation:auto;mix-blend-mode:normal"/>
  <path d="m43.998 11v0.58398c0 3.0009 2.23 5.416 5 5.416h7l5.37e-4 -1.0002-7.0005 1.89e-4c-2.77 7.5e-5 -5-2.23-5-5z" opacity=".1" stroke-width="3.934" style="paint-order:stroke fill markers"/>
 </g>
</svg>
