<svg width="64" height="64" version="1.1" viewBox="0 0 64 64" xmlns="http://www.w3.org/2000/svg">
 <defs>
  <filter id="a" x="-.039001" y="-.033428" width="1.078" height="1.0669" color-interpolation-filters="sRGB">
   <feGaussianBlur stdDeviation="0.20637525"/>
  </filter>
 </defs>
 <g transform="scale(3.7796)" fill-rule="evenodd">
  <path d="m3.4395 1.3543c-0.73289 0-1.3229 0.59001-1.3229 1.3229v12.171c0 0.73289 0.59001 1.3229 1.3229 1.3229h10.054c0.73289 0 1.3229-0.59001 1.3229-1.3229v-10.319l-3.175-3.175z" filter="url(#a)" opacity=".15" stroke-width=".26458" style="paint-order:stroke fill markers"/>
  <path d="m3.4395 1.0583c-0.73289 0-1.3229 0.59001-1.3229 1.3229v12.171c0 0.73289 0.59001 1.3229 1.3229 1.3229h10.054c0.73289 0 1.3229-0.59001 1.3229-1.3229v-10.319l-3.175-3.175z" fill="#14148c" stroke-width=".26458" style="paint-order:stroke fill markers"/>
  <path d="m14.816 4.2332-3.1749-3.1749v1.852c0 0.73288 0.59001 1.3229 1.3229 1.3229z" fill="#fff" opacity=".35" style="paint-order:stroke fill markers"/>
 </g>
 <path d="m13 4.002c-1.1685 0-2.2267 0.41326-3.0762 1.0801h0.11914v2.1895h-1.7188c-0.12895 0.34987-0.23106 0.71153-0.2793 1.0938h1.998v2.1875h-2.043v1.0957h2.043v2.1875h-2.043v1.0938h2.043v2.1895h-2.043v1.0938h2.043v2.1875h-2.043v1.0957h2.043v2.1875h-2.043v1.0938h2.043v2.1895h-2.043v1.0938h2.043v2.1875h-2.043v1.0957h2.043v2.1875h-2.043v1.0938h2.043v2.1895h-2.043v1.0938h2.043v2.1895h-2.043v1.0938h2.043v2.1875h-2.043v1.0938h2.043v2.1895h-2.043v1.0938h2.043v2.1895h-2.043v1.0938h2.043v2.1875h-2.043v1.0938h2.043v2.1895h-1.7871c0.12224 0.38698 0.28104 0.7543 0.48828 1.0938h1.2988v1.418c0.33728 0.24833 0.70066 0.45914 1.0957 0.61719v-2.0352h2.1875v2.1895h1.0938v-2.1895h2.1895v2.1895h1.0938v-2.1895h2.1875v2.1895h1.0957v-2.1895h2.1875v2.1895h1.0938v-2.1895h2.1895v2.1895h1.0938v-2.1895h2.1895v2.1895h1.0938v-2.1895h2.1875v2.1895h1.0938v-2.1895h2.1895v2.1895h1.0938v-2.1895h2.1895v2.1895h1.0938v-2.1895h2.1875v2.1895h1.0957v-2.1895h2.1875v2.1895h1.0938v-2.1895h2.1895v2.1895h1.0938v-2.1895h2.1875v2.0801c0.38816-0.14181 0.75985-0.31468 1.0957-0.54297v-1.5371h1.4434c0.20724-0.33945 0.36604-0.70676 0.48828-1.0938h-1.9316v-2.1895h2.1875v-1.0938h-2.1875v-2.1875h2.1875v-1.0938h-2.1875v-2.1895h2.1875v-1.0938h-2.1875v-2.1895h2.1875v-1.0938h-2.1875v-2.1875h2.1875v-1.0938h-2.1875v-2.1895h2.1875v-1.0938h-2.1875v-2.1895h2.1875v-1.0938h-2.1875v-2.1875h2.1875v-1.0957h-2.1875v-2.1875h2.1875v-1.0938h-2.1875v-2.1895h2.1875v-1.0938h-2.1875v-2.1875h2.1875v-1.0957h-2.1875v-2.1875h2.1875v-1.0938h-2.1875v-1.1191h-1.0957v1.1191h-2.1875v-1.1191h-1.0938v1.1191h-2.1895v-1.4512c-0.38902-0.14541-0.75808-0.32614-1.0938-0.55859v2.0098h-2.1875v-2.1895h1.9688c-0.40117-0.31301-0.76356-0.6739-1.0527-1.0938h-0.91602v-2.1875h0.08008c-0.02743-0.2129-0.04687-0.42783-0.04687-0.64844v-0.44727h-0.0332v-2.1875h0.0332v-1.0938h-0.0332v-2.1895h0.0332v-1.0801h-30.998zm-1.8613 1.0801h2.1875v2.1895h-2.1875zm3.2812 0h2.1895v2.1895h-2.1895zm3.2832 0h2.1875v2.1895h-2.1875zm3.2832 0h2.1875v2.1895h-2.1875zm3.2812 0h2.1895v2.1895h-2.1895zm3.2832 0h2.1895v2.1895h-2.1895zm3.2832 0h2.1875v2.1895h-2.1875zm3.2812 0h2.1895v2.1895h-2.1895zm3.2832 0h2.1895v2.1895h-2.1895zm3.2832 0h2.1875v2.1895h-2.1875zm-29.543 3.2832h2.1875v2.1875h-2.1875zm3.2812 0h2.1895v2.1875h-2.1895zm3.2832 0h2.1875v2.1875h-2.1875zm3.2832 0h2.1875v2.1875h-2.1875zm3.2812 0h2.1895v2.1875h-2.1895zm3.2832 0h2.1895v2.1875h-2.1895zm3.2832 0h2.1875v2.1875h-2.1875zm3.2812 0h2.1895v2.1875h-2.1895zm3.2832 0h2.1895v2.1875h-2.1895zm3.2832 0h2.1875v2.1875h-2.1875zm-29.543 3.2832h2.1875v2.1875h-2.1875zm3.2812 0h2.1895v2.1875h-2.1895zm3.2832 0h2.1875v2.1875h-2.1875zm3.2832 0h2.1875v2.1875h-2.1875zm3.2812 0h2.1895v2.1875h-2.1895zm3.2832 0h2.1895v2.1875h-2.1895zm3.2832 0h2.1875v2.1875h-2.1875zm3.2812 0h2.1895v2.1875h-2.1895zm3.2832 0h2.1895v2.1875h-2.1895zm3.2832 0h2.1875v2.1875h-2.1875zm-29.543 3.2812h2.1875v2.1895h-2.1875zm3.2812 0h2.1895v2.1895h-2.1895zm3.2832 0h2.1875v2.1895h-2.1875zm3.2832 0h2.1875v2.1895h-2.1875zm3.2812 0h2.1895v2.1895h-2.1895zm3.2832 0h2.1895v2.1895h-2.1895zm3.2832 0h2.1875v2.1895h-2.1875zm3.2812 0h2.1895v2.1895h-2.1895zm3.2832 0h2.1895v2.1895h-2.1895zm3.2832 0h2.1875v2.1895h-2.1875zm-29.543 3.2832h2.1875v2.1875h-2.1875zm3.2812 0h2.1895v2.1875h-2.1895zm3.2832 0h2.1875v2.1875h-2.1875zm3.2832 0h2.1875v2.1875h-2.1875zm3.2812 0h2.1895v2.1875h-2.1895zm3.2832 0h2.1895v2.1875h-2.1895zm3.2832 0h2.1875v2.1875h-2.1875zm3.2812 0h2.1895v2.1875h-2.1895zm3.2832 0h2.1895v2.1875h-2.1895zm3.2832 0h2.1875v2.1875h-2.1875zm3.2832 0h2.1875v2.1875h-2.1875zm3.2812 0h2.1895v2.1875h-2.1895zm3.2832 0h2.1875v2.1875h-2.1875zm-39.391 3.2832h2.1875v2.1875h-2.1875zm3.2812 0h2.1895v2.1875h-2.1895zm3.2832 0h2.1875v2.1875h-2.1875zm3.2832 0h2.1875v2.1875h-2.1875zm3.2812 0h2.1895v2.1875h-2.1895zm3.2832 0h2.1895v2.1875h-2.1895zm3.2832 0h2.1875v2.1875h-2.1875zm3.2812 0h2.1895v2.1875h-2.1895zm3.2832 0h2.1895v2.1875h-2.1895zm3.2832 0h2.1875v2.1875h-2.1875zm3.2832 0h2.1875v2.1875h-2.1875zm3.2812 0h2.1895v2.1875h-2.1895zm3.2832 0h2.1875v2.1875h-2.1875zm-39.391 3.2812h2.1875v2.1895h-2.1875zm3.2812 0h2.1895v2.1895h-2.1895zm3.2832 0h2.1875v2.1895h-2.1875zm3.2832 0h2.1875v2.1895h-2.1875zm3.2812 0h2.1895v2.1895h-2.1895zm3.2832 0h2.1895v2.1895h-2.1895zm3.2832 0h2.1875v2.1895h-2.1875zm3.2812 0h2.1895v2.1895h-2.1895zm3.2832 0h2.1895v2.1895h-2.1895zm3.2832 0h2.1875v2.1895h-2.1875zm3.2832 0h2.1875v2.1895h-2.1875zm3.2812 0h2.1895v2.1895h-2.1895zm3.2832 0h2.1875v2.1895h-2.1875zm-39.391 3.2832h2.1875v2.1875h-2.1875zm3.2812 0h2.1895v2.1875h-2.1895zm3.2832 0h2.1875v2.1875h-2.1875zm3.2832 0h2.1875v2.1875h-2.1875zm3.2812 0h2.1895v2.1875h-2.1895zm3.2832 0h2.1895v2.1875h-2.1895zm3.2832 0h2.1875v2.1875h-2.1875zm3.2812 0h2.1895v2.1875h-2.1895zm3.2832 0h2.1895v2.1875h-2.1895zm3.2832 0h2.1875v2.1875h-2.1875zm3.2832 0h2.1875v2.1875h-2.1875zm3.2812 0h2.1895v2.1875h-2.1895zm3.2832 0h2.1875v2.1875h-2.1875zm-39.391 3.2832h2.1875v2.1875h-2.1875zm3.2812 0h2.1895v2.1875h-2.1895zm3.2832 0h2.1875v2.1875h-2.1875zm3.2832 0h2.1875v2.1875h-2.1875zm3.2812 0h2.1895v2.1875h-2.1895zm3.2832 0h2.1895v2.1875h-2.1895zm3.2832 0h2.1875v2.1875h-2.1875zm3.2812 0h2.1895v2.1875h-2.1895zm3.2832 0h2.1895v2.1875h-2.1895zm3.2832 0h2.1875v2.1875h-2.1875zm3.2832 0h2.1875v2.1875h-2.1875zm3.2812 0h2.1895v2.1875h-2.1895zm3.2832 0h2.1875v2.1875h-2.1875zm-39.391 3.2812h2.1875v2.1895h-2.1875zm3.2812 0h2.1895v2.1895h-2.1895zm3.2832 0h2.1875v2.1895h-2.1875v-1.0938zm3.2832 0h2.1875v2.1895h-2.1875v-1.0938zm3.2812 0h2.1895v2.1895h-2.1895v-1.0938zm3.2832 0h2.1895v2.1895h-2.1895v-1.0938zm3.2832 0h2.1875v2.1895h-2.1875v-1.0938zm3.2812 0h2.1895v2.1895h-2.1895v-1.0938zm3.2832 0h2.1895v2.1895h-2.1895v-1.0938zm3.2832 0h2.1875v2.1895h-2.1875v-1.0938zm3.2832 0h2.1875v2.1895h-2.1875v-1.0938zm3.2812 0h2.1895v2.1895h-2.1895v-1.0938zm3.2832 0h2.1875v2.1895h-2.1875zm-39.391 3.2832h2.1875v2.1895h-2.1875zm3.2812 0h2.1895v2.1895h-2.1895zm3.2832 0h2.1875v2.1895h-2.1875zm3.2832 0h2.1875v2.1895h-2.1875v-1.0957zm3.2812 0h2.1895v2.1895h-2.1895v-1.0957zm3.2832 0h2.1895v2.1895h-2.1895v-1.0957zm3.2832 0h2.1875v2.1895h-2.1875v-1.0957zm3.2812 0h2.1895v2.1895h-2.1895v-1.0957zm3.2832 0h2.1895v2.1895h-2.1895v-1.0957zm3.2832 0h2.1875v2.1895h-2.1875v-1.0957zm3.2832 0h2.1875v2.1895h-2.1875v-1.0957zm3.2812 0h2.1895v2.1895h-2.1895v-1.0957zm3.2832 0h2.1875v2.1895h-2.1875v-1.0957zm-39.391 3.2832h2.1875v2.1875h-2.1875zm3.2812 0h2.1895v2.1875h-2.1895zm3.2832 0h2.1875v2.1875h-2.1875zm3.2832 0h2.1875v2.1875h-2.1875zm3.2812 0h2.1895v2.1875h-2.1895zm3.2832 0h2.1895v2.1875h-2.1895zm3.2832 0h2.1875v2.1875h-2.1875zm3.2812 0h2.1895v2.1875h-2.1895zm3.2832 0h2.1895v2.1875h-2.1895zm3.2832 0h2.1875v2.1875h-2.1875zm3.2832 0h2.1875v2.1875h-2.1875zm3.2812 0h2.1895v2.1875h-2.1895zm3.2832 0h2.1875v2.1875h-2.1875zm-39.391 3.2812h2.1875v2.1895h-2.1875zm3.2812 0h2.1895v2.1895h-2.1895zm3.2832 0h2.1875v2.1895h-2.1875zm3.2832 0h2.1875v2.1895h-2.1875zm3.2812 0h2.1895v2.1895h-2.1895zm3.2832 0h2.1895v2.1895h-2.1895zm3.2832 0h2.1875v2.1895h-2.1875zm3.2812 0h2.1895v2.1895h-2.1895zm3.2832 0h2.1895v2.1895h-2.1895zm3.2832 0h2.1875v2.1895h-2.1875zm3.2832 0h2.1875v2.1895h-2.1875zm3.2812 0h2.1895v2.1895h-2.1895zm3.2832 0h2.1875v2.1895h-2.1875zm-39.391 3.2832h2.1875v2.1895h-2.1875zm3.2812 0h2.1895v2.1895h-2.1895zm3.2832 0h2.1875v2.1895h-2.1875zm3.2832 0h2.1875v2.1895h-2.1875zm3.2812 0h2.1895v2.1895h-2.1895zm3.2832 0h2.1895v2.1895h-2.1895zm3.2832 0h2.1875v2.1895h-2.1875zm3.2812 0h2.1895v2.1895h-2.1895zm3.2832 0h2.1895v2.1895h-2.1895zm3.2832 0h2.1875v2.1895h-2.1875zm3.2832 0h2.1875v2.1895h-2.1875v-1.0957zm3.2812 0h2.1895v2.1895h-2.1895v-1.0957zm3.2832 0h2.1875v2.1895h-2.1875v-1.0957zm-39.391 3.2832h2.1875v2.1875h-2.1875zm3.2812 0h2.1895v2.1875h-2.1895zm3.2832 0h2.1875v2.1875h-2.1875zm3.2832 0h2.1875v2.1875h-2.1875zm3.2812 0h2.1895v2.1875h-2.1895zm3.2832 0h2.1895v2.1875h-2.1895zm3.2832 0h2.1875v2.1875h-2.1875zm3.2812 0h2.1895v2.1875h-2.1895zm3.2832 0h2.1895v2.1875h-2.1895zm3.2832 0h2.1875v2.1875h-2.1875zm3.2832 0h2.1875v2.1875h-2.1875zm3.2812 0h2.1895v2.1875h-2.1895zm3.2832 0h2.1875v2.1875h-2.1875zm-39.391 3.2812h2.1875v2.1895h-2.1875zm3.2812 0h2.1895v2.1895h-2.1895zm3.2832 0h2.1875v2.1895h-2.1875zm3.2832 0h2.1875v2.1895h-2.1875zm3.2812 0h2.1895v2.1895h-2.1895zm3.2832 0h2.1895v2.1895h-2.1895zm3.2832 0h2.1875v2.1895h-2.1875zm3.2812 0h2.1895v2.1895h-2.1895zm3.2832 0h2.1895v2.1895h-2.1895zm3.2832 0h2.1875v2.1895h-2.1875zm3.2832 0h2.1875v2.1895h-2.1875zm3.2812 0h2.1895v2.1895h-2.1895zm3.2832 0h2.1875v2.1895h-2.1875z" color="#000000" color-rendering="auto" image-rendering="auto" opacity=".1" shape-rendering="auto" stroke-width="1.0942"/>
 <g transform="matrix(3.7796 0 0 3.7796 -75.6 4.949)" fill="#fff" stroke-width=".088193">
  <path d="m28.768 3.453c-1.2902 0.22976-2.5811 0.53461-3.8713 0.76016 0 1.9626-8.5e-4 3.9261 0 5.8896 1.2835 0.22471 2.5677 0.52447 3.8486 0.75844h0.38441v-7.4082zm-0.49905 2.3996-0.5944 2.4951-0.48788-0.03847c-0.11193-0.55714-0.24233-1.1109-0.34248-1.6706-0.09847 0.54368-0.2265 1.0823-0.33928 1.6226-0.16159-0.0084-0.32392-0.01852-0.48635-0.02946-0.13971-0.74062-0.30388-1.4762-0.43432-2.2185 0.14392-0.0067 0.28868-0.01258 0.4326-0.01763 0.08668 0.53611 0.18512 1.0697 0.26087 1.6066 0.11867-0.55041 0.23994-1.1008 0.35777-1.6512 0.15991-0.0093 0.31979-0.01599 0.47969-0.02441 0.11193 0.56809 0.22634 1.1352 0.34753 1.7008 0.0951-0.58408 0.20033-1.1664 0.30217-1.7496 0.16832-0.0059 0.33662-0.01517 0.5041-0.02527z" enable-background="new"/>
  <path d="m29.395 4.5113h2.6458v5.2916h-2.6458v-0.52916h2.1166v-0.26458h-2.1166v-0.52916h2.1166v-0.26458h-2.1166v-0.52916h2.1166v-0.26458h-2.1166v-0.52916h2.1166v-0.26458h-2.1166v-0.52823h2.1166v-0.2655h-2.1166v-0.52916h2.1166v-0.26458h-2.1166z" enable-background="new"/>
 </g>
 <path d="m43.998 11v0.58399c0 3.0009 2.23 5.4162 5 5.4162h6.9998l5.37e-4 -1.0002-7.0006 1.89e-4c-2.77 7.5e-5 -5-2.23-5-5z" fill-rule="evenodd" opacity=".1" stroke-width="3.9338" style="paint-order:stroke fill markers"/>
</svg>
