<svg width="64" height="64" version="1.1" viewBox="0 0 16.933 16.933" xmlns="http://www.w3.org/2000/svg">
 <defs>
  <filter id="a" x="-.039001" y="-.033428" width="1.078" height="1.0669" color-interpolation-filters="sRGB">
   <feGaussianBlur stdDeviation="0.20637525"/>
  </filter>
 </defs>
 <path d="m3.4395 1.3543c-0.73289 0-1.3229 0.59001-1.3229 1.3229v12.171c0 0.73289 0.59001 1.3229 1.3229 1.3229h10.054c0.73289 0 1.3229-0.59001 1.3229-1.3229v-10.319l-3.175-3.175z" fill-rule="evenodd" filter="url(#a)" opacity=".15" stroke-width=".26458" style="paint-order:stroke fill markers"/>
 <g fill-rule="evenodd">
  <path transform="scale(.26458)" d="m13 4c-2.77 0-5 2.23-5 5v46c0 2.77 2.23 5 5 5h38c2.77 0 5-2.23 5-5v-39l-12-12h-31z" fill="#f4f4f4" style="paint-order:stroke fill markers"/>
  <path d="m14.816 4.2332-3.1749-3.1749v1.852c0 0.73288 0.59001 1.3229 1.3229 1.3229z" fill="#bbb" style="paint-order:stroke fill markers"/>
 </g>
 <path d="m7.7527 4.4038c-0.48833-0.03224-1.0378 0.31461-1.0183 0.84901-0.05775 0.31806 0.24896 0.55539 0.23561 0.84243-0.18067 0.0792-0.31804 0.0792-0.44525 0.0792h-2.1166c0 0.61015 1e-6 1.4849 1e-6 2.095 0.16525 0.35983 0.50265-0.15404 0.76917-0.09846 0.50926-0.1066 0.96764 0.3398 0.99203 0.83311 0.06771 0.47064-0.11443 1.0824-0.64776 1.1771-0.28767 0.04857-0.59728-0.0047-0.83352-0.18047-0.28447-0.17171-0.30258 0.20506-0.27993 0.38962v2.134h2.4342c0.35983-0.16525-0.15404-0.50265-0.09846-0.76917-0.10654-0.50914 0.33976-0.96791 0.83311-0.99209 0.47065-0.06757 1.0824 0.11445 1.1771 0.64782 0.04857 0.28767-0.0047 0.59728-0.18047 0.83352-0.17171 0.28447 0.20506 0.30258 0.38962 0.27993l1.7948 1e-6v-2.4231c0.16921-0.36295 0.50633 0.16805 0.78146 0.08895 0.44172 0.08689 0.88936-0.2288 0.956-0.67343 0.11271-0.49203-0.02706-1.1447-0.56572-1.3173-0.34122-0.11621-0.68122 0.03221-0.96926 0.20758-0.26514 0.03742-0.19416-0.28348-0.20248-0.4489 0-0.50636-1e-6 -1.2773-1e-6 -1.7837l-1.852-1e-6h-0.23185c-0.36296-0.1692 0.16805-0.50633 0.08895-0.78146 0.08689-0.44172-0.2288-0.88936-0.67342-0.956-0.1106-0.02387-0.22396-0.03314-0.33697-0.03317z" color="#000000" fill="#46a926"/>
 <path d="m11.641 2.9104v0.15451c0 0.79397 0.59 1.433 1.3229 1.433h1.852l1.42e-4 -0.26463-1.8522 5e-5c-0.73289 1.98e-5 -1.3229-0.59001-1.3229-1.3229z" fill-rule="evenodd" opacity=".1" stroke-width="1.0408" style="paint-order:stroke fill markers"/>
</svg>
