<svg width="64" height="64" version="1.1" viewBox="0 0 16.933 16.933" xmlns="http://www.w3.org/2000/svg">
 <defs>
  <filter id="a" x="-.039001" y="-.033428" width="1.078" height="1.0669" color-interpolation-filters="sRGB">
   <feGaussianBlur stdDeviation="0.20637525"/>
  </filter>
 </defs>
 <path d="m3.4395 1.3543c-0.73289 0-1.3229 0.59001-1.3229 1.3229v12.171c0 0.73289 0.59001 1.3229 1.3229 1.3229h10.054c0.73289 0 1.3229-0.59001 1.3229-1.3229v-10.319l-3.175-3.175z" fill-rule="evenodd" filter="url(#a)" opacity=".15" stroke-width=".26458" style="paint-order:stroke fill markers"/>
 <g fill-rule="evenodd">
  <path transform="scale(.26458)" d="m13 4c-2.77 0-5 2.23-5 5v46c0 2.77 2.23 5 5 5h38c2.77 0 5-2.23 5-5v-39l-12-12z" fill="#ff7643" style="paint-order:stroke fill markers"/>
  <path d="m14.816 4.2332-3.1749-3.1749v1.852c0 0.73288 0.59001 1.3229 1.3229 1.3229z" fill="#fff" opacity=".35" style="paint-order:stroke fill markers"/>
 </g>
 <g transform="translate(-29.643 1.1705)" fill="#fff" opacity=".75">
  <path d="m34.671 7.0315v1.7198c0 0.07329 0.059 0.13229 0.13229 0.13229h0.79374c0.07329 0 0.13229-0.059 0.13229-0.13229v-1.7198zm0.26458 1.0583h0.52916v0.52916h-0.52916z" color="#000000"/>
  <path d="m35.2-0.11215v0.52916h0.52916v-0.52916zm0 0.52916h-0.52916v0.52916h0.52916zm0 0.52916v0.52916h0.52916v-0.52916zm0 0.52916h-0.52916v0.52916h0.52916zm0 0.52916v0.52916h0.52916v-0.52916zm0 0.52916h-0.52916v0.52916h0.52916zm0 0.52916v0.52916h0.52916v-0.52916zm0 0.52916h-0.52916v0.52916h0.52916zm0 0.52916v0.52916h0.52916v-0.52916zm0 0.52916h-0.52916v0.52916h0.52916zm0 0.52916v0.52916h0.52916v-0.52916zm0 0.52916h-0.52916v0.52916h0.52916zm0 0.52916v0.52916h0.52916v-0.52916z" color="#000000"/>
 </g>
 <path d="m11.641 2.9104v0.15451c0 0.79397 0.59001 1.433 1.3229 1.433h1.852l1.42e-4 -0.26463-1.8522 5e-5c-0.73288 1.99e-5 -1.3229-0.59001-1.3229-1.3229z" fill-rule="evenodd" opacity=".1" stroke-width="1.0408" style="paint-order:stroke fill markers"/>
 <path d="m10.416 8.9971c-0.19691 0.0038-0.39229 0.01154-0.51997 0.03077-0.57536 0.08769-1.0353 0.28922-1.3322 0.58305a1.1846 1.1846 0 0 0-0.32229 0.55382c-0.034614 0.13384-0.046152 0.44229-0.01 0.56074 0.12076 0.4146 0.4069 0.73304 0.94611 1.0538 0.22922 0.13461 0.40613 0.22384 0.91534 0.45382 0.61151 0.2746 0.79765 0.38537 0.88457 0.52305 0.03384 0.05615 0.04615 0.08461 0.04154 0.15153-0.0092 0.10615-0.06231 0.15922-0.18691 0.20461-0.08384 0.02923-0.11307 0.03846-0.27076 0.03846-0.28845-0.0031-0.54228-0.05692-0.89457-0.1823a3.2552 3.2552 0 0 1-0.69689-0.34152c-0.20384-0.13307-0.21999-0.13846-0.28076-0.10615-0.046152 0.02538-0.37844 0.32152-0.62382 0.56151-0.15999 0.15615-0.1623 0.18768-0.052305 0.29537 0.10923 0.10769 0.41536 0.3346 0.58305 0.43229 0.18153 0.10692 0.30383 0.16692 0.50921 0.2423 0.3446 0.12769 0.63382 0.18076 1.1753 0.22691 0.12307 0.01 0.56305 0.01154 0.71766 0 0.84765-0.06769 1.5392-0.3446 1.903-0.74996 0.13076-0.14384 0.20922-0.26691 0.27076-0.43998 0.06-0.16692 0.07538-0.4969 0.03077-0.69689-0.07307-0.32383-0.26768-0.61689-0.58228-0.8638-0.31537-0.24768-0.63535-0.41229-1.4038-0.71996-0.5369-0.21384-0.73842-0.32768-0.79073-0.4469-0.02846-0.06384-0.01154-0.17691 0.03077-0.21999 0.08461-0.08538 0.24768-0.11615 0.45844-0.09076 0.39229 0.04846 0.89688 0.22845 1.3415 0.4769 0.08615 0.04769 0.16922 0.08769 0.18691 0.09153 0.07231 0.01846 0.11538-0.01 0.40613-0.34152 0.35613-0.40767 0.35229-0.39152 0.15614-0.53074-0.58459-0.41844-1.2615-0.66151-2.0384-0.73458a5.432 5.432 0 0 0-0.55151-0.01538z" fill="#fff" opacity=".75" stroke-width=".76919"/>
</svg>
