<svg width="64" height="64" version="1.1" xmlns="http://www.w3.org/2000/svg">
 <defs>
  <filter id="a" x="-.039001" y="-.033428" width="1.078" height="1.0669" color-interpolation-filters="sRGB">
   <feGaussianBlur stdDeviation="0.20637525"/>
  </filter>
 </defs>
 <g fill-rule="evenodd">
  <path transform="scale(3.7796)" d="m3.4395 1.3543c-0.73289 0-1.3229 0.59001-1.3229 1.3229v12.171c0 0.73289 0.59001 1.3229 1.3229 1.3229h10.054c0.73289 0 1.3229-0.59001 1.3229-1.3229v-10.319l-3.175-3.175z" filter="url(#a)" opacity=".15" stroke-width=".26458" style="paint-order:stroke fill markers"/>
  <path d="m13 4.0015c-2.77 0-5 2.2299-5 5v46.002c0 2.7699 2.23 5 5 5h38c2.77 0 5-2.2299 5-5v-39.002l-12-11.999z" fill="#37a7e5" stroke-width="3.7796" style="paint-order:stroke fill markers"/>
  <path d="m55.999 16-12-12v6.9998c0 2.77 2.23 5 5 5z" fill="#fff" opacity=".35" stroke-width="3.7796" style="paint-order:stroke fill markers"/>
 </g>
 <g transform="translate(0,1.992)" stroke-width=".839">
  <path d="m35.546 20.589-14.517 1.84 1.037 2.287 10.511-1.553 3.801 3.912 6.125-1.073zm-2.846 6.913-9.999 1.698 0.974 2.555 5.44-1.027 1.394 2.41 5.762-1.241zm-3.273 8.075-4.945 1.083 0.948 2.767 5.338-1.349z" fill="#fff"/>
 </g>
 <path d="m43.998 11v0.58399c0 3.0009 2.23 5.4162 5 5.4162h6.9998l5.37e-4 -1.0002-7.0006 1.89e-4c-2.77 7.5e-5 -5-2.23-5-5z" fill-rule="evenodd" opacity=".1" stroke-width="3.9338" style="paint-order:stroke fill markers"/>
</svg>
