<svg width="64" height="64" version="1.1" viewBox="0 0 16.933 16.933" xmlns="http://www.w3.org/2000/svg">
 <defs>
  <filter id="a" x="-.039001" y="-.033428" width="1.078" height="1.0669" color-interpolation-filters="sRGB">
   <feGaussianBlur stdDeviation="0.20637525"/>
  </filter>
 </defs>
 <g fill-rule="evenodd">
  <path d="m3.4395 1.3543c-0.73289 0-1.3229 0.59001-1.3229 1.3229v12.171c0 0.73289 0.59001 1.3229 1.3229 1.3229h10.054c0.73289 0 1.3229-0.59001 1.3229-1.3229v-10.319l-3.175-3.175z" filter="url(#a)" opacity=".15" stroke-width=".26458" style="paint-order:stroke fill markers"/>
  <path d="m3.4395 1.0587c-0.73288 0-1.3229 0.58999-1.3229 1.3229v12.171c0 0.73286 0.59001 1.3229 1.3229 1.3229h10.054c0.73288 0 1.3229-0.58999 1.3229-1.3229v-10.319l-3.1749-3.1748z" fill="#eb253e" stroke-width=".99999" style="paint-order:stroke fill markers"/>
  <path d="m14.816 4.2332-3.1749-3.1749v1.852c0 0.73288 0.59001 1.3229 1.3229 1.3229z" fill="#fff" opacity=".35" style="paint-order:stroke fill markers"/>
  <path d="m9.079 4.806-3.0219 3.5789c0.78705 0.12623 2.1162 1.1213 1.9157 2.4429 0.40838-0.9801-0.34159-2.1756-1.0618-2.6582l2.6359-3.1482c-0.14118-0.10395-0.25253-0.15596-0.46785-0.21536zm-1.0166 0.24952c-0.11754 4e-4 -0.20572 0.01781-0.20108 0.01781l-0.96522 1.1063c-0.54203 0.0297-1.0692 0.06686-1.5816 0.11883-0.36383 0.03712-0.6534 0.32669-0.70538 0.7128-0.07425 0.67568-0.11135 1.3885-0.11135 2.1236 0 0.73508 0.0371 1.4479 0.11135 2.131 0.05198 0.43075 0.34156 0.64607 0.70538 0.7128 1.0098 0.16335 2.4726 0.0074 2.4726-1.381 0-1.2994-2.131-1.8563-2.8587-1.4999l3.3635-4.0169c-0.07796-0.01949-0.15904-0.02544-0.22956-0.02522zm2.2194 1.1389s-1.8932 4.2026-2.0789 4.6333c-0.28215 0.63855-0.66826 1.1063-1.2251 1.2697 0.49005 0.02228 0.98007 0.02966 1.485 0.02966 1.1062 0 2.1607-0.05196 3.1482-0.14849 0.36372-0.03712 0.66083-0.33412 0.70538-0.7128 0.08178-0.6831 0.11876-1.3959 0.11876-2.131 0-0.73508-0.03699-1.4479-0.11876-2.1236-0.04455-0.3861-0.34155-0.67567-0.70538-0.7128-0.43065-0.04455-0.87618-0.08173-1.3292-0.10401z" clip-rule="evenodd" enable-background="new" fill="#fff" stroke-width=".066145"/>
  <path d="m11.641 2.9104v0.15451c0 0.79397 0.59 1.433 1.3229 1.433h1.852l1.42e-4 -0.26463-1.8522 5e-5c-0.73289 1.98e-5 -1.3229-0.59001-1.3229-1.3229z" opacity=".1" stroke-width="1.0408" style="paint-order:stroke fill markers"/>
 </g>
</svg>
