<svg width="64" height="64" version="1.1" xmlns="http://www.w3.org/2000/svg">
 <defs>
  <filter id="a" x="-.039001" y="-.033428" width="1.078" height="1.0669" color-interpolation-filters="sRGB">
   <feGaussianBlur stdDeviation="0.20637525"/>
  </filter>
 </defs>
 <path transform="scale(3.7796)" d="m3.4395 1.3543c-0.73289 0-1.3229 0.59001-1.3229 1.3229v12.171c0 0.73289 0.59001 1.3229 1.3229 1.3229h10.054c0.73289 0 1.3229-0.59001 1.3229-1.3229v-10.319l-3.175-3.175z" fill-rule="evenodd" filter="url(#a)" opacity=".15" stroke-width=".26458" style="paint-order:stroke fill markers"/>
 <g transform="scale(3.7796)" fill-rule="evenodd">
  <path transform="scale(.26458)" d="m13 4c-2.77 0-5 2.23-5 5v46c0 2.77 2.23 5 5 5h38c2.77 0 5-2.23 5-5v-39l-12-12z" fill="#f4f4f4" style="paint-order:stroke fill markers"/>
  <path d="m14.816 4.2332-3.1749-3.1749v1.852c0 0.73288 0.59001 1.3229 1.3229 1.3229z" fill="#bbb" style="paint-order:stroke fill markers"/>
 </g>
 <g transform="translate(0,6)" fill="#ccc">
  <rect x="18" y="20" width="28" height="3" rx="0" ry="0" style="paint-order:markers stroke fill"/>
  <rect x="18" y="27" width="28" height="3" rx="0" ry="0" style="paint-order:markers stroke fill"/>
  <rect x="18" y="34" width="28" height="3" rx="0" ry="0" style="paint-order:markers stroke fill"/>
  <rect x="18" y="41" width="28" height="3" rx="0" ry="0" style="paint-order:markers stroke fill"/>
 </g>
 <path d="m43.998 11v0.58398c0 3.0009 2.23 5.416 5 5.416h7l5.37e-4 -1.0002-7.0005 1.89e-4c-2.77 7.5e-5 -5-2.23-5-5z" fill-rule="evenodd" opacity=".1" stroke-width="3.934" style="paint-order:stroke fill markers"/>
</svg>
