<svg width="64" height="64" version="1.1" viewBox="0 0 64 64" xmlns="http://www.w3.org/2000/svg">
 <defs>
  <filter id="a" x="-.039001" y="-.033428" width="1.078" height="1.0669" color-interpolation-filters="sRGB">
   <feGaussianBlur stdDeviation="0.20637525"/>
  </filter>
 </defs>
 <g transform="scale(3.7796)" fill-rule="evenodd">
  <path d="m3.4395 1.3543c-0.73289 0-1.3229 0.59001-1.3229 1.3229v12.171c0 0.73289 0.59001 1.3229 1.3229 1.3229h10.054c0.73289 0 1.3229-0.59001 1.3229-1.3229v-10.319l-3.175-3.175z" filter="url(#a)" opacity=".15" stroke-width=".26458" style="paint-order:stroke fill markers"/>
  <path d="m3.4395 1.0588c-0.73289 0-1.3229 0.58999-1.3229 1.3229v12.171c0 0.73286 0.59001 1.3229 1.3229 1.3229h10.054c0.73289 0 1.3229-0.58999 1.3229-1.3229v-10.319l-3.175-3.1749z" fill="#994b91" stroke-width=".26458" style="paint-order:stroke fill markers"/>
  <path d="m14.816 4.2332-3.1749-3.1749v1.852c0 0.73288 0.59001 1.3229 1.3229 1.3229z" fill="#fff" opacity=".35" style="paint-order:stroke fill markers"/>
 </g>
 <path d="m43.998 11v0.58399c0 3.0009 2.23 5.4162 5 5.4162h6.9998l5.37e-4 -1.0002-7.0006 1.89e-4c-2.77 7.5e-5 -5-2.23-5-5z" fill-rule="evenodd" opacity=".1" stroke-width="3.9338" style="paint-order:stroke fill markers"/>
 <path d="m22 21c-0.554 0-1 0.446-1 1v20c0 0.554 0.446 1 1 1h18c0.554 0 1-0.446 1-1v-1h1c0.554 0 1-0.446 1-1v-4c0-0.186-0.064344-0.351-0.15234-0.5 0.088-0.149 0.15234-0.314 0.15234-0.5v-4c0-0.186-0.064344-0.351-0.15234-0.5 0.088-0.149 0.15234-0.314 0.15234-0.5v-4c0-0.554-0.446-1-1-1h-1v-3c0-0.554-0.446-1-1-1h-18zm1 3h7v1h-7v-1zm9 0h7v1h-7v-1zm9 2h1v4h-1v-4zm-18 1h7v1h-7v-1zm9 0h7v1h-7v-1zm-9 3h7v1h-7v-1zm9 0h7v1h-7v-1zm9 1h1v4h-1v-4zm-18 2h7v1h-7v-1zm9 0h7v1h-7v-1zm-9 3h7v1h-7v-1zm9 0h7v1h-7v-1zm9 0h1v4h-1v-4zm-18 3h7v1h-7v-1zm9 0h7v1h-7v-1z" color="#000000" color-rendering="auto" fill="#fff" image-rendering="auto" opacity=".75" shape-rendering="auto" solid-color="#000000" style="isolation:auto;mix-blend-mode:normal"/>
</svg>
