<svg width="64" height="64" version="1.1" viewBox="0 0 64 64" xmlns="http://www.w3.org/2000/svg">
 <defs>
  <filter id="a" x="-.039001" y="-.033428" width="1.078" height="1.0669" color-interpolation-filters="sRGB">
   <feGaussianBlur stdDeviation="0.20637525"/>
  </filter>
 </defs>
 <g transform="scale(3.7796)" fill-rule="evenodd">
  <path d="m3.4395 1.3543c-0.73289 0-1.3229 0.59001-1.3229 1.3229v12.171c0 0.73289 0.59001 1.3229 1.3229 1.3229h10.054c0.73289 0 1.3229-0.59001 1.3229-1.3229v-10.319l-3.175-3.175z" filter="url(#a)" opacity=".15" stroke-width=".26458" style="paint-order:stroke fill markers"/>
  <path d="m3.4395 1.0583c-0.73288 0-1.3229 0.58997-1.3229 1.3229v12.171c0 0.73284 0.59001 1.3229 1.3229 1.3229h10.054c0.73288 0 1.3229-0.58997 1.3229-1.3229v-10.319l-3.1749-3.1747z" fill="#813d17" stroke-width=".99998" style="paint-order:stroke fill markers"/>
  <path d="m14.816 4.2331-3.1749-3.1749v1.852c0 0.73288 0.59001 1.3229 1.3229 1.3229z" fill="#fff" opacity=".35" style="paint-order:stroke fill markers"/>
 </g>
 <path d="m13 4.002c-1.1685 0-2.2267 0.41326-3.0762 1.0801h0.11914v2.1895h-1.7188c-0.12895 0.34987-0.23106 0.71153-0.2793 1.0938h1.998v2.1875h-2.043v1.0957h2.043v2.1875h-2.043v1.0938h2.043v2.1895h-2.043v1.0938h2.043v2.1875h-2.043v1.0957h2.043v2.1875h-2.043v1.0938h2.043v2.1895h-2.043v1.0938h2.043v2.1875h-2.043v1.0957h2.043v2.1875h-2.043v1.0938h2.043v2.1895h-2.043v1.0938h2.043v2.1895h-2.043v1.0938h2.043v2.1875h-2.043v1.0938h2.043v2.1895h-2.043v1.0938h2.043v2.1895h-2.043v1.0938h2.043v2.1875h-2.043v1.0938h2.043v2.1895h-1.7871c0.12224 0.38698 0.28104 0.7543 0.48828 1.0938h1.2988v1.418c0.33728 0.24833 0.70066 0.45914 1.0957 0.61719v-2.0352h2.1875v2.1895h1.0938v-2.1895h2.1895v2.1895h1.0938v-2.1895h2.1875v2.1895h1.0957v-2.1895h2.1875v2.1895h1.0938v-2.1895h2.1895v2.1895h1.0938v-2.1895h2.1895v2.1895h1.0938v-2.1895h2.1875v2.1895h1.0938v-2.1895h2.1895v2.1895h1.0938v-2.1895h2.1895v2.1895h1.0938v-2.1895h2.1875v2.1895h1.0957v-2.1895h2.1875v2.1895h1.0938v-2.1895h2.1895v2.1895h1.0938v-2.1895h2.1875v2.0801c0.38816-0.14181 0.75985-0.31468 1.0957-0.54297v-1.5371h1.4434c0.20724-0.33945 0.36604-0.70676 0.48828-1.0938h-1.9316v-2.1895h2.1875v-1.0938h-2.1875v-2.1875h2.1875v-1.0938h-2.1875v-2.1895h2.1875v-1.0938h-2.1875v-2.1895h2.1875v-1.0938h-2.1875v-2.1875h2.1875v-1.0938h-2.1875v-2.1895h2.1875v-1.0938h-2.1875v-2.1895h2.1875v-1.0938h-2.1875v-2.1875h2.1875v-1.0957h-2.1875v-2.1875h2.1875v-1.0938h-2.1875v-2.1895h2.1875v-1.0938h-2.1875v-2.1875h2.1875v-1.0957h-2.1875v-2.1875h2.1875v-1.0938h-2.1875v-1.1191h-1.0957v1.1191h-2.1875v-1.1191h-1.0938v1.1191h-2.1895v-1.4512c-0.38902-0.14541-0.75808-0.32614-1.0938-0.55859v2.0098h-2.1875v-2.1895h1.9688c-0.40117-0.31301-0.76356-0.6739-1.0527-1.0938h-0.91602v-2.1875h0.08008c-0.02743-0.2129-0.04687-0.42783-0.04687-0.64844v-0.44727h-0.0332v-2.1875h0.0332v-1.0938h-0.0332v-2.1895h0.0332v-1.0801h-30.998zm-1.8613 1.0801h2.1875v2.1895h-2.1875zm3.2812 0h2.1895v2.1895h-2.1895zm3.2832 0h2.1875v2.1895h-2.1875zm3.2832 0h2.1875v2.1895h-2.1875zm3.2812 0h2.1895v2.1895h-2.1895zm3.2832 0h2.1895v2.1895h-2.1895zm3.2832 0h2.1875v2.1895h-2.1875zm3.2812 0h2.1895v2.1895h-2.1895zm3.2832 0h2.1895v2.1895h-2.1895zm3.2832 0h2.1875v2.1895h-2.1875zm-29.543 3.2832h2.1875v2.1875h-2.1875zm3.2812 0h2.1895v2.1875h-2.1895zm3.2832 0h2.1875v2.1875h-2.1875zm3.2832 0h2.1875v2.1875h-2.1875zm3.2812 0h2.1895v2.1875h-2.1895zm3.2832 0h2.1895v2.1875h-2.1895zm3.2832 0h2.1875v2.1875h-2.1875zm3.2812 0h2.1895v2.1875h-2.1895zm3.2832 0h2.1895v2.1875h-2.1895zm3.2832 0h2.1875v2.1875h-2.1875zm-29.543 3.2832h2.1875v2.1875h-2.1875zm3.2812 0h2.1895v2.1875h-2.1895zm3.2832 0h2.1875v2.1875h-2.1875zm3.2832 0h2.1875v2.1875h-2.1875zm3.2812 0h2.1895v2.1875h-2.1895zm3.2832 0h2.1895v2.1875h-2.1895zm3.2832 0h2.1875v2.1875h-2.1875zm3.2812 0h2.1895v2.1875h-2.1895zm3.2832 0h2.1895v2.1875h-2.1895zm3.2832 0h2.1875v2.1875h-2.1875zm-29.543 3.2812h2.1875v2.1895h-2.1875zm3.2812 0h2.1895v2.1895h-2.1895zm3.2832 0h2.1875v2.1895h-2.1875zm3.2832 0h2.1875v2.1895h-2.1875zm3.2812 0h2.1895v2.1895h-2.1895zm3.2832 0h2.1895v2.1895h-2.1895zm3.2832 0h2.1875v2.1895h-2.1875zm3.2812 0h2.1895v2.1895h-2.1895zm3.2832 0h2.1895v2.1895h-2.1895zm3.2832 0h2.1875v2.1895h-2.1875zm-29.543 3.2832h2.1875v2.1875h-2.1875zm3.2812 0h2.1895v2.1875h-2.1895zm3.2832 0h2.1875v2.1875h-2.1875zm3.2832 0h2.1875v2.1875h-2.1875zm3.2812 0h2.1895v2.1875h-2.1895zm3.2832 0h2.1895v2.1875h-2.1895zm3.2832 0h2.1875v2.1875h-2.1875zm3.2812 0h2.1895v2.1875h-2.1895zm3.2832 0h2.1895v2.1875h-2.1895zm3.2832 0h2.1875v2.1875h-2.1875zm3.2832 0h2.1875v2.1875h-2.1875zm3.2812 0h2.1895v2.1875h-2.1895zm3.2832 0h2.1875v2.1875h-2.1875zm-39.391 3.2832h2.1875v2.1875h-2.1875zm3.2812 0h2.1895v2.1875h-2.1895zm3.2832 0h2.1875v2.1875h-2.1875zm3.2832 0h2.1875v2.1875h-2.1875zm3.2812 0h2.1895v2.1875h-2.1895zm3.2832 0h2.1895v2.1875h-2.1895zm3.2832 0h2.1875v2.1875h-2.1875zm3.2812 0h2.1895v2.1875h-2.1895zm3.2832 0h2.1895v2.1875h-2.1895zm3.2832 0h2.1875v2.1875h-2.1875zm3.2832 0h2.1875v2.1875h-2.1875zm3.2812 0h2.1895v2.1875h-2.1895zm3.2832 0h2.1875v2.1875h-2.1875zm-39.391 3.2812h2.1875v2.1895h-2.1875zm3.2812 0h2.1895v2.1895h-2.1895zm3.2832 0h2.1875v2.1895h-2.1875zm3.2832 0h2.1875v2.1895h-2.1875zm3.2812 0h2.1895v2.1895h-2.1895zm3.2832 0h2.1895v2.1895h-2.1895zm3.2832 0h2.1875v2.1895h-2.1875zm3.2812 0h2.1895v2.1895h-2.1895zm3.2832 0h2.1895v2.1895h-2.1895zm3.2832 0h2.1875v2.1895h-2.1875zm3.2832 0h2.1875v2.1895h-2.1875zm3.2812 0h2.1895v2.1895h-2.1895zm3.2832 0h2.1875v2.1895h-2.1875zm-39.391 3.2832h2.1875v2.1875h-2.1875zm3.2812 0h2.1895v2.1875h-2.1895zm3.2832 0h2.1875v2.1875h-2.1875zm3.2832 0h2.1875v2.1875h-2.1875zm3.2812 0h2.1895v2.1875h-2.1895zm3.2832 0h2.1895v2.1875h-2.1895zm3.2832 0h2.1875v2.1875h-2.1875zm3.2812 0h2.1895v2.1875h-2.1895zm3.2832 0h2.1895v2.1875h-2.1895zm3.2832 0h2.1875v2.1875h-2.1875zm3.2832 0h2.1875v2.1875h-2.1875zm3.2812 0h2.1895v2.1875h-2.1895zm3.2832 0h2.1875v2.1875h-2.1875zm-39.391 3.2832h2.1875v2.1875h-2.1875zm3.2812 0h2.1895v2.1875h-2.1895zm3.2832 0h2.1875v2.1875h-2.1875zm3.2832 0h2.1875v2.1875h-2.1875zm3.2812 0h2.1895v2.1875h-2.1895zm3.2832 0h2.1895v2.1875h-2.1895zm3.2832 0h2.1875v2.1875h-2.1875zm3.2812 0h2.1895v2.1875h-2.1895zm3.2832 0h2.1895v2.1875h-2.1895zm3.2832 0h2.1875v2.1875h-2.1875zm3.2832 0h2.1875v2.1875h-2.1875zm3.2812 0h2.1895v2.1875h-2.1895zm3.2832 0h2.1875v2.1875h-2.1875zm-39.391 3.2812h2.1875v2.1895h-2.1875zm3.2812 0h2.1895v2.1895h-2.1895zm3.2832 0h2.1875v2.1895h-2.1875v-1.0938zm3.2832 0h2.1875v2.1895h-2.1875v-1.0938zm3.2812 0h2.1895v2.1895h-2.1895v-1.0938zm3.2832 0h2.1895v2.1895h-2.1895v-1.0938zm3.2832 0h2.1875v2.1895h-2.1875v-1.0938zm3.2812 0h2.1895v2.1895h-2.1895v-1.0938zm3.2832 0h2.1895v2.1895h-2.1895v-1.0938zm3.2832 0h2.1875v2.1895h-2.1875v-1.0938zm3.2832 0h2.1875v2.1895h-2.1875v-1.0938zm3.2812 0h2.1895v2.1895h-2.1895v-1.0938zm3.2832 0h2.1875v2.1895h-2.1875zm-39.391 3.2832h2.1875v2.1895h-2.1875zm3.2812 0h2.1895v2.1895h-2.1895zm3.2832 0h2.1875v2.1895h-2.1875zm3.2832 0h2.1875v2.1895h-2.1875v-1.0957zm3.2812 0h2.1895v2.1895h-2.1895v-1.0957zm3.2832 0h2.1895v2.1895h-2.1895v-1.0957zm3.2832 0h2.1875v2.1895h-2.1875v-1.0957zm3.2812 0h2.1895v2.1895h-2.1895v-1.0957zm3.2832 0h2.1895v2.1895h-2.1895v-1.0957zm3.2832 0h2.1875v2.1895h-2.1875v-1.0957zm3.2832 0h2.1875v2.1895h-2.1875v-1.0957zm3.2812 0h2.1895v2.1895h-2.1895v-1.0957zm3.2832 0h2.1875v2.1895h-2.1875v-1.0957zm-39.391 3.2832h2.1875v2.1875h-2.1875zm3.2812 0h2.1895v2.1875h-2.1895zm3.2832 0h2.1875v2.1875h-2.1875zm3.2832 0h2.1875v2.1875h-2.1875zm3.2812 0h2.1895v2.1875h-2.1895zm3.2832 0h2.1895v2.1875h-2.1895zm3.2832 0h2.1875v2.1875h-2.1875zm3.2812 0h2.1895v2.1875h-2.1895zm3.2832 0h2.1895v2.1875h-2.1895zm3.2832 0h2.1875v2.1875h-2.1875zm3.2832 0h2.1875v2.1875h-2.1875zm3.2812 0h2.1895v2.1875h-2.1895zm3.2832 0h2.1875v2.1875h-2.1875zm-39.391 3.2812h2.1875v2.1895h-2.1875zm3.2812 0h2.1895v2.1895h-2.1895zm3.2832 0h2.1875v2.1895h-2.1875zm3.2832 0h2.1875v2.1895h-2.1875zm3.2812 0h2.1895v2.1895h-2.1895zm3.2832 0h2.1895v2.1895h-2.1895zm3.2832 0h2.1875v2.1895h-2.1875zm3.2812 0h2.1895v2.1895h-2.1895zm3.2832 0h2.1895v2.1895h-2.1895zm3.2832 0h2.1875v2.1895h-2.1875zm3.2832 0h2.1875v2.1895h-2.1875zm3.2812 0h2.1895v2.1895h-2.1895zm3.2832 0h2.1875v2.1895h-2.1875zm-39.391 3.2832h2.1875v2.1895h-2.1875zm3.2812 0h2.1895v2.1895h-2.1895zm3.2832 0h2.1875v2.1895h-2.1875zm3.2832 0h2.1875v2.1895h-2.1875zm3.2812 0h2.1895v2.1895h-2.1895zm3.2832 0h2.1895v2.1895h-2.1895zm3.2832 0h2.1875v2.1895h-2.1875zm3.2812 0h2.1895v2.1895h-2.1895zm3.2832 0h2.1895v2.1895h-2.1895zm3.2832 0h2.1875v2.1895h-2.1875zm3.2832 0h2.1875v2.1895h-2.1875v-1.0957zm3.2812 0h2.1895v2.1895h-2.1895v-1.0957zm3.2832 0h2.1875v2.1895h-2.1875v-1.0957zm-39.391 3.2832h2.1875v2.1875h-2.1875zm3.2812 0h2.1895v2.1875h-2.1895zm3.2832 0h2.1875v2.1875h-2.1875zm3.2832 0h2.1875v2.1875h-2.1875zm3.2812 0h2.1895v2.1875h-2.1895zm3.2832 0h2.1895v2.1875h-2.1895zm3.2832 0h2.1875v2.1875h-2.1875zm3.2812 0h2.1895v2.1875h-2.1895zm3.2832 0h2.1895v2.1875h-2.1895zm3.2832 0h2.1875v2.1875h-2.1875zm3.2832 0h2.1875v2.1875h-2.1875zm3.2812 0h2.1895v2.1875h-2.1895zm3.2832 0h2.1875v2.1875h-2.1875zm-39.391 3.2812h2.1875v2.1895h-2.1875zm3.2812 0h2.1895v2.1895h-2.1895zm3.2832 0h2.1875v2.1895h-2.1875zm3.2832 0h2.1875v2.1895h-2.1875zm3.2812 0h2.1895v2.1895h-2.1895zm3.2832 0h2.1895v2.1895h-2.1895zm3.2832 0h2.1875v2.1895h-2.1875zm3.2812 0h2.1895v2.1895h-2.1895zm3.2832 0h2.1895v2.1895h-2.1895zm3.2832 0h2.1875v2.1895h-2.1875zm3.2832 0h2.1875v2.1895h-2.1875zm3.2812 0h2.1895v2.1895h-2.1895zm3.2832 0h2.1875v2.1895h-2.1875z" color="#000000" color-rendering="auto" image-rendering="auto" opacity=".1" shape-rendering="auto" stroke-width="1.0942"/>
 <g transform="matrix(3.7796 0 0 3.7796 -66.793 5.0216)" fill="#fff" stroke-width=".088193">
  <path d="m26.438 3.4338c-1.2902 0.22976-2.5811 0.53459-3.8713 0.76014 0 1.9626-8.5e-4 3.9261 0 5.8896 1.2835 0.22471 2.5676 0.5245 3.8485 0.75847h0.38446v-7.4082zm-1.9413 2.3328c0.25455-0.0054 0.4988 0.03123 0.69723 0.21071 0.38011 0.46125 0.27959 1.3096-0.28396 1.5857-0.2002 0.1023-0.42953 0.08832-0.64736 0.08126-8.75e-4 0.34483-0.0018 0.68958-9e-4 1.0344-0.17462-0.01499-0.35001-0.02994-0.52463-0.04405-0.0079-0.9419-0.0098-1.8411 7.75e-4 -2.783 0.24834-0.03094 0.50431-0.07957 0.75885-0.08497zm-0.02933 0.51107c-0.06946-0.0018-0.14052 0.0045-0.20567 0.0075-0.0026 0.29633-0.0043 0.59169 0.01421 0.88714 0.1755-0.02117 0.40304-0.0035 0.50358-0.18513 0.08378-0.17815 0.08904-0.40578-0.0115-0.57864-0.07331-0.10197-0.18485-0.12777-0.30062-0.13087z" enable-background="new"/>
  <path d="m27.065 4.4921v0.87939c0.124-0.02662 0.25872-0.0767 0.39674-0.085v1.19h1.1827c-0.04202 0.36101-0.20295 0.73206-0.52128 0.92073-0.3122 0.2099-0.70894 0.2126-1.0582 0.10413 8.75e-4 0.17286-8.75e-4 0.52205 0 0.6949h2.1165v0.26458h-2.1165v0.52916h2.1165v0.26458h-2.1165v0.79374h2.6457v-5.5561zm0.66132 0.63406c0.56254 0.05826 1.0277 0.52454 1.0889 1.0857h-1.0889z" enable-background="new"/>
 </g>
 <path d="m43.998 11v0.58399c0 3.0009 2.23 5.4162 5 5.4162h6.9998l5.37e-4 -1.0002-7.0006 1.89e-4c-2.77 7.5e-5 -5-2.23-5-5z" fill-rule="evenodd" opacity=".1" stroke-width="3.9338" style="paint-order:stroke fill markers"/>
</svg>
