<svg width="64" height="64" version="1.1" viewBox="0 0 16.933 16.933" xmlns="http://www.w3.org/2000/svg">
 <defs>
  <filter id="a-3" x="-.039001" y="-.033428" width="1.078" height="1.0669" color-interpolation-filters="sRGB">
   <feGaussianBlur stdDeviation="0.20637525"/>
  </filter>
 </defs>
 <g fill-rule="evenodd">
  <path d="m3.4395 1.3543c-0.73289 0-1.3229 0.59001-1.3229 1.3229v12.171c0 0.73289 0.59001 1.3229 1.3229 1.3229h10.054c0.73289 0 1.3229-0.59001 1.3229-1.3229v-10.319l-3.175-3.175z" filter="url(#a-3)" opacity=".15" stroke-width=".26458" style="paint-order:stroke fill markers"/>
  <path d="m3.4395 1.0588c-0.73289 0-1.3229 0.58999-1.3229 1.3229v12.171c0 0.73286 0.59001 1.3229 1.3229 1.3229h10.054c0.73289 0 1.3229-0.58999 1.3229-1.3229v-10.319l-3.175-3.1749z" fill="#3fa7d7" stroke-width=".26458" style="paint-order:stroke fill markers"/>
  <path d="m14.816 4.2332-3.1749-3.1749v1.852c0 0.73288 0.59001 1.3229 1.3229 1.3229z" fill="#fff" opacity=".35" style="paint-order:stroke fill markers"/>
 </g>
 <path d="m8.4365 4.4978a3.9687 3.9687 0 0 0-3.9387 3.9687 3.9687 3.9687 0 0 0 3.9687 3.9687 3.9687 3.9687 0 0 0 3.9687-3.9687 3.9687 3.9687 0 0 0-3.9687-3.9687 3.9687 3.9687 0 0 0-0.029972 0zm0.027388 1.5875a2.3812 2.3812 0 0 1 0.00258 0 2.3812 2.3812 0 0 1 2.3812 2.3812 2.3812 2.3812 0 0 1-2.3812 2.3812 2.3812 2.3812 0 0 1-2.3812-2.3812 2.3812 2.3812 0 0 1 2.3786-2.3812z" fill="#ff6e65" stroke-linecap="round" stroke-linejoin="round" stroke-width=".61164" style="paint-order:stroke fill markers"/>
 <path d="m4.862 6.821a3.948 3.948 0 0 0-0.364 1.645c0 0.587 0.134 1.144 0.364 1.646l1.389-0.794a2.378 2.378 0 0 1-0.166-0.852c0-0.3 0.064-0.587 0.166-0.851m-1.39-0.794m7.211 0-1.39 0.794c0.102 0.264 0.166 0.55 0.166 0.851s-0.064 0.587-0.165 0.852l1.389 0.794c0.229-0.502 0.363-1.059 0.363-1.646s-0.134-1.144-0.363-1.645m-4.457 3.862-0.794 1.388c0.502 0.23 1.059 0.364 1.646 0.364s1.144-0.134 1.645-0.364l-0.794-1.389c-0.264 0.102-0.55 0.166-0.851 0.166s-0.587-0.064-0.852-0.166m0.852-6.184c-0.587 0-1.144 0.134-1.646 0.363l0.794 1.39c0.265-0.102 0.55-0.166 0.852-0.166 0.3 0 0.587 0.064 0.851 0.165l0.794-1.389a3.948 3.948 0 0 0-1.645-0.363" fill="#fff"/>
 <path d="m11.641 2.9104v0.15451c0 0.79397 0.59 1.433 1.3229 1.433h1.852l1.42e-4 -0.26463-1.8522 5e-5c-0.73289 1.98e-5 -1.3229-0.59001-1.3229-1.3229z" fill-rule="evenodd" opacity=".1" stroke-width="1.0408" style="paint-order:stroke fill markers"/>
</svg>
