<svg width="64" height="64" version="1.1" viewBox="0 0 16.933 16.933" xmlns="http://www.w3.org/2000/svg">
 <defs>
  <filter id="a" x="-.039001" y="-.033428" width="1.078" height="1.0669" color-interpolation-filters="sRGB">
   <feGaussianBlur stdDeviation="0.20637525"/>
  </filter>
 </defs>
 <g fill-rule="evenodd">
  <path d="m3.4395 1.3543c-0.73289 0-1.3229 0.59001-1.3229 1.3229v12.171c0 0.73289 0.59001 1.3229 1.3229 1.3229h10.054c0.73289 0 1.3229-0.59001 1.3229-1.3229v-10.319l-3.175-3.175z" filter="url(#a)" opacity=".15" stroke-width=".26458" style="paint-order:stroke fill markers"/>
  <path d="m3.4395 1.0583c-0.73289 0-1.3229 0.59001-1.3229 1.3229v12.171c0 0.73289 0.59001 1.3229 1.3229 1.3229h10.054c0.73289 0 1.3229-0.59001 1.3229-1.3229v-10.319l-3.175-3.175z" fill="#84c835" stroke-width=".26458" style="paint-order:stroke fill markers"/>
  <path d="m14.816 4.2332-3.1749-3.1749v1.852c0 0.73288 0.59001 1.3229 1.3229 1.3229z" fill="#fff" opacity=".35" style="paint-order:stroke fill markers"/>
 </g>
 <g transform="translate(-14.713 -.1522)">
  <path d="m22.651 6.8328v1.7198c0 0.073288 0.059 0.13229 0.13229 0.13229h0.79374c0.07329 0 0.13229-0.059001 0.13229-0.13229v-1.7198zm0.26458 1.0583h0.52916v0.52916h-0.52916z" color="#000000" opacity=".2"/>
  <path d="m23.18 1.2767h-0.52916v0.52916h0.52916zm0 0.52916v0.52916h0.52916v-0.52916zm0 0.52916h-0.52916v0.52916h0.52916zm0 0.52916v0.52916h0.52916v-0.52916zm0 0.52916h-0.52916v0.52916h0.52916zm0 0.52916v0.52916h0.52916v-0.52916zm0 0.52916h-0.52916v0.52916h0.52916zm0 0.52916v0.52916h0.52916v-0.52916zm0 0.52916h-0.52916v0.52916h0.52916zm0 0.52916v0.52916h0.52916v-0.52916z" color="#000000" opacity=".2"/>
  <path d="m22.651 6.7667v1.7198c0 0.073288 0.059 0.13229 0.13229 0.13229h0.79374c0.07329 0 0.13229-0.059001 0.13229-0.13229v-1.7198zm0.26458 1.0583h0.52916v0.52916h-0.52916z" color="#000000" fill="#fff"/>
  <path d="m23.18 1.2105h-0.52916v0.52916h0.52916zm0 0.52916v0.52916h0.52916v-0.52916zm0 0.52916h-0.52916v0.52916h0.52916zm0 0.52916v0.52916h0.52916v-0.52916zm0 0.52916h-0.52916v0.52916h0.52916zm0 0.52916v0.52916h0.52916v-0.52916zm0 0.52916h-0.52916v0.52916h0.52916zm0 0.52916v0.52916h0.52916v-0.52916zm0 0.52916h-0.52916v0.52916h0.52916zm0 0.52916v0.52916h0.52916v-0.52916z" color="#000000" fill="#fff"/>
  <path d="m25.359 10.922 0.80255-0.80255c0.12347-0.12347 0.12347-0.31485 0-0.43832s-0.31485-0.12347-0.43832 0l-0.91368 0.91368c-0.4877-0.24694-1.0433-0.38893-1.6298-0.38893-0.59266 0-1.1483 0.14199-1.6421 0.38893l-0.91985-0.91368c-0.12347-0.12347-0.31485-0.12347-0.43832 0s-0.12347 0.31485 0 0.43832l0.80873 0.80873c-0.91368 0.67291-1.5125 1.7533-1.5125 2.9818h7.4082c0-1.2285-0.59883-2.3151-1.5249-2.988zm-3.5021 1.6651h-0.52916v-0.52916h0.52916zm3.1749 0h-0.52916v-0.52916h0.52916z" enable-background="new" fill="#0c2809" opacity=".5" stroke-width=".61735"/>
 </g>
 <path transform="scale(.26458)" d="m43.998 11v0.58398c0 3.0009 2.23 5.416 5 5.416h7l5.37e-4 -1.0002-7.0005 1.89e-4c-2.77 7.5e-5 -5-2.23-5-5z" fill-rule="evenodd" opacity=".1" stroke-width="3.934" style="paint-order:stroke fill markers"/>
</svg>
