<svg width="64" height="64" version="1.1" viewBox="0 0 64 64" xmlns="http://www.w3.org/2000/svg">
 <defs>
  <filter id="a" x="-.039001" y="-.033428" width="1.078" height="1.0669" color-interpolation-filters="sRGB">
   <feGaussianBlur stdDeviation="0.20637525"/>
  </filter>
 </defs>
 <path transform="scale(3.7796)" d="m3.4395 1.3543c-0.73289 0-1.3229 0.59001-1.3229 1.3229v12.171c0 0.73289 0.59001 1.3229 1.3229 1.3229h10.054c0.73289 0 1.3229-0.59001 1.3229-1.3229v-10.319l-3.175-3.175z" fill-rule="evenodd" filter="url(#a)" opacity=".15" stroke-width=".26458" style="paint-order:stroke fill markers"/>
 <path d="m13 4.0018c-2.77 0-5 2.2299-5 5v46.002c0 2.7699 2.23 5 5 5h38c2.77 0 5-2.2299 5-5v-39.002l-12-12z" fill="#2a6648" fill-rule="evenodd" style="paint-order:stroke fill markers"/>
 <g fill="#fff">
  <path d="m13 4.002c-1.1685 0-2.2267 0.41326-3.0762 1.0801h0.11914v2.1895h-1.7188c-0.12895 0.34987-0.23106 0.71153-0.2793 1.0938h1.998v2.1875h-2.043v1.0957h2.043v2.1875h-2.043v1.0938h2.043v2.1895h-2.043v1.0938h2.043v2.1875h-2.043v1.0957h2.043v2.1875h-2.043v1.0938h2.043v2.1895h-2.043v1.0938h2.043v2.1875h-2.043v1.0957h2.043v2.1875h-2.043v1.0938h2.043v2.1895h-2.043v1.0938h2.043v2.1895h-2.043v1.0938h2.043v2.1875h-2.043v1.0938h2.043v2.1895h-2.043v1.0938h2.043v2.1895h-2.043v1.0938h2.043v2.1875h-2.043v1.0938h2.043v2.1895h-1.7871c0.12224 0.38698 0.28104 0.7543 0.48828 1.0938h1.2988v1.418c0.33728 0.24833 0.70066 0.45914 1.0957 0.61719v-2.0352h2.1875v2.1895h1.0938v-2.1895h2.1895v2.1895h1.0938v-2.1895h2.1875v2.1895h1.0957v-2.1895h2.1875v2.1895h1.0938v-2.1895h2.1895v2.1895h1.0938v-2.1895h2.1895v2.1895h1.0938v-2.1895h2.1875v2.1895h1.0938v-2.1895h2.1895v2.1895h1.0938v-2.1895h2.1895v2.1895h1.0938v-2.1895h2.1875v2.1895h1.0957v-2.1895h2.1875v2.1895h1.0938v-2.1895h2.1895v2.1895h1.0938v-2.1895h2.1875v2.0801c0.38816-0.14181 0.75985-0.31468 1.0957-0.54297v-1.5371h1.4434c0.20724-0.33945 0.36604-0.70676 0.48828-1.0938h-1.9316v-2.1895h2.1875v-1.0938h-2.1875v-2.1875h2.1875v-1.0938h-2.1875v-2.1895h2.1875v-1.0938h-2.1875v-2.1895h2.1875v-1.0938h-2.1875v-2.1875h2.1875v-1.0938h-2.1875v-2.1895h2.1875v-1.0938h-2.1875v-2.1895h2.1875v-1.0938h-2.1875v-2.1875h2.1875v-1.0957h-2.1875v-2.1875h2.1875v-1.0938h-2.1875v-2.1895h2.1875v-1.0938h-2.1875v-2.1875h2.1875v-1.0957h-2.1875v-2.1875h2.1875v-1.0938h-2.1875v-1.1191h-1.0957v1.1191h-2.1875v-1.1191h-1.0938v1.1191h-2.1895v-1.4512c-0.38902-0.14541-0.75808-0.32614-1.0938-0.55859v2.0098h-2.1875v-2.1895h1.9688c-0.40117-0.31301-0.76356-0.6739-1.0527-1.0938h-0.91602v-2.1875h0.080078c-0.027435-0.2129-0.046875-0.42783-0.046875-0.64844v-0.44727h-0.033203v-2.1875h0.033203v-1.0938h-0.033203v-2.1895h0.033203v-1.0801h-30.998zm-1.8613 1.0801h2.1875v2.1895h-2.1875v-2.1895zm3.2812 0h2.1895v2.1895h-2.1895v-2.1895zm3.2832 0h2.1875v2.1895h-2.1875v-2.1895zm3.2832 0h2.1875v2.1895h-2.1875v-2.1895zm3.2812 0h2.1895v2.1895h-2.1895v-2.1895zm3.2832 0h2.1895v2.1895h-2.1895v-2.1895zm3.2832 0h2.1875v2.1895h-2.1875v-2.1895zm3.2812 0h2.1895v2.1895h-2.1895v-2.1895zm3.2832 0h2.1895v2.1895h-2.1895v-2.1895zm3.2832 0h2.1875v2.1895h-2.1875v-2.1895zm-29.543 3.2832h2.1875v2.1875h-2.1875v-2.1875zm3.2812 0h2.1895v2.1875h-2.1895v-2.1875zm3.2832 0h2.1875v2.1875h-2.1875v-2.1875zm3.2832 0h2.1875v2.1875h-2.1875v-2.1875zm3.2812 0h2.1895v2.1875h-2.1895v-2.1875zm3.2832 0h2.1895v2.1875h-2.1895v-2.1875zm3.2832 0h2.1875v2.1875h-2.1875v-2.1875zm3.2812 0h2.1895v2.1875h-2.1895v-2.1875zm3.2832 0h2.1895v2.1875h-2.1895v-2.1875zm3.2832 0h2.1875v2.1875h-2.1875v-2.1875zm-29.543 3.2832h2.1875v2.1875h-2.1875v-2.1875zm3.2812 0h2.1895v2.1875h-2.1895v-2.1875zm3.2832 0h2.1875v2.1875h-2.1875v-2.1875zm3.2832 0h2.1875v2.1875h-2.1875v-2.1875zm3.2812 0h2.1895v2.1875h-2.1895v-2.1875zm3.2832 0h2.1895v2.1875h-2.1895v-2.1875zm3.2832 0h2.1875v2.1875h-2.1875v-2.1875zm3.2812 0h2.1895v2.1875h-2.1895v-2.1875zm3.2832 0h2.1895v2.1875h-2.1895v-2.1875zm3.2832 0h2.1875v2.1875h-2.1875v-2.1875zm-29.543 3.2812h2.1875v2.1895h-2.1875v-2.1895zm3.2812 0h2.1895v2.1895h-2.1895v-2.1895zm3.2832 0h2.1875v2.1895h-2.1875v-2.1895zm3.2832 0h2.1875v2.1895h-2.1875v-2.1895zm3.2812 0h2.1895v2.1895h-2.1895v-2.1895zm3.2832 0h2.1895v2.1895h-2.1895v-2.1895zm3.2832 0h2.1875v2.1895h-2.1875v-2.1895zm3.2812 0h2.1895v2.1895h-2.1895v-2.1895zm3.2832 0h2.1895v2.1895h-2.1895v-2.1895zm3.2832 0h2.1875v2.1895h-2.1875v-2.1895zm-29.543 3.2832h2.1875v2.1875h-2.1875v-2.1875zm3.2812 0h2.1895v2.1875h-2.1895v-2.1875zm3.2832 0h2.1875v2.1875h-2.1875v-2.1875zm3.2832 0h2.1875v2.1875h-2.1875v-2.1875zm3.2812 0h2.1895v2.1875h-2.1895v-2.1875zm3.2832 0h2.1895v2.1875h-2.1895v-2.1875zm3.2832 0h2.1875v2.1875h-2.1875v-2.1875zm3.2812 0h2.1895v2.1875h-2.1895v-2.1875zm3.2832 0h2.1895v2.1875h-2.1895v-2.1875zm3.2832 0h2.1875v2.1875h-2.1875v-2.1875zm3.2832 0h2.1875v2.1875h-2.1875v-2.1875zm3.2812 0h2.1895v2.1875h-2.1895v-2.1875zm3.2832 0h2.1875v2.1875h-2.1875v-2.1875zm-39.391 3.2832h2.1875v2.1875h-2.1875v-2.1875zm3.2812 0h2.1895v2.1875h-2.1895v-2.1875zm3.2832 0h2.1875v2.1875h-2.1875v-2.1875zm3.2832 0h2.1875v2.1875h-2.1875v-2.1875zm3.2812 0h2.1895v2.1875h-2.1895v-2.1875zm3.2832 0h2.1895v2.1875h-2.1895v-2.1875zm3.2832 0h2.1875v2.1875h-2.1875v-2.1875zm3.2812 0h2.1895v2.1875h-2.1895v-2.1875zm3.2832 0h2.1895v2.1875h-2.1895v-2.1875zm3.2832 0h2.1875v2.1875h-2.1875v-2.1875zm3.2832 0h2.1875v2.1875h-2.1875v-2.1875zm3.2812 0h2.1895v2.1875h-2.1895v-2.1875zm3.2832 0h2.1875v2.1875h-2.1875v-2.1875zm-39.391 3.2812h2.1875v2.1895h-2.1875v-2.1895zm3.2812 0h2.1895v2.1895h-2.1895v-2.1895zm3.2832 0h2.1875v2.1895h-2.1875v-2.1895zm3.2832 0h2.1875v2.1895h-2.1875v-2.1895zm3.2812 0h2.1895v2.1895h-2.1895v-2.1895zm3.2832 0h2.1895v2.1895h-2.1895v-2.1895zm3.2832 0h2.1875v2.1895h-2.1875v-2.1895zm3.2812 0h2.1895v2.1895h-2.1895v-2.1895zm3.2832 0h2.1895v2.1895h-2.1895v-2.1895zm3.2832 0h2.1875v2.1895h-2.1875v-2.1895zm3.2832 0h2.1875v2.1895h-2.1875v-2.1895zm3.2812 0h2.1895v2.1895h-2.1895v-2.1895zm3.2832 0h2.1875v2.1895h-2.1875v-2.1895zm-39.391 3.2832h2.1875v2.1875h-2.1875v-2.1875zm3.2812 0h2.1895v2.1875h-2.1895v-2.1875zm3.2832 0h2.1875v2.1875h-2.1875v-2.1875zm3.2832 0h2.1875v2.1875h-2.1875v-2.1875zm3.2812 0h2.1895v2.1875h-2.1895v-2.1875zm3.2832 0h2.1895v2.1875h-2.1895v-2.1875zm3.2832 0h2.1875v2.1875h-2.1875v-2.1875zm3.2812 0h2.1895v2.1875h-2.1895v-2.1875zm3.2832 0h2.1895v2.1875h-2.1895v-2.1875zm3.2832 0h2.1875v2.1875h-2.1875v-2.1875zm3.2832 0h2.1875v2.1875h-2.1875v-2.1875zm3.2812 0h2.1895v2.1875h-2.1895v-2.1875zm3.2832 0h2.1875v2.1875h-2.1875v-2.1875zm-39.391 3.2832h2.1875v2.1875h-2.1875v-2.1875zm3.2812 0h2.1895v2.1875h-2.1895v-2.1875zm3.2832 0h2.1875v2.1875h-2.1875v-2.1875zm3.2832 0h2.1875v2.1875h-2.1875v-2.1875zm3.2812 0h2.1895v2.1875h-2.1895v-2.1875zm3.2832 0h2.1895v2.1875h-2.1895v-2.1875zm3.2832 0h2.1875v2.1875h-2.1875v-2.1875zm3.2812 0h2.1895v2.1875h-2.1895v-2.1875zm3.2832 0h2.1895v2.1875h-2.1895v-2.1875zm3.2832 0h2.1875v2.1875h-2.1875v-2.1875zm3.2832 0h2.1875v2.1875h-2.1875v-2.1875zm3.2812 0h2.1895v2.1875h-2.1895v-2.1875zm3.2832 0h2.1875v2.1875h-2.1875v-2.1875zm-39.391 3.2812h2.1875v2.1895h-2.1875v-2.1895zm3.2812 0h2.1895v2.1895h-2.1895v-2.1895zm3.2832 0h2.1875v2.1895h-2.1875v-1.0938-1.0957zm3.2832 0h2.1875v2.1895h-2.1875v-1.0938-1.0957zm3.2812 0h2.1895v2.1895h-2.1895v-1.0938-1.0957zm3.2832 0h2.1895v2.1895h-2.1895v-1.0938-1.0957zm3.2832 0h2.1875v2.1895h-2.1875v-1.0938-1.0957zm3.2812 0h2.1895v2.1895h-2.1895v-1.0938-1.0957zm3.2832 0h2.1895v2.1895h-2.1895v-1.0938-1.0957zm3.2832 0h2.1875v2.1895h-2.1875v-1.0938-1.0957zm3.2832 0h2.1875v2.1895h-2.1875v-1.0938-1.0957zm3.2812 0h2.1895v2.1895h-2.1895v-1.0938-1.0957zm3.2832 0h2.1875v2.1895h-2.1875v-2.1895zm-39.391 3.2832h2.1875v2.1895h-2.1875v-2.1895zm3.2812 0h2.1895v2.1895h-2.1895v-2.1895zm3.2832 0h2.1875v2.1895h-2.1875v-2.1895zm3.2832 0h2.1875v2.1895h-2.1875v-1.0957-1.0938zm3.2812 0h2.1895v2.1895h-2.1895v-1.0957-1.0938zm3.2832 0h2.1895v2.1895h-2.1895v-1.0957-1.0938zm3.2832 0h2.1875v2.1895h-2.1875v-1.0957-1.0938zm3.2812 0h2.1895v2.1895h-2.1895v-1.0957-1.0938zm3.2832 0h2.1895v2.1895h-2.1895v-1.0957-1.0938zm3.2832 0h2.1875v2.1895h-2.1875v-1.0957-1.0938zm3.2832 0h2.1875v2.1895h-2.1875v-1.0957-1.0938zm3.2812 0h2.1895v2.1895h-2.1895v-1.0957-1.0938zm3.2832 0h2.1875v2.1895h-2.1875v-1.0957-1.0938zm-39.391 3.2832h2.1875v2.1875h-2.1875v-2.1875zm3.2812 0h2.1895v2.1875h-2.1895v-2.1875zm3.2832 0h2.1875v2.1875h-2.1875v-2.1875zm3.2832 0h2.1875v2.1875h-2.1875v-2.1875zm3.2812 0h2.1895v2.1875h-2.1895v-2.1875zm3.2832 0h2.1895v2.1875h-2.1895v-2.1875zm3.2832 0h2.1875v2.1875h-2.1875v-2.1875zm3.2812 0h2.1895v2.1875h-2.1895v-2.1875zm3.2832 0h2.1895v2.1875h-2.1895v-2.1875zm3.2832 0h2.1875v2.1875h-2.1875v-2.1875zm3.2832 0h2.1875v2.1875h-2.1875v-2.1875zm3.2812 0h2.1895v2.1875h-2.1895v-2.1875zm3.2832 0h2.1875v2.1875h-2.1875v-2.1875zm-39.391 3.2812h2.1875v2.1895h-2.1875v-2.1895zm3.2812 0h2.1895v2.1895h-2.1895v-2.1895zm3.2832 0h2.1875v2.1895h-2.1875v-2.1895zm3.2832 0h2.1875v2.1895h-2.1875v-2.1895zm3.2812 0h2.1895v2.1895h-2.1895v-2.1895zm3.2832 0h2.1895v2.1895h-2.1895v-2.1895zm3.2832 0h2.1875v2.1895h-2.1875v-2.1895zm3.2812 0h2.1895v2.1895h-2.1895v-2.1895zm3.2832 0h2.1895v2.1895h-2.1895v-2.1895zm3.2832 0h2.1875v2.1895h-2.1875v-2.1895zm3.2832 0h2.1875v2.1895h-2.1875v-2.1895zm3.2812 0h2.1895v2.1895h-2.1895v-2.1895zm3.2832 0h2.1875v2.1895h-2.1875v-2.1895zm-39.391 3.2832h2.1875v2.1895h-2.1875v-2.1895zm3.2812 0h2.1895v2.1895h-2.1895v-2.1895zm3.2832 0h2.1875v2.1895h-2.1875v-2.1895zm3.2832 0h2.1875v2.1895h-2.1875v-2.1895zm3.2812 0h2.1895v2.1895h-2.1895v-2.1895zm3.2832 0h2.1895v2.1895h-2.1895v-2.1895zm3.2832 0h2.1875v2.1895h-2.1875v-2.1895zm3.2812 0h2.1895v2.1895h-2.1895v-2.1895zm3.2832 0h2.1895v2.1895h-2.1895v-2.1895zm3.2832 0h2.1875v2.1895h-2.1875v-2.1895zm3.2832 0h2.1875v2.1895h-2.1875v-1.0957-1.0938zm3.2812 0h2.1895v2.1895h-2.1895v-1.0957-1.0938zm3.2832 0h2.1875v2.1895h-2.1875v-1.0957-1.0938zm-39.391 3.2832h2.1875v2.1875h-2.1875v-2.1875zm3.2812 0h2.1895v2.1875h-2.1895v-2.1875zm3.2832 0h2.1875v2.1875h-2.1875v-2.1875zm3.2832 0h2.1875v2.1875h-2.1875v-2.1875zm3.2812 0h2.1895v2.1875h-2.1895v-2.1875zm3.2832 0h2.1895v2.1875h-2.1895v-2.1875zm3.2832 0h2.1875v2.1875h-2.1875v-2.1875zm3.2812 0h2.1895v2.1875h-2.1895v-2.1875zm3.2832 0h2.1895v2.1875h-2.1895v-2.1875zm3.2832 0h2.1875v2.1875h-2.1875v-2.1875zm3.2832 0h2.1875v2.1875h-2.1875v-2.1875zm3.2812 0h2.1895v2.1875h-2.1895v-2.1875zm3.2832 0h2.1875v2.1875h-2.1875v-2.1875zm-39.391 3.2812h2.1875v2.1895h-2.1875v-2.1895zm3.2812 0h2.1895v2.1895h-2.1895v-2.1895zm3.2832 0h2.1875v2.1895h-2.1875v-2.1895zm3.2832 0h2.1875v2.1895h-2.1875v-2.1895zm3.2812 0h2.1895v2.1895h-2.1895v-2.1895zm3.2832 0h2.1895v2.1895h-2.1895v-2.1895zm3.2832 0h2.1875v2.1895h-2.1875v-2.1895zm3.2812 0h2.1895v2.1895h-2.1895v-2.1895zm3.2832 0h2.1895v2.1895h-2.1895v-2.1895zm3.2832 0h2.1875v2.1895h-2.1875v-2.1895zm3.2832 0h2.1875v2.1895h-2.1875v-2.1895zm3.2812 0h2.1895v2.1895h-2.1895v-2.1895zm3.2832 0h2.1875v2.1895h-2.1875v-2.1895z" color="#000000" color-rendering="auto" image-rendering="auto" opacity=".1" shape-rendering="auto" stroke-width="1.0942"/>
  <path d="m55.999 16-12-12v6.9998c0 2.77 2.23 5 5 5z" fill-rule="evenodd" opacity=".35" stroke-width="3.7796" style="paint-order:stroke fill markers"/>
  <g transform="matrix(3.7796 0 0 3.7796 -77.229 -1.0169)" stroke-width=".088193">
   <path d="m29.199 5.0315c-1.2902 0.22976-2.5811 0.53459-3.8713 0.76014 0 1.9626-8.4e-4 3.9261 0 5.8896 1.2835 0.22471 2.5676 0.5245 3.8485 0.75847h0.38446v-7.4082zm-0.86117 2.3092c-0.22469 0.46033-0.45024 0.9207-0.67914 1.3793 0.23143 0.47127 0.46794 0.93908 0.7002 1.4104-0.20281-0.01178-0.40476-0.02445-0.60757-0.03876-0.14306-0.35093-0.31732-0.68998-0.41999-1.0569-0.11445 0.34167-0.27773 0.66395-0.40901 0.99889-0.1843-0.0025-0.36863-0.01013-0.55293-0.0177 0.21628-0.4233 0.425-0.85005 0.64801-1.2708-0.18935-0.4334-0.39722-0.8583-0.59246-1.2892 0.18514-0.01094 0.37037-0.02181 0.55551-0.03191 0.12539 0.32905 0.26248 0.6538 0.36599 0.99126 0.11108-0.35766 0.27687-0.69422 0.41909-1.0401 0.19019-0.01346 0.38127-0.02524 0.5723-0.03449z" enable-background="new"/>
   <path d="m29.825 6.0898v0.52916h0.79373v0.52916h-0.79373v0.26458h0.79373v0.53006h-0.79373v0.26367h0.79373v0.52916h-0.79373v0.26458h0.79373v0.52916h-0.79373v0.26458h0.79373v0.52916h-0.79373v0.26458h0.79373v0.52916h-0.79373v0.52916h2.6458v-5.5561zm1.0583 0.52916h1.0583v0.52916h-1.0583zm0 0.79374h1.0583v0.53006h-1.0583zm0 0.79373h1.0583v0.52916h-1.0583zm0 0.79373h1.0583v0.52916h-1.0583zm0 0.79374h1.0583v0.52916h-1.0583zm0 0.79373h1.0583v0.52916h-1.0583z" enable-background="new"/>
  </g>
 </g>
 <path d="m43.998 11v0.58399c0 3.0009 2.23 5.4162 5 5.4162h6.9998l5.37e-4 -1.0002-7.0006 1.89e-4c-2.77 7.5e-5 -5-2.23-5-5z" fill-rule="evenodd" opacity=".1" stroke-width="3.9338" style="paint-order:stroke fill markers"/>
</svg>
