<svg width="64" height="64" version="1.1" viewBox="0 0 16.933 16.933" xmlns="http://www.w3.org/2000/svg">
 <defs>
  <filter id="a" x="-.039001" y="-.033428" width="1.078" height="1.0669" color-interpolation-filters="sRGB">
   <feGaussianBlur stdDeviation="0.20637525"/>
  </filter>
 </defs>
 <path d="m3.4395 1.3543c-0.73289 0-1.3229 0.59001-1.3229 1.3229v12.171c0 0.73289 0.59001 1.3229 1.3229 1.3229h10.054c0.73289 0 1.3229-0.59001 1.3229-1.3229v-10.319l-3.175-3.175z" fill-rule="evenodd" filter="url(#a)" opacity=".15" stroke-width=".26458" style="paint-order:stroke fill markers"/>
 <g fill-rule="evenodd">
  <path transform="scale(.26458)" d="m13 4c-2.77 0-5 2.23-5 5v46c0 2.77 2.23 5 5 5h38c2.77 0 5-2.23 5-5v-39l-12-12h-31z" fill="#f4f4f4" style="paint-order:stroke fill markers"/>
  <path d="m14.816 4.2332-3.1749-3.1749v1.852c0 0.73288 0.59001 1.3229 1.3229 1.3229z" fill="#bbb" style="paint-order:stroke fill markers"/>
 </g>
 <path d="m10.848 5.2916c-0.09398-1e-3 -0.21892 0.01361-0.38515 0.03859l-2.7661 0.42296c-0.66784 0.14221-0.66555 0.18644-0.66781 0.75066v4.578c-0.02785-0.01951-0.05533-0.03913-0.08412-0.05843v1.98e-4c-0.21218-0.14219-0.43832-0.24338-0.74206-0.24338-0.38046 0-0.60735 0.14568-0.7447 0.33757s-0.1829 0.43375-0.1829 0.62072c0 0.22546 0.07698 0.46608 0.24397 0.64944s0.42373 0.31177 0.79287 0.31177c0.41684 0 0.71006-0.1164 0.87582-0.34372 0.13051-0.17898 0.20268-0.4181 0.22843-0.71305v-8.5e-4c0.0036-0.03578 0.0062-0.07254 0.0085-0.1104 0.0035-0.0583 0.0027-0.16737 0.0027-0.16737v-3.5053c0-0.50076-2.4e-5 -0.53065 0.668-0.64485l1.9671-0.30855c0.66923-0.08756 0.66937-0.02667 0.66937 0.3494v3.2169c-0.0271-0.01899-0.05387-0.0381-0.08188-0.05686v1.98e-4c-0.21218-0.14219-0.43822-0.24338-0.74197-0.24338-0.38046 0-0.60745 0.14568-0.7448 0.33757-0.13735 0.19188-0.1829 0.43375-0.1829 0.62072 0 0.22546 0.07708 0.46608 0.24406 0.64944 0.16699 0.18337 0.42373 0.31187 0.79287 0.31187 0.41684 0 0.71006-0.1165 0.87582-0.34382 0.13051-0.17898 0.20258-0.418 0.22833-0.71295v-9.25e-4c0.0036-0.03578 0.0062-0.07244 0.0085-0.11031 0.0035-0.0583 0.0028-0.16746 0.0028-0.16746v-4.8767c0-0.4392-0.0029-0.58465-0.28481-0.58779z" enable-background="new" fill="#eb577a"/>
 <path d="m11.641 2.9104v0.15451c0 0.79397 0.59 1.433 1.3229 1.433h1.852l1.42e-4 -0.26463-1.8522 5e-5c-0.73289 1.98e-5 -1.3229-0.59001-1.3229-1.3229z" fill-rule="evenodd" opacity=".1" stroke-width="1.0408" style="paint-order:stroke fill markers"/>
</svg>
