<svg width="64" height="64" version="1.1" xmlns="http://www.w3.org/2000/svg">
 <defs>
  <filter id="a" x="-.039001" y="-.033428" width="1.078" height="1.0669" color-interpolation-filters="sRGB">
   <feGaussianBlur stdDeviation="0.20637525"/>
  </filter>
 </defs>
 <path transform="scale(3.7796)" d="m3.4395 1.3543c-0.73289 0-1.3229 0.59001-1.3229 1.3229v12.171c0 0.73289 0.59001 1.3229 1.3229 1.3229h10.054c0.73289 0 1.3229-0.59001 1.3229-1.3229v-10.319l-3.175-3.175z" fill-rule="evenodd" filter="url(#a)" opacity=".15" stroke-width=".26458" style="paint-order:stroke fill markers"/>
 <g transform="scale(3.7796)" fill-rule="evenodd">
  <path transform="scale(.26458)" d="m13 4c-2.77 0-5 2.23-5 5v46c0 2.77 2.23 5 5 5h38c2.77 0 5-2.23 5-5v-39l-12-12z" fill="#ffa84c" style="paint-order:stroke fill markers"/>
  <path d="m14.816 4.2332-3.1749-3.1749v1.852c0 0.73288 0.59001 1.3229 1.3229 1.3229z" fill="#fff" opacity=".34" style="paint-order:stroke fill markers"/>
 </g>
 <path d="m40.985 18c-0.554 0-1 0.446-1 1v19.053c-1.224-0.514-2.756-0.335-4.067 0.476-2.137 1.322-3.062 3.896-2.065 5.746 0.995 1.851 3.533 2.28 5.668 0.957 1.545-0.957 2.512-2.62 2.46-4.228 0-7e-3 3e-3 -0.012 3e-3 -0.02v-16.238c0.24-0.132 0.614 0.154 0.812 0.29 2.245 1.358 4.206 3.612 4.345 6.39 0.12 1.606-0.216 3.204-0.68 4.73 2.065-3.395 1.954-8.12-0.597-11.222-1.645-1.717-3.196-3.718-3.88-6.043-0.05-0.22-0.351-0.89-1-0.89zm-21.986 1.999c-0.553 0-0.999 0.445-0.999 0.999s0.446 1 1 1h13.99c0.554 0 1-0.446 1-1s-0.446-1-1-1h-13.99zm0 5.996c-0.553 0-0.999 0.445-0.999 0.999s0.446 1 1 1h13.99c0.554 0 1-0.446 1-1s-0.446-1-1-1h-13.99zm0 5.996c-0.553 0-0.999 0.445-0.999 0.999s0.446 1 1 1h13.99c0.554 0 1-0.446 1-1s-0.446-1-1-1h-13.99zm0 5.996c-0.553 0-0.999 0.445-0.999 0.999s0.446 1 1 1h7.994c0.554 0 1-0.446 1-1s-0.446-1-1-1h-7.995z" color="#000000" fill="#fff" overflow="visible" solid-color="#000000" style="isolation:auto;mix-blend-mode:normal"/>
 <path d="m43.998 11v0.58399c0 3.0009 2.23 5.4162 5 5.4162h6.9998l5.37e-4 -1.0002-7.0006 1.89e-4c-2.77 7.5e-5 -5-2.23-5-5z" fill-rule="evenodd" opacity=".1" stroke-width="3.9338" style="paint-order:stroke fill markers"/>
</svg>
