<svg width="64" height="64" version="1.1" viewBox="0 0 64 64" xmlns="http://www.w3.org/2000/svg">
 <defs>
  <filter id="a" x="-.033428" y="-.039001" width="1.0669" height="1.078" color-interpolation-filters="sRGB">
   <feGaussianBlur stdDeviation="0.20637525"/>
  </filter>
 </defs>
 <g fill-rule="evenodd">
  <path transform="scale(3.7796)" d="m15.875 3.7982c0-0.73289-0.59001-1.3229-1.3229-1.3229h-12.171c-0.73289 0-1.3229 0.59001-1.3229 1.3229v10.054c0 0.73289 0.59001 1.3229 1.3229 1.3229h10.319l3.175-3.175z" filter="url(#a)" opacity=".15" stroke-width=".26458" style="paint-order:stroke fill markers"/>
  <path d="m60.001 13c0-2.77-2.23-5-5-5h-46.002c-2.77 0-5 2.23-5 5v38c0 2.77 2.23 5 5 5h39.002l12-12z" fill="#3b549e" style="paint-order:stroke fill markers"/>
  <path d="m48.001 55.999 12-12h-6.9998c-2.77 0-5 2.23-5 5z" fill="#fff" opacity=".35" stroke-width="3.7796" style="paint-order:stroke fill markers"/>
 </g>
 <path d="m30 21v4h4v-4zm1 1h2v2h-2zm-1.664 1.258-1.932 0.518 0.26 0.967 1.932-0.518zm-3 1-1.932 0.518 0.26 0.967 1.932-0.518zm8.664 0.275v1.035l6.143 1.645-6.143 1.754v14.03h0.029l7.971-2.277v-14.06zm-12 0.4668a1 1 0 0 0-1 1 1 1 0 0 0 1 1 1 1 0 0 0 1-1 1 1 0 0 0-1-1m-2 2v14l12 2v-14zm21 1.01v11.303l-6-1.609v-7.979zm-6 10.729 5.322 1.426-5.322 1.52z" color="#000000" color-rendering="auto" fill="#fff" image-rendering="auto" opacity=".75" shape-rendering="auto" solid-color="#000000" stroke-width="2" style="isolation:auto;mix-blend-mode:normal"/>
</svg>
