<svg width="64" height="64" version="1.1" viewBox="0 0 64 64" xmlns="http://www.w3.org/2000/svg">
 <defs>
  <filter id="a" x="-.033428" y="-.039001" width="1.0669" height="1.078" color-interpolation-filters="sRGB">
   <feGaussianBlur stdDeviation="0.20637525"/>
  </filter>
 </defs>
 <g fill-rule="evenodd">
  <path transform="scale(3.7796)" d="m15.875 3.7982c0-0.73289-0.59001-1.3229-1.3229-1.3229h-12.171c-0.73289 0-1.3229 0.59001-1.3229 1.3229v10.054c0 0.73289 0.59001 1.3229 1.3229 1.3229h10.319l3.175-3.175z" filter="url(#a)" opacity=".15" stroke-width=".26458" style="paint-order:stroke fill markers"/>
  <path d="m60.001 13c0-2.77-2.23-5-5-5h-46.002c-2.77 0-5 2.23-5 5v38c0 2.77 2.23 5 5 5h39.002l12-12z" fill="#3097f4" style="paint-order:stroke fill markers"/>
  <path d="m48.001 55.999 12-12h-6.9998c-2.77 0-5 2.23-5 5z" fill="#fff" opacity=".35" stroke-width="3.7796" style="paint-order:stroke fill markers"/>
 </g>
 <path d="m21 21v22h1.375 20.625v-19.25-2.75h-1v1h-2v-1h-2v1h-2v-1h-2v1h-3v-1h-2v1h-3v-1h-2v1h-2v-1zm1 3h20v18h-20v-18m3 4v1h14v-1zm0 4v1h8v-1zm0 4v1h11v-1zm11 3v1h3v-1z" color="#000000" color-rendering="auto" fill="#fff" image-rendering="auto" opacity=".8" shape-rendering="auto" solid-color="#000000" style="isolation:auto;mix-blend-mode:normal"/>
</svg>
