<svg width="64" height="64" version="1.1" viewBox="0 0 16.933 16.933" xmlns="http://www.w3.org/2000/svg">
 <defs>
  <filter id="a" x="-.039001" y="-.033428" width="1.078" height="1.0669" color-interpolation-filters="sRGB">
   <feGaussianBlur stdDeviation="0.2063745"/>
  </filter>
 </defs>
 <path d="m3.4395 1.35c-0.73289 0-1.3229 0.59-1.3229 1.3229v12.171c0 0.73289 0.59 1.3229 1.3229 1.3229h10.054c0.73289 0 1.3229-0.59 1.3229-1.3229v-10.319l-3.1749-3.1749zm0 0.52916h7.9828l2.8649 2.8649v10.099c0 0.44889-0.34485 0.79373-0.79373 0.79373h-10.054c-0.44889 0-0.79373-0.34485-0.79373-0.79373v-12.171c0-0.44889 0.34485-0.79373 0.79373-0.79373z" color="#000000" color-rendering="auto" dominant-baseline="auto" filter="url(#a)" image-rendering="auto" opacity=".15" shape-rendering="auto" solid-color="#000000" style="font-feature-settings:normal;font-variant-alternates:normal;font-variant-caps:normal;font-variant-ligatures:normal;font-variant-numeric:normal;font-variant-position:normal;isolation:auto;mix-blend-mode:normal;paint-order:fill markers stroke;shape-padding:0;text-decoration-color:#000000;text-decoration-line:none;text-decoration-style:solid;text-indent:0;text-orientation:mixed;text-transform:none;white-space:normal"/>
 <path d="m3.4395 1.0583c-0.73289 0-1.3229 0.59001-1.3229 1.3229v12.171c0 0.73289 0.59001 1.3229 1.3229 1.3229h10.054c0.73289 0 1.3229-0.59001 1.3229-1.3229v-10.319l-3.175-3.175z" fill="#f9f9f9" fill-rule="evenodd" stroke-width=".26458" style="paint-order:stroke fill markers"/>
 <path d="m3.4395 1.0583c-0.73289 0-1.3229 0.59-1.3229 1.3229v12.171c0 0.73289 0.59 1.3229 1.3229 1.3229h10.054c0.73289 0 1.3229-0.59 1.3229-1.3229v-10.319l-3.1749-3.1749zm0 0.52916h7.9828l2.8649 2.8649v10.099c0 0.44889-0.34485 0.79373-0.79373 0.79373h-10.054c-0.44889 0-0.79373-0.34485-0.79373-0.79373v-12.171c0-0.44889 0.34485-0.79373 0.79373-0.79373z" color="#000000" color-rendering="auto" dominant-baseline="auto" fill="#5b5b5b" image-rendering="auto" shape-rendering="auto" solid-color="#000000" style="font-feature-settings:normal;font-variant-alternates:normal;font-variant-caps:normal;font-variant-ligatures:normal;font-variant-numeric:normal;font-variant-position:normal;isolation:auto;mix-blend-mode:normal;paint-order:fill markers stroke;shape-padding:0;text-decoration-color:#000000;text-decoration-line:none;text-decoration-style:solid;text-indent:0;text-orientation:mixed;text-transform:none;white-space:normal"/>
 <path d="m12.171 1.0583 2.6458 2.6458-3.75e-4 -1.3229c-2.08e-4 -0.73288-0.59001-1.3229-1.3229-1.3229z" fill="#5b5b5b" fill-rule="evenodd" style="paint-order:stroke fill markers"/>
 <path transform="scale(.26458)" d="m16.016 18.014v27.5h32v-27.5h-32z" fill="#e6e6e6" stroke-width=".25"/>
 <rect x="4.436" y="10.388" width="8.0697" height="1.4552" fill="#fff" stroke-width=".066145"/>
 <g fill="#666">
  <g transform="matrix(.13231 0 0 .13229 -476.97 152.58)" opacity=".9">
   <path d="m3655.3-1071.4v0.7704c-0.2254-0.1313-0.4523-0.2297-0.6805-0.2953-0.2283-0.066-0.4608-0.099-0.6977-0.099-0.3566 0-0.6234 0.059-0.8003 0.1755-0.1741 0.1141-0.2611 0.2896-0.2611 0.5264 0 0.214 0.066 0.3738 0.1969 0.4794 0.1312 0.1056 0.4579 0.2083 0.9801 0.3082l0.3167 0.06c0.3909 0.074 0.6862 0.2225 0.886 0.4451 0.2025 0.2225 0.3038 0.5122 0.3038 0.8688 0 0.4737-0.1683 0.8446-0.505 1.1128-0.3367 0.2654-0.8046 0.398-1.4038 0.398-0.2369 0-0.4851-0.026-0.7447-0.077-0.2597-0.049-0.5407-0.1227-0.8432-0.2225v-0.8132c0.2939 0.1512 0.575 0.2653 0.8432 0.3424 0.2682 0.074 0.5221 0.1112 0.7618 0.1112 0.3481 0 0.6177-0.07 0.8089-0.2097 0.1912-0.1426 0.2868-0.341 0.2868-0.5949 0-0.3652-0.3496-0.6177-1.0486-0.7576l-0.034-0.01-0.2953-0.06c-0.4537-0.089-0.7846-0.2369-0.9929-0.4451-0.2083-0.2112-0.3125-0.4979-0.3125-0.8603 0-0.4594 0.1555-0.8132 0.4665-1.0614 0.3111-0.2511 0.7547-0.3767 1.3311-0.3767 0.2568 0 0.5036 0.024 0.7404 0.073 0.2369 0.046 0.4694 0.1155 0.6977 0.2097"/>
   <path d="m3657.8-1069.1c0 0.6106 0.096 1.0714 0.2867 1.3824 0.1941 0.311 0.4808 0.4665 0.8603 0.4665s0.6663-0.1555 0.8603-0.4665c0.1969-0.3139 0.2953-0.7747 0.2953-1.3824 0-0.6078-0.098-1.0672-0.2953-1.3782-0.194-0.3139-0.4808-0.4708-0.8603-0.4708s-0.6662 0.1555-0.8603 0.4665c-0.1911 0.311-0.2867 0.7718-0.2867 1.3825m2.3026 1.7804c-0.1284 0.2368-0.3024 0.4195-0.5222 0.5478-0.2168 0.1256-0.4693 0.1884-0.7575 0.1884-0.5735 0-1.0272-0.2212-1.361-0.6634-0.331-0.4451-0.4965-1.0572-0.4965-1.8361 0-0.7932 0.1655-1.4138 0.4965-1.8618s0.7846-0.672 1.361-0.672c0.2853 0 0.5364 0.063 0.7533 0.1884 0.2197 0.1226 0.3951 0.3024 0.5264 0.5392v-0.612h0.7918v6.6168h-0.7918v-2.4353"/>
   <path d="m3666.5-1070.4c-0.1683-0.1313-0.3395-0.2268-0.5136-0.2868-0.174-0.06-0.3652-0.09-0.5735-0.09-0.4908 0-0.866 0.154-1.1256 0.4622-0.2597 0.3082-0.3895 0.7533-0.3895 1.3353v2.384h-0.7918v-4.7936h0.7918v0.9373c0.1312-0.3395 0.3324-0.5992 0.6035-0.7789 0.2739-0.1826 0.5977-0.2739 0.9715-0.2739 0.194 0 0.3752 0.024 0.5436 0.073 0.1683 0.049 0.3295 0.1241 0.4836 0.2269v0.8046"/>
   <path d="m3669.9-1072.8v1.3611h1.789v0.612h-1.789v2.6022c0 0.3538 0.067 0.6006 0.2011 0.7405 0.1341 0.1398 0.3681 0.2097 0.7019 0.2097h0.886v0.6291h-0.963c-0.5906 0-1.0072-0.1184-1.2498-0.3552-0.2425-0.2368-0.3638-0.6449-0.3638-1.2241v-2.6022h-1.2797v-0.612h1.2797v-1.3611h0.7876"/>
   <path d="m3677.2-1066.2v0.6163h-0.2739c-0.7105 0-1.187-0.1055-1.4295-0.3167-0.2397-0.2111-0.3596-0.632-0.3595-1.2626v-1.0229c-1e-4 -0.4308-0.077-0.729-0.2312-0.8945-0.1512-0.1655-0.4265-0.2482-0.826-0.2482h-0.2654v-0.6121h0.2654c0.4023 0 0.6791-0.081 0.8303-0.2439 0.1512-0.1627 0.2268-0.458 0.2269-0.886v-1.0272c-1e-4 -0.6305 0.1198-1.05 0.3595-1.2583 0.2425-0.2111 0.719-0.3167 1.4295-0.3167h0.2739v0.612h-0.2996c-0.3995 1e-4 -0.6606 0.063-0.7832 0.1884-0.1199 0.1227-0.1798 0.3866-0.1798 0.7918v1.0614c0 0.448-0.066 0.7732-0.1969 0.9758-0.1284 0.2026-0.3495 0.3396-0.6634 0.4109 0.3167 0.077 0.5393 0.2168 0.6677 0.4194s0.1926 0.5265 0.1926 0.9716v1.0614c0 0.408 0.06 0.6734 0.1798 0.7961 0.1226 0.1227 0.3837 0.184 0.7832 0.184h0.2996"/>
   <path d="m3682.5-1071.5-1.7163 2.294 1.8832 2.4995h-0.9116l-1.4039-1.9217-1.3995 1.9217h-0.9116l1.8831-2.4995-1.7162-2.294h0.8731l1.2711 1.7334 1.2626-1.7334h0.886"/>
   <path d="m3683.9-1066.2h0.291c0.4024 0 0.6649-0.063 0.7876-0.1883 0.1227-0.1255 0.184-0.3895 0.184-0.7918v-1.0614c0-0.4451 0.064-0.769 0.1926-0.9716 0.1284-0.2026 0.351-0.3424 0.6677-0.4194-0.3139-0.071-0.5365-0.2083-0.6677-0.4109-0.1284-0.2026-0.1926-0.5278-0.1926-0.9758v-1.0614c0-0.4024-0.061-0.6663-0.184-0.7918-0.1227-0.1256-0.3852-0.1883-0.7876-0.1884h-0.291v-0.612h0.2654c0.7104 0 1.1855 0.1056 1.4252 0.3167 0.2397 0.2083 0.3595 0.6278 0.3595 1.2583v1.0272c0 0.428 0.076 0.7233 0.2269 0.886 0.154 0.1626 0.4322 0.2439 0.8345 0.2439h0.274v0.6121h-0.274c-0.4023 0-0.6805 0.083-0.8345 0.2482-0.1513 0.1655-0.2269 0.4637-0.2269 0.8945v1.0229c0 0.6306-0.1198 1.0515-0.3595 1.2626-0.2397 0.2112-0.7148 0.3167-1.4252 0.3167h-0.2654v-0.6163"/>
  </g>
  <path d="m7.9417 5.3613h3.9708v0.79374h-0.39709v-0.26458h-3.2424l-1.6178 3.8364h-0.23497l-0.99085-2.1144-0.38586 0.20223-0.14236-0.49576 0.80075-0.30468 0.83303 1.6258 1.4064-3.2788" opacity=".8" stroke-width=".066145"/>
  <path d="m11.672 6.6842h-0.65597l-0.80631 1.0581h-0.02049l-0.77899-1.0581h-0.71066l1.116 1.4836v0.018851l-1.157 1.5402h0.65598l0.86094-1.1462h0.0205l0.86101 1.1462h0.71066l-1.1843-1.5653v-0.018865l1.0887-1.4585" opacity=".8" stroke-width=".066145"/>
 </g>
</svg>
