<svg width="64" height="64" version="1.1" viewBox="0 0 16.933 16.933" xmlns="http://www.w3.org/2000/svg" xmlns:xlink="http://www.w3.org/1999/xlink">
 <defs>
  <filter id="a" x="-.039001" y="-.033428" width="1.078" height="1.0669" color-interpolation-filters="sRGB">
   <feGaussianBlur stdDeviation="0.2063745"/>
  </filter>
 </defs>
 <path d="m3.4395 1.35c-0.73289 0-1.3229 0.59-1.3229 1.3229v12.171c0 0.73289 0.59 1.3229 1.3229 1.3229h10.054c0.73289 0 1.3229-0.59 1.3229-1.3229v-10.319l-3.1749-3.1749zm0 0.52916h7.9828l2.8649 2.8649v10.099c0 0.44889-0.34485 0.79373-0.79373 0.79373h-10.054c-0.44889 0-0.79373-0.34485-0.79373-0.79373v-12.171c0-0.44889 0.34485-0.79373 0.79373-0.79373z" color="#000000" color-rendering="auto" dominant-baseline="auto" filter="url(#a)" image-rendering="auto" opacity=".15" shape-rendering="auto" solid-color="#000000" style="font-feature-settings:normal;font-variant-alternates:normal;font-variant-caps:normal;font-variant-ligatures:normal;font-variant-numeric:normal;font-variant-position:normal;isolation:auto;mix-blend-mode:normal;paint-order:fill markers stroke;shape-padding:0;text-decoration-color:#000000;text-decoration-line:none;text-decoration-style:solid;text-indent:0;text-orientation:mixed;text-transform:none;white-space:normal"/>
 <path d="m3.4395 1.0583c-0.73289 0-1.3229 0.59001-1.3229 1.3229v12.171c0 0.73289 0.59001 1.3229 1.3229 1.3229h10.054c0.73289 0 1.3229-0.59001 1.3229-1.3229v-10.319l-3.175-3.175z" fill="#f9f9f9" fill-rule="evenodd" stroke-width=".26458" style="paint-order:stroke fill markers"/>
 <path d="m3.4395 1.0583c-0.73289 0-1.3229 0.59-1.3229 1.3229v12.171c0 0.73289 0.59 1.3229 1.3229 1.3229h10.054c0.73289 0 1.3229-0.59 1.3229-1.3229v-10.319l-3.1749-3.1749zm0 0.52916h7.9828l2.8649 2.8649v10.099c0 0.44889-0.34485 0.79373-0.79373 0.79373h-10.054c-0.44889 0-0.79373-0.34485-0.79373-0.79373v-12.171c0-0.44889 0.34485-0.79373 0.79373-0.79373z" color="#000000" color-rendering="auto" dominant-baseline="auto" fill="#5b5b5b" image-rendering="auto" shape-rendering="auto" solid-color="#000000" style="font-feature-settings:normal;font-variant-alternates:normal;font-variant-caps:normal;font-variant-ligatures:normal;font-variant-numeric:normal;font-variant-position:normal;isolation:auto;mix-blend-mode:normal;paint-order:fill markers stroke;shape-padding:0;text-decoration-color:#000000;text-decoration-line:none;text-decoration-style:solid;text-indent:0;text-orientation:mixed;text-transform:none;white-space:normal"/>
 <path d="m12.171 1.0583 2.6458 2.6458-3.75e-4 -1.3229c-2.08e-4 -0.73288-0.59001-1.3229-1.3229-1.3229z" fill="#5b5b5b" fill-rule="evenodd" style="paint-order:stroke fill markers"/>
 <g transform="matrix(.26458 0 0 .26458 -888.72 301.25)" fill="#fff">
  <rect x="3376" y="-1096.6" width="24" height="2" opacity=".6"/>
  <rect x="3390" y="-1117.6" width="16" height="11" opacity=".6"/>
  <rect x="3376" y="-1116.6" width="12" height="2" opacity=".6"/>
  <rect x="3376" y="-1112.6" width="12" height="2" opacity=".6"/>
  <rect x="3376" y="-1108.6" width="12" height="2" opacity=".6"/>
  <rect x="3376" y="-1104.6" width="30" height="2" opacity=".6"/>
  <rect x="3376" y="-1100.6" width="30" height="2" opacity=".6"/>
 </g>
 <g transform="matrix(.26458 0 0 .26458 -888.72 301.25)">
  <rect x="3390" y="-1118.6" width="16" height="11" fill="#1c99e0"/>
  <g>
   <rect x="3391" y="-1117.6" width="13.999" height="8.9999" fill="#c5ebff"/>
   <path transform="matrix(0 .53938 -.88891 0 4382.5 -1355.6)" d="m448.77 1099.7a7.5845 4.6875 0 0 1-7.5845 4.6875v-4.6875z" fill="#dcdb46"/>
   <path d="m3399.2-1110.8-4.0835-4.8462-4.0834 5.923v1.077h14v-1.077l-2.9164-3.2307z" fill="#37b324"/>
  </g>
 </g>
 <g fill="#1c99e0" stroke-width=".26458">
  <rect x="4.4978" y="5.5561" width="3.1749" height=".52916"/>
  <rect x="4.4978" y="6.6145" width="3.1749" height=".52916"/>
  <rect x="4.4978" y="7.6728" width="3.1749" height=".52916"/>
  <rect x="4.4978" y="8.7311" width="7.9373" height=".52916"/>
  <rect x="4.4978" y="9.7894" width="7.9373" height=".52916"/>
  <rect x="4.4978" y="10.848" width="6.3499" height=".52916"/>
 </g>
</svg>
