<svg width="64" height="64" version="1.1" viewBox="0 0 16.933 16.933" xmlns="http://www.w3.org/2000/svg">
 <defs>
  <filter id="a" x="-.039001" y="-.033428" width="1.078" height="1.0669" color-interpolation-filters="sRGB">
   <feGaussianBlur stdDeviation="0.2063745"/>
  </filter>
 </defs>
 <path d="m3.4395 1.35c-0.73289 0-1.3229 0.59-1.3229 1.3229v12.171c0 0.73289 0.59 1.3229 1.3229 1.3229h10.054c0.73289 0 1.3229-0.59 1.3229-1.3229v-10.319l-3.1749-3.1749zm0 0.52916h7.9828l2.8649 2.8649v10.099c0 0.44889-0.34485 0.79373-0.79373 0.79373h-10.054c-0.44889 0-0.79373-0.34485-0.79373-0.79373v-12.171c0-0.44889 0.34485-0.79373 0.79373-0.79373z" color="#000000" color-rendering="auto" dominant-baseline="auto" filter="url(#a)" image-rendering="auto" opacity=".15" shape-rendering="auto" solid-color="#000000" style="font-feature-settings:normal;font-variant-alternates:normal;font-variant-caps:normal;font-variant-ligatures:normal;font-variant-numeric:normal;font-variant-position:normal;isolation:auto;mix-blend-mode:normal;paint-order:fill markers stroke;shape-padding:0;text-decoration-color:#000000;text-decoration-line:none;text-decoration-style:solid;text-indent:0;text-orientation:mixed;text-transform:none;white-space:normal"/>
 <path d="m3.4395 1.0583c-0.73289 0-1.3229 0.59001-1.3229 1.3229v12.171c0 0.73289 0.59001 1.3229 1.3229 1.3229h10.054c0.73289 0 1.3229-0.59001 1.3229-1.3229v-10.319l-3.175-3.175z" fill="#fff" fill-rule="evenodd" stroke-width=".26458" style="paint-order:stroke fill markers"/>
 <path d="m3.4395 1.0583c-0.73289 0-1.3229 0.59-1.3229 1.3229v12.171c0 0.73289 0.59 1.3229 1.3229 1.3229h10.054c0.73289 0 1.3229-0.59 1.3229-1.3229v-10.319l-3.1749-3.1749zm0 0.52916h7.9828l2.8649 2.8649v10.099c0 0.44889-0.34485 0.79373-0.79373 0.79373h-10.054c-0.44889 0-0.79373-0.34485-0.79373-0.79373v-12.171c0-0.44889 0.34485-0.79373 0.79373-0.79373z" color="#000000" color-rendering="auto" dominant-baseline="auto" fill="#b138b4" image-rendering="auto" shape-rendering="auto" solid-color="#000000" style="font-feature-settings:normal;font-variant-alternates:normal;font-variant-caps:normal;font-variant-ligatures:normal;font-variant-numeric:normal;font-variant-position:normal;isolation:auto;mix-blend-mode:normal;paint-order:fill markers stroke;shape-padding:0;text-decoration-color:#000000;text-decoration-line:none;text-decoration-style:solid;text-indent:0;text-orientation:mixed;text-transform:none;white-space:normal"/>
 <path d="m12.171 1.0583 2.6458 2.6458-3.75e-4 -1.3229c-2.08e-4 -0.73288-0.59001-1.3229-1.3229-1.3229z" fill="#b138b4" fill-rule="evenodd" style="paint-order:stroke fill markers"/>
 <g transform="translate(-19.843,2.3149)" fill="none" opacity=".5" stroke="#b138b4" stroke-width=".52916">
  <ellipse cx="28.31" cy="3.7698" rx="3.4395" ry="1.3229" enable-background="new" stroke-dashoffset="1" stroke-linejoin="round"/>
  <path d="m24.87 3.7041v4.8286" enable-background="new"/>
  <g stroke-dashoffset="1" stroke-linejoin="round">
   <path d="m31.749 5.3573a3.4395 1.3229 0 0 1-1.7198 1.1457 3.4395 1.3229 0 0 1-3.4395 0 3.4395 1.3229 0 0 1-1.7198-1.1457" enable-background="new"/>
   <path d="m31.749 6.9448a3.4395 1.3229 0 0 1-1.7198 1.1457 3.4395 1.3229 0 0 1-3.4395 0 3.4395 1.3229 0 0 1-1.7198-1.1457" enable-background="new"/>
   <path d="m31.749 8.5323a3.4395 1.3229 0 0 1-1.7198 1.1457 3.4395 1.3229 0 0 1-3.4395 0 3.4395 1.3229 0 0 1-1.7198-1.1457" enable-background="new"/>
  </g>
  <path d="m31.749 3.7041v4.8286" enable-background="new"/>
 </g>
</svg>
