<svg width="64" height="64" version="1.1" xmlns="http://www.w3.org/2000/svg">
 <defs>
  <filter id="a" x="-.039001" y="-.033428" width="1.078" height="1.0669" color-interpolation-filters="sRGB">
   <feGaussianBlur stdDeviation="0.20637525"/>
  </filter>
 </defs>
 <path transform="scale(3.7796)" d="m3.4395 1.3543c-0.73289 0-1.3229 0.59001-1.3229 1.3229v12.171c0 0.73289 0.59001 1.3229 1.3229 1.3229h10.054c0.73289 0 1.3229-0.59001 1.3229-1.3229v-10.319l-3.175-3.175z" filter="url(#a)" opacity=".15" stroke-width=".26458" style="paint-order:stroke fill markers"/>
 <g transform="scale(3.7796)" fill-rule="evenodd">
  <path d="m3.4395 1.0583c-0.73288 0-1.3229 0.58997-1.3229 1.3229v12.171c0 0.73284 0.59001 1.3229 1.3229 1.3229h10.054c0.73288 0 1.3229-0.58997 1.3229-1.3229v-10.319l-3.1749-3.1747z" fill="#5294e2" stroke-width=".99998" style="paint-order:stroke fill markers"/>
  <path d="m14.816 4.2332-3.1749-3.1749v1.852c0 0.73288 0.59001 1.3229 1.3229 1.3229z" fill="#fff" opacity=".35" style="paint-order:stroke fill markers"/>
 </g>
 <path d="m31.92 18.517c-1.3-0.272-2.517 1.194-3.505 0.57-0.214 0.98-1.274 0.219-1.227 1.037-1.28 0.996-2.114 2.633-2.018 4.291-0.21 1.303 0.446 2.937-0.373 4.01-0.255 1.258-0.05 2.637 0.378 3.845 0.887 1.348 2.26 2.459 2.568 4.147 0.145 1.568-1.547 2.444-2.588 3.298-1.628 1.124-3.358 1.986-5.155 2.802v3h24v-3a20.344 20.344 0 0 1-6.508-4.538c-1.306-1.254-0.04-3.048 0.787-4.176 1.096-0.922 1.665-2.271 1.677-3.704 0.364-1.411-0.73-2.474-0.475-3.907-0.035-1.817 0.231-4.002-1.291-5.325-1.714-1.492-4.027-2.266-6.27-2.35z" color="#000000" fill="#fff" overflow="visible"/>
 <path d="m43.998 11v0.58399c0 3.0009 2.23 5.4162 5 5.4162h6.9998l5.37e-4 -1.0002-7.0006 1.89e-4c-2.77 7.5e-5 -5-2.23-5-5z" opacity=".1" stroke-width="3.9338" style="paint-order:stroke fill markers"/>
</svg>
