<svg width="64" height="64" version="1.1" viewBox="0 0 16.933 16.933" xmlns="http://www.w3.org/2000/svg">
 <defs>
  <filter id="a" x="-.039001" y="-.033428" width="1.078" height="1.0669" color-interpolation-filters="sRGB">
   <feGaussianBlur stdDeviation="0.20637525"/>
  </filter>
 </defs>
 <path d="m3.4395 1.3543c-0.73289 0-1.3229 0.59001-1.3229 1.3229v12.171c0 0.73289 0.59001 1.3229 1.3229 1.3229h10.054c0.73289 0 1.3229-0.59001 1.3229-1.3229v-10.319l-3.175-3.175z" filter="url(#a)" opacity=".15" stroke-width=".26458" style="paint-order:stroke fill markers"/>
 <g fill-rule="evenodd">
  <path transform="scale(.26458)" d="m13 4c-2.77 0-5 2.23-5 5v46c0 2.77 2.23 5 5 5h38c2.77 0 5-2.23 5-5v-39l-12-12h-31z" fill="#f4f4f4" style="paint-order:stroke fill markers"/>
  <path d="m14.816 4.2332-3.1749-3.1749v1.852c0 0.73288 0.59001 1.3229 1.3229 1.3229z" fill="#bbb" style="paint-order:stroke fill markers"/>
 </g>
 <path d="m9.7169 5.4218c-0.22663 0-0.44029 0.04209-0.63651 0.12686l-4e-4 1.32e-4 -2.75e-4 1.32e-4c-0.19513 0.08055-0.36684 0.19842-0.51042 0.35101l-2.75e-4 2.75e-4 -0.0013 0.0014-4e-4 5.25e-4c-0.13982 0.1534-0.24825 0.33814-0.32504 0.54983v1.32e-4l-1.32e-4 2.75e-4c-0.07772 0.2106-0.11588 0.44237-0.11588 0.69245 0 0.2538 0.03802 0.48721 0.11588 0.69814 0.07692 0.20837 0.18547 0.39113 0.32517 0.5444l4e-4 5.25e-4 9e-4 0.0012 4.07e-4 4.07e-4c0.14354 0.15259 0.31486 0.2724 0.50965 0.35682l4e-4 1.32e-4 7.75e-4 4e-4 6.5e-4 2.75e-4 4e-4 1.32e-4c0.19616 0.08077 0.40954 0.12066 0.636 0.12066s0.43997-0.0399 0.63613-0.12066l0.0012-5.25e-4 1e-3 -4e-4c0.19507-0.08455 0.36489-0.20505 0.50487-0.3585l4.07e-4 -4.07e-4c0.14351-0.15309 0.25443-0.33598 0.33137-0.5444 0.07786-0.21091 0.11562-0.44431 0.11562-0.69814 0-0.2497-0.03789-0.48109-0.11536-0.69142l-5.25e-4 -0.0016c-0.076811-0.21171-0.18748-0.39647-0.33111-0.5497l-4.08e-4 -4.08e-4c-0.14007-0.15354-0.31042-0.27211-0.5059-0.35281l-3.99e-4 -1.33e-4 -2.75e-4 -1.32e-4c-0.19584-0.084559-0.40921-0.12668-0.63535-0.12681zm-6.5e-4 0.27026h6.5e-4c0.19408 0 0.36973 0.03533 0.53084 0.10516l4e-4 1.33e-4 7.75e-4 4e-4 6.5e-4 2.75e-4 4e-4 1.32e-4c0.16145 0.06648 0.29707 0.16108 0.41095 0.28602l5.25e-4 5.25e-4 0.0013 0.0015c0.11753 0.12516 0.20924 0.27668 0.27517 0.45888l0.0012 0.0031 4e-4 0.0019v2.75e-4c0.06437 0.17605 0.09767 0.37338 0.09767 0.59452 0 0.227-0.03381 0.42765-0.09909 0.60447-0.06583 0.17834-0.15743 0.32846-0.27543 0.4541l-4e-4 4e-4 -9e-4 0.0012-4e-4 4e-4c-0.11384 0.1249-0.24975 0.2214-0.41121 0.29171l-4e-4 2.75e-4 -4e-4 1.32e-4c-0.1613 0.06625-0.33746 0.09999-0.532 0.09999-0.19453 0-0.37069-0.03374-0.532-0.09999l-4e-4 -1.32e-4 -4e-4 -2.75e-4c-0.16142-0.07028-0.29956-0.16711-0.41754-0.29235l-5.5e-4 -5.5e-4c-0.11422-0.12561-0.20439-0.27608-0.27039-0.45487-0.06528-0.17683-0.09909-0.37747-0.09909-0.60447 0-0.22157 0.03344-0.41938 0.09805-0.59569l7.75e-4 -0.0027 2.75e-4 -5.25e-4 2.75e-4 -9e-4c0.06611-0.18266 0.15634-0.3345 0.27013-0.45965l2.75e-4 -2.75e-4 2.75e-4 -4e-4c0.11803-0.12528 0.25576-0.22022 0.41715-0.28667l0.0012-4e-4 1.32e-4 -1.32e-4 1e-3 -4e-4c0.16092-0.06975 0.33638-0.10509 0.53019-0.10516zm-3.2839 0.52402c-0.17164 0-0.33466 0.0321-0.4842 0.09663l-2.75e-4 1.33e-4 -2.75e-4 1.32e-4c-0.1487 0.06142-0.28029 0.15164-0.38976 0.26807l-4e-4 5.25e-4 -5.5e-4 5.5e-4 -4e-4 5.25e-4c-0.10684 0.11718-0.18938 0.25821-0.24752 0.4187l-2.75e-4 6.5e-4c-6.6e-5 6.6e-5 -6.6e-5 1.98e-4 -1.32e-4 2.75e-4 -0.05875 0.15967-0.08733 0.33468-0.08733 0.52257 0 0.19107 0.02865 0.36794 0.08785 0.52825 0.05825 0.15775 0.14089 0.2971 0.2474 0.41392l4e-4 5.25e-4 9e-4 1e-3c0.10937 0.11632 0.24044 0.20782 0.38873 0.27207l2.75e-4 1.33e-4 0.0026 0.0012 1.32e-4 1.32e-4c0.14924 0.06132 0.31171 0.09146 0.48291 0.09146 0.17125 0 0.33349-0.03011 0.48278-0.09146 6.6e-5 -6.6e-5 1.98e-4 -6.6e-5 2.75e-4 -1.32e-4l0.0014-7.75e-4 0.0012-5.25e-4c0.14839-0.0643 0.27833-0.15624 0.38511-0.27323l2.75e-4 -2.75e-4 1.33e-4 -2.75e-4c0.10929-0.11666 0.19378-0.25599 0.25205-0.41379 0.0592-0.16032 0.08772-0.33718 0.08772-0.52825 0-0.18803-0.02862-0.36319-0.08746-0.52296l-1.32e-4 -5.25e-4c-0.058243-0.16073-0.14262-0.30185-0.25245-0.41896l-2.75e-4 -2.75e-4 -1.32e-4 -2.75e-4c-0.10681-0.11692-0.23723-0.20744-0.38589-0.26884l-5.5e-4 -2.64e-4c-0.14955-0.06454-0.31242-0.09663-0.48407-0.09663zm-0.0079 0.27039h0.0079c0.13909 0 0.26387 0.02522 0.37826 0.0748l4e-4 1.32e-4 9e-4 2.75e-4 0.0012 5.25e-4c0.11458 0.04717 0.21 0.11395 0.29054 0.20218l8e-4 8e-4 0.0012 1e-3c0.08352 0.08883 0.14878 0.19674 0.19611 0.32749l6.5e-4 0.0019c0.04645 0.12625 0.07067 0.26861 0.07067 0.42929 0 0.16424-0.02431 0.30835-0.07092 0.43459-0.04722 0.1279-0.1127 0.23461-0.19662 0.32388l-4e-4 5.25e-4 -4e-4 4e-4 -2.75e-4 4e-4 -4e-4 5.25e-4c-0.08079 0.08862-0.17712 0.15678-0.2921 0.20683l-5.25e-4 2.75e-4 -4e-4 1.33e-4c-0.11436 0.0468-0.23938 0.07105-0.37865 0.07105-0.13932 0-0.26449-0.02421-0.37891-0.07105l-4e-4 -1.33e-4 -4e-4 -2.75e-4c-0.11489-0.05-0.21267-0.11852-0.29649-0.20735l-2.75e-4 -2.75e-4 -2.75e-4 -4e-4c-0.081081-0.08916-0.14562-0.19592-0.19301-0.32426-0.04663-0.12633-0.07092-0.27048-0.07092-0.43472 0-0.16089 0.02423-0.30344 0.0708-0.42981 6.6e-5 -1.98e-4 6.3e-5 -6e-4 1.32e-4 -7.75e-4l1.33e-4 -1.32e-4 1.32e-4 -6.5e-4c0.04749-0.1312 0.11208-0.23916 0.19275-0.32788l5.5e-4 -5.5e-4c0.08368-0.08866 0.18083-0.1559 0.29545-0.20308l1e-3 -4e-4 0.0012-5.25e-4c0.11143-0.04829 0.23344-0.07249 0.36819-0.07377zm3.3302 2.9647c-1.1919 1e-6 -1.9185 0.10869-2.3725 0.44518-0.22628 0.16769-0.37504 0.3951-0.46056 0.66726-0.0823 0.26192-0.10946 0.59034-0.11239 0.9469l0.27039 6.5e-4c3e-3 -0.34158 0.03059-0.64554 0.09999-0.86641 0.07222-0.22986 0.1838-0.39793 0.36366-0.53122 0.36172-0.26806 1.0374-0.39209 2.2114-0.39209 1.1741 1e-6 1.8497 0.12408 2.2111 0.39209 0.17969 0.13326 0.29111 0.30127 0.36302 0.53109 0.06911 0.22085 0.09617 0.52474 0.0987 0.86628l0.27039-2.75e-4c-0.0023-0.35657-0.02901-0.68482-0.11097-0.94677-0.08517-0.27218-0.23401-0.4998-0.46017-0.66752-0.45381-0.33655-1.1801-0.44518-2.372-0.44518zm-3.4027-0.05663c-0.84497 0.0026-1.3441 0.08488-1.6827 0.33746-0.17132 0.1278-0.28515 0.30412-0.34907 0.51133-0.06413 0.20796-0.08423 0.44787-0.08486 0.73134v0.40422h0.27026v-0.40384c6.25e-4 -0.27014 0.02163-0.48594 0.07286-0.65202 0.05095-0.16517 0.12799-0.28153 0.2523-0.37426 0.24711-0.18434 0.69536-0.28054 1.5212-0.28372z" color="#000000" color-rendering="auto" dominant-baseline="auto" fill="#999" image-rendering="auto" shape-rendering="auto" solid-color="#000000" style="font-feature-settings:normal;font-variant-alternates:normal;font-variant-caps:normal;font-variant-ligatures:normal;font-variant-numeric:normal;font-variant-position:normal;isolation:auto;mix-blend-mode:normal;shape-padding:0;text-decoration-color:#000000;text-decoration-line:none;text-decoration-style:solid;text-indent:0;text-orientation:mixed;text-transform:none;white-space:normal"/>
 <path d="m11.641 2.9104v0.15451c0 0.79397 0.59 1.433 1.3229 1.433h1.852l1.42e-4 -0.26463-1.8522 5e-5c-0.73289 1.98e-5 -1.3229-0.59001-1.3229-1.3229z" opacity=".1" stroke-width="1.0408" style="paint-order:stroke fill markers"/>
</svg>
