<svg width="64" height="64" version="1.1" viewBox="0 0 16.933 16.933" xmlns="http://www.w3.org/2000/svg">
 <defs>
  <filter id="a" x="-.039001" y="-.033428" width="1.078" height="1.0669" color-interpolation-filters="sRGB">
   <feGaussianBlur stdDeviation="0.20637525"/>
  </filter>
 </defs>
 <path d="m3.4395 1.3543c-0.73289 0-1.3229 0.59001-1.3229 1.3229v12.171c0 0.73289 0.59001 1.3229 1.3229 1.3229h10.054c0.73289 0 1.3229-0.59001 1.3229-1.3229v-10.319l-3.175-3.175z" filter="url(#a)" opacity=".15" stroke-width=".26458" style="paint-order:stroke fill markers"/>
 <g fill-rule="evenodd">
  <path transform="scale(.26458)" d="m13 4c-2.77 0-5 2.23-5 5v46c0 2.77 2.23 5 5 5h38c2.77 0 5-2.23 5-5v-39l-12-12z" fill="#f4f4f4" style="paint-order:stroke fill markers"/>
  <path d="m14.816 4.2332-3.1749-3.1749v1.852c0 0.73288 0.59001 1.3229 1.3229 1.3229z" fill="#bbb" style="paint-order:stroke fill markers"/>
 </g>
 <path d="m11.641 2.9104v0.15451c0 0.79397 0.59 1.433 1.3229 1.433h1.852l1.42e-4 -0.26463-1.8522 5e-5c-0.73289 1.98e-5 -1.3229-0.59001-1.3229-1.3229z" opacity=".1" stroke-width="1.0408" style="paint-order:stroke fill markers"/>
 <g transform="matrix(.066145 0 0 .066145 -1.5875 -1.7198)" enable-background="new">
  <path d="m96 92v4h72v-4zm0 12v4h112v-4zm0 12v4h56v-4z" fill="#5884f4"/>
  <path d="m96 200v4h112v-4zm0 12v4h56v-4z" fill="#b3b3b3"/>
  <path d="m136 128v4h66v-4zm0 12v4h72v-4zm0 12v4h56v-4z" fill="#c43ac4"/>
  <path d="m96 128v4h32v-4zm0 12v4h32v-4zm0 12v4h32v-4z" fill="#8c59d9"/>
  <path d="m136 164v4h72v-4zm0 12v4h56v-4z" fill="#76c22b"/>
  <path d="m96 164v4h32v-4zm0 12v4h32v-4zm0 12v4h32v-4z" fill="#f22c42"/>
  <path d="m136 188v4h72v-4z" fill="#b3b3b3"/>
 </g>
</svg>
