<svg width="64" height="64" version="1.1" viewBox="0 0 16.933 16.933" xmlns="http://www.w3.org/2000/svg">
 <defs>
  <filter id="a" x="-.039001" y="-.033428" width="1.078" height="1.0669" color-interpolation-filters="sRGB">
   <feGaussianBlur stdDeviation="0.20637525"/>
  </filter>
 </defs>
 <path d="m3.4395 1.3543c-0.73289 0-1.3229 0.59001-1.3229 1.3229v12.171c0 0.73289 0.59001 1.3229 1.3229 1.3229h10.054c0.73289 0 1.3229-0.59001 1.3229-1.3229v-10.319l-3.175-3.175z" filter="url(#a)" opacity=".15" stroke-width=".26458" style="paint-order:stroke fill markers"/>
 <g fill-rule="evenodd">
  <path transform="scale(.26458)" d="m13 4c-2.77 0-5 2.23-5 5v46c0 2.77 2.23 5 5 5h38c2.77 0 5-2.23 5-5v-39l-12-12z" fill="#f4f4f4" style="paint-order:stroke fill markers"/>
  <path d="m14.816 4.2332-3.1749-3.1749v1.852c0 0.73288 0.59001 1.3229 1.3229 1.3229z" fill="#bbb" style="paint-order:stroke fill markers"/>
 </g>
 <path d="m11.641 2.9104v0.15451c0 0.79397 0.59 1.433 1.3229 1.433h1.852l1.42e-4 -0.26463-1.8522 5e-5c-0.73289 1.98e-5 -1.3229-0.59001-1.3229-1.3229z" opacity=".1" stroke-width="1.0408" style="paint-order:stroke fill markers"/>
 <path class="st1" d="m10.96 6.0704c0.26821 0.06705 0.47273 0.18607 0.66048 0.38053 0.09723 0.10393 0.24139 0.29336 0.25313 0.33862 0.0034 0.01341-0.45596 0.32186-0.73424 0.49452-0.01006 0.0067-0.05029-0.03688-0.09555-0.10393-0.13578-0.19781-0.27827-0.2833-0.4962-0.29839-0.32018-0.02179-0.52637 0.14584-0.52469 0.42579 0 0.08214 0.01174 0.13076 0.04526 0.19781 0.07041 0.14584 0.20116 0.23301 0.61186 0.4107 0.75603 0.32521 1.0796 0.53978 1.2807 0.84487 0.22463 0.3403 0.27492 0.88343 0.12237 1.2874-0.16763 0.4392-0.58337 0.73759-1.1684 0.83649-0.18104 0.03185-0.61019 0.02682-0.80464-0.0084-0.42411-0.07544-0.82643-0.28498-1.0745-0.5599-0.09723-0.10729-0.28665-0.38723-0.27492-0.40735 5e-3 -0.0067 0.04861-0.03353 0.09723-0.06202 0.04694-0.02682 0.22463-0.12908 0.39226-0.2263l0.30342-0.17602 0.0637 0.09388c0.08885 0.13578 0.2833 0.32186 0.40064 0.38388 0.33694 0.17769 0.79961 0.15255 1.0276-0.05197 0.09723-0.08885 0.13746-0.18104 0.13746-0.31683 0-0.12237-0.01509-0.17602-0.07879-0.26822-0.08214-0.11734-0.24978-0.21625-0.72585-0.42244-0.54481-0.23469-0.7795-0.38053-0.99407-0.61186-0.12405-0.13411-0.24139-0.34868-0.29001-0.52805-0.04023-0.14919-0.05029-0.52302-0.01844-0.67389 0.11231-0.52637 0.50961-0.89349 1.0829-1.0024 0.18607-0.0352 0.61857-0.02179 0.80129 0.02347zm-2.4793 0.44088 0.0034 0.4325h-1.3746v3.9059h-0.97232v-3.9059h-1.3746v-0.42411c0-0.23469 5e-3 -0.43082 0.01173-0.43585 5e-3 -0.0067 0.84152-0.01006 1.8557-0.0084l1.8456 5e-3z" enable-background="new" fill="#1a7fd4" stroke-width=".0066144"/>
</svg>
