<svg width="64" height="64" version="1.1" viewBox="0 0 16.933 16.933" xmlns="http://www.w3.org/2000/svg">
 <defs>
  <filter id="a" x="-.039001" y="-.033428" width="1.078" height="1.0669" color-interpolation-filters="sRGB">
   <feGaussianBlur stdDeviation="0.20637525"/>
  </filter>
 </defs>
 <path d="m3.4395 1.3543c-0.73289 0-1.3229 0.59001-1.3229 1.3229v12.171c0 0.73289 0.59001 1.3229 1.3229 1.3229h10.054c0.73289 0 1.3229-0.59001 1.3229-1.3229v-10.319l-3.175-3.175z" filter="url(#a)" opacity=".15" stroke-width=".26458" style="paint-order:stroke fill markers"/>
 <g fill-rule="evenodd">
  <path transform="scale(.26458)" d="m13 4c-2.77 0-5 2.23-5 5v46c0 2.77 2.23 5 5 5h38c2.77 0 5-2.23 5-5v-39l-12-12z" fill="#f4f4f4" style="paint-order:stroke fill markers"/>
  <path d="m14.816 4.2332-3.1749-3.1749v1.852c0 0.73288 0.59001 1.3229 1.3229 1.3229z" fill="#bbb" style="paint-order:stroke fill markers"/>
 </g>
 <path d="m11.641 2.9104v0.15451c0 0.79397 0.59 1.433 1.3229 1.433h1.852l1.42e-4 -0.26463-1.8522 5e-5c-0.73289 1.98e-5 -1.3229-0.59001-1.3229-1.3229z" opacity=".1" stroke-width="1.0408" style="paint-order:stroke fill markers"/>
 <path d="m9.3537 9.5175c0.22643 0.3697 0.52101 0.64145 1.042 0.64145 0.43768 0 0.71728-0.21875 0.71728-0.52101 0-0.36221-0.28727-0.4905-0.76903-0.70122l-0.26408-0.1133c-0.76225-0.32474-1.2686-0.73156-1.2686-1.5916 0-0.79222 0.60363-1.3953 1.547-1.3953 0.67161 0 1.1544 0.23374 1.5024 0.84575l-0.82256 0.52815c-0.1811-0.32474-0.37648-0.45267-0.67981-0.45267-0.3094 0-0.50549 0.19627-0.50549 0.45267 0 0.31689 0.19627 0.44518 0.64948 0.64145l0.26408 0.11312c0.8975 0.38487 1.4042 0.77724 1.4042 1.6594 0 0.95103-0.74708 1.472-1.7504 1.472-0.981 0-1.6148-0.46748-1.9249-1.0802zm-3.7315 0.09153c0.16594 0.29441 0.31689 0.54332 0.67981 0.54332 0.34704 0 0.56598-0.13578 0.56598-0.66375v-3.5918h1.0563v3.606c0 1.0938-0.64127 1.5916-1.5773 1.5916-0.84575 0-1.3355-0.43769-1.5846-0.96485z" enable-background="new" fill="#eab305" stroke-width=".066145"/>
</svg>
