<svg width="64" height="64" version="1.1" viewBox="0 0 16.933 16.933" xmlns="http://www.w3.org/2000/svg">
 <defs>
  <filter id="a" x="-.039001" y="-.033428" width="1.078" height="1.0669" color-interpolation-filters="sRGB">
   <feGaussianBlur stdDeviation="0.20637525"/>
  </filter>
 </defs>
 <path d="m3.4395 1.3543c-0.73289 0-1.3229 0.59001-1.3229 1.3229v12.171c0 0.73289 0.59001 1.3229 1.3229 1.3229h10.054c0.73289 0 1.3229-0.59001 1.3229-1.3229v-10.319l-3.175-3.175z" filter="url(#a)" opacity=".15" stroke-width=".26458" style="paint-order:stroke fill markers"/>
 <g fill-rule="evenodd">
  <path transform="scale(.26458)" d="m13 4c-2.77 0-5 2.23-5 5v46c0 2.77 2.23 5 5 5h38c2.77 0 5-2.23 5-5v-39l-12-12z" fill="#f4f4f4" style="paint-order:stroke fill markers"/>
  <path d="m14.816 4.2332-3.1749-3.1749v1.852c0 0.73288 0.59001 1.3229 1.3229 1.3229z" fill="#bbb" style="paint-order:stroke fill markers"/>
 </g>
 <g transform="translate(-.52948 .52914)">
  <path d="m6.914 6.085v5.557h-1.118v-5.557h-1.827v-1.058h4.761v1.058zm2.082 4.335 0.901-0.395c0.086 0.293 0.242 0.517 0.47 0.672 0.228 0.152 0.519 0.228 0.873 0.228 0.335 0 0.601-0.088 0.797-0.264 0.2-0.176 0.3-0.412 0.3-0.707 0-0.386-0.34-0.729-1.016-1.03a5.24 5.24 0 0 0-0.219-0.099c-0.765-0.352-1.223-0.67-1.48-0.954a1.528 1.528 0 0 1-0.379-1.048c0-0.534 0.192-0.967 0.574-1.299 0.386-0.331 0.89-0.497 1.514-0.497 0.512 0 0.94 0.094 1.286 0.282 0.344 0.185 0.583 0.453 0.716 0.802l-0.882 0.43a1.418 1.418 0 0 0-0.46-0.452 1.113 1.113 0 0 0-0.57-0.144c-0.304 0-0.546 0.075-0.726 0.224a0.745 0.745 0 0 0-0.266 0.6c0 0.394 0.393 0.762 1.177 1.102l0.142 0.063c0.687 0.298 1.105 0.59 1.361 0.878 0.257 0.283 0.385 0.638 0.385 1.065 0 0.621-0.207 1.116-0.622 1.483-0.414 0.364-0.974 0.546-1.68 0.546-0.59 0-1.076-0.128-1.456-0.385-0.376-0.257-0.623-0.624-0.74-1.102z" fill="#007acc" font-size="35" font-weight="700" letter-spacing="0" word-spacing="0"/>
 </g>
 <path d="m11.641 2.9104v0.15451c0 0.79397 0.59 1.433 1.3229 1.433h1.852l1.42e-4 -0.26463-1.8522 5e-5c-0.73289 1.98e-5 -1.3229-0.59001-1.3229-1.3229z" opacity=".1" stroke-width="1.0408" style="paint-order:stroke fill markers"/>
</svg>
