<svg width="64" height="64" version="1.1" xmlns="http://www.w3.org/2000/svg">
 <defs>
  <filter id="a" x="-.039001" y="-.033428" width="1.078" height="1.0669" color-interpolation-filters="sRGB">
   <feGaussianBlur stdDeviation="0.20637525"/>
  </filter>
 </defs>
 <path transform="scale(3.7796)" d="m3.4395 1.3543c-0.73289 0-1.3229 0.59001-1.3229 1.3229v12.171c0 0.73289 0.59001 1.3229 1.3229 1.3229h10.054c0.73289 0 1.3229-0.59001 1.3229-1.3229v-10.319l-3.175-3.175z" filter="url(#a)" opacity=".15" stroke-width=".26458" style="paint-order:stroke fill markers"/>
 <g transform="scale(3.7796)" fill-rule="evenodd">
  <path transform="scale(.26458)" d="m13 4c-2.77 0-5 2.23-5 5v46c0 2.77 2.23 5 5 5h38c2.77 0 5-2.23 5-5v-39l-12-12z" fill="#f4f4f4" style="paint-order:stroke fill markers"/>
  <path d="m14.816 4.2332-3.1749-3.1749v1.852c0 0.73288 0.59001 1.3229 1.3229 1.3229z" fill="#bbb" style="paint-order:stroke fill markers"/>
 </g>
 <path d="m43.998 11v0.58399c0 3.0009 2.23 5.4162 5 5.4162h6.9998l5.37e-4 -1.0002-7.0006 1.89e-4c-2.77 7.5e-5 -5-2.23-5-5z" opacity=".1" stroke-width="3.9338" style="paint-order:stroke fill markers"/>
 <g fill="#95458d">
  <path d="m23.492 17.5v29h5.0197c0.01814-3.7792-0.0395-7.56 0.03477-11.338 0.12442-1.7748 0.22258-4.0351 1.9136-5.0072 0.9308-0.53496 2.1768-0.66506 3.2022-0.33219 1.5028 0.48795 1.755 2.4243 1.8193 3.8193 0.02457 4.2857 0.0038 8.5721 0.01058 12.858h5c-0.01058-4.8163 0.0378-9.6841-7e-6 -14.5-0.05193-2.4201-1.043-5.0707-3.3583-6.1751-1.9789-0.94369-4.3216-0.66204-6.3297 0.09906-0.94811 0.35933-2.2565 2.1079-2.2565 2.1079-0.01209-3.5106-0.02381-7.021-0.03591-10.532h-5.0197z" color="#000000" stroke-width="3.7796"/>
  <path d="m35 17v3h-3v1h3v3h1v-3h3v-1h-3v-3z" opacity=".75"/>
  <path d="m43 17v3h-3v1h3v3h1v-3h3v-1h-3v-3z" opacity=".75"/>
 </g>
</svg>
