<svg width="64" height="64" version="1.1" viewBox="0 0 16.933 16.933" xmlns="http://www.w3.org/2000/svg">
 <defs>
  <filter id="a" x="-.039001" y="-.033428" width="1.078" height="1.0669" color-interpolation-filters="sRGB">
   <feGaussianBlur stdDeviation="0.20637525"/>
  </filter>
 </defs>
 <path d="m3.4395 1.3543c-0.73289 0-1.3229 0.59001-1.3229 1.3229v12.171c0 0.73289 0.59001 1.3229 1.3229 1.3229h10.054c0.73289 0 1.3229-0.59001 1.3229-1.3229v-10.319l-3.175-3.175z" filter="url(#a)" opacity=".15" stroke-width=".26458" style="paint-order:stroke fill markers"/>
 <g fill-rule="evenodd">
  <path transform="scale(.26458)" d="m13 4c-2.77 0-5 2.23-5 5v46c0 2.77 2.23 5 5 5h38c2.77 0 5-2.23 5-5v-39l-12-12z" fill="#f4f4f4" style="paint-order:stroke fill markers"/>
  <path d="m14.816 4.2332-3.1749-3.1749v1.852c0 0.73288 0.59001 1.3229 1.3229 1.3229z" fill="#bbb" style="paint-order:stroke fill markers"/>
 </g>
 <path d="m11.641 2.9104v0.15451c0 0.79397 0.59 1.433 1.3229 1.433h1.852l1.42e-4 -0.26463-1.8522 5e-5c-0.73289 1.98e-5 -1.3229-0.59001-1.3229-1.3229z" opacity=".1" stroke-width="1.0408" style="paint-order:stroke fill markers"/>
 <path d="m6.2156 4.6301v7.6728h1.3281c0.0048-0.9999-0.01045-2.0002 0.0092-2.9998 0.03292-0.46957 0.05889-1.0676 0.5063-1.3248 0.24627-0.14154 0.57594-0.17596 0.84722-0.08789 0.39762 0.1291 0.46434 0.64142 0.48136 1.0105 0.0065 1.1339 1e-3 2.268 0.0028 3.402h1.3229c-0.0028-1.2743 0.01-2.5622-2e-6 -3.8364-0.01374-0.64031-0.27596-1.3416-0.88853-1.6338-0.52357-0.24968-1.1434-0.17516-1.6747 0.02621-0.25085 0.09507-0.59703 0.5577-0.59703 0.5577-0.0032-0.92882-0.0063-1.8576-0.0095-2.7865h-1.3281z" color="#000000" fill="#da1636"/>
</svg>
