<svg width="64" height="64" version="1.1" viewBox="0 0 64 64" xmlns="http://www.w3.org/2000/svg">
 <defs>
  <filter id="a" x="-.039001" y="-.033428" width="1.078" height="1.0669" color-interpolation-filters="sRGB">
   <feGaussianBlur stdDeviation="0.20637525"/>
  </filter>
 </defs>
 <path transform="scale(3.7796)" d="m3.4395 1.3543c-0.73289 0-1.3229 0.59001-1.3229 1.3229v12.171c0 0.73289 0.59001 1.3229 1.3229 1.3229h10.054c0.73289 0 1.3229-0.59001 1.3229-1.3229v-10.319l-3.175-3.175z" filter="url(#a)" opacity=".15" stroke-width=".26458" style="paint-order:stroke fill markers"/>
 <g transform="scale(3.7796)" fill-rule="evenodd">
  <path transform="scale(.26458)" d="m13 4c-2.77 0-5 2.23-5 5v46c0 2.77 2.23 5 5 5h38c2.77 0 5-2.23 5-5v-39l-12-12z" fill="#f4f4f4" style="paint-order:stroke fill markers"/>
  <path d="m14.816 4.2332-3.1749-3.1749v1.852c0 0.73288 0.59001 1.3229 1.3229 1.3229z" fill="#bbb" style="paint-order:stroke fill markers"/>
 </g>
 <path d="m36.726 20.492c-0.85657 0-1.6641 0.15908-2.4058 0.47948l-0.0015 4.99e-4 -1e-3 4.98e-4c-0.73756 0.30445-1.3866 0.74995-1.9292 1.3267l-1e-3 1e-3 -0.0049 0.0053-0.0015 2e-3c-0.52846 0.57979-0.93829 1.278-1.2285 2.0781v4.99e-4l-4.99e-4 1e-3c-0.29375 0.79598-0.43798 1.672-0.43798 2.6172 0 0.95926 0.1437 1.8415 0.43798 2.6387 0.29073 0.78756 0.701 1.4783 1.229 2.0576l0.0015 2e-3 0.0034 0.0045 0.0015 0.0015c0.54252 0.57673 1.19 1.0296 1.9263 1.3486l0.0015 4.99e-4 0.0029 0.0015 0.0025 1e-3 0.0015 4.99e-4c0.74141 0.30528 1.5479 0.45605 2.4038 0.45605 0.85593 0 1.6629-0.15081 2.4043-0.45605l0.0045-2e-3 0.0038-0.0015c0.73729-0.31956 1.3791-0.77501 1.9082-1.355l0.0015-0.0015c0.54241-0.57862 0.96164-1.2699 1.2524-2.0576 0.29428-0.79716 0.437-1.6793 0.437-2.6387 0-0.94377-0.14321-1.8183-0.43602-2.6133l-2e-3 -6e-3c-0.29031-0.80018-0.7086-1.4985-1.2515-2.0776l-0.0015-0.0015c-0.52941-0.58032-1.1733-1.0285-1.9121-1.3335l-0.0015-5.03e-4 -1e-3 -4.99e-4c-0.7402-0.3196-1.5467-0.4788-2.4014-0.47929zm-0.0025 1.0215h0.0025c0.73355 0 1.3974 0.13353 2.0064 0.39746l0.0015 5.02e-4 0.0029 0.0015 0.0025 1e-3 0.0015 4.99e-4c0.61022 0.25127 1.1228 0.60882 1.5532 1.081l2e-3 2e-3 0.0049 0.0057c0.44422 0.47306 0.79084 1.0457 1.04 1.7344l0.0045 0.01172 0.0015 0.0072v1e-3c0.24329 0.6654 0.36915 1.4112 0.36915 2.247 0 0.85797-0.12779 1.6163-0.37452 2.2847-0.24881 0.67405-0.59502 1.2414-1.041 1.7163l-0.0015 0.0015-0.0034 0.0045-0.0015 0.0015c-0.43027 0.47207-0.94396 0.8368-1.5542 1.1025l-0.0015 1e-3 -0.0015 4.98e-4c-0.60965 0.2504-1.2755 0.37792-2.0107 0.37792-0.73525 0-1.4011-0.12752-2.0107-0.37792l-0.0015-4.98e-4 -0.0015-1e-3c-0.6101-0.26563-1.1322-0.63161-1.5781-1.105l-0.0021-0.0021c-0.4317-0.47465-0.77251-1.0434-1.022-1.7191-0.24673-0.66835-0.37452-1.4267-0.37452-2.2847 0-0.83745 0.12639-1.5851 0.37059-2.2515l0.0029-0.01021 1e-3 -2e-3 1e-3 -0.0034c0.24987-0.69038 0.5909-1.2643 1.021-1.7373l1e-3 -1e-3 1e-3 -0.0015c0.44611-0.47351 0.96667-0.83234 1.5767-1.0835l0.0045-0.0015 4.99e-4 -4.99e-4 0.0038-0.0015c0.60821-0.26363 1.2714-0.3972 2.0039-0.39746zm-12.412 1.9806c-0.64873 0-1.2649 0.12132-1.8301 0.36522l-1e-3 5.02e-4 -1e-3 4.99e-4c-0.56203 0.23214-1.0594 0.57314-1.4731 1.0132l-0.0015 2e-3 -0.0021 0.0021-0.0015 2e-3c-0.40381 0.44289-0.71578 0.97593-0.93553 1.5825l-1e-3 0.0025c-2.49e-4 2.49e-4 -2.49e-4 7.48e-4 -4.99e-4 1e-3 -0.22205 0.60349-0.33007 1.265-0.33007 1.9751 0 0.72217 0.10829 1.3907 0.33204 1.9966 0.22016 0.59623 0.53251 1.1229 0.93507 1.5645l0.0015 2e-3 0.0034 0.0038c0.41338 0.43964 0.90877 0.78548 1.4692 1.0283l1e-3 5.03e-4 0.0098 0.0045 4.98e-4 4.98e-4c0.56407 0.23177 1.1781 0.34568 1.8252 0.34568 0.64726 0 1.2605-0.1138 1.8247-0.34568 2.5e-4 -2.49e-4 7.49e-4 -2.49e-4 1e-3 -4.98e-4l0.0053-0.0029 0.0045-2e-3c0.56086-0.24303 1.052-0.59052 1.4556-1.0327l1e-3 -1e-3 5.02e-4 -1e-3c0.41307-0.44093 0.73241-0.96754 0.95265-1.564 0.22375-0.60595 0.33155-1.2744 0.33155-1.9966 0-0.71068-0.10817-1.3727-0.33056-1.9766l-4.99e-4 -2e-3c-0.22014-0.6075-0.53905-1.1409-0.95416-1.5835l-1e-3 -1e-3 -4.99e-4 -1e-3c-0.40363-0.44212-0.89656-0.78425-1.4584-1.0163l-0.0021-9.97e-4c-0.56522-0.24394-1.1808-0.36522-1.8296-0.36522zm-0.02986 1.022h0.02986c0.5257 0 0.99732 0.09532 1.4297 0.28271l0.0015 4.99e-4 0.0034 1e-3 0.0045 2e-3c0.43307 0.17828 0.79372 0.43069 1.0981 0.76416l3e-3 3e-3 0.0045 0.0038c0.31567 0.33574 0.56233 0.7436 0.74122 1.2378l0.0025 0.0072c0.17556 0.47718 0.2671 1.0152 0.2671 1.6225 0 0.62076-0.09188 1.1654-0.26805 1.6426-0.17847 0.48341-0.42596 0.88673-0.74314 1.2241l-0.0015 2e-3 -0.0015 0.0015-1e-3 0.0015-0.0015 2e-3c-0.30535 0.33495-0.66944 0.59257-1.104 0.78174l-2e-3 1e-3 -0.0015 5.03e-4c-0.43224 0.17688-0.90476 0.26854-1.4311 0.26854-0.52657 0-0.99967-0.0915-1.4321-0.26854l-0.0015-5.03e-4 -0.0015-1e-3c-0.43424-0.18898-0.80381-0.44796-1.1206-0.7837l-1e-3 -1e-3 -1e-3 -0.0015c-0.30645-0.33699-0.55038-0.7405-0.7295-1.2256-0.17624-0.47748-0.26805-1.0223-0.26805-1.6431 0-0.6081 0.09158-1.1469 0.2676-1.6245 2.49e-4 -7.48e-4 2.38e-4 -0.0023 4.99e-4 -0.0029l5.02e-4 -4.99e-4 4.99e-4 -0.0025c0.17949-0.49588 0.42362-0.90393 0.72852-1.2393l0.0021-0.0021c0.31628-0.3351 0.68347-0.58924 1.1167-0.76756l0.0038-0.0015 0.0045-2e-3c0.42116-0.18252 0.88231-0.27398 1.3916-0.27882zm12.587 11.205c-4.5049 4e-6 -7.2512 0.4108-8.9671 1.6826-0.85525 0.6338-1.4175 1.4933-1.7407 2.522-0.31106 0.98995-0.41372 2.2312-0.42479 3.5789l1.022 0.0025c0.01134-1.291 0.11562-2.4399 0.37792-3.2747 0.27296-0.86878 0.69469-1.504 1.3745-2.0078 1.3672-1.0132 3.921-1.4819 8.3582-1.4819 4.4376 4e-6 6.9911 0.46897 8.3571 1.4819 0.67916 0.50367 1.1003 1.1387 1.3721 2.0073 0.26121 0.83472 0.36348 1.9833 0.37305 3.2742l1.022-1e-3c-0.0087-1.3477-0.10965-2.5883-0.41942-3.5784-0.32191-1.0287-0.88446-1.889-1.7393-2.523-1.7152-1.272-4.4603-1.6826-8.9652-1.6826zm-12.861-0.21404c-3.1937 0.0098-5.0802 0.32081-6.3599 1.2755-0.64752 0.48303-1.0778 1.1495-1.3193 1.9326-0.24239 0.78601-0.31836 1.6928-0.32074 2.7642v1.5278h1.0215v-1.5264c0.0024-1.021 0.08175-1.8367 0.27538-2.4644 0.19257-0.62428 0.48375-1.0641 0.95359-1.4146 0.93398-0.69673 2.6282-1.0603 5.7495-1.0723z" color="#000000" color-rendering="auto" dominant-baseline="auto" fill="#f9b72b" image-rendering="auto" shape-rendering="auto" solid-color="#000000" stroke-width="3.7796" style="font-feature-settings:normal;font-variant-alternates:normal;font-variant-caps:normal;font-variant-ligatures:normal;font-variant-numeric:normal;font-variant-position:normal;isolation:auto;mix-blend-mode:normal;shape-padding:0;text-decoration-color:#000000;text-decoration-line:none;text-decoration-style:solid;text-indent:0;text-orientation:mixed;text-transform:none;white-space:normal"/>
 <path d="m43.998 11v0.58399c0 3.0009 2.23 5.4162 5 5.4162h6.9998l5.37e-4 -1.0002-7.0006 1.89e-4c-2.77 7.5e-5 -5-2.23-5-5z" opacity=".1" stroke-width="3.9338" style="paint-order:stroke fill markers"/>
</svg>
