<svg width="64" height="64" version="1.1" viewBox="0 0 16.933 16.933" xmlns="http://www.w3.org/2000/svg">
 <defs>
  <clipPath id="a">
   <path d="m102.92 44c-35.297 0-39.095 3.6254-38.922 38.994v146.01c-0.17299 35.368 3.6249 38.994 38.922 38.994h98.157c35.297 0 38.922-3.625 38.922-38.994v-146.01c0-35.369-3.6249-38.994-38.922-38.994z" color="#000000" fill="url(#linearGradient3288)"/>
  </clipPath>
  <filter id="b" x="-.039001" y="-.033428" width="1.078" height="1.0669" color-interpolation-filters="sRGB">
   <feGaussianBlur stdDeviation="0.20637525"/>
  </filter>
 </defs>
 <path d="m3.4395 1.3543c-0.73289 0-1.3229 0.59001-1.3229 1.3229v12.171c0 0.73289 0.59001 1.3229 1.3229 1.3229h10.054c0.73289 0 1.3229-0.59001 1.3229-1.3229v-10.319l-3.175-3.175z" filter="url(#b)" opacity=".15" stroke-width=".26458" style="paint-order:stroke fill markers"/>
 <g fill-rule="evenodd">
  <path transform="scale(.26458)" d="m13 4c-2.77 0-5 2.23-5 5v46c0 2.77 2.23 5 5 5h38c2.77 0 5-2.23 5-5v-39l-12-12h-31z" fill="#f4f4f4" style="paint-order:stroke fill markers"/>
  <path d="m14.816 4.2332-3.1749-3.1749v1.852c0 0.73288 0.59001 1.3229 1.3229 1.3229z" fill="#bbb" style="paint-order:stroke fill markers"/>
 </g>
 <g transform="translate(-7.9617 -24.175)" fill="#999">
  <path d="m16.958 29.467v0.26458h3.1749v-0.26458zm0 0.79373v0.26458h3.1749v-0.26458zm0 0.79374v0.26458h3.1749v-0.26458zm0 0.79373v0.26458h3.1749v-0.26458zm0 0.79373v0.26458h3.1749v-0.26458zm-4.2332 0.79373v0.26458h7.4082v-0.26458zm0 0.79374v0.26458h7.4082v-0.26458zm0 0.79373v0.26458h7.4082v-0.26458zm0 0.79374v0.26458h7.4082v-0.26458zm0 0.79373v0.26458h4.2332v-0.26458z" enable-background="new"/>
  <path d="m14.35 29.202-1.3053 3.4395h-0.32064v0.26458h0.92601v-0.26458h-0.29647l0.30928-0.79429h1.5347l0.30891 0.79429h-0.40052v0.26458h1.3283v-0.26458h-0.36644l-1.3056-3.4395zm0.08025 0.59547 0.67572 1.7863h-1.3401z" color="#bebebe" enable-background="new" font-size="13.717" font-weight="400" letter-spacing="0" overflow="visible" stroke-width=".066145" word-spacing="0"/>
 </g>
 <path d="m11.641 2.9104v0.15451c0 0.79397 0.59 1.433 1.3229 1.433h1.852l1.42e-4 -0.26463-1.8522 5e-5c-0.73289 1.98e-5 -1.3229-0.59001-1.3229-1.3229z" opacity=".1" stroke-width="1.0408" style="paint-order:stroke fill markers"/>
</svg>
