<svg width="64" height="64" version="1.1" viewBox="0 0 16.933 16.933" xmlns="http://www.w3.org/2000/svg">
 <defs>
  <filter id="a" x="-.039001" y="-.033428" width="1.078" height="1.0669" color-interpolation-filters="sRGB">
   <feGaussianBlur stdDeviation="0.20637525"/>
  </filter>
 </defs>
 <path d="m3.4395 1.3543c-0.73289 0-1.3229 0.59001-1.3229 1.3229v12.171c0 0.73289 0.59001 1.3229 1.3229 1.3229h10.054c0.73289 0 1.3229-0.59001 1.3229-1.3229v-10.319l-3.175-3.175z" filter="url(#a)" opacity=".15" stroke-width=".26458" style="paint-order:stroke fill markers"/>
 <g fill-rule="evenodd">
  <path transform="scale(.26458)" d="m13 4c-2.77 0-5 2.23-5 5v46c0 2.77 2.23 5 5 5h38c2.77 0 5-2.23 5-5v-39l-12-12h-31z" fill="#f4f4f4" style="paint-order:stroke fill markers"/>
  <path d="m14.816 4.2332-3.1749-3.1749v1.852c0 0.73288 0.59001 1.3229 1.3229 1.3229z" fill="#bbb" style="paint-order:stroke fill markers"/>
 </g>
 <path d="m11.641 2.9104v0.15451c0 0.79397 0.59 1.433 1.3229 1.433h1.852l1.42e-4 -0.26463-1.8522 5e-5c-0.73289 1.98e-5 -1.3229-0.59001-1.3229-1.3229z" opacity=".1" stroke-width="1.0408" style="paint-order:stroke fill markers"/>
 <path d="m11.475 9.6319q-0.03464 0.75219-0.40579 1.3312-0.37115 0.57404-1.0442 0.89076-0.66807 0.31672-1.5291 0.31672-1.4203 0-2.2368-0.92539-0.81653-0.92542-0.81653-2.6129v-0.35632q0-1.059 0.3662-1.8508 0.37115-0.79673 1.064-1.2273 0.69281-0.4355 1.6034-0.4355 1.3114 0 2.1081 0.69283 0.79674 0.68788 0.90561 1.9003h-1.732q-0.01979-0.65816-0.33156-0.94521-0.31177-0.28702-0.95015-0.28702-0.64828 0-0.95015 0.48498t-0.31672 1.5489v0.50971q0 1.153 0.28702 1.6479 0.29197 0.49486 0.99964 0.49486 0.59879 0 0.91551-0.28208 0.31672-0.28206 0.33651-0.8957z" enable-background="new" fill="#2f5fdd"/>
</svg>
