<svg width="64" height="64" version="1.1" viewBox="0 0 16.933 16.933" xmlns="http://www.w3.org/2000/svg">
 <defs>
  <filter id="a" x="-.039001" y="-.033428" width="1.078" height="1.0669" color-interpolation-filters="sRGB">
   <feGaussianBlur stdDeviation="0.20637525"/>
  </filter>
 </defs>
 <path d="m3.4395 1.3543c-0.73289 0-1.3229 0.59001-1.3229 1.3229v12.171c0 0.73289 0.59001 1.3229 1.3229 1.3229h10.054c0.73289 0 1.3229-0.59001 1.3229-1.3229v-10.319l-3.175-3.175z" filter="url(#a)" opacity=".15" stroke-width=".26458" style="paint-order:stroke fill markers"/>
 <g fill-rule="evenodd">
  <path transform="scale(.26458)" d="m13 4c-2.77 0-5 2.23-5 5v46c0 2.77 2.23 5 5 5h38c2.77 0 5-2.23 5-5v-39l-12-12z" fill="#f4f4f4" style="paint-order:stroke fill markers"/>
  <path d="m14.816 4.2332-3.1749-3.1749v1.852c0 0.73288 0.59001 1.3229 1.3229 1.3229z" fill="#bbb" style="paint-order:stroke fill markers"/>
 </g>
 <path d="m11.641 2.9104v0.15451c0 0.79397 0.59 1.433 1.3229 1.433h1.852l1.42e-4 -0.26463-1.8522 5e-5c-0.73289 1.98e-5 -1.3229-0.59001-1.3229-1.3229z" opacity=".1" stroke-width="1.0408" style="paint-order:stroke fill markers"/>
 <path d="m9.4858 6.0859v0.15563h0.10376c0.27626 0 0.37147 0.03574 0.4669 0.17639l0.92343 1.4007-0.83005 1.2139c-0.07032 0.10046-0.21898 0.33202-0.72629 0.33202v0.15563l0.56028-0.02076c0.18585 0 0.46246 0.0057 0.64329 0.02076v-0.15563c-0.23106-5e-3 -0.32164-0.14823-0.32164-0.23864 0-0.0452 0.01672-0.05888 0.05188-0.11413l0.71592-1.0583 0.78854 1.2036c0.01005 0.02008 0.03113 0.03681 0.03113 0.05188 0 0.06027-0.11603 0.15061-0.33202 0.15563v0.15563c0.1758-0.01507 0.5458-0.02076 0.73667-0.02076l0.65366 0.02076v-0.15563h-0.09338c-0.26119 0-0.3718-0.03105-0.47728-0.18676l-1.0583-1.5978 0.68479-1.0064c0.1105-0.16073 0.28962-0.327 0.73667-0.33202v-0.15563l-0.56028 0.02075c-0.20092 0-0.44237-0.0057-0.64329-0.02075v0.15563c0.20092 5e-3 0.31127 0.11274 0.31127 0.22826 0 0.05023-0.0063 0.06925-0.0415 0.12451l-0.58104 0.84042-0.64329-0.96493c-0.01005-0.01507-0.03113-0.05254-0.03113-0.07263 0-0.06028 0.10566-0.15061 0.32164-0.15563v-0.15563c-0.1758 0.01507-0.5458 0.02075-0.73667 0.02075zm-5.4107 0-0.09338 1.1309h0.12451c0.07032-0.80869 0.14421-0.97531 0.90268-0.97531 0.09041 0 0.21954 3.25e-4 0.26977 0.01037 0.10548 0.02009 0.11413 0.07123 0.11413 0.18676v2.7037c0 0.17078-0.0018 0.25952-0.52916 0.24902h-0.20752v0.15563c0.20594-0.01507 0.7235-0.02076 0.95456-0.02076s0.74862 0.0057 0.95456 0.02076v-0.15563h-0.20751c-0.52741 0-0.51878-0.07824-0.51878-0.24902v-2.7037c0-0.10046-0.0074-0.16667 0.08301-0.18676 0.05525-0.01004 0.19508-0.01037 0.29052-0.01037 0.75846 0 0.83236 0.16662 0.90268 0.97531h0.12451l-0.09338-1.1309zm2.6944 1.3229v0.15563h0.12451c0.38676 0 0.39427 0.04744 0.39427 0.22826v2.6602c0 0.18082-0.0075 0.23864-0.39427 0.23864h-0.12451v0.15563h2.8948l0.21789-1.297h-0.13488c-0.12557 0.77353-0.23587 1.1413-1.0998 1.1413h-0.66404c-0.23608 0-0.24901-0.04176-0.24901-0.20751v-1.3509h0.44615c0.48722 0 0.54991 0.16446 0.54991 0.59141h0.12451v-1.3385h-0.12451c0 0.43197-0.06268 0.59141-0.54991 0.59141h-0.44615v-1.216c0-0.16576 0.01295-0.19714 0.24901-0.19714h0.64329c0.76851 0 0.90532 0.26674 0.98568 0.96493h0.12451l-0.14526-1.1206z" enable-background="new" fill="#4d4d4d"/>
</svg>
