<svg width="64" height="64" version="1.1" viewBox="0 0 16.933 16.933" xmlns="http://www.w3.org/2000/svg">
 <defs>
  <filter id="a" x="-.039001" y="-.033428" width="1.078" height="1.0669" color-interpolation-filters="sRGB">
   <feGaussianBlur stdDeviation="0.20637525"/>
  </filter>
 </defs>
 <path d="m3.4395 1.3543c-0.73289 0-1.3229 0.59001-1.3229 1.3229v12.171c0 0.73289 0.59001 1.3229 1.3229 1.3229h10.054c0.73289 0 1.3229-0.59001 1.3229-1.3229v-10.319l-3.175-3.175z" filter="url(#a)" opacity=".15" stroke-width=".26458" style="paint-order:stroke fill markers"/>
 <g fill-rule="evenodd">
  <path transform="scale(.26458)" d="m13 4c-2.77 0-5 2.23-5 5v46c0 2.77 2.23 5 5 5h38c2.77 0 5-2.23 5-5v-39l-12-12z" fill="#f4f4f4" style="paint-order:stroke fill markers"/>
  <path d="m14.816 4.2332-3.1749-3.1749v1.852c0 0.73288 0.59001 1.3229 1.3229 1.3229z" fill="#bbb" style="paint-order:stroke fill markers"/>
 </g>
 <path d="m11.641 2.9104v0.15451c0 0.79397 0.59 1.433 1.3229 1.433h1.852l1.42e-4 -0.26463-1.8522 5e-5c-0.73289 1.98e-5 -1.3229-0.59001-1.3229-1.3229z" opacity=".1" stroke-width="1.0408" style="paint-order:stroke fill markers"/>
 <g transform="translate(-22.754 .13229)">
  <path d="m29.104 3.4395v0.26458h3.1749v-0.26458zm0 0.79373v0.26458h5.8207v-0.26458zm0 0.79374v0.26458h2.1166v-0.26458z" enable-background="new" fill="#76c22b"/>
  <path d="m27.516 11.377v0.26458h7.4082v-0.26458z" enable-background="new" fill="#76c22b"/>
  <path d="m28.574 6.6145v0.26458h4.3655v-0.26458zm0 0.79373v0.26458h1.5875v-0.26458zm0 0.79373v0.26458h3.7041v-0.26458z" enable-background="new" fill="#8f76e4"/>
  <path d="m27.516 5.8207v0.26458h2.1166v-0.26458z" enable-background="new" fill="#46a926"/>
  <path d="m30.162 8.9957v0.26458h1.5875v-0.26458zm-1.5875 0.79373v0.26458h3.1749v-0.26458z" enable-background="new" fill="#76c22b"/>
  <path d="m27.516 8.9957v0.26458h2.1166v-0.26458zm0 1.5875v0.26458h2.1166v-0.26458z" enable-background="new" fill="#46a926"/>
  <path d="m27.516 3.4395v0.26458h1.0583v-0.26458zm0 0.79373v0.26458h1.0583v-0.26458zm0 0.79374v0.26458h1.0583v-0.26458z" enable-background="new" fill="#46a926"/>
  <path d="m32.279 9.7894v0.26458h1.5875v-0.26458z" enable-background="new" fill="#f22c42"/>
  <path d="m30.691 7.4082v0.26458h1.5875v-0.26458z" enable-background="new" fill="#f22c42"/>
  <path d="m27.516 12.171v0.26458h7.4082v-0.26458zm0 0.79374v0.26458h3.7041v-0.26458z" enable-background="new" fill="#76c22b"/>
 </g>
</svg>
