<svg width="64" height="64" version="1.1" viewBox="0 0 16.933 16.933" xmlns="http://www.w3.org/2000/svg">
 <defs>
  <filter id="a" x="-.039001" y="-.033428" width="1.078" height="1.0669" color-interpolation-filters="sRGB">
   <feGaussianBlur stdDeviation="0.20637525"/>
  </filter>
 </defs>
 <path d="m3.4395 1.3543c-0.73289 0-1.3229 0.59001-1.3229 1.3229v12.171c0 0.73289 0.59001 1.3229 1.3229 1.3229h10.054c0.73289 0 1.3229-0.59001 1.3229-1.3229v-10.319l-3.175-3.175z" filter="url(#a)" opacity=".15" stroke-width=".26458" style="paint-order:stroke fill markers"/>
 <g fill-rule="evenodd">
  <path transform="scale(.26458)" d="m13 4c-2.77 0-5 2.23-5 5v46c0 2.77 2.23 5 5 5h38c2.77 0 5-2.23 5-5v-39l-12-12z" fill="#f4f4f4" style="paint-order:stroke fill markers"/>
  <path d="m14.816 4.2332-3.1749-3.1749v1.852c0 0.73288 0.59001 1.3229 1.3229 1.3229z" fill="#bbb" style="paint-order:stroke fill markers"/>
 </g>
 <path d="m11.641 2.9104v0.15451c0 0.79397 0.59 1.433 1.3229 1.433h1.852l1.42e-4 -0.26463-1.8522 5e-5c-0.73289 1.98e-5 -1.3229-0.59001-1.3229-1.3229z" opacity=".1" stroke-width="1.0408" style="paint-order:stroke fill markers"/>
 <path d="m8.5177 10.562q-0.39961 0-0.74799-0.14345-0.33813-0.14345-0.5943-0.40986-0.25616-0.26641-0.39961-0.65577-0.14345-0.39961-0.14345-0.90169 0-0.49183 0.1537-0.87095 0.16394-0.38936 0.43035-0.65577 0.26641-0.27665 0.61479-0.40986 0.34838-0.14345 0.7275-0.14345 0.50208 0 0.80947 0.14345 0.31764 0.1332 0.43035 0.21518l-0.19468 0.46109q-0.1537-0.08197-0.39961-0.17419-0.23567-0.10246-0.64553-0.10246-0.56355 0-0.94267 0.39961-0.36887 0.39961-0.36887 1.1374 0 0.75824 0.35863 1.1681 0.36887 0.39961 0.99391 0.39961 0.4406 0 0.68651-0.09222 0.25616-0.10246 0.36887-0.17419l0.17419 0.49183q-0.1332 0.08197-0.47134 0.20493-0.33813 0.11271-0.84021 0.11271zm3.4223-2.1005q0 0.8812-0.2869 1.5677-0.2869 0.68651-0.76848 1.1681-0.47134 0.47134-1.1066 0.7275-0.62503 0.24592-1.3115 0.24592-0.68651 0-1.3218-0.24592-0.62503-0.25616-1.1066-0.7275-0.47134-0.48158-0.75824-1.1681-0.2869-0.68651-0.2869-1.5677 0-0.87095 0.2869-1.5575 0.2869-0.69676 0.75824-1.1681 0.48158-0.47134 1.1066-0.71725 0.63528-0.25616 1.3218-0.25616 0.68651 0 1.3115 0.25616 0.63528 0.24592 1.1066 0.71725 0.48158 0.47134 0.76848 1.1681 0.2869 0.68651 0.2869 1.5575zm-0.60454 0q0-0.707-0.21518-1.2911-0.21518-0.58405-0.5943-0.99391-0.37912-0.4201-0.91193-0.64553-0.52257-0.22542-1.1476-0.22542t-1.1578 0.22542q-0.52257 0.22542-0.90169 0.64553-0.37912 0.40986-0.59429 0.99391-0.21518 0.58405-0.21518 1.2911t0.21518 1.2911q0.21518 0.58405 0.59429 1.0042 0.37912 0.40986 0.90169 0.64553 0.53282 0.22542 1.1578 0.22542 0.62503 0 1.1476-0.22542 0.53282-0.23567 0.91194-0.64553 0.37912-0.4201 0.5943-1.0042 0.21518-0.58405 0.21518-1.2911z" enable-background="new" fill="#999"/>
</svg>
