<svg width="64" height="64" version="1.1" viewBox="0 0 64 64" xmlns="http://www.w3.org/2000/svg">
 <defs>
  <filter id="a" x="-.039001" y="-.033428" width="1.078" height="1.0669" color-interpolation-filters="sRGB">
   <feGaussianBlur stdDeviation="0.20637525"/>
  </filter>
 </defs>
 <path transform="scale(3.7796)" d="m3.4395 1.3543c-0.73289 0-1.3229 0.59001-1.3229 1.3229v12.171c0 0.73289 0.59001 1.3229 1.3229 1.3229h10.054c0.73289 0 1.3229-0.59001 1.3229-1.3229v-10.319l-3.175-3.175z" filter="url(#a)" opacity=".15" stroke-width=".26458" style="paint-order:stroke fill markers"/>
 <g transform="scale(3.7796)" fill-rule="evenodd">
  <path transform="scale(.26458)" d="m13 4c-2.77 0-5 2.23-5 5v46c0 2.77 2.23 5 5 5h38c2.77 0 5-2.23 5-5v-39l-12-12z" fill="#f4f4f4" style="paint-order:stroke fill markers"/>
  <path d="m14.816 4.2332-3.1749-3.1749v1.852c0 0.73288 0.59001 1.3229 1.3229 1.3229z" fill="#bbb" style="paint-order:stroke fill markers"/>
 </g>
 <path d="m43.998 11v0.58399c0 3.0009 2.23 5.4162 5 5.4162h6.9998l5.37e-4 -1.0002-7.0006 1.89e-4c-2.77 7.5e-5 -5-2.23-5-5z" opacity=".1" stroke-width="3.9338" style="paint-order:stroke fill markers"/>
 <g transform="matrix(3.7796 0 0 3.7796 -69 -4)" fill="#46aa97">
  <path d="m23.018 9.7894h7.4082v0.26458h-7.4082z" enable-background="new"/>
  <path d="m23.018 10.583h7.4082v0.26458h-7.4082z" enable-background="new"/>
  <path d="m23.018 11.377h7.4082v0.26458h-7.4082z" enable-background="new"/>
  <path d="m23.018 12.171h3.7041v0.26458h-3.7041z" enable-background="new"/>
  <path d="m23.018 7.4082h7.4082v0.26458h-7.4082z" enable-background="new"/>
  <path d="m23.018 8.2019h7.4082v0.26458h-7.4082z" enable-background="new"/>
  <path d="m23.018 8.9957h7.4082v0.26458h-7.4082z" enable-background="new"/>
  <path d="m23.018 6.6145h7.4082v0.26458h-7.4082z" enable-background="new"/>
 </g>
</svg>
