<svg width="64" height="64" version="1.1" viewBox="0 0 16.933 16.933" xmlns="http://www.w3.org/2000/svg">
 <defs>
  <filter id="a" x="-.039001" y="-.033428" width="1.078" height="1.0669" color-interpolation-filters="sRGB">
   <feGaussianBlur stdDeviation="0.20637525"/>
  </filter>
 </defs>
 <path d="m3.4395 1.3543c-0.73289 0-1.3229 0.59001-1.3229 1.3229v12.171c0 0.73289 0.59001 1.3229 1.3229 1.3229h10.054c0.73289 0 1.3229-0.59001 1.3229-1.3229v-10.319l-3.175-3.175z" filter="url(#a)" opacity=".15" stroke-width=".26458" style="paint-order:stroke fill markers"/>
 <g fill-rule="evenodd">
  <path transform="scale(.26458)" d="m13 4c-2.77 0-5 2.23-5 5v46c0 2.77 2.23 5 5 5h38c2.77 0 5-2.23 5-5v-39l-12-12z" fill="#f4f4f4" style="paint-order:stroke fill markers"/>
  <path d="m14.816 4.2332-3.1749-3.1749v1.852c0 0.73288 0.59001 1.3229 1.3229 1.3229z" fill="#bbb" style="paint-order:stroke fill markers"/>
 </g>
 <path d="m11.641 2.9104v0.15451c0 0.79397 0.59 1.433 1.3229 1.433h1.852l1.42e-4 -0.26463-1.8522 5e-5c-0.73289 1.98e-5 -1.3229-0.59001-1.3229-1.3229z" opacity=".1" stroke-width="1.0408" style="paint-order:stroke fill markers"/>
 <g transform="translate(-.13159 .92509)">
  <path d="m5.026 9.129h0.53c0.073 0 0.132 0.059 0.132 0.132v0.53a0.132 0.132 0 0 1-0.133 0.132h-0.529a0.132 0.132 0 0 1-0.132-0.132v-0.53c0-0.073 0.059-0.132 0.132-0.132zm1.302 0c-0.06 4e-3 -0.112 0.051-0.111 0.102v0.59c0 0.054 0.058 0.102 0.122 0.102h4.518c0.064 0 0.123-0.048 0.122-0.102v-0.59c0-0.054-0.058-0.102-0.122-0.102h-4.528z" color="#000000" fill="#a2aab9" overflow="visible"/>
  <path d="m5.555 10.717h0.53c0.073 0 0.132 0.059 0.132 0.132v0.529a0.132 0.132 0 0 1-0.133 0.132h-0.529a0.132 0.132 0 0 1-0.132-0.132v-0.53c0-0.072 0.059-0.131 0.132-0.131zm1.302 0c-0.06 4e-3 -0.112 0.05-0.111 0.101v0.59c0 0.054 0.058 0.103 0.123 0.102h4.517c0.064 0 0.123-0.048 0.122-0.101v-0.59c0-0.054-0.058-0.103-0.122-0.102z" color="#000000" fill="#abd56b" overflow="visible"/>
  <path d="m5.026 12.304h0.53c0.073 0 0.132 0.06 0.132 0.132v0.53a0.132 0.132 0 0 1-0.133 0.132h-0.529a0.132 0.132 0 0 1-0.132-0.132v-0.53c0-0.073 0.059-0.132 0.132-0.132zm1.302 0c-0.06 4e-3 -0.112 0.051-0.111 0.102v0.59c0 0.054 0.058 0.102 0.122 0.102h4.518c0.064 0 0.123-0.048 0.122-0.102v-0.59c0-0.054-0.058-0.102-0.122-0.102h-4.528zm-1.302-9.525h0.53c0.073 0 0.132 0.059 0.132 0.132v0.53a0.132 0.132 0 0 1-0.133 0.132h-0.529a0.132 0.132 0 0 1-0.132-0.132v-0.53c0-0.073 0.059-0.132 0.132-0.132zm1.302 0c-0.06 4e-3 -0.112 0.051-0.111 0.102v0.59c0 0.054 0.058 0.102 0.122 0.102h4.518c0.064 0 0.123-0.048 0.122-0.102v-0.59c0-0.054-0.058-0.102-0.122-0.102h-4.528z" color="#000000" fill="#a2aab9" overflow="visible"/>
  <path d="m5.555 4.367h0.53c0.073 0 0.132 0.059 0.132 0.132v0.529a0.132 0.132 0 0 1-0.133 0.132h-0.529a0.132 0.132 0 0 1-0.132-0.132v-0.53c0-0.072 0.059-0.131 0.132-0.131zm1.302 0c-0.06 4e-3 -0.112 0.05-0.111 0.101v0.59c0 0.054 0.058 0.103 0.123 0.102h4.517c0.064 0 0.123-0.048 0.122-0.101v-0.59c0-0.054-0.058-0.103-0.122-0.102zm-1.302 3.175h0.53c0.073 0 0.132 0.059 0.132 0.132v0.529a0.132 0.132 0 0 1-0.133 0.132h-0.529a0.132 0.132 0 0 1-0.132-0.132v-0.53c0-0.072 0.059-0.131 0.132-0.131zm1.302 0c-0.06 4e-3 -0.112 0.05-0.111 0.101v0.59c0 0.054 0.058 0.103 0.123 0.102h4.517c0.064 0 0.123-0.048 0.122-0.101v-0.59c0-0.054-0.058-0.103-0.122-0.102z" color="#000000" fill="#abd56b" overflow="visible"/>
  <path d="m6.084 5.954h0.53c0.073 0 0.132 0.06 0.132 0.132v0.53a0.132 0.132 0 0 1-0.132 0.132h-0.53a0.132 0.132 0 0 1-0.132-0.132v-0.53c0-0.073 0.06-0.132 0.132-0.132zm1.303 0c-0.061 4e-3 -0.113 0.051-0.112 0.102v0.59c0 0.054 0.058 0.102 0.123 0.102h4.517c0.064 0 0.123-0.048 0.123-0.102v-0.59c0-0.054-0.059-0.102-0.123-0.102z" color="#000000" fill="#efb458" overflow="visible"/>
 </g>
</svg>
