<svg width="64" height="64" version="1.1" xmlns="http://www.w3.org/2000/svg">
 <defs>
  <filter id="a" x="-.039001" y="-.033428" width="1.078" height="1.0669" color-interpolation-filters="sRGB">
   <feGaussianBlur stdDeviation="0.20637525"/>
  </filter>
 </defs>
 <g transform="scale(3.7796)">
  <path d="m3.4395 1.3543c-0.73289 0-1.3229 0.59001-1.3229 1.3229v12.171c0 0.73289 0.59001 1.3229 1.3229 1.3229h10.054c0.73289 0 1.3229-0.59001 1.3229-1.3229v-10.319l-3.175-3.175z" filter="url(#a)" opacity=".15" stroke-width=".26458" style="paint-order:stroke fill markers"/>
  <g fill-rule="evenodd">
   <path transform="scale(.26458)" d="m13 4c-2.77 0-5 2.23-5 5v46c0 2.77 2.23 5 5 5h38c2.77 0 5-2.23 5-5v-39l-12-12z" fill="#f4f4f4" style="paint-order:stroke fill markers"/>
   <path d="m14.816 4.2332-3.1749-3.1749v1.852c0 0.73288 0.59001 1.3229 1.3229 1.3229z" fill="#bbb" style="paint-order:stroke fill markers"/>
  </g>
  <path d="m11.641 2.9104v0.15451c0 0.79397 0.59 1.433 1.3229 1.433h1.852l1.42e-4 -0.26463-1.8522 5e-5c-0.73289 1.98e-5 -1.3229-0.59001-1.3229-1.3229z" opacity=".1" stroke-width="1.0408" style="paint-order:stroke fill markers"/>
 </g>
 <path d="m26.375 44c2.845-2.962 5.445-6.041 5.777-6.843 0.332-0.801 1.64-2.385 2.909-3.518 3.32-2.966 5.256-2.733 6.922 0.832 0.425 0.909 1.01 1.652 1.3 1.652 0.662 0 3.717-2.974 3.717-3.62 0-0.835-1.568-2.275-2.477-2.275-0.96 0-1.878-1.377-1.878-2.815 0-1.09-3-4.124-5.177-5.236-1.038-0.53-2.825-0.791-5.415-0.791-3.917 0-5.554 0.649-3.047 1.208 0.753 0.168 2.17 0.975 3.15 1.795 2.52 2.11 2.419 3.695-0.457 7.112-1.23 1.461-2.537 2.657-2.906 2.657-0.815 0-11.793 10.207-11.793 10.964 0 0.572 3.37 4.264 3.893 4.264 0.17 0 2.637-2.423 5.482-5.386z" color="#000000" fill="#919caf" overflow="visible" solid-color="#000000" style="isolation:auto;mix-blend-mode:normal"/>
</svg>
