<svg width="64" height="64" version="1.1" viewBox="0 0 16.933 16.933" xmlns="http://www.w3.org/2000/svg">
 <defs>
  <filter id="a" x="-.039001" y="-.033428" width="1.078" height="1.0669" color-interpolation-filters="sRGB">
   <feGaussianBlur stdDeviation="0.20637525"/>
  </filter>
 </defs>
 <path d="m3.4395 1.3543c-0.73289 0-1.3229 0.59001-1.3229 1.3229v12.171c0 0.73289 0.59001 1.3229 1.3229 1.3229h10.054c0.73289 0 1.3229-0.59001 1.3229-1.3229v-10.319l-3.175-3.175z" filter="url(#a)" opacity=".15" stroke-width=".26458" style="paint-order:stroke fill markers"/>
 <g fill-rule="evenodd">
  <path transform="scale(.26458)" d="m13 4c-2.77 0-5 2.23-5 5v46c0 2.77 2.23 5 5 5h38c2.77 0 5-2.23 5-5v-39l-12-12z" fill="#f4f4f4" style="paint-order:stroke fill markers"/>
  <path d="m14.816 4.2332-3.1749-3.1749v1.852c0 0.73288 0.59001 1.3229 1.3229 1.3229z" fill="#bbb" style="paint-order:stroke fill markers"/>
 </g>
 <path d="m11.641 2.9104v0.15451c0 0.79397 0.59 1.433 1.3229 1.433h1.852l1.42e-4 -0.26463-1.8522 5e-5c-0.73289 1.98e-5 -1.3229-0.59001-1.3229-1.3229z" opacity=".1" stroke-width="1.0408" style="paint-order:stroke fill markers"/>
 <path d="m8.2284 3.7041c-0.42332 0-0.81144 0.048441-1.1642 0.14545-0.34395 0.097012-0.60845 0.19845-0.79366 0.30428l0.25126 0.71436c0.48506-0.26458 1.023-0.39683 1.6139-0.39683 0.21166 0 0.41453 0.017627 0.60856 0.052903 0.19402 0.035277 0.36164 0.10146 0.50275 0.19847 0.14993 0.097011 0.26899 0.22926 0.35718 0.39683 0.08819 0.15875 0.1322 0.36162 0.1322 0.60856 0 0.2734-0.05288 0.52027-0.15871 0.74075-0.10583 0.21166-0.23808 0.41453-0.39683 0.60856-0.15875 0.18521-0.3308 0.37045-0.516 0.55565-0.1852 0.17638-0.35714 0.36595-0.51589 0.56879s-0.291 0.42334-0.39683 0.66146c-0.10583 0.2293-0.15882 0.49392-0.15882 0.79377 0 0.10583 0.0044 0.21158 0.01326 0.31742 0.0088 0.09701 0.02201 0.18969 0.03965 0.27788h0.68797c-0.0088-0.0441-0.01325-0.08822-0.01325-0.13231v-0.22487c0-0.29104 0.05731-0.55565 0.17196-0.79377s0.26021-0.45861 0.43659-0.66146c0.17638-0.21166 0.36163-0.41453 0.55565-0.60856 0.20284-0.19402 0.39241-0.39678 0.56879-0.60844 0.17639-0.21166 0.32194-0.44103 0.43659-0.68797s0.17196-0.52918 0.17196-0.84668c0-0.2293-0.03969-0.46299-0.11906-0.70111-0.079386-0.23812-0.21175-0.44974-0.39696-0.63495-0.1852-0.19402-0.43652-0.34834-0.75401-0.46299-0.30868-0.12347-0.69667-0.18522-1.1641-0.18522zm-0.17196 8.0696c-0.2293 0-0.41011 0.07062-0.5424 0.21173-0.12347 0.14111-0.18522 0.31304-0.18522 0.51589 0 0.20284 0.06175 0.37478 0.18522 0.51589 0.13229 0.14111 0.3131 0.21173 0.5424 0.21173s0.40567-0.07062 0.52914-0.21173c0.13229-0.14111 0.19836-0.31304 0.19836-0.51589 0-0.20284-0.06607-0.37478-0.19836-0.51589-0.12347-0.14111-0.29984-0.21173-0.52914-0.21173z" enable-background="new" fill="#999"/>
</svg>
