<svg width="64" height="64" version="1.1" viewBox="0 0 16.933 16.933" xmlns="http://www.w3.org/2000/svg">
 <defs>
  <filter id="a" x="-.039001" y="-.033428" width="1.078" height="1.0669" color-interpolation-filters="sRGB">
   <feGaussianBlur stdDeviation="0.20637525"/>
  </filter>
 </defs>
 <path d="m3.4395 1.3543c-0.73289 0-1.3229 0.59001-1.3229 1.3229v12.171c0 0.73289 0.59001 1.3229 1.3229 1.3229h10.054c0.73289 0 1.3229-0.59001 1.3229-1.3229v-10.319l-3.175-3.175z" filter="url(#a)" opacity=".15" stroke-width=".26458" style="paint-order:stroke fill markers"/>
 <path d="m3.4395 1.0587c-0.73288 0-1.3229 0.58999-1.3229 1.3229v12.171c0 0.73286 0.59001 1.3229 1.3229 1.3229h10.054c0.73288 0 1.3229-0.58999 1.3229-1.3229v-10.319l-3.1749-3.1748z" fill="#f5990e" fill-rule="evenodd" stroke-width=".99999" style="paint-order:stroke fill markers"/>
 <g fill="#fff">
  <path d="m14.816 4.2332-3.1749-3.1749v1.852c0 0.73288 0.59001 1.3229 1.3229 1.3229z" fill-rule="evenodd" opacity=".35" style="paint-order:stroke fill markers"/>
  <rect x="7.945" y="1.0583" width="1.0583" height="14.816" color="#000000" opacity=".25"/>
  <rect x="8.466" y="1.0583" width=".53659" height="14.816" color="#000000" opacity=".25"/>
  <path d="m10.319 10.583c-0.29315 0-0.52916 0.236-0.52916 0.52916v3.1749c0 0.29315 0.236 0.52916 0.52916 0.52916h3.1749c0.29315 0 0.52916-0.236 0.52916-0.52916v-3.1749c0-0.29315-0.236-0.52916-0.52916-0.52916zm0 0.52916h3.1749v0.52916h-3.1749zm0 1.0583h2.3812v0.79373h-2.3812zm2.6458 0h0.52916v0.79373h-0.52916zm-2.6458 1.3229h2.3812v0.79374h-2.3812zm2.6458 0h0.52916v0.79374h-0.52916z" opacity=".5" style="paint-order:fill markers stroke"/>
 </g>
 <path d="m11.641 2.9104v0.15451c0 0.79397 0.59 1.433 1.3229 1.433h1.852l1.42e-4 -0.26463-1.8522 5e-5c-0.73289 1.98e-5 -1.3229-0.59001-1.3229-1.3229z" opacity=".1" stroke-width="1.0408" style="paint-order:stroke fill markers"/>
</svg>
