<svg width="64" height="64" version="1.1" xmlns="http://www.w3.org/2000/svg">
 <defs>
  <filter id="a" x="-.039001" y="-.033428" width="1.078" height="1.0669" color-interpolation-filters="sRGB">
   <feGaussianBlur stdDeviation="0.20637525"/>
  </filter>
 </defs>
 <path transform="scale(3.7796)" d="m3.4395 1.3543c-0.73289 0-1.3229 0.59001-1.3229 1.3229v12.171c0 0.73289 0.59001 1.3229 1.3229 1.3229h10.054c0.73289 0 1.3229-0.59001 1.3229-1.3229v-10.319l-3.175-3.175z" filter="url(#a)" opacity=".15" stroke-width=".26458" style="paint-order:stroke fill markers"/>
 <path d="m13 4.0015c-2.77 0-5 2.2299-5 5v46.002c0 2.7699 2.23 5 5 5h38c2.77 0 5-2.2299 5-5v-39.002l-12-11.999z" fill="#7fcc74" fill-rule="evenodd" stroke-width="3.7796" style="paint-order:stroke fill markers"/>
 <g fill="#fff">
  <g stroke-width="3.7796">
   <path d="m55.999 16-12-12v6.9998c0 2.77 2.23 5 5 5z" fill-rule="evenodd" opacity=".35" style="paint-order:stroke fill markers"/>
   <rect x="30.029" y="4.0001" width="4" height="55.999" color="#000000" opacity=".25"/>
   <rect x="31.998" y="4" width="2.0281" height="55.999" color="#000000" opacity=".25"/>
  </g>
  <path d="m39 40c-1.108 0-2 0.892-2 2v12c0 1.108 0.892 2 2 2h12c1.108 0 2-0.892 2-2v-12c0-1.108-0.892-2-2-2zm0 2h12v2h-12zm0 4h9v3h-9zm10 0h2v3h-2zm-10 5h9v3h-9zm10 0h2v3h-2z" opacity=".5" style="paint-order:fill markers stroke"/>
 </g>
 <path d="m43.998 11v0.58399c0 3.0009 2.23 5.4162 5 5.4162h6.9998l5.37e-4 -1.0002-7.0006 1.89e-4c-2.77 7.5e-5 -5-2.23-5-5z" opacity=".1" stroke-width="3.9338" style="paint-order:stroke fill markers"/>
</svg>
