<svg width="64" height="64" version="1.1" viewBox="0 0 64 64" xmlns="http://www.w3.org/2000/svg">
 <defs>
  <filter id="a" x="-.039001" y="-.033428" width="1.078" height="1.0669" color-interpolation-filters="sRGB">
   <feGaussianBlur stdDeviation="0.20637525"/>
  </filter>
 </defs>
 <g fill-rule="evenodd">
  <path transform="scale(3.7796)" d="m3.4395 1.3543c-0.73289 0-1.3229 0.59001-1.3229 1.3229v12.171c0 0.73289 0.59001 1.3229 1.3229 1.3229h10.054c0.73289 0 1.3229-0.59001 1.3229-1.3229v-10.319l-3.175-3.175z" filter="url(#a)" opacity=".15" stroke-width=".26458" style="paint-order:stroke fill markers"/>
  <path d="m13 4c-2.77 0-5 2.2299-5 5v46.002c0 2.7698 2.23 5 5 5h38c2.77 0 5-2.2299 5-5v-39.002l-12-11.999z" fill="#f1c36c" stroke-width="3.7795" style="paint-order:stroke fill markers"/>
  <path d="m55.999 16-12-12v6.9998c0 2.77 2.23 5 5 5z" fill="#786136" stroke-width="3.7796" style="paint-order:stroke fill markers"/>
 </g>
 <path d="m29.31 20a3.1034 3.1034 0 0 0-3.1034 3.1034 3.1034 3.1034 0 0 0 1.5604 2.6897h-6.9397c-0.45848 0-0.82759 0.3691-0.82759 0.82759v6.1121a3.1034 3.1034 0 0 1 2.6897-1.5604 3.1034 3.1034 0 1 1 0 6.2069 3.1034 3.1034 0 0 1-2.6897-1.5629v7.356c0 0.45848 0.3691 0.82759 0.82759 0.82759h6.9397a3.1034 3.1034 0 0 1-1.5604-2.6897 3.1034 3.1034 0 1 1 6.2069 0 3.1034 3.1034 0 0 1-1.5629 2.6897h6.5284c0.45848 0 0.82759-0.3691 0.82759-0.82759v-7.356a3.1034 3.1034 0 0 0 2.6897 1.5629 3.1034 3.1034 0 1 0 0-6.2069 3.1034 3.1034 0 0 0-2.6897 1.5604v-6.1121c0-0.45848-0.3691-0.82759-0.82759-0.82759h-6.5284a3.1034 3.1034 0 0 0 1.5629-2.6897 3.1034 3.1034 0 0 0-3.1034-3.1034z" fill="#786136"/>
 <path d="m43.998 11v0.58399c0 3.0009 2.23 5.4162 5 5.4162h6.9998l5.37e-4 -1.0002-7.0006 1.89e-4c-2.77 7.5e-5 -5-2.23-5-5z" fill-rule="evenodd" opacity=".1" stroke-width="3.9338" style="paint-order:stroke fill markers"/>
</svg>
