<svg width="64" height="64" version="1.1" viewBox="0 0 16.933 16.933" xmlns="http://www.w3.org/2000/svg">
 <defs>
  <filter id="b" x="-.036" y="-.036" width="1.072" height="1.072" color-interpolation-filters="sRGB">
   <feGaussianBlur stdDeviation="0.84"/>
  </filter>
  <filter id="a" x="-.018321" y="-1.026" width="1.0366" height="3.052" color-interpolation-filters="sRGB">
   <feGaussianBlur stdDeviation="0.11310715"/>
  </filter>
 </defs>
 <g>
  <path transform="matrix(.26458 0 0 .26458 1e-7 .26636)" d="m8 4c-2.216 0-4 1.784-4 4v48c0 2.216 1.784 4 4 4h48c2.216 0 4-1.784 4-4v-48c0-2.216-1.784-4-4-4z" enable-background="new" filter="url(#b)" opacity=".15"/>
  <path d="m1.0583 4.4978v10.054c0 0.58631 0.47201 1.0583 1.0583 1.0583h12.7c0.5863 0 1.0583-0.47201 1.0583-1.0583v-10.054z" enable-background="new" fill="#f9f9f9"/>
  <rect x="1.0583" y="4.7624" width="14.816" height=".26458" ry="0" filter="url(#a)" opacity=".15" style="paint-order:normal"/>
  <path d="m2.1166 1.0583c-0.58631 0-1.0583 0.47201-1.0583 1.0583v2.6458h14.816v-2.6458c0-0.58631-0.47201-1.0583-1.0583-1.0583z" enable-background="new" fill="#3f51b5"/>
  <circle cx="3.1749" cy="3.3335" r=".52916" enable-background="new" opacity=".15"/>
  <circle cx="3.1749" cy="3.1749" r=".52916" enable-background="new" fill="#fff"/>
  <circle cx="13.758" cy="3.3335" r=".52916" enable-background="new" opacity=".15"/>
  <circle cx="13.758" cy="3.1749" r=".52916" enable-background="new" fill="#fff"/>
  <path transform="scale(.26458)" d="m8 4c-2.216 0-4 1.784-4 4v0.71484c0-2.0577 1.784-3.7148 4-3.7148h48c2.216 0 4 1.6571 4 3.7148v-0.71484c0-2.216-1.784-4-4-4h-48z" enable-background="new" fill="#fff" opacity=".15"/>
 </g>
</svg>
