<svg xmlns="http://www.w3.org/2000/svg" width="64" height="68"><path d="M21 585.362h32v34H21z" style="fill:none;fill-opacity:1;stroke:none;stroke-width:1.27242;stroke-linecap:butt;stroke-linejoin:round;stroke-miterlimit:4;stroke-dasharray:none;stroke-dashoffset:0;stroke-opacity:1" transform="matrix(2 0 0 2 -42 -1170.724)"/><path d="M342 581.362a1 1 0 0 0-1 1 1 1 0 0 0 1 1 1 1 0 0 0 1-1 1 1 0 0 0-1-1m5 0a1 1 0 0 0-1 1 1 1 0 0 0 1 1 1 1 0 0 0 1-1 1 1 0 0 0-1-1m5 0a1 1 0 0 0-1 1 1 1 0 0 0 1 1 1 1 0 0 0 1-1 1 1 0 0 0-1-1" style="opacity:.3;fill:#fff" transform="matrix(2 0 0 2 -662 -1130.724)"/></svg>