<svg xmlns="http://www.w3.org/2000/svg" width="64" height="68"><g transform="matrix(2 0 0 2 -582 -1130.724)"><path d="M21 585.362h32v34H21z" style="fill:none" transform="translate(270 -20)"/><circle cx="307" cy="582.362" r="10" style="opacity:.25;fill:#fff;fill-opacity:1;stroke-width:10;stroke-linecap:round;stroke-linejoin:round;paint-order:stroke fill markers"/><path d="M302 581.362a1 1 0 0 0-1 1 1 1 0 0 0 1 1 1 1 0 0 0 1-1 1 1 0 0 0-1-1m5 0a1 1 0 0 0-1 1 1 1 0 0 0 1 1 1 1 0 0 0 1-1 1 1 0 0 0-1-1m5 0a1 1 0 0 0-1 1 1 1 0 0 0 1 1 1 1 0 0 0 1-1 1 1 0 0 0-1-1" style="opacity:.75;fill:#fff"/></g></svg>