<svg xmlns="http://www.w3.org/2000/svg" width="72" height="68"><g transform="matrix(2 0 0 2 -202 -1416.724)"><path d="M101 708.362h36v34h-36z" style="fill:none"/><circle cx="119" cy="725.362" r="11" style="opacity:.05;fill:#000"/><g style="opacity:.26;fill:#fafafa"><path d="M8 6c-1.108 0-2 .892-2 2v2c0 1.108.892 2 2 2h2c1.108 0 2-.892 2-2V8c0-1.108-.892-2-2-2Zm0 1h2c.554 0 1 .446 1 1v2c0 .554-.446 1-1 1H8c-.554 0-1-.446-1-1V8c0-.554.446-1 1-1" style="opacity:1;fill:#000;paint-order:stroke fill markers" transform="translate(109 717.362)"/><path d="M10 4c-1.108 0-2 .892-2 2h1c0-.554.446-1 1-1h2c.554 0 1 .446 1 1v2c0 .554-.446 1-1 1v1c1.108 0 2-.892 2-2V6c0-1.108-.892-2-2-2Z" opacity=".35" style="opacity:.35;fill:#000;paint-order:stroke fill markers" transform="translate(109 717.362)"/></g></g></svg>