<svg xmlns="http://www.w3.org/2000/svg" width="36" height="34"><g transform="translate(-251 -688.362)"><path d="M21 585.362h36v34H21z" style="fill:none" transform="translate(230 103)"/><circle cx="269" cy="705.362" r="11" style="opacity:.15;fill:#fff;fill-opacity:1;stroke-width:11;stroke-linecap:round;stroke-linejoin:round;paint-order:stroke fill markers"/><path fill="#fff" d="M269 699.362a6 6 0 0 0-6 6 6 6 0 0 0 6 6 6 6 0 0 0 6-6 6 6 0 0 0-6-6m0 1a5 5 0 0 1 5 5 5 5 0 0 1-5 5 5 5 0 0 1-5-5 5 5 0 0 1 5-5" opacity=".75" style="opacity:.75;fill:#fff"/></g></svg>