/* XPM */
static char *button_inactive_Normal[] = {
/* columns rows colors chars-per-pixel */
"72 68 2 1 ",
"  c None",
". c gray20 s inactive_color_1",
/* pixels */
"                                                                        ",
"                                                                        ",
"                                                                        ",
"                                                                        ",
"                                                                        ",
"                                                                        ",
"                              ............                              ",
"                              ............                              ",
"                          ....................                          ",
"                          ....................                          ",
"                      ............................                      ",
"                      ............................                      ",
"                  ....................................                  ",
"                  ....................................                  ",
"                ........................................                ",
"                ........................................                ",
"              ............................................              ",
"              ............................................              ",
"              ............................................              ",
"              ............................................              ",
"            ................................................            ",
"            ................................................            ",
"            ................................................            ",
"            ................................................            ",
"          ....................................................          ",
"          ....................................................          ",
"          ....................................................          ",
"          ....................................................          ",
"        ........................................................        ",
"        ........................................................        ",
"        ........................................................        ",
"        ........................................................        ",
"        ........................................................        ",
"        ........................................................        ",
"        ........................................................        ",
"        ........................................................        ",
"        ........................................................        ",
"        ........................................................        ",
"        ........................................................        ",
"        ........................................................        ",
"          ....................................................          ",
"          ....................................................          ",
"          ....................................................          ",
"          ....................................................          ",
"            ................................................            ",
"            ................................................            ",
"            ................................................            ",
"            ................................................            ",
"              ............................................              ",
"              ............................................              ",
"              ............................................              ",
"              ............................................              ",
"                ........................................                ",
"                ........................................                ",
"                  ....................................                  ",
"                  ....................................                  ",
"                      ............................                      ",
"                      ............................                      ",
"                          ....................                          ",
"                          ....................                          ",
"                              ............                              ",
"                              ............                              ",
"                                                                        ",
"                                                                        ",
"                                                                        ",
"                                                                        ",
"                                                                        ",
"                                                                        "
};
