<svg xmlns="http://www.w3.org/2000/svg" width="54" height="51"><g transform="matrix(1.5 0 0 1.5 -436.5 -1032.543)"><path d="M21 585.362h36v34H21z" style="fill:none" transform="translate(270 103)"/><circle cx="309" cy="705.362" r="11" style="opacity:.25;fill:#000;fill-opacity:1;stroke-width:11;stroke-linecap:round;stroke-linejoin:round;paint-order:stroke fill markers"/><path fill="#fafafa" d="M309 699.362a6 6 0 0 0-6 6 6 6 0 0 0 6 6 6 6 0 0 0 6-6 6 6 0 0 0-6-6m0 1a5 5 0 0 1 5 5 5 5 0 0 1-5 5 5 5 0 0 1-5-5 5 5 0 0 1 5-5" opacity=".75" style="opacity:.87;fill:#000"/></g></svg>