<svg xmlns="http://www.w3.org/2000/svg" width="18" height="51"><path d="M32 5v1h2v1h1v1h1v1h1v1h1v2h1v27H27V5Z" style="fill:none" transform="matrix(1.5 0 0 1.5 -40.5 -7.5)"/><path d="M32 5v1h-5V5Zm0 1h2v1h-2zm2 1h1v1h-1zm1 1h1v1h-1zm1 1h1v1h-1zm1 1h1v2h-1zm1 2h1v27h-1z" style="opacity:.25;fill:#000" transform="matrix(1.5 0 0 1.5 -40.5 -7.5)"/><path d="M-27 6v1h-5V6Zm-5 1v1h-2V7Zm-2 1v1h-1V8Zm-1 1v1h-1V9Zm-1 1v2h-1v-2zm-1 2v27h-1V12Z" style="opacity:.75;fill:#fff" transform="matrix(-1.5 0 0 1.5 -40.5 -7.5)"/></svg>