<svg xmlns="http://www.w3.org/2000/svg" width="54" height="51"><g transform="matrix(1.5 0 0 1.5 -91.5 -878.043)"><path d="M21 585.362h36v34H21z" style="fill:none" transform="translate(40)"/><circle cx="79" cy="602.362" r="11" style="opacity:.15;fill:#fff"/><path d="M75.465 598.327a.499.499 0 0 0-.353.854l3.181 3.181-3.182 3.182a.499.499 0 1 0 .707.707L79 603.069l3.182 3.182a.499.499 0 1 0 .707-.707l-3.182-3.182 3.182-3.181a.499.499 0 1 0-.707-.708L79 601.655l-3.182-3.182a.5.5 0 0 0-.353-.146z" style="opacity:1;fill:#fff;paint-order:stroke fill markers"/></g></svg>