<svg xmlns="http://www.w3.org/2000/svg" width="54" height="51"><g transform="matrix(1.5 0 0 1.5 -31.5 -1062.543)"><path d="M21 585.362h36v34H21z" style="fill:none" transform="translate(0 123)"/><circle cx="39" cy="725.362" r="11" style="opacity:.1;fill:#fff"/><g style="opacity:.7"><path d="M-26.25 723.362c-1.108 0-2 .892-2 2v2c0 1.108.892 2 2 2h2c1.108 0 2-.892 2-2v-2c0-1.108-.892-2-2-2zm0 1h2c.554 0 1 .446 1 1v2c0 .554-.446 1-1 1h-2c-.554 0-1-.446-1-1v-2c0-.554.446-1 1-1" style="opacity:1;fill:#fff;paint-order:stroke fill markers" transform="translate(63.25)"/><path d="M-24.25 721.362c-1.108 0-2 .892-2 2h1c0-.554.446-1 1-1h2c.554 0 1 .446 1 1v2c0 .554-.446 1-1 1v1c1.108 0 2-.892 2-2v-2c0-1.108-.892-2-2-2z" opacity=".35" style="opacity:.35;fill:#fff;paint-order:stroke fill markers" transform="translate(63.25)"/></g></g></svg>