<svg xmlns="http://www.w3.org/2000/svg" width="54" height="51"><g transform="matrix(1.5 0 0 1.5 -151.5 -939.543)"><path d="M21 585.362h36v34H21z" style="fill:none;fill-opacity:1;stroke:none;stroke-width:1.34961;stroke-linecap:butt;stroke-linejoin:round;stroke-miterlimit:4;stroke-dasharray:none;stroke-dashoffset:0;stroke-opacity:1" transform="translate(80 41)"/><circle cx="119" cy="643.362" r="11" style="opacity:.05;fill:#fff"/><path fill="#363636" d="M117 639.362c-1.108 0-2 .892-2 2v4c0 1.108.892 2 2 2h4c1.108 0 2-.892 2-2v-4c0-1.108-.892-2-2-2zm0 1h4c.554 0 1 .446 1 1v4c0 .554-.446 1-1 1h-4c-.554 0-1-.446-1-1v-4c0-.554.446-1 1-1" style="opacity:.3;fill:#fff;paint-order:stroke fill markers"/></g></svg>