<?xml version="1.0" encoding="UTF-8" standalone="no"?>
<svg
   width="16"
   height="16"
   version="1.1"
   id="svg4832"
   sodipodi:docname="preferences-system-time-symbolic-light.svg"
   inkscape:version="1.2 (dc2aedaf03, 2022-05-15)"
   xmlns:inkscape="http://www.inkscape.org/namespaces/inkscape"
   xmlns:sodipodi="http://sodipodi.sourceforge.net/DTD/sodipodi-0.dtd"
   xmlns="http://www.w3.org/2000/svg"
   xmlns:svg="http://www.w3.org/2000/svg">
  <defs
     id="defs4836" />
  <sodipodi:namedview
     id="namedview4834"
     pagecolor="#ffffff"
     bordercolor="#666666"
     borderopacity="1.0"
     inkscape:showpageshadow="2"
     inkscape:pageopacity="0.0"
     inkscape:pagecheckerboard="0"
     inkscape:deskcolor="#d1d1d1"
     showgrid="false"
     inkscape:zoom="14.75"
     inkscape:cx="7.9661017"
     inkscape:cy="8"
     inkscape:window-width="960"
     inkscape:window-height="600"
     inkscape:window-x="25"
     inkscape:window-y="59"
     inkscape:window-maximized="0"
     inkscape:current-layer="svg4832" />
  <path
     d="M 8,0 A 8,8 0 0 0 0,8 8,8 0 0 0 8,16 8,8 0 0 0 16,8 8,8 0 0 0 8,0 Z M 8,1 A 7,7 0 0 1 15,8 7,7 0 0 1 8,15 7,7 0 0 1 1,8 7,7 0 0 1 8,1 Z"
     id="path4824"
     style="fill:#e6e6e6" />
  <rect
     x="8"
     y="2"
     width="1"
     height="7"
     ry="0.5"
     id="rect4826"
     style="fill:#e6e6e6" />
  <rect
     transform="rotate(90)"
     x="8"
     y="-9"
     width="1"
     height="6"
     ry="0.5"
     id="rect4828"
     style="fill:#e6e6e6" />
</svg>
