<?xml version="1.0" encoding="UTF-8"?>
<svg width="32" height="32" version="1.1" xmlns="http://www.w3.org/2000/svg">
 <path d="m16 2c-8.2768 0-15 6.7232-15 15s6.7232 15 15 15 15-6.7232 15-15-6.7232-15-15-15z" color="#000000" opacity=".15" overflow="visible"/>
 <path d="m16 1c-8.2768 0-15 6.7232-15 15s6.7232 15 15 15 15-6.7232 15-15-6.7232-15-15-15z" color="#000000" fill="#f55" overflow="visible"/>
 <path d="M16 6a2 2 0 0 0-2 2c0 2 .667 6.667 1.333 12h1.334C17.333 14.667 18 10 18 8a2 2 0 0 0-2-2zm0 16a2 2 0 1 0 0 4 2 2 0 0 0 0-4z" fill="#fff"/>
 <path d="m16 1c-8.2768 0-15 6.7232-15 15 0 0.16762 0.0062466 0.33369 0.011719 0.5 0.26473-8.0454 6.8791-14.5 14.988-14.5 8.1092 0 14.724 6.4546 14.988 14.5 0.005472-0.16631 0.011719-0.33238 0.011719-0.5 0-8.2768-6.7232-15-15-15z" fill="#fff" opacity=".15"/>
</svg>
