<?xml version="1.0" encoding="UTF-8"?>
<svg width="32" height="32" version="1.1" xmlns="http://www.w3.org/2000/svg">
 <path d="m16 2c-8.2768 0-15 6.7232-15 15s6.7232 15 15 15 15-6.7232 15-15-6.7232-15-15-15z" color="#000000" opacity=".15" overflow="visible"/>
 <path d="m16 1c-8.2768 0-15 6.7232-15 15s6.7232 15 15 15 15-6.7232 15-15-6.7232-15-15-15z" fill="#4199f2"/>
 <path d="m11.981 15.788c0.192 0.52 0.407 0.94 0.865 0.365 0.569-0.339 2.473-1.82 2.283-0.369-0.61 2.687-1.352 5.346-1.92 8.04-0.593 1.476 0.754 2.811 2.161 1.852 1.496-0.617 2.783-1.621 4.098-2.542-0.18-0.44-0.3-1.072-0.795-0.497-0.65 0.295-2.072 1.688-2.337 0.54 0.547-2.91 1.56-5.712 2.208-8.598 0.595-1.327-0.378-3.004-1.834-1.906-1.746 0.76-3.205 2.002-4.729 3.115zm6.477-9.786c-1.78-0.094-2.711 2.776-1.02 3.562 1.374 0.563 2.868-0.845 2.533-2.252-0.104-0.733-0.762-1.334-1.513-1.31z" fill="#fff"/>
 <path d="m16 1c-8.2768 0-15 6.7232-15 15 0 0.16762 0.00625 0.33369 0.011719 0.5 0.26473-8.0454 6.8791-14.5 14.988-14.5 8.1092 0 14.724 6.4546 14.988 14.5 0.0055-0.16631 0.01172-0.33238 0.01172-0.5 0-8.2768-6.7232-15-15-15z" fill="#fff" opacity=".15"/>
</svg>
