<?xml version="1.0" encoding="UTF-8"?>
<svg width="32" height="32" version="1.1" xmlns="http://www.w3.org/2000/svg">
 <path d="m30.786 28.037-13.021-24c-0.37345-0.66681-1.051-1.037-1.8052-1.037-0.75517 0-1.4348 0.44489-1.8145 1.1107l-12.924 24c-0.30414 0.59318-0.30828 1.4073 0.066207 2.0004 0.37448 0.59215 0.97655 0.88874 1.7317 0.88874h25.945c0.7531 0 1.4338-0.37022 1.7379-0.96341 0.37966-0.59215 0.38276-1.3326 0.08379-1.9994z" opacity=".15"/>
 <path d="m30.786 27.037-13.021-24c-0.37345-0.66681-1.051-1.037-1.8052-1.037-0.75517 0-1.4348 0.44489-1.8145 1.1107l-12.924 24c-0.30414 0.59318-0.30828 1.4073 0.066207 2.0004 0.37448 0.59215 0.97655 0.88874 1.7317 0.88874h25.945c0.7531 0 1.4338-0.37022 1.7379-0.96341 0.37966-0.59215 0.38276-1.3326 0.08379-1.9994z" fill="#f4df40"/>
 <path d="M0 0h32v32H0z" fill="none"/>
 <path transform="translate(.004)" d="M14.416 9.516c.375 3.666.805 7.307 1.125 10.987h1.02c.265-3.534.692-7.047 1-10.578.158-.835-.272-1.828-1.154-2.03-.873-.256-1.847.376-1.963 1.278-.02.113-.028.228-.028.343zm-.111 14.905c-.04 1.092 1.161 1.947 2.186 1.601.993-.253 1.516-1.501 1.007-2.389-.455-.917-1.791-1.219-2.56-.517-.388.32-.646.796-.633 1.305z" fill="#6f4d13" font-family="Georgia" font-size="62.458" font-weight="400" overflow="visible"/>
 <path d="m15.959 2c-0.75517 0-1.4348 0.44552-1.8145 1.1113l-12.924 24c-0.21716 0.42355-0.27752 0.95737-0.16016 1.4453 0.037299-0.15677 0.089224-0.30697 0.16016-0.44531l12.924-24c0.3797-0.66581 1.0593-1.1113 1.8145-1.1113 0.7542 0 1.4332 0.3703 1.8066 1.0371l13.02 24c0.065937 0.14706 0.11659 0.29738 0.15234 0.44922 0.11798-0.46747 0.059499-0.97674-0.15234-1.4492l-13.02-24c-0.37345-0.66681-1.0524-1.0371-1.8066-1.0371z" fill="#fff" opacity=".25"/>
</svg>
