<?xml version="1.0" encoding="UTF-8"?>
<svg width="32" height="32" version="1.1" xmlns="http://www.w3.org/2000/svg">
 <path d="m16 2c-8.2768 0-15 6.7232-15 15s6.7232 15 15 15 15-6.7232 15-15-6.7232-15-15-15z" color="#000000" opacity=".25" overflow="visible"/>
 <path d="m16 1c-8.2843 0-15 6.7157-15 15s6.7157 15 15 15 15-6.7157 15-15-6.7157-15-15-15z" fill="#ccc"/>
 <path d="m16 1c-8.2768 0-15 6.7232-15 15 0 0.16762 0.00625 0.33369 0.011719 0.5 0.26473-8.0454 6.8791-14.5 14.988-14.5 8.1092 0 14.724 6.4546 14.988 14.5 0.0055-0.16631 0.01172-0.33238 0.01172-0.5 0-8.2768-6.7232-15-15-15z" fill="#fff" opacity=".25"/>
 <path d="M16 27C9.925 27 5 22.075 5 16S9.925 5 16 5s11 4.925 11 11-4.925 11-11 11z" fill="#b3b3b3"/>
 <path d="M16.25 11a2.75 2.75 0 0 0-2.75 2.75c0 1.14.683 2.112 1.67 2.53L13.5 22H19l-1.67-5.72A2.735 2.735 0 0 0 19 13.75 2.75 2.75 0 0 0 16.25 11z" fill="#333" overflow="visible" stroke-width="1.091"/>
 <path d="M16 10.695a2.83 2.83 0 0 0-2.83 2.83c0 1.172.703 2.172 1.72 2.601l-1.72 5.886h5.66l-1.718-5.886a2.814 2.814 0 0 0 1.717-2.602A2.83 2.83 0 0 0 16 10.695z" fill="none" overflow="visible" stroke-width="1.06"/>
</svg>
