<?xml version="1.0" encoding="UTF-8"?>
<svg width="32" height="32" version="1.0" xmlns="http://www.w3.org/2000/svg">
 <defs>
  <filter id="d" x="-.036" y="-.036" width="1.072" height="1.072" color-interpolation-filters="sRGB">
   <feGaussianBlur stdDeviation="0.45"/>
  </filter>
 </defs>
 <path d="m16 2c-8.2768 0-15 6.7232-15 15s6.7232 15 15 15 15-6.7232 15-15-6.7232-15-15-15z" color="#000000" opacity=".15" overflow="visible"/>
 <path d="m16 1c-8.2768 0-15 6.7232-15 15s6.7232 15 15 15 15-6.7232 15-15-6.7232-15-15-15z" color="#000000" filter="url(#d)" opacity=".25" overflow="visible"/>
 <path d="m16 1c-8.2768 0-15 6.7232-15 15s6.7232 15 15 15 15-6.7232 15-15-6.7232-15-15-15z" color="#000000" fill="#333" overflow="visible"/>
 <g fill="#e0574c">
  <path d="M16 10.011c3.305 0 6 2.71 6 6.003 0 3.291-2.695 5.975-6 5.975s-6-2.684-6-5.975c0-3.292 2.695-6.003 6-6.003zm0 1.73a4.27 4.27 0 0 0-4.29 4.273c0 2.368 1.912 4.245 4.29 4.245s4.29-1.877 4.29-4.245A4.27 4.27 0 0 0 16 11.74z" overflow="visible" style="text-indent:0;text-transform:none"/>
  <path d="m13.177 11.973 6.85 6.85-1.204 1.204-6.85-6.85z" overflow="visible" style="text-indent:0;text-transform:none"/>
 </g>
 <path d="m-5.0492e-8 -9.6492e-8h32v32h-32z" fill="none"/>
 <path d="m16 1c-8.2768 0-15 6.7232-15 15 0 0.16762 0.00625 0.33369 0.011719 0.5 0.26473-8.0454 6.8791-14.5 14.988-14.5 8.1092 0 14.724 6.4546 14.988 14.5 0.0055-0.16631 0.01172-0.33238 0.01172-0.5 0-8.2768-6.7232-15-15-15z" fill="#fff" opacity=".1"/>
</svg>
