/* XPM */
static char *button_active_Normal[] = {
/* columns rows colors chars-per-pixel */
"36 34 2 1 ",
"  c None",
". c #2C2C2C s active_color_2",
/* pixels */
"                                    ",
"                                    ",
"                                    ",
"               ......               ",
"             ..........             ",
"           ..............           ",
"         ..................         ",
"        ....................        ",
"       ......................       ",
"       ......................       ",
"      ........................      ",
"      ........................      ",
"     ..........................     ",
"     ..........................     ",
"    ............................    ",
"    ............................    ",
"    ............................    ",
"    ............................    ",
"    ............................    ",
"    ............................    ",
"     ..........................     ",
"     ..........................     ",
"      ........................      ",
"      ........................      ",
"       ......................       ",
"       ......................       ",
"        ....................        ",
"         ..................         ",
"           ..............           ",
"             ..........             ",
"               ......               ",
"                                    ",
"                                    ",
"                                    "
};
